ISO-10303-21;
HEADER;
FILE_DESCRIPTION (( 'STEP AP214' ),
    '1' );
FILE_NAME ('Battery-Stopper.STEP',
    '2026-05-20T19:20:27',
    ( '' ),
    ( '' ),
    'SwSTEP 2.0',
    'SolidWorks 2026',
    '' );
FILE_SCHEMA (( 'AUTOMOTIVE_DESIGN' ));
ENDSEC;

DATA;
#1 = EDGE_LOOP ( 'NONE', ( #213, #352, #366, #749, #388, #141 ) ) ;
#2 = APPLICATION_CONTEXT ( 'automotive_design' ) ;
#3 = DIRECTION ( 'NONE',  ( 0.000000000000000000, 1.000000000000000000, 0.000000000000000000 ) ) ;
#4 = CARTESIAN_POINT ( 'NONE',  ( 0.000000000000000000, 0.000000000000000000, -17.49999999999999645 ) ) ;
#5 = EDGE_LOOP ( 'NONE', ( #584, #266 ) ) ;
#6 = DIRECTION ( 'NONE',  ( 0.000000000000000000, 0.000000000000000000, 1.000000000000000000 ) ) ;
#7 = EDGE_CURVE ( 'NONE', #675, #616, #133, .T. ) ;
#8 = PLANE ( 'NONE',  #592 ) ;
#9 = VERTEX_POINT ( 'NONE', #625 ) ;
#10 = AXIS2_PLACEMENT_3D ( 'NONE', #425, #422, #81 ) ;
#11 = CARTESIAN_POINT ( 'NONE',  ( 5.000000000000000000, 12.49999999999999822, 22.50000000000000000 ) ) ;
#12 = CARTESIAN_POINT ( 'NONE',  ( 5.000000000000000000, 11.49029258529352227, -17.49999999999999645 ) ) ;
#13 = ORIENTED_EDGE ( 'NONE', *, *, #589, .T. ) ;
#14 = EDGE_CURVE ( 'NONE', #101, #356, #264, .T. ) ;
#15 = LINE ( 'NONE', #603, #318 ) ;
#16 = ORIENTED_EDGE ( 'NONE', *, *, #589, .F. ) ;
#17 = CIRCLE ( 'NONE', #323, 1.499999999999997780 ) ;
#18 = UNCERTAINTY_MEASURE_WITH_UNIT (LENGTH_MEASURE( 1.000000000000000082E-05 ), #590, 'distance_accuracy_value', 'NONE');
#19 = EDGE_CURVE ( 'NONE', #313, #36, #270, .T. ) ;
#20 = ORIENTED_EDGE ( 'NONE', *, *, #760, .F. ) ;
#21 = EDGE_CURVE ( 'NONE', #450, #101, #147, .T. ) ;
#22 = PLANE ( 'NONE',  #268 ) ;
#23 = VERTEX_POINT ( 'NONE', #332 ) ;
#24 = ORIENTED_EDGE ( 'NONE', *, *, #262, .F. ) ;
#25 = DIRECTION ( 'NONE',  ( 1.000000000000000000, -0.000000000000000000, -0.000000000000000000 ) ) ;
#26 = CIRCLE ( 'NONE', #64, 1.499999999999997780 ) ;
#27 = EDGE_CURVE ( 'NONE', #356, #450, #677, .T. ) ;
#28 = VERTEX_POINT ( 'NONE', #553 ) ;
#29 = ORIENTED_EDGE ( 'NONE', *, *, #19, .F. ) ;
#30 = CARTESIAN_POINT ( 'NONE',  ( 5.000000000000000000, -5.599476508107136041, -12.49999999999999822 ) ) ;
#31 = ORIENTED_EDGE ( 'NONE', *, *, #223, .F. ) ;
#32 = VERTEX_POINT ( 'NONE', #501 ) ;
#33 = FILL_AREA_STYLE ('',( #273 ) ) ;
#34 = DIRECTION ( 'NONE',  ( 0.000000000000000000, 0.000000000000000000, 1.000000000000000000 ) ) ;
#35 = PLANE ( 'NONE',  #594 ) ;
#36 = VERTEX_POINT ( 'NONE', #324 ) ;
#37 = VECTOR ( 'NONE', #99, 1000.000000000000000 ) ;
#38 = VERTEX_POINT ( 'NONE', #557 ) ;
#39 = EDGE_CURVE ( 'NONE', #616, #38, #321, .T. ) ;
#40 = VECTOR ( 'NONE', #269, 1000.000000000000000 ) ;
#41 =( NAMED_UNIT ( * ) SI_UNIT ( $, .STERADIAN. ) SOLID_ANGLE_UNIT ( ) );
#42 = DIRECTION ( 'NONE',  ( 0.000000000000000000, 0.000000000000000000, -1.000000000000000000 ) ) ;
#43 = ADVANCED_FACE ( 'NONE', ( #209 ), #754, .F. ) ;
#44 = ORIENTED_EDGE ( 'NONE', *, *, #766, .T. ) ;
#45 = PLANE ( 'NONE',  #282 ) ;
#46 = DIRECTION ( 'NONE',  ( -0.000000000000000000, 0.000000000000000000, 1.000000000000000000 ) ) ;
#47 = LINE ( 'NONE', #290, #257 ) ;
#48 = DIRECTION ( 'NONE',  ( 0.7071067811865512365, -0.7071067811865439090, -0.000000000000000000 ) ) ;
#49 = CARTESIAN_POINT ( 'NONE',  ( 0.000000000000000000, -5.599476508107136041, -12.49999999999999822 ) ) ;
#50 = EDGE_CURVE ( 'NONE', #380, #714, #26, .T. ) ;
#51 = AXIS2_PLACEMENT_3D ( 'NONE', #336, #572, #574 ) ;
#52 = APPLICATION_PROTOCOL_DEFINITION ( 'draft international standard', 'automotive_design', 1998, #653 ) ;
#53 = CARTESIAN_POINT ( 'NONE',  ( 0.000000000000000000, -5.599476508107135153, -2.499999999999995115 ) ) ;
#54 = LINE ( 'NONE', #525, #414 ) ;
#55 = APPLICATION_PROTOCOL_DEFINITION ( 'draft international standard', 'automotive_design', 1998, #2 ) ;
#56 = VECTOR ( 'NONE', #246, 1000.000000000000000 ) ;
#57 = DIRECTION ( 'NONE',  ( 0.000000000000000000, 0.000000000000000000, -1.000000000000000000 ) ) ;
#58 = DIRECTION ( 'NONE',  ( 1.000000000000000000, 5.204170427930421283E-15, 0.000000000000000000 ) ) ;
#59 = ORIENTED_EDGE ( 'NONE', *, *, #386, .T. ) ;
#60 = CARTESIAN_POINT ( 'NONE',  ( 0.000000000000000000, 12.49999999999999822, -20.49999999999997513 ) ) ;
#61 = LINE ( 'NONE', #509, #457 ) ;
#62 = FACE_BOUND ( 'NONE', #256, .T. ) ;
#63 = ORIENTED_EDGE ( 'NONE', *, *, #689, .F. ) ;
#64 = AXIS2_PLACEMENT_3D ( 'NONE', #686, #694, #42 ) ;
#65 = VECTOR ( 'NONE', #383, 1000.000000000000000 ) ;
#66 = EDGE_CURVE ( 'NONE', #382, #349, #385, .T. ) ;
#67 = DIRECTION ( 'NONE',  ( -1.051966462695671533E-16, -1.000000000000000000, 0.000000000000000000 ) ) ;
#68 = CARTESIAN_POINT ( 'NONE',  ( 0.000000000000000000, -9.500000000000001776, -18.50000000000000000 ) ) ;
#69 = VERTEX_POINT ( 'NONE', #274 ) ;
#70 = AXIS2_PLACEMENT_3D ( 'NONE', #764, #57, #516 ) ;
#71 = DIRECTION ( 'NONE',  ( 1.000000000000000000, -0.000000000000000000, -0.000000000000000000 ) ) ;
#72 = DIRECTION ( 'NONE',  ( 0.000000000000000000, -1.000000000000000000, 0.000000000000000000 ) ) ;
#73 = ORIENTED_EDGE ( 'NONE', *, *, #611, .F. ) ;
#74 = FACE_OUTER_BOUND ( 'NONE', #554, .T. ) ;
#75 = CARTESIAN_POINT ( 'NONE',  ( 0.000000000000000000, -9.500000000000001776, 18.50000000000000000 ) ) ;
#76 = ORIENTED_EDGE ( 'NONE', *, *, #150, .F. ) ;
#77 = EDGE_CURVE ( 'NONE', #23, #263, #90, .T. ) ;
#78 = CIRCLE ( 'NONE', #503, 1.500000000000001332 ) ;
#79 = LINE ( 'NONE', #368, #400 ) ;
#80 = ORIENTED_EDGE ( 'NONE', *, *, #738, .T. ) ;
#81 = DIRECTION ( 'NONE',  ( 0.000000000000000000, 0.000000000000000000, -1.000000000000000000 ) ) ;
#82 = ORIENTED_EDGE ( 'NONE', *, *, #262, .T. ) ;
#83 = ORIENTED_EDGE ( 'NONE', *, *, #118, .F. ) ;
#84 = FACE_OUTER_BOUND ( 'NONE', #620, .T. ) ;
#85 = CARTESIAN_POINT ( 'NONE',  ( 5.000000000000000000, -4.999999999999999112, -22.50000000000000000 ) ) ;
#86 = VECTOR ( 'NONE', #339, 1000.000000000000000 ) ;
#87 = ORIENTED_EDGE ( 'NONE', *, *, #14, .F. ) ;
#88 = AXIS2_PLACEMENT_3D ( 'NONE', #522, #235, #402 ) ;
#89 = VECTOR ( 'NONE', #102, 1000.000000000000000 ) ;
#90 = LINE ( 'NONE', #85, #491 ) ;
#91 = ORIENTED_EDGE ( 'NONE', *, *, #444, .T. ) ;
#92 = ADVANCED_FACE ( 'NONE', ( #381 ), #510, .F. ) ;
#93 = DIRECTION ( 'NONE',  ( -0.000000000000000000, -0.000000000000000000, 1.000000000000000000 ) ) ;
#94 = ORIENTED_EDGE ( 'NONE', *, *, #344, .T. ) ;
#95 = LINE ( 'NONE', #326, #607 ) ;
#96 = DIRECTION ( 'NONE',  ( -0.000000000000000000, 1.000000000000000000, 1.126217788186507623E-16 ) ) ;
#97 = EDGE_CURVE ( 'NONE', #450, #559, #316, .T. ) ;
#98 = ORIENTED_EDGE ( 'NONE', *, *, #21, .T. ) ;
#99 = DIRECTION ( 'NONE',  ( -0.000000000000000000, -0.000000000000000000, 1.000000000000000000 ) ) ;
#100 = ORIENTED_EDGE ( 'NONE', *, *, #27, .T. ) ;
#101 = VERTEX_POINT ( 'NONE', #49 ) ;
#102 = DIRECTION ( 'NONE',  ( -0.7071067811865463515, -0.000000000000000000, -0.7071067811865487940 ) ) ;
#103 = PLANE ( 'NONE',  #330 ) ;
#104 = CARTESIAN_POINT ( 'NONE',  ( 5.000000000000000000, -9.500000000000001776, 18.50000000000000000 ) ) ;
#105 = EDGE_CURVE ( 'NONE', #748, #426, #338, .T. ) ;
#106 = DIRECTION ( 'NONE',  ( 0.000000000000000000, -0.000000000000000000, 1.000000000000000000 ) ) ;
#107 = CARTESIAN_POINT ( 'NONE',  ( 0.000000000000000000, -5.599476508107136041, -12.49999999999999822 ) ) ;
#108 = CARTESIAN_POINT ( 'NONE',  ( 0.000000000000000000, -12.50000000000000178, -20.49999999999997513 ) ) ;
#109 = FACE_OUTER_BOUND ( 'NONE', #495, .T. ) ;
#110 = DIRECTION ( 'NONE',  ( 0.7071067811865463515, 0.000000000000000000, -0.7071067811865487940 ) ) ;
#111 = VECTOR ( 'NONE', #474, 1000.000000000000000 ) ;
#112 = FACE_BOUND ( 'NONE', #314, .T. ) ;
#113 = DIRECTION ( 'NONE',  ( 0.000000000000000000, 0.000000000000000000, -1.000000000000000000 ) ) ;
#114 = ORIENTED_EDGE ( 'NONE', *, *, #719, .F. ) ;
#115 = DIRECTION ( 'NONE',  ( 1.000000000000000000, 3.469446951953611033E-15, 0.000000000000000000 ) ) ;
#116 = LINE ( 'NONE', #713, #762 ) ;
#117 = VERTEX_POINT ( 'NONE', #771 ) ;
#118 = EDGE_CURVE ( 'NONE', #742, #484, #220, .T. ) ;
#119 = LINE ( 'NONE', #417, #728 ) ;
#120 = CARTESIAN_POINT ( 'NONE',  ( 0.000000000000000000, 9.803614209986974970, -12.49999999999999645 ) ) ;
#121 = ORIENTED_EDGE ( 'NONE', *, *, #411, .F. ) ;
#122 = DIRECTION ( 'NONE',  ( 0.000000000000000000, 0.000000000000000000, -1.000000000000000000 ) ) ;
#123 = VECTOR ( 'NONE', #729, 1000.000000000000000 ) ;
#124 = CARTESIAN_POINT ( 'NONE',  ( 5.000000000000000000, -4.999999999999999112, -22.50000000000000000 ) ) ;
#125 = ORIENTED_EDGE ( 'NONE', *, *, #254, .F. ) ;
#126 = LINE ( 'NONE', #723, #767 ) ;
#127 = ADVANCED_FACE ( 'NONE', ( #583 ), #765, .F. ) ;
#128 = CARTESIAN_POINT ( 'NONE',  ( 2.000000000000001776, 12.49999999999999822, -22.50000000000000000 ) ) ;
#129 = ORIENTED_EDGE ( 'NONE', *, *, #286, .F. ) ;
#130 = DIRECTION ( 'NONE',  ( 0.000000000000000000, -1.000000000000000000, 0.000000000000000000 ) ) ;
#131 = DIRECTION ( 'NONE',  ( 1.000000000000000000, 0.000000000000000000, 0.000000000000000000 ) ) ;
#132 = VERTEX_POINT ( 'NONE', #518 ) ;
#133 = CIRCLE ( 'NONE', #389, 1.000000000000000888 ) ;
#134 = ORIENTED_EDGE ( 'NONE', *, *, #611, .T. ) ;
#135 = AXIS2_PLACEMENT_3D ( 'NONE', #214, #218, #456 ) ;
#136 = EDGE_CURVE ( 'NONE', #69, #272, #219, .T. ) ;
#137 = LINE ( 'NONE', #12, #307 ) ;
#138 = EDGE_LOOP ( 'NONE', ( #438, #152, #267, #179, #125 ) ) ;
#139 = ORIENTED_EDGE ( 'NONE', *, *, #560, .F. ) ;
#140 = LINE ( 'NONE', #506, #711 ) ;
#141 = ORIENTED_EDGE ( 'NONE', *, *, #344, .F. ) ;
#142 = ADVANCED_FACE ( 'NONE', ( #222 ), #103, .F. ) ;
#143 = CARTESIAN_POINT ( 'NONE',  ( 2.000000000000001776, -12.50000000000000178, -22.50000000000000000 ) ) ;
#144 = DIRECTION ( 'NONE',  ( 0.000000000000000000, 0.000000000000000000, 1.000000000000000000 ) ) ;
#145 = ORIENTED_EDGE ( 'NONE', *, *, #655, .F. ) ;
#146 = LINE ( 'NONE', #260, #37 ) ;
#147 = LINE ( 'NONE', #618, #576 ) ;
#148 = ORIENTED_EDGE ( 'NONE', *, *, #66, .F. ) ;
#149 = DIRECTION ( 'NONE',  ( 0.000000000000000000, 0.000000000000000000, -1.000000000000000000 ) ) ;
#150 = EDGE_CURVE ( 'NONE', #490, #742, #116, .T. ) ;
#151 = DIRECTION ( 'NONE',  ( -1.000000000000000000, 1.051966462695671410E-16, -0.000000000000000000 ) ) ;
#152 = ORIENTED_EDGE ( 'NONE', *, *, #7, .T. ) ;
#153 = CARTESIAN_POINT ( 'NONE',  ( 0.000000000000000000, 9.803614209986974970, 12.50000000000000355 ) ) ;
#154 = CARTESIAN_POINT ( 'NONE',  ( 6.000000000000000000, 11.90450614766662163, 0.000000000000000000 ) ) ;
#155 = ORIENTED_EDGE ( 'NONE', *, *, #416, .F. ) ;
#156 = PLANE ( 'NONE',  #566 ) ;
#157 = DIRECTION ( 'NONE',  ( 0.000000000000000000, 1.000000000000000000, 1.126217788186507623E-16 ) ) ;
#158 = PRODUCT_DEFINITION_SHAPE ( 'NONE', 'NONE',  #662 ) ;
#159 = EDGE_CURVE ( 'NONE', #261, #36, #54, .T. ) ;
#160 = CARTESIAN_POINT ( 'NONE',  ( 2.000000000000001776, -12.50000000000000178, 22.50000000000000000 ) ) ;
#161 = DIRECTION ( 'NONE',  ( 0.000000000000000000, -0.000000000000000000, -1.000000000000000000 ) ) ;
#162 = DIRECTION ( 'NONE',  ( 0.000000000000000000, 0.000000000000000000, -1.000000000000000000 ) ) ;
#163 = CARTESIAN_POINT ( 'NONE',  ( 5.000000000000000000, -12.50000000000000178, -22.50000000000000000 ) ) ;
#164 = CARTESIAN_POINT ( 'NONE',  ( 21.49029258529370168, -5.000000000000000888, -22.50000000000000000 ) ) ;
#165 = ADVANCED_FACE ( 'NONE', ( #705 ), #167, .F. ) ;
#166 = CARTESIAN_POINT ( 'NONE',  ( 5.000000000000000000, 9.803614209986974970, 2.500000000000002220 ) ) ;
#167 = PLANE ( 'NONE',  #88 ) ;
#168 = CLOSED_SHELL ( 'NONE', ( #505, #227, #202, #127, #671, #546, #539, #198, #396, #320, #502, #165, #703, #142, #177, #92, #496, #277, #695, #471, #310, #556, #43 ) ) ;
#169 = ORIENTED_EDGE ( 'NONE', *, *, #241, .F. ) ;
#170 = DIRECTION ( 'NONE',  ( 1.000000000000000000, 0.000000000000000000, 0.000000000000000000 ) ) ;
#171 = VECTOR ( 'NONE', #25, 1000.000000000000000 ) ;
#172 = DIRECTION ( 'NONE',  ( -0.000000000000000000, -0.000000000000000000, 1.000000000000000000 ) ) ;
#173 = FACE_BOUND ( 'NONE', #538, .T. ) ;
#174 = EDGE_CURVE ( 'NONE', #722, #38, #470, .T. ) ;
#175 = ORIENTED_EDGE ( 'NONE', *, *, #105, .F. ) ;
#176 = DIRECTION ( 'NONE',  ( 1.000000000000000000, 0.000000000000000000, 0.000000000000000000 ) ) ;
#177 = ADVANCED_FACE ( 'NONE', ( #391 ), #587, .F. ) ;
#178 = DIRECTION ( 'NONE',  ( 1.000000000000000000, -0.000000000000000000, -0.000000000000000000 ) ) ;
#179 = ORIENTED_EDGE ( 'NONE', *, *, #136, .T. ) ;
#180 = CARTESIAN_POINT ( 'NONE',  ( 0.000000000000000000, -9.500000000000001776, -16.99999999999999645 ) ) ;
#181 =( GEOMETRIC_REPRESENTATION_CONTEXT ( 3 ) GLOBAL_UNCERTAINTY_ASSIGNED_CONTEXT ( ( #18 ) ) GLOBAL_UNIT_ASSIGNED_CONTEXT ( ( #590, #283, #520 ) ) REPRESENTATION_CONTEXT ( 'NONE', 'WORKASPACE' ) );
#182 = CARTESIAN_POINT ( 'NONE',  ( 0.000000000000000000, -5.599476508107135153, 12.50000000000000355 ) ) ;
#183 = ORIENTED_EDGE ( 'NONE', *, *, #733, .F. ) ;
#184 = EDGE_CURVE ( 'NONE', #272, #614, #644, .T. ) ;
#185 = DIRECTION ( 'NONE',  ( -0.000000000000000000, -0.000000000000000000, 1.000000000000000000 ) ) ;
#186 = DIRECTION ( 'NONE',  ( 0.7071067811865487940, 0.000000000000000000, 0.7071067811865463515 ) ) ;
#187 = ORIENTED_EDGE ( 'NONE', *, *, #689, .T. ) ;
#188 = CARTESIAN_POINT ( 'NONE',  ( 5.000000000000000000, -12.50000000000000178, 22.50000000000000000 ) ) ;
#189 = CARTESIAN_POINT ( 'NONE',  ( 5.000000000000000000, -9.500000000000001776, -18.50000000000000000 ) ) ;
#190 = ORIENTED_EDGE ( 'NONE', *, *, #184, .T. ) ;
#191 = ORIENTED_EDGE ( 'NONE', *, *, #39, .T. ) ;
#192 = CYLINDRICAL_SURFACE ( 'NONE', #542, 1.500000000000001332 ) ;
#193 = ORIENTED_EDGE ( 'NONE', *, *, #551, .T. ) ;
#194 = ORIENTED_EDGE ( 'NONE', *, *, #738, .F. ) ;
#195 = CIRCLE ( 'NONE', #401, 1.499999999999997780 ) ;
#196 = DIRECTION ( 'NONE',  ( -1.000000000000000000, -0.000000000000000000, -0.000000000000000000 ) ) ;
#197 = ORIENTED_EDGE ( 'NONE', *, *, #159, .T. ) ;
#198 = ADVANCED_FACE ( 'NONE', ( #347, #173, #62, #633, #292 ), #530, .F. ) ;
#199 = VECTOR ( 'NONE', #378, 1000.000000000000114 ) ;
#200 =( NAMED_UNIT ( * ) PLANE_ANGLE_UNIT ( ) SI_UNIT ( $, .RADIAN. ) );
#201 = DIRECTION ( 'NONE',  ( 0.000000000000000000, 1.126217788186507623E-16, -1.000000000000000000 ) ) ;
#202 = ADVANCED_FACE ( 'NONE', ( #398 ), #699, .F. ) ;
#203 = VERTEX_POINT ( 'NONE', #513 ) ;
#204 = DIRECTION ( 'NONE',  ( 0.7071067811865463515, -0.000000000000000000, 0.7071067811865487940 ) ) ;
#205 = CARTESIAN_POINT ( 'NONE',  ( 19.07607902292058455, -4.000000000000000888, -17.49999999999999645 ) ) ;
#206 = ORIENTED_EDGE ( 'NONE', *, *, #296, .F. ) ;
#207 = EDGE_CURVE ( 'NONE', #722, #69, #761, .T. ) ;
#208 = VECTOR ( 'NONE', #567, 1000.000000000000000 ) ;
#209 = FACE_OUTER_BOUND ( 'NONE', #333, .T. ) ;
#210 = EDGE_LOOP ( 'NONE', ( #692, #190, #252, #504, #601, #94, #672, #155 ) ) ;
#211 = DIRECTION ( 'NONE',  ( 0.7071067811865439090, 0.7071067811865512365, 0.000000000000000000 ) ) ;
#212 = ORIENTED_EDGE ( 'NONE', *, *, #643, .T. ) ;
#213 = ORIENTED_EDGE ( 'NONE', *, *, #622, .T. ) ;
#214 = CARTESIAN_POINT ( 'NONE',  ( 2.000000000000001776, 12.49999999999999822, 22.50000000000000000 ) ) ;
#215 = DIRECTION ( 'NONE',  ( 1.000000000000000000, 0.000000000000000000, 0.000000000000000000 ) ) ;
#216 = DIRECTION ( 'NONE',  ( 0.000000000000000000, 1.000000000000000000, 0.000000000000000000 ) ) ;
#217 = ORIENTED_EDGE ( 'NONE', *, *, #416, .T. ) ;
#218 = DIRECTION ( 'NONE',  ( 0.7071067811865487940, 0.000000000000000000, -0.7071067811865463515 ) ) ;
#219 = CIRCLE ( 'NONE', #641, 1.000000000000000000 ) ;
#220 = LINE ( 'NONE', #229, #258 ) ;
#221 = FACE_OUTER_BOUND ( 'NONE', #545, .T. ) ;
#222 = FACE_OUTER_BOUND ( 'NONE', #654, .T. ) ;
#223 = EDGE_CURVE ( 'NONE', #382, #550, #341, .T. ) ;
#224 = FACE_BOUND ( 'NONE', #433, .T. ) ;
#225 = CARTESIAN_POINT ( 'NONE',  ( 2.000000000000001776, -12.50000000000000178, -22.50000000000000000 ) ) ;
#226 = CARTESIAN_POINT ( 'NONE',  ( 5.292893218813456535, 11.19739936648007195, -22.50000000000000000 ) ) ;
#227 = ADVANCED_FACE ( 'NONE', ( #657 ), #192, .F. ) ;
#228 = DIRECTION ( 'NONE',  ( -1.000000000000000000, -0.000000000000000000, -0.000000000000000000 ) ) ;
#229 = CARTESIAN_POINT ( 'NONE',  ( 0.000000000000000000, 12.49999999999999822, 22.50000000000000000 ) ) ;
#230 = VECTOR ( 'NONE', #449, 1000.000000000000000 ) ;
#231 = ORIENTED_EDGE ( 'NONE', *, *, #421, .F. ) ;
#232 = DIRECTION ( 'NONE',  ( 0.000000000000000000, 0.000000000000000000, 1.000000000000000000 ) ) ;
#233 = EDGE_CURVE ( 'NONE', #531, #263, #652, .T. ) ;
#234 = DIRECTION ( 'NONE',  ( 0.000000000000000000, 0.000000000000000000, -1.000000000000000000 ) ) ;
#235 = DIRECTION ( 'NONE',  ( 0.000000000000000000, -1.000000000000000000, -0.000000000000000000 ) ) ;
#236 = ORIENTED_EDGE ( 'NONE', *, *, #599, .T. ) ;
#237 = AXIS2_PLACEMENT_3D ( 'NONE', #405, #647, #115 ) ;
#238 = CARTESIAN_POINT ( 'NONE',  ( 0.000000000000000000, -9.500000000000001776, 17.00000000000000000 ) ) ;
#239 = DIRECTION ( 'NONE',  ( 1.000000000000000000, 0.000000000000000000, 0.000000000000000000 ) ) ;
#240 = ORIENTED_EDGE ( 'NONE', *, *, #207, .T. ) ;
#241 = EDGE_CURVE ( 'NONE', #294, #626, #600, .T. ) ;
#242 = DIRECTION ( 'NONE',  ( 1.000000000000000000, 0.000000000000000000, -0.000000000000000000 ) ) ;
#243 = DIRECTION ( 'NONE',  ( 1.000000000000000000, 0.000000000000000000, -0.000000000000000000 ) ) ;
#244 = EDGE_LOOP ( 'NONE', ( #231, #646, #83, #549 ) ) ;
#245 = VECTOR ( 'NONE', #327, 1000.000000000000000 ) ;
#246 = DIRECTION ( 'NONE',  ( -1.000000000000000000, -0.000000000000000000, -0.000000000000000000 ) ) ;
#247 = DIRECTION ( 'NONE',  ( 0.000000000000000000, 1.000000000000000000, -0.000000000000000000 ) ) ;
#248 = VECTOR ( 'NONE', #228, 1000.000000000000000 ) ;
#249 = ORIENTED_EDGE ( 'NONE', *, *, #615, .F. ) ;
#250 = PRODUCT_DEFINITION_CONTEXT ( 'detailed design', #653, 'design' ) ;
#251 = DIRECTION ( 'NONE',  ( 0.000000000000000000, 0.000000000000000000, -1.000000000000000000 ) ) ;
#252 = ORIENTED_EDGE ( 'NONE', *, *, #733, .T. ) ;
#253 = ORIENTED_EDGE ( 'NONE', *, *, #118, .T. ) ;
#254 = EDGE_CURVE ( 'NONE', #565, #272, #137, .T. ) ;
#255 = CARTESIAN_POINT ( 'NONE',  ( 5.000000000000000000, -9.500000000000001776, 18.50000000000000000 ) ) ;
#256 = EDGE_LOOP ( 'NONE', ( #429, #212 ) ) ;
#257 = VECTOR ( 'NONE', #575, 1000.000000000000000 ) ;
#258 = VECTOR ( 'NONE', #281, 1000.000000000000000 ) ;
#259 = ORIENTED_EDGE ( 'NONE', *, *, #628, .T. ) ;
#260 = CARTESIAN_POINT ( 'NONE',  ( 5.000000000000000000, 9.803614209986974970, 2.500000000000002220 ) ) ;
#261 = VERTEX_POINT ( 'NONE', #668 ) ;
#262 = EDGE_CURVE ( 'NONE', #356, #372, #79, .T. ) ;
#263 = VERTEX_POINT ( 'NONE', #124 ) ;
#264 = LINE ( 'NONE', #435, #696 ) ;
#265 = SURFACE_SIDE_STYLE ('',( #374 ) ) ;
#266 = ORIENTED_EDGE ( 'NONE', *, *, #271, .F. ) ;
#267 = ORIENTED_EDGE ( 'NONE', *, *, #551, .F. ) ;
#268 = AXIS2_PLACEMENT_3D ( 'NONE', #128, #186, #247 ) ;
#269 = DIRECTION ( 'NONE',  ( 0.000000000000000000, 0.000000000000000000, -1.000000000000000000 ) ) ;
#270 = LINE ( 'NONE', #379, #245 ) ;
#271 = EDGE_CURVE ( 'NONE', #32, #349, #78, .T. ) ;
#272 = VERTEX_POINT ( 'NONE', #533 ) ;
#273 = FILL_AREA_STYLE_COLOUR ( '', #708 ) ;
#274 = CARTESIAN_POINT ( 'NONE',  ( 5.292893218813456535, 11.19739936648007195, -17.49999999999999645 ) ) ;
#275 = ORIENTED_EDGE ( 'NONE', *, *, #97, .F. ) ;
#276 = FACE_OUTER_BOUND ( 'NONE', #1, .T. ) ;
#277 = ADVANCED_FACE ( 'NONE', ( #605 ), #22, .F. ) ;
#278 = DIRECTION ( 'NONE',  ( 1.000000000000000000, 0.000000000000000000, 0.000000000000000000 ) ) ;
#279 = FACE_OUTER_BOUND ( 'NONE', #210, .T. ) ;
#280 = AXIS2_PLACEMENT_3D ( 'NONE', #717, #769, #702 ) ;
#281 = DIRECTION ( 'NONE',  ( -0.000000000000000000, -0.000000000000000000, 1.000000000000000000 ) ) ;
#282 = AXIS2_PLACEMENT_3D ( 'NONE', #393, #346, #397 ) ;
#283 =( NAMED_UNIT ( * ) PLANE_ANGLE_UNIT ( ) SI_UNIT ( $, .RADIAN. ) );
#284 = LINE ( 'NONE', #521, #715 ) ;
#285 = DIRECTION ( 'NONE',  ( 0.000000000000000000, -0.7164187916513592436, -0.6976704916855851479 ) ) ;
#286 = EDGE_CURVE ( 'NONE', #742, #748, #418, .T. ) ;
#287 = LINE ( 'NONE', #53, #597 ) ;
#288 = DIRECTION ( 'NONE',  ( -0.7071067811865463515, -0.000000000000000000, 0.7071067811865487940 ) ) ;
#289 = ORIENTED_EDGE ( 'NONE', *, *, #174, .F. ) ;
#290 = CARTESIAN_POINT ( 'NONE',  ( 5.000000000000000000, -5.599476508107135153, -2.499999999999995115 ) ) ;
#291 = CARTESIAN_POINT ( 'NONE',  ( 0.000000000000000000, 0.000000000000000000, 20.49999999999998934 ) ) ;
#292 = FACE_OUTER_BOUND ( 'NONE', #244, .T. ) ;
#293 = PRODUCT_DEFINITION_FORMATION_WITH_SPECIFIED_SOURCE ( 'Symmetric', '', #763, .NOT_KNOWN. ) ;
#294 = VERTEX_POINT ( 'NONE', #300 ) ;
#295 = CARTESIAN_POINT ( 'NONE',  ( 19.78318580410713068, -3.292893218813448986, -17.49999999999999645 ) ) ;
#296 = EDGE_CURVE ( 'NONE', #543, #117, #195, .T. ) ;
#297 = LINE ( 'NONE', #322, #345 ) ;
#298 = ORIENTED_EDGE ( 'NONE', *, *, #7, .F. ) ;
#299 = PLANE ( 'NONE',  #684 ) ;
#300 = CARTESIAN_POINT ( 'NONE',  ( 2.000000000000001776, 12.49999999999999822, 22.50000000000000000 ) ) ;
#301 = ORIENTED_EDGE ( 'NONE', *, *, #14, .T. ) ;
#302 = UNCERTAINTY_MEASURE_WITH_UNIT (LENGTH_MEASURE( 1.000000000000000082E-05 ), #498, 'distance_accuracy_value', 'NONE');
#303 = DIRECTION ( 'NONE',  ( 0.000000000000000000, 0.000000000000000000, -1.000000000000000000 ) ) ;
#304 = VECTOR ( 'NONE', #527, 1000.000000000000000 ) ;
#305 = CARTESIAN_POINT ( 'NONE',  ( 0.000000000000000000, 0.000000000000000000, -20.49999999999998934 ) ) ;
#306 = EDGE_LOOP ( 'NONE', ( #44, #772, #139, #561 ) ) ;
#307 = VECTOR ( 'NONE', #660, 1000.000000000000000 ) ;
#308 = CARTESIAN_POINT ( 'NONE',  ( 5.000000000000000000, 12.49999999999999822, -22.50000000000000000 ) ) ;
#309 = ORIENTED_EDGE ( 'NONE', *, *, #223, .T. ) ;
#310 = ADVANCED_FACE ( 'NONE', ( #664 ), #8, .T. ) ;
#311 = ORIENTED_EDGE ( 'NONE', *, *, #296, .T. ) ;
#312 = DIRECTION ( 'NONE',  ( 0.000000000000000000, 0.000000000000000000, -1.000000000000000000 ) ) ;
#313 = VERTEX_POINT ( 'NONE', #182 ) ;
#314 = EDGE_LOOP ( 'NONE', ( #325, #447, #588 ) ) ;
#315 = CARTESIAN_POINT ( 'NONE',  ( 0.000000000000000000, 9.803614209986974970, 2.500000000000002220 ) ) ;
#316 = LINE ( 'NONE', #636, #709 ) ;
#317 = ORIENTED_EDGE ( 'NONE', *, *, #334, .F. ) ;
#318 = VECTOR ( 'NONE', #541, 1000.000000000000000 ) ;
#319 = CARTESIAN_POINT ( 'NONE',  ( 0.000000000000000000, -5.599476508107136041, -12.49999999999999822 ) ) ;
#320 = ADVANCED_FACE ( 'NONE', ( #489 ), #365, .F. ) ;
#321 = LINE ( 'NONE', #751, #355 ) ;
#322 = CARTESIAN_POINT ( 'NONE',  ( 0.000000000000000000, 9.803614209986974970, 12.50000000000000355 ) ) ;
#323 = AXIS2_PLACEMENT_3D ( 'NONE', #659, #176, #234 ) ;
#324 = CARTESIAN_POINT ( 'NONE',  ( 5.000000000000000000, -5.599476508107135153, 12.50000000000000355 ) ) ;
#325 = ORIENTED_EDGE ( 'NONE', *, *, #766, .F. ) ;
#326 = CARTESIAN_POINT ( 'NONE',  ( 5.000000000000000000, -12.50000000000000178, -22.50000000000000000 ) ) ;
#327 = DIRECTION ( 'NONE',  ( 1.000000000000000000, -0.000000000000000000, -0.000000000000000000 ) ) ;
#328 = EDGE_LOOP ( 'NONE', ( #197, #29, #746, #740 ) ) ;
#329 = STYLED_ITEM ( 'NONE', ( #555 ), #428 ) ;
#330 = AXIS2_PLACEMENT_3D ( 'NONE', #107, #581, #285 ) ;
#331 = CARTESIAN_POINT ( 'NONE',  ( 0.000000000000000000, -9.500000000000001776, 17.00000000000000000 ) ) ;
#332 = CARTESIAN_POINT ( 'NONE',  ( 19.07607902292058455, -5.000000000000000888, -22.50000000000000000 ) ) ;
#333 = EDGE_LOOP ( 'NONE', ( #674, #487, #114, #493 ) ) ;
#334 = EDGE_CURVE ( 'NONE', #714, #543, #15, .T. ) ;
#335 = DIRECTION ( 'NONE',  ( 0.000000000000000000, 0.7164187916513593546, 0.6976704916855851479 ) ) ;
#336 = CARTESIAN_POINT ( 'NONE',  ( 0.000000000000000000, 0.000000000000000000, 0.000000000000000000 ) ) ;
#337 = CARTESIAN_POINT ( 'NONE',  ( 0.000000000000000000, -9.500000000000001776, -16.99999999999999645 ) ) ;
#338 = LINE ( 'NONE', #225, #669 ) ;
#339 = DIRECTION ( 'NONE',  ( -1.000000000000000000, -0.000000000000000000, -0.000000000000000000 ) ) ;
#340 = CARTESIAN_POINT ( 'NONE',  ( 5.000000000000000000, -4.999999999999999112, -17.49999999999999645 ) ) ;
#341 = CIRCLE ( 'NONE', #10, 1.500000000000001332 ) ;
#342 = DIRECTION ( 'NONE',  ( -0.000000000000000000, -0.000000000000000000, -1.000000000000000000 ) ) ;
#343 =( GEOMETRIC_REPRESENTATION_CONTEXT ( 3 ) GLOBAL_UNCERTAINTY_ASSIGNED_CONTEXT ( ( #302 ) ) GLOBAL_UNIT_ASSIGNED_CONTEXT ( ( #498, #200, #41 ) ) REPRESENTATION_CONTEXT ( 'NONE', 'WORKASPACE' ) );
#344 = EDGE_CURVE ( 'NONE', #650, #531, #482, .T. ) ;
#345 = VECTOR ( 'NONE', #427, 1000.000000000000000 ) ;
#346 = DIRECTION ( 'NONE',  ( 1.000000000000000000, 0.000000000000000000, 0.000000000000000000 ) ) ;
#347 = FACE_BOUND ( 'NONE', #667, .T. ) ;
#348 = EDGE_CURVE ( 'NONE', #349, #32, #631, .T. ) ;
#349 = VERTEX_POINT ( 'NONE', #485 ) ;
#350 = CARTESIAN_POINT ( 'NONE',  ( 0.000000000000000000, -5.599476508107135153, -2.499999999999995115 ) ) ;
#351 = DIRECTION ( 'NONE',  ( 0.000000000000000000, -1.000000000000000000, 0.000000000000000000 ) ) ;
#352 = ORIENTED_EDGE ( 'NONE', *, *, #514, .T. ) ;
#353 = DIRECTION ( 'NONE',  ( 1.000000000000000000, -0.000000000000000000, -0.000000000000000000 ) ) ;
#354 = CARTESIAN_POINT ( 'NONE',  ( 0.000000000000000000, -9.500000000000001776, -18.50000000000000000 ) ) ;
#355 = VECTOR ( 'NONE', #507, 1000.000000000000000 ) ;
#356 = VERTEX_POINT ( 'NONE', #120 ) ;
#357 = DIRECTION ( 'NONE',  ( 1.000000000000000000, -1.051966462695671533E-16, 0.000000000000000000 ) ) ;
#358 = AXIS2_PLACEMENT_3D ( 'NONE', #750, #679, #149 ) ;
#359 = CARTESIAN_POINT ( 'NONE',  ( 2.000000000000001776, 12.49999999999999822, 22.50000000000000000 ) ) ;
#360 = ORIENTED_EDGE ( 'NONE', *, *, #334, .T. ) ;
#361 = EDGE_CURVE ( 'NONE', #550, #382, #741, .T. ) ;
#362 = CARTESIAN_POINT ( 'NONE',  ( 5.000000000000000000, -5.599476508107136041, -12.49999999999999822 ) ) ;
#363 = DIRECTION ( 'NONE',  ( 1.000000000000000000, 0.000000000000000000, 0.000000000000000000 ) ) ;
#364 = ORIENTED_EDGE ( 'NONE', *, *, #27, .F. ) ;
#365 = CYLINDRICAL_SURFACE ( 'NONE', #377, 1.499999999999997780 ) ;
#366 = ORIENTED_EDGE ( 'NONE', *, *, #421, .T. ) ;
#367 = EDGE_CURVE ( 'NONE', #9, #313, #297, .T. ) ;
#368 = CARTESIAN_POINT ( 'NONE',  ( 0.000000000000000000, 9.803614209986974970, -12.49999999999999645 ) ) ;
#369 = ORIENTED_EDGE ( 'NONE', *, *, #373, .F. ) ;
#370 = ORIENTED_EDGE ( 'NONE', *, *, #361, .F. ) ;
#371 = ORIENTED_EDGE ( 'NONE', *, *, #241, .T. ) ;
#372 = VERTEX_POINT ( 'NONE', #676 ) ;
#373 = EDGE_CURVE ( 'NONE', #101, #658, #617, .T. ) ;
#374 = SURFACE_STYLE_FILL_AREA ( #33 ) ;
#375 = DIRECTION ( 'NONE',  ( 1.000000000000000000, 0.000000000000000000, 0.000000000000000000 ) ) ;
#376 = ORIENTED_EDGE ( 'NONE', *, *, #271, .T. ) ;
#377 = AXIS2_PLACEMENT_3D ( 'NONE', #75, #178, #312 ) ;
#378 = DIRECTION ( 'NONE',  ( -0.000000000000000000, -0.7164187916513592436, -0.6976704916855851479 ) ) ;
#379 = CARTESIAN_POINT ( 'NONE',  ( 0.000000000000000000, -5.599476508107135153, 12.50000000000000355 ) ) ;
#380 = VERTEX_POINT ( 'NONE', #331 ) ;
#381 = FACE_OUTER_BOUND ( 'NONE', #630, .T. ) ;
#382 = VERTEX_POINT ( 'NONE', #552 ) ;
#383 = DIRECTION ( 'NONE',  ( 1.000000000000000000, -0.000000000000000000, -0.000000000000000000 ) ) ;
#384 = AXIS2_PLACEMENT_3D ( 'NONE', #697, #232, #773 ) ;
#385 = LINE ( 'NONE', #568, #230 ) ;
#386 = EDGE_CURVE ( 'NONE', #372, #559, #146, .T. ) ;
#387 = CIRCLE ( 'NONE', #488, 1.499999999999997780 ) ;
#388 = ORIENTED_EDGE ( 'NONE', *, *, #430, .F. ) ;
#389 = AXIS2_PLACEMENT_3D ( 'NONE', #205, #34, #375 ) ;
#390 = FACE_OUTER_BOUND ( 'NONE', #624, .T. ) ;
#391 = FACE_OUTER_BOUND ( 'NONE', #681, .T. ) ;
#392 = CARTESIAN_POINT ( 'NONE',  ( 2.000000000000001776, 12.49999999999999822, -22.50000000000000000 ) ) ;
#393 = CARTESIAN_POINT ( 'NONE',  ( 5.000000000000000000, 0.000000000000000000, 0.000000000000000000 ) ) ;
#394 = DIRECTION ( 'NONE',  ( -0.000000000000000000, -0.000000000000000000, 1.000000000000000000 ) ) ;
#395 = LINE ( 'NONE', #392, #464 ) ;
#396 = ADVANCED_FACE ( 'NONE', ( #494 ), #558, .F. ) ;
#397 = DIRECTION ( 'NONE',  ( 0.000000000000000000, 0.000000000000000000, -1.000000000000000000 ) ) ;
#398 = FACE_OUTER_BOUND ( 'NONE', #547, .T. ) ;
#399 = DIRECTION ( 'NONE',  ( 0.000000000000000000, 0.6976704916855851479, -0.7164187916513593546 ) ) ;
#400 = VECTOR ( 'NONE', #725, 1000.000000000000000 ) ;
#401 = AXIS2_PLACEMENT_3D ( 'NONE', #255, #363, #537 ) ;
#402 = DIRECTION ( 'NONE',  ( 0.000000000000000000, 0.000000000000000000, -1.000000000000000000 ) ) ;
#403 = EDGE_LOOP ( 'NONE', ( #121, #441, #73 ) ) ;
#404 = DIRECTION ( 'NONE',  ( 1.000000000000000000, 0.000000000000000000, 0.000000000000000000 ) ) ;
#405 = CARTESIAN_POINT ( 'NONE',  ( 19.07607902292058455, -4.000000000000000888, -22.50000000000000000 ) ) ;
#406 = DIRECTION ( 'NONE',  ( 0.000000000000000000, -1.000000000000000000, 0.000000000000000000 ) ) ;
#407 = ORIENTED_EDGE ( 'NONE', *, *, #622, .F. ) ;
#408 = CARTESIAN_POINT ( 'NONE',  ( 2.000000000000001776, -12.50000000000000178, 22.50000000000000000 ) ) ;
#409 = CARTESIAN_POINT ( 'NONE',  ( 5.000000000000000000, -12.50000000000000178, 22.50000000000000000 ) ) ;
#410 = ORIENTED_EDGE ( 'NONE', *, *, #77, .F. ) ;
#411 = EDGE_CURVE ( 'NONE', #559, #658, #673, .T. ) ;
#412 = CARTESIAN_POINT ( 'NONE',  ( 0.000000000000000000, -5.599476508107135153, 12.50000000000000355 ) ) ;
#413 = DIRECTION ( 'NONE',  ( 1.000000000000000000, 0.000000000000000000, 0.000000000000000000 ) ) ;
#414 = VECTOR ( 'NONE', #406, 1000.000000000000000 ) ;
#415 = ORIENTED_EDGE ( 'NONE', *, *, #411, .T. ) ;
#416 = EDGE_CURVE ( 'NONE', #565, #263, #440, .T. ) ;
#417 = CARTESIAN_POINT ( 'NONE',  ( 5.000000000000000000, 12.49999999999999822, 22.50000000000000000 ) ) ;
#418 = LINE ( 'NONE', #305, #529 ) ;
#419 = ORIENTED_EDGE ( 'NONE', *, *, #437, .T. ) ;
#420 = FACE_OUTER_BOUND ( 'NONE', #328, .T. ) ;
#421 = EDGE_CURVE ( 'NONE', #132, #748, #621, .T. ) ;
#422 = DIRECTION ( 'NONE',  ( 1.000000000000000000, 0.000000000000000000, 0.000000000000000000 ) ) ;
#423 = EDGE_LOOP ( 'NONE', ( #317, #483, #259, #472 ) ) ;
#424 = ORIENTED_EDGE ( 'NONE', *, *, #648, .F. ) ;
#425 = CARTESIAN_POINT ( 'NONE',  ( 0.000000000000000000, -9.500000000000001776, -18.50000000000000000 ) ) ;
#426 = VERTEX_POINT ( 'NONE', #143 ) ;
#427 = DIRECTION ( 'NONE',  ( 0.000000000000000000, -1.000000000000000000, 0.000000000000000000 ) ) ;
#428 = MANIFOLD_SOLID_BREP ( 'Fillet1', #168 ) ;
#429 = ORIENTED_EDGE ( 'NONE', *, *, #50, .T. ) ;
#430 = EDGE_CURVE ( 'NONE', #531, #426, #95, .T. ) ;
#431 = CARTESIAN_POINT ( 'NONE',  ( 5.000000000000000000, -4.999999999999999112, -17.49999999999999645 ) ) ;
#432 = ORIENTED_EDGE ( 'NONE', *, *, #430, .T. ) ;
#433 = EDGE_LOOP ( 'NONE', ( #735, #206 ) ) ;
#434 = LINE ( 'NONE', #613, #517 ) ;
#435 = CARTESIAN_POINT ( 'NONE',  ( 0.000000000000000000, 9.803614209986974970, -12.49999999999999645 ) ) ;
#436 = AXIS2_PLACEMENT_3D ( 'NONE', #536, #6, #242 ) ;
#437 = EDGE_CURVE ( 'NONE', #484, #294, #140, .T. ) ;
#438 = ORIENTED_EDGE ( 'NONE', *, *, #444, .F. ) ;
#439 = VECTOR ( 'NONE', #48, 999.9999999999998863 ) ;
#440 = LINE ( 'NONE', #431, #40 ) ;
#441 = ORIENTED_EDGE ( 'NONE', *, *, #386, .F. ) ;
#442 = ORIENTED_EDGE ( 'NONE', *, *, #361, .T. ) ;
#443 = DIRECTION ( 'NONE',  ( -0.7071067811865512365, 0.7071067811865439090, 0.000000000000000000 ) ) ;
#444 = EDGE_CURVE ( 'NONE', #675, #565, #434, .T. ) ;
#445 = VECTOR ( 'NONE', #3, 1000.000000000000000 ) ;
#446 = CARTESIAN_POINT ( 'NONE',  ( 0.000000000000000000, 9.803614209986974970, 2.500000000000002220 ) ) ;
#447 = ORIENTED_EDGE ( 'NONE', *, *, #570, .F. ) ;
#448 = FACE_OUTER_BOUND ( 'NONE', #306, .T. ) ;
#449 = DIRECTION ( 'NONE',  ( 1.000000000000000000, -0.000000000000000000, -0.000000000000000000 ) ) ;
#450 = VERTEX_POINT ( 'NONE', #315 ) ;
#451 = AXIS2_PLACEMENT_3D ( 'NONE', #462, #351, #161 ) ;
#452 = DIRECTION ( 'NONE',  ( 0.000000000000000000, 0.000000000000000000, -1.000000000000000000 ) ) ;
#453 = CARTESIAN_POINT ( 'NONE',  ( 5.292893218813458311, 11.19739936648007195, -17.49999999999999645 ) ) ;
#454 = CARTESIAN_POINT ( 'NONE',  ( 6.000000000000000000, 11.90450614766662163, -22.50000000000000000 ) ) ;
#455 = VECTOR ( 'NONE', #172, 1000.000000000000000 ) ;
#456 = DIRECTION ( 'NONE',  ( 0.000000000000000000, -1.000000000000000000, 0.000000000000000000 ) ) ;
#457 = VECTOR ( 'NONE', #469, 1000.000000000000000 ) ;
#458 = ADVANCED_BREP_SHAPE_REPRESENTATION ( 'Battery-Stopper', ( #428, #384 ), #181 ) ;
#459 = DIRECTION ( 'NONE',  ( 0.7071067811865512365, -0.7071067811865439090, -0.000000000000000000 ) ) ;
#460 = PRODUCT_CONTEXT ( 'NONE', #2, 'mechanical' ) ;
#461 = CARTESIAN_POINT ( 'NONE',  ( 0.000000000000000000, -9.500000000000001776, 18.50000000000000000 ) ) ;
#462 = CARTESIAN_POINT ( 'NONE',  ( 5.000000000000000000, 12.49999999999999822, 22.50000000000000000 ) ) ;
#463 = CARTESIAN_POINT ( 'NONE',  ( 0.000000000000000000, -9.500000000000001776, 19.99999999999999645 ) ) ;
#464 = VECTOR ( 'NONE', #216, 1000.000000000000000 ) ;
#465 = LINE ( 'NONE', #712, #455 ) ;
#466 = CARTESIAN_POINT ( 'NONE',  ( 6.000000000000000000, 11.90450614766662163, -17.49999999999999645 ) ) ;
#467 = ORIENTED_EDGE ( 'NONE', *, *, #233, .F. ) ;
#468 = SHAPE_DEFINITION_REPRESENTATION ( #158, #458 ) ;
#469 = DIRECTION ( 'NONE',  ( -0.000000000000000000, 1.000000000000000000, 1.126217788186507623E-16 ) ) ;
#470 = LINE ( 'NONE', #164, #515 ) ;
#471 = ADVANCED_FACE ( 'NONE', ( #84 ), #35, .T. ) ;
#472 = ORIENTED_EDGE ( 'NONE', *, *, #745, .T. ) ;
#473 = PLANE ( 'NONE',  #731 ) ;
#474 = DIRECTION ( 'NONE',  ( -0.000000000000000000, 1.000000000000000000, -0.000000000000000000 ) ) ;
#475 = ORIENTED_EDGE ( 'NONE', *, *, #514, .F. ) ;
#476 = CARTESIAN_POINT ( 'NONE',  ( 5.000000000000000000, -12.50000000000000178, 22.50000000000000000 ) ) ;
#477 = CARTESIAN_POINT ( 'NONE',  ( 5.000000000000000000, -9.500000000000001776, -18.50000000000000000 ) ) ;
#478 = AXIS2_PLACEMENT_3D ( 'NONE', #757, #201, #157 ) ;
#479 = ORIENTED_EDGE ( 'NONE', *, *, #645, .F. ) ;
#480 = EDGE_CURVE ( 'NONE', #9, #261, #690, .T. ) ;
#481 = LINE ( 'NONE', #291, #445 ) ;
#482 = LINE ( 'NONE', #409, #123 ) ;
#483 = ORIENTED_EDGE ( 'NONE', *, *, #50, .F. ) ;
#484 = VERTEX_POINT ( 'NONE', #627 ) ;
#485 = CARTESIAN_POINT ( 'NONE',  ( 5.000000000000000000, -9.500000000000001776, -20.00000000000000000 ) ) ;
#486 = VERTEX_POINT ( 'NONE', #739 ) ;
#487 = ORIENTED_EDGE ( 'NONE', *, *, #207, .F. ) ;
#488 = AXIS2_PLACEMENT_3D ( 'NONE', #104, #404, #162 ) ;
#489 = FACE_OUTER_BOUND ( 'NONE', #423, .T. ) ;
#490 = VERTEX_POINT ( 'NONE', #698 ) ;
#491 = VECTOR ( 'NONE', #151, 1000.000000000000000 ) ;
#492 = PRESENTATION_LAYER_ASSIGNMENT (  '', '', ( #329 ) ) ;
#493 = ORIENTED_EDGE ( 'NONE', *, *, #184, .F. ) ;
#494 = FACE_OUTER_BOUND ( 'NONE', #569, .T. ) ;
#495 = EDGE_LOOP ( 'NONE', ( #298, #16, #500, #755 ) ) ;
#496 = ADVANCED_FACE ( 'NONE', ( #221 ), #759, .F. ) ;
#497 = ORIENTED_EDGE ( 'NONE', *, *, #348, .T. ) ;
#498 =( LENGTH_UNIT ( ) NAMED_UNIT ( * ) SI_UNIT ( .MILLI., .METRE. ) );
#499 = ORIENTED_EDGE ( 'NONE', *, *, #437, .F. ) ;
#500 = ORIENTED_EDGE ( 'NONE', *, *, #599, .F. ) ;
#501 = CARTESIAN_POINT ( 'NONE',  ( 5.000000000000000000, -9.500000000000001776, -16.99999999999999645 ) ) ;
#502 = ADVANCED_FACE ( 'NONE', ( #448 ), #156, .F. ) ;
#503 = AXIS2_PLACEMENT_3D ( 'NONE', #477, #239, #548 ) ;
#504 = ORIENTED_EDGE ( 'NONE', *, *, #615, .T. ) ;
#505 = ADVANCED_FACE ( 'NONE', ( #390 ), #578, .F. ) ;
#506 = CARTESIAN_POINT ( 'NONE',  ( 2.000000000000001776, 12.49999999999999822, 22.50000000000000000 ) ) ;
#507 = DIRECTION ( 'NONE',  ( 0.000000000000000000, 0.000000000000000000, -1.000000000000000000 ) ) ;
#508 = EDGE_LOOP ( 'NONE', ( #253, #419, #511, #249, #691, #706 ) ) ;
#509 = CARTESIAN_POINT ( 'NONE',  ( 5.000000000000000000, 9.803614209986974970, -12.49999999999999645 ) ) ;
#510 = PLANE ( 'NONE',  #478 ) ;
#511 = ORIENTED_EDGE ( 'NONE', *, *, #585, .F. ) ;
#512 = CARTESIAN_POINT ( 'NONE',  ( 21.49029258529370168, -5.000000000000000888, -17.49999999999999645 ) ) ;
#513 = CARTESIAN_POINT ( 'NONE',  ( 5.000000000000000000, 12.49999999999999822, -22.50000000000000000 ) ) ;
#514 = EDGE_CURVE ( 'NONE', #626, #132, #642, .T. ) ;
#515 = VECTOR ( 'NONE', #459, 999.9999999999998863 ) ;
#516 = DIRECTION ( 'NONE',  ( -1.000000000000000000, 0.000000000000000000, 0.000000000000000000 ) ) ;
#517 = VECTOR ( 'NONE', #562, 1000.000000000000000 ) ;
#518 = CARTESIAN_POINT ( 'NONE',  ( 0.000000000000000000, -12.50000000000000178, 20.49999999999998934 ) ) ;
#519 = VECTOR ( 'NONE', #122, 1000.000000000000000 ) ;
#520 =( NAMED_UNIT ( * ) SI_UNIT ( $, .STERADIAN. ) SOLID_ANGLE_UNIT ( ) );
#521 = CARTESIAN_POINT ( 'NONE',  ( 5.000000000000000000, -5.599476508107135153, 12.50000000000000355 ) ) ;
#522 = CARTESIAN_POINT ( 'NONE',  ( 0.000000000000000000, -5.599476508107135153, 12.50000000000000355 ) ) ;
#523 = PRODUCT_RELATED_PRODUCT_CATEGORY ( 'part', '', ( #763 ) ) ;
#524 = DIRECTION ( 'NONE',  ( 0.000000000000000000, 0.000000000000000000, -1.000000000000000000 ) ) ;
#525 = CARTESIAN_POINT ( 'NONE',  ( 5.000000000000000000, 9.803614209986974970, 12.50000000000000355 ) ) ;
#526 = ORIENTED_EDGE ( 'NONE', *, *, #174, .T. ) ;
#527 = DIRECTION ( 'NONE',  ( -0.000000000000000000, 1.000000000000000000, -0.000000000000000000 ) ) ;
#528 = LINE ( 'NONE', #476, #56 ) ;
#529 = VECTOR ( 'NONE', #609, 1000.000000000000000 ) ;
#530 = PLANE ( 'NONE',  #51 ) ;
#531 = VERTEX_POINT ( 'NONE', #163 ) ;
#532 = LINE ( 'NONE', #238, #535 ) ;
#533 = CARTESIAN_POINT ( 'NONE',  ( 5.000000000000000000, 11.90450614766662163, -17.49999999999999645 ) ) ;
#534 = EDGE_LOOP ( 'NONE', ( #175, #129, #76, #194 ) ) ;
#535 = VECTOR ( 'NONE', #353, 1000.000000000000000 ) ;
#536 = CARTESIAN_POINT ( 'NONE',  ( 0.000000000000000000, 9.803614209986974970, 12.50000000000000355 ) ) ;
#537 = DIRECTION ( 'NONE',  ( 0.000000000000000000, 0.000000000000000000, -1.000000000000000000 ) ) ;
#538 = EDGE_LOOP ( 'NONE', ( #187, #737, #608 ) ) ;
#539 = ADVANCED_FACE ( 'NONE', ( #279, #693, #112, #224, #571 ), #45, .T. ) ;
#540 = LINE ( 'NONE', #11, #596 ) ;
#541 = DIRECTION ( 'NONE',  ( 1.000000000000000000, -0.000000000000000000, -0.000000000000000000 ) ) ;
#542 = AXIS2_PLACEMENT_3D ( 'NONE', #68, #734, #544 ) ;
#543 = VERTEX_POINT ( 'NONE', #638 ) ;
#544 = DIRECTION ( 'NONE',  ( 0.000000000000000000, 0.000000000000000000, -1.000000000000000000 ) ) ;
#545 = EDGE_LOOP ( 'NONE', ( #499, #145, #475, #169 ) ) ;
#546 = ADVANCED_FACE ( 'NONE', ( #276 ), #635, .F. ) ;
#547 = EDGE_LOOP ( 'NONE', ( #526, #236, #595, #467, #432, #80, #20, #183, #612 ) ) ;
#548 = DIRECTION ( 'NONE',  ( 0.000000000000000000, 0.000000000000000000, -1.000000000000000000 ) ) ;
#549 = ORIENTED_EDGE ( 'NONE', *, *, #286, .T. ) ;
#550 = VERTEX_POINT ( 'NONE', #337 ) ;
#551 = EDGE_CURVE ( 'NONE', #69, #616, #573, .T. ) ;
#552 = CARTESIAN_POINT ( 'NONE',  ( 0.000000000000000000, -9.500000000000001776, -20.00000000000000000 ) ) ;
#553 = CARTESIAN_POINT ( 'NONE',  ( 5.000000000000000000, 12.49999999999999822, 22.50000000000000000 ) ) ;
#554 = EDGE_LOOP ( 'NONE', ( #670, #371, #407, #744 ) ) ;
#555 = PRESENTATION_STYLE_ASSIGNMENT (( #747 ) ) ;
#556 = ADVANCED_FACE ( 'NONE', ( #109 ), #756, .T. ) ;
#557 = CARTESIAN_POINT ( 'NONE',  ( 19.78318580410713068, -3.292893218813448986, -22.50000000000000000 ) ) ;
#558 = CYLINDRICAL_SURFACE ( 'NONE', #358, 1.500000000000001332 ) ;
#559 = VERTEX_POINT ( 'NONE', #166 ) ;
#560 = EDGE_CURVE ( 'NONE', #610, #9, #287, .T. ) ;
#561 = ORIENTED_EDGE ( 'NONE', *, *, #648, .T. ) ;
#562 = DIRECTION ( 'NONE',  ( -1.000000000000000000, 1.051966462695671410E-16, -0.000000000000000000 ) ) ;
#563 = ORIENTED_EDGE ( 'NONE', *, *, #19, .T. ) ;
#564 = AXIS2_PLACEMENT_3D ( 'NONE', #154, #144, #215 ) ;
#565 = VERTEX_POINT ( 'NONE', #340 ) ;
#566 = AXIS2_PLACEMENT_3D ( 'NONE', #768, #399, #335 ) ;
#567 = DIRECTION ( 'NONE',  ( 0.000000000000000000, 0.000000000000000000, -1.000000000000000000 ) ) ;
#568 = CARTESIAN_POINT ( 'NONE',  ( 0.000000000000000000, -9.500000000000001776, -20.00000000000000000 ) ) ;
#569 = EDGE_LOOP ( 'NONE', ( #479, #31, #629, #497 ) ) ;
#570 = EDGE_CURVE ( 'NONE', #36, #486, #284, .T. ) ;
#571 = FACE_BOUND ( 'NONE', #5, .T. ) ;
#572 = DIRECTION ( 'NONE',  ( 1.000000000000000000, 0.000000000000000000, 0.000000000000000000 ) ) ;
#573 = LINE ( 'NONE', #512, #439 ) ;
#574 = DIRECTION ( 'NONE',  ( 0.000000000000000000, 0.000000000000000000, -1.000000000000000000 ) ) ;
#575 = DIRECTION ( 'NONE',  ( 0.000000000000000000, 0.7164187916513593546, 0.6976704916855851479 ) ) ;
#576 = VECTOR ( 'NONE', #623, 1000.000000000000114 ) ;
#577 = AXIS2_PLACEMENT_3D ( 'NONE', #776, #46, #278 ) ;
#578 = CYLINDRICAL_SURFACE ( 'NONE', #619, 1.499999999999997780 ) ;
#579 = AXIS2_PLACEMENT_3D ( 'NONE', #704, #582, #106 ) ;
#580 = AXIS2_PLACEMENT_3D ( 'NONE', #189, #131, #251 ) ;
#581 = DIRECTION ( 'NONE',  ( 0.000000000000000000, -0.6976704916855852590, 0.7164187916513593546 ) ) ;
#582 = DIRECTION ( 'NONE',  ( -0.000000000000000000, 1.000000000000000000, 0.000000000000000000 ) ) ;
#583 = FACE_OUTER_BOUND ( 'NONE', #508, .T. ) ;
#584 = ORIENTED_EDGE ( 'NONE', *, *, #348, .F. ) ;
#585 = EDGE_CURVE ( 'NONE', #28, #294, #770, .T. ) ;
#586 = CARTESIAN_POINT ( 'NONE',  ( 5.000000000000000000, 12.49999999999999822, 22.50000000000000000 ) ) ;
#587 = PLANE ( 'NONE',  #280 ) ;
#588 = ORIENTED_EDGE ( 'NONE', *, *, #159, .F. ) ;
#589 = EDGE_CURVE ( 'NONE', #23, #675, #465, .T. ) ;
#590 =( LENGTH_UNIT ( ) NAMED_UNIT ( * ) SI_UNIT ( .MILLI., .METRE. ) );
#591 = FACE_OUTER_BOUND ( 'NONE', #732, .T. ) ;
#592 = AXIS2_PLACEMENT_3D ( 'NONE', #4, #721, #243 ) ;
#593 = DIRECTION ( 'NONE',  ( 0.000000000000000000, 0.000000000000000000, -1.000000000000000000 ) ) ;
#594 = AXIS2_PLACEMENT_3D ( 'NONE', #753, #211, #443 ) ;
#595 = ORIENTED_EDGE ( 'NONE', *, *, #77, .T. ) ;
#596 = VECTOR ( 'NONE', #130, 1000.000000000000000 ) ;
#597 = VECTOR ( 'NONE', #632, 1000.000000000000000 ) ;
#598 = DIRECTION ( 'NONE',  ( 1.000000000000000000, -0.000000000000000000, -0.000000000000000000 ) ) ;
#599 = EDGE_CURVE ( 'NONE', #38, #23, #685, .T. ) ;
#600 = LINE ( 'NONE', #359, #606 ) ;
#601 = ORIENTED_EDGE ( 'NONE', *, *, #678, .T. ) ;
#602 = LINE ( 'NONE', #180, #688 ) ;
#603 = CARTESIAN_POINT ( 'NONE',  ( 0.000000000000000000, -9.500000000000001776, 19.99999999999999645 ) ) ;
#604 = EDGE_LOOP ( 'NONE', ( #730, #424, #63, #563 ) ) ;
#605 = FACE_OUTER_BOUND ( 'NONE', #534, .T. ) ;
#606 = VECTOR ( 'NONE', #72, 1000.000000000000000 ) ;
#607 = VECTOR ( 'NONE', #196, 1000.000000000000000 ) ;
#608 = ORIENTED_EDGE ( 'NONE', *, *, #367, .T. ) ;
#609 = DIRECTION ( 'NONE',  ( 0.000000000000000000, -1.000000000000000000, 0.000000000000000000 ) ) ;
#610 = VERTEX_POINT ( 'NONE', #350 ) ;
#611 = EDGE_CURVE ( 'NONE', #658, #372, #61, .T. ) ;
#612 = ORIENTED_EDGE ( 'NONE', *, *, #719, .T. ) ;
#613 = CARTESIAN_POINT ( 'NONE',  ( 5.000000000000000000, -4.999999999999999112, -17.49999999999999645 ) ) ;
#614 = VERTEX_POINT ( 'NONE', #651 ) ;
#615 = EDGE_CURVE ( 'NONE', #203, #28, #119, .T. ) ;
#616 = VERTEX_POINT ( 'NONE', #295 ) ;
#617 = LINE ( 'NONE', #319, #171 ) ;
#618 = CARTESIAN_POINT ( 'NONE',  ( 0.000000000000000000, -5.599476508107136041, -12.49999999999999822 ) ) ;
#619 = AXIS2_PLACEMENT_3D ( 'NONE', #461, #701, #452 ) ;
#620 = EDGE_LOOP ( 'NONE', ( #193, #191, #289, #240 ) ) ;
#621 = LINE ( 'NONE', #743, #208 ) ;
#622 = EDGE_CURVE ( 'NONE', #650, #626, #528, .T. ) ;
#623 = DIRECTION ( 'NONE',  ( -0.000000000000000000, -0.7164187916513592436, -0.6976704916855851479 ) ) ;
#624 = EDGE_LOOP ( 'NONE', ( #726, #360, #311, #683 ) ) ;
#625 = CARTESIAN_POINT ( 'NONE',  ( 0.000000000000000000, 9.803614209986974970, 12.50000000000000355 ) ) ;
#626 = VERTEX_POINT ( 'NONE', #408 ) ;
#627 = CARTESIAN_POINT ( 'NONE',  ( 0.000000000000000000, 12.49999999999999822, 20.49999999999998934 ) ) ;
#628 = EDGE_CURVE ( 'NONE', #380, #117, #532, .T. ) ;
#629 = ORIENTED_EDGE ( 'NONE', *, *, #66, .T. ) ;
#630 = EDGE_LOOP ( 'NONE', ( #134, #24, #87, #687 ) ) ;
#631 = CIRCLE ( 'NONE', #580, 1.500000000000001332 ) ;
#632 = DIRECTION ( 'NONE',  ( 0.000000000000000000, 0.7164187916513593546, 0.6976704916855851479 ) ) ;
#633 = FACE_BOUND ( 'NONE', #758, .T. ) ;
#634 = CARTESIAN_POINT ( 'NONE',  ( 5.000000000000000000, 12.49999999999999822, -22.50000000000000000 ) ) ;
#635 = PLANE ( 'NONE',  #579 ) ;
#636 = CARTESIAN_POINT ( 'NONE',  ( 0.000000000000000000, 9.803614209986974970, 2.500000000000002220 ) ) ;
#637 = DIRECTION ( 'NONE',  ( -0.000000000000000000, 0.000000000000000000, 1.000000000000000000 ) ) ;
#638 = CARTESIAN_POINT ( 'NONE',  ( 5.000000000000000000, -9.500000000000001776, 19.99999999999999645 ) ) ;
#639 = DIRECTION ( 'NONE',  ( 1.000000000000000000, -0.000000000000000000, -0.000000000000000000 ) ) ;
#640 = LINE ( 'NONE', #634, #86 ) ;
#641 = AXIS2_PLACEMENT_3D ( 'NONE', #466, #342, #58 ) ;
#642 = LINE ( 'NONE', #160, #89 ) ;
#643 = EDGE_CURVE ( 'NONE', #714, #380, #17, .T. ) ;
#644 = LINE ( 'NONE', #649, #724 ) ;
#645 = EDGE_CURVE ( 'NONE', #550, #32, #602, .T. ) ;
#646 = ORIENTED_EDGE ( 'NONE', *, *, #655, .T. ) ;
#647 = DIRECTION ( 'NONE',  ( 0.000000000000000000, -0.000000000000000000, -1.000000000000000000 ) ) ;
#648 = EDGE_CURVE ( 'NONE', #610, #486, #126, .T. ) ;
#649 = CARTESIAN_POINT ( 'NONE',  ( 5.000000000000000000, 11.90450614766662163, -22.50000000000000000 ) ) ;
#650 = VERTEX_POINT ( 'NONE', #188 ) ;
#651 = CARTESIAN_POINT ( 'NONE',  ( 5.000000000000000000, 11.90450614766662163, -22.50000000000000000 ) ) ;
#652 = LINE ( 'NONE', #308, #111 ) ;
#653 = APPLICATION_CONTEXT ( 'automotive_design' ) ;
#654 = EDGE_LOOP ( 'NONE', ( #415, #369, #718, #665 ) ) ;
#655 = EDGE_CURVE ( 'NONE', #132, #484, #481, .T. ) ;
#656 = CARTESIAN_POINT ( 'NONE',  ( 19.07607902292058455, -5.000000000000000888, -17.49999999999999645 ) ) ;
#657 = FACE_OUTER_BOUND ( 'NONE', #752, .T. ) ;
#658 = VERTEX_POINT ( 'NONE', #362 ) ;
#659 = CARTESIAN_POINT ( 'NONE',  ( 0.000000000000000000, -9.500000000000001776, 18.50000000000000000 ) ) ;
#660 = DIRECTION ( 'NONE',  ( -0.000000000000000000, 1.000000000000000000, -0.000000000000000000 ) ) ;
#661 = ORIENTED_EDGE ( 'NONE', *, *, #645, .T. ) ;
#662 = PRODUCT_DEFINITION ( 'General', '', #293, #250 ) ;
#663 = PLANE ( 'NONE',  #436 ) ;
#664 = FACE_OUTER_BOUND ( 'NONE', #138, .T. ) ;
#665 = ORIENTED_EDGE ( 'NONE', *, *, #97, .T. ) ;
#666 = CIRCLE ( 'NONE', #736, 1.000000000000000000 ) ;
#667 = EDGE_LOOP ( 'NONE', ( #100, #98, #301 ) ) ;
#668 = CARTESIAN_POINT ( 'NONE',  ( 5.000000000000000000, 9.803614209986974970, 12.50000000000000355 ) ) ;
#669 = VECTOR ( 'NONE', #110, 1000.000000000000000 ) ;
#670 = ORIENTED_EDGE ( 'NONE', *, *, #585, .T. ) ;
#671 = ADVANCED_FACE ( 'NONE', ( #74 ), #473, .F. ) ;
#672 = ORIENTED_EDGE ( 'NONE', *, *, #233, .T. ) ;
#673 = LINE ( 'NONE', #30, #199 ) ;
#674 = ORIENTED_EDGE ( 'NONE', *, *, #136, .F. ) ;
#675 = VERTEX_POINT ( 'NONE', #656 ) ;
#676 = CARTESIAN_POINT ( 'NONE',  ( 5.000000000000000000, 9.803614209986974970, -12.49999999999999645 ) ) ;
#677 = LINE ( 'NONE', #446, #774 ) ;
#678 = EDGE_CURVE ( 'NONE', #28, #650, #540, .T. ) ;
#679 = DIRECTION ( 'NONE',  ( 1.000000000000000000, -0.000000000000000000, -0.000000000000000000 ) ) ;
#680 = VECTOR ( 'NONE', #394, 1000.000000000000000 ) ;
#681 = EDGE_LOOP ( 'NONE', ( #59, #275, #364, #82 ) ) ;
#682 = AXIS2_PLACEMENT_3D ( 'NONE', #354, #413, #593 ) ;
#683 = ORIENTED_EDGE ( 'NONE', *, *, #628, .F. ) ;
#684 = AXIS2_PLACEMENT_3D ( 'NONE', #775, #67, #357 ) ;
#685 = CIRCLE ( 'NONE', #237, 1.000000000000000888 ) ;
#686 = CARTESIAN_POINT ( 'NONE',  ( 0.000000000000000000, -9.500000000000001776, 18.50000000000000000 ) ) ;
#687 = ORIENTED_EDGE ( 'NONE', *, *, #373, .T. ) ;
#688 = VECTOR ( 'NONE', #598, 1000.000000000000000 ) ;
#689 = EDGE_CURVE ( 'NONE', #313, #610, #727, .T. ) ;
#690 = LINE ( 'NONE', #153, #65 ) ;
#691 = ORIENTED_EDGE ( 'NONE', *, *, #760, .T. ) ;
#692 = ORIENTED_EDGE ( 'NONE', *, *, #254, .T. ) ;
#693 = FACE_BOUND ( 'NONE', #403, .T. ) ;
#694 = DIRECTION ( 'NONE',  ( 1.000000000000000000, 0.000000000000000000, 0.000000000000000000 ) ) ;
#695 = ADVANCED_FACE ( 'NONE', ( #591 ), #299, .T. ) ;
#696 = VECTOR ( 'NONE', #96, 1000.000000000000000 ) ;
#697 = CARTESIAN_POINT ( 'NONE',  ( 0.000000000000000000, 0.000000000000000000, 0.000000000000000000 ) ) ;
#698 = CARTESIAN_POINT ( 'NONE',  ( 2.000000000000001776, 12.49999999999999822, -22.50000000000000000 ) ) ;
#699 = PLANE ( 'NONE',  #577 ) ;
#700 = CARTESIAN_POINT ( 'NONE',  ( 5.000000000000000000, 12.49999999999999822, -22.50000000000000000 ) ) ;
#701 = DIRECTION ( 'NONE',  ( 1.000000000000000000, -0.000000000000000000, -0.000000000000000000 ) ) ;
#702 = DIRECTION ( 'NONE',  ( 0.000000000000000000, -0.000000000000000000, 1.000000000000000000 ) ) ;
#703 = ADVANCED_FACE ( 'NONE', ( #420 ), #663, .F. ) ;
#704 = CARTESIAN_POINT ( 'NONE',  ( 5.000000000000000000, -12.50000000000000178, 22.50000000000000000 ) ) ;
#705 = FACE_OUTER_BOUND ( 'NONE', #604, .T. ) ;
#706 = ORIENTED_EDGE ( 'NONE', *, *, #150, .T. ) ;
#707 = LINE ( 'NONE', #700, #304 ) ;
#708 = COLOUR_RGB ( '',0.7921568627450980005, 0.8196078431372548767, 0.9333333333333333481 ) ;
#709 = VECTOR ( 'NONE', #639, 1000.000000000000000 ) ;
#710 = MECHANICAL_DESIGN_GEOMETRIC_PRESENTATION_REPRESENTATION (  '', ( #329 ), #343 ) ;
#711 = VECTOR ( 'NONE', #204, 1000.000000000000000 ) ;
#712 = CARTESIAN_POINT ( 'NONE',  ( 19.07607902292058455, -5.000000000000000888, -17.49999999999999645 ) ) ;
#713 = CARTESIAN_POINT ( 'NONE',  ( 2.000000000000001776, 12.49999999999999822, -22.50000000000000000 ) ) ;
#714 = VERTEX_POINT ( 'NONE', #463 ) ;
#715 = VECTOR ( 'NONE', #524, 1000.000000000000000 ) ;
#716 = DIRECTION ( 'NONE',  ( -1.000000000000000000, 0.000000000000000000, -0.000000000000000000 ) ) ;
#717 = CARTESIAN_POINT ( 'NONE',  ( 0.000000000000000000, 9.803614209986974970, 2.500000000000002220 ) ) ;
#718 = ORIENTED_EDGE ( 'NONE', *, *, #21, .F. ) ;
#719 = EDGE_CURVE ( 'NONE', #614, #722, #666, .T. ) ;
#720 = CARTESIAN_POINT ( 'NONE',  ( 5.000000000000000000, 12.49999999999999822, 22.50000000000000000 ) ) ;
#721 = DIRECTION ( 'NONE',  ( 0.000000000000000000, 0.000000000000000000, 1.000000000000000000 ) ) ;
#722 = VERTEX_POINT ( 'NONE', #226 ) ;
#723 = CARTESIAN_POINT ( 'NONE',  ( 0.000000000000000000, -5.599476508107135153, -2.499999999999995115 ) ) ;
#724 = VECTOR ( 'NONE', #113, 1000.000000000000000 ) ;
#725 = DIRECTION ( 'NONE',  ( 1.000000000000000000, -0.000000000000000000, -0.000000000000000000 ) ) ;
#726 = ORIENTED_EDGE ( 'NONE', *, *, #643, .F. ) ;
#727 = LINE ( 'NONE', #412, #519 ) ;
#728 = VECTOR ( 'NONE', #185, 1000.000000000000000 ) ;
#729 = DIRECTION ( 'NONE',  ( 0.000000000000000000, 0.000000000000000000, -1.000000000000000000 ) ) ;
#730 = ORIENTED_EDGE ( 'NONE', *, *, #570, .T. ) ;
#731 = AXIS2_PLACEMENT_3D ( 'NONE', #720, #303, #716 ) ;
#732 = EDGE_LOOP ( 'NONE', ( #410, #13, #91, #217 ) ) ;
#733 = EDGE_CURVE ( 'NONE', #614, #203, #707, .T. ) ;
#734 = DIRECTION ( 'NONE',  ( 1.000000000000000000, -0.000000000000000000, -0.000000000000000000 ) ) ;
#735 = ORIENTED_EDGE ( 'NONE', *, *, #745, .F. ) ;
#736 = AXIS2_PLACEMENT_3D ( 'NONE', #454, #637, #170 ) ;
#737 = ORIENTED_EDGE ( 'NONE', *, *, #560, .T. ) ;
#738 = EDGE_CURVE ( 'NONE', #426, #490, #395, .T. ) ;
#739 = CARTESIAN_POINT ( 'NONE',  ( 5.000000000000000000, -5.599476508107135153, -2.499999999999995115 ) ) ;
#740 = ORIENTED_EDGE ( 'NONE', *, *, #480, .T. ) ;
#741 = CIRCLE ( 'NONE', #682, 1.500000000000001332 ) ;
#742 = VERTEX_POINT ( 'NONE', #60 ) ;
#743 = CARTESIAN_POINT ( 'NONE',  ( 0.000000000000000000, -12.50000000000000178, 22.50000000000000000 ) ) ;
#744 = ORIENTED_EDGE ( 'NONE', *, *, #678, .F. ) ;
#745 = EDGE_CURVE ( 'NONE', #117, #543, #387, .T. ) ;
#746 = ORIENTED_EDGE ( 'NONE', *, *, #367, .F. ) ;
#747 = SURFACE_STYLE_USAGE ( .BOTH. , #265 ) ;
#748 = VERTEX_POINT ( 'NONE', #108 ) ;
#749 = ORIENTED_EDGE ( 'NONE', *, *, #105, .T. ) ;
#750 = CARTESIAN_POINT ( 'NONE',  ( 0.000000000000000000, -9.500000000000001776, -18.50000000000000000 ) ) ;
#751 = CARTESIAN_POINT ( 'NONE',  ( 19.78318580410713068, -3.292893218813448986, -17.49999999999999645 ) ) ;
#752 = EDGE_LOOP ( 'NONE', ( #370, #661, #376, #148 ) ) ;
#753 = CARTESIAN_POINT ( 'NONE',  ( 21.49029258529370168, -5.000000000000000888, -17.49999999999999645 ) ) ;
#754 = CYLINDRICAL_SURFACE ( 'NONE', #564, 1.000000000000000000 ) ;
#755 = ORIENTED_EDGE ( 'NONE', *, *, #39, .F. ) ;
#756 = CYLINDRICAL_SURFACE ( 'NONE', #70, 1.000000000000000888 ) ;
#757 = CARTESIAN_POINT ( 'NONE',  ( 0.000000000000000000, 9.803614209986974970, -12.49999999999999645 ) ) ;
#758 = EDGE_LOOP ( 'NONE', ( #309, #442 ) ) ;
#759 = PLANE ( 'NONE',  #135 ) ;
#760 = EDGE_CURVE ( 'NONE', #203, #490, #640, .T. ) ;
#761 = LINE ( 'NONE', #453, #680 ) ;
#762 = VECTOR ( 'NONE', #288, 1000.000000000000000 ) ;
#763 = PRODUCT ( 'Battery-Stopper', 'Battery-Stopper', '', ( #460 ) ) ;
#764 = CARTESIAN_POINT ( 'NONE',  ( 19.07607902292058455, -4.000000000000000888, -17.49999999999999645 ) ) ;
#765 = PLANE ( 'NONE',  #451 ) ;
#766 = EDGE_CURVE ( 'NONE', #486, #261, #47, .T. ) ;
#767 = VECTOR ( 'NONE', #71, 1000.000000000000000 ) ;
#768 = CARTESIAN_POINT ( 'NONE',  ( 0.000000000000000000, -5.599476508107135153, -2.499999999999995115 ) ) ;
#769 = DIRECTION ( 'NONE',  ( 0.000000000000000000, 1.000000000000000000, 0.000000000000000000 ) ) ;
#770 = LINE ( 'NONE', #586, #248 ) ;
#771 = CARTESIAN_POINT ( 'NONE',  ( 5.000000000000000000, -9.500000000000001776, 17.00000000000000000 ) ) ;
#772 = ORIENTED_EDGE ( 'NONE', *, *, #480, .F. ) ;
#773 = DIRECTION ( 'NONE',  ( 1.000000000000000000, 0.000000000000000000, 0.000000000000000000 ) ) ;
#774 = VECTOR ( 'NONE', #93, 1000.000000000000000 ) ;
#775 = CARTESIAN_POINT ( 'NONE',  ( 5.000000000000000000, -4.999999999999999112, -17.49999999999999645 ) ) ;
#776 = CARTESIAN_POINT ( 'NONE',  ( 5.000000000000000000, 12.49999999999999822, -22.50000000000000000 ) ) ;
ENDSEC;
END-ISO-10303-21;
