ISO-10303-21;
HEADER;
FILE_DESCRIPTION (( 'STEP AP214' ),
    '1' );
FILE_NAME ('Frame-Strengthener-Bottom.STEP',
    '2026-05-25T14:43:31',
    ( '' ),
    ( '' ),
    'SwSTEP 2.0',
    'SolidWorks 2026',
    '' );
FILE_SCHEMA (( 'AUTOMOTIVE_DESIGN' ));
ENDSEC;

DATA;
#1 = ADVANCED_FACE ( 'NONE', ( #190 ), #440, .F. ) ;
#2 = FACE_OUTER_BOUND ( 'NONE', #723, .T. ) ;
#3 = VERTEX_POINT ( 'NONE', #614 ) ;
#4 = DIRECTION ( 'NONE',  ( 0.000000000000000000, -0.000000000000000000, -1.000000000000000000 ) ) ;
#5 = CARTESIAN_POINT ( 'NONE',  ( 20.00000000000000000, 0.000000000000000000, -1.500000000000000666 ) ) ;
#6 = AXIS2_PLACEMENT_3D ( 'NONE', #173, #13, #425 ) ;
#7 = ORIENTED_EDGE ( 'NONE', *, *, #256, .T. ) ;
#8 = CARTESIAN_POINT ( 'NONE',  ( 20.00000000000000000, 10.00000000000000000, 1.500000000000000666 ) ) ;
#9 = DIRECTION ( 'NONE',  ( 1.000000000000000000, -0.000000000000000000, -1.272130549049658700E-16 ) ) ;
#10 = ORIENTED_EDGE ( 'NONE', *, *, #520, .T. ) ;
#11 = DIRECTION ( 'NONE',  ( -1.000000000000000000, 1.387778780781444413E-14, 0.000000000000000000 ) ) ;
#12 = EDGE_CURVE ( 'NONE', #502, #494, #710, .T. ) ;
#13 = DIRECTION ( 'NONE',  ( -0.000000000000000000, -1.000000000000000000, -0.000000000000000000 ) ) ;
#14 = VERTEX_POINT ( 'NONE', #25 ) ;
#15 = EDGE_LOOP ( 'NONE', ( #212, #708 ) ) ;
#16 = AXIS2_PLACEMENT_3D ( 'NONE', #209, #645, #269 ) ;
#17 = DIRECTION ( 'NONE',  ( -0.2505628070857315315, 0.9351131265310309582, 0.2505628070857254808 ) ) ;
#18 = APPLICATION_CONTEXT ( 'automotive_design' ) ;
#19 = AXIS2_PLACEMENT_3D ( 'NONE', #553, #74, #731 ) ;
#20 = ORIENTED_EDGE ( 'NONE', *, *, #133, .T. ) ;
#21 = AXIS2_PLACEMENT_3D ( 'NONE', #281, #528, #709 ) ;
#22 = CIRCLE ( 'NONE', #758, 1.000000000000000000 ) ;
#23 = CARTESIAN_POINT ( 'NONE',  ( 70.00000000000000000, 10.00000000000000000, 1.499999999999997335 ) ) ;
#24 = EDGE_CURVE ( 'NONE', #129, #223, #259, .T. ) ;
#25 = CARTESIAN_POINT ( 'NONE',  ( 74.03407417371089139, 0.000000000000000000, -5.000000000000007994 ) ) ;
#26 = ORIENTED_EDGE ( 'NONE', *, *, #207, .T. ) ;
#27 = ORIENTED_EDGE ( 'NONE', *, *, #464, .F. ) ;
#28 = CIRCLE ( 'NONE', #466, 1.499999999999997335 ) ;
#29 = DIRECTION ( 'NONE',  ( 0.000000000000000000, 0.000000000000000000, 1.000000000000000000 ) ) ;
#30 = DIRECTION ( 'NONE',  ( 1.000000000000000000, 0.000000000000000000, 0.000000000000000000 ) ) ;
#31 = DIRECTION ( 'NONE',  ( 0.000000000000000000, -1.000000000000000000, 0.000000000000000000 ) ) ;
#32 = ORIENTED_EDGE ( 'NONE', *, *, #183, .F. ) ;
#33 = VECTOR ( 'NONE', #700, 1000.000000000000114 ) ;
#34 = CYLINDRICAL_SURFACE ( 'NONE', #350, 0.9999999999999992228 ) ;
#35 = DIRECTION ( 'NONE',  ( 0.2505628070857320866, 0.9351131265310290708, 0.2505628070857321421 ) ) ;
#36 = CARTESIAN_POINT ( 'NONE',  ( 74.99999999999997158, 4.258819045102521628, -3.858852876154498901 ) ) ;
#37 = VERTEX_POINT ( 'NONE', #676 ) ;
#38 = EDGE_CURVE ( 'NONE', #615, #3, #729, .T. ) ;
#39 = LINE ( 'NONE', #154, #120 ) ;
#40 = ORIENTED_EDGE ( 'NONE', *, *, #367, .F. ) ;
#41 = VECTOR ( 'NONE', #149, 1000.000000000000000 ) ;
#42 = EDGE_LOOP ( 'NONE', ( #97, #408, #586, #237 ) ) ;
#43 = AXIS2_PLACEMENT_3D ( 'NONE', #691, #112, #401 ) ;
#44 = AXIS2_PLACEMENT_3D ( 'NONE', #735, #184, #371 ) ;
#45 = CARTESIAN_POINT ( 'NONE',  ( 72.89292704986539206, 4.258819045102520739, -3.858852876154498901 ) ) ;
#46 = DIRECTION ( 'NONE',  ( 0.000000000000000000, 0.000000000000000000, -1.000000000000000000 ) ) ;
#47 = EDGE_CURVE ( 'NONE', #527, #437, #658, .T. ) ;
#48 = ORIENTED_EDGE ( 'NONE', *, *, #488, .T. ) ;
#49 = FACE_OUTER_BOUND ( 'NONE', #444, .T. ) ;
#50 = APPLICATION_PROTOCOL_DEFINITION ( 'draft international standard', 'automotive_design', 1998, #57 ) ;
#51 = VERTEX_POINT ( 'NONE', #554 ) ;
#52 = CARTESIAN_POINT ( 'NONE',  ( 74.99999999999997158, 0.000000000000000000, 4.034074173710922473 ) ) ;
#53 = VECTOR ( 'NONE', #745, 1000.000000000000000 ) ;
#54 = CARTESIAN_POINT ( 'NONE',  ( 74.60747694781571226, 0.000000000000000000, -5.000000000000007994 ) ) ;
#55 = LINE ( 'NONE', #650, #781 ) ;
#56 = ADVANCED_BREP_SHAPE_REPRESENTATION ( 'Frame-Strengthener-Bottom', ( #146, #736 ), #92 ) ;
#57 = APPLICATION_CONTEXT ( 'automotive_design' ) ;
#58 = EDGE_LOOP ( 'NONE', ( #770, #662, #682 ) ) ;
#59 = PRODUCT_DEFINITION ( 'UNKNOWN', '', #426, #639 ) ;
#60 = CARTESIAN_POINT ( 'NONE',  ( 72.89292704986537785, 4.000000000000000000, -2.892927049865430700 ) ) ;
#61 = FACE_OUTER_BOUND ( 'NONE', #767, .T. ) ;
#62 = ORIENTED_EDGE ( 'NONE', *, *, #170, .F. ) ;
#63 = DIRECTION ( 'NONE',  ( 4.489794735692350348E-16, 0.000000000000000000, -1.000000000000000000 ) ) ;
#64 = CARTESIAN_POINT ( 'NONE',  ( -72.89292704986542049, 4.000000000000000000, 2.892927049865433808 ) ) ;
#65 = ORIENTED_EDGE ( 'NONE', *, *, #752, .F. ) ;
#66 = CARTESIAN_POINT ( 'NONE',  ( 72.89292704986539206, 4.000000000000000000, 2.892927049865415157 ) ) ;
#67 = AXIS2_PLACEMENT_3D ( 'NONE', #601, #484, #189 ) ;
#68 = AXIS2_PLACEMENT_3D ( 'NONE', #478, #657, #119 ) ;
#69 = EDGE_CURVE ( 'NONE', #286, #437, #125, .T. ) ;
#70 = DIRECTION ( 'NONE',  ( 0.000000000000000000, 0.000000000000000000, -1.000000000000000000 ) ) ;
#71 = ORIENTED_EDGE ( 'NONE', *, *, #118, .T. ) ;
#72 = CARTESIAN_POINT ( 'NONE',  ( -20.00000000000000000, 0.000000000000000000, 0.000000000000000000 ) ) ;
#73 = ORIENTED_EDGE ( 'NONE', *, *, #227, .F. ) ;
#74 = DIRECTION ( 'NONE',  ( 0.000000000000000000, -1.000000000000000000, 0.000000000000000000 ) ) ;
#75 = DIRECTION ( 'NONE',  ( 0.000000000000000000, -1.000000000000000000, 0.000000000000000000 ) ) ;
#76 = DIRECTION ( 'NONE',  ( 1.000000000000000000, -7.806255641895625614E-15, 1.301042606982604138E-15 ) ) ;
#77 = DIRECTION ( 'NONE',  ( 0.000000000000000000, 0.000000000000000000, -1.000000000000000000 ) ) ;
#78 = VECTOR ( 'NONE', #483, 1000.000000000000000 ) ;
#79 = CARTESIAN_POINT ( 'NONE',  ( -75.00000000000002842, 0.000000000000000000, 4.034074173710942901 ) ) ;
#80 = EDGE_CURVE ( 'NONE', #37, #576, #55, .T. ) ;
#81 = ORIENTED_EDGE ( 'NONE', *, *, #535, .F. ) ;
#82 = VECTOR ( 'NONE', #246, 1000.000000000000000 ) ;
#83 = EDGE_CURVE ( 'NONE', #268, #86, #495, .T. ) ;
#84 = ORIENTED_EDGE ( 'NONE', *, *, #103, .T. ) ;
#85 = DIRECTION ( 'NONE',  ( 0.000000000000000000, 0.000000000000000000, -1.000000000000000000 ) ) ;
#86 = VERTEX_POINT ( 'NONE', #452 ) ;
#87 =( BOUNDED_CURVE ( )  B_SPLINE_CURVE ( 3, ( #194, #54, #235, #436 ),
 .UNSPECIFIED., .F., .T. ) 
 B_SPLINE_CURVE_WITH_KNOTS ( ( 4, 4 ),
 ( 5.531305892884605946, 7.035064721474570959 ),
 .UNSPECIFIED. ) 
 CURVE ( )  GEOMETRIC_REPRESENTATION_ITEM ( )  RATIONAL_B_SPLINE_CURVE ( ( 1.000000000000000000, 0.8202709971758386231, 0.8202709971758386231, 1.000000000000000000 ) ) 
 REPRESENTATION_ITEM ( '' )  );
#88 =( NAMED_UNIT ( * ) PLANE_ANGLE_UNIT ( ) SI_UNIT ( $, .RADIAN. ) );
#89 = EDGE_CURVE ( 'NONE', #99, #719, #385, .T. ) ;
#90 = EDGE_LOOP ( 'NONE', ( #110, #531 ) ) ;
#91 = DIRECTION ( 'NONE',  ( 1.346938420707705105E-15, -0.000000000000000000, -1.000000000000000000 ) ) ;
#92 =( GEOMETRIC_REPRESENTATION_CONTEXT ( 3 ) GLOBAL_UNCERTAINTY_ASSIGNED_CONTEXT ( ( #768 ) ) GLOBAL_UNIT_ASSIGNED_CONTEXT ( ( #769, #508, #410 ) ) REPRESENTATION_CONTEXT ( 'NONE', 'WORKASPACE' ) );
#93 = PRODUCT_DEFINITION_SHAPE ( 'NONE', 'NONE',  #59 ) ;
#94 = DIRECTION ( 'NONE',  ( 0.000000000000000000, 1.000000000000000000, 4.336808689942017736E-16 ) ) ;
#95 = LINE ( 'NONE', #325, #41 ) ;
#96 = EDGE_CURVE ( 'NONE', #527, #701, #445, .T. ) ;
#97 = ORIENTED_EDGE ( 'NONE', *, *, #688, .F. ) ;
#98 = CARTESIAN_POINT ( 'NONE',  ( 70.00000000000000000, 0.000000000000000000, 1.499999999999997335 ) ) ;
#99 = VERTEX_POINT ( 'NONE', #115 ) ;
#100 = CARTESIAN_POINT ( 'NONE',  ( 74.99999999999997158, 0.000000000000000000, -5.000000000000007994 ) ) ;
#101 = CYLINDRICAL_SURFACE ( 'NONE', #16, 1.500000000000000666 ) ;
#102 = ORIENTED_EDGE ( 'NONE', *, *, #563, .T. ) ;
#103 = EDGE_CURVE ( 'NONE', #701, #258, #279, .T. ) ;
#104 = VERTEX_POINT ( 'NONE', #164 ) ;
#105 = VECTOR ( 'NONE', #666, 1000.000000000000000 ) ;
#106 = EDGE_CURVE ( 'NONE', #374, #151, #418, .T. ) ;
#107 = AXIS2_PLACEMENT_3D ( 'NONE', #275, #381, #749 ) ;
#108 = CARTESIAN_POINT ( 'NONE',  ( 72.89292704986537785, 5.000000000000000000, 0.000000000000000000 ) ) ;
#109 = CARTESIAN_POINT ( 'NONE',  ( 70.00000000000000000, 5.000000000000000000, 0.000000000000000000 ) ) ;
#110 = ORIENTED_EDGE ( 'NONE', *, *, #477, .T. ) ;
#111 = CARTESIAN_POINT ( 'NONE',  ( 74.99999999999997158, 0.000000000000000000, 4.034074173710922473 ) ) ;
#112 = DIRECTION ( 'NONE',  ( -1.000000000000000000, -0.000000000000000000, 2.873468630843155972E-14 ) ) ;
#113 = EDGE_LOOP ( 'NONE', ( #393, #176, #155, #360 ) ) ;
#114 = CARTESIAN_POINT ( 'NONE',  ( 74.99999999999997158, 2.168404344971008868E-16, 4.607476947815724699 ) ) ;
#115 = CARTESIAN_POINT ( 'NONE',  ( -70.00000000000000000, 0.000000000000000000, -1.499999999999997335 ) ) ;
#116 = ORIENTED_EDGE ( 'NONE', *, *, #38, .T. ) ;
#117 = DIRECTION ( 'NONE',  ( 0.000000000000000000, 0.000000000000000000, -1.000000000000000000 ) ) ;
#118 = EDGE_CURVE ( 'NONE', #255, #86, #653, .T. ) ;
#119 = DIRECTION ( 'NONE',  ( 0.000000000000000000, 0.000000000000000000, 1.000000000000000000 ) ) ;
#120 = VECTOR ( 'NONE', #200, 1000.000000000000000 ) ;
#121 = LINE ( 'NONE', #294, #181 ) ;
#122 = CARTESIAN_POINT ( 'NONE',  ( -20.00000000000000000, 5.000000000000000000, 0.000000000000000000 ) ) ;
#123 = CARTESIAN_POINT ( 'NONE',  ( -20.00000000000000000, 10.00000000000000000, 0.000000000000000000 ) ) ;
#124 = EDGE_CURVE ( 'NONE', #603, #14, #504, .T. ) ;
#125 = LINE ( 'NONE', #250, #726 ) ;
#126 = CIRCLE ( 'NONE', #175, 1.499999999999997335 ) ;
#127 = AXIS2_PLACEMENT_3D ( 'NONE', #610, #303, #77 ) ;
#128 = AXIS2_PLACEMENT_3D ( 'NONE', #64, #91, #76 ) ;
#129 = VERTEX_POINT ( 'NONE', #561 ) ;
#130 = VERTEX_POINT ( 'NONE', #52 ) ;
#131 = CYLINDRICAL_SURFACE ( 'NONE', #231, 1.500000000000000666 ) ;
#132 = DIRECTION ( 'NONE',  ( -0.2505628070857429113, 0.9351131265310265173, -0.2505628070857312539 ) ) ;
#133 = EDGE_CURVE ( 'NONE', #268, #51, #242, .T. ) ;
#134 = ORIENTED_EDGE ( 'NONE', *, *, #170, .T. ) ;
#135 = VECTOR ( 'NONE', #762, 1000.000000000000000 ) ;
#136 = CIRCLE ( 'NONE', #756, 1.500000000000000666 ) ;
#137 = DIRECTION ( 'NONE',  ( -1.000000000000000000, -1.387778780781445518E-14, -3.718542035834370588E-15 ) ) ;
#138 = DIRECTION ( 'NONE',  ( 0.000000000000000000, -0.000000000000000000, -1.000000000000000000 ) ) ;
#139 = DIRECTION ( 'NONE',  ( -4.648177544792957319E-16, 1.734723475976811039E-15, -1.000000000000000000 ) ) ;
#140 = ORIENTED_EDGE ( 'NONE', *, *, #106, .F. ) ;
#141 = CARTESIAN_POINT ( 'NONE',  ( -20.00000000000000000, 0.000000000000000000, -1.500000000000000666 ) ) ;
#142 = ADVANCED_FACE ( 'NONE', ( #584 ), #631, .F. ) ;
#143 = CARTESIAN_POINT ( 'NONE',  ( -70.00000000000000000, 0.000000000000000000, 0.000000000000000000 ) ) ;
#144 = ORIENTED_EDGE ( 'NONE', *, *, #722, .F. ) ;
#145 = DIRECTION ( 'NONE',  ( 0.000000000000000000, 0.000000000000000000, -1.000000000000000000 ) ) ;
#146 = MANIFOLD_SOLID_BREP ( 'Fillet1', #398 ) ;
#147 = DIRECTION ( 'NONE',  ( 0.000000000000000000, 0.000000000000000000, 1.000000000000000000 ) ) ;
#148 = AXIS2_PLACEMENT_3D ( 'NONE', #143, #31, #147 ) ;
#149 = DIRECTION ( 'NONE',  ( -0.000000000000000000, -0.000000000000000000, 1.000000000000000000 ) ) ;
#150 = PRESENTATION_LAYER_ASSIGNMENT (  '', '', ( #218 ) ) ;
#151 = VERTEX_POINT ( 'NONE', #324 ) ;
#152 = DIRECTION ( 'NONE',  ( 0.9659258262890682012, 0.2588190451025212946, 0.000000000000000000 ) ) ;
#153 = CARTESIAN_POINT ( 'NONE',  ( -64.67745861456016598, 34.66054560853758204, -5.322541385439839345 ) ) ;
#154 = CARTESIAN_POINT ( 'NONE',  ( 74.99999999999997158, 0.000000000000000000, -5.000000000000007994 ) ) ;
#155 = ORIENTED_EDGE ( 'NONE', *, *, #644, .T. ) ;
#156 = ADVANCED_FACE ( 'NONE', ( #49 ), #525, .T. ) ;
#157 = LINE ( 'NONE', #334, #469 ) ;
#158 = ORIENTED_EDGE ( 'NONE', *, *, #403, .F. ) ;
#159 = FACE_BOUND ( 'NONE', #515, .T. ) ;
#160 = DIRECTION ( 'NONE',  ( 0.000000000000000000, 0.000000000000000000, -1.000000000000000000 ) ) ;
#161 = EDGE_LOOP ( 'NONE', ( #40, #251, #573, #549 ) ) ;
#162 = CARTESIAN_POINT ( 'NONE',  ( -70.00000000000000000, 5.000000000000000000, 1.499999999999997335 ) ) ;
#163 = AXIS2_PLACEMENT_3D ( 'NONE', #122, #363, #589 ) ;
#164 = CARTESIAN_POINT ( 'NONE',  ( 74.99999999999997158, 0.000000000000000000, -4.034074173710941125 ) ) ;
#165 = AXIS2_PLACEMENT_3D ( 'NONE', #211, #139, #513 ) ;
#166 = ORIENTED_EDGE ( 'NONE', *, *, #713, .T. ) ;
#167 = CARTESIAN_POINT ( 'NONE',  ( -20.00000000000000000, 5.000000000000000000, 0.000000000000000000 ) ) ;
#168 = DIRECTION ( 'NONE',  ( -0.2505628070857390810, -0.9351131265310275165, -0.2505628070857314760 ) ) ;
#169 = LINE ( 'NONE', #100, #633 ) ;
#170 = EDGE_CURVE ( 'NONE', #434, #701, #446, .T. ) ;
#171 = ORIENTED_EDGE ( 'NONE', *, *, #535, .T. ) ;
#172 = FACE_OUTER_BOUND ( 'NONE', #442, .T. ) ;
#173 = CARTESIAN_POINT ( 'NONE',  ( 70.00000000000000000, 10.00000000000000000, 0.000000000000000000 ) ) ;
#174 = VECTOR ( 'NONE', #514, 1000.000000000000000 ) ;
#175 = AXIS2_PLACEMENT_3D ( 'NONE', #109, #519, #46 ) ;
#176 = ORIENTED_EDGE ( 'NONE', *, *, #367, .T. ) ;
#177 = CARTESIAN_POINT ( 'NONE',  ( 20.00000000000000000, 0.000000000000000000, 0.000000000000000000 ) ) ;
#178 = EDGE_CURVE ( 'NONE', #558, #223, #430, .T. ) ;
#179 = CARTESIAN_POINT ( 'NONE',  ( 3.680180876305912506E-16, 5.000000000000000000, 2.892927049865424927 ) ) ;
#180 = CIRCLE ( 'NONE', #387, 1.000000000000000888 ) ;
#181 = VECTOR ( 'NONE', #780, 1000.000000000000000 ) ;
#182 = ORIENTED_EDGE ( 'NONE', *, *, #38, .F. ) ;
#183 = EDGE_CURVE ( 'NONE', #151, #599, #301, .T. ) ;
#184 = DIRECTION ( 'NONE',  ( -1.172929944841159376E-16, 0.2588190451025212946, -0.9659258262890682012 ) ) ;
#185 = CARTESIAN_POINT ( 'NONE',  ( 74.99999999999997158, 0.000000000000000000, 4.999999999999991118 ) ) ;
#186 = ADVANCED_FACE ( 'NONE', ( #240 ), #732, .T. ) ;
#187 = SPHERICAL_SURFACE ( 'NONE', #205, 1.000000000000000000 ) ;
#188 = DIRECTION ( 'NONE',  ( 0.000000000000000000, -0.000000000000000000, 1.000000000000000000 ) ) ;
#189 = DIRECTION ( 'NONE',  ( -1.214306433183764966E-16, 0.000000000000000000, -1.000000000000000000 ) ) ;
#190 = FACE_OUTER_BOUND ( 'NONE', #42, .T. ) ;
#191 = CARTESIAN_POINT ( 'NONE',  ( -75.00000000000001421, 5.421010862427522170E-17, -4.607476947815735357 ) ) ;
#192 = AXIS2_PLACEMENT_3D ( 'NONE', #66, #728, #366 ) ;
#193 = ORIENTED_EDGE ( 'NONE', *, *, #427, .T. ) ;
#194 = CARTESIAN_POINT ( 'NONE',  ( 74.03407417371089139, 0.000000000000000000, -5.000000000000007994 ) ) ;
#195 = ORIENTED_EDGE ( 'NONE', *, *, #24, .F. ) ;
#196 = LINE ( 'NONE', #616, #316 ) ;
#197 = CARTESIAN_POINT ( 'NONE',  ( -75.00000000000002842, 0.000000000000000000, 4.034074173710942901 ) ) ;
#198 = CARTESIAN_POINT ( 'NONE',  ( -72.89292704986542049, 4.000000000000000000, 0.000000000000000000 ) ) ;
#199 = CARTESIAN_POINT ( 'NONE',  ( 72.89292704986540627, 3.999999999999998224, 2.892927049865415601 ) ) ;
#200 = DIRECTION ( 'NONE',  ( -1.000000000000000000, 0.000000000000000000, 1.214306433183764966E-16 ) ) ;
#201 = EDGE_LOOP ( 'NONE', ( #697, #280, #642, #462 ) ) ;
#202 =( NAMED_UNIT ( * ) SI_UNIT ( $, .STERADIAN. ) SOLID_ANGLE_UNIT ( ) );
#203 = VECTOR ( 'NONE', #9, 1000.000000000000000 ) ;
#204 = DIRECTION ( 'NONE',  ( -1.000000000000000000, -0.000000000000000000, 1.214306433183764966E-16 ) ) ;
#205 = AXIS2_PLACEMENT_3D ( 'NONE', #435, #667, #11 ) ;
#206 = CARTESIAN_POINT ( 'NONE',  ( 72.89292704986539206, 4.000000000000007105, -2.892927049865430256 ) ) ;
#207 = EDGE_CURVE ( 'NONE', #505, #352, #595, .T. ) ;
#208 = CARTESIAN_POINT ( 'NONE',  ( -74.03407417371091981, 0.000000000000000000, 5.000000000000010658 ) ) ;
#209 = CARTESIAN_POINT ( 'NONE',  ( 20.00000000000000000, 10.00000000000000000, 0.000000000000000000 ) ) ;
#210 = DIRECTION ( 'NONE',  ( -0.000000000000000000, -0.000000000000000000, 1.000000000000000000 ) ) ;
#211 = CARTESIAN_POINT ( 'NONE',  ( 72.89292704986539206, 4.000000000000006217, 2.892927049865413380 ) ) ;
#212 = ORIENTED_EDGE ( 'NONE', *, *, #89, .F. ) ;
#213 = FILL_AREA_STYLE ('',( #284 ) ) ;
#214 = CARTESIAN_POINT ( 'NONE',  ( -70.00000000000000000, 5.000000000000000000, 0.000000000000000000 ) ) ;
#215 = ORIENTED_EDGE ( 'NONE', *, *, #183, .T. ) ;
#216 = DIRECTION ( 'NONE',  ( -0.000000000000000000, -0.000000000000000000, -1.000000000000000000 ) ) ;
#217 = ADVANCED_FACE ( 'NONE', ( #2 ), #131, .F. ) ;
#218 = STYLED_ITEM ( 'NONE', ( #330 ), #146 ) ;
#219 = EDGE_LOOP ( 'NONE', ( #364, #404 ) ) ;
#220 = FACE_BOUND ( 'NONE', #219, .T. ) ;
#221 = CARTESIAN_POINT ( 'NONE',  ( 74.99999999999997158, 0.000000000000000000, -5.000000000000007994 ) ) ;
#222 = CYLINDRICAL_SURFACE ( 'NONE', #534, 0.9999999999999997780 ) ;
#223 = VERTEX_POINT ( 'NONE', #5 ) ;
#224 = CARTESIAN_POINT ( 'NONE',  ( 74.43282528210464477, 2.116724863953905356, 3.466899455815596109 ) ) ;
#225 = ORIENTED_EDGE ( 'NONE', *, *, #488, .F. ) ;
#226 = CARTESIAN_POINT ( 'NONE',  ( -72.89292704986542049, 5.000000000000000000, 2.892927049865433808 ) ) ;
#227 = EDGE_CURVE ( 'NONE', #129, #619, #629, .T. ) ;
#228 = DIRECTION ( 'NONE',  ( -1.000000000000000000, -1.387778780781444413E-14, 0.000000000000000000 ) ) ;
#229 = EDGE_LOOP ( 'NONE', ( #65, #564 ) ) ;
#230 = CARTESIAN_POINT ( 'NONE',  ( 70.00000000000000000, 10.00000000000000000, -1.499999999999997335 ) ) ;
#231 = AXIS2_PLACEMENT_3D ( 'NONE', #123, #547, #438 ) ;
#232 = ADVANCED_FACE ( 'NONE', ( #61 ), #674, .T. ) ;
#233 = ORIENTED_EDGE ( 'NONE', *, *, #96, .T. ) ;
#234 = CARTESIAN_POINT ( 'NONE',  ( -72.89292704986542049, 4.000000000000000000, -2.892927049865412936 ) ) ;
#235 = CARTESIAN_POINT ( 'NONE',  ( 74.99999999999997158, 0.000000000000000000, -4.607476947815742463 ) ) ;
#236 = CARTESIAN_POINT ( 'NONE',  ( -74.03407417371091981, 0.000000000000000000, -4.999999999999989342 ) ) ;
#237 = ORIENTED_EDGE ( 'NONE', *, *, #479, .F. ) ;
#238 = FACE_BOUND ( 'NONE', #634, .T. ) ;
#239 = VECTOR ( 'NONE', #602, 1000.000000000000114 ) ;
#240 = FACE_OUTER_BOUND ( 'NONE', #58, .T. ) ;
#241 = ADVANCED_FACE ( 'NONE', ( #489 ), #378, .T. ) ;
#242 = CIRCLE ( 'NONE', #684, 1.000000000000000000 ) ;
#243 = DIRECTION ( 'NONE',  ( -0.9659258262890687563, 0.2588190451025195737, 0.000000000000000000 ) ) ;
#244 = CARTESIAN_POINT ( 'NONE',  ( -64.67745861456016598, 34.91936465364010189, -4.356615559150770700 ) ) ;
#245 = EDGE_CURVE ( 'NONE', #576, #352, #136, .T. ) ;
#246 = DIRECTION ( 'NONE',  ( 0.000000000000000000, 0.000000000000000000, 1.000000000000000000 ) ) ;
#247 = DIRECTION ( 'NONE',  ( 0.000000000000000000, -1.000000000000000000, 0.000000000000000000 ) ) ;
#248 = FACE_OUTER_BOUND ( 'NONE', #326, .T. ) ;
#249 = DIRECTION ( 'NONE',  ( -1.000000000000000000, 0.000000000000000000, 1.272130549049658700E-16 ) ) ;
#250 = CARTESIAN_POINT ( 'NONE',  ( 73.85885287615445804, 4.258819045102527845, -5.000000000000007994 ) ) ;
#251 = ORIENTED_EDGE ( 'NONE', *, *, #477, .F. ) ;
#252 = CARTESIAN_POINT ( 'NONE',  ( 20.00000000000000000, 0.000000000000000000, 0.000000000000000000 ) ) ;
#253 = ADVANCED_FACE ( 'NONE', ( #305 ), #550, .F. ) ;
#254 = AXIS2_PLACEMENT_3D ( 'NONE', #214, #562, #85 ) ;
#255 = VERTEX_POINT ( 'NONE', #288 ) ;
#256 = EDGE_CURVE ( 'NONE', #579, #255, #422, .T. ) ;
#257 = ORIENTED_EDGE ( 'NONE', *, *, #660, .T. ) ;
#258 = VERTEX_POINT ( 'NONE', #536 ) ;
#259 = LINE ( 'NONE', #501, #105 ) ;
#260 = LINE ( 'NONE', #517, #33 ) ;
#261 = CIRCLE ( 'NONE', #254, 1.499999999999997335 ) ;
#262 = EDGE_CURVE ( 'NONE', #599, #434, #574, .T. ) ;
#263 = ORIENTED_EDGE ( 'NONE', *, *, #675, .F. ) ;
#264 = CARTESIAN_POINT ( 'NONE',  ( -75.00000000000000000, 0.000000000000000000, 4.607476947815750457 ) ) ;
#265 = CIRCLE ( 'NONE', #128, 1.000000000000000888 ) ;
#266 = DIRECTION ( 'NONE',  ( 6.018531076210106436E-30, -4.336808689942017736E-16, 1.000000000000000000 ) ) ;
#267 = CIRCLE ( 'NONE', #630, 1.500000000000000666 ) ;
#268 = VERTEX_POINT ( 'NONE', #357 ) ;
#269 = DIRECTION ( 'NONE',  ( 0.000000000000000000, 0.000000000000000000, -1.000000000000000000 ) ) ;
#270 = ORIENTED_EDGE ( 'NONE', *, *, #124, .T. ) ;
#271 = EDGE_CURVE ( 'NONE', #505, #37, #507, .T. ) ;
#272 = ORIENTED_EDGE ( 'NONE', *, *, #227, .T. ) ;
#273 = DIRECTION ( 'NONE',  ( 1.272130549049658947E-16, 0.000000000000000000, 1.000000000000000000 ) ) ;
#274 = EDGE_LOOP ( 'NONE', ( #27, #543, #680, #460 ) ) ;
#275 = CARTESIAN_POINT ( 'NONE',  ( 0.000000000000000000, 0.000000000000000000, 0.000000000000000000 ) ) ;
#276 = DIRECTION ( 'NONE',  ( 0.000000000000000000, 0.000000000000000000, 1.000000000000000000 ) ) ;
#277 = ORIENTED_EDGE ( 'NONE', *, *, #761, .T. ) ;
#278 = FACE_OUTER_BOUND ( 'NONE', #348, .T. ) ;
#279 = LINE ( 'NONE', #108, #585 ) ;
#280 = ORIENTED_EDGE ( 'NONE', *, *, #660, .F. ) ;
#281 = CARTESIAN_POINT ( 'NONE',  ( 73.46689945581556458, 1.857905818851383506, 3.466899455815594333 ) ) ;
#282 = EDGE_CURVE ( 'NONE', #151, #434, #265, .T. ) ;
#283 = CARTESIAN_POINT ( 'NONE',  ( -70.00000000000000000, 0.000000000000000000, 1.499999999999997335 ) ) ;
#284 = FILL_AREA_STYLE_COLOUR ( '', #754 ) ;
#285 = DIRECTION ( 'NONE',  ( 0.000000000000000000, 0.2588190451025214056, -0.9659258262890680902 ) ) ;
#286 = VERTEX_POINT ( 'NONE', #750 ) ;
#287 = DIRECTION ( 'NONE',  ( -1.000000000000000000, 0.000000000000000000, -4.336808689942013792E-16 ) ) ;
#288 = CARTESIAN_POINT ( 'NONE',  ( -74.03407417371091981, 0.000000000000000000, -4.999999999999989342 ) ) ;
#289 = ORIENTED_EDGE ( 'NONE', *, *, #635, .T. ) ;
#290 = DIRECTION ( 'NONE',  ( 0.000000000000000000, -1.000000000000000000, 0.000000000000000000 ) ) ;
#291 = CARTESIAN_POINT ( 'NONE',  ( 20.00000000000000000, 10.00000000000000000, 0.000000000000000000 ) ) ;
#292 = ADVANCED_FACE ( 'NONE', ( #309 ), #500, .T. ) ;
#293 = VERTEX_POINT ( 'NONE', #506 ) ;
#294 = CARTESIAN_POINT ( 'NONE',  ( -70.00000000000000000, 10.00000000000000000, -1.499999999999997335 ) ) ;
#295 = DIRECTION ( 'NONE',  ( 0.000000000000000000, 0.000000000000000000, -1.000000000000000000 ) ) ;
#296 = FACE_OUTER_BOUND ( 'NONE', #274, .T. ) ;
#297 =( BOUNDED_CURVE ( )  B_SPLINE_CURVE ( 3, ( #620, #322, #264, #79 ),
 .UNSPECIFIED., .F., .F. ) 
 B_SPLINE_CURVE_WITH_KNOTS ( ( 4, 4 ),
 ( 5.531305892884592623, 7.035064721474570959 ),
 .UNSPECIFIED. ) 
 CURVE ( )  GEOMETRIC_REPRESENTATION_ITEM ( )  RATIONAL_B_SPLINE_CURVE ( ( 1.000000000000000000, 0.8202709971758356255, 0.8202709971758356255, 1.000000000000000000 ) ) 
 REPRESENTATION_ITEM ( '' )  );
#298 = ORIENTED_EDGE ( 'NONE', *, *, #413, .T. ) ;
#299 = FACE_OUTER_BOUND ( 'NONE', #551, .T. ) ;
#300 = VECTOR ( 'NONE', #35, 1000.000000000000114 ) ;
#301 = CIRCLE ( 'NONE', #698, 1.000000000000002665 ) ;
#302 = AXIS2_PLACEMENT_3D ( 'NONE', #177, #349, #523 ) ;
#303 = DIRECTION ( 'NONE',  ( 0.000000000000000000, -1.000000000000000000, 0.000000000000000000 ) ) ;
#304 = ORIENTED_EDGE ( 'NONE', *, *, #396, .T. ) ;
#305 = FACE_OUTER_BOUND ( 'NONE', #113, .T. ) ;
#306 = ORIENTED_EDGE ( 'NONE', *, *, #542, .F. ) ;
#307 = EDGE_CURVE ( 'NONE', #615, #374, #297, .T. ) ;
#308 = DIRECTION ( 'NONE',  ( 0.000000000000000000, 0.2588190451025214056, -0.9659258262890682012 ) ) ;
#309 = FACE_OUTER_BOUND ( 'NONE', #742, .T. ) ;
#310 = CARTESIAN_POINT ( 'NONE',  ( -75.00000000000002842, 0.000000000000000000, -4.034074173710923361 ) ) ;
#311 = AXIS2_PLACEMENT_3D ( 'NONE', #199, #132, #490 ) ;
#312 = LINE ( 'NONE', #23, #355 ) ;
#313 = CYLINDRICAL_SURFACE ( 'NONE', #335, 1.000000000000000888 ) ;
#314 = MECHANICAL_DESIGN_GEOMETRIC_PRESENTATION_REPRESENTATION (  '', ( #218 ), #386 ) ;
#315 = EDGE_CURVE ( 'NONE', #286, #603, #328, .T. ) ;
#316 = VECTOR ( 'NONE', #365, 1000.000000000000000 ) ;
#317 = ORIENTED_EDGE ( 'NONE', *, *, #245, .F. ) ;
#318 = EDGE_LOOP ( 'NONE', ( #552, #704 ) ) ;
#319 = CYLINDRICAL_SURFACE ( 'NONE', #570, 1.500000000000000666 ) ;
#320 = ADVANCED_FACE ( 'NONE', ( #278 ), #712, .F. ) ;
#321 = ORIENTED_EDGE ( 'NONE', *, *, #423, .F. ) ;
#322 = CARTESIAN_POINT ( 'NONE',  ( -74.60747694781574069, 0.000000000000000000, 5.000000000000016875 ) ) ;
#323 = LINE ( 'NONE', #706, #503 ) ;
#324 = CARTESIAN_POINT ( 'NONE',  ( -73.85885287615451489, 4.258819045102526957, 2.892927049865432476 ) ) ;
#325 = CARTESIAN_POINT ( 'NONE',  ( -72.89292704986542049, 5.000000000000000000, 0.000000000000000000 ) ) ;
#326 = EDGE_LOOP ( 'NONE', ( #383, #73, #605, #193 ) ) ;
#327 = PRODUCT ( 'Frame-Strengthener-Bottom', 'Frame-Strengthener-Bottom', '', ( #759 ) ) ;
#328 = CIRCLE ( 'NONE', #402, 1.000000000000002665 ) ;
#329 = DIRECTION ( 'NONE',  ( -0.2505628070857320866, -0.9351131265310290708, 0.2505628070857321421 ) ) ;
#330 = PRESENTATION_STYLE_ASSIGNMENT (( #351 ) ) ;
#331 = ORIENTED_EDGE ( 'NONE', *, *, #497, .F. ) ;
#332 = DIRECTION ( 'NONE',  ( 0.000000000000000000, 0.000000000000000000, -1.000000000000000000 ) ) ;
#333 = VERTEX_POINT ( 'NONE', #516 ) ;
#334 = CARTESIAN_POINT ( 'NONE',  ( -70.00000000000000000, 10.00000000000000000, 1.499999999999997335 ) ) ;
#335 = AXIS2_PLACEMENT_3D ( 'NONE', #439, #621, #30 ) ;
#336 = ORIENTED_EDGE ( 'NONE', *, *, #396, .F. ) ;
#337 = PLANE ( 'NONE',  #107 ) ;
#338 = CARTESIAN_POINT ( 'NONE',  ( 0.000000000000000000, 0.000000000000000000, 0.000000000000000000 ) ) ;
#339 = ORIENTED_EDGE ( 'NONE', *, *, #178, .T. ) ;
#340 = CARTESIAN_POINT ( 'NONE',  ( -70.00000000000000000, 5.000000000000000000, -1.499999999999997335 ) ) ;
#341 = CARTESIAN_POINT ( 'NONE',  ( 74.99999999999997158, 4.258819045102521628, 3.858852876154482470 ) ) ;
#342 = DIRECTION ( 'NONE',  ( 0.000000000000000000, -1.000000000000000000, 0.000000000000000000 ) ) ;
#343 = DIRECTION ( 'NONE',  ( 0.000000000000000000, 0.000000000000000000, -1.000000000000000000 ) ) ;
#344 = ADVANCED_FACE ( 'NONE', ( #764, #220, #702, #409, #641 ), #337, .T. ) ;
#345 = ORIENTED_EDGE ( 'NONE', *, *, #307, .T. ) ;
#346 = CARTESIAN_POINT ( 'NONE',  ( -72.89292704986543470, 4.000000000000000000, 2.892927049865433808 ) ) ;
#347 = DIRECTION ( 'NONE',  ( 0.000000000000000000, 0.000000000000000000, -1.000000000000000000 ) ) ;
#348 = EDGE_LOOP ( 'NONE', ( #734, #368, #716, #397 ) ) ;
#349 = DIRECTION ( 'NONE',  ( 0.000000000000000000, -1.000000000000000000, 0.000000000000000000 ) ) ;
#350 = AXIS2_PLACEMENT_3D ( 'NONE', #153, #329, #636 ) ;
#351 = SURFACE_STYLE_USAGE ( .BOTH. , #421 ) ;
#352 = VERTEX_POINT ( 'NONE', #141 ) ;
#353 = DIRECTION ( 'NONE',  ( 1.387778780781445676E-14, 0.000000000000000000, 1.000000000000000000 ) ) ;
#354 = CYLINDRICAL_SURFACE ( 'NONE', #707, 1.000000000000000000 ) ;
#355 = VECTOR ( 'NONE', #394, 1000.000000000000000 ) ;
#356 = EDGE_CURVE ( 'NONE', #352, #576, #267, .T. ) ;
#357 = CARTESIAN_POINT ( 'NONE',  ( -73.85885287615451489, 4.258819045102526957, -2.892927049865413380 ) ) ;
#358 = CIRCLE ( 'NONE', #510, 1.499999999999997335 ) ;
#359 = FACE_OUTER_BOUND ( 'NONE', #201, .T. ) ;
#360 = ORIENTED_EDGE ( 'NONE', *, *, #441, .F. ) ;
#361 = PRODUCT_RELATED_PRODUCT_CATEGORY ( 'part', '', ( #327 ) ) ;
#362 = CARTESIAN_POINT ( 'NONE',  ( 74.03407417371089139, 0.000000000000000000, 4.999999999999991118 ) ) ;
#363 = DIRECTION ( 'NONE',  ( 0.000000000000000000, -1.000000000000000000, 0.000000000000000000 ) ) ;
#364 = ORIENTED_EDGE ( 'NONE', *, *, #427, .F. ) ;
#365 = DIRECTION ( 'NONE',  ( -0.2505628070857321421, 0.9351131265310290708, 0.2505628070857321421 ) ) ;
#366 = DIRECTION ( 'NONE',  ( -1.000000000000000000, -1.387778780781444413E-14, 0.000000000000000000 ) ) ;
#367 = EDGE_CURVE ( 'NONE', #293, #541, #312, .T. ) ;
#368 = ORIENTED_EDGE ( 'NONE', *, *, #12, .F. ) ;
#369 = AXIS2_PLACEMENT_3D ( 'NONE', #382, #738, #70 ) ;
#370 = CARTESIAN_POINT ( 'NONE',  ( -75.00000000000002842, 0.000000000000000000, -4.999999999999989342 ) ) ;
#371 = DIRECTION ( 'NONE',  ( 3.142856314984706603E-17, 0.9659258262890680902, 0.2588190451025212391 ) ) ;
#372 = AXIS2_PLACEMENT_3D ( 'NONE', #643, #577, #4 ) ;
#373 = ADVANCED_FACE ( 'NONE', ( #450 ), #743, .T. ) ;
#374 = VERTEX_POINT ( 'NONE', #197 ) ;
#375 = CIRCLE ( 'NONE', #390, 1.000000000000000000 ) ;
#376 = PLANE ( 'NONE',  #665 ) ;
#377 = CARTESIAN_POINT ( 'NONE',  ( -74.09471665876243662, -0.4851398804119163022, -4.094716658762411754 ) ) ;
#378 = CYLINDRICAL_SURFACE ( 'NONE', #67, 1.000000000000000000 ) ;
#379 = ORIENTED_EDGE ( 'NONE', *, *, #590, .F. ) ;
#380 = CARTESIAN_POINT ( 'NONE',  ( -75.00000000000002842, 0.000000000000000000, -4.999999999999989342 ) ) ;
#381 = DIRECTION ( 'NONE',  ( 0.000000000000000000, -1.000000000000000000, 0.000000000000000000 ) ) ;
#382 = CARTESIAN_POINT ( 'NONE',  ( -70.00000000000000000, 10.00000000000000000, 0.000000000000000000 ) ) ;
#383 = ORIENTED_EDGE ( 'NONE', *, *, #520, .F. ) ;
#384 = EDGE_CURVE ( 'NONE', #719, #99, #757, .T. ) ;
#385 = CIRCLE ( 'NONE', #148, 1.499999999999997335 ) ;
#386 =( GEOMETRIC_REPRESENTATION_CONTEXT ( 3 ) GLOBAL_UNCERTAINTY_ASSIGNED_CONTEXT ( ( #454 ) ) GLOBAL_UNIT_ASSIGNED_CONTEXT ( ( #753, #88, #202 ) ) REPRESENTATION_CONTEXT ( 'NONE', 'WORKASPACE' ) );
#387 = AXIS2_PLACEMENT_3D ( 'NONE', #60, #63, #287 ) ;
#388 = ORIENTED_EDGE ( 'NONE', *, *, #271, .F. ) ;
#389 = LINE ( 'NONE', #36, #174 ) ;
#390 = AXIS2_PLACEMENT_3D ( 'NONE', #637, #137, #480 ) ;
#391 = DIRECTION ( 'NONE',  ( -3.292516139507788251E-17, 0.9659258262890680902, -0.2588190451025212391 ) ) ;
#392 = CARTESIAN_POINT ( 'NONE',  ( -72.89292704986543470, 3.999999999999998224, -2.892927049865413824 ) ) ;
#393 = ORIENTED_EDGE ( 'NONE', *, *, #786, .F. ) ;
#394 = DIRECTION ( 'NONE',  ( -0.000000000000000000, -1.000000000000000000, -0.000000000000000000 ) ) ;
#395 = CARTESIAN_POINT ( 'NONE',  ( -74.43282528210470161, 2.116724863953905800, 3.466899455815614317 ) ) ;
#396 = EDGE_CURVE ( 'NONE', #104, #286, #196, .T. ) ;
#397 = ORIENTED_EDGE ( 'NONE', *, *, #89, .T. ) ;
#398 = CLOSED_SHELL ( 'NONE', ( #253, #765, #613, #1, #656, #292, #594, #232, #512, #344, #320, #217, #604, #142, #456, #186, #569, #622, #737, #747, #156, #649, #241, #583, #529, #373 ) ) ;
#399 = CARTESIAN_POINT ( 'NONE',  ( 20.00000000000000000, 5.000000000000000000, 1.500000000000000666 ) ) ;
#400 = AXIS2_PLACEMENT_3D ( 'NONE', #486, #247, #661 ) ;
#401 = DIRECTION ( 'NONE',  ( -2.775557561562891351E-14, 0.000000000000000000, -1.000000000000000000 ) ) ;
#402 = AXIS2_PLACEMENT_3D ( 'NONE', #206, #17, #679 ) ;
#403 = EDGE_CURVE ( 'NONE', #579, #374, #593, .T. ) ;
#404 = ORIENTED_EDGE ( 'NONE', *, *, #178, .F. ) ;
#405 = AXIS2_PLACEMENT_3D ( 'NONE', #198, #343, #526 ) ;
#406 = DIRECTION ( 'NONE',  ( -0.2588190451025212391, 0.9659258262890680902, 0.000000000000000000 ) ) ;
#407 = FACE_OUTER_BOUND ( 'NONE', #748, .T. ) ;
#408 = ORIENTED_EDGE ( 'NONE', *, *, #775, .T. ) ;
#409 = FACE_BOUND ( 'NONE', #15, .T. ) ;
#410 =( NAMED_UNIT ( * ) SI_UNIT ( $, .STERADIAN. ) SOLID_ANGLE_UNIT ( ) );
#411 = EDGE_LOOP ( 'NONE', ( #277, #289, #492, #522 ) ) ;
#412 = FACE_BOUND ( 'NONE', #318, .T. ) ;
#413 = EDGE_CURVE ( 'NONE', #258, #286, #180, .T. ) ;
#414 = APPLICATION_PROTOCOL_DEFINITION ( 'draft international standard', 'automotive_design', 1998, #18 ) ;
#415 = ORIENTED_EDGE ( 'NONE', *, *, #80, .F. ) ;
#416 = CARTESIAN_POINT ( 'NONE',  ( 20.00000000000000000, 5.000000000000000000, 0.000000000000000000 ) ) ;
#417 = VECTOR ( 'NONE', #532, 1000.000000000000000 ) ;
#418 = LINE ( 'NONE', #395, #135 ) ;
#419 = EDGE_LOOP ( 'NONE', ( #475, #628, #32, #140 ) ) ;
#420 = CARTESIAN_POINT ( 'NONE',  ( 70.00000000000000000, 0.000000000000000000, 0.000000000000000000 ) ) ;
#421 = SURFACE_SIDE_STYLE ('',( #623 ) ) ;
#422 =( BOUNDED_CURVE ( )  B_SPLINE_CURVE ( 3, ( #664, #191, #785, #236 ),
 .UNSPECIFIED., .F., .F. ) 
 B_SPLINE_CURVE_WITH_KNOTS ( ( 4, 4 ),
 ( 5.531305892884602393, 7.035064721474593163 ),
 .UNSPECIFIED. ) 
 CURVE ( )  GEOMETRIC_REPRESENTATION_ITEM ( )  RATIONAL_B_SPLINE_CURVE ( ( 1.000000000000000000, 0.8202709971758328500, 0.8202709971758328500, 1.000000000000000000 ) ) 
 REPRESENTATION_ITEM ( '' )  );
#423 = EDGE_CURVE ( 'NONE', #619, #129, #546, .T. ) ;
#424 = EDGE_LOOP ( 'NONE', ( #741, #317 ) ) ;
#425 = DIRECTION ( 'NONE',  ( 0.000000000000000000, 0.000000000000000000, -1.000000000000000000 ) ) ;
#426 = PRODUCT_DEFINITION_FORMATION_WITH_SPECIFIED_SOURCE ( 'ANY', '', #327, .NOT_KNOWN. ) ;
#427 = EDGE_CURVE ( 'NONE', #223, #558, #472, .T. ) ;
#428 = EDGE_LOOP ( 'NONE', ( #481, #567, #537, #763 ) ) ;
#429 = CARTESIAN_POINT ( 'NONE',  ( 73.85885287615445804, 4.258819045102526957, 2.892927049865413380 ) ) ;
#430 = CIRCLE ( 'NONE', #471, 1.500000000000000666 ) ;
#431 = DIRECTION ( 'NONE',  ( 0.2505628070857313650, 0.9351131265310304030, -0.2505628070857279788 ) ) ;
#432 = ORIENTED_EDGE ( 'NONE', *, *, #262, .T. ) ;
#433 = DIRECTION ( 'NONE',  ( 0.000000000000000000, -1.000000000000000000, 0.000000000000000000 ) ) ;
#434 = VERTEX_POINT ( 'NONE', #226 ) ;
#435 = CARTESIAN_POINT ( 'NONE',  ( -72.89292704986543470, 4.000000000000000888, -2.892927049865413380 ) ) ;
#436 = CARTESIAN_POINT ( 'NONE',  ( 74.99999999999997158, 0.000000000000000000, -4.034074173710941125 ) ) ;
#437 = VERTEX_POINT ( 'NONE', #429 ) ;
#438 = DIRECTION ( 'NONE',  ( 0.000000000000000000, 0.000000000000000000, -1.000000000000000000 ) ) ;
#439 = CARTESIAN_POINT ( 'NONE',  ( 72.89292704986537785, 4.000000000000000000, 0.000000000000000000 ) ) ;
#440 = CYLINDRICAL_SURFACE ( 'NONE', #369, 1.499999999999997335 ) ;
#441 = EDGE_CURVE ( 'NONE', #333, #681, #717, .T. ) ;
#442 = EDGE_LOOP ( 'NONE', ( #233, #62, #582, #144 ) ) ;
#443 = CARTESIAN_POINT ( 'NONE',  ( 74.99999999999997158, 0.000000000000000000, 4.999999999999991118 ) ) ;
#444 = EDGE_LOOP ( 'NONE', ( #298, #774, #467 ) ) ;
#445 = CIRCLE ( 'NONE', #43, 1.000000000000000000 ) ;
#446 = LINE ( 'NONE', #179, #203 ) ;
#447 = CARTESIAN_POINT ( 'NONE',  ( 70.00000000000000000, 0.000000000000000000, -1.499999999999997335 ) ) ;
#448 = VECTOR ( 'NONE', #463, 1000.000000000000114 ) ;
#449 = ORIENTED_EDGE ( 'NONE', *, *, #83, .F. ) ;
#450 = FACE_OUTER_BOUND ( 'NONE', #511, .T. ) ;
#451 = SHAPE_DEFINITION_REPRESENTATION ( #93, #56 ) ;
#452 = CARTESIAN_POINT ( 'NONE',  ( -72.89292704986543470, 4.258819045102520739, -3.858852876154481137 ) ) ;
#453 = ORIENTED_EDGE ( 'NONE', *, *, #635, .F. ) ;
#454 = UNCERTAINTY_MEASURE_WITH_UNIT (LENGTH_MEASURE( 1.000000000000000082E-05 ), #753, 'distance_accuracy_value', 'NONE');
#455 = CARTESIAN_POINT ( 'NONE',  ( -70.00000000000000000, 10.00000000000000000, 0.000000000000000000 ) ) ;
#456 = ADVANCED_FACE ( 'NONE', ( #468 ), #724, .T. ) ;
#457 = DIRECTION ( 'NONE',  ( -0.000000000000000000, -1.000000000000000000, -0.000000000000000000 ) ) ;
#458 = ORIENTED_EDGE ( 'NONE', *, *, #713, .F. ) ;
#459 = PLANE ( 'NONE',  #721 ) ;
#460 = ORIENTED_EDGE ( 'NONE', *, *, #207, .F. ) ;
#461 = CARTESIAN_POINT ( 'NONE',  ( 70.00000000000000000, 0.000000000000000000, 0.000000000000000000 ) ) ;
#462 = ORIENTED_EDGE ( 'NONE', *, *, #761, .F. ) ;
#463 = DIRECTION ( 'NONE',  ( 0.2505628070857321421, -0.9351131265310290708, 0.2505628070857321421 ) ) ;
#464 = EDGE_CURVE ( 'NONE', #37, #505, #565, .T. ) ;
#465 = LINE ( 'NONE', #566, #572 ) ;
#466 = AXIS2_PLACEMENT_3D ( 'NONE', #420, #342, #160 ) ;
#467 = ORIENTED_EDGE ( 'NONE', *, *, #563, .F. ) ;
#468 = FACE_OUTER_BOUND ( 'NONE', #670, .T. ) ;
#469 = VECTOR ( 'NONE', #575, 1000.000000000000000 ) ;
#470 = CARTESIAN_POINT ( 'NONE',  ( 74.09471665876237978, -0.2263208353093970893, -5.060642485051498163 ) ) ;
#471 = AXIS2_PLACEMENT_3D ( 'NONE', #252, #607, #295 ) ;
#472 = CIRCLE ( 'NONE', #302, 1.500000000000000666 ) ;
#473 = ORIENTED_EDGE ( 'NONE', *, *, #356, .T. ) ;
#474 = DIRECTION ( 'NONE',  ( 0.000000000000000000, -1.000000000000000000, 0.000000000000000000 ) ) ;
#475 = ORIENTED_EDGE ( 'NONE', *, *, #307, .F. ) ;
#476 = DIRECTION ( 'NONE',  ( -1.000000000000000000, 0.000000000000000000, 1.436734315421577355E-14 ) ) ;
#477 = EDGE_CURVE ( 'NONE', #333, #293, #358, .T. ) ;
#478 = CARTESIAN_POINT ( 'NONE',  ( -72.89292704986542049, 4.000000000000000000, 2.892927049865433808 ) ) ;
#479 = EDGE_CURVE ( 'NONE', #502, #99, #121, .T. ) ;
#480 = DIRECTION ( 'NONE',  ( -1.387778780781445676E-14, 1.000000000000000000, 0.000000000000000000 ) ) ;
#481 = ORIENTED_EDGE ( 'NONE', *, *, #540, .T. ) ;
#482 = LINE ( 'NONE', #224, #448 ) ;
#483 = DIRECTION ( 'NONE',  ( -1.000000000000000000, -2.099983087364349010E-34, 1.272130549049658700E-16 ) ) ;
#484 = DIRECTION ( 'NONE',  ( 1.000000000000000000, 0.000000000000000000, -1.214306433183764966E-16 ) ) ;
#485 = CARTESIAN_POINT ( 'NONE',  ( 74.60747694781571226, 2.168404344971008868E-16, 4.999999999999988454 ) ) ;
#486 = CARTESIAN_POINT ( 'NONE',  ( 20.00000000000000000, 5.000000000000000000, 0.000000000000000000 ) ) ;
#487 = ORIENTED_EDGE ( 'NONE', *, *, #83, .T. ) ;
#488 = EDGE_CURVE ( 'NONE', #51, #86, #22, .T. ) ;
#489 = FACE_OUTER_BOUND ( 'NONE', #592, .T. ) ;
#490 = DIRECTION ( 'NONE',  ( -0.9659258262890657587, -0.2588190451025308425, 0.000000000000000000 ) ) ;
#491 =( BOUNDED_CURVE ( )  B_SPLINE_CURVE ( 3, ( #111, #114, #485, #362 ),
 .UNSPECIFIED., .F., .T. ) 
 B_SPLINE_CURVE_WITH_KNOTS ( ( 4, 4 ),
 ( 5.531305892884601505, 7.035064721474566518 ),
 .UNSPECIFIED. ) 
 CURVE ( )  GEOMETRIC_REPRESENTATION_ITEM ( )  RATIONAL_B_SPLINE_CURVE ( ( 1.000000000000000000, 0.8202709971758386231, 0.8202709971758386231, 1.000000000000000000 ) ) 
 REPRESENTATION_ITEM ( '' )  );
#492 = ORIENTED_EDGE ( 'NONE', *, *, #403, .T. ) ;
#493 = CARTESIAN_POINT ( 'NONE',  ( -20.00000000000000000, 10.00000000000000000, -1.500000000000000666 ) ) ;
#494 = VERTEX_POINT ( 'NONE', #162 ) ;
#495 = CIRCLE ( 'NONE', #711, 1.000000000000004885 ) ;
#496 = FACE_OUTER_BOUND ( 'NONE', #428, .T. ) ;
#497 = EDGE_CURVE ( 'NONE', #437, #130, #482, .T. ) ;
#498 = ORIENTED_EDGE ( 'NONE', *, *, #651, .T. ) ;
#499 = EDGE_LOOP ( 'NONE', ( #215, #432, #618 ) ) ;
#500 = PLANE ( 'NONE',  #671 ) ;
#501 = CARTESIAN_POINT ( 'NONE',  ( 20.00000000000000000, 10.00000000000000000, -1.500000000000000666 ) ) ;
#502 = VERTEX_POINT ( 'NONE', #340 ) ;
#503 = VECTOR ( 'NONE', #640, 1000.000000000000114 ) ;
#504 = LINE ( 'NONE', #470, #544 ) ;
#505 = VERTEX_POINT ( 'NONE', #705 ) ;
#506 = CARTESIAN_POINT ( 'NONE',  ( 70.00000000000000000, 5.000000000000000000, 1.499999999999997335 ) ) ;
#507 = CIRCLE ( 'NONE', #163, 1.500000000000000666 ) ;
#508 =( NAMED_UNIT ( * ) PLANE_ANGLE_UNIT ( ) SI_UNIT ( $, .RADIAN. ) );
#509 = DIRECTION ( 'NONE',  ( -0.9659258262890665359, 0.2588190451025276229, -8.673617379883993071E-16 ) ) ;
#510 = AXIS2_PLACEMENT_3D ( 'NONE', #784, #771, #117 ) ;
#511 = EDGE_LOOP ( 'NONE', ( #487, #518, #727, #453 ) ) ;
#512 = ADVANCED_FACE ( 'NONE', ( #587, #787, #159, #238, #412 ), #647, .F. ) ;
#513 = DIRECTION ( 'NONE',  ( 0.000000000000000000, -1.000000000000000000, -1.734723475976807094E-15 ) ) ;
#514 = DIRECTION ( 'NONE',  ( 1.000000000000000000, 5.952977513302719872E-33, -1.214306433183764966E-16 ) ) ;
#515 = EDGE_LOOP ( 'NONE', ( #272, #740 ) ) ;
#516 = CARTESIAN_POINT ( 'NONE',  ( 70.00000000000000000, 5.000000000000000000, -1.499999999999997335 ) ) ;
#517 = CARTESIAN_POINT ( 'NONE',  ( 74.09471665876239399, -0.2263208353093950354, 5.060642485051481287 ) ) ;
#518 = ORIENTED_EDGE ( 'NONE', *, *, #118, .F. ) ;
#519 = DIRECTION ( 'NONE',  ( 0.000000000000000000, -1.000000000000000000, 0.000000000000000000 ) ) ;
#520 = EDGE_CURVE ( 'NONE', #619, #558, #677, .T. ) ;
#521 = ORIENTED_EDGE ( 'NONE', *, *, #590, .T. ) ;
#522 = ORIENTED_EDGE ( 'NONE', *, *, #106, .T. ) ;
#523 = DIRECTION ( 'NONE',  ( 0.000000000000000000, 0.000000000000000000, -1.000000000000000000 ) ) ;
#524 = LINE ( 'NONE', #341, #78 ) ;
#525 = SPHERICAL_SURFACE ( 'NONE', #685, 1.000000000000000000 ) ;
#526 = DIRECTION ( 'NONE',  ( -1.000000000000000000, 0.000000000000000000, 0.000000000000000000 ) ) ;
#527 = VERTEX_POINT ( 'NONE', #663 ) ;
#528 = DIRECTION ( 'NONE',  ( 0.2505628070857320866, -0.9351131265310290708, 0.2505628070857320866 ) ) ;
#529 = ADVANCED_FACE ( 'NONE', ( #299 ), #187, .T. ) ;
#530 = FACE_OUTER_BOUND ( 'NONE', #499, .T. ) ;
#531 = ORIENTED_EDGE ( 'NONE', *, *, #786, .T. ) ;
#532 = DIRECTION ( 'NONE',  ( -0.000000000000000000, -1.000000000000000000, -0.000000000000000000 ) ) ;
#533 = VECTOR ( 'NONE', #204, 1000.000000000000000 ) ;
#534 = AXIS2_PLACEMENT_3D ( 'NONE', #718, #571, #285 ) ;
#535 = EDGE_CURVE ( 'NONE', #258, #51, #730, .T. ) ;
#536 = CARTESIAN_POINT ( 'NONE',  ( 72.89292704986537785, 5.000000000000000000, -2.892927049865430700 ) ) ;
#537 = ORIENTED_EDGE ( 'NONE', *, *, #413, .F. ) ;
#538 = DIRECTION ( 'NONE',  ( -0.000000000000000000, -1.000000000000000000, -0.000000000000000000 ) ) ;
#539 = DIRECTION ( 'NONE',  ( 0.000000000000000000, 0.000000000000000000, -1.000000000000000000 ) ) ;
#540 = EDGE_CURVE ( 'NONE', #701, #437, #648, .T. ) ;
#541 = VERTEX_POINT ( 'NONE', #98 ) ;
#542 = EDGE_CURVE ( 'NONE', #3, #527, #260, .T. ) ;
#543 = ORIENTED_EDGE ( 'NONE', *, *, #80, .T. ) ;
#544 = VECTOR ( 'NONE', #581, 1000.000000000000114 ) ;
#545 = AXIS2_PLACEMENT_3D ( 'NONE', #689, #714, #347 ) ;
#546 = CIRCLE ( 'NONE', #598, 1.500000000000000666 ) ;
#547 = DIRECTION ( 'NONE',  ( -0.000000000000000000, -1.000000000000000000, -0.000000000000000000 ) ) ;
#548 = EDGE_CURVE ( 'NONE', #14, #255, #39, .T. ) ;
#549 = ORIENTED_EDGE ( 'NONE', *, *, #752, .T. ) ;
#550 = CYLINDRICAL_SURFACE ( 'NONE', #6, 1.499999999999997335 ) ;
#551 = EDGE_LOOP ( 'NONE', ( #20, #48, #449 ) ) ;
#552 = ORIENTED_EDGE ( 'NONE', *, *, #12, .T. ) ;
#553 = CARTESIAN_POINT ( 'NONE',  ( -70.00000000000000000, 0.000000000000000000, 0.000000000000000000 ) ) ;
#554 = CARTESIAN_POINT ( 'NONE',  ( -72.89292704986542049, 5.000000000000000000, -2.892927049865412936 ) ) ;
#555 = ORIENTED_EDGE ( 'NONE', *, *, #675, .T. ) ;
#556 = DIRECTION ( 'NONE',  ( -1.000000000000000000, 1.387778780781444413E-14, 0.000000000000000000 ) ) ;
#557 = ORIENTED_EDGE ( 'NONE', *, *, #315, .F. ) ;
#558 = VERTEX_POINT ( 'NONE', #683 ) ;
#559 = ORIENTED_EDGE ( 'NONE', *, *, #609, .T. ) ;
#560 = AXIS2_PLACEMENT_3D ( 'NONE', #346, #188, #556 ) ;
#561 = CARTESIAN_POINT ( 'NONE',  ( 20.00000000000000000, 5.000000000000000000, -1.500000000000000666 ) ) ;
#562 = DIRECTION ( 'NONE',  ( 0.000000000000000000, -1.000000000000000000, 0.000000000000000000 ) ) ;
#563 = EDGE_CURVE ( 'NONE', #258, #603, #375, .T. ) ;
#564 = ORIENTED_EDGE ( 'NONE', *, *, #644, .F. ) ;
#565 = CIRCLE ( 'NONE', #600, 1.500000000000000666 ) ;
#566 = CARTESIAN_POINT ( 'NONE',  ( -73.85885287615451489, 4.258819045102527845, -4.999999999999989342 ) ) ;
#567 = ORIENTED_EDGE ( 'NONE', *, *, #69, .F. ) ;
#568 = EDGE_LOOP ( 'NONE', ( #521, #304, #783, #655 ) ) ;
#569 = ADVANCED_FACE ( 'NONE', ( #715 ), #222, .T. ) ;
#570 = AXIS2_PLACEMENT_3D ( 'NONE', #744, #751, #145 ) ;
#571 = DIRECTION ( 'NONE',  ( 0.2505628070857320866, -0.9351131265310290708, -0.2505628070857321421 ) ) ;
#572 = VECTOR ( 'NONE', #216, 1000.000000000000000 ) ;
#573 = ORIENTED_EDGE ( 'NONE', *, *, #441, .T. ) ;
#574 = CIRCLE ( 'NONE', #68, 1.000000000000000000 ) ;
#575 = DIRECTION ( 'NONE',  ( -0.000000000000000000, -1.000000000000000000, -0.000000000000000000 ) ) ;
#576 = VERTEX_POINT ( 'NONE', #773 ) ;
#577 = DIRECTION ( 'NONE',  ( 0.000000000000000000, -1.000000000000000000, 0.000000000000000000 ) ) ;
#578 = FACE_OUTER_BOUND ( 'NONE', #568, .T. ) ;
#579 = VERTEX_POINT ( 'NONE', #310 ) ;
#580 = DIRECTION ( 'NONE',  ( 0.000000000000000000, 0.000000000000000000, -1.000000000000000000 ) ) ;
#581 = DIRECTION ( 'NONE',  ( 0.2505628070857320866, -0.9351131265310290708, -0.2505628070857321976 ) ) ;
#582 = ORIENTED_EDGE ( 'NONE', *, *, #262, .F. ) ;
#583 = ADVANCED_FACE ( 'NONE', ( #359 ), #625, .T. ) ;
#584 = FACE_OUTER_BOUND ( 'NONE', #161, .T. ) ;
#585 = VECTOR ( 'NONE', #138, 1000.000000000000000 ) ;
#586 = ORIENTED_EDGE ( 'NONE', *, *, #384, .T. ) ;
#587 = FACE_OUTER_BOUND ( 'NONE', #693, .T. ) ;
#588 = ORIENTED_EDGE ( 'NONE', *, *, #548, .T. ) ;
#589 = DIRECTION ( 'NONE',  ( 0.000000000000000000, 0.000000000000000000, -1.000000000000000000 ) ) ;
#590 = EDGE_CURVE ( 'NONE', #130, #104, #169, .T. ) ;
#591 = CARTESIAN_POINT ( 'NONE',  ( 3.680180876305912013E-16, 4.000000000000000000, 2.892927049865424927 ) ) ;
#592 = EDGE_LOOP ( 'NONE', ( #102, #263, #225, #81 ) ) ;
#593 = LINE ( 'NONE', #370, #82 ) ;
#594 = ADVANCED_FACE ( 'NONE', ( #578 ), #459, .T. ) ;
#595 = LINE ( 'NONE', #493, #597 ) ;
#596 = ORIENTED_EDGE ( 'NONE', *, *, #464, .T. ) ;
#597 = VECTOR ( 'NONE', #538, 1000.000000000000000 ) ;
#598 = AXIS2_PLACEMENT_3D ( 'NONE', #416, #290, #580 ) ;
#599 = VERTEX_POINT ( 'NONE', #703 ) ;
#600 = AXIS2_PLACEMENT_3D ( 'NONE', #167, #474, #659 ) ;
#601 = CARTESIAN_POINT ( 'NONE',  ( -3.512899927382912493E-16, 4.000000000000000000, -2.892927049865422262 ) ) ;
#602 = DIRECTION ( 'NONE',  ( -0.2505628070857320866, -0.9351131265310290708, 0.2505628070857321976 ) ) ;
#603 = VERTEX_POINT ( 'NONE', #45 ) ;
#604 = ADVANCED_FACE ( 'NONE', ( #248 ), #608, .F. ) ;
#605 = ORIENTED_EDGE ( 'NONE', *, *, #24, .T. ) ;
#606 = DIRECTION ( 'NONE',  ( -0.2505628070857320866, -0.9351131265310290708, -0.2505628070857320866 ) ) ;
#607 = DIRECTION ( 'NONE',  ( 0.000000000000000000, -1.000000000000000000, 0.000000000000000000 ) ) ;
#608 = CYLINDRICAL_SURFACE ( 'NONE', #612, 1.500000000000000666 ) ;
#609 = EDGE_CURVE ( 'NONE', #599, #615, #669, .T. ) ;
#610 = CARTESIAN_POINT ( 'NONE',  ( -70.00000000000000000, 5.000000000000000000, 0.000000000000000000 ) ) ;
#611 = ORIENTED_EDGE ( 'NONE', *, *, #47, .F. ) ;
#612 = AXIS2_PLACEMENT_3D ( 'NONE', #291, #733, #539 ) ;
#613 = ADVANCED_FACE ( 'NONE', ( #296 ), #319, .F. ) ;
#614 = CARTESIAN_POINT ( 'NONE',  ( 74.03407417371089139, 0.000000000000000000, 4.999999999999991118 ) ) ;
#615 = VERTEX_POINT ( 'NONE', #208 ) ;
#616 = CARTESIAN_POINT ( 'NONE',  ( 75.06064248505145997, -0.2263208353093948688, -4.094716658762430406 ) ) ;
#617 = VECTOR ( 'NONE', #739, 1000.000000000000000 ) ;
#618 = ORIENTED_EDGE ( 'NONE', *, *, #282, .F. ) ;
#619 = VERTEX_POINT ( 'NONE', #399 ) ;
#620 = CARTESIAN_POINT ( 'NONE',  ( -74.03407417371091981, 0.000000000000000000, 5.000000000000010658 ) ) ;
#621 = DIRECTION ( 'NONE',  ( -0.000000000000000000, 0.000000000000000000, 1.000000000000000000 ) ) ;
#622 = ADVANCED_FACE ( 'NONE', ( #496 ), #313, .T. ) ;
#623 = SURFACE_STYLE_FILL_AREA ( #213 ) ;
#624 = ORIENTED_EDGE ( 'NONE', *, *, #542, .T. ) ;
#625 = CYLINDRICAL_SURFACE ( 'NONE', #405, 1.000000000000000888 ) ;
#626 = FACE_OUTER_BOUND ( 'NONE', #419, .T. ) ;
#627 = CARTESIAN_POINT ( 'NONE',  ( -72.89292704986543470, 4.000000000000006217, -2.892927049865413380 ) ) ;
#628 = ORIENTED_EDGE ( 'NONE', *, *, #609, .F. ) ;
#629 = CIRCLE ( 'NONE', #400, 1.500000000000000666 ) ;
#630 = AXIS2_PLACEMENT_3D ( 'NONE', #673, #75, #29 ) ;
#631 = CYLINDRICAL_SURFACE ( 'NONE', #545, 1.499999999999997335 ) ;
#632 = CARTESIAN_POINT ( 'NONE',  ( -3.512899927382912493E-16, 5.000000000000000000, -2.892927049865422262 ) ) ;
#633 = VECTOR ( 'NONE', #654, 1000.000000000000000 ) ;
#634 = EDGE_LOOP ( 'NONE', ( #672, #596 ) ) ;
#635 = EDGE_CURVE ( 'NONE', #268, #579, #323, .T. ) ;
#636 = DIRECTION ( 'NONE',  ( 0.000000000000000000, -0.2588190451025195737, -0.9659258262890686453 ) ) ;
#637 = CARTESIAN_POINT ( 'NONE',  ( 72.89292704986539206, 4.000000000000000000, -2.892927049865431144 ) ) ;
#638 = ORIENTED_EDGE ( 'NONE', *, *, #548, .F. ) ;
#639 = PRODUCT_DEFINITION_CONTEXT ( 'detailed design', #57, 'design' ) ;
#640 = DIRECTION ( 'NONE',  ( -0.2505628070857321421, -0.9351131265310290708, -0.2505628070857321421 ) ) ;
#641 = FACE_OUTER_BOUND ( 'NONE', #760, .T. ) ;
#642 = ORIENTED_EDGE ( 'NONE', *, *, #133, .F. ) ;
#643 = CARTESIAN_POINT ( 'NONE',  ( 0.000000000000000000, 5.000000000000000000, 0.000000000000000000 ) ) ;
#644 = EDGE_CURVE ( 'NONE', #541, #681, #28, .T. ) ;
#645 = DIRECTION ( 'NONE',  ( -0.000000000000000000, -1.000000000000000000, -0.000000000000000000 ) ) ;
#646 = ORIENTED_EDGE ( 'NONE', *, *, #124, .F. ) ;
#647 = PLANE ( 'NONE',  #372 ) ;
#648 = CIRCLE ( 'NONE', #165, 1.000000000000000000 ) ;
#649 = ADVANCED_FACE ( 'NONE', ( #530 ), #776, .T. ) ;
#650 = CARTESIAN_POINT ( 'NONE',  ( -20.00000000000000000, 10.00000000000000000, 1.500000000000000666 ) ) ;
#651 = EDGE_CURVE ( 'NONE', #14, #104, #87, .T. ) ;
#652 = ORIENTED_EDGE ( 'NONE', *, *, #722, .T. ) ;
#653 = LINE ( 'NONE', #782, #300 ) ;
#654 = DIRECTION ( 'NONE',  ( -0.000000000000000000, -0.000000000000000000, -1.000000000000000000 ) ) ;
#655 = ORIENTED_EDGE ( 'NONE', *, *, #497, .T. ) ;
#656 = ADVANCED_FACE ( 'NONE', ( #746 ), #376, .T. ) ;
#657 = DIRECTION ( 'NONE',  ( -1.000000000000000000, 0.000000000000000000, 0.000000000000000000 ) ) ;
#658 = CIRCLE ( 'NONE', #311, 1.000000000000005773 ) ;
#659 = DIRECTION ( 'NONE',  ( 0.000000000000000000, 0.000000000000000000, -1.000000000000000000 ) ) ;
#660 = EDGE_CURVE ( 'NONE', #51, #434, #95, .T. ) ;
#661 = DIRECTION ( 'NONE',  ( 0.000000000000000000, 0.000000000000000000, -1.000000000000000000 ) ) ;
#662 = ORIENTED_EDGE ( 'NONE', *, *, #47, .T. ) ;
#663 = CARTESIAN_POINT ( 'NONE',  ( 72.89292704986540627, 4.258819045102520739, 3.858852876154482914 ) ) ;
#664 = CARTESIAN_POINT ( 'NONE',  ( -75.00000000000002842, 0.000000000000000000, -4.034074173710923361 ) ) ;
#665 = AXIS2_PLACEMENT_3D ( 'NONE', #380, #692, #755 ) ;
#666 = DIRECTION ( 'NONE',  ( -0.000000000000000000, -1.000000000000000000, -0.000000000000000000 ) ) ;
#667 = DIRECTION ( 'NONE',  ( -6.018531076210112041E-30, -4.336808689942021680E-16, 1.000000000000000000 ) ) ;
#668 = CARTESIAN_POINT ( 'NONE',  ( -72.89292704986543470, 4.000000000000007105, 2.892927049865432476 ) ) ;
#669 = LINE ( 'NONE', #244, #239 ) ;
#670 = EDGE_LOOP ( 'NONE', ( #611, #306, #458, #331 ) ) ;
#671 = AXIS2_PLACEMENT_3D ( 'NONE', #443, #686, #391 ) ;
#672 = ORIENTED_EDGE ( 'NONE', *, *, #271, .T. ) ;
#673 = CARTESIAN_POINT ( 'NONE',  ( -20.00000000000000000, 0.000000000000000000, 0.000000000000000000 ) ) ;
#674 = PLANE ( 'NONE',  #44 ) ;
#675 = EDGE_CURVE ( 'NONE', #86, #603, #389, .T. ) ;
#676 = CARTESIAN_POINT ( 'NONE',  ( -20.00000000000000000, 5.000000000000000000, 1.500000000000000666 ) ) ;
#677 = LINE ( 'NONE', #8, #617 ) ;
#678 = ORIENTED_EDGE ( 'NONE', *, *, #651, .F. ) ;
#679 = DIRECTION ( 'NONE',  ( -0.9659258262890687563, -0.2588190451025195737, 0.000000000000000000 ) ) ;
#680 = ORIENTED_EDGE ( 'NONE', *, *, #245, .T. ) ;
#681 = VERTEX_POINT ( 'NONE', #447 ) ;
#682 = ORIENTED_EDGE ( 'NONE', *, *, #540, .F. ) ;
#683 = CARTESIAN_POINT ( 'NONE',  ( 20.00000000000000000, 0.000000000000000000, 1.500000000000000666 ) ) ;
#684 = AXIS2_PLACEMENT_3D ( 'NONE', #627, #696, #94 ) ;
#685 = AXIS2_PLACEMENT_3D ( 'NONE', #777, #266, #228 ) ;
#686 = DIRECTION ( 'NONE',  ( 1.228783751738357642E-16, 0.2588190451025212946, 0.9659258262890682012 ) ) ;
#687 = AXIS2_PLACEMENT_3D ( 'NONE', #377, #606, #308 ) ;
#688 = EDGE_CURVE ( 'NONE', #494, #502, #261, .T. ) ;
#689 = CARTESIAN_POINT ( 'NONE',  ( 70.00000000000000000, 10.00000000000000000, 0.000000000000000000 ) ) ;
#690 = CARTESIAN_POINT ( 'NONE',  ( 72.89292704986537785, 5.000000000000000000, 2.892927049865415157 ) ) ;
#691 = CARTESIAN_POINT ( 'NONE',  ( 72.89292704986537785, 4.000000000000000000, 2.892927049865415157 ) ) ;
#692 = DIRECTION ( 'NONE',  ( -0.9659258262890682012, 0.2588190451025212946, 0.000000000000000000 ) ) ;
#693 = EDGE_LOOP ( 'NONE', ( #84, #171, #257, #134 ) ) ;
#694 = DIRECTION ( 'NONE',  ( -0.000000000000000000, -1.000000000000000000, -0.000000000000000000 ) ) ;
#695 = DIRECTION ( 'NONE',  ( 0.000000000000000000, 0.000000000000000000, -1.000000000000000000 ) ) ;
#696 = DIRECTION ( 'NONE',  ( 1.162044386198239330E-16, 4.336808689942027597E-16, -1.000000000000000000 ) ) ;
#697 = ORIENTED_EDGE ( 'NONE', *, *, #282, .T. ) ;
#698 = AXIS2_PLACEMENT_3D ( 'NONE', #668, #431, #243 ) ;
#699 = AXIS2_PLACEMENT_3D ( 'NONE', #455, #694, #332 ) ;
#700 = DIRECTION ( 'NONE',  ( -0.2505628070857320866, 0.9351131265310290708, -0.2505628070857321421 ) ) ;
#701 = VERTEX_POINT ( 'NONE', #690 ) ;
#702 = FACE_BOUND ( 'NONE', #424, .T. ) ;
#703 = CARTESIAN_POINT ( 'NONE',  ( -72.89292704986542049, 4.258819045102520739, 3.858852876154501566 ) ) ;
#704 = ORIENTED_EDGE ( 'NONE', *, *, #688, .T. ) ;
#705 = CARTESIAN_POINT ( 'NONE',  ( -20.00000000000000000, 5.000000000000000000, -1.500000000000000666 ) ) ;
#706 = CARTESIAN_POINT ( 'NONE',  ( -75.06064248505151681, -0.2263208353093946745, -4.094716658762412642 ) ) ;
#707 = AXIS2_PLACEMENT_3D ( 'NONE', #591, #249, #273 ) ;
#708 = ORIENTED_EDGE ( 'NONE', *, *, #384, .F. ) ;
#709 = DIRECTION ( 'NONE',  ( 0.000000000000000000, -0.2588190451025214056, -0.9659258262890682012 ) ) ;
#710 = CIRCLE ( 'NONE', #127, 1.499999999999997335 ) ;
#711 = AXIS2_PLACEMENT_3D ( 'NONE', #392, #168, #509 ) ;
#712 = CYLINDRICAL_SURFACE ( 'NONE', #699, 1.499999999999997335 ) ;
#713 = EDGE_CURVE ( 'NONE', #130, #3, #491, .T. ) ;
#714 = DIRECTION ( 'NONE',  ( -0.000000000000000000, -1.000000000000000000, -0.000000000000000000 ) ) ;
#715 = FACE_OUTER_BOUND ( 'NONE', #779, .T. ) ;
#716 = ORIENTED_EDGE ( 'NONE', *, *, #479, .T. ) ;
#717 = LINE ( 'NONE', #230, #417 ) ;
#718 = CARTESIAN_POINT ( 'NONE',  ( 74.09471665876237978, -0.4851398804119171904, -4.094716658762430406 ) ) ;
#719 = VERTEX_POINT ( 'NONE', #283 ) ;
#720 = DIRECTION ( 'NONE',  ( 0.000000000000000000, 0.000000000000000000, 1.000000000000000000 ) ) ;
#721 = AXIS2_PLACEMENT_3D ( 'NONE', #221, #152, #406 ) ;
#722 = EDGE_CURVE ( 'NONE', #527, #599, #524, .T. ) ;
#723 = EDGE_LOOP ( 'NONE', ( #415, #388, #26, #473 ) ) ;
#724 = CYLINDRICAL_SURFACE ( 'NONE', #21, 0.9999999999999996669 ) ;
#725 = AXIS2_PLACEMENT_3D ( 'NONE', #461, #766, #695 ) ;
#726 = VECTOR ( 'NONE', #210, 1000.000000000000000 ) ;
#727 = ORIENTED_EDGE ( 'NONE', *, *, #256, .F. ) ;
#728 = DIRECTION ( 'NONE',  ( 0.000000000000000000, 0.000000000000000000, 1.000000000000000000 ) ) ;
#729 = LINE ( 'NONE', #185, #53 ) ;
#730 = LINE ( 'NONE', #632, #533 ) ;
#731 = DIRECTION ( 'NONE',  ( 0.000000000000000000, 0.000000000000000000, 1.000000000000000000 ) ) ;
#732 = SPHERICAL_SURFACE ( 'NONE', #192, 1.000000000000000000 ) ;
#733 = DIRECTION ( 'NONE',  ( -0.000000000000000000, -1.000000000000000000, -0.000000000000000000 ) ) ;
#734 = ORIENTED_EDGE ( 'NONE', *, *, #775, .F. ) ;
#735 = CARTESIAN_POINT ( 'NONE',  ( 74.99999999999997158, 0.000000000000000000, -5.000000000000007994 ) ) ;
#736 = AXIS2_PLACEMENT_3D ( 'NONE', #338, #276, #772 ) ;
#737 = ADVANCED_FACE ( 'NONE', ( #172 ), #354, .T. ) ;
#738 = DIRECTION ( 'NONE',  ( -0.000000000000000000, -1.000000000000000000, -0.000000000000000000 ) ) ;
#739 = DIRECTION ( 'NONE',  ( -0.000000000000000000, -1.000000000000000000, -0.000000000000000000 ) ) ;
#740 = ORIENTED_EDGE ( 'NONE', *, *, #423, .T. ) ;
#741 = ORIENTED_EDGE ( 'NONE', *, *, #356, .F. ) ;
#742 = EDGE_LOOP ( 'NONE', ( #652, #559, #116, #624 ) ) ;
#743 = CYLINDRICAL_SURFACE ( 'NONE', #687, 0.9999999999999996669 ) ;
#744 = CARTESIAN_POINT ( 'NONE',  ( -20.00000000000000000, 10.00000000000000000, 0.000000000000000000 ) ) ;
#745 = DIRECTION ( 'NONE',  ( 1.000000000000000000, -0.000000000000000000, -1.272130549049658700E-16 ) ) ;
#746 = FACE_OUTER_BOUND ( 'NONE', #411, .T. ) ;
#747 = ADVANCED_FACE ( 'NONE', ( #626 ), #34, .T. ) ;
#748 = EDGE_LOOP ( 'NONE', ( #321, #10, #339, #195 ) ) ;
#749 = DIRECTION ( 'NONE',  ( 0.000000000000000000, -0.000000000000000000, -1.000000000000000000 ) ) ;
#750 = CARTESIAN_POINT ( 'NONE',  ( 73.85885287615445804, 4.258819045102526957, -2.892927049865430256 ) ) ;
#751 = DIRECTION ( 'NONE',  ( -0.000000000000000000, -1.000000000000000000, -0.000000000000000000 ) ) ;
#752 = EDGE_CURVE ( 'NONE', #681, #541, #778, .T. ) ;
#753 =( LENGTH_UNIT ( ) NAMED_UNIT ( * ) SI_UNIT ( .MILLI., .METRE. ) );
#754 = COLOUR_RGB ( '',0.7921568627450980005, 0.8196078431372548767, 0.9333333333333333481 ) ;
#755 = DIRECTION ( 'NONE',  ( 0.2588190451025212391, 0.9659258262890680902, 0.000000000000000000 ) ) ;
#756 = AXIS2_PLACEMENT_3D ( 'NONE', #72, #433, #720 ) ;
#757 = CIRCLE ( 'NONE', #19, 1.499999999999997335 ) ;
#758 = AXIS2_PLACEMENT_3D ( 'NONE', #234, #476, #353 ) ;
#759 = PRODUCT_CONTEXT ( 'NONE', #18, 'mechanical' ) ;
#760 = EDGE_LOOP ( 'NONE', ( #158, #7, #638, #498, #379, #166, #182, #345 ) ) ;
#761 = EDGE_CURVE ( 'NONE', #151, #268, #465, .T. ) ;
#762 = DIRECTION ( 'NONE',  ( 0.2505628070857321421, 0.9351131265310290708, -0.2505628070857321421 ) ) ;
#763 = ORIENTED_EDGE ( 'NONE', *, *, #103, .F. ) ;
#764 = FACE_BOUND ( 'NONE', #229, .T. ) ;
#765 = ADVANCED_FACE ( 'NONE', ( #407 ), #101, .F. ) ;
#766 = DIRECTION ( 'NONE',  ( 0.000000000000000000, -1.000000000000000000, 0.000000000000000000 ) ) ;
#767 = EDGE_LOOP ( 'NONE', ( #588, #71, #555, #270 ) ) ;
#768 = UNCERTAINTY_MEASURE_WITH_UNIT (LENGTH_MEASURE( 1.000000000000000082E-05 ), #769, 'distance_accuracy_value', 'NONE');
#769 =( LENGTH_UNIT ( ) NAMED_UNIT ( * ) SI_UNIT ( .MILLI., .METRE. ) );
#770 = ORIENTED_EDGE ( 'NONE', *, *, #96, .F. ) ;
#771 = DIRECTION ( 'NONE',  ( 0.000000000000000000, -1.000000000000000000, 0.000000000000000000 ) ) ;
#772 = DIRECTION ( 'NONE',  ( 1.000000000000000000, 0.000000000000000000, 0.000000000000000000 ) ) ;
#773 = CARTESIAN_POINT ( 'NONE',  ( -20.00000000000000000, 0.000000000000000000, 1.500000000000000666 ) ) ;
#774 = ORIENTED_EDGE ( 'NONE', *, *, #315, .T. ) ;
#775 = EDGE_CURVE ( 'NONE', #494, #719, #157, .T. ) ;
#776 = SPHERICAL_SURFACE ( 'NONE', #560, 1.000000000000000000 ) ;
#777 = CARTESIAN_POINT ( 'NONE',  ( 72.89292704986539206, 4.000000000000000000, -2.892927049865431144 ) ) ;
#778 = CIRCLE ( 'NONE', #725, 1.499999999999997335 ) ;
#779 = EDGE_LOOP ( 'NONE', ( #678, #646, #557, #336 ) ) ;
#780 = DIRECTION ( 'NONE',  ( -0.000000000000000000, -1.000000000000000000, -0.000000000000000000 ) ) ;
#781 = VECTOR ( 'NONE', #457, 1000.000000000000000 ) ;
#782 = CARTESIAN_POINT ( 'NONE',  ( -64.67745861456016598, 34.91936465364009479, 4.356615559150787576 ) ) ;
#783 = ORIENTED_EDGE ( 'NONE', *, *, #69, .T. ) ;
#784 = CARTESIAN_POINT ( 'NONE',  ( 70.00000000000000000, 5.000000000000000000, 0.000000000000000000 ) ) ;
#785 = CARTESIAN_POINT ( 'NONE',  ( -74.60747694781572648, 5.421010862427522170E-17, -5.000000000000003553 ) ) ;
#786 = EDGE_CURVE ( 'NONE', #293, #333, #126, .T. ) ;
#787 = FACE_BOUND ( 'NONE', #90, .T. ) ;
ENDSEC;
END-ISO-10303-21;
