ISO-10303-21;
HEADER;
FILE_DESCRIPTION (( 'STEP AP214' ),
    '1' );
FILE_NAME ('Frame Railing.STEP',
    '2026-05-27T04:34:34',
    ( '' ),
    ( '' ),
    'SwSTEP 2.0',
    'SolidWorks 2026',
    '' );
FILE_SCHEMA (( 'AUTOMOTIVE_DESIGN' ));
ENDSEC;

DATA;
#1 = EDGE_LOOP ( 'NONE', ( #48, #582 ) ) ;
#2 = EDGE_LOOP ( 'NONE', ( #40, #149, #147, #199 ) ) ;
#3 = AXIS2_PLACEMENT_3D ( 'NONE', #25, #124, #105 ) ;
#4 = ORIENTED_EDGE ( 'NONE', *, *, #598, .F. ) ;
#5 = FACE_OUTER_BOUND ( 'NONE', #597, .T. ) ;
#6 = CLOSED_SHELL ( 'NONE', ( #488, #599, #403, #190, #558, #23, #133, #62, #19, #376, #506, #212, #175, #592, #518, #454, #568, #74, #485, #494, #364 ) ) ;
#7 = AXIS2_PLACEMENT_3D ( 'NONE', #252, #243, #192 ) ;
#8 = VERTEX_POINT ( 'NONE', #285 ) ;
#9 = ORIENTED_EDGE ( 'NONE', *, *, #205, .F. ) ;
#10 = ORIENTED_EDGE ( 'NONE', *, *, #379, .F. ) ;
#11 = DIRECTION ( 'NONE',  ( 0.5999999999999997558, 0.000000000000000000, -0.8000000000000001554 ) ) ;
#12 = AXIS2_PLACEMENT_3D ( 'NONE', #508, #452, #228 ) ;
#13 = DIRECTION ( 'NONE',  ( 0.000000000000000000, 1.000000000000000000, 0.000000000000000000 ) ) ;
#14 = LINE ( 'NONE', #302, #466 ) ;
#15 = DIRECTION ( 'NONE',  ( 0.000000000000000000, 1.000000000000000000, 0.000000000000000000 ) ) ;
#16 = PRODUCT_DEFINITION_SHAPE ( 'NONE', 'NONE',  #241 ) ;
#17 = CARTESIAN_POINT ( 'NONE',  ( -11.58000000000008534, 20.00000000000000000, 15.44000000000012562 ) ) ;
#18 = CIRCLE ( 'NONE', #231, 1.500000000000001332 ) ;
#19 = ADVANCED_FACE ( 'NONE', ( #56 ), #245, .F. ) ;
#20 = AXIS2_PLACEMENT_3D ( 'NONE', #50, #154, #329 ) ;
#21 = CARTESIAN_POINT ( 'NONE',  ( -79.00000000000001421, 20.00000000000000000, -37.99999999999982236 ) ) ;
#22 = EDGE_CURVE ( 'NONE', #57, #244, #222, .T. ) ;
#23 = ADVANCED_FACE ( 'NONE', ( #539 ), #110, .F. ) ;
#24 = ORIENTED_EDGE ( 'NONE', *, *, #585, .T. ) ;
#25 = CARTESIAN_POINT ( 'NONE',  ( -57.00000000000000711, -15.00000000000000355, -36.99999999999981526 ) ) ;
#26 = DIRECTION ( 'NONE',  ( 0.000000000000000000, -1.000000000000000000, -0.000000000000000000 ) ) ;
#27 = EDGE_CURVE ( 'NONE', #284, #399, #239, .T. ) ;
#28 = DIRECTION ( 'NONE',  ( 0.000000000000000000, -0.000000000000000000, -1.000000000000000000 ) ) ;
#29 = CARTESIAN_POINT ( 'NONE',  ( -79.00000000000001421, 20.00000000000000000, -39.99999999999982947 ) ) ;
#30 = CARTESIAN_POINT ( 'NONE',  ( 0.000000000000000000, -20.00000000000000000, 0.000000000000000000 ) ) ;
#31 = VECTOR ( 'NONE', #77, 1000.000000000000000 ) ;
#32 = CARTESIAN_POINT ( 'NONE',  ( -79.00000000000001421, -20.00000000000000000, -39.99999999999982947 ) ) ;
#33 = DIRECTION ( 'NONE',  ( -0.000000000000000000, 1.000000000000000000, -0.000000000000000000 ) ) ;
#34 = EDGE_CURVE ( 'NONE', #206, #474, #219, .T. ) ;
#35 = AXIS2_PLACEMENT_3D ( 'NONE', #99, #434, #11 ) ;
#36 = CARTESIAN_POINT ( 'NONE',  ( -57.00000000000000711, -20.00000000000000355, -38.49999999999981526 ) ) ;
#37 = VERTEX_POINT ( 'NONE', #546 ) ;
#38 = CARTESIAN_POINT ( 'NONE',  ( 55.98000000000004661, -20.00000000000000000, -35.58802417830391107 ) ) ;
#39 = FACE_OUTER_BOUND ( 'NONE', #2, .T. ) ;
#40 = ORIENTED_EDGE ( 'NONE', *, *, #247, .F. ) ;
#41 = LINE ( 'NONE', #85, #298 ) ;
#42 = DIRECTION ( 'NONE',  ( 0.000000000000000000, 1.000000000000000000, 0.000000000000000000 ) ) ;
#43 = MECHANICAL_DESIGN_GEOMETRIC_PRESENTATION_REPRESENTATION (  '', ( #590 ), #275 ) ;
#44 = LINE ( 'NONE', #555, #527 ) ;
#45 = ORIENTED_EDGE ( 'NONE', *, *, #563, .T. ) ;
#46 = CYLINDRICAL_SURFACE ( 'NONE', #491, 1.572515875182374456 ) ;
#47 = APPLICATION_PROTOCOL_DEFINITION ( 'draft international standard', 'automotive_design', 1998, #424 ) ;
#48 = ORIENTED_EDGE ( 'NONE', *, *, #529, .T. ) ;
#49 = AXIS2_PLACEMENT_3D ( 'NONE', #543, #295, #303 ) ;
#50 = CARTESIAN_POINT ( 'NONE',  ( -57.00000000000000711, -20.00000000000000355, -36.99999999999981526 ) ) ;
#51 = VECTOR ( 'NONE', #504, 1000.000000000000000 ) ;
#52 = LINE ( 'NONE', #135, #51 ) ;
#53 = DIRECTION ( 'NONE',  ( 0.000000000000000000, 0.000000000000000000, -1.000000000000000000 ) ) ;
#54 = EDGE_LOOP ( 'NONE', ( #571, #198 ) ) ;
#55 = CARTESIAN_POINT ( 'NONE',  ( -80.00000000000001421, -20.00000000000000000, -39.99999999999982947 ) ) ;
#56 = FACE_OUTER_BOUND ( 'NONE', #196, .T. ) ;
#57 = VERTEX_POINT ( 'NONE', #121 ) ;
#58 = AXIS2_PLACEMENT_3D ( 'NONE', #297, #301, #584 ) ;
#59 = EDGE_LOOP ( 'NONE', ( #549, #287, #139, #415 ) ) ;
#60 = VERTEX_POINT ( 'NONE', #125 ) ;
#61 = EDGE_CURVE ( 'NONE', #179, #91, #450, .T. ) ;
#62 = ADVANCED_FACE ( 'NONE', ( #342 ), #536, .F. ) ;
#63 = ORIENTED_EDGE ( 'NONE', *, *, #84, .T. ) ;
#64 = DIRECTION ( 'NONE',  ( -0.000000000000000000, -1.000000000000000000, 0.000000000000000000 ) ) ;
#65 = DIRECTION ( 'NONE',  ( 0.000000000000000000, -1.000000000000000000, 0.000000000000000000 ) ) ;
#66 = DIRECTION ( 'NONE',  ( 0.000000000000000000, -0.000000000000000000, 1.000000000000000000 ) ) ;
#67 = EDGE_CURVE ( 'NONE', #37, #206, #52, .T. ) ;
#68 = CARTESIAN_POINT ( 'NONE',  ( -57.00000000000000711, -20.00000000000000355, -35.49999999999982236 ) ) ;
#69 = CARTESIAN_POINT ( 'NONE',  ( -7.000000000000004441, -20.00000000000000355, -36.99999999999982236 ) ) ;
#70 = VECTOR ( 'NONE', #413, 1000.000000000000000 ) ;
#71 = CIRCLE ( 'NONE', #406, 1.499999999999994449 ) ;
#72 = DIRECTION ( 'NONE',  ( 0.000000000000000000, 0.000000000000000000, 1.000000000000000000 ) ) ;
#73 = DIRECTION ( 'NONE',  ( -0.000000000000000000, 1.000000000000000000, -0.000000000000000000 ) ) ;
#74 = ADVANCED_FACE ( 'NONE', ( #324 ), #412, .T. ) ;
#75 = DIRECTION ( 'NONE',  ( 0.000000000000000000, 0.000000000000000000, 1.000000000000000000 ) ) ;
#76 = CARTESIAN_POINT ( 'NONE',  ( 77.50000000000002842, -20.00000000000000000, -33.99999999999980815 ) ) ;
#77 = DIRECTION ( 'NONE',  ( -0.000000000000000000, 1.000000000000000000, -0.000000000000000000 ) ) ;
#78 = DIRECTION ( 'NONE',  ( -0.000000000000000000, -0.000000000000000000, 1.000000000000000000 ) ) ;
#79 = CARTESIAN_POINT ( 'NONE',  ( 7.000000000000004441, -20.00000000000000355, -36.99999999999982236 ) ) ;
#80 = CARTESIAN_POINT ( 'NONE',  ( 52.00000000000000711, -20.00000000000000355, -38.57251587518219793 ) ) ;
#81 =( NAMED_UNIT ( * ) PLANE_ANGLE_UNIT ( ) SI_UNIT ( $, .RADIAN. ) );
#82 = CARTESIAN_POINT ( 'NONE',  ( -79.00000000000001421, -20.00000000000000000, -37.99999999999982236 ) ) ;
#83 = DIRECTION ( 'NONE',  ( 0.8000000000000001554, -0.000000000000000000, 0.5999999999999997558 ) ) ;
#84 = EDGE_CURVE ( 'NONE', #349, #57, #356, .T. ) ;
#85 = CARTESIAN_POINT ( 'NONE',  ( 55.98000000000004661, -20.00000000000000000, 0.000000000000000000 ) ) ;
#86 = VECTOR ( 'NONE', #279, 1000.000000000000000 ) ;
#87 = AXIS2_PLACEMENT_3D ( 'NONE', #246, #516, #333 ) ;
#88 = ORIENTED_EDGE ( 'NONE', *, *, #172, .F. ) ;
#89 = DIRECTION ( 'NONE',  ( -0.000000000000000000, -1.000000000000000000, -0.000000000000000000 ) ) ;
#90 = SURFACE_SIDE_STYLE ('',( #143 ) ) ;
#91 = VERTEX_POINT ( 'NONE', #107 ) ;
#92 = CIRCLE ( 'NONE', #383, 1.499999999999994449 ) ;
#93 = COLOUR_RGB ( '',0.7921568627450980005, 0.8196078431372548767, 0.9333333333333333481 ) ;
#94 = ORIENTED_EDGE ( 'NONE', *, *, #218, .T. ) ;
#95 = ORIENTED_EDGE ( 'NONE', *, *, #559, .T. ) ;
#96 = ORIENTED_EDGE ( 'NONE', *, *, #585, .F. ) ;
#97 = VERTEX_POINT ( 'NONE', #112 ) ;
#98 = AXIS2_PLACEMENT_3D ( 'NONE', #225, #15, #215 ) ;
#99 = CARTESIAN_POINT ( 'NONE',  ( -110.0000000000000000, 20.00000000000000000, 1.765668306999740290E-13 ) ) ;
#100 = DIRECTION ( 'NONE',  ( 0.000000000000000000, 0.000000000000000000, -1.000000000000000000 ) ) ;
#101 = PLANE ( 'NONE',  #520 ) ;
#102 = CIRCLE ( 'NONE', #449, 1.500000000000001332 ) ;
#103 = EDGE_LOOP ( 'NONE', ( #532, #282, #108, #430 ) ) ;
#104 = DIRECTION ( 'NONE',  ( 0.000000000000000000, 1.000000000000000000, 0.000000000000000000 ) ) ;
#105 = DIRECTION ( 'NONE',  ( 0.000000000000000000, 0.000000000000000000, 1.000000000000000000 ) ) ;
#106 = VERTEX_POINT ( 'NONE', #540 ) ;
#107 = CARTESIAN_POINT ( 'NONE',  ( -57.00000000000000711, -15.00000000000000355, -35.49999999999982236 ) ) ;
#108 = ORIENTED_EDGE ( 'NONE', *, *, #267, .T. ) ;
#109 = CARTESIAN_POINT ( 'NONE',  ( -7.000000000000004441, -20.00000000000000355, -38.49999999999982947 ) ) ;
#110 = PLANE ( 'NONE',  #209 ) ;
#111 = PRODUCT_DEFINITION_FORMATION_WITH_SPECIFIED_SOURCE ( 'ANY', '', #262, .NOT_KNOWN. ) ;
#112 = CARTESIAN_POINT ( 'NONE',  ( 7.000000000000004441, -15.00000000000000355, -35.49999999999982236 ) ) ;
#113 = DIRECTION ( 'NONE',  ( 0.000000000000000000, 0.000000000000000000, -1.000000000000000000 ) ) ;
#114 = DIRECTION ( 'NONE',  ( 0.000000000000000000, 1.000000000000000000, 0.000000000000000000 ) ) ;
#115 = CARTESIAN_POINT ( 'NONE',  ( 52.00000000000000711, -20.00000000000000355, -36.99999999999982236 ) ) ;
#116 = AXIS2_PLACEMENT_3D ( 'NONE', #220, #169, #350 ) ;
#117 = EDGE_CURVE ( 'NONE', #304, #179, #249, .T. ) ;
#118 = DIRECTION ( 'NONE',  ( 0.000000000000000000, 1.000000000000000000, 0.000000000000000000 ) ) ;
#119 = DIRECTION ( 'NONE',  ( -0.000000000000000000, 1.000000000000000000, -0.000000000000000000 ) ) ;
#120 = DIRECTION ( 'NONE',  ( 0.000000000000000000, 0.000000000000000000, 1.000000000000000000 ) ) ;
#121 = CARTESIAN_POINT ( 'NONE',  ( -80.60000000000002274, 20.00000000000000000, -39.19999999999982521 ) ) ;
#122 = EDGE_CURVE ( 'NONE', #378, #251, #315, .T. ) ;
#123 = CARTESIAN_POINT ( 'NONE',  ( 52.00000000000000711, -20.00000000000000355, -35.42748412481744680 ) ) ;
#124 = DIRECTION ( 'NONE',  ( 0.000000000000000000, 1.000000000000000000, 0.000000000000000000 ) ) ;
#125 = CARTESIAN_POINT ( 'NONE',  ( 7.000000000000004441, -20.00000000000000355, -35.49999999999982236 ) ) ;
#126 =( GEOMETRIC_REPRESENTATION_CONTEXT ( 3 ) GLOBAL_UNCERTAINTY_ASSIGNED_CONTEXT ( ( #184 ) ) GLOBAL_UNIT_ASSIGNED_CONTEXT ( ( #308, #81, #414 ) ) REPRESENTATION_CONTEXT ( 'NONE', 'WORKASPACE' ) );
#127 = EDGE_CURVE ( 'NONE', #179, #304, #92, .T. ) ;
#128 = FACE_OUTER_BOUND ( 'NONE', #204, .T. ) ;
#129 = CARTESIAN_POINT ( 'NONE',  ( 0.000000000000000000, 20.00000000000000000, 0.000000000000000000 ) ) ;
#130 = AXIS2_PLACEMENT_3D ( 'NONE', #593, #65, #28 ) ;
#131 = DIRECTION ( 'NONE',  ( 0.000000000000000000, 0.000000000000000000, 1.000000000000000000 ) ) ;
#132 = PRODUCT_CONTEXT ( 'NONE', #424, 'mechanical' ) ;
#133 = ADVANCED_FACE ( 'NONE', ( #161, #493, #382, #533, #489 ), #263, .T. ) ;
#134 = EDGE_LOOP ( 'NONE', ( #272, #242 ) ) ;
#135 = CARTESIAN_POINT ( 'NONE',  ( -81.98000000000003240, 20.00000000000000000, -37.35999999999979337 ) ) ;
#136 = CARTESIAN_POINT ( 'NONE',  ( -101.1800000000000352, -20.00000000000000000, -51.75999999999979195 ) ) ;
#137 = CARTESIAN_POINT ( 'NONE',  ( -110.0000000000000000, 20.00000000000000000, 1.765668306999740290E-13 ) ) ;
#138 = DIRECTION ( 'NONE',  ( -0.000000000000000000, 1.000000000000000000, -0.000000000000000000 ) ) ;
#139 = ORIENTED_EDGE ( 'NONE', *, *, #432, .F. ) ;
#140 = CARTESIAN_POINT ( 'NONE',  ( 4.315089768535240289, -20.00000000000000000, 5.434539130434930421 ) ) ;
#141 = CIRCLE ( 'NONE', #116, 1.500000000000001332 ) ;
#142 = ORIENTED_EDGE ( 'NONE', *, *, #22, .T. ) ;
#143 = SURFACE_STYLE_FILL_AREA ( #321 ) ;
#144 = DIRECTION ( 'NONE',  ( 0.000000000000000000, 1.000000000000000000, -0.000000000000000000 ) ) ;
#145 = EDGE_LOOP ( 'NONE', ( #4, #469, #459, #292 ) ) ;
#146 = CARTESIAN_POINT ( 'NONE',  ( -80.00000000000001421, 20.00000000000000000, -39.99999999999982947 ) ) ;
#147 = ORIENTED_EDGE ( 'NONE', *, *, #122, .T. ) ;
#148 = LINE ( 'NONE', #191, #86 ) ;
#149 = ORIENTED_EDGE ( 'NONE', *, *, #513, .T. ) ;
#150 = VECTOR ( 'NONE', #463, 1000.000000000000000 ) ;
#151 = CIRCLE ( 'NONE', #569, 1.500000000000001332 ) ;
#152 = ORIENTED_EDGE ( 'NONE', *, *, #312, .T. ) ;
#153 = ORIENTED_EDGE ( 'NONE', *, *, #433, .F. ) ;
#154 = DIRECTION ( 'NONE',  ( -0.000000000000000000, 1.000000000000000000, -0.000000000000000000 ) ) ;
#155 = ORIENTED_EDGE ( 'NONE', *, *, #299, .F. ) ;
#156 = ORIENTED_EDGE ( 'NONE', *, *, #379, .T. ) ;
#157 = ORIENTED_EDGE ( 'NONE', *, *, #172, .T. ) ;
#158 = ORIENTED_EDGE ( 'NONE', *, *, #361, .T. ) ;
#159 = LINE ( 'NONE', #76, #395 ) ;
#160 = PLANE ( 'NONE',  #250 ) ;
#161 = FACE_OUTER_BOUND ( 'NONE', #371, .T. ) ;
#162 = EDGE_LOOP ( 'NONE', ( #331, #473, #45, #289 ) ) ;
#163 = CARTESIAN_POINT ( 'NONE',  ( 7.000000000000004441, -20.00000000000000355, -38.49999999999982947 ) ) ;
#164 = DIRECTION ( 'NONE',  ( 0.000000000000000000, 0.000000000000000000, -1.000000000000000000 ) ) ;
#165 = LINE ( 'NONE', #340, #260 ) ;
#166 = DIRECTION ( 'NONE',  ( 0.8000000000000002665, 0.000000000000000000, 0.5999999999999997558 ) ) ;
#167 = AXIS2_PLACEMENT_3D ( 'NONE', #214, #119, #300 ) ;
#168 = AXIS2_PLACEMENT_3D ( 'NONE', #436, #531, #66 ) ;
#169 = DIRECTION ( 'NONE',  ( 0.000000000000000000, 1.000000000000000000, 0.000000000000000000 ) ) ;
#170 = CARTESIAN_POINT ( 'NONE',  ( 77.50000000000002842, 20.00000000000000000, -33.99999999999980815 ) ) ;
#171 = DIRECTION ( 'NONE',  ( 0.000000000000000000, -1.000000000000000000, 0.000000000000000000 ) ) ;
#172 = EDGE_CURVE ( 'NONE', #521, #349, #148, .T. ) ;
#173 = CARTESIAN_POINT ( 'NONE',  ( -7.000000000000004441, -15.00000000000000355, -35.49999999999982236 ) ) ;
#174 = CARTESIAN_POINT ( 'NONE',  ( 52.00000000000000711, -20.00000000000000355, -35.42748412481744680 ) ) ;
#175 = ADVANCED_FACE ( 'NONE', ( #5 ), #435, .T. ) ;
#176 = ORIENTED_EDGE ( 'NONE', *, *, #416, .F. ) ;
#177 = CARTESIAN_POINT ( 'NONE',  ( 52.00000000000000711, -20.00000000000000355, -36.99999999999982236 ) ) ;
#178 = SHAPE_DEFINITION_REPRESENTATION ( #16, #257 ) ;
#179 = VERTEX_POINT ( 'NONE', #68 ) ;
#180 = AXIS2_PLACEMENT_3D ( 'NONE', #583, #537, #113 ) ;
#181 = DIRECTION ( 'NONE',  ( -0.000000000000000000, 1.000000000000000000, -0.000000000000000000 ) ) ;
#182 = APPLICATION_PROTOCOL_DEFINITION ( 'draft international standard', 'automotive_design', 1998, #273 ) ;
#183 = PLANE ( 'NONE',  #490 ) ;
#184 = UNCERTAINTY_MEASURE_WITH_UNIT (LENGTH_MEASURE( 1.000000000000000082E-05 ), #308, 'distance_accuracy_value', 'NONE');
#185 = ORIENTED_EDGE ( 'NONE', *, *, #470, .F. ) ;
#186 = EDGE_CURVE ( 'NONE', #97, #328, #102, .T. ) ;
#187 = DIRECTION ( 'NONE',  ( -0.000000000000000000, 1.000000000000000000, -0.000000000000000000 ) ) ;
#188 = AXIS2_PLACEMENT_3D ( 'NONE', #456, #138, #458 ) ;
#189 = ORIENTED_EDGE ( 'NONE', *, *, #341, .T. ) ;
#190 = ADVANCED_FACE ( 'NONE', ( #443 ), #345, .F. ) ;
#191 = CARTESIAN_POINT ( 'NONE',  ( -80.00000000000001421, 20.00000000000000000, -39.99999999999982947 ) ) ;
#192 = DIRECTION ( 'NONE',  ( -0.8000000000000002665, 0.000000000000000000, -0.5999999999999997558 ) ) ;
#193 = ORIENTED_EDGE ( 'NONE', *, *, #573, .T. ) ;
#194 = ORIENTED_EDGE ( 'NONE', *, *, #117, .T. ) ;
#195 = ORIENTED_EDGE ( 'NONE', *, *, #563, .F. ) ;
#196 = EDGE_LOOP ( 'NONE', ( #553, #467, #429, #142 ) ) ;
#197 = EDGE_LOOP ( 'NONE', ( #88, #158, #607, #95 ) ) ;
#198 = ORIENTED_EDGE ( 'NONE', *, *, #595, .T. ) ;
#199 = ORIENTED_EDGE ( 'NONE', *, *, #311, .F. ) ;
#200 = EDGE_LOOP ( 'NONE', ( #264, #194 ) ) ;
#201 = DIRECTION ( 'NONE',  ( 0.000000000000000000, 0.000000000000000000, -1.000000000000000000 ) ) ;
#202 = ORIENTED_EDGE ( 'NONE', *, *, #353, .F. ) ;
#203 = VECTOR ( 'NONE', #499, 1000.000000000000000 ) ;
#204 = EDGE_LOOP ( 'NONE', ( #570, #248, #152, #153 ) ) ;
#205 = EDGE_CURVE ( 'NONE', #474, #425, #14, .T. ) ;
#206 = VERTEX_POINT ( 'NONE', #216 ) ;
#207 = CARTESIAN_POINT ( 'NONE',  ( 7.000000000000004441, -20.00000000000000355, -38.49999999999982947 ) ) ;
#208 = CARTESIAN_POINT ( 'NONE',  ( 53.98000000000006082, -20.00000000000000000, -33.99999999999980815 ) ) ;
#209 = AXIS2_PLACEMENT_3D ( 'NONE', #129, #26, #164 ) ;
#210 = VECTOR ( 'NONE', #181, 1000.000000000000000 ) ;
#211 = CARTESIAN_POINT ( 'NONE',  ( -57.00000000000000711, -20.00000000000000355, -35.49999999999982236 ) ) ;
#212 = ADVANCED_FACE ( 'NONE', ( #393 ), #544, .F. ) ;
#213 = CARTESIAN_POINT ( 'NONE',  ( -57.00000000000000711, -20.00000000000000355, -36.99999999999981526 ) ) ;
#214 = CARTESIAN_POINT ( 'NONE',  ( 7.000000000000004441, -20.00000000000000355, -36.99999999999982236 ) ) ;
#215 = DIRECTION ( 'NONE',  ( 0.000000000000000000, 0.000000000000000000, 1.000000000000000000 ) ) ;
#216 = CARTESIAN_POINT ( 'NONE',  ( -81.98000000000004661, 20.00000000000000000, -37.35999999999980048 ) ) ;
#217 = LINE ( 'NONE', #440, #484 ) ;
#218 = EDGE_CURVE ( 'NONE', #521, #8, #224, .T. ) ;
#219 = LINE ( 'NONE', #17, #306 ) ;
#220 = CARTESIAN_POINT ( 'NONE',  ( -7.000000000000004441, -20.00000000000000355, -36.99999999999982236 ) ) ;
#221 = DIRECTION ( 'NONE',  ( 0.000000000000000000, 0.000000000000000000, 1.000000000000000000 ) ) ;
#222 = LINE ( 'NONE', #437, #557 ) ;
#223 = AXIS2_PLACEMENT_3D ( 'NONE', #530, #104, #290 ) ;
#224 = LINE ( 'NONE', #294, #509 ) ;
#225 = CARTESIAN_POINT ( 'NONE',  ( 52.00000000000000711, -20.00000000000000355, -36.99999999999982236 ) ) ;
#226 = EDGE_CURVE ( 'NONE', #251, #378, #18, .T. ) ;
#227 = CARTESIAN_POINT ( 'NONE',  ( -77.50000000000002842, -20.00000000000000000, -33.99999999999980105 ) ) ;
#228 = DIRECTION ( 'NONE',  ( 1.000000000000000000, 0.000000000000000000, 0.000000000000000000 ) ) ;
#229 = EDGE_CURVE ( 'NONE', #425, #525, #159, .T. ) ;
#230 = CARTESIAN_POINT ( 'NONE',  ( 7.000000000000004441, -15.00000000000000355, -38.49999999999982947 ) ) ;
#231 = AXIS2_PLACEMENT_3D ( 'NONE', #495, #447, #72 ) ;
#232 = VECTOR ( 'NONE', #237, 999.9999999999998863 ) ;
#233 = DIRECTION ( 'NONE',  ( -0.6218314452338079557, 0.000000000000000000, -0.7831511052909481130 ) ) ;
#234 = ORIENTED_EDGE ( 'NONE', *, *, #497, .F. ) ;
#235 = DIRECTION ( 'NONE',  ( 1.000000000000000000, -0.000000000000000000, 0.000000000000000000 ) ) ;
#236 = EDGE_LOOP ( 'NONE', ( #195, #10, #355, #368 ) ) ;
#237 = DIRECTION ( 'NONE',  ( 0.7831511052909481130, 0.000000000000000000, -0.6218314452338079557 ) ) ;
#238 = ORIENTED_EDGE ( 'NONE', *, *, #418, .T. ) ;
#239 = CIRCLE ( 'NONE', #274, 1.572515875182374456 ) ;
#240 = VERTEX_POINT ( 'NONE', #32 ) ;
#241 = PRODUCT_DEFINITION ( 'UNKNOWN', '', #111, #359 ) ;
#242 = ORIENTED_EDGE ( 'NONE', *, *, #573, .F. ) ;
#243 = DIRECTION ( 'NONE',  ( 0.5999999999999997558, 0.000000000000000000, -0.8000000000000002665 ) ) ;
#244 = VERTEX_POINT ( 'NONE', #397 ) ;
#245 = PLANE ( 'NONE',  #35 ) ;
#246 = CARTESIAN_POINT ( 'NONE',  ( -57.00000000000000711, -20.00000000000000355, -36.99999999999981526 ) ) ;
#247 = EDGE_CURVE ( 'NONE', #567, #314, #141, .T. ) ;
#248 = ORIENTED_EDGE ( 'NONE', *, *, #299, .T. ) ;
#249 = CIRCLE ( 'NONE', #268, 1.499999999999994449 ) ;
#250 = AXIS2_PLACEMENT_3D ( 'NONE', #170, #492, #256 ) ;
#251 = VERTEX_POINT ( 'NONE', #173 ) ;
#252 = CARTESIAN_POINT ( 'NONE',  ( -101.1800000000000352, -20.00000000000000000, -51.75999999999979195 ) ) ;
#253 = DIRECTION ( 'NONE',  ( 0.000000000000000000, 0.000000000000000000, 1.000000000000000000 ) ) ;
#254 = ORIENTED_EDGE ( 'NONE', *, *, #226, .F. ) ;
#255 = CARTESIAN_POINT ( 'NONE',  ( 52.00000000000000711, -20.00000000000000355, -36.99999999999982236 ) ) ;
#256 = DIRECTION ( 'NONE',  ( -1.000000000000000000, 0.000000000000000000, -0.000000000000000000 ) ) ;
#257 = ADVANCED_BREP_SHAPE_REPRESENTATION ( 'Frame Railing', ( #465, #12 ), #126 ) ;
#258 = DIRECTION ( 'NONE',  ( 0.000000000000000000, 1.000000000000000000, -0.000000000000000000 ) ) ;
#259 = PLANE ( 'NONE',  #58 ) ;
#260 = VECTOR ( 'NONE', #344, 1000.000000000000000 ) ;
#261 = CARTESIAN_POINT ( 'NONE',  ( 55.98000000000006082, 20.00000000000000000, -39.99999999999982947 ) ) ;
#262 = PRODUCT ( 'Frame Railing', 'Frame Railing', '', ( #132 ) ) ;
#263 = PLANE ( 'NONE',  #426 ) ;
#264 = ORIENTED_EDGE ( 'NONE', *, *, #127, .T. ) ;
#265 = DIRECTION ( 'NONE',  ( 1.000000000000000000, -0.000000000000000000, 0.000000000000000000 ) ) ;
#266 = FACE_OUTER_BOUND ( 'NONE', #420, .T. ) ;
#267 = EDGE_CURVE ( 'NONE', #360, #486, #475, .T. ) ;
#268 = AXIS2_PLACEMENT_3D ( 'NONE', #213, #118, #75 ) ;
#269 = DIRECTION ( 'NONE',  ( 0.000000000000000000, 1.000000000000000000, 0.000000000000000000 ) ) ;
#270 = DIRECTION ( 'NONE',  ( 0.000000000000000000, 0.000000000000000000, -1.000000000000000000 ) ) ;
#271 = CARTESIAN_POINT ( 'NONE',  ( 7.000000000000004441, -20.00000000000000355, -36.99999999999982236 ) ) ;
#272 = ORIENTED_EDGE ( 'NONE', *, *, #418, .F. ) ;
#273 = APPLICATION_CONTEXT ( 'automotive_design' ) ;
#274 = AXIS2_PLACEMENT_3D ( 'NONE', #115, #442, #446 ) ;
#275 =( GEOMETRIC_REPRESENTATION_CONTEXT ( 3 ) GLOBAL_UNCERTAINTY_ASSIGNED_CONTEXT ( ( #408 ) ) GLOBAL_UNIT_ASSIGNED_CONTEXT ( ( #431, #427, #522 ) ) REPRESENTATION_CONTEXT ( 'NONE', 'WORKASPACE' ) );
#276 = CARTESIAN_POINT ( 'NONE',  ( 55.98000000000006082, 20.00000000000000711, -35.58802417830391818 ) ) ;
#277 = LINE ( 'NONE', #276, #150 ) ;
#278 = ORIENTED_EDGE ( 'NONE', *, *, #312, .F. ) ;
#279 = DIRECTION ( 'NONE',  ( -1.000000000000000000, -0.000000000000000000, -0.000000000000000000 ) ) ;
#280 = AXIS2_PLACEMENT_3D ( 'NONE', #69, #33, #221 ) ;
#281 = CARTESIAN_POINT ( 'NONE',  ( 7.000000000000004441, -20.00000000000000355, -36.99999999999982236 ) ) ;
#282 = ORIENTED_EDGE ( 'NONE', *, *, #598, .T. ) ;
#283 = ORIENTED_EDGE ( 'NONE', *, *, #338, .F. ) ;
#284 = VERTEX_POINT ( 'NONE', #123 ) ;
#285 = CARTESIAN_POINT ( 'NONE',  ( 55.98000000000006082, 20.00000000000000711, -35.58802417830391818 ) ) ;
#286 = CYLINDRICAL_SURFACE ( 'NONE', #87, 1.499999999999994449 ) ;
#287 = ORIENTED_EDGE ( 'NONE', *, *, #559, .F. ) ;
#288 = AXIS2_PLACEMENT_3D ( 'NONE', #21, #13, #201 ) ;
#289 = ORIENTED_EDGE ( 'NONE', *, *, #388, .T. ) ;
#290 = DIRECTION ( 'NONE',  ( 0.000000000000000000, 0.000000000000000000, 1.000000000000000000 ) ) ;
#291 = LINE ( 'NONE', #36, #203 ) ;
#292 = ORIENTED_EDGE ( 'NONE', *, *, #416, .T. ) ;
#293 = DIRECTION ( 'NONE',  ( 0.000000000000000000, 0.000000000000000000, -1.000000000000000000 ) ) ;
#294 = CARTESIAN_POINT ( 'NONE',  ( 55.98000000000006082, 20.00000000000000000, -39.99999999999982947 ) ) ;
#295 = DIRECTION ( 'NONE',  ( 0.000000000000000000, 1.000000000000000000, 0.000000000000000000 ) ) ;
#296 = DIRECTION ( 'NONE',  ( 0.000000000000000000, 0.000000000000000000, 1.000000000000000000 ) ) ;
#297 = CARTESIAN_POINT ( 'NONE',  ( -7.000000000000004441, -15.00000000000000355, -36.99999999999982236 ) ) ;
#298 = VECTOR ( 'NONE', #451, 1000.000000000000000 ) ;
#299 = EDGE_CURVE ( 'NONE', #524, #328, #482, .T. ) ;
#300 = DIRECTION ( 'NONE',  ( 0.000000000000000000, 0.000000000000000000, 1.000000000000000000 ) ) ;
#301 = DIRECTION ( 'NONE',  ( 0.000000000000000000, 1.000000000000000000, 0.000000000000000000 ) ) ;
#302 = CARTESIAN_POINT ( 'NONE',  ( -77.50000000000002842, 20.00000000000000000, -33.99999999999980815 ) ) ;
#303 = DIRECTION ( 'NONE',  ( 0.000000000000000000, -0.000000000000000000, 1.000000000000000000 ) ) ;
#304 = VERTEX_POINT ( 'NONE', #339 ) ;
#305 = CARTESIAN_POINT ( 'NONE',  ( 52.00000000000000711, -15.00000000000000355, -36.99999999999982236 ) ) ;
#306 = VECTOR ( 'NONE', #166, 1000.000000000000000 ) ;
#307 = LINE ( 'NONE', #137, #601 ) ;
#308 =( LENGTH_UNIT ( ) NAMED_UNIT ( * ) SI_UNIT ( .MILLI., .METRE. ) );
#309 = DIRECTION ( 'NONE',  ( -0.7831511052909481130, 0.000000000000000000, 0.6218314452338079557 ) ) ;
#310 = ORIENTED_EDGE ( 'NONE', *, *, #319, .T. ) ;
#311 = EDGE_CURVE ( 'NONE', #314, #251, #439, .T. ) ;
#312 = EDGE_CURVE ( 'NONE', #328, #97, #438, .T. ) ;
#313 = LINE ( 'NONE', #136, #608 ) ;
#314 = VERTEX_POINT ( 'NONE', #554 ) ;
#315 = CIRCLE ( 'NONE', #405, 1.500000000000001332 ) ;
#316 = CIRCLE ( 'NONE', #461, 2.000000000000001776 ) ;
#317 = CARTESIAN_POINT ( 'NONE',  ( -110.0000000000000000, -20.00000000000000000, 1.765668306999740290E-13 ) ) ;
#318 = ORIENTED_EDGE ( 'NONE', *, *, #432, .T. ) ;
#319 = EDGE_CURVE ( 'NONE', #57, #206, #307, .T. ) ;
#320 = CYLINDRICAL_SURFACE ( 'NONE', #20, 1.499999999999994449 ) ;
#321 = FILL_AREA_STYLE ('',( #370 ) ) ;
#322 = EDGE_LOOP ( 'NONE', ( #94, #565, #392, #337 ) ) ;
#323 = ORIENTED_EDGE ( 'NONE', *, *, #513, .F. ) ;
#324 = FACE_OUTER_BOUND ( 'NONE', #59, .T. ) ;
#325 = PLANE ( 'NONE',  #7 ) ;
#326 = AXIS2_PLACEMENT_3D ( 'NONE', #271, #187, #363 ) ;
#327 = ORIENTED_EDGE ( 'NONE', *, *, #229, .F. ) ;
#328 = VERTEX_POINT ( 'NONE', #230 ) ;
#329 = DIRECTION ( 'NONE',  ( 0.000000000000000000, 0.000000000000000000, 1.000000000000000000 ) ) ;
#330 = FACE_OUTER_BOUND ( 'NONE', #322, .T. ) ;
#331 = ORIENTED_EDGE ( 'NONE', *, *, #366, .F. ) ;
#332 = DIRECTION ( 'NONE',  ( 0.000000000000000000, 1.000000000000000000, 0.000000000000000000 ) ) ;
#333 = DIRECTION ( 'NONE',  ( 0.000000000000000000, 0.000000000000000000, 1.000000000000000000 ) ) ;
#334 = DIRECTION ( 'NONE',  ( 1.000000000000000000, 0.000000000000000000, -0.000000000000000000 ) ) ;
#335 = ORIENTED_EDGE ( 'NONE', *, *, #422, .T. ) ;
#336 = VECTOR ( 'NONE', #354, 1000.000000000000000 ) ;
#337 = ORIENTED_EDGE ( 'NONE', *, *, #361, .F. ) ;
#338 = EDGE_CURVE ( 'NONE', #244, #37, #606, .T. ) ;
#339 = CARTESIAN_POINT ( 'NONE',  ( -57.00000000000000711, -20.00000000000000355, -38.49999999999981526 ) ) ;
#340 = CARTESIAN_POINT ( 'NONE',  ( -7.000000000000004441, -20.00000000000000355, -38.49999999999982947 ) ) ;
#341 = EDGE_CURVE ( 'NONE', #512, #8, #277, .T. ) ;
#342 = FACE_OUTER_BOUND ( 'NONE', #197, .T. ) ;
#343 = CARTESIAN_POINT ( 'NONE',  ( -79.00000000000001421, 20.00000000000000000, -37.99999999999982236 ) ) ;
#344 = DIRECTION ( 'NONE',  ( -0.000000000000000000, 1.000000000000000000, -0.000000000000000000 ) ) ;
#345 = CYLINDRICAL_SURFACE ( 'NONE', #551, 1.572515875182374456 ) ;
#346 = PLANE ( 'NONE',  #49 ) ;
#347 = AXIS2_PLACEMENT_3D ( 'NONE', #343, #64, #100 ) ;
#348 = CIRCLE ( 'NONE', #375, 1.572515875182374456 ) ;
#349 = VERTEX_POINT ( 'NONE', #352 ) ;
#350 = DIRECTION ( 'NONE',  ( 0.000000000000000000, 0.000000000000000000, 1.000000000000000000 ) ) ;
#351 = CARTESIAN_POINT ( 'NONE',  ( 53.98000000000005372, 20.00000000000000711, -33.99999999999980105 ) ) ;
#352 = CARTESIAN_POINT ( 'NONE',  ( -79.00000000000001421, 20.00000000000000000, -39.99999999999982947 ) ) ;
#353 = EDGE_CURVE ( 'NONE', #37, #425, #313, .T. ) ;
#354 = DIRECTION ( 'NONE',  ( -0.000000000000000000, -1.000000000000000000, -0.000000000000000000 ) ) ;
#355 = ORIENTED_EDGE ( 'NONE', *, *, #205, .T. ) ;
#356 = CIRCLE ( 'NONE', #288, 2.000000000000001776 ) ;
#357 = CIRCLE ( 'NONE', #428, 1.500000000000001332 ) ;
#358 = FACE_OUTER_BOUND ( 'NONE', #562, .T. ) ;
#359 = PRODUCT_DEFINITION_CONTEXT ( 'detailed design', #273, 'design' ) ;
#360 = VERTEX_POINT ( 'NONE', #400 ) ;
#361 = EDGE_CURVE ( 'NONE', #521, #380, #44, .T. ) ;
#362 = CYLINDRICAL_SURFACE ( 'NONE', #326, 1.500000000000001332 ) ;
#363 = DIRECTION ( 'NONE',  ( 0.000000000000000000, 0.000000000000000000, 1.000000000000000000 ) ) ;
#364 = ADVANCED_FACE ( 'NONE', ( #596 ), #183, .F. ) ;
#365 = VECTOR ( 'NONE', #389, 1000.000000000000000 ) ;
#366 = EDGE_CURVE ( 'NONE', #8, #423, #407, .T. ) ;
#367 = EDGE_LOOP ( 'NONE', ( #576, #564, #523, #9 ) ) ;
#368 = ORIENTED_EDGE ( 'NONE', *, *, #229, .T. ) ;
#369 = ORIENTED_EDGE ( 'NONE', *, *, #127, .F. ) ;
#370 = FILL_AREA_STYLE_COLOUR ( '', #93 ) ;
#371 = EDGE_LOOP ( 'NONE', ( #402, #327, #202, #283, #318, #185, #335 ) ) ;
#372 = ORIENTED_EDGE ( 'NONE', *, *, #529, .F. ) ;
#373 = AXIS2_PLACEMENT_3D ( 'NONE', #146, #253, #334 ) ;
#374 = SURFACE_STYLE_USAGE ( .BOTH. , #90 ) ;
#375 = AXIS2_PLACEMENT_3D ( 'NONE', #305, #269, #457 ) ;
#376 = ADVANCED_FACE ( 'NONE', ( #503 ), #46, .F. ) ;
#377 = ORIENTED_EDGE ( 'NONE', *, *, #122, .F. ) ;
#378 = VERTEX_POINT ( 'NONE', #462 ) ;
#379 = EDGE_CURVE ( 'NONE', #474, #512, #505, .T. ) ;
#380 = VERTEX_POINT ( 'NONE', #552 ) ;
#381 = ORIENTED_EDGE ( 'NONE', *, *, #497, .T. ) ;
#382 = FACE_BOUND ( 'NONE', #1, .T. ) ;
#383 = AXIS2_PLACEMENT_3D ( 'NONE', #391, #528, #387 ) ;
#384 = DIRECTION ( 'NONE',  ( -0.000000000000000000, 1.000000000000000000, -0.000000000000000000 ) ) ;
#385 = FACE_OUTER_BOUND ( 'NONE', #561, .T. ) ;
#386 = DIRECTION ( 'NONE',  ( -0.000000000000000000, 1.000000000000000000, -0.000000000000000000 ) ) ;
#387 = DIRECTION ( 'NONE',  ( 0.000000000000000000, 0.000000000000000000, 1.000000000000000000 ) ) ;
#388 = EDGE_CURVE ( 'NONE', #525, #423, #410, .T. ) ;
#389 = DIRECTION ( 'NONE',  ( -0.000000000000000000, 1.000000000000000000, -0.000000000000000000 ) ) ;
#390 = LINE ( 'NONE', #411, #515 ) ;
#391 = CARTESIAN_POINT ( 'NONE',  ( -57.00000000000000711, -20.00000000000000355, -36.99999999999981526 ) ) ;
#392 = ORIENTED_EDGE ( 'NONE', *, *, #422, .F. ) ;
#393 = FACE_OUTER_BOUND ( 'NONE', #480, .T. ) ;
#394 = DIRECTION ( 'NONE',  ( -0.000000000000000000, -1.000000000000000000, -0.000000000000000000 ) ) ;
#395 = VECTOR ( 'NONE', #265, 1000.000000000000000 ) ;
#396 = VECTOR ( 'NONE', #468, 1000.000000000000000 ) ;
#397 = CARTESIAN_POINT ( 'NONE',  ( -80.60000000000002274, -20.00000000000000000, -39.19999999999982521 ) ) ;
#398 = DIRECTION ( 'NONE',  ( 0.000000000000000000, 0.000000000000000000, -1.000000000000000000 ) ) ;
#399 = VERTEX_POINT ( 'NONE', #80 ) ;
#400 = CARTESIAN_POINT ( 'NONE',  ( 52.00000000000000711, -15.00000000000000355, -38.57251587518219793 ) ) ;
#401 = CYLINDRICAL_SURFACE ( 'NONE', #188, 1.500000000000001332 ) ;
#402 = ORIENTED_EDGE ( 'NONE', *, *, #388, .F. ) ;
#403 = ADVANCED_FACE ( 'NONE', ( #128 ), #362, .F. ) ;
#404 = LINE ( 'NONE', #600, #210 ) ;
#405 = AXIS2_PLACEMENT_3D ( 'NONE', #577, #332, #476 ) ;
#406 = AXIS2_PLACEMENT_3D ( 'NONE', #507, #42, #131 ) ;
#407 = LINE ( 'NONE', #605, #336 ) ;
#408 = UNCERTAINTY_MEASURE_WITH_UNIT (LENGTH_MEASURE( 1.000000000000000082E-05 ), #431, 'distance_accuracy_value', 'NONE');
#409 = ORIENTED_EDGE ( 'NONE', *, *, #117, .F. ) ;
#410 = LINE ( 'NONE', #140, #232 ) ;
#411 = CARTESIAN_POINT ( 'NONE',  ( 52.00000000000000711, -20.00000000000000355, -38.57251587518219793 ) ) ;
#412 = CYLINDRICAL_SURFACE ( 'NONE', #347, 2.000000000000001776 ) ;
#413 = DIRECTION ( 'NONE',  ( -0.5999999999999997558, -0.000000000000000000, 0.8000000000000001554 ) ) ;
#414 =( NAMED_UNIT ( * ) SI_UNIT ( $, .STERADIAN. ) SOLID_ANGLE_UNIT ( ) );
#415 = ORIENTED_EDGE ( 'NONE', *, *, #22, .F. ) ;
#416 = EDGE_CURVE ( 'NONE', #486, #360, #348, .T. ) ;
#417 = ORIENTED_EDGE ( 'NONE', *, *, #218, .F. ) ;
#418 = EDGE_CURVE ( 'NONE', #91, #106, #71, .T. ) ;
#419 = FACE_OUTER_BOUND ( 'NONE', #367, .T. ) ;
#420 = EDGE_LOOP ( 'NONE', ( #323, #234, #556, #500 ) ) ;
#421 = EDGE_LOOP ( 'NONE', ( #381, #502 ) ) ;
#422 = EDGE_CURVE ( 'NONE', #380, #423, #41, .T. ) ;
#423 = VERTEX_POINT ( 'NONE', #38 ) ;
#424 = APPLICATION_CONTEXT ( 'automotive_design' ) ;
#425 = VERTEX_POINT ( 'NONE', #227 ) ;
#426 = AXIS2_PLACEMENT_3D ( 'NONE', #30, #587, #293 ) ;
#427 =( NAMED_UNIT ( * ) PLANE_ANGLE_UNIT ( ) SI_UNIT ( $, .RADIAN. ) );
#428 = AXIS2_PLACEMENT_3D ( 'NONE', #448, #114, #581 ) ;
#429 = ORIENTED_EDGE ( 'NONE', *, *, #319, .F. ) ;
#430 = ORIENTED_EDGE ( 'NONE', *, *, #572, .F. ) ;
#431 =( LENGTH_UNIT ( ) NAMED_UNIT ( * ) SI_UNIT ( .MILLI., .METRE. ) );
#432 = EDGE_CURVE ( 'NONE', #244, #240, #316, .T. ) ;
#433 = EDGE_CURVE ( 'NONE', #60, #97, #404, .T. ) ;
#434 = DIRECTION ( 'NONE',  ( 0.8000000000000001554, -0.000000000000000000, 0.5999999999999997558 ) ) ;
#435 = PLANE ( 'NONE',  #130 ) ;
#436 = CARTESIAN_POINT ( 'NONE',  ( 52.00000000000000711, -15.00000000000000355, -36.99999999999982236 ) ) ;
#437 = CARTESIAN_POINT ( 'NONE',  ( -80.60000000000002274, 20.00000000000000000, -39.19999999999982521 ) ) ;
#438 = CIRCLE ( 'NONE', #180, 1.500000000000001332 ) ;
#439 = LINE ( 'NONE', #534, #365 ) ;
#440 = CARTESIAN_POINT ( 'NONE',  ( 53.98000000000005372, 20.00000000000000711, -33.99999999999980105 ) ) ;
#441 = DIRECTION ( 'NONE',  ( 0.000000000000000000, 1.000000000000000000, -0.000000000000000000 ) ) ;
#442 = DIRECTION ( 'NONE',  ( 0.000000000000000000, 1.000000000000000000, 0.000000000000000000 ) ) ;
#443 = FACE_OUTER_BOUND ( 'NONE', #103, .T. ) ;
#444 = CYLINDRICAL_SURFACE ( 'NONE', #280, 1.500000000000001332 ) ;
#445 = CIRCLE ( 'NONE', #3, 1.499999999999994449 ) ;
#446 = DIRECTION ( 'NONE',  ( 0.000000000000000000, 0.000000000000000000, 1.000000000000000000 ) ) ;
#447 = DIRECTION ( 'NONE',  ( 0.000000000000000000, 1.000000000000000000, 0.000000000000000000 ) ) ;
#448 = CARTESIAN_POINT ( 'NONE',  ( -7.000000000000004441, -20.00000000000000355, -36.99999999999982236 ) ) ;
#449 = AXIS2_PLACEMENT_3D ( 'NONE', #591, #258, #498 ) ;
#450 = LINE ( 'NONE', #211, #579 ) ;
#451 = DIRECTION ( 'NONE',  ( -0.000000000000000000, -0.000000000000000000, 1.000000000000000000 ) ) ;
#452 = DIRECTION ( 'NONE',  ( 0.000000000000000000, 0.000000000000000000, 1.000000000000000000 ) ) ;
#453 = VECTOR ( 'NONE', #73, 1000.000000000000000 ) ;
#454 = ADVANCED_FACE ( 'NONE', ( #358 ), #286, .F. ) ;
#455 = DIRECTION ( 'NONE',  ( -0.000000000000000000, -1.000000000000000000, -0.000000000000000000 ) ) ;
#456 = CARTESIAN_POINT ( 'NONE',  ( -7.000000000000004441, -20.00000000000000355, -36.99999999999982236 ) ) ;
#457 = DIRECTION ( 'NONE',  ( 0.000000000000000000, 0.000000000000000000, 1.000000000000000000 ) ) ;
#458 = DIRECTION ( 'NONE',  ( 0.000000000000000000, 0.000000000000000000, 1.000000000000000000 ) ) ;
#459 = ORIENTED_EDGE ( 'NONE', *, *, #572, .T. ) ;
#460 = VECTOR ( 'NONE', #235, 1000.000000000000000 ) ;
#461 = AXIS2_PLACEMENT_3D ( 'NONE', #82, #455, #270 ) ;
#462 = CARTESIAN_POINT ( 'NONE',  ( -7.000000000000004441, -15.00000000000000355, -38.49999999999982947 ) ) ;
#463 = DIRECTION ( 'NONE',  ( 0.7831511052909481130, -0.000000000000000000, -0.6218314452338080667 ) ) ;
#464 = ORIENTED_EDGE ( 'NONE', *, *, #186, .F. ) ;
#465 = MANIFOLD_SOLID_BREP ( 'Cut-Extrude4', #6 ) ;
#466 = VECTOR ( 'NONE', #580, 1000.000000000000000 ) ;
#467 = ORIENTED_EDGE ( 'NONE', *, *, #67, .T. ) ;
#468 = DIRECTION ( 'NONE',  ( -1.000000000000000000, -0.000000000000000000, -0.000000000000000000 ) ) ;
#469 = ORIENTED_EDGE ( 'NONE', *, *, #27, .F. ) ;
#470 = EDGE_CURVE ( 'NONE', #380, #240, #575, .T. ) ;
#471 = CARTESIAN_POINT ( 'NONE',  ( 52.00000000000000711, -15.00000000000000355, -35.42748412481744680 ) ) ;
#472 = EDGE_LOOP ( 'NONE', ( #156, #189, #417, #157, #63, #310, #517 ) ) ;
#473 = ORIENTED_EDGE ( 'NONE', *, *, #341, .F. ) ;
#474 = VERTEX_POINT ( 'NONE', #477 ) ;
#475 = CIRCLE ( 'NONE', #223, 1.572515875182374456 ) ;
#476 = DIRECTION ( 'NONE',  ( 0.000000000000000000, 0.000000000000000000, 1.000000000000000000 ) ) ;
#477 = CARTESIAN_POINT ( 'NONE',  ( -77.50000000000004263, 20.00000000000000000, -33.99999999999980815 ) ) ;
#478 = ORIENTED_EDGE ( 'NONE', *, *, #61, .T. ) ;
#479 = EDGE_CURVE ( 'NONE', #524, #60, #151, .T. ) ;
#480 = EDGE_LOOP ( 'NONE', ( #155, #372, #481, #514 ) ) ;
#481 = ORIENTED_EDGE ( 'NONE', *, *, #433, .T. ) ;
#482 = LINE ( 'NONE', #207, #588 ) ;
#483 = DIRECTION ( 'NONE',  ( -1.000000000000000000, 0.000000000000000000, 0.000000000000000000 ) ) ;
#484 = VECTOR ( 'NONE', #394, 1000.000000000000000 ) ;
#485 = ADVANCED_FACE ( 'NONE', ( #419 ), #325, .F. ) ;
#486 = VERTEX_POINT ( 'NONE', #471 ) ;
#487 = FACE_OUTER_BOUND ( 'NONE', #526, .T. ) ;
#488 = ADVANCED_FACE ( 'NONE', ( #560 ), #320, .F. ) ;
#489 = FACE_BOUND ( 'NONE', #200, .T. ) ;
#490 = AXIS2_PLACEMENT_3D ( 'NONE', #501, #233, #309 ) ;
#491 = AXIS2_PLACEMENT_3D ( 'NONE', #177, #550, #604 ) ;
#492 = DIRECTION ( 'NONE',  ( 0.000000000000000000, 0.000000000000000000, -1.000000000000000000 ) ) ;
#493 = FACE_BOUND ( 'NONE', #54, .T. ) ;
#494 = ADVANCED_FACE ( 'NONE', ( #330 ), #101, .F. ) ;
#495 = CARTESIAN_POINT ( 'NONE',  ( -7.000000000000004441, -15.00000000000000355, -36.99999999999982236 ) ) ;
#496 = LINE ( 'NONE', #29, #453 ) ;
#497 = EDGE_CURVE ( 'NONE', #314, #567, #357, .T. ) ;
#498 = DIRECTION ( 'NONE',  ( 0.000000000000000000, 0.000000000000000000, -1.000000000000000000 ) ) ;
#499 = DIRECTION ( 'NONE',  ( -0.000000000000000000, 1.000000000000000000, -0.000000000000000000 ) ) ;
#500 = ORIENTED_EDGE ( 'NONE', *, *, #226, .T. ) ;
#501 = CARTESIAN_POINT ( 'NONE',  ( 55.98000000000006082, 20.00000000000000711, -35.58802417830391818 ) ) ;
#502 = ORIENTED_EDGE ( 'NONE', *, *, #247, .T. ) ;
#503 = FACE_OUTER_BOUND ( 'NONE', #145, .T. ) ;
#504 = DIRECTION ( 'NONE',  ( 0.000000000000000000, 1.000000000000000000, 0.000000000000000000 ) ) ;
#505 = LINE ( 'NONE', #547, #460 ) ;
#506 = ADVANCED_FACE ( 'NONE', ( #487 ), #586, .F. ) ;
#507 = CARTESIAN_POINT ( 'NONE',  ( -57.00000000000000711, -15.00000000000000355, -36.99999999999981526 ) ) ;
#508 = CARTESIAN_POINT ( 'NONE',  ( 0.000000000000000000, 0.000000000000000000, 0.000000000000000000 ) ) ;
#509 = VECTOR ( 'NONE', #78, 1000.000000000000000 ) ;
#510 = AXIS2_PLACEMENT_3D ( 'NONE', #79, #441, #398 ) ;
#511 = DIRECTION ( 'NONE',  ( -0.5999999999999997558, -0.000000000000000000, 0.8000000000000001554 ) ) ;
#512 = VERTEX_POINT ( 'NONE', #351 ) ;
#513 = EDGE_CURVE ( 'NONE', #567, #378, #165, .T. ) ;
#514 = ORIENTED_EDGE ( 'NONE', *, *, #186, .T. ) ;
#515 = VECTOR ( 'NONE', #602, 1000.000000000000000 ) ;
#516 = DIRECTION ( 'NONE',  ( -0.000000000000000000, 1.000000000000000000, -0.000000000000000000 ) ) ;
#517 = ORIENTED_EDGE ( 'NONE', *, *, #34, .T. ) ;
#518 = ADVANCED_FACE ( 'NONE', ( #385 ), #259, .F. ) ;
#519 = PRODUCT_RELATED_PRODUCT_CATEGORY ( 'part', '', ( #262 ) ) ;
#520 = AXIS2_PLACEMENT_3D ( 'NONE', #538, #483, #120 ) ;
#521 = VERTEX_POINT ( 'NONE', #261 ) ;
#522 =( NAMED_UNIT ( * ) SI_UNIT ( $, .STERADIAN. ) SOLID_ANGLE_UNIT ( ) );
#523 = ORIENTED_EDGE ( 'NONE', *, *, #353, .T. ) ;
#524 = VERTEX_POINT ( 'NONE', #163 ) ;
#525 = VERTEX_POINT ( 'NONE', #208 ) ;
#526 = EDGE_LOOP ( 'NONE', ( #176, #578 ) ) ;
#527 = VECTOR ( 'NONE', #89, 1000.000000000000000 ) ;
#528 = DIRECTION ( 'NONE',  ( 0.000000000000000000, 1.000000000000000000, 0.000000000000000000 ) ) ;
#529 = EDGE_CURVE ( 'NONE', #60, #524, #603, .T. ) ;
#530 = CARTESIAN_POINT ( 'NONE',  ( 52.00000000000000711, -15.00000000000000355, -36.99999999999982236 ) ) ;
#531 = DIRECTION ( 'NONE',  ( 0.000000000000000000, 1.000000000000000000, 0.000000000000000000 ) ) ;
#532 = ORIENTED_EDGE ( 'NONE', *, *, #595, .F. ) ;
#533 = FACE_BOUND ( 'NONE', #421, .T. ) ;
#534 = CARTESIAN_POINT ( 'NONE',  ( -7.000000000000004441, -20.00000000000000355, -35.49999999999982236 ) ) ;
#535 = FACE_OUTER_BOUND ( 'NONE', #236, .T. ) ;
#536 = PLANE ( 'NONE',  #373 ) ;
#537 = DIRECTION ( 'NONE',  ( 0.000000000000000000, 1.000000000000000000, -0.000000000000000000 ) ) ;
#538 = CARTESIAN_POINT ( 'NONE',  ( 55.98000000000006082, -20.00000000000000355, -39.99999999999982947 ) ) ;
#539 = FACE_OUTER_BOUND ( 'NONE', #472, .T. ) ;
#540 = CARTESIAN_POINT ( 'NONE',  ( -57.00000000000000711, -15.00000000000000355, -38.49999999999981526 ) ) ;
#541 = PRESENTATION_LAYER_ASSIGNMENT (  '', '', ( #590 ) ) ;
#542 = DIRECTION ( 'NONE',  ( -0.000000000000000000, 1.000000000000000000, -0.000000000000000000 ) ) ;
#543 = CARTESIAN_POINT ( 'NONE',  ( -57.00000000000000711, -15.00000000000000355, -36.99999999999981526 ) ) ;
#544 = CYLINDRICAL_SURFACE ( 'NONE', #167, 1.500000000000001332 ) ;
#545 = FACE_OUTER_BOUND ( 'NONE', #134, .T. ) ;
#546 = CARTESIAN_POINT ( 'NONE',  ( -81.98000000000004661, -20.00000000000000000, -37.35999999999981469 ) ) ;
#547 = CARTESIAN_POINT ( 'NONE',  ( 0.000000000000000000, 20.00000000000000000, -33.99999999999980815 ) ) ;
#548 = CIRCLE ( 'NONE', #98, 1.572515875182374456 ) ;
#549 = ORIENTED_EDGE ( 'NONE', *, *, #84, .F. ) ;
#550 = DIRECTION ( 'NONE',  ( -0.000000000000000000, 1.000000000000000000, -0.000000000000000000 ) ) ;
#551 = AXIS2_PLACEMENT_3D ( 'NONE', #255, #542, #296 ) ;
#552 = CARTESIAN_POINT ( 'NONE',  ( 55.98000000000004661, -20.00000000000000000, -39.99999999999982947 ) ) ;
#553 = ORIENTED_EDGE ( 'NONE', *, *, #338, .T. ) ;
#554 = CARTESIAN_POINT ( 'NONE',  ( -7.000000000000004441, -20.00000000000000355, -35.49999999999982236 ) ) ;
#555 = CARTESIAN_POINT ( 'NONE',  ( 55.98000000000006082, -20.00000000000000355, -39.99999999999982947 ) ) ;
#556 = ORIENTED_EDGE ( 'NONE', *, *, #311, .T. ) ;
#557 = VECTOR ( 'NONE', #171, 1000.000000000000000 ) ;
#558 = ADVANCED_FACE ( 'NONE', ( #535 ), #160, .F. ) ;
#559 = EDGE_CURVE ( 'NONE', #240, #349, #496, .T. ) ;
#560 = FACE_OUTER_BOUND ( 'NONE', #589, .T. ) ;
#561 = EDGE_LOOP ( 'NONE', ( #254, #377 ) ) ;
#562 = EDGE_LOOP ( 'NONE', ( #96, #369, #478, #238 ) ) ;
#563 = EDGE_CURVE ( 'NONE', #512, #525, #217, .T. ) ;
#564 = ORIENTED_EDGE ( 'NONE', *, *, #67, .F. ) ;
#565 = ORIENTED_EDGE ( 'NONE', *, *, #366, .T. ) ;
#566 = PRESENTATION_STYLE_ASSIGNMENT (( #374 ) ) ;
#567 = VERTEX_POINT ( 'NONE', #109 ) ;
#568 = ADVANCED_FACE ( 'NONE', ( #545 ), #346, .F. ) ;
#569 = AXIS2_PLACEMENT_3D ( 'NONE', #281, #144, #53 ) ;
#570 = ORIENTED_EDGE ( 'NONE', *, *, #479, .F. ) ;
#571 = ORIENTED_EDGE ( 'NONE', *, *, #27, .T. ) ;
#572 = EDGE_CURVE ( 'NONE', #284, #486, #594, .T. ) ;
#573 = EDGE_CURVE ( 'NONE', #106, #91, #445, .T. ) ;
#574 = ORIENTED_EDGE ( 'NONE', *, *, #61, .F. ) ;
#575 = LINE ( 'NONE', #55, #396 ) ;
#576 = ORIENTED_EDGE ( 'NONE', *, *, #34, .F. ) ;
#577 = CARTESIAN_POINT ( 'NONE',  ( -7.000000000000004441, -15.00000000000000355, -36.99999999999982236 ) ) ;
#578 = ORIENTED_EDGE ( 'NONE', *, *, #267, .F. ) ;
#579 = VECTOR ( 'NONE', #386, 1000.000000000000000 ) ;
#580 = DIRECTION ( 'NONE',  ( -0.000000000000000000, -1.000000000000000000, -0.000000000000000000 ) ) ;
#581 = DIRECTION ( 'NONE',  ( 0.000000000000000000, 0.000000000000000000, 1.000000000000000000 ) ) ;
#582 = ORIENTED_EDGE ( 'NONE', *, *, #479, .T. ) ;
#583 = CARTESIAN_POINT ( 'NONE',  ( 7.000000000000004441, -15.00000000000000355, -36.99999999999982236 ) ) ;
#584 = DIRECTION ( 'NONE',  ( 0.000000000000000000, -0.000000000000000000, 1.000000000000000000 ) ) ;
#585 = EDGE_CURVE ( 'NONE', #304, #106, #291, .T. ) ;
#586 = PLANE ( 'NONE',  #168 ) ;
#587 = DIRECTION ( 'NONE',  ( 0.000000000000000000, -1.000000000000000000, -0.000000000000000000 ) ) ;
#588 = VECTOR ( 'NONE', #384, 1000.000000000000000 ) ;
#589 = EDGE_LOOP ( 'NONE', ( #409, #24, #193, #574 ) ) ;
#590 = STYLED_ITEM ( 'NONE', ( #566 ), #465 ) ;
#591 = CARTESIAN_POINT ( 'NONE',  ( 7.000000000000004441, -15.00000000000000355, -36.99999999999982236 ) ) ;
#592 = ADVANCED_FACE ( 'NONE', ( #266 ), #444, .F. ) ;
#593 = CARTESIAN_POINT ( 'NONE',  ( 7.000000000000004441, -15.00000000000000355, -36.99999999999982236 ) ) ;
#594 = LINE ( 'NONE', #174, #31 ) ;
#595 = EDGE_CURVE ( 'NONE', #399, #284, #548, .T. ) ;
#596 = FACE_OUTER_BOUND ( 'NONE', #162, .T. ) ;
#597 = EDGE_LOOP ( 'NONE', ( #464, #278 ) ) ;
#598 = EDGE_CURVE ( 'NONE', #399, #360, #390, .T. ) ;
#599 = ADVANCED_FACE ( 'NONE', ( #39 ), #401, .F. ) ;
#600 = CARTESIAN_POINT ( 'NONE',  ( 7.000000000000004441, -20.00000000000000355, -35.49999999999982236 ) ) ;
#601 = VECTOR ( 'NONE', #511, 1000.000000000000000 ) ;
#602 = DIRECTION ( 'NONE',  ( -0.000000000000000000, 1.000000000000000000, -0.000000000000000000 ) ) ;
#603 = CIRCLE ( 'NONE', #510, 1.500000000000001332 ) ;
#604 = DIRECTION ( 'NONE',  ( 0.000000000000000000, 0.000000000000000000, 1.000000000000000000 ) ) ;
#605 = CARTESIAN_POINT ( 'NONE',  ( 55.98000000000006082, 20.00000000000000711, -35.58802417830391818 ) ) ;
#606 = LINE ( 'NONE', #317, #70 ) ;
#607 = ORIENTED_EDGE ( 'NONE', *, *, #470, .T. ) ;
#608 = VECTOR ( 'NONE', #83, 1000.000000000000000 ) ;
ENDSEC;
END-ISO-10303-21;
