ISO-10303-21;
HEADER;
FILE_DESCRIPTION (( 'STEP AP214' ),
    '1' );
FILE_NAME ('Frame-Railing-Left.STEP',
    '2026-05-07T19:05:52',
    ( '' ),
    ( '' ),
    'SwSTEP 2.0',
    'SolidWorks 2026',
    '' );
FILE_SCHEMA (( 'AUTOMOTIVE_DESIGN' ));
ENDSEC;

DATA;
#1 = CARTESIAN_POINT ( 'NONE',  ( 77.00000000000001421, 17.49999999999999645, -46.99999999999982947 ) ) ;
#2 = VERTEX_POINT ( 'NONE', #552 ) ;
#3 = CARTESIAN_POINT ( 'NONE',  ( 7.000000000000005329, 17.49999999999999645, -46.99999999999982947 ) ) ;
#4 = EDGE_CURVE ( 'NONE', #576, #440, #782, .T. ) ;
#5 = PLANE ( 'NONE',  #384 ) ;
#6 = ORIENTED_EDGE ( 'NONE', *, *, #4, .F. ) ;
#7 = EDGE_CURVE ( 'NONE', #643, #780, #162, .T. ) ;
#8 = LINE ( 'NONE', #238, #454 ) ;
#9 = AXIS2_PLACEMENT_3D ( 'NONE', #768, #824, #197 ) ;
#10 = CARTESIAN_POINT ( 'NONE',  ( -7.000000000000005329, 22.50000000000000000, -45.49999999999982236 ) ) ;
#11 = VERTEX_POINT ( 'NONE', #218 ) ;
#12 = ADVANCED_FACE ( 'NONE', ( #45 ), #410, .F. ) ;
#13 = CARTESIAN_POINT ( 'NONE',  ( -103.7014288630928149, 17.49999999999999645, -12.99999999999981704 ) ) ;
#14 = AXIS2_PLACEMENT_3D ( 'NONE', #78, #71, #335 ) ;
#15 = DIRECTION ( 'NONE',  ( 0.000000000000000000, 1.000000000000000000, -0.000000000000000000 ) ) ;
#16 = PRODUCT_DEFINITION ( 'General', '', #239, #53 ) ;
#17 = ORIENTED_EDGE ( 'NONE', *, *, #654, .T. ) ;
#18 = DIRECTION ( 'NONE',  ( 0.000000000000000000, 1.000000000000000000, 0.000000000000000000 ) ) ;
#19 = DIRECTION ( 'NONE',  ( 0.000000000000000000, 1.000000000000000000, 0.000000000000000000 ) ) ;
#20 = ORIENTED_EDGE ( 'NONE', *, *, #554, .F. ) ;
#21 = DIRECTION ( 'NONE',  ( 0.000000000000000000, 0.000000000000000000, -1.000000000000000000 ) ) ;
#22 = LINE ( 'NONE', #135, #345 ) ;
#23 = CIRCLE ( 'NONE', #283, 1.499999999999994449 ) ;
#24 = ORIENTED_EDGE ( 'NONE', *, *, #271, .F. ) ;
#25 = DIRECTION ( 'NONE',  ( 0.000000000000000000, -1.000000000000000000, 0.000000000000000000 ) ) ;
#26 = VECTOR ( 'NONE', #102, 999.9999999999998863 ) ;
#27 = CARTESIAN_POINT ( 'NONE',  ( 7.000000000000005329, 17.49999999999999645, -45.49999999999982236 ) ) ;
#28 = VERTEX_POINT ( 'NONE', #415 ) ;
#29 = CARTESIAN_POINT ( 'NONE',  ( -85.58260509348697553, 22.50000000000000000, -49.02899151085488683 ) ) ;
#30 = DIRECTION ( 'NONE',  ( 0.000000000000000000, 0.000000000000000000, 1.000000000000000000 ) ) ;
#31 = VERTEX_POINT ( 'NONE', #617 ) ;
#32 = FACE_OUTER_BOUND ( 'NONE', #562, .T. ) ;
#33 = ORIENTED_EDGE ( 'NONE', *, *, #554, .T. ) ;
#34 = CARTESIAN_POINT ( 'NONE',  ( -75.93809621030942481, -22.50000000000000000, -43.99999999999980815 ) ) ;
#35 = EDGE_LOOP ( 'NONE', ( #726, #490, #37, #47 ) ) ;
#36 = ADVANCED_FACE ( 'NONE', ( #733 ), #107, .F. ) ;
#37 = ORIENTED_EDGE ( 'NONE', *, *, #382, .T. ) ;
#38 = ADVANCED_FACE ( 'NONE', ( #39 ), #291, .F. ) ;
#39 = FACE_OUTER_BOUND ( 'NONE', #219, .T. ) ;
#40 = SHAPE_DEFINITION_REPRESENTATION ( #390, #534 ) ;
#41 = FACE_OUTER_BOUND ( 'NONE', #709, .T. ) ;
#42 = ORIENTED_EDGE ( 'NONE', *, *, #704, .F. ) ;
#43 = CARTESIAN_POINT ( 'NONE',  ( 83.86761924206189178, 22.50000000000000000, -47.99999999999982947 ) ) ;
#44 = CARTESIAN_POINT ( 'NONE',  ( -77.00000000000001421, 17.49999999999999645, -46.99999999999982947 ) ) ;
#45 = FACE_OUTER_BOUND ( 'NONE', #655, .T. ) ;
#46 = AXIS2_PLACEMENT_3D ( 'NONE', #649, #19, #259 ) ;
#47 = ORIENTED_EDGE ( 'NONE', *, *, #4, .T. ) ;
#48 = LINE ( 'NONE', #688, #501 ) ;
#49 = FACE_OUTER_BOUND ( 'NONE', #76, .T. ) ;
#50 = CARTESIAN_POINT ( 'NONE',  ( -84.51302546743487198, -22.50000000000000000, -39.14495755427507362 ) ) ;
#51 = ORIENTED_EDGE ( 'NONE', *, *, #182, .F. ) ;
#52 = CARTESIAN_POINT ( 'NONE',  ( -7.000000000000005329, 17.49999999999999645, -46.99999999999982947 ) ) ;
#53 = PRODUCT_DEFINITION_CONTEXT ( 'detailed design', #701, 'design' ) ;
#54 = ORIENTED_EDGE ( 'NONE', *, *, #338, .F. ) ;
#55 = LINE ( 'NONE', #349, #445 ) ;
#56 = CIRCLE ( 'NONE', #509, 1.499999999999994449 ) ;
#57 = CARTESIAN_POINT ( 'NONE',  ( -83.86761924206189178, 22.50000000000000000, -47.99999999999982947 ) ) ;
#58 = APPLICATION_CONTEXT ( 'automotive_design' ) ;
#59 = CIRCLE ( 'NONE', #289, 2.000000000000001776 ) ;
#60 = ORIENTED_EDGE ( 'NONE', *, *, #818, .F. ) ;
#61 = DIRECTION ( 'NONE',  ( 0.000000000000000000, -1.000000000000000000, -0.000000000000000000 ) ) ;
#62 = FACE_OUTER_BOUND ( 'NONE', #480, .T. ) ;
#63 = ADVANCED_FACE ( 'NONE', ( #273 ), #342, .F. ) ;
#64 = ORIENTED_EDGE ( 'NONE', *, *, #170, .T. ) ;
#65 = FACE_OUTER_BOUND ( 'NONE', #542, .T. ) ;
#66 = LINE ( 'NONE', #314, #739 ) ;
#67 = ADVANCED_FACE ( 'NONE', ( #339 ), #735, .F. ) ;
#68 = ORIENTED_EDGE ( 'NONE', *, *, #650, .F. ) ;
#69 = FACE_OUTER_BOUND ( 'NONE', #35, .T. ) ;
#70 = VECTOR ( 'NONE', #77, 1000.000000000000000 ) ;
#71 = DIRECTION ( 'NONE',  ( 0.000000000000000000, 1.000000000000000000, -0.000000000000000000 ) ) ;
#72 = ORIENTED_EDGE ( 'NONE', *, *, #706, .F. ) ;
#73 = CARTESIAN_POINT ( 'NONE',  ( 7.000000000000005329, 22.50000000000000000, -45.49999999999982236 ) ) ;
#74 = AXIS2_PLACEMENT_3D ( 'NONE', #118, #757, #303 ) ;
#75 = CARTESIAN_POINT ( 'NONE',  ( -115.0000000000000142, -2.500000000000002220, 1.734723475976807094E-13 ) ) ;
#76 = EDGE_LOOP ( 'NONE', ( #109, #129 ) ) ;
#77 = DIRECTION ( 'NONE',  ( -0.000000000000000000, 1.000000000000000000, -0.000000000000000000 ) ) ;
#78 = CARTESIAN_POINT ( 'NONE',  ( 77.00000000000001421, 22.50000000000000000, -46.99999999999982947 ) ) ;
#79 = VERTEX_POINT ( 'NONE', #602 ) ;
#80 = DIRECTION ( 'NONE',  ( 0.000000000000000000, 0.000000000000000000, -1.000000000000000000 ) ) ;
#81 = DIRECTION ( 'NONE',  ( 0.000000000000000000, 0.000000000000000000, 1.000000000000000000 ) ) ;
#82 = ORIENTED_EDGE ( 'NONE', *, *, #567, .T. ) ;
#83 = PLANE ( 'NONE',  #355 ) ;
#84 = EDGE_CURVE ( 'NONE', #705, #31, #346, .T. ) ;
#85 = CIRCLE ( 'NONE', #553, 1.499999999999994449 ) ;
#86 = AXIS2_PLACEMENT_3D ( 'NONE', #784, #268, #30 ) ;
#87 = FACE_OUTER_BOUND ( 'NONE', #595, .T. ) ;
#88 = ORIENTED_EDGE ( 'NONE', *, *, #567, .F. ) ;
#89 = PLANE ( 'NONE',  #737 ) ;
#90 = EDGE_CURVE ( 'NONE', #2, #699, #429, .T. ) ;
#91 = DIRECTION ( 'NONE',  ( -0.000000000000000000, 1.000000000000000000, -0.000000000000000000 ) ) ;
#92 = DIRECTION ( 'NONE',  ( 0.000000000000000000, 0.000000000000000000, -1.000000000000000000 ) ) ;
#93 = EDGE_CURVE ( 'NONE', #687, #266, #738, .T. ) ;
#94 = ORIENTED_EDGE ( 'NONE', *, *, #654, .F. ) ;
#95 = CIRCLE ( 'NONE', #564, 1.499999999999997780 ) ;
#96 = ORIENTED_EDGE ( 'NONE', *, *, #233, .F. ) ;
#97 = DIRECTION ( 'NONE',  ( 0.000000000000000000, 1.000000000000000000, -0.000000000000000000 ) ) ;
#98 =( GEOMETRIC_REPRESENTATION_CONTEXT ( 3 ) GLOBAL_UNCERTAINTY_ASSIGNED_CONTEXT ( ( #721 ) ) GLOBAL_UNIT_ASSIGNED_CONTEXT ( ( #624, #807, #176 ) ) REPRESENTATION_CONTEXT ( 'NONE', 'WORKASPACE' ) );
#99 = CARTESIAN_POINT ( 'NONE',  ( -81.60000000000003695, 22.50000000000000000, -43.99999999999980815 ) ) ;
#100 = VERTEX_POINT ( 'NONE', #626 ) ;
#101 = DIRECTION ( 'NONE',  ( 1.000000000000000000, -0.000000000000000000, -0.000000000000000000 ) ) ;
#102 = DIRECTION ( 'NONE',  ( 0.5144957554275257916, -9.912705577010325549E-17, -0.8574929257125446513 ) ) ;
#103 = CARTESIAN_POINT ( 'NONE',  ( -77.00000000000001421, 17.49999999999999645, -46.99999999999982947 ) ) ;
#104 = ORIENTED_EDGE ( 'NONE', *, *, #7, .F. ) ;
#105 =( NAMED_UNIT ( * ) PLANE_ANGLE_UNIT ( ) SI_UNIT ( $, .RADIAN. ) );
#106 = DIRECTION ( 'NONE',  ( 0.000000000000000000, 1.000000000000000000, 0.000000000000000000 ) ) ;
#107 = CYLINDRICAL_SURFACE ( 'NONE', #689, 1.499999999999997780 ) ;
#108 = ADVANCED_FACE ( 'NONE', ( #434 ), #5, .F. ) ;
#109 = ORIENTED_EDGE ( 'NONE', *, *, #747, .T. ) ;
#110 = CARTESIAN_POINT ( 'NONE',  ( -75.93809621030942481, 22.50000000000000000, -43.99999999999980815 ) ) ;
#111 = AXIS2_PLACEMENT_3D ( 'NONE', #573, #714, #441 ) ;
#112 = DIRECTION ( 'NONE',  ( 0.000000000000000000, 1.000000000000000000, 0.000000000000000000 ) ) ;
#113 = EDGE_CURVE ( 'NONE', #485, #11, #795, .T. ) ;
#114 = DIRECTION ( 'NONE',  ( -0.000000000000000000, 1.000000000000000000, -0.000000000000000000 ) ) ;
#115 = AXIS2_PLACEMENT_3D ( 'NONE', #692, #243, #362 ) ;
#116 = ORIENTED_EDGE ( 'NONE', *, *, #530, .T. ) ;
#117 =( NAMED_UNIT ( * ) SI_UNIT ( $, .STERADIAN. ) SOLID_ANGLE_UNIT ( ) );
#118 = CARTESIAN_POINT ( 'NONE',  ( -77.00000000000001421, 22.50000000000000000, -46.99999999999982947 ) ) ;
#119 = CARTESIAN_POINT ( 'NONE',  ( -83.86761924206189178, -22.50000000000000000, -47.99999999999982947 ) ) ;
#120 = ORIENTED_EDGE ( 'NONE', *, *, #615, .F. ) ;
#121 = CARTESIAN_POINT ( 'NONE',  ( 85.58260509348697553, 22.50000000000000000, -49.02899151085488683 ) ) ;
#122 = EDGE_CURVE ( 'NONE', #323, #184, #367, .T. ) ;
#123 = DIRECTION ( 'NONE',  ( 0.000000000000000000, 0.000000000000000000, 1.000000000000000000 ) ) ;
#124 = ORIENTED_EDGE ( 'NONE', *, *, #414, .T. ) ;
#125 = DIRECTION ( 'NONE',  ( -0.8574929257125444293, -0.000000000000000000, -0.5144957554275262357 ) ) ;
#126 = EDGE_CURVE ( 'NONE', #285, #449, #698, .T. ) ;
#127 = DIRECTION ( 'NONE',  ( -0.5144957554275262357, 0.000000000000000000, -0.8574929257125443183 ) ) ;
#128 = CLOSED_SHELL ( 'NONE', ( #313, #425, #195, #350, #326, #730, #679, #539, #38, #63, #67, #207, #282, #322, #12, #556, #108, #292, #379, #137, #774, #36, #658, #777, #505, #442, #475, #402 ) ) ;
#129 = ORIENTED_EDGE ( 'NONE', *, *, #650, .T. ) ;
#130 = CARTESIAN_POINT ( 'NONE',  ( -88.41771930291116632, -2.500000000000005773, -24.86729484566362558 ) ) ;
#131 = EDGE_CURVE ( 'NONE', #672, #485, #574, .T. ) ;
#132 = DIRECTION ( 'NONE',  ( 0.000000000000000000, 0.000000000000000000, -1.000000000000000000 ) ) ;
#133 = ORIENTED_EDGE ( 'NONE', *, *, #418, .T. ) ;
#134 = CARTESIAN_POINT ( 'NONE',  ( -75.93809621030942481, -22.50000000000000000, -43.99999999999980815 ) ) ;
#135 = CARTESIAN_POINT ( 'NONE',  ( -81.60000000000003695, 22.50000000000000000, -43.99999999999980815 ) ) ;
#136 = ORIENTED_EDGE ( 'NONE', *, *, #122, .F. ) ;
#137 = ADVANCED_FACE ( 'NONE', ( #62 ), #310, .F. ) ;
#138 = LINE ( 'NONE', #130, #302 ) ;
#139 = VECTOR ( 'NONE', #582, 1000.000000000000000 ) ;
#140 = SURFACE_STYLE_USAGE ( .BOTH. , #641 ) ;
#141 = VERTEX_POINT ( 'NONE', #431 ) ;
#142 = CYLINDRICAL_SURFACE ( 'NONE', #9, 2.000000000000001776 ) ;
#143 = CARTESIAN_POINT ( 'NONE',  ( -103.7014288630928149, 22.50000000000000000, -14.49999999999981526 ) ) ;
#144 = ORIENTED_EDGE ( 'NONE', *, *, #747, .F. ) ;
#145 = FACE_OUTER_BOUND ( 'NONE', #664, .T. ) ;
#146 = CYLINDRICAL_SURFACE ( 'NONE', #179, 1.499999999999994449 ) ;
#147 = ORIENTED_EDGE ( 'NONE', *, *, #450, .T. ) ;
#148 = DIRECTION ( 'NONE',  ( 0.000000000000000000, 0.000000000000000000, 1.000000000000000000 ) ) ;
#149 = CIRCLE ( 'NONE', #467, 2.000000000000001776 ) ;
#150 = DIRECTION ( 'NONE',  ( 0.5144957554275259026, -0.000000000000000000, -0.8574929257125445403 ) ) ;
#151 = EDGE_CURVE ( 'NONE', #196, #541, #622, .T. ) ;
#152 = ORIENTED_EDGE ( 'NONE', *, *, #720, .F. ) ;
#153 = CARTESIAN_POINT ( 'NONE',  ( -75.93809621030942481, 22.50000000000000000, -33.99999999999980815 ) ) ;
#154 = VECTOR ( 'NONE', #565, 1000.000000000000000 ) ;
#155 = EDGE_CURVE ( 'NONE', #643, #416, #262, .T. ) ;
#156 = MECHANICAL_DESIGN_GEOMETRIC_PRESENTATION_REPRESENTATION (  '', ( #165 ), #98 ) ;
#157 = ORIENTED_EDGE ( 'NONE', *, *, #287, .F. ) ;
#158 = DIRECTION ( 'NONE',  ( 0.000000000000000000, -0.000000000000000000, 1.000000000000000000 ) ) ;
#159 = DIRECTION ( 'NONE',  ( -1.000000000000000000, 0.000000000000000000, 1.224646799147367012E-16 ) ) ;
#160 = ORIENTED_EDGE ( 'NONE', *, *, #7, .T. ) ;
#161 = DIRECTION ( 'NONE',  ( 0.000000000000000000, 1.000000000000000000, -0.000000000000000000 ) ) ;
#162 = LINE ( 'NONE', #799, #318 ) ;
#163 = VECTOR ( 'NONE', #267, 1000.000000000000114 ) ;
#164 = ORIENTED_EDGE ( 'NONE', *, *, #599, .T. ) ;
#165 = STYLED_ITEM ( 'NONE', ( #383 ), #365 ) ;
#166 = CARTESIAN_POINT ( 'NONE',  ( -83.86761924206189178, 22.50000000000000000, -49.99999999999982947 ) ) ;
#167 = ORIENTED_EDGE ( 'NONE', *, *, #639, .T. ) ;
#168 = EDGE_CURVE ( 'NONE', #260, #188, #444, .T. ) ;
#169 = DIRECTION ( 'NONE',  ( -0.000000000000000000, 1.000000000000000000, -0.000000000000000000 ) ) ;
#170 = EDGE_CURVE ( 'NONE', #705, #687, #59, .T. ) ;
#171 = ORIENTED_EDGE ( 'NONE', *, *, #155, .F. ) ;
#172 = DIRECTION ( 'NONE',  ( 0.000000000000000000, 0.000000000000000000, -1.000000000000000000 ) ) ;
#173 = CARTESIAN_POINT ( 'NONE',  ( 88.60000000000000853, -22.50000000000000000, -43.99999999999982236 ) ) ;
#174 = DIRECTION ( 'NONE',  ( 0.5144957554275263467, 0.000000000000000000, -0.8574929257125443183 ) ) ;
#175 = DIRECTION ( 'NONE',  ( 1.000000000000000000, 0.000000000000000000, 0.000000000000000000 ) ) ;
#176 =( NAMED_UNIT ( * ) SI_UNIT ( $, .STERADIAN. ) SOLID_ANGLE_UNIT ( ) );
#177 = CARTESIAN_POINT ( 'NONE',  ( 114.9999999999999858, 22.50000000000000000, 1.743296003570838555E-13 ) ) ;
#178 = VECTOR ( 'NONE', #225, 1000.000000000000114 ) ;
#179 = AXIS2_PLACEMENT_3D ( 'NONE', #463, #725, #589 ) ;
#180 = EDGE_LOOP ( 'NONE', ( #522, #600, #537, #104 ) ) ;
#181 = LINE ( 'NONE', #360, #812 ) ;
#182 = EDGE_CURVE ( 'NONE', #796, #687, #753, .T. ) ;
#183 = CARTESIAN_POINT ( 'NONE',  ( 81.60000000000003695, 22.50000000000000000, -43.99999999999980815 ) ) ;
#184 = VERTEX_POINT ( 'NONE', #637 ) ;
#185 = EDGE_CURVE ( 'NONE', #285, #141, #66, .T. ) ;
#186 = FACE_OUTER_BOUND ( 'NONE', #205, .T. ) ;
#187 = DIRECTION ( 'NONE',  ( 0.000000000000000000, -0.000000000000000000, -1.000000000000000000 ) ) ;
#188 = VERTEX_POINT ( 'NONE', #10 ) ;
#189 = VECTOR ( 'NONE', #348, 1000.000000000000000 ) ;
#190 = CARTESIAN_POINT ( 'NONE',  ( 85.58260509348697553, 22.50000000000000000, -49.02899151085486551 ) ) ;
#191 = DIRECTION ( 'NONE',  ( 0.5144957554275261247, -9.912705577010324317E-17, -0.8574929257125444293 ) ) ;
#192 = ORIENTED_EDGE ( 'NONE', *, *, #518, .F. ) ;
#193 = CARTESIAN_POINT ( 'NONE',  ( -81.60000000000003695, -22.50000000000000000, -43.99999999999980815 ) ) ;
#194 = PLANE ( 'NONE',  #386 ) ;
#195 = ADVANCED_FACE ( 'NONE', ( #771 ), #424, .F. ) ;
#196 = VERTEX_POINT ( 'NONE', #50 ) ;
#197 = DIRECTION ( 'NONE',  ( 0.000000000000000000, 0.000000000000000000, -1.000000000000000000 ) ) ;
#198 = CYLINDRICAL_SURFACE ( 'NONE', #741, 1.499999999999994449 ) ;
#199 = VERTEX_POINT ( 'NONE', #297 ) ;
#200 = CARTESIAN_POINT ( 'NONE',  ( -103.7014288630928149, 17.49999999999999645, -14.49999999999981526 ) ) ;
#201 = FACE_OUTER_BOUND ( 'NONE', #278, .T. ) ;
#202 = EDGE_LOOP ( 'NONE', ( #120, #171, #160, #124 ) ) ;
#203 = CARTESIAN_POINT ( 'NONE',  ( -7.000000000000005329, 17.49999999999999645, -46.99999999999982947 ) ) ;
#204 = CARTESIAN_POINT ( 'NONE',  ( 83.86761924206189178, 22.50000000000000000, -49.99999999999982947 ) ) ;
#205 = EDGE_LOOP ( 'NONE', ( #232, #618, #432, #696, #237, #327, #426, #736, #453 ) ) ;
#206 = LINE ( 'NONE', #724, #439 ) ;
#207 = ADVANCED_FACE ( 'NONE', ( #561 ), #231, .F. ) ;
#208 = CARTESIAN_POINT ( 'NONE',  ( 77.00000000000001421, 17.49999999999999645, -48.49999999999982236 ) ) ;
#209 = ORIENTED_EDGE ( 'NONE', *, *, #414, .F. ) ;
#210 = CARTESIAN_POINT ( 'NONE',  ( -85.58260509348697553, 22.50000000000000000, -49.02899151085486551 ) ) ;
#211 = AXIS2_PLACEMENT_3D ( 'NONE', #279, #97, #172 ) ;
#212 = CARTESIAN_POINT ( 'NONE',  ( 77.00000000000001421, 17.49999999999999645, -45.49999999999982947 ) ) ;
#213 = ORIENTED_EDGE ( 'NONE', *, *, #464, .F. ) ;
#214 = DIRECTION ( 'NONE',  ( 0.000000000000000000, -1.000000000000000000, 0.000000000000000000 ) ) ;
#215 = ORIENTED_EDGE ( 'NONE', *, *, #743, .F. ) ;
#216 = ORIENTED_EDGE ( 'NONE', *, *, #676, .F. ) ;
#217 = LINE ( 'NONE', #270, #642 ) ;
#218 = CARTESIAN_POINT ( 'NONE',  ( 83.86761924206189178, 22.50000000000000000, -49.99999999999982947 ) ) ;
#219 = EDGE_LOOP ( 'NONE', ( #558, #519, #336, #216, #613, #380 ) ) ;
#220 = DIRECTION ( 'NONE',  ( 0.000000000000000000, 1.000000000000000000, 0.000000000000000000 ) ) ;
#221 = ORIENTED_EDGE ( 'NONE', *, *, #398, .T. ) ;
#222 = DIRECTION ( 'NONE',  ( 0.000000000000000000, 1.000000000000000000, 0.000000000000000000 ) ) ;
#223 = CARTESIAN_POINT ( 'NONE',  ( -75.93809621030942481, 22.50000000000000000, -33.99999999999980815 ) ) ;
#224 = AXIS2_PLACEMENT_3D ( 'NONE', #183, #499, #495 ) ;
#225 = DIRECTION ( 'NONE',  ( -0.5144957554275262357, -0.000000000000000000, 0.8574929257125443183 ) ) ;
#226 = ORIENTED_EDGE ( 'NONE', *, *, #666, .F. ) ;
#227 = CARTESIAN_POINT ( 'NONE',  ( -81.60000000000003695, -2.500000000000005773, -43.99999999999980815 ) ) ;
#228 = CARTESIAN_POINT ( 'NONE',  ( -114.9999999999999858, 22.50000000000000000, 1.743296003570838555E-13 ) ) ;
#229 = ORIENTED_EDGE ( 'NONE', *, *, #185, .F. ) ;
#230 = CARTESIAN_POINT ( 'NONE',  ( 7.000000000000005329, 22.50000000000000000, -48.49999999999982947 ) ) ;
#231 = PLANE ( 'NONE',  #224 ) ;
#232 = ORIENTED_EDGE ( 'NONE', *, *, #338, .T. ) ;
#233 = EDGE_CURVE ( 'NONE', #358, #780, #702, .T. ) ;
#234 = VECTOR ( 'NONE', #700, 1000.000000000000000 ) ;
#235 = DIRECTION ( 'NONE',  ( -0.000000000000000000, 1.000000000000000000, -0.000000000000000000 ) ) ;
#236 = CARTESIAN_POINT ( 'NONE',  ( -84.51302546743487198, 22.50000000000000000, -39.14495755427507362 ) ) ;
#237 = ORIENTED_EDGE ( 'NONE', *, *, #113, .T. ) ;
#238 = CARTESIAN_POINT ( 'NONE',  ( 88.59999999999999432, 22.50000000000001066, -43.99999999999982947 ) ) ;
#239 = PRODUCT_DEFINITION_FORMATION_WITH_SPECIFIED_SOURCE ( 'Symmetric', '', #456, .NOT_KNOWN. ) ;
#240 = DIRECTION ( 'NONE',  ( -6.938893903907222067E-15, 0.000000000000000000, -1.000000000000000000 ) ) ;
#241 = ORIENTED_EDGE ( 'NONE', *, *, #571, .T. ) ;
#242 = DIRECTION ( 'NONE',  ( 0.000000000000000000, 0.000000000000000000, 1.000000000000000000 ) ) ;
#243 = DIRECTION ( 'NONE',  ( -0.000000000000000000, 1.000000000000000000, -0.000000000000000000 ) ) ;
#244 = ORIENTED_EDGE ( 'NONE', *, *, #170, .F. ) ;
#245 = VECTOR ( 'NONE', #524, 1000.000000000000000 ) ;
#246 = CARTESIAN_POINT ( 'NONE',  ( -7.000000000000005329, 22.50000000000000000, -46.99999999999982947 ) ) ;
#247 = EDGE_CURVE ( 'NONE', #266, #713, #769, .T. ) ;
#248 = CARTESIAN_POINT ( 'NONE',  ( 77.00000000000001421, 17.49999999999999645, -48.49999999999982236 ) ) ;
#249 = CIRCLE ( 'NONE', #14, 1.499999999999994449 ) ;
#250 = ORIENTED_EDGE ( 'NONE', *, *, #151, .T. ) ;
#251 = LINE ( 'NONE', #193, #272 ) ;
#252 = FACE_OUTER_BOUND ( 'NONE', #180, .T. ) ;
#253 = ORIENTED_EDGE ( 'NONE', *, *, #131, .F. ) ;
#254 = DIRECTION ( 'NONE',  ( 0.000000000000000000, 0.000000000000000000, 1.000000000000000000 ) ) ;
#255 = DIRECTION ( 'NONE',  ( 0.000000000000000000, 0.000000000000000000, -1.000000000000000000 ) ) ;
#256 = EDGE_LOOP ( 'NONE', ( #609, #638 ) ) ;
#257 = EDGE_CURVE ( 'NONE', #389, #323, #85, .T. ) ;
#258 = DIRECTION ( 'NONE',  ( -0.000000000000000000, -1.000000000000000000, -0.000000000000000000 ) ) ;
#259 = DIRECTION ( 'NONE',  ( 0.000000000000000000, 0.000000000000000000, 1.000000000000000000 ) ) ;
#260 = VERTEX_POINT ( 'NONE', #317 ) ;
#261 = EDGE_CURVE ( 'NONE', #699, #2, #400, .T. ) ;
#262 = CIRCLE ( 'NONE', #671, 1.499999999999997780 ) ;
#263 = CARTESIAN_POINT ( 'NONE',  ( -7.000000000000005329, 17.49999999999999645, -46.99999999999982947 ) ) ;
#264 = DIRECTION ( 'NONE',  ( -0.000000000000000000, 1.000000000000000000, -0.000000000000000000 ) ) ;
#265 = EDGE_CURVE ( 'NONE', #184, #199, #249, .T. ) ;
#266 = VERTEX_POINT ( 'NONE', #521 ) ;
#267 = DIRECTION ( 'NONE',  ( -0.5144957554275262357, -0.000000000000000000, 0.8574929257125443183 ) ) ;
#268 = DIRECTION ( 'NONE',  ( -0.000000000000000000, 1.000000000000000000, -0.000000000000000000 ) ) ;
#269 = ORIENTED_EDGE ( 'NONE', *, *, #265, .T. ) ;
#270 = CARTESIAN_POINT ( 'NONE',  ( -7.000000000000005329, 17.49999999999999645, -48.49999999999982947 ) ) ;
#271 = EDGE_CURVE ( 'NONE', #2, #667, #584, .T. ) ;
#272 = VECTOR ( 'NONE', #586, 1000.000000000000000 ) ;
#273 = FACE_OUTER_BOUND ( 'NONE', #750, .T. ) ;
#274 = CARTESIAN_POINT ( 'NONE',  ( 88.60000000000000853, 22.50000000000000000, -43.99999999999982947 ) ) ;
#275 = AXIS2_PLACEMENT_3D ( 'NONE', #547, #814, #476 ) ;
#276 = COLOUR_RGB ( '',0.7921568627450980005, 0.8196078431372548767, 0.9333333333333333481 ) ;
#277 = DIRECTION ( 'NONE',  ( 0.000000000000000000, 0.000000000000000000, -1.000000000000000000 ) ) ;
#278 = EDGE_LOOP ( 'NONE', ( #136, #469, #241, #647 ) ) ;
#279 = CARTESIAN_POINT ( 'NONE',  ( 77.00000000000001421, 22.50000000000000000, -46.99999999999982947 ) ) ;
#280 = DIRECTION ( 'NONE',  ( -0.8574929257125446513, 0.000000000000000000, -0.5144957554275259026 ) ) ;
#281 = PLANE ( 'NONE',  #633 ) ;
#282 = ADVANCED_FACE ( 'NONE', ( #517 ), #659, .F. ) ;
#283 = AXIS2_PLACEMENT_3D ( 'NONE', #538, #719, #652 ) ;
#284 = ORIENTED_EDGE ( 'NONE', *, *, #818, .T. ) ;
#285 = VERTEX_POINT ( 'NONE', #75 ) ;
#286 = CARTESIAN_POINT ( 'NONE',  ( -7.000000000000005329, 22.50000000000000000, -48.49999999999982947 ) ) ;
#287 = EDGE_CURVE ( 'NONE', #11, #796, #787, .T. ) ;
#288 = DIRECTION ( 'NONE',  ( 0.000000000000000000, 0.000000000000000000, 1.000000000000000000 ) ) ;
#289 = AXIS2_PLACEMENT_3D ( 'NONE', #119, #513, #132 ) ;
#290 = CIRCLE ( 'NONE', #74, 1.499999999999994449 ) ;
#291 = PLANE ( 'NONE',  #332 ) ;
#292 = ADVANCED_FACE ( 'NONE', ( #653 ), #646, .F. ) ;
#293 = ORIENTED_EDGE ( 'NONE', *, *, #715, .T. ) ;
#294 = LINE ( 'NONE', #421, #189 ) ;
#295 = DIRECTION ( 'NONE',  ( -0.000000000000000000, 1.000000000000000000, -0.000000000000000000 ) ) ;
#296 = EDGE_CURVE ( 'NONE', #446, #307, #645, .T. ) ;
#297 = CARTESIAN_POINT ( 'NONE',  ( 77.00000000000001421, 22.50000000000000000, -45.49999999999982947 ) ) ;
#298 = ORIENTED_EDGE ( 'NONE', *, *, #802, .T. ) ;
#299 = LINE ( 'NONE', #433, #334 ) ;
#300 = DIRECTION ( 'NONE',  ( 0.000000000000000000, 0.000000000000000000, 1.000000000000000000 ) ) ;
#301 = ORIENTED_EDGE ( 'NONE', *, *, #185, .T. ) ;
#302 = VECTOR ( 'NONE', #648, 999.9999999999998863 ) ;
#303 = DIRECTION ( 'NONE',  ( 0.000000000000000000, 0.000000000000000000, 1.000000000000000000 ) ) ;
#304 = AXIS2_PLACEMENT_3D ( 'NONE', #670, #351, #159 ) ;
#305 = DIRECTION ( 'NONE',  ( 0.000000000000000000, 1.000000000000000000, 0.000000000000000000 ) ) ;
#306 = CIRCLE ( 'NONE', #430, 1.499999999999997780 ) ;
#307 = VERTEX_POINT ( 'NONE', #27 ) ;
#308 = CARTESIAN_POINT ( 'NONE',  ( -84.51302546743487198, 22.50000000000000000, -39.14495755427507362 ) ) ;
#309 = AXIS2_PLACEMENT_3D ( 'NONE', #559, #751, #175 ) ;
#310 = CYLINDRICAL_SURFACE ( 'NONE', #115, 1.499999999999994449 ) ;
#311 = EDGE_LOOP ( 'NONE', ( #94, #315, #269, #797 ) ) ;
#312 = FACE_BOUND ( 'NONE', #465, .T. ) ;
#313 = ADVANCED_FACE ( 'NONE', ( #252 ), #536, .F. ) ;
#314 = CARTESIAN_POINT ( 'NONE',  ( -107.9999999999999858, -2.500000000000002220, 1.734723475976807094E-13 ) ) ;
#315 = ORIENTED_EDGE ( 'NONE', *, *, #122, .T. ) ;
#316 = LINE ( 'NONE', #760, #70 ) ;
#317 = CARTESIAN_POINT ( 'NONE',  ( -7.000000000000005329, 17.49999999999999645, -45.49999999999982236 ) ) ;
#318 = VECTOR ( 'NONE', #91, 1000.000000000000000 ) ;
#319 = ORIENTED_EDGE ( 'NONE', *, *, #489, .F. ) ;
#320 = LINE ( 'NONE', #436, #356 ) ;
#321 = DIRECTION ( 'NONE',  ( 1.000000000000000000, 0.000000000000000000, -0.000000000000000000 ) ) ;
#322 = ADVANCED_FACE ( 'NONE', ( #201 ), #198, .F. ) ;
#323 = VERTEX_POINT ( 'NONE', #208 ) ;
#324 = CARTESIAN_POINT ( 'NONE',  ( -103.7014288630928149, 17.49999999999999645, -12.99999999999981704 ) ) ;
#325 = CARTESIAN_POINT ( 'NONE',  ( -77.00000000000001421, 17.49999999999999645, -45.49999999999982947 ) ) ;
#326 = ADVANCED_FACE ( 'NONE', ( #587 ), #146, .F. ) ;
#327 = ORIENTED_EDGE ( 'NONE', *, *, #489, .T. ) ;
#328 = LINE ( 'NONE', #591, #579 ) ;
#329 = CIRCLE ( 'NONE', #395, 1.500000000000001332 ) ;
#330 = CARTESIAN_POINT ( 'NONE',  ( -85.00000000000000000, 22.50000000000000000, -49.99999999999982947 ) ) ;
#331 = ORIENTED_EDGE ( 'NONE', *, *, #766, .F. ) ;
#332 = AXIS2_PLACEMENT_3D ( 'NONE', #228, #612, #174 ) ;
#333 = CARTESIAN_POINT ( 'NONE',  ( -103.7014288630928149, 17.49999999999999645, -11.49999999999981881 ) ) ;
#334 = VECTOR ( 'NONE', #422, 1000.000000000000000 ) ;
#335 = DIRECTION ( 'NONE',  ( 0.000000000000000000, 0.000000000000000000, -1.000000000000000000 ) ) ;
#336 = ORIENTED_EDGE ( 'NONE', *, *, #599, .F. ) ;
#337 = CARTESIAN_POINT ( 'NONE',  ( -75.93809621030942481, -22.50000000000000000, -33.99999999999980815 ) ) ;
#338 = EDGE_CURVE ( 'NONE', #792, #541, #22, .T. ) ;
#339 = FACE_OUTER_BOUND ( 'NONE', #420, .T. ) ;
#340 = CARTESIAN_POINT ( 'NONE',  ( 83.86761924206189178, -22.50000000000000000, -47.99999999999982947 ) ) ;
#341 = CIRCLE ( 'NONE', #580, 1.500000000000001332 ) ;
#342 = PLANE ( 'NONE',  #304 ) ;
#343 = EDGE_LOOP ( 'NONE', ( #486, #192, #532, #229 ) ) ;
#344 = PRODUCT_CONTEXT ( 'NONE', #58, 'mechanical' ) ;
#345 = VECTOR ( 'NONE', #150, 1000.000000000000000 ) ;
#346 = LINE ( 'NONE', #803, #178 ) ;
#347 = ORIENTED_EDGE ( 'NONE', *, *, #625, .T. ) ;
#348 = DIRECTION ( 'NONE',  ( 1.000000000000000000, -0.000000000000000000, -1.224646799147367012E-16 ) ) ;
#349 = CARTESIAN_POINT ( 'NONE',  ( 114.9999999999999858, -22.50000000000000000, 1.743296003570838555E-13 ) ) ;
#350 = ADVANCED_FACE ( 'NONE', ( #87 ), #525, .F. ) ;
#351 = DIRECTION ( 'NONE',  ( -1.224646799147367012E-16, 0.000000000000000000, -1.000000000000000000 ) ) ;
#352 = VERTEX_POINT ( 'NONE', #717 ) ;
#353 = FACE_OUTER_BOUND ( 'NONE', #510, .T. ) ;
#354 = CYLINDRICAL_SURFACE ( 'NONE', #783, 1.499999999999994449 ) ;
#355 = AXIS2_PLACEMENT_3D ( 'NONE', #391, #466, #80 ) ;
#356 = VECTOR ( 'NONE', #125, 999.9999999999998863 ) ;
#357 = ORIENTED_EDGE ( 'NONE', *, *, #168, .F. ) ;
#358 = VERTEX_POINT ( 'NONE', #143 ) ;
#359 = CARTESIAN_POINT ( 'NONE',  ( -103.7014288630928149, 22.50000000000000000, -11.49999999999981881 ) ) ;
#360 = CARTESIAN_POINT ( 'NONE',  ( -77.00000000000001421, 17.49999999999999645, -48.49999999999982236 ) ) ;
#361 = VECTOR ( 'NONE', #437, 1000.000000000000000 ) ;
#362 = DIRECTION ( 'NONE',  ( 0.000000000000000000, 0.000000000000000000, 1.000000000000000000 ) ) ;
#363 = DIRECTION ( 'NONE',  ( -0.000000000000000000, 1.000000000000000000, -0.000000000000000000 ) ) ;
#364 = ORIENTED_EDGE ( 'NONE', *, *, #418, .F. ) ;
#365 = MANIFOLD_SOLID_BREP ( 'Fillet2', #128 ) ;
#366 = CARTESIAN_POINT ( 'NONE',  ( 7.000000000000005329, 17.49999999999999645, -48.49999999999982947 ) ) ;
#367 = LINE ( 'NONE', #248, #620 ) ;
#368 = EDGE_LOOP ( 'NONE', ( #226, #419, #572, #152 ) ) ;
#369 = CIRCLE ( 'NONE', #523, 10.00000000000000178 ) ;
#370 = FACE_BOUND ( 'NONE', #608, .T. ) ;
#371 = DIRECTION ( 'NONE',  ( 0.000000000000000000, 1.000000000000000000, 0.000000000000000000 ) ) ;
#372 = AXIS2_PLACEMENT_3D ( 'NONE', #497, #611, #748 ) ;
#373 = EDGE_LOOP ( 'NONE', ( #6, #20 ) ) ;
#374 = CARTESIAN_POINT ( 'NONE',  ( -96.99264856003659929, -22.49999999999998224, -30.01225239993888749 ) ) ;
#375 = CARTESIAN_POINT ( 'NONE',  ( -85.00000000000000000, -22.50000000000000000, -49.99999999999982947 ) ) ;
#376 = ORIENTED_EDGE ( 'NONE', *, *, #596, .F. ) ;
#377 = DIRECTION ( 'NONE',  ( -0.000000000000000000, 1.000000000000000000, -0.000000000000000000 ) ) ;
#378 = DIRECTION ( 'NONE',  ( 0.000000000000000000, 0.000000000000000000, 1.000000000000000000 ) ) ;
#379 = ADVANCED_FACE ( 'NONE', ( #49 ), #194, .T. ) ;
#380 = ORIENTED_EDGE ( 'NONE', *, *, #84, .T. ) ;
#381 = FACE_BOUND ( 'NONE', #754, .T. ) ;
#382 = EDGE_CURVE ( 'NONE', #307, #576, #299, .T. ) ;
#383 = PRESENTATION_STYLE_ASSIGNMENT (( #140 ) ) ;
#384 = AXIS2_PLACEMENT_3D ( 'NONE', #819, #634, #187 ) ;
#385 = ORIENTED_EDGE ( 'NONE', *, *, #271, .T. ) ;
#386 = AXIS2_PLACEMENT_3D ( 'NONE', #752, #106, #413 ) ;
#387 = DIRECTION ( 'NONE',  ( -1.000000000000000000, -0.000000000000000000, -0.000000000000000000 ) ) ;
#388 = DIRECTION ( 'NONE',  ( 0.000000000000000000, 0.000000000000000000, -1.000000000000000000 ) ) ;
#389 = VERTEX_POINT ( 'NONE', #212 ) ;
#390 = PRODUCT_DEFINITION_SHAPE ( 'NONE', 'NONE',  #16 ) ;
#391 = CARTESIAN_POINT ( 'NONE',  ( 0.000000000000000000, -22.50000000000000000, 0.000000000000000000 ) ) ;
#392 = CARTESIAN_POINT ( 'NONE',  ( 7.000000000000005329, 17.49999999999999645, -46.99999999999982947 ) ) ;
#393 = EDGE_LOOP ( 'NONE', ( #68, #788, #298, #357 ) ) ;
#394 = FACE_OUTER_BOUND ( 'NONE', #731, .T. ) ;
#395 = AXIS2_PLACEMENT_3D ( 'NONE', #263, #529, #786 ) ;
#396 = VECTOR ( 'NONE', #707, 1000.000000000000000 ) ;
#397 = DIRECTION ( 'NONE',  ( -0.000000000000000000, 1.000000000000000000, -0.000000000000000000 ) ) ;
#398 = EDGE_CURVE ( 'NONE', #699, #79, #181, .T. ) ;
#399 = ORIENTED_EDGE ( 'NONE', *, *, #287, .T. ) ;
#400 = CIRCLE ( 'NONE', #46, 1.499999999999994449 ) ;
#401 = DIRECTION ( 'NONE',  ( 0.000000000000000000, 1.000000000000000000, 0.000000000000000000 ) ) ;
#402 = ADVANCED_FACE ( 'NONE', ( #493 ), #555, .F. ) ;
#403 = ORIENTED_EDGE ( 'NONE', *, *, #155, .T. ) ;
#404 = DIRECTION ( 'NONE',  ( 0.000000000000000000, 0.000000000000000000, -1.000000000000000000 ) ) ;
#405 = DIRECTION ( 'NONE',  ( -0.5144957554275257916, 0.000000000000000000, 0.8574929257125445403 ) ) ;
#406 = ORIENTED_EDGE ( 'NONE', *, *, #408, .T. ) ;
#407 = CARTESIAN_POINT ( 'NONE',  ( 77.00000000000001421, 17.49999999999999645, -46.99999999999982947 ) ) ;
#408 = EDGE_CURVE ( 'NONE', #458, #100, #55, .T. ) ;
#409 = CIRCLE ( 'NONE', #793, 10.00000000000000178 ) ;
#410 = PLANE ( 'NONE',  #275 ) ;
#411 = DIRECTION ( 'NONE',  ( 0.000000000000000000, 0.000000000000000000, -1.000000000000000000 ) ) ;
#412 = VECTOR ( 'NONE', #703, 1000.000000000000000 ) ;
#413 = DIRECTION ( 'NONE',  ( 0.000000000000000000, -0.000000000000000000, 1.000000000000000000 ) ) ;
#414 = EDGE_CURVE ( 'NONE', #780, #358, #306, .T. ) ;
#415 = CARTESIAN_POINT ( 'NONE',  ( -91.84558973650716496, -2.500000000000004885, -26.92401710582122121 ) ) ;
#416 = VERTEX_POINT ( 'NONE', #560 ) ;
#417 = APPLICATION_PROTOCOL_DEFINITION ( 'draft international standard', 'automotive_design', 1998, #701 ) ;
#418 = EDGE_CURVE ( 'NONE', #100, #485, #428, .T. ) ;
#419 = ORIENTED_EDGE ( 'NONE', *, *, #151, .F. ) ;
#420 = EDGE_LOOP ( 'NONE', ( #491, #250, #54, #680, #677, #515 ) ) ;
#421 = CARTESIAN_POINT ( 'NONE',  ( -107.9999999999999858, 22.50000000000000000, 1.734723475976807094E-13 ) ) ;
#422 = DIRECTION ( 'NONE',  ( -0.000000000000000000, 1.000000000000000000, -0.000000000000000000 ) ) ;
#423 = CIRCLE ( 'NONE', #629, 1.500000000000001332 ) ;
#424 = CYLINDRICAL_SURFACE ( 'NONE', #482, 1.500000000000001332 ) ;
#425 = ADVANCED_FACE ( 'NONE', ( #674 ), #354, .F. ) ;
#426 = ORIENTED_EDGE ( 'NONE', *, *, #247, .T. ) ;
#427 = DIRECTION ( 'NONE',  ( 0.000000000000000000, -1.000000000000000000, 0.000000000000000000 ) ) ;
#428 = LINE ( 'NONE', #121, #606 ) ;
#429 = CIRCLE ( 'NONE', #470, 1.499999999999994449 ) ;
#430 = AXIS2_PLACEMENT_3D ( 'NONE', #563, #821, #678 ) ;
#431 = CARTESIAN_POINT ( 'NONE',  ( -107.9999999999999716, -2.500000000000000444, 1.734723475976807094E-13 ) ) ;
#432 = ORIENTED_EDGE ( 'NONE', *, *, #766, .T. ) ;
#433 = CARTESIAN_POINT ( 'NONE',  ( 7.000000000000005329, 17.49999999999999645, -45.49999999999982236 ) ) ;
#434 = FACE_OUTER_BOUND ( 'NONE', #256, .T. ) ;
#435 = ORIENTED_EDGE ( 'NONE', *, *, #704, .T. ) ;
#436 = CARTESIAN_POINT ( 'NONE',  ( -88.41771930291116632, -22.49999999999998224, -24.86729484566362558 ) ) ;
#437 = DIRECTION ( 'NONE',  ( -0.000000000000000000, 1.000000000000000000, -0.000000000000000000 ) ) ;
#438 = EDGE_CURVE ( 'NONE', #141, #28, #813, .T. ) ;
#439 = VECTOR ( 'NONE', #597, 1000.000000000000000 ) ;
#440 = VERTEX_POINT ( 'NONE', #230 ) ;
#441 = DIRECTION ( 'NONE',  ( 0.000000000000000000, 0.000000000000000000, -1.000000000000000000 ) ) ;
#442 = ADVANCED_FACE ( 'NONE', ( #488 ), #628, .F. ) ;
#443 = AXIS2_PLACEMENT_3D ( 'NONE', #57, #305, #570 ) ;
#444 = LINE ( 'NONE', #758, #412 ) ;
#445 = VECTOR ( 'NONE', #694, 1000.000000000000114 ) ;
#446 = VERTEX_POINT ( 'NONE', #366 ) ;
#447 = LINE ( 'NONE', #520, #396 ) ;
#448 = FILL_AREA_STYLE ('',( #722 ) ) ;
#449 = VERTEX_POINT ( 'NONE', #690 ) ;
#450 = EDGE_CURVE ( 'NONE', #667, #79, #290, .T. ) ;
#451 = LINE ( 'NONE', #502, #484 ) ;
#452 = DIRECTION ( 'NONE',  ( -0.000000000000000000, 1.000000000000000000, -0.000000000000000000 ) ) ;
#453 = ORIENTED_EDGE ( 'NONE', *, *, #810, .T. ) ;
#454 = VECTOR ( 'NONE', #644, 1000.000000000000000 ) ;
#455 = LINE ( 'NONE', #374, #139 ) ;
#456 = PRODUCT ( 'Frame-Railing-Left', 'Frame-Railing-Left', '', ( #344 ) ) ;
#457 = CARTESIAN_POINT ( 'NONE',  ( 77.00000000000001421, 17.49999999999999645, -46.99999999999982947 ) ) ;
#458 = VERTEX_POINT ( 'NONE', #173 ) ;
#459 = CARTESIAN_POINT ( 'NONE',  ( -77.00000000000001421, 17.49999999999999645, -48.49999999999982236 ) ) ;
#460 = CARTESIAN_POINT ( 'NONE',  ( 7.000000000000005329, 17.49999999999999645, -46.99999999999982947 ) ) ;
#461 = ORIENTED_EDGE ( 'NONE', *, *, #382, .F. ) ;
#462 = LINE ( 'NONE', #471, #163 ) ;
#463 = CARTESIAN_POINT ( 'NONE',  ( 77.00000000000001421, 17.49999999999999645, -46.99999999999982947 ) ) ;
#464 = EDGE_CURVE ( 'NONE', #792, #141, #483, .T. ) ;
#465 = EDGE_LOOP ( 'NONE', ( #585, #42 ) ) ;
#466 = DIRECTION ( 'NONE',  ( 0.000000000000000000, -1.000000000000000000, -0.000000000000000000 ) ) ;
#467 = AXIS2_PLACEMENT_3D ( 'NONE', #340, #603, #21 ) ;
#468 = AXIS2_PLACEMENT_3D ( 'NONE', #773, #61, #636 ) ;
#469 = ORIENTED_EDGE ( 'NONE', *, *, #257, .F. ) ;
#470 = AXIS2_PLACEMENT_3D ( 'NONE', #103, #220, #479 ) ;
#471 = CARTESIAN_POINT ( 'NONE',  ( -114.9999999999999858, 22.50000000000000000, 1.743296003570838555E-13 ) ) ;
#472 = ORIENTED_EDGE ( 'NONE', *, *, #583, .F. ) ;
#473 = ORIENTED_EDGE ( 'NONE', *, *, #113, .F. ) ;
#474 = CARTESIAN_POINT ( 'NONE',  ( -83.86761924206189178, -22.50000000000000000, -49.99999999999982947 ) ) ;
#475 = ADVANCED_FACE ( 'NONE', ( #41 ), #281, .F. ) ;
#476 = DIRECTION ( 'NONE',  ( 0.000000000000000000, -0.000000000000000000, -1.000000000000000000 ) ) ;
#477 = ORIENTED_EDGE ( 'NONE', *, *, #261, .F. ) ;
#478 = DIRECTION ( 'NONE',  ( -0.000000000000000000, 1.000000000000000000, -0.000000000000000000 ) ) ;
#479 = DIRECTION ( 'NONE',  ( 0.000000000000000000, 0.000000000000000000, 1.000000000000000000 ) ) ;
#480 = EDGE_LOOP ( 'NONE', ( #604, #723, #385, #147 ) ) ;
#481 = DIRECTION ( 'NONE',  ( 0.000000000000000000, 0.000000000000000000, -1.000000000000000000 ) ) ;
#482 = AXIS2_PLACEMENT_3D ( 'NONE', #52, #114, #300 ) ;
#483 = LINE ( 'NONE', #791, #543 ) ;
#484 = VECTOR ( 'NONE', #387, 1000.000000000000000 ) ;
#485 = VERTEX_POINT ( 'NONE', #190 ) ;
#486 = ORIENTED_EDGE ( 'NONE', *, *, #126, .T. ) ;
#487 = DIRECTION ( 'NONE',  ( 0.000000000000000000, -0.000000000000000000, 1.000000000000000000 ) ) ;
#488 = FACE_OUTER_BOUND ( 'NONE', #343, .T. ) ;
#489 = EDGE_CURVE ( 'NONE', #11, #266, #451, .T. ) ;
#490 = ORIENTED_EDGE ( 'NONE', *, *, #806, .F. ) ;
#491 = ORIENTED_EDGE ( 'NONE', *, *, #583, .T. ) ;
#492 = CARTESIAN_POINT ( 'NONE',  ( -107.9999999999999858, 22.50000000000000000, 1.734723475976807094E-13 ) ) ;
#493 = FACE_OUTER_BOUND ( 'NONE', #368, .T. ) ;
#494 = CIRCLE ( 'NONE', #111, 1.500000000000001332 ) ;
#495 = DIRECTION ( 'NONE',  ( -1.000000000000000000, 0.000000000000000000, -0.000000000000000000 ) ) ;
#496 = ORIENTED_EDGE ( 'NONE', *, *, #685, .F. ) ;
#497 = CARTESIAN_POINT ( 'NONE',  ( -106.4250707428745812, -2.500000000000002220, 5.144957554275436884 ) ) ;
#498 = AXIS2_PLACEMENT_3D ( 'NONE', #392, #15, #255 ) ;
#499 = DIRECTION ( 'NONE',  ( 0.000000000000000000, 0.000000000000000000, -1.000000000000000000 ) ) ;
#500 = EDGE_LOOP ( 'NONE', ( #473, #364, #718, #157 ) ) ;
#501 = VECTOR ( 'NONE', #101, 1000.000000000000000 ) ;
#502 = CARTESIAN_POINT ( 'NONE',  ( -85.00000000000000000, 22.50000000000000000, -49.99999999999982947 ) ) ;
#503 = CARTESIAN_POINT ( 'NONE',  ( 83.86761924206189178, 22.50000000000000000, -47.99999999999982947 ) ) ;
#504 = ORIENTED_EDGE ( 'NONE', *, *, #575, .T. ) ;
#505 = ADVANCED_FACE ( 'NONE', ( #65 ), #142, .T. ) ;
#506 = CARTESIAN_POINT ( 'NONE',  ( 77.00000000000001421, 17.49999999999999645, -45.49999999999982947 ) ) ;
#507 = CARTESIAN_POINT ( 'NONE',  ( -115.0000000000000142, -2.500000000000002220, 1.734723475976807094E-13 ) ) ;
#508 = AXIS2_PLACEMENT_3D ( 'NONE', #619, #222, #487 ) ;
#509 = AXIS2_PLACEMENT_3D ( 'NONE', #407, #161, #601 ) ;
#510 = EDGE_LOOP ( 'NONE', ( #740, #623 ) ) ;
#511 = LINE ( 'NONE', #506, #234 ) ;
#512 = VECTOR ( 'NONE', #191, 999.9999999999998863 ) ;
#513 = DIRECTION ( 'NONE',  ( -0.000000000000000000, -1.000000000000000000, -0.000000000000000000 ) ) ;
#514 = PRESENTATION_LAYER_ASSIGNMENT (  '', '', ( #165 ) ) ;
#515 = ORIENTED_EDGE ( 'NONE', *, *, #743, .T. ) ;
#516 = DIRECTION ( 'NONE',  ( -0.8574929257125444293, 0.000000000000000000, -0.5144957554275262357 ) ) ;
#517 = FACE_OUTER_BOUND ( 'NONE', #759, .T. ) ;
#518 = EDGE_CURVE ( 'NONE', #28, #449, #138, .T. ) ;
#519 = ORIENTED_EDGE ( 'NONE', *, *, #126, .F. ) ;
#520 = CARTESIAN_POINT ( 'NONE',  ( -114.9999999999999858, 22.50000000000000000, 1.743296003570838555E-13 ) ) ;
#521 = CARTESIAN_POINT ( 'NONE',  ( -83.86761924206189178, 22.50000000000000000, -49.99999999999982947 ) ) ;
#522 = ORIENTED_EDGE ( 'NONE', *, *, #625, .F. ) ;
#523 = AXIS2_PLACEMENT_3D ( 'NONE', #153, #258, #404 ) ;
#524 = DIRECTION ( 'NONE',  ( 0.000000000000000000, -1.000000000000000000, 0.000000000000000000 ) ) ;
#525 = CYLINDRICAL_SURFACE ( 'NONE', #662, 1.500000000000001332 ) ;
#526 = VECTOR ( 'NONE', #630, 1000.000000000000000 ) ;
#527 = VERTEX_POINT ( 'NONE', #640 ) ;
#528 = VECTOR ( 'NONE', #779, 1000.000000000000000 ) ;
#529 = DIRECTION ( 'NONE',  ( 0.000000000000000000, 1.000000000000000000, 0.000000000000000000 ) ) ;
#530 = EDGE_CURVE ( 'NONE', #527, #31, #320, .T. ) ;
#531 = CARTESIAN_POINT ( 'NONE',  ( -103.7014288630928149, 17.49999999999999645, -12.99999999999981704 ) ) ;
#532 = ORIENTED_EDGE ( 'NONE', *, *, #438, .F. ) ;
#533 = DIRECTION ( 'NONE',  ( -0.8574929257125443183, 0.000000000000000000, 0.5144957554275263467 ) ) ;
#534 = ADVANCED_BREP_SHAPE_REPRESENTATION ( 'Frame-Railing-Left', ( #365, #309 ), #607 ) ;
#535 = EDGE_CURVE ( 'NONE', #446, #440, #316, .T. ) ;
#536 = CYLINDRICAL_SURFACE ( 'NONE', #770, 1.499999999999997780 ) ;
#537 = ORIENTED_EDGE ( 'NONE', *, *, #233, .T. ) ;
#538 = CARTESIAN_POINT ( 'NONE',  ( -77.00000000000001421, 22.50000000000000000, -46.99999999999982947 ) ) ;
#539 = ADVANCED_FACE ( 'NONE', ( #381, #697, #370, #312, #568, #186 ), #632, .F. ) ;
#540 = AXIS2_PLACEMENT_3D ( 'NONE', #324, #663, #158 ) ;
#541 = VERTEX_POINT ( 'NONE', #308 ) ;
#542 = EDGE_LOOP ( 'NONE', ( #693, #545, #244, #72 ) ) ;
#543 = VECTOR ( 'NONE', #621, 1000.000000000000000 ) ;
#544 = DIRECTION ( 'NONE',  ( 0.000000000000000000, 1.000000000000000000, 0.000000000000000000 ) ) ;
#545 = ORIENTED_EDGE ( 'NONE', *, *, #93, .F. ) ;
#546 = PLANE ( 'NONE',  #508 ) ;
#547 = CARTESIAN_POINT ( 'NONE',  ( 77.00000000000001421, 17.49999999999999645, -46.99999999999982947 ) ) ;
#548 = EDGE_LOOP ( 'NONE', ( #331, #581, #284, #82 ) ) ;
#549 = CYLINDRICAL_SURFACE ( 'NONE', #656, 2.000000000000001776 ) ;
#550 = CARTESIAN_POINT ( 'NONE',  ( -88.41771930291116632, -22.49999999999998224, -24.86729484566362558 ) ) ;
#551 = CIRCLE ( 'NONE', #804, 1.500000000000001332 ) ;
#552 = CARTESIAN_POINT ( 'NONE',  ( -77.00000000000001421, 17.49999999999999645, -45.49999999999982947 ) ) ;
#553 = AXIS2_PLACEMENT_3D ( 'NONE', #1, #598, #388 ) ;
#554 = EDGE_CURVE ( 'NONE', #440, #576, #494, .T. ) ;
#555 = CYLINDRICAL_SURFACE ( 'NONE', #569, 10.00000000000000178 ) ;
#556 = ADVANCED_FACE ( 'NONE', ( #69 ), #710, .F. ) ;
#557 = CARTESIAN_POINT ( 'NONE',  ( -103.7014288630928149, 17.49999999999999645, -12.99999999999981704 ) ) ;
#558 = ORIENTED_EDGE ( 'NONE', *, *, #575, .F. ) ;
#559 = CARTESIAN_POINT ( 'NONE',  ( 0.000000000000000000, 0.000000000000000000, 0.000000000000000000 ) ) ;
#560 = CARTESIAN_POINT ( 'NONE',  ( -103.7014288630928149, 17.49999999999999645, -14.49999999999981526 ) ) ;
#561 = FACE_OUTER_BOUND ( 'NONE', #548, .T. ) ;
#562 = EDGE_LOOP ( 'NONE', ( #88, #406, #133, #253 ) ) ;
#563 = CARTESIAN_POINT ( 'NONE',  ( -103.7014288630928149, 22.50000000000000000, -12.99999999999981704 ) ) ;
#564 = AXIS2_PLACEMENT_3D ( 'NONE', #13, #657, #781 ) ;
#565 = DIRECTION ( 'NONE',  ( -0.000000000000000000, 1.000000000000000000, -0.000000000000000000 ) ) ;
#566 = ORIENTED_EDGE ( 'NONE', *, *, #265, .F. ) ;
#567 = EDGE_CURVE ( 'NONE', #458, #672, #8, .T. ) ;
#568 = FACE_BOUND ( 'NONE', #661, .T. ) ;
#569 = AXIS2_PLACEMENT_3D ( 'NONE', #223, #112, #288 ) ;
#570 = DIRECTION ( 'NONE',  ( 0.000000000000000000, 0.000000000000000000, -1.000000000000000000 ) ) ;
#571 = EDGE_CURVE ( 'NONE', #389, #199, #511, .T. ) ;
#572 = ORIENTED_EDGE ( 'NONE', *, *, #639, .F. ) ;
#573 = CARTESIAN_POINT ( 'NONE',  ( 7.000000000000005329, 22.50000000000000000, -46.99999999999982947 ) ) ;
#574 = LINE ( 'NONE', #177, #729 ) ;
#575 = EDGE_CURVE ( 'NONE', #449, #31, #455, .T. ) ;
#576 = VERTEX_POINT ( 'NONE', #73 ) ;
#577 = DIRECTION ( 'NONE',  ( -0.000000000000000000, 1.000000000000000000, -0.000000000000000000 ) ) ;
#578 = DIRECTION ( 'NONE',  ( 1.000000000000000000, -5.100044944174581910E-17, -1.224646799147367012E-16 ) ) ;
#579 = VECTOR ( 'NONE', #25, 1000.000000000000000 ) ;
#580 = AXIS2_PLACEMENT_3D ( 'NONE', #246, #18, #254 ) ;
#581 = ORIENTED_EDGE ( 'NONE', *, *, #720, .T. ) ;
#582 = DIRECTION ( 'NONE',  ( -0.000000000000000000, -1.000000000000000000, -0.000000000000000000 ) ) ;
#583 = EDGE_CURVE ( 'NONE', #527, #196, #251, .T. ) ;
#584 = LINE ( 'NONE', #325, #756 ) ;
#585 = ORIENTED_EDGE ( 'NONE', *, *, #450, .F. ) ;
#586 = DIRECTION ( 'NONE',  ( 0.5144957554275259026, -0.000000000000000000, -0.8574929257125445403 ) ) ;
#587 = FACE_OUTER_BOUND ( 'NONE', #311, .T. ) ;
#588 = DIRECTION ( 'NONE',  ( 0.5144957554275263467, 0.000000000000000000, 0.8574929257125443183 ) ) ;
#589 = DIRECTION ( 'NONE',  ( 0.000000000000000000, 0.000000000000000000, 1.000000000000000000 ) ) ;
#590 = ORIENTED_EDGE ( 'NONE', *, *, #408, .F. ) ;
#591 = CARTESIAN_POINT ( 'NONE',  ( -91.84558973650716496, 22.50000000000000000, -26.92401710582122121 ) ) ;
#592 = UNCERTAINTY_MEASURE_WITH_UNIT (LENGTH_MEASURE( 1.000000000000000082E-05 ), #816, 'distance_accuracy_value', 'NONE');
#593 = DIRECTION ( 'NONE',  ( 0.000000000000000000, 0.000000000000000000, 1.000000000000000000 ) ) ;
#594 = AXIS2_PLACEMENT_3D ( 'NONE', #744, #749, #277 ) ;
#595 = EDGE_LOOP ( 'NONE', ( #635, #785, #33, #461 ) ) ;
#596 = EDGE_CURVE ( 'NONE', #188, #811, #341, .T. ) ;
#597 = DIRECTION ( 'NONE',  ( 1.000000000000000000, -0.000000000000000000, -0.000000000000000000 ) ) ;
#598 = DIRECTION ( 'NONE',  ( 0.000000000000000000, 1.000000000000000000, -0.000000000000000000 ) ) ;
#599 = EDGE_CURVE ( 'NONE', #352, #285, #447, .T. ) ;
#600 = ORIENTED_EDGE ( 'NONE', *, *, #615, .T. ) ;
#601 = DIRECTION ( 'NONE',  ( 0.000000000000000000, 0.000000000000000000, -1.000000000000000000 ) ) ;
#602 = CARTESIAN_POINT ( 'NONE',  ( -77.00000000000001421, 22.50000000000000000, -48.49999999999982236 ) ) ;
#603 = DIRECTION ( 'NONE',  ( -0.000000000000000000, -1.000000000000000000, -0.000000000000000000 ) ) ;
#604 = ORIENTED_EDGE ( 'NONE', *, *, #398, .F. ) ;
#605 = VERTEX_POINT ( 'NONE', #134 ) ;
#606 = VECTOR ( 'NONE', #478, 1000.000000000000000 ) ;
#607 =( GEOMETRIC_REPRESENTATION_CONTEXT ( 3 ) GLOBAL_UNCERTAINTY_ASSIGNED_CONTEXT ( ( #592 ) ) GLOBAL_UNIT_ASSIGNED_CONTEXT ( ( #816, #105, #117 ) ) REPRESENTATION_CONTEXT ( 'NONE', 'WORKASPACE' ) );
#608 = EDGE_LOOP ( 'NONE', ( #376, #745 ) ) ;
#609 = ORIENTED_EDGE ( 'NONE', *, *, #806, .T. ) ;
#610 = APPLICATION_PROTOCOL_DEFINITION ( 'draft international standard', 'automotive_design', 1998, #58 ) ;
#611 = DIRECTION ( 'NONE',  ( 5.100044944174580062E-17, 1.000000000000000000, -8.500074906957637955E-17 ) ) ;
#612 = DIRECTION ( 'NONE',  ( 0.8574929257125443183, -0.000000000000000000, 0.5144957554275263467 ) ) ;
#613 = ORIENTED_EDGE ( 'NONE', *, *, #706, .T. ) ;
#614 = DIRECTION ( 'NONE',  ( 0.000000000000000000, 0.000000000000000000, 1.000000000000000000 ) ) ;
#615 = EDGE_CURVE ( 'NONE', #416, #358, #778, .T. ) ;
#616 = CIRCLE ( 'NONE', #211, 1.499999999999994449 ) ;
#617 = CARTESIAN_POINT ( 'NONE',  ( -96.99264856003659929, -22.49999999999998224, -30.01225239993888749 ) ) ;
#618 = ORIENTED_EDGE ( 'NONE', *, *, #666, .T. ) ;
#619 = CARTESIAN_POINT ( 'NONE',  ( -77.00000000000001421, 17.49999999999999645, -46.99999999999982947 ) ) ;
#620 = VECTOR ( 'NONE', #363, 1000.000000000000000 ) ;
#621 = DIRECTION ( 'NONE',  ( -0.000000000000000000, -1.000000000000000000, -0.000000000000000000 ) ) ;
#622 = LINE ( 'NONE', #236, #361 ) ;
#623 = ORIENTED_EDGE ( 'NONE', *, *, #261, .T. ) ;
#624 =( LENGTH_UNIT ( ) NAMED_UNIT ( * ) SI_UNIT ( .MILLI., .METRE. ) );
#625 = EDGE_CURVE ( 'NONE', #416, #643, #95, .T. ) ;
#626 = CARTESIAN_POINT ( 'NONE',  ( 85.58260509348697553, -22.50000000000000000, -49.02899151085486551 ) ) ;
#627 = ORIENTED_EDGE ( 'NONE', *, *, #182, .T. ) ;
#628 = PLANE ( 'NONE',  #372 ) ;
#629 = AXIS2_PLACEMENT_3D ( 'NONE', #203, #401, #148 ) ;
#630 = DIRECTION ( 'NONE',  ( -1.000000000000000000, -0.000000000000000000, -0.000000000000000000 ) ) ;
#631 = ORIENTED_EDGE ( 'NONE', *, *, #84, .F. ) ;
#632 = PLANE ( 'NONE',  #468 ) ;
#633 = AXIS2_PLACEMENT_3D ( 'NONE', #550, #763, #516 ) ;
#634 = DIRECTION ( 'NONE',  ( 0.000000000000000000, -1.000000000000000000, 0.000000000000000000 ) ) ;
#635 = ORIENTED_EDGE ( 'NONE', *, *, #296, .F. ) ;
#636 = DIRECTION ( 'NONE',  ( 0.000000000000000000, 0.000000000000000000, -1.000000000000000000 ) ) ;
#637 = CARTESIAN_POINT ( 'NONE',  ( 77.00000000000001421, 22.50000000000000000, -48.49999999999982236 ) ) ;
#638 = ORIENTED_EDGE ( 'NONE', *, *, #296, .T. ) ;
#639 = EDGE_CURVE ( 'NONE', #605, #196, #409, .T. ) ;
#640 = CARTESIAN_POINT ( 'NONE',  ( -91.84558973650715075, -22.49999999999998224, -26.92401710582122121 ) ) ;
#641 = SURFACE_SIDE_STYLE ('',( #708 ) ) ;
#642 = VECTOR ( 'NONE', #794, 1000.000000000000000 ) ;
#643 = VERTEX_POINT ( 'NONE', #333 ) ;
#644 = DIRECTION ( 'NONE',  ( 9.251858538542967883E-17, 1.000000000000000000, 1.541976423090495387E-16 ) ) ;
#645 = CIRCLE ( 'NONE', #498, 1.500000000000001332 ) ;
#646 = CYLINDRICAL_SURFACE ( 'NONE', #86, 1.500000000000001332 ) ;
#647 = ORIENTED_EDGE ( 'NONE', *, *, #790, .T. ) ;
#648 = DIRECTION ( 'NONE',  ( -0.8574929257125444293, -0.000000000000000000, -0.5144957554275262357 ) ) ;
#649 = CARTESIAN_POINT ( 'NONE',  ( -77.00000000000001421, 17.49999999999999645, -46.99999999999982947 ) ) ;
#650 = EDGE_CURVE ( 'NONE', #681, #260, #423, .T. ) ;
#651 = EDGE_LOOP ( 'NONE', ( #496, #144, #815, #808 ) ) ;
#652 = DIRECTION ( 'NONE',  ( 0.000000000000000000, 0.000000000000000000, 1.000000000000000000 ) ) ;
#653 = FACE_OUTER_BOUND ( 'NONE', #651, .T. ) ;
#654 = EDGE_CURVE ( 'NONE', #323, #389, #56, .T. ) ;
#655 = EDGE_LOOP ( 'NONE', ( #800, #17 ) ) ;
#656 = AXIS2_PLACEMENT_3D ( 'NONE', #43, #427, #411 ) ;
#657 = DIRECTION ( 'NONE',  ( 0.000000000000000000, 1.000000000000000000, 0.000000000000000000 ) ) ;
#658 = ADVANCED_FACE ( 'NONE', ( #394 ), #669, .T. ) ;
#659 = PLANE ( 'NONE',  #716 ) ;
#660 = AXIS2_PLACEMENT_3D ( 'NONE', #99, #280, #405 ) ;
#661 = EDGE_LOOP ( 'NONE', ( #209, #96 ) ) ;
#662 = AXIS2_PLACEMENT_3D ( 'NONE', #460, #397, #378 ) ;
#663 = DIRECTION ( 'NONE',  ( 0.000000000000000000, 1.000000000000000000, 0.000000000000000000 ) ) ;
#664 = EDGE_LOOP ( 'NONE', ( #590, #60, #167, #472, #116, #631, #64, #51, #293 ) ) ;
#665 = CARTESIAN_POINT ( 'NONE',  ( -85.58260509348697553, -22.50000000000000000, -49.02899151085486551 ) ) ;
#666 = EDGE_CURVE ( 'NONE', #541, #767, #369, .T. ) ;
#667 = VERTEX_POINT ( 'NONE', #798 ) ;
#668 = ORIENTED_EDGE ( 'NONE', *, *, #790, .F. ) ;
#669 = PLANE ( 'NONE',  #540 ) ;
#670 = CARTESIAN_POINT ( 'NONE',  ( -107.9999999999999858, 22.50000000000000000, 1.734723475976807094E-13 ) ) ;
#671 = AXIS2_PLACEMENT_3D ( 'NONE', #765, #371, #686 ) ;
#672 = VERTEX_POINT ( 'NONE', #274 ) ;
#673 = DIRECTION ( 'NONE',  ( 0.000000000000000000, 1.000000000000000000, 0.000000000000000000 ) ) ;
#674 = FACE_OUTER_BOUND ( 'NONE', #823, .T. ) ;
#675 = DIRECTION ( 'NONE',  ( 0.000000000000000000, 0.000000000000000000, 1.000000000000000000 ) ) ;
#676 = EDGE_CURVE ( 'NONE', #713, #352, #462, .T. ) ;
#677 = ORIENTED_EDGE ( 'NONE', *, *, #438, .T. ) ;
#678 = DIRECTION ( 'NONE',  ( 0.000000000000000000, 0.000000000000000000, 1.000000000000000000 ) ) ;
#679 = ADVANCED_FACE ( 'NONE', ( #32 ), #89, .F. ) ;
#680 = ORIENTED_EDGE ( 'NONE', *, *, #464, .T. ) ;
#681 = VERTEX_POINT ( 'NONE', #732 ) ;
#682 = CARTESIAN_POINT ( 'NONE',  ( 7.000000000000005329, 17.49999999999999645, -46.99999999999982947 ) ) ;
#683 = AXIS2_PLACEMENT_3D ( 'NONE', #742, #673, #614 ) ;
#684 = VECTOR ( 'NONE', #377, 1000.000000000000000 ) ;
#685 = EDGE_CURVE ( 'NONE', #681, #811, #217, .T. ) ;
#686 = DIRECTION ( 'NONE',  ( 0.000000000000000000, 0.000000000000000000, 1.000000000000000000 ) ) ;
#687 = VERTEX_POINT ( 'NONE', #474 ) ;
#688 = CARTESIAN_POINT ( 'NONE',  ( 81.60000000000003695, -22.50000000000000000, -43.99999999999980815 ) ) ;
#689 = AXIS2_PLACEMENT_3D ( 'NONE', #557, #169, #675 ) ;
#690 = CARTESIAN_POINT ( 'NONE',  ( -96.99264856003659929, -2.500000000000005773, -30.01225239993888749 ) ) ;
#691 = PRODUCT_RELATED_PRODUCT_CATEGORY ( 'part', '', ( #456 ) ) ;
#692 = CARTESIAN_POINT ( 'NONE',  ( -77.00000000000001421, 17.49999999999999645, -46.99999999999982947 ) ) ;
#693 = ORIENTED_EDGE ( 'NONE', *, *, #247, .F. ) ;
#694 = DIRECTION ( 'NONE',  ( -0.5144957554275262357, 0.000000000000000000, -0.8574929257125443183 ) ) ;
#695 = DIRECTION ( 'NONE',  ( 0.000000000000000000, 1.000000000000000000, 0.000000000000000000 ) ) ;
#696 = ORIENTED_EDGE ( 'NONE', *, *, #131, .T. ) ;
#697 = FACE_BOUND ( 'NONE', #373, .T. ) ;
#698 = LINE ( 'NONE', #507, #512 ) ;
#699 = VERTEX_POINT ( 'NONE', #459 ) ;
#700 = DIRECTION ( 'NONE',  ( -0.000000000000000000, 1.000000000000000000, -0.000000000000000000 ) ) ;
#701 = APPLICATION_CONTEXT ( 'automotive_design' ) ;
#702 = CIRCLE ( 'NONE', #809, 1.499999999999997780 ) ;
#703 = DIRECTION ( 'NONE',  ( -0.000000000000000000, 1.000000000000000000, -0.000000000000000000 ) ) ;
#704 = EDGE_CURVE ( 'NONE', #79, #667, #23, .T. ) ;
#705 = VERTEX_POINT ( 'NONE', #665 ) ;
#706 = EDGE_CURVE ( 'NONE', #713, #705, #789, .T. ) ;
#707 = DIRECTION ( 'NONE',  ( -0.000000000000000000, -1.000000000000000000, -0.000000000000000000 ) ) ;
#708 = SURFACE_STYLE_FILL_AREA ( #448 ) ;
#709 = EDGE_LOOP ( 'NONE', ( #776, #504, #772, #215 ) ) ;
#710 = CYLINDRICAL_SURFACE ( 'NONE', #712, 1.500000000000001332 ) ;
#711 = DIRECTION ( 'NONE',  ( 0.000000000000000000, 0.000000000000000000, 1.000000000000000000 ) ) ;
#712 = AXIS2_PLACEMENT_3D ( 'NONE', #3, #577, #242 ) ;
#713 = VERTEX_POINT ( 'NONE', #210 ) ;
#714 = DIRECTION ( 'NONE',  ( 0.000000000000000000, 1.000000000000000000, -0.000000000000000000 ) ) ;
#715 = EDGE_CURVE ( 'NONE', #796, #100, #149, .T. ) ;
#716 = AXIS2_PLACEMENT_3D ( 'NONE', #330, #593, #321 ) ;
#717 = CARTESIAN_POINT ( 'NONE',  ( -114.9999999999999858, 22.50000000000000000, 1.743296003570838555E-13 ) ) ;
#718 = ORIENTED_EDGE ( 'NONE', *, *, #715, .F. ) ;
#719 = DIRECTION ( 'NONE',  ( 0.000000000000000000, 1.000000000000000000, 0.000000000000000000 ) ) ;
#720 = EDGE_CURVE ( 'NONE', #767, #605, #728, .T. ) ;
#721 = UNCERTAINTY_MEASURE_WITH_UNIT (LENGTH_MEASURE( 1.000000000000000082E-05 ), #624, 'distance_accuracy_value', 'NONE');
#722 = FILL_AREA_STYLE_COLOUR ( '', #276 ) ;
#723 = ORIENTED_EDGE ( 'NONE', *, *, #90, .F. ) ;
#724 = CARTESIAN_POINT ( 'NONE',  ( 81.60000000000003695, 22.50000000000000000, -43.99999999999980815 ) ) ;
#725 = DIRECTION ( 'NONE',  ( -0.000000000000000000, 1.000000000000000000, -0.000000000000000000 ) ) ;
#726 = ORIENTED_EDGE ( 'NONE', *, *, #535, .F. ) ;
#727 = CIRCLE ( 'NONE', #683, 1.500000000000001332 ) ;
#728 = LINE ( 'NONE', #34, #245 ) ;
#729 = VECTOR ( 'NONE', #127, 1000.000000000000114 ) ;
#730 = ADVANCED_FACE ( 'NONE', ( #145 ), #83, .T. ) ;
#731 = EDGE_LOOP ( 'NONE', ( #403, #347 ) ) ;
#732 = CARTESIAN_POINT ( 'NONE',  ( -7.000000000000005329, 17.49999999999999645, -48.49999999999982947 ) ) ;
#733 = FACE_OUTER_BOUND ( 'NONE', #202, .T. ) ;
#734 = CARTESIAN_POINT ( 'NONE',  ( 114.9999999999999858, 22.50000000000000000, 1.743296003570838555E-13 ) ) ;
#735 = PLANE ( 'NONE',  #660 ) ;
#736 = ORIENTED_EDGE ( 'NONE', *, *, #676, .T. ) ;
#737 = AXIS2_PLACEMENT_3D ( 'NONE', #734, #533, #588 ) ;
#738 = LINE ( 'NONE', #166, #154 ) ;
#739 = VECTOR ( 'NONE', #578, 1000.000000000000000 ) ;
#740 = ORIENTED_EDGE ( 'NONE', *, *, #90, .T. ) ;
#741 = AXIS2_PLACEMENT_3D ( 'NONE', #457, #452, #711 ) ;
#742 = CARTESIAN_POINT ( 'NONE',  ( -7.000000000000005329, 22.50000000000000000, -46.99999999999982947 ) ) ;
#743 = EDGE_CURVE ( 'NONE', #28, #527, #328, .T. ) ;
#744 = CARTESIAN_POINT ( 'NONE',  ( 7.000000000000005329, 22.50000000000000000, -46.99999999999982947 ) ) ;
#745 = ORIENTED_EDGE ( 'NONE', *, *, #802, .F. ) ;
#746 = FACE_OUTER_BOUND ( 'NONE', #500, .T. ) ;
#747 = EDGE_CURVE ( 'NONE', #260, #681, #329, .T. ) ;
#748 = DIRECTION ( 'NONE',  ( 0.000000000000000000, 8.500074906957637955E-17, 1.000000000000000000 ) ) ;
#749 = DIRECTION ( 'NONE',  ( 0.000000000000000000, 1.000000000000000000, -0.000000000000000000 ) ) ;
#750 = EDGE_LOOP ( 'NONE', ( #164, #301, #213, #820 ) ) ;
#751 = DIRECTION ( 'NONE',  ( 0.000000000000000000, 0.000000000000000000, 1.000000000000000000 ) ) ;
#752 = CARTESIAN_POINT ( 'NONE',  ( -7.000000000000005329, 17.49999999999999645, -46.99999999999982947 ) ) ;
#753 = LINE ( 'NONE', #375, #526 ) ;
#754 = EDGE_LOOP ( 'NONE', ( #668, #566 ) ) ;
#755 = AXIS2_PLACEMENT_3D ( 'NONE', #503, #761, #240 ) ;
#756 = VECTOR ( 'NONE', #264, 1000.000000000000000 ) ;
#757 = DIRECTION ( 'NONE',  ( 0.000000000000000000, 1.000000000000000000, 0.000000000000000000 ) ) ;
#758 = CARTESIAN_POINT ( 'NONE',  ( -7.000000000000005329, 17.49999999999999645, -45.49999999999982236 ) ) ;
#759 = EDGE_LOOP ( 'NONE', ( #319, #399, #627, #762 ) ) ;
#760 = CARTESIAN_POINT ( 'NONE',  ( 7.000000000000005329, 17.49999999999999645, -48.49999999999982947 ) ) ;
#761 = DIRECTION ( 'NONE',  ( 0.000000000000000000, 1.000000000000000000, 0.000000000000000000 ) ) ;
#762 = ORIENTED_EDGE ( 'NONE', *, *, #93, .T. ) ;
#763 = DIRECTION ( 'NONE',  ( 0.5144957554275262357, 0.000000000000000000, -0.8574929257125444293 ) ) ;
#764 = VECTOR ( 'NONE', #214, 1000.000000000000000 ) ;
#765 = CARTESIAN_POINT ( 'NONE',  ( -103.7014288630928149, 17.49999999999999645, -12.99999999999981704 ) ) ;
#766 = EDGE_CURVE ( 'NONE', #767, #672, #206, .T. ) ;
#767 = VERTEX_POINT ( 'NONE', #110 ) ;
#768 = CARTESIAN_POINT ( 'NONE',  ( -83.86761924206189178, 22.50000000000000000, -47.99999999999982947 ) ) ;
#769 = CIRCLE ( 'NONE', #443, 2.000000000000001776 ) ;
#770 = AXIS2_PLACEMENT_3D ( 'NONE', #531, #775, #81 ) ;
#771 = FACE_OUTER_BOUND ( 'NONE', #393, .T. ) ;
#772 = ORIENTED_EDGE ( 'NONE', *, *, #530, .F. ) ;
#773 = CARTESIAN_POINT ( 'NONE',  ( 0.000000000000000000, 22.50000000000000000, 0.000000000000000000 ) ) ;
#774 = ADVANCED_FACE ( 'NONE', ( #353 ), #546, .T. ) ;
#775 = DIRECTION ( 'NONE',  ( -0.000000000000000000, 1.000000000000000000, -0.000000000000000000 ) ) ;
#776 = ORIENTED_EDGE ( 'NONE', *, *, #518, .T. ) ;
#777 = ADVANCED_FACE ( 'NONE', ( #746 ), #549, .T. ) ;
#778 = LINE ( 'NONE', #200, #684 ) ;
#779 = DIRECTION ( 'NONE',  ( 0.000000000000000000, -1.000000000000000000, 0.000000000000000000 ) ) ;
#780 = VERTEX_POINT ( 'NONE', #359 ) ;
#781 = DIRECTION ( 'NONE',  ( 0.000000000000000000, 0.000000000000000000, 1.000000000000000000 ) ) ;
#782 = CIRCLE ( 'NONE', #594, 1.500000000000001332 ) ;
#783 = AXIS2_PLACEMENT_3D ( 'NONE', #44, #235, #817 ) ;
#784 = CARTESIAN_POINT ( 'NONE',  ( -7.000000000000005329, 17.49999999999999645, -46.99999999999982947 ) ) ;
#785 = ORIENTED_EDGE ( 'NONE', *, *, #535, .T. ) ;
#786 = DIRECTION ( 'NONE',  ( 0.000000000000000000, 0.000000000000000000, 1.000000000000000000 ) ) ;
#787 = LINE ( 'NONE', #204, #528 ) ;
#788 = ORIENTED_EDGE ( 'NONE', *, *, #685, .T. ) ;
#789 = LINE ( 'NONE', #29, #764 ) ;
#790 = EDGE_CURVE ( 'NONE', #199, #184, #616, .T. ) ;
#791 = CARTESIAN_POINT ( 'NONE',  ( -107.9999999999999858, 22.50000000000000000, 1.734723475976807094E-13 ) ) ;
#792 = VERTEX_POINT ( 'NONE', #492 ) ;
#793 = AXIS2_PLACEMENT_3D ( 'NONE', #337, #544, #92 ) ;
#794 = DIRECTION ( 'NONE',  ( -0.000000000000000000, 1.000000000000000000, -0.000000000000000000 ) ) ;
#795 = CIRCLE ( 'NONE', #755, 2.000000000000001776 ) ;
#796 = VERTEX_POINT ( 'NONE', #805 ) ;
#797 = ORIENTED_EDGE ( 'NONE', *, *, #571, .F. ) ;
#798 = CARTESIAN_POINT ( 'NONE',  ( -77.00000000000001421, 22.50000000000000000, -45.49999999999982947 ) ) ;
#799 = CARTESIAN_POINT ( 'NONE',  ( -103.7014288630928149, 17.49999999999999645, -11.49999999999981881 ) ) ;
#800 = ORIENTED_EDGE ( 'NONE', *, *, #257, .T. ) ;
#801 = DIRECTION ( 'NONE',  ( 0.000000000000000000, 1.000000000000000000, -0.000000000000000000 ) ) ;
#802 = EDGE_CURVE ( 'NONE', #811, #188, #727, .T. ) ;
#803 = CARTESIAN_POINT ( 'NONE',  ( -114.9999999999999858, -22.50000000000000000, 1.743296003570838555E-13 ) ) ;
#804 = AXIS2_PLACEMENT_3D ( 'NONE', #682, #801, #481 ) ;
#805 = CARTESIAN_POINT ( 'NONE',  ( 83.86761924206189178, -22.50000000000000000, -49.99999999999982947 ) ) ;
#806 = EDGE_CURVE ( 'NONE', #307, #446, #551, .T. ) ;
#807 =( NAMED_UNIT ( * ) PLANE_ANGLE_UNIT ( ) SI_UNIT ( $, .RADIAN. ) );
#808 = ORIENTED_EDGE ( 'NONE', *, *, #596, .T. ) ;
#809 = AXIS2_PLACEMENT_3D ( 'NONE', #822, #695, #123 ) ;
#810 = EDGE_CURVE ( 'NONE', #352, #792, #294, .T. ) ;
#811 = VERTEX_POINT ( 'NONE', #286 ) ;
#812 = VECTOR ( 'NONE', #295, 1000.000000000000000 ) ;
#813 = LINE ( 'NONE', #227, #26 ) ;
#814 = DIRECTION ( 'NONE',  ( 0.000000000000000000, -1.000000000000000000, 0.000000000000000000 ) ) ;
#815 = ORIENTED_EDGE ( 'NONE', *, *, #168, .T. ) ;
#816 =( LENGTH_UNIT ( ) NAMED_UNIT ( * ) SI_UNIT ( .MILLI., .METRE. ) );
#817 = DIRECTION ( 'NONE',  ( 0.000000000000000000, 0.000000000000000000, 1.000000000000000000 ) ) ;
#818 = EDGE_CURVE ( 'NONE', #605, #458, #48, .T. ) ;
#819 = CARTESIAN_POINT ( 'NONE',  ( 7.000000000000005329, 17.49999999999999645, -46.99999999999982947 ) ) ;
#820 = ORIENTED_EDGE ( 'NONE', *, *, #810, .F. ) ;
#821 = DIRECTION ( 'NONE',  ( 0.000000000000000000, 1.000000000000000000, 0.000000000000000000 ) ) ;
#822 = CARTESIAN_POINT ( 'NONE',  ( -103.7014288630928149, 22.50000000000000000, -12.99999999999981704 ) ) ;
#823 = EDGE_LOOP ( 'NONE', ( #477, #221, #435, #24 ) ) ;
#824 = DIRECTION ( 'NONE',  ( -0.000000000000000000, -1.000000000000000000, 0.000000000000000000 ) ) ;
ENDSEC;
END-ISO-10303-21;
