ISO-10303-21;
HEADER;
FILE_DESCRIPTION (( 'STEP AP214' ),
    '1' );
FILE_NAME ('Frame Railing Left.STEP',
    '2026-05-27T04:34:24',
    ( '' ),
    ( '' ),
    'SwSTEP 2.0',
    'SolidWorks 2026',
    '' );
FILE_SCHEMA (( 'AUTOMOTIVE_DESIGN' ));
ENDSEC;

DATA;
#1 = EDGE_CURVE ( 'NONE', #573, #156, #50, .T. ) ;
#2 = FACE_OUTER_BOUND ( 'NONE', #216, .T. ) ;
#3 = PLANE ( 'NONE',  #226 ) ;
#4 = AXIS2_PLACEMENT_3D ( 'NONE', #19, #74, #307 ) ;
#5 = VECTOR ( 'NONE', #427, 1000.000000000000000 ) ;
#6 = EDGE_LOOP ( 'NONE', ( #75, #34, #298, #548 ) ) ;
#7 = CARTESIAN_POINT ( 'NONE',  ( -77.50000000000002842, -20.00000000000000000, -33.99999999999980105 ) ) ;
#8 = FACE_OUTER_BOUND ( 'NONE', #126, .T. ) ;
#9 = CARTESIAN_POINT ( 'NONE',  ( -57.00000000000000711, 15.00000000000000000, -36.99999999999981526 ) ) ;
#10 = EDGE_CURVE ( 'NONE', #149, #460, #239, .T. ) ;
#11 = VERTEX_POINT ( 'NONE', #100 ) ;
#12 = CARTESIAN_POINT ( 'NONE',  ( -79.00000000000001421, 20.00000000000000000, -37.99999999999982236 ) ) ;
#13 = VECTOR ( 'NONE', #14, 1000.000000000000000 ) ;
#14 = DIRECTION ( 'NONE',  ( -0.000000000000000000, -0.000000000000000000, 1.000000000000000000 ) ) ;
#15 = ORIENTED_EDGE ( 'NONE', *, *, #103, .T. ) ;
#16 = ADVANCED_FACE ( 'NONE', ( #480 ), #17, .T. ) ;
#17 = CYLINDRICAL_SURFACE ( 'NONE', #489, 2.000000000000001776 ) ;
#18 = ADVANCED_BREP_SHAPE_REPRESENTATION ( 'Frame Railing Left', ( #95, #4 ), #169 ) ;
#19 = CARTESIAN_POINT ( 'NONE',  ( 0.000000000000000000, 0.000000000000000000, 0.000000000000000000 ) ) ;
#20 = EDGE_LOOP ( 'NONE', ( #551, #392 ) ) ;
#21 = CYLINDRICAL_SURFACE ( 'NONE', #288, 1.572515875182374456 ) ;
#22 = PLANE ( 'NONE',  #594 ) ;
#23 = CARTESIAN_POINT ( 'NONE',  ( 55.98000000000006082, -20.00000000000000355, -39.99999999999982947 ) ) ;
#24 = EDGE_CURVE ( 'NONE', #182, #604, #386, .T. ) ;
#25 = AXIS2_PLACEMENT_3D ( 'NONE', #125, #603, #509 ) ;
#26 = VECTOR ( 'NONE', #28, 1000.000000000000000 ) ;
#27 = VECTOR ( 'NONE', #98, 1000.000000000000000 ) ;
#28 = DIRECTION ( 'NONE',  ( -0.000000000000000000, -1.000000000000000000, -0.000000000000000000 ) ) ;
#29 = DIRECTION ( 'NONE',  ( 0.000000000000000000, 0.000000000000000000, 1.000000000000000000 ) ) ;
#30 = ORIENTED_EDGE ( 'NONE', *, *, #310, .T. ) ;
#31 = DIRECTION ( 'NONE',  ( 0.7831511052909481130, 0.000000000000000000, -0.6218314452338079557 ) ) ;
#32 = ORIENTED_EDGE ( 'NONE', *, *, #343, .F. ) ;
#33 = CARTESIAN_POINT ( 'NONE',  ( -7.000000000000004441, 15.00000000000000000, -36.99999999999982236 ) ) ;
#34 = ORIENTED_EDGE ( 'NONE', *, *, #202, .F. ) ;
#35 = AXIS2_PLACEMENT_3D ( 'NONE', #160, #535, #396 ) ;
#36 = VECTOR ( 'NONE', #152, 1000.000000000000000 ) ;
#37 = CARTESIAN_POINT ( 'NONE',  ( -7.000000000000004441, 20.00000000000000000, -35.49999999999982236 ) ) ;
#38 = EDGE_LOOP ( 'NONE', ( #317, #486, #130, #389 ) ) ;
#39 = DIRECTION ( 'NONE',  ( 1.000000000000000000, -0.000000000000000000, 0.000000000000000000 ) ) ;
#40 = EDGE_CURVE ( 'NONE', #180, #573, #233, .T. ) ;
#41 = EDGE_LOOP ( 'NONE', ( #462, #347, #341, #30 ) ) ;
#42 = AXIS2_PLACEMENT_3D ( 'NONE', #574, #567, #244 ) ;
#43 = FACE_BOUND ( 'NONE', #513, .T. ) ;
#44 = ORIENTED_EDGE ( 'NONE', *, *, #147, .F. ) ;
#45 = CARTESIAN_POINT ( 'NONE',  ( -57.00000000000000711, 15.00000000000000000, -35.49999999999982236 ) ) ;
#46 = ORIENTED_EDGE ( 'NONE', *, *, #165, .F. ) ;
#47 = DIRECTION ( 'NONE',  ( -0.000000000000000000, 1.000000000000000000, -0.000000000000000000 ) ) ;
#48 = EDGE_CURVE ( 'NONE', #279, #559, #344, .T. ) ;
#49 = CARTESIAN_POINT ( 'NONE',  ( 52.00000000000000711, 20.00000000000000000, -38.57251587518219793 ) ) ;
#50 = LINE ( 'NONE', #438, #412 ) ;
#51 = LINE ( 'NONE', #248, #13 ) ;
#52 = AXIS2_PLACEMENT_3D ( 'NONE', #402, #586, #542 ) ;
#53 = LINE ( 'NONE', #565, #464 ) ;
#54 = AXIS2_PLACEMENT_3D ( 'NONE', #342, #291, #442 ) ;
#55 = CARTESIAN_POINT ( 'NONE',  ( 7.000000000000004441, 15.00000000000000000, -36.99999999999982236 ) ) ;
#56 = LINE ( 'NONE', #345, #179 ) ;
#57 = CARTESIAN_POINT ( 'NONE',  ( 52.00000000000000711, 15.00000000000000000, -35.42748412481744680 ) ) ;
#58 = ADVANCED_FACE ( 'NONE', ( #246 ), #528, .F. ) ;
#59 = CARTESIAN_POINT ( 'NONE',  ( -77.50000000000002842, 20.00000000000000000, -33.99999999999980815 ) ) ;
#60 = CARTESIAN_POINT ( 'NONE',  ( -80.00000000000001421, 20.00000000000000000, -39.99999999999982947 ) ) ;
#61 = CARTESIAN_POINT ( 'NONE',  ( 7.000000000000004441, 20.00000000000000000, -36.99999999999982236 ) ) ;
#62 = CARTESIAN_POINT ( 'NONE',  ( -57.00000000000000711, 15.00000000000000000, -35.49999999999982236 ) ) ;
#63 = CARTESIAN_POINT ( 'NONE',  ( -80.60000000000002274, 20.00000000000000000, -39.19999999999982521 ) ) ;
#64 = EDGE_CURVE ( 'NONE', #454, #460, #107, .T. ) ;
#65 = ORIENTED_EDGE ( 'NONE', *, *, #173, .T. ) ;
#66 = DIRECTION ( 'NONE',  ( -0.000000000000000000, -1.000000000000000000, 0.000000000000000000 ) ) ;
#67 = SHAPE_DEFINITION_REPRESENTATION ( #81, #18 ) ;
#68 = ORIENTED_EDGE ( 'NONE', *, *, #254, .T. ) ;
#69 = DIRECTION ( 'NONE',  ( -0.8000000000000002665, 0.000000000000000000, -0.5999999999999997558 ) ) ;
#70 = CARTESIAN_POINT ( 'NONE',  ( -7.000000000000004441, 15.00000000000000000, -36.99999999999982236 ) ) ;
#71 =( LENGTH_UNIT ( ) NAMED_UNIT ( * ) SI_UNIT ( .MILLI., .METRE. ) );
#72 = SURFACE_STYLE_FILL_AREA ( #531 ) ;
#73 = CIRCLE ( 'NONE', #338, 1.500000000000001332 ) ;
#74 = DIRECTION ( 'NONE',  ( 0.000000000000000000, 0.000000000000000000, 1.000000000000000000 ) ) ;
#75 = ORIENTED_EDGE ( 'NONE', *, *, #545, .F. ) ;
#76 = CARTESIAN_POINT ( 'NONE',  ( 52.00000000000000711, 20.00000000000000000, -35.42748412481744680 ) ) ;
#77 = ORIENTED_EDGE ( 'NONE', *, *, #183, .F. ) ;
#78 = ADVANCED_FACE ( 'NONE', ( #2 ), #380, .F. ) ;
#79 = CARTESIAN_POINT ( 'NONE',  ( 0.000000000000000000, 20.00000000000000000, -33.99999999999980815 ) ) ;
#80 = CIRCLE ( 'NONE', #119, 1.572515875182374456 ) ;
#81 = PRODUCT_DEFINITION_SHAPE ( 'NONE', 'NONE',  #362 ) ;
#82 = DIRECTION ( 'NONE',  ( 0.000000000000000000, 1.000000000000000000, 0.000000000000000000 ) ) ;
#83 = EDGE_LOOP ( 'NONE', ( #590, #540, #118, #596 ) ) ;
#84 = ADVANCED_FACE ( 'NONE', ( #145 ), #336, .T. ) ;
#85 = CARTESIAN_POINT ( 'NONE',  ( 52.00000000000000711, 20.00000000000000000, -36.99999999999982236 ) ) ;
#86 = ORIENTED_EDGE ( 'NONE', *, *, #229, .F. ) ;
#87 = DIRECTION ( 'NONE',  ( 0.000000000000000000, -0.000000000000000000, -1.000000000000000000 ) ) ;
#88 = ORIENTED_EDGE ( 'NONE', *, *, #24, .F. ) ;
#89 = FACE_BOUND ( 'NONE', #20, .T. ) ;
#90 = ORIENTED_EDGE ( 'NONE', *, *, #259, .F. ) ;
#91 = ADVANCED_FACE ( 'NONE', ( #8 ), #568, .F. ) ;
#92 = LINE ( 'NONE', #284, #277 ) ;
#93 = VERTEX_POINT ( 'NONE', #492 ) ;
#94 = CARTESIAN_POINT ( 'NONE',  ( -81.98000000000004661, 20.00000000000000000, -37.35999999999980048 ) ) ;
#95 = MANIFOLD_SOLID_BREP ( 'Cut-Extrude4', #379 ) ;
#96 = DIRECTION ( 'NONE',  ( 0.000000000000000000, 0.000000000000000000, 1.000000000000000000 ) ) ;
#97 = DIRECTION ( 'NONE',  ( 0.000000000000000000, 0.000000000000000000, -1.000000000000000000 ) ) ;
#98 = DIRECTION ( 'NONE',  ( -0.000000000000000000, 1.000000000000000000, -0.000000000000000000 ) ) ;
#99 = VECTOR ( 'NONE', #335, 1000.000000000000000 ) ;
#100 = CARTESIAN_POINT ( 'NONE',  ( -81.98000000000004661, -20.00000000000000000, -37.35999999999981469 ) ) ;
#101 = CIRCLE ( 'NONE', #210, 1.500000000000001332 ) ;
#102 = CARTESIAN_POINT ( 'NONE',  ( 52.00000000000000711, 15.00000000000000000, -36.99999999999982236 ) ) ;
#103 = EDGE_CURVE ( 'NONE', #151, #149, #111, .T. ) ;
#104 = ORIENTED_EDGE ( 'NONE', *, *, #275, .T. ) ;
#105 = PLANE ( 'NONE',  #110 ) ;
#106 = ORIENTED_EDGE ( 'NONE', *, *, #375, .F. ) ;
#107 = LINE ( 'NONE', #443, #5 ) ;
#108 = CARTESIAN_POINT ( 'NONE',  ( -57.00000000000000711, 20.00000000000000000, -38.49999999999981526 ) ) ;
#109 = ORIENTED_EDGE ( 'NONE', *, *, #359, .F. ) ;
#110 = AXIS2_PLACEMENT_3D ( 'NONE', #9, #570, #186 ) ;
#111 = LINE ( 'NONE', #409, #208 ) ;
#112 = VECTOR ( 'NONE', #433, 1000.000000000000000 ) ;
#113 = DIRECTION ( 'NONE',  ( 0.000000000000000000, 0.000000000000000000, 1.000000000000000000 ) ) ;
#114 = CYLINDRICAL_SURFACE ( 'NONE', #488, 1.500000000000001332 ) ;
#115 = FACE_OUTER_BOUND ( 'NONE', #41, .T. ) ;
#116 = EDGE_CURVE ( 'NONE', #156, #578, #354, .T. ) ;
#117 = CARTESIAN_POINT ( 'NONE',  ( 7.000000000000004441, 15.00000000000000000, -35.49999999999982236 ) ) ;
#118 = ORIENTED_EDGE ( 'NONE', *, *, #265, .T. ) ;
#119 = AXIS2_PLACEMENT_3D ( 'NONE', #597, #82, #230 ) ;
#120 = VECTOR ( 'NONE', #240, 1000.000000000000000 ) ;
#121 = LINE ( 'NONE', #450, #532 ) ;
#122 = ORIENTED_EDGE ( 'NONE', *, *, #564, .F. ) ;
#123 = CYLINDRICAL_SURFACE ( 'NONE', #365, 1.500000000000001332 ) ;
#124 = ORIENTED_EDGE ( 'NONE', *, *, #128, .T. ) ;
#125 = CARTESIAN_POINT ( 'NONE',  ( -57.00000000000000711, 20.00000000000000000, -36.99999999999981526 ) ) ;
#126 = EDGE_LOOP ( 'NONE', ( #90, #243, #124, #273 ) ) ;
#127 = AXIS2_PLACEMENT_3D ( 'NONE', #61, #332, #517 ) ;
#128 = EDGE_CURVE ( 'NONE', #11, #573, #121, .T. ) ;
#129 = DIRECTION ( 'NONE',  ( 0.000000000000000000, 1.000000000000000000, 0.000000000000000000 ) ) ;
#130 = ORIENTED_EDGE ( 'NONE', *, *, #40, .T. ) ;
#131 = PRESENTATION_LAYER_ASSIGNMENT (  '', '', ( #320 ) ) ;
#132 = PLANE ( 'NONE',  #209 ) ;
#133 = VERTEX_POINT ( 'NONE', #299 ) ;
#134 = DIRECTION ( 'NONE',  ( 0.000000000000000000, 1.000000000000000000, 0.000000000000000000 ) ) ;
#135 = ORIENTED_EDGE ( 'NONE', *, *, #416, .F. ) ;
#136 = FACE_OUTER_BOUND ( 'NONE', #452, .T. ) ;
#137 = VERTEX_POINT ( 'NONE', #534 ) ;
#138 = LINE ( 'NONE', #293, #388 ) ;
#139 = COLOUR_RGB ( '',0.7921568627450980005, 0.8196078431372548767, 0.9333333333333333481 ) ;
#140 = LINE ( 'NONE', #245, #99 ) ;
#141 = ORIENTED_EDGE ( 'NONE', *, *, #193, .T. ) ;
#142 = DIRECTION ( 'NONE',  ( 0.000000000000000000, -0.000000000000000000, 1.000000000000000000 ) ) ;
#143 = AXIS2_PLACEMENT_3D ( 'NONE', #461, #134, #364 ) ;
#144 = CARTESIAN_POINT ( 'NONE',  ( -110.0000000000000000, 20.00000000000000000, 1.765668306999740290E-13 ) ) ;
#145 = FACE_OUTER_BOUND ( 'NONE', #167, .T. ) ;
#146 = CARTESIAN_POINT ( 'NONE',  ( -7.000000000000004441, 15.00000000000000000, -38.49999999999982947 ) ) ;
#147 = EDGE_CURVE ( 'NONE', #405, #201, #348, .T. ) ;
#148 = AXIS2_PLACEMENT_3D ( 'NONE', #529, #474, #524 ) ;
#149 = VERTEX_POINT ( 'NONE', #206 ) ;
#150 = FACE_OUTER_BOUND ( 'NONE', #372, .T. ) ;
#151 = VERTEX_POINT ( 'NONE', #451 ) ;
#152 = DIRECTION ( 'NONE',  ( -0.000000000000000000, 1.000000000000000000, -0.000000000000000000 ) ) ;
#153 = DIRECTION ( 'NONE',  ( -0.000000000000000000, 1.000000000000000000, -0.000000000000000000 ) ) ;
#154 = VERTEX_POINT ( 'NONE', #117 ) ;
#155 = UNCERTAINTY_MEASURE_WITH_UNIT (LENGTH_MEASURE( 1.000000000000000082E-05 ), #304, 'distance_accuracy_value', 'NONE');
#156 = VERTEX_POINT ( 'NONE', #487 ) ;
#157 = ADVANCED_FACE ( 'NONE', ( #115 ), #21, .F. ) ;
#158 = DIRECTION ( 'NONE',  ( 0.000000000000000000, 1.000000000000000000, 0.000000000000000000 ) ) ;
#159 = AXIS2_PLACEMENT_3D ( 'NONE', #242, #197, #96 ) ;
#160 = CARTESIAN_POINT ( 'NONE',  ( -57.00000000000000711, 15.00000000000000000, -36.99999999999981526 ) ) ;
#161 = AXIS2_PLACEMENT_3D ( 'NONE', #289, #477, #194 ) ;
#162 = DIRECTION ( 'NONE',  ( 0.000000000000000000, 1.000000000000000000, 0.000000000000000000 ) ) ;
#163 = DIRECTION ( 'NONE',  ( 0.000000000000000000, 0.000000000000000000, 1.000000000000000000 ) ) ;
#164 = ORIENTED_EDGE ( 'NONE', *, *, #591, .T. ) ;
#165 = EDGE_CURVE ( 'NONE', #311, #185, #101, .T. ) ;
#166 = DIRECTION ( 'NONE',  ( 0.000000000000000000, 1.000000000000000000, 0.000000000000000000 ) ) ;
#167 = EDGE_LOOP ( 'NONE', ( #414, #510, #339, #484, #141, #444, #508 ) ) ;
#168 = AXIS2_PLACEMENT_3D ( 'NONE', #437, #391, #572 ) ;
#169 =( GEOMETRIC_REPRESENTATION_CONTEXT ( 3 ) GLOBAL_UNCERTAINTY_ASSIGNED_CONTEXT ( ( #155 ) ) GLOBAL_UNIT_ASSIGNED_CONTEXT ( ( #304, #207, #539 ) ) REPRESENTATION_CONTEXT ( 'NONE', 'WORKASPACE' ) );
#170 = SURFACE_SIDE_STYLE ('',( #72 ) ) ;
#171 = VERTEX_POINT ( 'NONE', #258 ) ;
#172 = DIRECTION ( 'NONE',  ( 0.000000000000000000, 0.000000000000000000, -1.000000000000000000 ) ) ;
#173 = EDGE_CURVE ( 'NONE', #441, #470, #235, .T. ) ;
#174 = VERTEX_POINT ( 'NONE', #300 ) ;
#175 = DIRECTION ( 'NONE',  ( 0.000000000000000000, -1.000000000000000000, 0.000000000000000000 ) ) ;
#176 = VERTEX_POINT ( 'NONE', #404 ) ;
#177 = CIRCLE ( 'NONE', #236, 1.572515875182374456 ) ;
#178 = LINE ( 'NONE', #550, #533 ) ;
#179 = VECTOR ( 'NONE', #190, 1000.000000000000000 ) ;
#180 = VERTEX_POINT ( 'NONE', #256 ) ;
#181 = FACE_OUTER_BOUND ( 'NONE', #250, .T. ) ;
#182 = VERTEX_POINT ( 'NONE', #494 ) ;
#183 = EDGE_CURVE ( 'NONE', #454, #151, #447, .T. ) ;
#184 = FACE_OUTER_BOUND ( 'NONE', #295, .T. ) ;
#185 = VERTEX_POINT ( 'NONE', #588 ) ;
#186 = DIRECTION ( 'NONE',  ( 0.000000000000000000, -0.000000000000000000, 1.000000000000000000 ) ) ;
#187 = AXIS2_PLACEMENT_3D ( 'NONE', #401, #356, #113 ) ;
#188 = AXIS2_PLACEMENT_3D ( 'NONE', #269, #325, #547 ) ;
#189 = DIRECTION ( 'NONE',  ( 1.000000000000000000, -0.000000000000000000, 0.000000000000000000 ) ) ;
#190 = DIRECTION ( 'NONE',  ( -0.000000000000000000, 1.000000000000000000, -0.000000000000000000 ) ) ;
#191 = EDGE_LOOP ( 'NONE', ( #86, #205, #104, #370 ) ) ;
#192 = LINE ( 'NONE', #384, #218 ) ;
#193 = EDGE_CURVE ( 'NONE', #171, #149, #581, .T. ) ;
#194 = DIRECTION ( 'NONE',  ( 0.000000000000000000, 0.000000000000000000, -1.000000000000000000 ) ) ;
#195 = CARTESIAN_POINT ( 'NONE',  ( 55.98000000000006082, 20.00000000000000000, -39.99999999999982947 ) ) ;
#196 = ORIENTED_EDGE ( 'NONE', *, *, #24, .T. ) ;
#197 = DIRECTION ( 'NONE',  ( 0.000000000000000000, 1.000000000000000000, 0.000000000000000000 ) ) ;
#198 = CIRCLE ( 'NONE', #188, 1.500000000000001332 ) ;
#199 = ORIENTED_EDGE ( 'NONE', *, *, #217, .T. ) ;
#200 = FACE_OUTER_BOUND ( 'NONE', #598, .T. ) ;
#201 = VERTEX_POINT ( 'NONE', #76 ) ;
#202 = EDGE_CURVE ( 'NONE', #174, #133, #399, .T. ) ;
#203 = CARTESIAN_POINT ( 'NONE',  ( 7.000000000000004441, 15.00000000000000000, -38.49999999999982947 ) ) ;
#204 = FACE_OUTER_BOUND ( 'NONE', #191, .T. ) ;
#205 = ORIENTED_EDGE ( 'NONE', *, *, #545, .T. ) ;
#206 = CARTESIAN_POINT ( 'NONE',  ( -79.00000000000001421, -20.00000000000000000, -39.99999999999982947 ) ) ;
#207 =( NAMED_UNIT ( * ) PLANE_ANGLE_UNIT ( ) SI_UNIT ( $, .RADIAN. ) );
#208 = VECTOR ( 'NONE', #215, 1000.000000000000000 ) ;
#209 = AXIS2_PLACEMENT_3D ( 'NONE', #595, #175, #87 ) ;
#210 = AXIS2_PLACEMENT_3D ( 'NONE', #306, #162, #579 ) ;
#211 = SURFACE_STYLE_USAGE ( .BOTH. , #170 ) ;
#212 = DIRECTION ( 'NONE',  ( 0.000000000000000000, 0.000000000000000000, 1.000000000000000000 ) ) ;
#213 = EDGE_CURVE ( 'NONE', #180, #93, #278, .T. ) ;
#214 =( NAMED_UNIT ( * ) SI_UNIT ( $, .STERADIAN. ) SOLID_ANGLE_UNIT ( ) );
#215 = DIRECTION ( 'NONE',  ( -1.000000000000000000, -0.000000000000000000, -0.000000000000000000 ) ) ;
#216 = EDGE_LOOP ( 'NONE', ( #109, #196, #329, #294 ) ) ;
#217 = EDGE_CURVE ( 'NONE', #313, #604, #455, .T. ) ;
#218 = VECTOR ( 'NONE', #490, 1000.000000000000000 ) ;
#219 = CARTESIAN_POINT ( 'NONE',  ( 55.98000000000006082, 20.00000000000000711, -35.58802417830391818 ) ) ;
#220 = VECTOR ( 'NONE', #252, 1000.000000000000000 ) ;
#221 = ORIENTED_EDGE ( 'NONE', *, *, #249, .T. ) ;
#222 = CARTESIAN_POINT ( 'NONE',  ( 7.000000000000004441, 20.00000000000000000, -35.49999999999982236 ) ) ;
#223 = EDGE_LOOP ( 'NONE', ( #465, #44 ) ) ;
#224 = CARTESIAN_POINT ( 'NONE',  ( -7.000000000000004441, 15.00000000000000000, -35.49999999999982236 ) ) ;
#225 = ORIENTED_EDGE ( 'NONE', *, *, #254, .F. ) ;
#226 = AXIS2_PLACEMENT_3D ( 'NONE', #102, #481, #142 ) ;
#227 = CARTESIAN_POINT ( 'NONE',  ( 0.000000000000000000, 20.00000000000000000, 0.000000000000000000 ) ) ;
#228 = ORIENTED_EDGE ( 'NONE', *, *, #302, .F. ) ;
#229 = EDGE_CURVE ( 'NONE', #133, #174, #198, .T. ) ;
#230 = DIRECTION ( 'NONE',  ( 0.000000000000000000, 0.000000000000000000, 1.000000000000000000 ) ) ;
#231 = ORIENTED_EDGE ( 'NONE', *, *, #476, .F. ) ;
#232 = DIRECTION ( 'NONE',  ( 0.000000000000000000, 0.000000000000000000, 1.000000000000000000 ) ) ;
#233 = LINE ( 'NONE', #59, #352 ) ;
#234 = CYLINDRICAL_SURFACE ( 'NONE', #430, 1.572515875182374456 ) ;
#235 = CIRCLE ( 'NONE', #187, 1.572515875182374456 ) ;
#236 = AXIS2_PLACEMENT_3D ( 'NONE', #85, #556, #500 ) ;
#237 = DIRECTION ( 'NONE',  ( 0.5999999999999997558, 0.000000000000000000, -0.8000000000000001554 ) ) ;
#238 = ADVANCED_FACE ( 'NONE', ( #181 ), #132, .F. ) ;
#239 = LINE ( 'NONE', #292, #36 ) ;
#240 = DIRECTION ( 'NONE',  ( -0.000000000000000000, -1.000000000000000000, -0.000000000000000000 ) ) ;
#241 = AXIS2_PLACEMENT_3D ( 'NONE', #55, #432, #566 ) ;
#242 = CARTESIAN_POINT ( 'NONE',  ( -57.00000000000000711, 15.00000000000000000, -36.99999999999981526 ) ) ;
#243 = ORIENTED_EDGE ( 'NONE', *, *, #407, .F. ) ;
#244 = DIRECTION ( 'NONE',  ( 0.000000000000000000, 0.000000000000000000, -1.000000000000000000 ) ) ;
#245 = CARTESIAN_POINT ( 'NONE',  ( 55.98000000000006082, 20.00000000000000000, -39.99999999999982947 ) ) ;
#246 = FACE_OUTER_BOUND ( 'NONE', #38, .T. ) ;
#247 = PRODUCT_RELATED_PRODUCT_CATEGORY ( 'part', '', ( #554 ) ) ;
#248 = CARTESIAN_POINT ( 'NONE',  ( 55.98000000000004661, -20.00000000000000000, 0.000000000000000000 ) ) ;
#249 = EDGE_CURVE ( 'NONE', #154, #313, #178, .T. ) ;
#250 = EDGE_LOOP ( 'NONE', ( #357, #562 ) ) ;
#251 = DIRECTION ( 'NONE',  ( -0.5999999999999997558, -0.000000000000000000, 0.8000000000000001554 ) ) ;
#252 = DIRECTION ( 'NONE',  ( -0.000000000000000000, 1.000000000000000000, -0.000000000000000000 ) ) ;
#253 = ORIENTED_EDGE ( 'NONE', *, *, #10, .F. ) ;
#254 = EDGE_CURVE ( 'NONE', #93, #137, #463, .T. ) ;
#255 = CYLINDRICAL_SURFACE ( 'NONE', #35, 1.499999999999994449 ) ;
#256 = CARTESIAN_POINT ( 'NONE',  ( -77.50000000000004263, 20.00000000000000000, -33.99999999999980815 ) ) ;
#257 = VECTOR ( 'NONE', #459, 1000.000000000000000 ) ;
#258 = CARTESIAN_POINT ( 'NONE',  ( -80.60000000000002274, -20.00000000000000000, -39.19999999999982521 ) ) ;
#259 = EDGE_CURVE ( 'NONE', #506, #180, #424, .T. ) ;
#260 = APPLICATION_PROTOCOL_DEFINITION ( 'draft international standard', 'automotive_design', 1998, #466 ) ;
#261 = CARTESIAN_POINT ( 'NONE',  ( 4.315089768535240289, -20.00000000000000000, 5.434539130434930421 ) ) ;
#262 = CARTESIAN_POINT ( 'NONE',  ( 55.98000000000006082, -20.00000000000000355, -39.99999999999982947 ) ) ;
#263 = EDGE_LOOP ( 'NONE', ( #376, #333, #543, #77 ) ) ;
#264 =( NAMED_UNIT ( * ) PLANE_ANGLE_UNIT ( ) SI_UNIT ( $, .RADIAN. ) );
#265 = EDGE_CURVE ( 'NONE', #522, #559, #608, .T. ) ;
#266 = CARTESIAN_POINT ( 'NONE',  ( 7.000000000000004441, 20.00000000000000000, -36.99999999999982236 ) ) ;
#267 = VECTOR ( 'NONE', #413, 1000.000000000000000 ) ;
#268 = ORIENTED_EDGE ( 'NONE', *, *, #64, .F. ) ;
#269 = CARTESIAN_POINT ( 'NONE',  ( -7.000000000000004441, 15.00000000000000000, -36.99999999999982236 ) ) ;
#270 = AXIS2_PLACEMENT_3D ( 'NONE', #576, #434, #395 ) ;
#271 = ORIENTED_EDGE ( 'NONE', *, *, #259, .T. ) ;
#272 = PLANE ( 'NONE',  #504 ) ;
#273 = ORIENTED_EDGE ( 'NONE', *, *, #40, .F. ) ;
#274 = DIRECTION ( 'NONE',  ( 0.000000000000000000, 0.000000000000000000, -1.000000000000000000 ) ) ;
#275 = EDGE_CURVE ( 'NONE', #185, #311, #287, .T. ) ;
#276 = ORIENTED_EDGE ( 'NONE', *, *, #116, .T. ) ;
#277 = VECTOR ( 'NONE', #382, 1000.000000000000000 ) ;
#278 = LINE ( 'NONE', #79, #523 ) ;
#279 = VERTEX_POINT ( 'NONE', #45 ) ;
#280 = CYLINDRICAL_SURFACE ( 'NONE', #148, 1.500000000000001332 ) ;
#281 = ORIENTED_EDGE ( 'NONE', *, *, #555, .T. ) ;
#282 = PLANE ( 'NONE',  #419 ) ;
#283 = ADVANCED_FACE ( 'NONE', ( #319 ), #272, .T. ) ;
#284 = CARTESIAN_POINT ( 'NONE',  ( 52.00000000000000711, 15.00000000000000000, -35.42748412481744680 ) ) ;
#285 = DIRECTION ( 'NONE',  ( -0.000000000000000000, -1.000000000000000000, -0.000000000000000000 ) ) ;
#286 = CARTESIAN_POINT ( 'NONE',  ( 53.98000000000005372, 20.00000000000000711, -33.99999999999980105 ) ) ;
#287 = CIRCLE ( 'NONE', #349, 1.500000000000001332 ) ;
#288 = AXIS2_PLACEMENT_3D ( 'NONE', #491, #303, #498 ) ;
#289 = CARTESIAN_POINT ( 'NONE',  ( 0.000000000000000000, -20.00000000000000000, 0.000000000000000000 ) ) ;
#290 = FACE_OUTER_BOUND ( 'NONE', #321, .T. ) ;
#291 = DIRECTION ( 'NONE',  ( 0.000000000000000000, 1.000000000000000000, -0.000000000000000000 ) ) ;
#292 = CARTESIAN_POINT ( 'NONE',  ( -79.00000000000001421, 20.00000000000000000, -39.99999999999982947 ) ) ;
#293 = CARTESIAN_POINT ( 'NONE',  ( -110.0000000000000000, -20.00000000000000000, 1.765668306999740290E-13 ) ) ;
#294 = ORIENTED_EDGE ( 'NONE', *, *, #249, .F. ) ;
#295 = EDGE_LOOP ( 'NONE', ( #397, #497, #135, #420 ) ) ;
#296 = CYLINDRICAL_SURFACE ( 'NONE', #368, 1.499999999999994449 ) ;
#297 = EDGE_CURVE ( 'NONE', #470, #441, #80, .T. ) ;
#298 = ORIENTED_EDGE ( 'NONE', *, *, #318, .T. ) ;
#299 = CARTESIAN_POINT ( 'NONE',  ( -7.000000000000004441, 15.00000000000000000, -38.49999999999982947 ) ) ;
#300 = CARTESIAN_POINT ( 'NONE',  ( -7.000000000000004441, 15.00000000000000000, -35.49999999999982236 ) ) ;
#301 = PRODUCT_CONTEXT ( 'NONE', #406, 'mechanical' ) ;
#302 = EDGE_CURVE ( 'NONE', #499, #171, #358, .T. ) ;
#303 = DIRECTION ( 'NONE',  ( -0.000000000000000000, 1.000000000000000000, -0.000000000000000000 ) ) ;
#304 =( LENGTH_UNIT ( ) NAMED_UNIT ( * ) SI_UNIT ( .MILLI., .METRE. ) );
#305 = CIRCLE ( 'NONE', #42, 2.000000000000001776 ) ;
#306 = CARTESIAN_POINT ( 'NONE',  ( -7.000000000000004441, 20.00000000000000000, -36.99999999999982236 ) ) ;
#307 = DIRECTION ( 'NONE',  ( 1.000000000000000000, 0.000000000000000000, 0.000000000000000000 ) ) ;
#308 = ORIENTED_EDGE ( 'NONE', *, *, #193, .F. ) ;
#309 = DIRECTION ( 'NONE',  ( 0.8000000000000001554, -0.000000000000000000, 0.5999999999999997558 ) ) ;
#310 = EDGE_CURVE ( 'NONE', #201, #405, #177, .T. ) ;
#311 = VERTEX_POINT ( 'NONE', #37 ) ;
#312 = LINE ( 'NONE', #224, #440 ) ;
#313 = VERTEX_POINT ( 'NONE', #222 ) ;
#314 = DIRECTION ( 'NONE',  ( 0.000000000000000000, 0.000000000000000000, 1.000000000000000000 ) ) ;
#315 = AXIS2_PLACEMENT_3D ( 'NONE', #592, #166, #163 ) ;
#316 = CIRCLE ( 'NONE', #54, 1.500000000000001332 ) ;
#317 = ORIENTED_EDGE ( 'NONE', *, *, #555, .F. ) ;
#318 = EDGE_CURVE ( 'NONE', #174, #311, #312, .T. ) ;
#319 = FACE_OUTER_BOUND ( 'NONE', #346, .T. ) ;
#320 = STYLED_ITEM ( 'NONE', ( #350 ), #95 ) ;
#321 = EDGE_LOOP ( 'NONE', ( #268, #501, #15, #436 ) ) ;
#322 = ADVANCED_FACE ( 'NONE', ( #89, #43, #415, #600, #552 ), #323, .F. ) ;
#323 = PLANE ( 'NONE',  #599 ) ;
#324 = ORIENTED_EDGE ( 'NONE', *, *, #213, .T. ) ;
#325 = DIRECTION ( 'NONE',  ( 0.000000000000000000, 1.000000000000000000, 0.000000000000000000 ) ) ;
#326 = ORIENTED_EDGE ( 'NONE', *, *, #64, .T. ) ;
#327 = CARTESIAN_POINT ( 'NONE',  ( -81.98000000000003240, 20.00000000000000000, -37.35999999999979337 ) ) ;
#328 = AXIS2_PLACEMENT_3D ( 'NONE', #587, #158, #446 ) ;
#329 = ORIENTED_EDGE ( 'NONE', *, *, #390, .T. ) ;
#330 = LINE ( 'NONE', #516, #112 ) ;
#331 = ADVANCED_FACE ( 'NONE', ( #544 ), #123, .F. ) ;
#332 = DIRECTION ( 'NONE',  ( 0.000000000000000000, 1.000000000000000000, -0.000000000000000000 ) ) ;
#333 = ORIENTED_EDGE ( 'NONE', *, *, #564, .T. ) ;
#334 = DIRECTION ( 'NONE',  ( 0.000000000000000000, 0.000000000000000000, 1.000000000000000000 ) ) ;
#335 = DIRECTION ( 'NONE',  ( -0.000000000000000000, -0.000000000000000000, 1.000000000000000000 ) ) ;
#336 = PLANE ( 'NONE',  #161 ) ;
#337 = DIRECTION ( 'NONE',  ( 1.000000000000000000, 0.000000000000000000, -0.000000000000000000 ) ) ;
#338 = AXIS2_PLACEMENT_3D ( 'NONE', #521, #374, #558 ) ;
#339 = ORIENTED_EDGE ( 'NONE', *, *, #128, .F. ) ;
#340 = PLANE ( 'NONE',  #569 ) ;
#341 = ORIENTED_EDGE ( 'NONE', *, *, #375, .T. ) ;
#342 = CARTESIAN_POINT ( 'NONE',  ( 7.000000000000004441, 15.00000000000000000, -36.99999999999982236 ) ) ;
#343 = EDGE_CURVE ( 'NONE', #454, #137, #140, .T. ) ;
#344 = LINE ( 'NONE', #62, #431 ) ;
#345 = CARTESIAN_POINT ( 'NONE',  ( -57.00000000000000711, 15.00000000000000000, -38.49999999999981526 ) ) ;
#346 = EDGE_LOOP ( 'NONE', ( #601, #606 ) ) ;
#347 = ORIENTED_EDGE ( 'NONE', *, *, #173, .F. ) ;
#348 = CIRCLE ( 'NONE', #315, 1.572515875182374456 ) ;
#349 = AXIS2_PLACEMENT_3D ( 'NONE', #605, #129, #314 ) ;
#350 = PRESENTATION_STYLE_ASSIGNMENT (( #211 ) ) ;
#351 = EDGE_CURVE ( 'NONE', #279, #176, #582, .T. ) ;
#352 = VECTOR ( 'NONE', #285, 1000.000000000000000 ) ;
#353 = CARTESIAN_POINT ( 'NONE',  ( -101.1800000000000352, -20.00000000000000000, -51.75999999999979195 ) ) ;
#354 = LINE ( 'NONE', #261, #503 ) ;
#355 = DIRECTION ( 'NONE',  ( -1.000000000000000000, 0.000000000000000000, 0.000000000000000000 ) ) ;
#356 = DIRECTION ( 'NONE',  ( 0.000000000000000000, 1.000000000000000000, 0.000000000000000000 ) ) ;
#357 = ORIENTED_EDGE ( 'NONE', *, *, #423, .T. ) ;
#358 = LINE ( 'NONE', #507, #257 ) ;
#359 = EDGE_CURVE ( 'NONE', #182, #154, #316, .T. ) ;
#360 = ORIENTED_EDGE ( 'NONE', *, *, #520, .F. ) ;
#361 = DIRECTION ( 'NONE',  ( 0.8000000000000002665, 0.000000000000000000, 0.5999999999999997558 ) ) ;
#362 = PRODUCT_DEFINITION ( 'UNKNOWN', '', #514, #408 ) ;
#363 = ORIENTED_EDGE ( 'NONE', *, *, #351, .T. ) ;
#364 = DIRECTION ( 'NONE',  ( 0.000000000000000000, 0.000000000000000000, 1.000000000000000000 ) ) ;
#365 = AXIS2_PLACEMENT_3D ( 'NONE', #33, #385, #429 ) ;
#366 = EDGE_LOOP ( 'NONE', ( #324, #68, #32, #326, #518, #422, #271 ) ) ;
#367 =( GEOMETRIC_REPRESENTATION_CONTEXT ( 3 ) GLOBAL_UNCERTAINTY_ASSIGNED_CONTEXT ( ( #483 ) ) GLOBAL_UNIT_ASSIGNED_CONTEXT ( ( #71, #264, #214 ) ) REPRESENTATION_CONTEXT ( 'NONE', 'WORKASPACE' ) );
#368 = AXIS2_PLACEMENT_3D ( 'NONE', #519, #47, #381 ) ;
#369 = CARTESIAN_POINT ( 'NONE',  ( -11.58000000000008534, 20.00000000000000000, 15.44000000000012562 ) ) ;
#370 = ORIENTED_EDGE ( 'NONE', *, *, #318, .F. ) ;
#371 = DIRECTION ( 'NONE',  ( -0.000000000000000000, 1.000000000000000000, -0.000000000000000000 ) ) ;
#372 = EDGE_LOOP ( 'NONE', ( #65, #425 ) ) ;
#373 = ADVANCED_FACE ( 'NONE', ( #184 ), #479, .F. ) ;
#374 = DIRECTION ( 'NONE',  ( 0.000000000000000000, 1.000000000000000000, -0.000000000000000000 ) ) ;
#375 = EDGE_CURVE ( 'NONE', #441, #201, #92, .T. ) ;
#376 = ORIENTED_EDGE ( 'NONE', *, *, #343, .T. ) ;
#377 = AXIS2_PLACEMENT_3D ( 'NONE', #144, #475, #237 ) ;
#378 = DIRECTION ( 'NONE',  ( -0.5999999999999997558, -0.000000000000000000, 0.8000000000000001554 ) ) ;
#379 = CLOSED_SHELL ( 'NONE', ( #537, #580, #78, #512, #58, #322, #84, #469, #373, #157, #458, #445, #238, #331, #283, #602, #485, #16, #91, #585, #453 ) ) ;
#380 = CYLINDRICAL_SURFACE ( 'NONE', #241, 1.500000000000001332 ) ;
#381 = DIRECTION ( 'NONE',  ( 0.000000000000000000, 0.000000000000000000, 1.000000000000000000 ) ) ;
#382 = DIRECTION ( 'NONE',  ( -0.000000000000000000, 1.000000000000000000, -0.000000000000000000 ) ) ;
#383 = ORIENTED_EDGE ( 'NONE', *, *, #147, .T. ) ;
#384 = CARTESIAN_POINT ( 'NONE',  ( 52.00000000000000711, 15.00000000000000000, -38.57251587518219793 ) ) ;
#385 = DIRECTION ( 'NONE',  ( -0.000000000000000000, 1.000000000000000000, -0.000000000000000000 ) ) ;
#386 = LINE ( 'NONE', #203, #220 ) ;
#387 = CARTESIAN_POINT ( 'NONE',  ( -79.00000000000001421, 20.00000000000000000, -39.99999999999982947 ) ) ;
#388 = VECTOR ( 'NONE', #378, 1000.000000000000000 ) ;
#389 = ORIENTED_EDGE ( 'NONE', *, *, #1, .T. ) ;
#390 = EDGE_CURVE ( 'NONE', #604, #313, #400, .T. ) ;
#391 = DIRECTION ( 'NONE',  ( 0.000000000000000000, 1.000000000000000000, 0.000000000000000000 ) ) ;
#392 = ORIENTED_EDGE ( 'NONE', *, *, #265, .F. ) ;
#393 = CARTESIAN_POINT ( 'NONE',  ( 52.00000000000000711, 15.00000000000000000, -36.99999999999982236 ) ) ;
#394 = ORIENTED_EDGE ( 'NONE', *, *, #423, .F. ) ;
#395 = DIRECTION ( 'NONE',  ( -1.000000000000000000, 0.000000000000000000, -0.000000000000000000 ) ) ;
#396 = DIRECTION ( 'NONE',  ( 0.000000000000000000, 0.000000000000000000, 1.000000000000000000 ) ) ;
#397 = ORIENTED_EDGE ( 'NONE', *, *, #495, .T. ) ;
#398 = EDGE_CURVE ( 'NONE', #559, #522, #541, .T. ) ;
#399 = CIRCLE ( 'NONE', #143, 1.500000000000001332 ) ;
#400 = CIRCLE ( 'NONE', #127, 1.500000000000001332 ) ;
#401 = CARTESIAN_POINT ( 'NONE',  ( 52.00000000000000711, 15.00000000000000000, -36.99999999999982236 ) ) ;
#402 = CARTESIAN_POINT ( 'NONE',  ( -79.00000000000001421, -20.00000000000000000, -37.99999999999982236 ) ) ;
#403 = CARTESIAN_POINT ( 'NONE',  ( 7.000000000000004441, 20.00000000000000000, -38.49999999999982947 ) ) ;
#404 = CARTESIAN_POINT ( 'NONE',  ( -57.00000000000000711, 15.00000000000000000, -38.49999999999981526 ) ) ;
#405 = VERTEX_POINT ( 'NONE', #49 ) ;
#406 = APPLICATION_CONTEXT ( 'automotive_design' ) ;
#407 = EDGE_CURVE ( 'NONE', #11, #506, #472, .T. ) ;
#408 = PRODUCT_DEFINITION_CONTEXT ( 'detailed design', #466, 'design' ) ;
#409 = CARTESIAN_POINT ( 'NONE',  ( -80.00000000000001421, -20.00000000000000000, -39.99999999999982947 ) ) ;
#410 = ORIENTED_EDGE ( 'NONE', *, *, #275, .F. ) ;
#411 = CIRCLE ( 'NONE', #328, 1.499999999999994449 ) ;
#412 = VECTOR ( 'NONE', #189, 1000.000000000000000 ) ;
#413 = DIRECTION ( 'NONE',  ( 0.7831511052909481130, -0.000000000000000000, -0.6218314452338080667 ) ) ;
#414 = ORIENTED_EDGE ( 'NONE', *, *, #116, .F. ) ;
#415 = FACE_BOUND ( 'NONE', #571, .T. ) ;
#416 = EDGE_CURVE ( 'NONE', #499, #506, #53, .T. ) ;
#417 = ORIENTED_EDGE ( 'NONE', *, *, #297, .F. ) ;
#418 = DIRECTION ( 'NONE',  ( -0.000000000000000000, 1.000000000000000000, -0.000000000000000000 ) ) ;
#419 = AXIS2_PLACEMENT_3D ( 'NONE', #471, #439, #563 ) ;
#420 = ORIENTED_EDGE ( 'NONE', *, *, #302, .T. ) ;
#421 = CARTESIAN_POINT ( 'NONE',  ( -7.000000000000004441, 15.00000000000000000, -36.99999999999982236 ) ) ;
#422 = ORIENTED_EDGE ( 'NONE', *, *, #416, .T. ) ;
#423 = EDGE_CURVE ( 'NONE', #154, #182, #73, .T. ) ;
#424 = LINE ( 'NONE', #369, #549 ) ;
#425 = ORIENTED_EDGE ( 'NONE', *, *, #297, .T. ) ;
#426 = LINE ( 'NONE', #146, #27 ) ;
#427 = DIRECTION ( 'NONE',  ( -1.000000000000000000, -0.000000000000000000, -0.000000000000000000 ) ) ;
#428 = FACE_OUTER_BOUND ( 'NONE', #83, .T. ) ;
#429 = DIRECTION ( 'NONE',  ( 0.000000000000000000, 0.000000000000000000, 1.000000000000000000 ) ) ;
#430 = AXIS2_PLACEMENT_3D ( 'NONE', #393, #153, #334 ) ;
#431 = VECTOR ( 'NONE', #473, 1000.000000000000000 ) ;
#432 = DIRECTION ( 'NONE',  ( -0.000000000000000000, 1.000000000000000000, -0.000000000000000000 ) ) ;
#433 = DIRECTION ( 'NONE',  ( -0.000000000000000000, -1.000000000000000000, -0.000000000000000000 ) ) ;
#434 = DIRECTION ( 'NONE',  ( 0.000000000000000000, 0.000000000000000000, -1.000000000000000000 ) ) ;
#435 = FACE_OUTER_BOUND ( 'NONE', #527, .T. ) ;
#436 = ORIENTED_EDGE ( 'NONE', *, *, #10, .T. ) ;
#437 = CARTESIAN_POINT ( 'NONE',  ( -57.00000000000000711, 20.00000000000000000, -36.99999999999981526 ) ) ;
#438 = CARTESIAN_POINT ( 'NONE',  ( 77.50000000000002842, -20.00000000000000000, -33.99999999999980815 ) ) ;
#439 = DIRECTION ( 'NONE',  ( -0.6218314452338079557, 0.000000000000000000, -0.7831511052909481130 ) ) ;
#440 = VECTOR ( 'NONE', #371, 1000.000000000000000 ) ;
#441 = VERTEX_POINT ( 'NONE', #57 ) ;
#442 = DIRECTION ( 'NONE',  ( 0.000000000000000000, 0.000000000000000000, -1.000000000000000000 ) ) ;
#443 = CARTESIAN_POINT ( 'NONE',  ( -80.00000000000001421, 20.00000000000000000, -39.99999999999982947 ) ) ;
#444 = ORIENTED_EDGE ( 'NONE', *, *, #103, .F. ) ;
#445 = ADVANCED_FACE ( 'NONE', ( #136 ), #280, .F. ) ;
#446 = DIRECTION ( 'NONE',  ( 0.000000000000000000, 0.000000000000000000, 1.000000000000000000 ) ) ;
#447 = LINE ( 'NONE', #23, #26 ) ;
#448 = CARTESIAN_POINT ( 'NONE',  ( 55.98000000000004661, -20.00000000000000000, -35.58802417830391107 ) ) ;
#449 = VECTOR ( 'NONE', #482, 1000.000000000000000 ) ;
#450 = CARTESIAN_POINT ( 'NONE',  ( -101.1800000000000352, -20.00000000000000000, -51.75999999999979195 ) ) ;
#451 = CARTESIAN_POINT ( 'NONE',  ( 55.98000000000004661, -20.00000000000000000, -39.99999999999982947 ) ) ;
#452 = EDGE_LOOP ( 'NONE', ( #88, #394, #221, #199 ) ) ;
#453 = ADVANCED_FACE ( 'NONE', ( #478 ), #282, .F. ) ;
#454 = VERTEX_POINT ( 'NONE', #195 ) ;
#455 = CIRCLE ( 'NONE', #493, 1.500000000000001332 ) ;
#456 = DIRECTION ( 'NONE',  ( 0.000000000000000000, 1.000000000000000000, -0.000000000000000000 ) ) ;
#457 = ORIENTED_EDGE ( 'NONE', *, *, #575, .T. ) ;
#458 = ADVANCED_FACE ( 'NONE', ( #150 ), #3, .T. ) ;
#459 = DIRECTION ( 'NONE',  ( 0.000000000000000000, -1.000000000000000000, 0.000000000000000000 ) ) ;
#460 = VERTEX_POINT ( 'NONE', #387 ) ;
#461 = CARTESIAN_POINT ( 'NONE',  ( -7.000000000000004441, 15.00000000000000000, -36.99999999999982236 ) ) ;
#462 = ORIENTED_EDGE ( 'NONE', *, *, #575, .F. ) ;
#463 = LINE ( 'NONE', #219, #267 ) ;
#464 = VECTOR ( 'NONE', #251, 1000.000000000000000 ) ;
#465 = ORIENTED_EDGE ( 'NONE', *, *, #310, .F. ) ;
#466 = APPLICATION_CONTEXT ( 'automotive_design' ) ;
#467 = DIRECTION ( 'NONE',  ( 0.000000000000000000, -0.000000000000000000, 1.000000000000000000 ) ) ;
#468 = ORIENTED_EDGE ( 'NONE', *, *, #48, .T. ) ;
#469 = ADVANCED_FACE ( 'NONE', ( #290 ), #340, .F. ) ;
#470 = VERTEX_POINT ( 'NONE', #526 ) ;
#471 = CARTESIAN_POINT ( 'NONE',  ( 55.98000000000006082, 20.00000000000000711, -35.58802417830391818 ) ) ;
#472 = LINE ( 'NONE', #327, #449 ) ;
#473 = DIRECTION ( 'NONE',  ( -0.000000000000000000, 1.000000000000000000, -0.000000000000000000 ) ) ;
#474 = DIRECTION ( 'NONE',  ( -0.000000000000000000, 1.000000000000000000, -0.000000000000000000 ) ) ;
#475 = DIRECTION ( 'NONE',  ( 0.8000000000000001554, -0.000000000000000000, 0.5999999999999997558 ) ) ;
#476 = EDGE_CURVE ( 'NONE', #460, #499, #305, .T. ) ;
#477 = DIRECTION ( 'NONE',  ( 0.000000000000000000, -1.000000000000000000, -0.000000000000000000 ) ) ;
#478 = FACE_OUTER_BOUND ( 'NONE', #525, .T. ) ;
#479 = PLANE ( 'NONE',  #377 ) ;
#480 = FACE_OUTER_BOUND ( 'NONE', #593, .T. ) ;
#481 = DIRECTION ( 'NONE',  ( 0.000000000000000000, 1.000000000000000000, 0.000000000000000000 ) ) ;
#482 = DIRECTION ( 'NONE',  ( 0.000000000000000000, 1.000000000000000000, 0.000000000000000000 ) ) ;
#483 = UNCERTAINTY_MEASURE_WITH_UNIT (LENGTH_MEASURE( 1.000000000000000082E-05 ), #71, 'distance_accuracy_value', 'NONE');
#484 = ORIENTED_EDGE ( 'NONE', *, *, #495, .F. ) ;
#485 = ADVANCED_FACE ( 'NONE', ( #435 ), #105, .T. ) ;
#486 = ORIENTED_EDGE ( 'NONE', *, *, #213, .F. ) ;
#487 = CARTESIAN_POINT ( 'NONE',  ( 53.98000000000006082, -20.00000000000000000, -33.99999999999980815 ) ) ;
#488 = AXIS2_PLACEMENT_3D ( 'NONE', #70, #589, #29 ) ;
#489 = AXIS2_PLACEMENT_3D ( 'NONE', #12, #66, #97 ) ;
#490 = DIRECTION ( 'NONE',  ( -0.000000000000000000, 1.000000000000000000, -0.000000000000000000 ) ) ;
#491 = CARTESIAN_POINT ( 'NONE',  ( 52.00000000000000711, 15.00000000000000000, -36.99999999999982236 ) ) ;
#492 = CARTESIAN_POINT ( 'NONE',  ( 53.98000000000005372, 20.00000000000000711, -33.99999999999980105 ) ) ;
#493 = AXIS2_PLACEMENT_3D ( 'NONE', #266, #456, #172 ) ;
#494 = CARTESIAN_POINT ( 'NONE',  ( 7.000000000000004441, 15.00000000000000000, -38.49999999999982947 ) ) ;
#495 = EDGE_CURVE ( 'NONE', #171, #11, #138, .T. ) ;
#496 = APPLICATION_PROTOCOL_DEFINITION ( 'draft international standard', 'automotive_design', 1998, #406 ) ;
#497 = ORIENTED_EDGE ( 'NONE', *, *, #407, .T. ) ;
#498 = DIRECTION ( 'NONE',  ( 0.000000000000000000, 0.000000000000000000, 1.000000000000000000 ) ) ;
#499 = VERTEX_POINT ( 'NONE', #63 ) ;
#500 = DIRECTION ( 'NONE',  ( 0.000000000000000000, 0.000000000000000000, 1.000000000000000000 ) ) ;
#501 = ORIENTED_EDGE ( 'NONE', *, *, #183, .T. ) ;
#502 = EDGE_CURVE ( 'NONE', #151, #578, #51, .T. ) ;
#503 = VECTOR ( 'NONE', #31, 999.9999999999998863 ) ;
#504 = AXIS2_PLACEMENT_3D ( 'NONE', #421, #505, #467 ) ;
#505 = DIRECTION ( 'NONE',  ( 0.000000000000000000, 1.000000000000000000, 0.000000000000000000 ) ) ;
#506 = VERTEX_POINT ( 'NONE', #94 ) ;
#507 = CARTESIAN_POINT ( 'NONE',  ( -80.60000000000002274, 20.00000000000000000, -39.19999999999982521 ) ) ;
#508 = ORIENTED_EDGE ( 'NONE', *, *, #502, .T. ) ;
#509 = DIRECTION ( 'NONE',  ( 0.000000000000000000, 0.000000000000000000, 1.000000000000000000 ) ) ;
#510 = ORIENTED_EDGE ( 'NONE', *, *, #1, .F. ) ;
#511 = DIRECTION ( 'NONE',  ( 0.000000000000000000, -1.000000000000000000, -0.000000000000000000 ) ) ;
#512 = ADVANCED_FACE ( 'NONE', ( #200 ), #234, .F. ) ;
#513 = EDGE_LOOP ( 'NONE', ( #46, #410 ) ) ;
#514 = PRODUCT_DEFINITION_FORMATION_WITH_SPECIFIED_SOURCE ( 'ANY', '', #554, .NOT_KNOWN. ) ;
#515 = ORIENTED_EDGE ( 'NONE', *, *, #351, .F. ) ;
#516 = CARTESIAN_POINT ( 'NONE',  ( 55.98000000000006082, 20.00000000000000711, -35.58802417830391818 ) ) ;
#517 = DIRECTION ( 'NONE',  ( 0.000000000000000000, 0.000000000000000000, -1.000000000000000000 ) ) ;
#518 = ORIENTED_EDGE ( 'NONE', *, *, #476, .T. ) ;
#519 = CARTESIAN_POINT ( 'NONE',  ( -57.00000000000000711, 15.00000000000000000, -36.99999999999981526 ) ) ;
#520 = EDGE_CURVE ( 'NONE', #176, #522, #56, .T. ) ;
#521 = CARTESIAN_POINT ( 'NONE',  ( 7.000000000000004441, 15.00000000000000000, -36.99999999999982236 ) ) ;
#522 = VERTEX_POINT ( 'NONE', #108 ) ;
#523 = VECTOR ( 'NONE', #39, 1000.000000000000000 ) ;
#524 = DIRECTION ( 'NONE',  ( 0.000000000000000000, 0.000000000000000000, 1.000000000000000000 ) ) ;
#525 = EDGE_LOOP ( 'NONE', ( #122, #225, #281, #276 ) ) ;
#526 = CARTESIAN_POINT ( 'NONE',  ( 52.00000000000000711, 15.00000000000000000, -38.57251587518219793 ) ) ;
#527 = EDGE_LOOP ( 'NONE', ( #363, #164 ) ) ;
#528 = PLANE ( 'NONE',  #270 ) ;
#529 = CARTESIAN_POINT ( 'NONE',  ( 7.000000000000004441, 15.00000000000000000, -36.99999999999982236 ) ) ;
#530 = EDGE_LOOP ( 'NONE', ( #360, #515, #468, #557 ) ) ;
#531 = FILL_AREA_STYLE ('',( #538 ) ) ;
#532 = VECTOR ( 'NONE', #309, 1000.000000000000000 ) ;
#533 = VECTOR ( 'NONE', #418, 1000.000000000000000 ) ;
#534 = CARTESIAN_POINT ( 'NONE',  ( 55.98000000000006082, 20.00000000000000711, -35.58802417830391818 ) ) ;
#535 = DIRECTION ( 'NONE',  ( -0.000000000000000000, 1.000000000000000000, -0.000000000000000000 ) ) ;
#536 = DIRECTION ( 'NONE',  ( 0.5999999999999997558, 0.000000000000000000, -0.8000000000000002665 ) ) ;
#537 = ADVANCED_FACE ( 'NONE', ( #428 ), #296, .F. ) ;
#538 = FILL_AREA_STYLE_COLOUR ( '', #139 ) ;
#539 =( NAMED_UNIT ( * ) SI_UNIT ( $, .STERADIAN. ) SOLID_ANGLE_UNIT ( ) );
#540 = ORIENTED_EDGE ( 'NONE', *, *, #520, .T. ) ;
#541 = CIRCLE ( 'NONE', #168, 1.499999999999994449 ) ;
#542 = DIRECTION ( 'NONE',  ( 0.000000000000000000, 0.000000000000000000, -1.000000000000000000 ) ) ;
#543 = ORIENTED_EDGE ( 'NONE', *, *, #502, .F. ) ;
#544 = FACE_OUTER_BOUND ( 'NONE', #6, .T. ) ;
#545 = EDGE_CURVE ( 'NONE', #133, #185, #426, .T. ) ;
#546 = ORIENTED_EDGE ( 'NONE', *, *, #390, .F. ) ;
#547 = DIRECTION ( 'NONE',  ( 0.000000000000000000, 0.000000000000000000, 1.000000000000000000 ) ) ;
#548 = ORIENTED_EDGE ( 'NONE', *, *, #165, .T. ) ;
#549 = VECTOR ( 'NONE', #361, 1000.000000000000000 ) ;
#550 = CARTESIAN_POINT ( 'NONE',  ( 7.000000000000004441, 15.00000000000000000, -35.49999999999982236 ) ) ;
#551 = ORIENTED_EDGE ( 'NONE', *, *, #398, .F. ) ;
#552 = FACE_OUTER_BOUND ( 'NONE', #366, .T. ) ;
#553 = ORIENTED_EDGE ( 'NONE', *, *, #217, .F. ) ;
#554 = PRODUCT ( 'Frame Railing Left', 'Frame Railing Left', '', ( #301 ) ) ;
#555 = EDGE_CURVE ( 'NONE', #93, #156, #607, .T. ) ;
#556 = DIRECTION ( 'NONE',  ( 0.000000000000000000, 1.000000000000000000, 0.000000000000000000 ) ) ;
#557 = ORIENTED_EDGE ( 'NONE', *, *, #398, .T. ) ;
#558 = DIRECTION ( 'NONE',  ( 0.000000000000000000, 0.000000000000000000, -1.000000000000000000 ) ) ;
#559 = VERTEX_POINT ( 'NONE', #560 ) ;
#560 = CARTESIAN_POINT ( 'NONE',  ( -57.00000000000000711, 20.00000000000000000, -35.49999999999982236 ) ) ;
#561 = MECHANICAL_DESIGN_GEOMETRIC_PRESENTATION_REPRESENTATION (  '', ( #320 ), #367 ) ;
#562 = ORIENTED_EDGE ( 'NONE', *, *, #359, .T. ) ;
#563 = DIRECTION ( 'NONE',  ( -0.7831511052909481130, 0.000000000000000000, 0.6218314452338079557 ) ) ;
#564 = EDGE_CURVE ( 'NONE', #137, #578, #330, .T. ) ;
#565 = CARTESIAN_POINT ( 'NONE',  ( -110.0000000000000000, 20.00000000000000000, 1.765668306999740290E-13 ) ) ;
#566 = DIRECTION ( 'NONE',  ( 0.000000000000000000, 0.000000000000000000, 1.000000000000000000 ) ) ;
#567 = DIRECTION ( 'NONE',  ( 0.000000000000000000, 1.000000000000000000, 0.000000000000000000 ) ) ;
#568 = PLANE ( 'NONE',  #583 ) ;
#569 = AXIS2_PLACEMENT_3D ( 'NONE', #60, #232, #337 ) ;
#570 = DIRECTION ( 'NONE',  ( 0.000000000000000000, 1.000000000000000000, 0.000000000000000000 ) ) ;
#571 = EDGE_LOOP ( 'NONE', ( #553, #546 ) ) ;
#572 = DIRECTION ( 'NONE',  ( 0.000000000000000000, 0.000000000000000000, 1.000000000000000000 ) ) ;
#573 = VERTEX_POINT ( 'NONE', #7 ) ;
#574 = CARTESIAN_POINT ( 'NONE',  ( -79.00000000000001421, 20.00000000000000000, -37.99999999999982236 ) ) ;
#575 = EDGE_CURVE ( 'NONE', #470, #405, #192, .T. ) ;
#576 = CARTESIAN_POINT ( 'NONE',  ( 77.50000000000002842, 20.00000000000000000, -33.99999999999980815 ) ) ;
#577 = FACE_OUTER_BOUND ( 'NONE', #530, .T. ) ;
#578 = VERTEX_POINT ( 'NONE', #448 ) ;
#579 = DIRECTION ( 'NONE',  ( 0.000000000000000000, 0.000000000000000000, 1.000000000000000000 ) ) ;
#580 = ADVANCED_FACE ( 'NONE', ( #204 ), #114, .F. ) ;
#581 = CIRCLE ( 'NONE', #52, 2.000000000000001776 ) ;
#582 = CIRCLE ( 'NONE', #159, 1.499999999999994449 ) ;
#583 = AXIS2_PLACEMENT_3D ( 'NONE', #353, #536, #69 ) ;
#584 = FACE_OUTER_BOUND ( 'NONE', #263, .T. ) ;
#585 = ADVANCED_FACE ( 'NONE', ( #584 ), #22, .F. ) ;
#586 = DIRECTION ( 'NONE',  ( -0.000000000000000000, -1.000000000000000000, -0.000000000000000000 ) ) ;
#587 = CARTESIAN_POINT ( 'NONE',  ( -57.00000000000000711, 15.00000000000000000, -36.99999999999981526 ) ) ;
#588 = CARTESIAN_POINT ( 'NONE',  ( -7.000000000000004441, 20.00000000000000000, -38.49999999999982947 ) ) ;
#589 = DIRECTION ( 'NONE',  ( -0.000000000000000000, 1.000000000000000000, -0.000000000000000000 ) ) ;
#590 = ORIENTED_EDGE ( 'NONE', *, *, #591, .F. ) ;
#591 = EDGE_CURVE ( 'NONE', #176, #279, #411, .T. ) ;
#592 = CARTESIAN_POINT ( 'NONE',  ( 52.00000000000000711, 20.00000000000000000, -36.99999999999982236 ) ) ;
#593 = EDGE_LOOP ( 'NONE', ( #231, #253, #308, #228 ) ) ;
#594 = AXIS2_PLACEMENT_3D ( 'NONE', #262, #355, #212 ) ;
#595 = CARTESIAN_POINT ( 'NONE',  ( 7.000000000000004441, 15.00000000000000000, -36.99999999999982236 ) ) ;
#596 = ORIENTED_EDGE ( 'NONE', *, *, #48, .F. ) ;
#597 = CARTESIAN_POINT ( 'NONE',  ( 52.00000000000000711, 15.00000000000000000, -36.99999999999982236 ) ) ;
#598 = EDGE_LOOP ( 'NONE', ( #417, #457, #383, #106 ) ) ;
#599 = AXIS2_PLACEMENT_3D ( 'NONE', #227, #511, #274 ) ;
#600 = FACE_BOUND ( 'NONE', #223, .T. ) ;
#601 = ORIENTED_EDGE ( 'NONE', *, *, #202, .T. ) ;
#602 = ADVANCED_FACE ( 'NONE', ( #577 ), #255, .F. ) ;
#603 = DIRECTION ( 'NONE',  ( 0.000000000000000000, 1.000000000000000000, 0.000000000000000000 ) ) ;
#604 = VERTEX_POINT ( 'NONE', #403 ) ;
#605 = CARTESIAN_POINT ( 'NONE',  ( -7.000000000000004441, 20.00000000000000000, -36.99999999999982236 ) ) ;
#606 = ORIENTED_EDGE ( 'NONE', *, *, #229, .T. ) ;
#607 = LINE ( 'NONE', #286, #120 ) ;
#608 = CIRCLE ( 'NONE', #25, 1.499999999999994449 ) ;
ENDSEC;
END-ISO-10303-21;
