ISO-10303-21;
HEADER;
FILE_DESCRIPTION (( 'STEP AP214' ),
    '1' );
FILE_NAME ('Frame-Railing-Right.STEP',
    '2026-05-07T19:05:52',
    ( '' ),
    ( '' ),
    'SwSTEP 2.0',
    'SolidWorks 2026',
    '' );
FILE_SCHEMA (( 'AUTOMOTIVE_DESIGN' ));
ENDSEC;

DATA;
#1 = VERTEX_POINT ( 'NONE', #108 ) ;
#2 = PRESENTATION_STYLE_ASSIGNMENT (( #589 ) ) ;
#3 = CARTESIAN_POINT ( 'NONE',  ( 7.000000000000005329, 17.49999999999999645, -45.49999999999982236 ) ) ;
#4 = EDGE_CURVE ( 'NONE', #38, #128, #103, .T. ) ;
#5 = CARTESIAN_POINT ( 'NONE',  ( 103.7014288630928149, 22.50000000000000000, -12.99999999999981704 ) ) ;
#6 = VERTEX_POINT ( 'NONE', #233 ) ;
#7 = LINE ( 'NONE', #662, #361 ) ;
#8 = EDGE_CURVE ( 'NONE', #832, #152, #492, .T. ) ;
#9 = MECHANICAL_DESIGN_GEOMETRIC_PRESENTATION_REPRESENTATION (  '', ( #412 ), #523 ) ;
#10 = DIRECTION ( 'NONE',  ( 0.000000000000000000, -1.000000000000000000, 0.000000000000000000 ) ) ;
#11 = ORIENTED_EDGE ( 'NONE', *, *, #558, .T. ) ;
#12 = EDGE_CURVE ( 'NONE', #33, #453, #386, .T. ) ;
#13 = PLANE ( 'NONE',  #411 ) ;
#14 = AXIS2_PLACEMENT_3D ( 'NONE', #41, #495, #175 ) ;
#15 = CARTESIAN_POINT ( 'NONE',  ( 0.000000000000000000, -22.50000000000000000, 0.000000000000000000 ) ) ;
#16 = CARTESIAN_POINT ( 'NONE',  ( -77.00000000000001421, 17.49999999999999645, -48.49999999999982236 ) ) ;
#17 = EDGE_CURVE ( 'NONE', #6, #434, #110, .T. ) ;
#18 = ORIENTED_EDGE ( 'NONE', *, *, #471, .F. ) ;
#19 = LINE ( 'NONE', #270, #555 ) ;
#20 = DIRECTION ( 'NONE',  ( -1.000000000000000000, 0.000000000000000000, -1.224646799147367012E-16 ) ) ;
#21 = DIRECTION ( 'NONE',  ( 0.000000000000000000, 1.000000000000000000, -0.000000000000000000 ) ) ;
#22 = ORIENTED_EDGE ( 'NONE', *, *, #143, .T. ) ;
#23 = CARTESIAN_POINT ( 'NONE',  ( 81.60000000000000853, 2.499999999999998668, -43.99999999999980815 ) ) ;
#24 = DIRECTION ( 'NONE',  ( -0.5144957554275262357, 0.000000000000000000, -0.8574929257125443183 ) ) ;
#25 = CARTESIAN_POINT ( 'NONE',  ( -114.9999999999999858, 22.50000000000000000, 1.743296003570838555E-13 ) ) ;
#26 = VECTOR ( 'NONE', #639, 1000.000000000000114 ) ;
#27 = EDGE_LOOP ( 'NONE', ( #637, #285, #11, #615 ) ) ;
#28 = CARTESIAN_POINT ( 'NONE',  ( -85.00000000000000000, 22.50000000000000000, -49.99999999999982947 ) ) ;
#29 = CIRCLE ( 'NONE', #497, 10.00000000000000178 ) ;
#30 = AXIS2_PLACEMENT_3D ( 'NONE', #244, #308, #783 ) ;
#31 = ORIENTED_EDGE ( 'NONE', *, *, #248, .T. ) ;
#32 = LINE ( 'NONE', #162, #322 ) ;
#33 = VERTEX_POINT ( 'NONE', #754 ) ;
#34 = DIRECTION ( 'NONE',  ( -0.000000000000000000, 1.000000000000000000, -0.000000000000000000 ) ) ;
#35 = DIRECTION ( 'NONE',  ( 0.000000000000000000, 1.000000000000000000, -0.000000000000000000 ) ) ;
#36 = ORIENTED_EDGE ( 'NONE', *, *, #644, .F. ) ;
#37 = FACE_OUTER_BOUND ( 'NONE', #27, .T. ) ;
#38 = VERTEX_POINT ( 'NONE', #159 ) ;
#39 = ADVANCED_FACE ( 'NONE', ( #793 ), #47, .F. ) ;
#40 = CIRCLE ( 'NONE', #154, 1.499999999999994449 ) ;
#41 = CARTESIAN_POINT ( 'NONE',  ( 77.00000000000001421, 22.50000000000000000, -46.99999999999982947 ) ) ;
#42 = ADVANCED_FACE ( 'NONE', ( #567 ), #179, .F. ) ;
#43 = CYLINDRICAL_SURFACE ( 'NONE', #625, 2.000000000000001776 ) ;
#44 = DIRECTION ( 'NONE',  ( 0.000000000000000000, 1.000000000000000000, 0.000000000000000000 ) ) ;
#45 = ORIENTED_EDGE ( 'NONE', *, *, #102, .F. ) ;
#46 = CARTESIAN_POINT ( 'NONE',  ( 78.12780419436064960, 2.499999999999998668, -42.01715335991450218 ) ) ;
#47 = PLANE ( 'NONE',  #280 ) ;
#48 = CIRCLE ( 'NONE', #527, 1.500000000000001332 ) ;
#49 = ORIENTED_EDGE ( 'NONE', *, *, #620, .F. ) ;
#50 = EDGE_CURVE ( 'NONE', #429, #764, #29, .T. ) ;
#51 = DIRECTION ( 'NONE',  ( -0.5144957554275263467, 0.000000000000000000, -0.8574929257125442073 ) ) ;
#52 = DIRECTION ( 'NONE',  ( -0.000000000000000000, 1.000000000000000000, -0.000000000000000000 ) ) ;
#53 = ORIENTED_EDGE ( 'NONE', *, *, #730, .F. ) ;
#54 = DIRECTION ( 'NONE',  ( 0.000000000000000000, 0.000000000000000000, -1.000000000000000000 ) ) ;
#55 = FACE_OUTER_BOUND ( 'NONE', #286, .T. ) ;
#56 = DIRECTION ( 'NONE',  ( 0.000000000000000000, 0.000000000000000000, 1.000000000000000000 ) ) ;
#57 = ORIENTED_EDGE ( 'NONE', *, *, #101, .F. ) ;
#58 = CARTESIAN_POINT ( 'NONE',  ( 83.86761924206189178, 22.50000000000000000, -47.99999999999982947 ) ) ;
#59 = VECTOR ( 'NONE', #237, 1000.000000000000000 ) ;
#60 = CARTESIAN_POINT ( 'NONE',  ( -81.60000000000006537, -22.50000000000000000, -43.99999999999982947 ) ) ;
#61 = LINE ( 'NONE', #299, #802 ) ;
#62 = ORIENTED_EDGE ( 'NONE', *, *, #661, .T. ) ;
#63 = CARTESIAN_POINT ( 'NONE',  ( 78.12780419436063539, -22.50000000000000355, -42.01715335991450928 ) ) ;
#64 = CIRCLE ( 'NONE', #405, 2.000000000000001776 ) ;
#65 =( LENGTH_UNIT ( ) NAMED_UNIT ( * ) SI_UNIT ( .MILLI., .METRE. ) );
#66 = CARTESIAN_POINT ( 'NONE',  ( -83.86761924206189178, 22.50000000000000000, -47.99999999999982947 ) ) ;
#67 = DIRECTION ( 'NONE',  ( 0.000000000000000000, 0.000000000000000000, -1.000000000000000000 ) ) ;
#68 = ADVANCED_FACE ( 'NONE', ( #854 ), #705, .F. ) ;
#69 = ORIENTED_EDGE ( 'NONE', *, *, #471, .T. ) ;
#70 = DIRECTION ( 'NONE',  ( 0.000000000000000000, 1.000000000000000000, 0.000000000000000000 ) ) ;
#71 = APPLICATION_PROTOCOL_DEFINITION ( 'draft international standard', 'automotive_design', 1998, #660 ) ;
#72 = CARTESIAN_POINT ( 'NONE',  ( 107.9999999999999858, 22.50000000000000000, 1.734723475976807094E-13 ) ) ;
#73 = DIRECTION ( 'NONE',  ( -0.000000000000000000, -1.000000000000000000, -0.000000000000000000 ) ) ;
#74 = ADVANCED_FACE ( 'NONE', ( #517 ), #132, .F. ) ;
#75 = EDGE_CURVE ( 'NONE', #489, #397, #462, .T. ) ;
#76 = ORIENTED_EDGE ( 'NONE', *, *, #700, .F. ) ;
#77 = CARTESIAN_POINT ( 'NONE',  ( -77.00000000000001421, 22.50000000000000000, -45.49999999999982947 ) ) ;
#78 = CARTESIAN_POINT ( 'NONE',  ( 85.58260509348697553, 22.50000000000000000, -49.02899151085486551 ) ) ;
#79 = AXIS2_PLACEMENT_3D ( 'NONE', #608, #603, #148 ) ;
#80 = CARTESIAN_POINT ( 'NONE',  ( 7.000000000000005329, 17.49999999999999645, -46.99999999999982947 ) ) ;
#81 = ORIENTED_EDGE ( 'NONE', *, *, #775, .T. ) ;
#82 = DIRECTION ( 'NONE',  ( 0.000000000000000000, 0.000000000000000000, 1.000000000000000000 ) ) ;
#83 = DIRECTION ( 'NONE',  ( 0.000000000000000000, 1.000000000000000000, 0.000000000000000000 ) ) ;
#84 = AXIS2_PLACEMENT_3D ( 'NONE', #563, #157, #676 ) ;
#85 = CARTESIAN_POINT ( 'NONE',  ( -86.74705882352942865, 22.50000000000000000, -47.08823529411745312 ) ) ;
#86 = EDGE_LOOP ( 'NONE', ( #214, #327, #295, #265 ) ) ;
#87 = VECTOR ( 'NONE', #24, 1000.000000000000114 ) ;
#88 = CARTESIAN_POINT ( 'NONE',  ( 83.86761924206189178, -22.50000000000000000, -49.99999999999982947 ) ) ;
#89 = ORIENTED_EDGE ( 'NONE', *, *, #276, .F. ) ;
#90 = PLANE ( 'NONE',  #79 ) ;
#91 = FACE_OUTER_BOUND ( 'NONE', #227, .T. ) ;
#92 = EDGE_LOOP ( 'NONE', ( #835, #170, #123, #100 ) ) ;
#93 = ADVANCED_FACE ( 'NONE', ( #643 ), #648, .F. ) ;
#94 = VECTOR ( 'NONE', #251, 1000.000000000000000 ) ;
#95 = CARTESIAN_POINT ( 'NONE',  ( -77.00000000000001421, 17.49999999999999645, -46.99999999999982947 ) ) ;
#96 = AXIS2_PLACEMENT_3D ( 'NONE', #707, #70, #129 ) ;
#97 = ORIENTED_EDGE ( 'NONE', *, *, #704, .T. ) ;
#98 = ORIENTED_EDGE ( 'NONE', *, *, #178, .T. ) ;
#99 = DIRECTION ( 'NONE',  ( -0.000000000000000000, 1.000000000000000000, -0.000000000000000000 ) ) ;
#100 = ORIENTED_EDGE ( 'NONE', *, *, #620, .T. ) ;
#101 = EDGE_CURVE ( 'NONE', #809, #201, #446, .T. ) ;
#102 = EDGE_CURVE ( 'NONE', #764, #809, #315, .T. ) ;
#103 = LINE ( 'NONE', #560, #724 ) ;
#104 = CIRCLE ( 'NONE', #318, 2.000000000000001776 ) ;
#105 = ORIENTED_EDGE ( 'NONE', *, *, #186, .T. ) ;
#106 = CYLINDRICAL_SURFACE ( 'NONE', #419, 1.500000000000001332 ) ;
#107 = VECTOR ( 'NONE', #313, 1000.000000000000000 ) ;
#108 = CARTESIAN_POINT ( 'NONE',  ( -86.74705882352947128, -22.50000000000000000, -47.08823529411747444 ) ) ;
#109 = EDGE_LOOP ( 'NONE', ( #508, #665, #851, #403 ) ) ;
#110 = LINE ( 'NONE', #283, #784 ) ;
#111 = FACE_OUTER_BOUND ( 'NONE', #109, .T. ) ;
#112 = CARTESIAN_POINT ( 'NONE',  ( -83.86761924206189178, -22.50000000000000000, -47.99999999999982947 ) ) ;
#113 = ADVANCED_FACE ( 'NONE', ( #245 ), #507, .F. ) ;
#114 = CIRCLE ( 'NONE', #300, 1.500000000000001332 ) ;
#115 = EDGE_CURVE ( 'NONE', #6, #820, #815, .T. ) ;
#116 = DIRECTION ( 'NONE',  ( -0.5144957554275262357, -0.000000000000000000, 0.8574929257125443183 ) ) ;
#117 = CARTESIAN_POINT ( 'NONE',  ( 103.7014288630928149, 17.49999999999999645, -12.99999999999981704 ) ) ;
#118 = AXIS2_PLACEMENT_3D ( 'NONE', #640, #182, #636 ) ;
#119 = EDGE_LOOP ( 'NONE', ( #650, #76, #763, #274 ) ) ;
#120 = SURFACE_STYLE_FILL_AREA ( #324 ) ;
#121 = LINE ( 'NONE', #578, #790 ) ;
#122 = DIRECTION ( 'NONE',  ( 0.5144957554275261247, 0.000000000000000000, -0.8574929257125445403 ) ) ;
#123 = ORIENTED_EDGE ( 'NONE', *, *, #8, .T. ) ;
#124 = DIRECTION ( 'NONE',  ( 0.000000000000000000, -1.000000000000000000, 0.000000000000000000 ) ) ;
#125 = CARTESIAN_POINT ( 'NONE',  ( 75.93809621030941059, 22.50000000000000000, -43.99999999999980815 ) ) ;
#126 = DIRECTION ( 'NONE',  ( 0.000000000000000000, -1.000000000000000000, 0.000000000000000000 ) ) ;
#127 = EDGE_CURVE ( 'NONE', #246, #477, #431, .T. ) ;
#128 = VERTEX_POINT ( 'NONE', #858 ) ;
#129 = DIRECTION ( 'NONE',  ( 0.000000000000000000, 0.000000000000000000, 1.000000000000000000 ) ) ;
#130 = DIRECTION ( 'NONE',  ( 0.000000000000000000, 0.000000000000000000, -1.000000000000000000 ) ) ;
#131 = EDGE_CURVE ( 'NONE', #626, #717, #64, .T. ) ;
#132 = CYLINDRICAL_SURFACE ( 'NONE', #614, 1.499999999999994449 ) ;
#133 = ORIENTED_EDGE ( 'NONE', *, *, #587, .F. ) ;
#134 = CIRCLE ( 'NONE', #96, 1.500000000000001332 ) ;
#135 = EDGE_CURVE ( 'NONE', #717, #701, #457, .T. ) ;
#136 = DIRECTION ( 'NONE',  ( -0.000000000000000000, 1.000000000000000000, -0.000000000000000000 ) ) ;
#137 = ORIENTED_EDGE ( 'NONE', *, *, #75, .F. ) ;
#138 =( LENGTH_UNIT ( ) NAMED_UNIT ( * ) SI_UNIT ( .MILLI., .METRE. ) );
#139 = CARTESIAN_POINT ( 'NONE',  ( 107.9999999999999858, 22.50000000000000000, 1.734723475976807094E-13 ) ) ;
#140 = FACE_OUTER_BOUND ( 'NONE', #92, .T. ) ;
#141 = ORIENTED_EDGE ( 'NONE', *, *, #771, .F. ) ;
#142 = DIRECTION ( 'NONE',  ( 0.000000000000000000, 0.000000000000000000, 1.000000000000000000 ) ) ;
#143 = EDGE_CURVE ( 'NONE', #828, #278, #721, .T. ) ;
#144 = CARTESIAN_POINT ( 'NONE',  ( 79.99752372456062233, -22.50000000000000355, -43.13898507803450144 ) ) ;
#145 = CIRCLE ( 'NONE', #542, 1.500000000000001332 ) ;
#146 = DIRECTION ( 'NONE',  ( 0.000000000000000000, 0.000000000000000000, -1.000000000000000000 ) ) ;
#147 = ORIENTED_EDGE ( 'NONE', *, *, #50, .T. ) ;
#148 = DIRECTION ( 'NONE',  ( 0.5144957554275263467, 0.000000000000000000, 0.8574929257125443183 ) ) ;
#149 = VECTOR ( 'NONE', #798, 1000.000000000000000 ) ;
#150 = DIRECTION ( 'NONE',  ( 0.000000000000000000, 1.000000000000000000, 0.000000000000000000 ) ) ;
#151 = DIRECTION ( 'NONE',  ( -0.000000000000000000, -1.000000000000000000, -0.000000000000000000 ) ) ;
#152 = VERTEX_POINT ( 'NONE', #380 ) ;
#153 = CARTESIAN_POINT ( 'NONE',  ( 77.00000000000001421, 17.49999999999999645, -46.99999999999982947 ) ) ;
#154 = AXIS2_PLACEMENT_3D ( 'NONE', #594, #150, #472 ) ;
#155 = CARTESIAN_POINT ( 'NONE',  ( 75.93809621030941059, -22.50000000000000000, -43.99999999999980815 ) ) ;
#156 = ORIENTED_EDGE ( 'NONE', *, *, #135, .F. ) ;
#157 = DIRECTION ( 'NONE',  ( 0.000000000000000000, 0.000000000000000000, -1.000000000000000000 ) ) ;
#158 = EDGE_CURVE ( 'NONE', #128, #602, #61, .T. ) ;
#159 = CARTESIAN_POINT ( 'NONE',  ( -86.74705882352945707, 22.50000000000000000, -47.08823529411745312 ) ) ;
#160 = ORIENTED_EDGE ( 'NONE', *, *, #158, .F. ) ;
#161 = EDGE_CURVE ( 'NONE', #354, #687, #417, .T. ) ;
#162 = CARTESIAN_POINT ( 'NONE',  ( 103.7014288630928149, 17.49999999999999645, -11.49999999999981881 ) ) ;
#163 = VECTOR ( 'NONE', #767, 1000.000000000000000 ) ;
#164 = ORIENTED_EDGE ( 'NONE', *, *, #571, .F. ) ;
#165 = ADVANCED_FACE ( 'NONE', ( #749 ), #816, .T. ) ;
#166 = LINE ( 'NONE', #423, #785 ) ;
#167 = EDGE_LOOP ( 'NONE', ( #228, #336, #357, #531 ) ) ;
#168 = EDGE_LOOP ( 'NONE', ( #224, #183, #518, #342 ) ) ;
#169 = PLANE ( 'NONE',  #84 ) ;
#170 = ORIENTED_EDGE ( 'NONE', *, *, #186, .F. ) ;
#171 = VECTOR ( 'NONE', #116, 1000.000000000000114 ) ;
#172 = ORIENTED_EDGE ( 'NONE', *, *, #279, .F. ) ;
#173 = AXIS2_PLACEMENT_3D ( 'NONE', #273, #476, #601 ) ;
#174 = AXIS2_PLACEMENT_3D ( 'NONE', #646, #651, #505 ) ;
#175 = DIRECTION ( 'NONE',  ( 0.000000000000000000, 0.000000000000000000, -1.000000000000000000 ) ) ;
#176 = VERTEX_POINT ( 'NONE', #672 ) ;
#177 = CARTESIAN_POINT ( 'NONE',  ( 115.0000000000000426, 2.499999999999998668, 1.734723475976807094E-13 ) ) ;
#178 = EDGE_CURVE ( 'NONE', #363, #486, #600, .T. ) ;
#179 = CYLINDRICAL_SURFACE ( 'NONE', #118, 1.500000000000001332 ) ;
#180 = EDGE_CURVE ( 'NONE', #278, #686, #769, .T. ) ;
#181 = DIRECTION ( 'NONE',  ( -0.000000000000000000, -1.000000000000000000, 0.000000000000000000 ) ) ;
#182 = DIRECTION ( 'NONE',  ( -0.000000000000000000, 1.000000000000000000, -0.000000000000000000 ) ) ;
#183 = ORIENTED_EDGE ( 'NONE', *, *, #311, .T. ) ;
#184 = DIRECTION ( 'NONE',  ( 0.000000000000000000, 0.000000000000000000, 1.000000000000000000 ) ) ;
#185 = CARTESIAN_POINT ( 'NONE',  ( 85.58260509348697553, -22.50000000000000000, -49.02899151085486551 ) ) ;
#186 = EDGE_CURVE ( 'NONE', #832, #269, #48, .T. ) ;
#187 = CARTESIAN_POINT ( 'NONE',  ( -7.000000000000005329, 17.49999999999999645, -46.99999999999982947 ) ) ;
#188 = VECTOR ( 'NONE', #629, 1000.000000000000000 ) ;
#189 = AXIS2_PLACEMENT_3D ( 'NONE', #668, #654, #804 ) ;
#190 = ORIENTED_EDGE ( 'NONE', *, *, #12, .F. ) ;
#191 = DIRECTION ( 'NONE',  ( 0.000000000000000000, 0.000000000000000000, -1.000000000000000000 ) ) ;
#192 = EDGE_CURVE ( 'NONE', #246, #818, #408, .T. ) ;
#193 = LINE ( 'NONE', #46, #26 ) ;
#194 = AXIS2_PLACEMENT_3D ( 'NONE', #857, #710, #241 ) ;
#195 = CARTESIAN_POINT ( 'NONE',  ( 83.86761924206189178, 22.50000000000000000, -49.99999999999982947 ) ) ;
#196 = ORIENTED_EDGE ( 'NONE', *, *, #432, .F. ) ;
#197 = CARTESIAN_POINT ( 'NONE',  ( 77.00000000000001421, 22.50000000000000000, -45.49999999999982947 ) ) ;
#198 = EDGE_CURVE ( 'NONE', #794, #828, #372, .T. ) ;
#199 = DIRECTION ( 'NONE',  ( 0.000000000000000000, 0.000000000000000000, 1.000000000000000000 ) ) ;
#200 = DIRECTION ( 'NONE',  ( -0.000000000000000000, -1.000000000000000000, -0.000000000000000000 ) ) ;
#201 = VERTEX_POINT ( 'NONE', #155 ) ;
#202 =( NAMED_UNIT ( * ) SI_UNIT ( $, .STERADIAN. ) SOLID_ANGLE_UNIT ( ) );
#203 = LINE ( 'NONE', #72, #671 ) ;
#204 = CARTESIAN_POINT ( 'NONE',  ( 83.86761924206189178, -22.50000000000000000, -47.99999999999982947 ) ) ;
#205 = VERTEX_POINT ( 'NONE', #657 ) ;
#206 = DIRECTION ( 'NONE',  ( 0.000000000000000000, 1.000000000000000000, -0.000000000000000000 ) ) ;
#207 = VECTOR ( 'NONE', #465, 1000.000000000000114 ) ;
#208 = DIRECTION ( 'NONE',  ( 0.000000000000000000, 0.000000000000000000, 1.000000000000000000 ) ) ;
#209 = LINE ( 'NONE', #259, #149 ) ;
#210 = ADVANCED_FACE ( 'NONE', ( #140 ), #463, .F. ) ;
#211 = ORIENTED_EDGE ( 'NONE', *, *, #180, .T. ) ;
#212 = DIRECTION ( 'NONE',  ( -0.000000000000000000, 1.000000000000000000, -0.000000000000000000 ) ) ;
#213 = DIRECTION ( 'NONE',  ( -6.938893903907222067E-15, 0.000000000000000000, -1.000000000000000000 ) ) ;
#214 = ORIENTED_EDGE ( 'NONE', *, *, #198, .F. ) ;
#215 = FACE_BOUND ( 'NONE', #243, .T. ) ;
#216 = DIRECTION ( 'NONE',  ( 0.000000000000000000, 0.000000000000000000, -1.000000000000000000 ) ) ;
#217 = ORIENTED_EDGE ( 'NONE', *, *, #298, .F. ) ;
#218 = DIRECTION ( 'NONE',  ( 0.8574929257125444293, -0.000000000000000000, 0.5144957554275260136 ) ) ;
#219 = AXIS2_PLACEMENT_3D ( 'NONE', #232, #426, #613 ) ;
#220 = CARTESIAN_POINT ( 'NONE',  ( 83.86761924206189178, 22.50000000000000000, -47.99999999999982947 ) ) ;
#221 = EDGE_LOOP ( 'NONE', ( #323, #190 ) ) ;
#222 = ADVANCED_FACE ( 'NONE', ( #591 ), #478, .F. ) ;
#223 = CARTESIAN_POINT ( 'NONE',  ( 77.00000000000001421, 17.49999999999999645, -48.49999999999982236 ) ) ;
#224 = ORIENTED_EDGE ( 'NONE', *, *, #583, .F. ) ;
#225 = AXIS2_PLACEMENT_3D ( 'NONE', #736, #394, #267 ) ;
#226 = PLANE ( 'NONE',  #547 ) ;
#227 = EDGE_LOOP ( 'NONE', ( #331, #624 ) ) ;
#228 = ORIENTED_EDGE ( 'NONE', *, *, #192, .F. ) ;
#229 = AXIS2_PLACEMENT_3D ( 'NONE', #204, #151, #67 ) ;
#230 = CARTESIAN_POINT ( 'NONE',  ( 77.00000000000001421, 17.49999999999999645, -45.49999999999982947 ) ) ;
#231 = EDGE_LOOP ( 'NONE', ( #421, #156, #553, #841 ) ) ;
#232 = CARTESIAN_POINT ( 'NONE',  ( 75.93809621030941059, 22.50000000000000000, -33.99999999999980815 ) ) ;
#233 = CARTESIAN_POINT ( 'NONE',  ( -7.000000000000005329, 17.49999999999999645, -48.49999999999982947 ) ) ;
#234 = VERTEX_POINT ( 'NONE', #468 ) ;
#235 = EDGE_LOOP ( 'NONE', ( #813, #257, #564, #365, #211, #474, #414, #297, #768 ) ) ;
#236 = EDGE_LOOP ( 'NONE', ( #348, #449, #536, #744 ) ) ;
#237 = DIRECTION ( 'NONE',  ( 1.000000000000000000, -0.000000000000000000, 1.224646799147367012E-16 ) ) ;
#238 = COLOUR_RGB ( '',0.7921568627450980005, 0.8196078431372548767, 0.9333333333333333481 ) ;
#239 = DIRECTION ( 'NONE',  ( -0.8574929257125444293, 0.000000000000000000, -0.5144957554275260136 ) ) ;
#240 = ORIENTED_EDGE ( 'NONE', *, *, #287, .T. ) ;
#241 = DIRECTION ( 'NONE',  ( 0.000000000000000000, 0.000000000000000000, 1.000000000000000000 ) ) ;
#242 = DIRECTION ( 'NONE',  ( 0.000000000000000000, 1.000000000000000000, -0.000000000000000000 ) ) ;
#243 = EDGE_LOOP ( 'NONE', ( #409, #425 ) ) ;
#244 = CARTESIAN_POINT ( 'NONE',  ( 103.7014288630928149, 17.49999999999999645, -12.99999999999981704 ) ) ;
#245 = FACE_OUTER_BOUND ( 'NONE', #782, .T. ) ;
#246 = VERTEX_POINT ( 'NONE', #16 ) ;
#247 = CARTESIAN_POINT ( 'NONE',  ( -77.00000000000001421, 17.49999999999999645, -45.49999999999982947 ) ) ;
#248 = EDGE_CURVE ( 'NONE', #278, #717, #209, .T. ) ;
#249 = CIRCLE ( 'NONE', #738, 1.499999999999994449 ) ;
#250 = LINE ( 'NONE', #510, #590 ) ;
#251 = DIRECTION ( 'NONE',  ( -0.000000000000000000, -1.000000000000000000, -0.000000000000000000 ) ) ;
#252 = AXIS2_PLACEMENT_3D ( 'NONE', #95, #350, #618 ) ;
#253 = EDGE_LOOP ( 'NONE', ( #619, #312, #513, #562 ) ) ;
#254 = DIRECTION ( 'NONE',  ( -0.000000000000000000, 1.000000000000000000, -0.000000000000000000 ) ) ;
#255 = DIRECTION ( 'NONE',  ( 0.000000000000000000, -1.000000000000000000, 0.000000000000000000 ) ) ;
#256 = DIRECTION ( 'NONE',  ( 0.000000000000000000, 1.000000000000000000, -0.000000000000000000 ) ) ;
#257 = ORIENTED_EDGE ( 'NONE', *, *, #661, .F. ) ;
#258 = CARTESIAN_POINT ( 'NONE',  ( -77.00000000000001421, 22.50000000000000000, -48.49999999999982236 ) ) ;
#259 = CARTESIAN_POINT ( 'NONE',  ( -85.00000000000000000, -22.50000000000000000, -49.99999999999982947 ) ) ;
#260 = EDGE_LOOP ( 'NONE', ( #133, #22, #31, #490 ) ) ;
#261 =( NAMED_UNIT ( * ) SI_UNIT ( $, .STERADIAN. ) SOLID_ANGLE_UNIT ( ) );
#262 = DIRECTION ( 'NONE',  ( 0.000000000000000000, 0.000000000000000000, 1.000000000000000000 ) ) ;
#263 = ADVANCED_FACE ( 'NONE', ( #268 ), #663, .F. ) ;
#264 = CARTESIAN_POINT ( 'NONE',  ( 7.000000000000005329, 17.49999999999999645, -48.49999999999982947 ) ) ;
#265 = ORIENTED_EDGE ( 'NONE', *, *, #143, .F. ) ;
#266 = AXIS2_PLACEMENT_3D ( 'NONE', #117, #256, #773 ) ;
#267 = DIRECTION ( 'NONE',  ( 0.000000000000000000, 0.000000000000000000, 1.000000000000000000 ) ) ;
#268 = FACE_OUTER_BOUND ( 'NONE', #750, .T. ) ;
#269 = VERTEX_POINT ( 'NONE', #264 ) ;
#270 = CARTESIAN_POINT ( 'NONE',  ( -90.17492925712549834, -22.50000000000000000, -49.14495755427509494 ) ) ;
#271 = DIRECTION ( 'NONE',  ( 0.000000000000000000, 0.000000000000000000, -1.000000000000000000 ) ) ;
#272 = DIRECTION ( 'NONE',  ( 0.000000000000000000, 0.000000000000000000, -1.000000000000000000 ) ) ;
#273 = CARTESIAN_POINT ( 'NONE',  ( -77.00000000000001421, 17.49999999999999645, -46.99999999999982947 ) ) ;
#274 = ORIENTED_EDGE ( 'NONE', *, *, #520, .T. ) ;
#275 = CARTESIAN_POINT ( 'NONE',  ( 107.9999999999999858, 22.50000000000000000, 1.734723475976807094E-13 ) ) ;
#276 = EDGE_CURVE ( 'NONE', #489, #486, #277, .T. ) ;
#277 = LINE ( 'NONE', #544, #627 ) ;
#278 = VERTEX_POINT ( 'NONE', #88 ) ;
#279 = EDGE_CURVE ( 'NONE', #483, #706, #391, .T. ) ;
#280 = AXIS2_PLACEMENT_3D ( 'NONE', #373, #122, #239 ) ;
#281 = AXIS2_PLACEMENT_3D ( 'NONE', #80, #10, #726 ) ;
#282 = FACE_OUTER_BOUND ( 'NONE', #253, .T. ) ;
#283 = CARTESIAN_POINT ( 'NONE',  ( -7.000000000000005329, 17.49999999999999645, -48.49999999999982947 ) ) ;
#284 = ADVANCED_FACE ( 'NONE', ( #534 ), #343, .F. ) ;
#285 = ORIENTED_EDGE ( 'NONE', *, *, #17, .T. ) ;
#286 = EDGE_LOOP ( 'NONE', ( #89, #778, #504, #98 ) ) ;
#287 = EDGE_CURVE ( 'NONE', #1, #38, #473, .T. ) ;
#288 = CARTESIAN_POINT ( 'NONE',  ( 78.12780419436064960, 2.499999999999998668, -42.01715335991450218 ) ) ;
#289 = CARTESIAN_POINT ( 'NONE',  ( 7.000000000000005329, 22.50000000000000000, -46.99999999999982947 ) ) ;
#290 = AXIS2_PLACEMENT_3D ( 'NONE', #153, #675, #346 ) ;
#291 = EDGE_LOOP ( 'NONE', ( #62, #240, #641, #97 ) ) ;
#292 = AXIS2_PLACEMENT_3D ( 'NONE', #187, #52, #56 ) ;
#293 = LINE ( 'NONE', #752, #803 ) ;
#294 = EDGE_LOOP ( 'NONE', ( #49, #540 ) ) ;
#295 = ORIENTED_EDGE ( 'NONE', *, *, #180, .F. ) ;
#296 = DIRECTION ( 'NONE',  ( 0.000000000000000000, 0.000000000000000000, 1.000000000000000000 ) ) ;
#297 = ORIENTED_EDGE ( 'NONE', *, *, #101, .T. ) ;
#298 = EDGE_CURVE ( 'NONE', #486, #363, #585, .T. ) ;
#299 = CARTESIAN_POINT ( 'NONE',  ( -81.60000000000000853, 22.50000000000000000, -43.99999999999980815 ) ) ;
#300 = AXIS2_PLACEMENT_3D ( 'NONE', #332, #404, #82 ) ;
#301 = EDGE_CURVE ( 'NONE', #598, #734, #742, .T. ) ;
#302 = PLANE ( 'NONE',  #797 ) ;
#303 = VECTOR ( 'NONE', #787, 1000.000000000000000 ) ;
#304 = AXIS2_PLACEMENT_3D ( 'NONE', #482, #359, #822 ) ;
#305 = DIRECTION ( 'NONE',  ( 0.000000000000000000, -1.000000000000000000, 0.000000000000000000 ) ) ;
#306 = ADVANCED_FACE ( 'NONE', ( #37 ), #106, .F. ) ;
#307 = ORIENTED_EDGE ( 'NONE', *, *, #192, .T. ) ;
#308 = DIRECTION ( 'NONE',  ( 0.000000000000000000, 1.000000000000000000, -0.000000000000000000 ) ) ;
#309 = DIRECTION ( 'NONE',  ( -0.000000000000000000, 1.000000000000000000, -0.000000000000000000 ) ) ;
#310 = CARTESIAN_POINT ( 'NONE',  ( 75.93809621030941059, -22.50000000000000000, -33.99999999999980815 ) ) ;
#311 = EDGE_CURVE ( 'NONE', #687, #33, #765, .T. ) ;
#312 = ORIENTED_EDGE ( 'NONE', *, *, #644, .T. ) ;
#313 = DIRECTION ( 'NONE',  ( 1.000000000000000000, -0.000000000000000000, -0.000000000000000000 ) ) ;
#314 = CARTESIAN_POINT ( 'NONE',  ( 107.9999999999999858, 2.499999999999998668, 1.734723475976807094E-13 ) ) ;
#315 = LINE ( 'NONE', #579, #94 ) ;
#316 = EDGE_LOOP ( 'NONE', ( #694, #217 ) ) ;
#317 = CARTESIAN_POINT ( 'NONE',  ( 7.000000000000005329, 17.49999999999999645, -46.99999999999982947 ) ) ;
#318 = AXIS2_PLACEMENT_3D ( 'NONE', #398, #481, #541 ) ;
#319 = LINE ( 'NONE', #125, #356 ) ;
#320 = CLOSED_SHELL ( 'NONE', ( #74, #306, #42, #502, #849, #552, #364, #688, #837, #68, #222, #833, #799, #697, #461, #709, #113, #210, #263, #93, #396, #401, #165, #467, #599, #284, #427, #39, #548 ) ) ;
#321 = DIRECTION ( 'NONE',  ( -0.000000000000000000, 1.000000000000000000, -0.000000000000000000 ) ) ;
#322 = VECTOR ( 'NONE', #34, 1000.000000000000000 ) ;
#323 = ORIENTED_EDGE ( 'NONE', *, *, #341, .F. ) ;
#324 = FILL_AREA_STYLE ('',( #718 ) ) ;
#325 = CIRCLE ( 'NONE', #340, 1.500000000000001332 ) ;
#326 = DIRECTION ( 'NONE',  ( 0.000000000000000000, 1.000000000000000000, -0.000000000000000000 ) ) ;
#327 = ORIENTED_EDGE ( 'NONE', *, *, #418, .F. ) ;
#328 = PRODUCT_CONTEXT ( 'NONE', #660, 'mechanical' ) ;
#329 = DIRECTION ( 'NONE',  ( -0.000000000000000000, -1.000000000000000000, -0.000000000000000000 ) ) ;
#330 = CARTESIAN_POINT ( 'NONE',  ( 106.4250707428746097, 2.499999999999998668, 5.144957554275438660 ) ) ;
#331 = ORIENTED_EDGE ( 'NONE', *, *, #700, .T. ) ;
#332 = CARTESIAN_POINT ( 'NONE',  ( -7.000000000000005329, 22.50000000000000000, -46.99999999999982947 ) ) ;
#333 =( NAMED_UNIT ( * ) PLANE_ANGLE_UNIT ( ) SI_UNIT ( $, .RADIAN. ) );
#334 = FACE_OUTER_BOUND ( 'NONE', #235, .T. ) ;
#335 = DIRECTION ( 'NONE',  ( 0.5144957554275263467, 0.000000000000000000, -0.8574929257125443183 ) ) ;
#336 = ORIENTED_EDGE ( 'NONE', *, *, #633, .F. ) ;
#337 = AXIS2_PLACEMENT_3D ( 'NONE', #5, #737, #146 ) ;
#338 = FACE_BOUND ( 'NONE', #294, .T. ) ;
#339 = DIRECTION ( 'NONE',  ( 0.000000000000000000, 1.000000000000000000, 0.000000000000000000 ) ) ;
#340 = AXIS2_PLACEMENT_3D ( 'NONE', #575, #780, #199 ) ;
#341 = EDGE_CURVE ( 'NONE', #453, #33, #695, .T. ) ;
#342 = ORIENTED_EDGE ( 'NONE', *, *, #673, .F. ) ;
#343 = PLANE ( 'NONE',  #530 ) ;
#344 = EDGE_CURVE ( 'NONE', #205, #573, #293, .T. ) ;
#345 = EDGE_LOOP ( 'NONE', ( #459, #307, #81, #430 ) ) ;
#346 = DIRECTION ( 'NONE',  ( 0.000000000000000000, 0.000000000000000000, -1.000000000000000000 ) ) ;
#347 = DIRECTION ( 'NONE',  ( 0.000000000000000000, 1.000000000000000000, 0.000000000000000000 ) ) ;
#348 = ORIENTED_EDGE ( 'NONE', *, *, #484, .T. ) ;
#349 = VECTOR ( 'NONE', #795, 1000.000000000000000 ) ;
#350 = DIRECTION ( 'NONE',  ( -0.000000000000000000, 1.000000000000000000, -0.000000000000000000 ) ) ;
#351 = EDGE_LOOP ( 'NONE', ( #416, #424, #524, #728, #632, #766 ) ) ;
#352 = EDGE_CURVE ( 'NONE', #234, #205, #616, .T. ) ;
#353 = FACE_OUTER_BOUND ( 'NONE', #236, .T. ) ;
#354 = VERTEX_POINT ( 'NONE', #230 ) ;
#355 = ORIENTED_EDGE ( 'NONE', *, *, #127, .T. ) ;
#356 = VECTOR ( 'NONE', #371, 1000.000000000000000 ) ;
#357 = ORIENTED_EDGE ( 'NONE', *, *, #458, .T. ) ;
#358 = VECTOR ( 'NONE', #99, 1000.000000000000000 ) ;
#359 = DIRECTION ( 'NONE',  ( 0.000000000000000000, 1.000000000000000000, -0.000000000000000000 ) ) ;
#360 = CARTESIAN_POINT ( 'NONE',  ( 7.000000000000005329, 17.49999999999999645, -45.49999999999982236 ) ) ;
#361 = VECTOR ( 'NONE', #807, 1000.000000000000000 ) ;
#362 = CARTESIAN_POINT ( 'NONE',  ( 86.70273345148606836, -22.50000000000000355, -47.16211091418977475 ) ) ;
#363 = VERTEX_POINT ( 'NONE', #692 ) ;
#364 = ADVANCED_FACE ( 'NONE', ( #282 ), #169, .F. ) ;
#365 = ORIENTED_EDGE ( 'NONE', *, *, #248, .F. ) ;
#366 = DIRECTION ( 'NONE',  ( 0.000000000000000000, 1.000000000000000000, 0.000000000000000000 ) ) ;
#367 = PRODUCT_RELATED_PRODUCT_CATEGORY ( 'part', '', ( #740 ) ) ;
#368 = CARTESIAN_POINT ( 'NONE',  ( 77.00000000000001421, 17.49999999999999645, -46.99999999999982947 ) ) ;
#369 = PRESENTATION_LAYER_ASSIGNMENT (  '', '', ( #412 ) ) ;
#370 = ORIENTED_EDGE ( 'NONE', *, *, #535, .T. ) ;
#371 = DIRECTION ( 'NONE',  ( -0.000000000000000000, 1.000000000000000000, -0.000000000000000000 ) ) ;
#372 = CIRCLE ( 'NONE', #827, 2.000000000000001776 ) ;
#373 = CARTESIAN_POINT ( 'NONE',  ( -90.17492925712549834, -22.50000000000000000, -49.14495755427509494 ) ) ;
#374 = ORIENTED_EDGE ( 'NONE', *, *, #4, .F. ) ;
#375 = SURFACE_SIDE_STYLE ('',( #120 ) ) ;
#376 = CARTESIAN_POINT ( 'NONE',  ( -7.000000000000005329, 22.50000000000000000, -45.49999999999982236 ) ) ;
#377 = DIRECTION ( 'NONE',  ( 0.000000000000000000, 0.000000000000000000, 1.000000000000000000 ) ) ;
#378 = DIRECTION ( 'NONE',  ( 1.000000000000000000, 0.000000000000000000, 1.224646799147367012E-16 ) ) ;
#379 = CARTESIAN_POINT ( 'NONE',  ( 107.9999999999999858, 2.499999999999998668, 1.734723475976807094E-13 ) ) ;
#380 = CARTESIAN_POINT ( 'NONE',  ( 7.000000000000005329, 22.50000000000000000, -45.49999999999982236 ) ) ;
#381 = EDGE_LOOP ( 'NONE', ( #487, #623 ) ) ;
#382 = CARTESIAN_POINT ( 'NONE',  ( -7.000000000000005329, 22.50000000000000000, -48.49999999999982947 ) ) ;
#383 = VECTOR ( 'NONE', #537, 999.9999999999998863 ) ;
#384 = CARTESIAN_POINT ( 'NONE',  ( -77.00000000000001421, 22.50000000000000000, -46.99999999999982947 ) ) ;
#385 = CARTESIAN_POINT ( 'NONE',  ( -83.86761924206189178, 22.50000000000000000, -49.99999999999982947 ) ) ;
#386 = CIRCLE ( 'NONE', #14, 1.499999999999994449 ) ;
#387 = DIRECTION ( 'NONE',  ( 1.000000000000000000, 0.000000000000000000, -0.000000000000000000 ) ) ;
#388 = CIRCLE ( 'NONE', #559, 1.500000000000001332 ) ;
#389 = ORIENTED_EDGE ( 'NONE', *, *, #287, .F. ) ;
#390 = LINE ( 'NONE', #543, #747 ) ;
#391 = LINE ( 'NONE', #812, #683 ) ;
#392 = ORIENTED_EDGE ( 'NONE', *, *, #344, .T. ) ;
#393 = LINE ( 'NONE', #593, #349 ) ;
#394 = DIRECTION ( 'NONE',  ( -0.000000000000000000, 1.000000000000000000, -0.000000000000000000 ) ) ;
#395 = DIRECTION ( 'NONE',  ( -0.000000000000000000, 1.000000000000000000, -0.000000000000000000 ) ) ;
#396 = ADVANCED_FACE ( 'NONE', ( #91 ), #226, .T. ) ;
#397 = VERTEX_POINT ( 'NONE', #819 ) ;
#398 = CARTESIAN_POINT ( 'NONE',  ( -83.86761924206189178, 22.50000000000000000, -47.99999999999982947 ) ) ;
#399 = CARTESIAN_POINT ( 'NONE',  ( 0.000000000000000000, 0.000000000000000000, 0.000000000000000000 ) ) ;
#400 = DIRECTION ( 'NONE',  ( 0.5144957554275264577, -0.000000000000000000, 0.8574929257125442073 ) ) ;
#401 = ADVANCED_FACE ( 'NONE', ( #488 ), #413, .F. ) ;
#402 = CARTESIAN_POINT ( 'NONE',  ( 7.000000000000005329, 17.49999999999999645, -46.99999999999982947 ) ) ;
#403 = ORIENTED_EDGE ( 'NONE', *, *, #341, .T. ) ;
#404 = DIRECTION ( 'NONE',  ( 0.000000000000000000, 1.000000000000000000, 0.000000000000000000 ) ) ;
#405 = AXIS2_PLACEMENT_3D ( 'NONE', #112, #200, #844 ) ;
#406 = AXIS2_PLACEMENT_3D ( 'NONE', #288, #556, #826 ) ;
#407 = DIRECTION ( 'NONE',  ( 0.000000000000000000, -1.000000000000000000, -0.000000000000000000 ) ) ;
#408 = LINE ( 'NONE', #609, #758 ) ;
#409 = ORIENTED_EDGE ( 'NONE', *, *, #520, .F. ) ;
#410 = ORIENTED_EDGE ( 'NONE', *, *, #727, .T. ) ;
#411 = AXIS2_PLACEMENT_3D ( 'NONE', #139, #652, #20 ) ;
#412 = STYLED_ITEM ( 'NONE', ( #2 ), #529 ) ;
#413 = CYLINDRICAL_SURFACE ( 'NONE', #252, 1.499999999999994449 ) ;
#414 = ORIENTED_EDGE ( 'NONE', *, *, #484, .F. ) ;
#415 = EDGE_CURVE ( 'NONE', #397, #363, #32, .T. ) ;
#416 = ORIENTED_EDGE ( 'NONE', *, *, #301, .F. ) ;
#417 = CIRCLE ( 'NONE', #545, 1.499999999999994449 ) ;
#418 = EDGE_CURVE ( 'NONE', #686, #794, #420, .T. ) ;
#419 = AXIS2_PLACEMENT_3D ( 'NONE', #830, #757, #296 ) ;
#420 = LINE ( 'NONE', #685, #358 ) ;
#421 = ORIENTED_EDGE ( 'NONE', *, *, #554, .F. ) ;
#422 = ORIENTED_EDGE ( 'NONE', *, *, #592, .T. ) ;
#423 = CARTESIAN_POINT ( 'NONE',  ( 107.9999999999999858, 22.50000000000000000, 1.734723475976807094E-13 ) ) ;
#424 = ORIENTED_EDGE ( 'NONE', *, *, #746, .T. ) ;
#425 = ORIENTED_EDGE ( 'NONE', *, *, #558, .F. ) ;
#426 = DIRECTION ( 'NONE',  ( -0.000000000000000000, -1.000000000000000000, -0.000000000000000000 ) ) ;
#427 = ADVANCED_FACE ( 'NONE', ( #353 ), #622, .F. ) ;
#428 = AXIS2_PLACEMENT_3D ( 'NONE', #289, #35, #834 ) ;
#429 = VERTEX_POINT ( 'NONE', #762 ) ;
#430 = ORIENTED_EDGE ( 'NONE', *, *, #458, .F. ) ;
#431 = CIRCLE ( 'NONE', #667, 1.499999999999994449 ) ;
#432 = EDGE_CURVE ( 'NONE', #573, #483, #166, .T. ) ;
#433 = ORIENTED_EDGE ( 'NONE', *, *, #352, .T. ) ;
#434 = VERTEX_POINT ( 'NONE', #382 ) ;
#435 = EDGE_CURVE ( 'NONE', #602, #201, #393, .T. ) ;
#436 = CARTESIAN_POINT ( 'NONE',  ( -83.86761924206189178, -22.50000000000000000, -49.99999999999982947 ) ) ;
#437 = DIRECTION ( 'NONE',  ( 0.000000000000000000, -0.000000000000000000, -1.000000000000000000 ) ) ;
#438 = ORIENTED_EDGE ( 'NONE', *, *, #432, .T. ) ;
#439 = CARTESIAN_POINT ( 'NONE',  ( 103.7014288630928149, 17.49999999999999645, -12.99999999999981704 ) ) ;
#440 = DIRECTION ( 'NONE',  ( 0.000000000000000000, 0.000000000000000000, 1.000000000000000000 ) ) ;
#441 = AXIS2_PLACEMENT_3D ( 'NONE', #679, #735, #142 ) ;
#442 = EDGE_CURVE ( 'NONE', #128, #234, #791, .T. ) ;
#443 = ORIENTED_EDGE ( 'NONE', *, *, #741, .T. ) ;
#444 = CYLINDRICAL_SURFACE ( 'NONE', #842, 2.000000000000001776 ) ;
#445 = DIRECTION ( 'NONE',  ( 0.8574929257125443183, 0.000000000000000000, -0.5144957554275264577 ) ) ;
#446 = CIRCLE ( 'NONE', #708, 10.00000000000000178 ) ;
#447 = CIRCLE ( 'NONE', #30, 1.499999999999997780 ) ;
#448 = CARTESIAN_POINT ( 'NONE',  ( 77.00000000000001421, 17.49999999999999645, -46.99999999999982947 ) ) ;
#449 = ORIENTED_EDGE ( 'NONE', *, *, #301, .T. ) ;
#450 = CARTESIAN_POINT ( 'NONE',  ( 81.60000000000000853, 22.50000000000000000, -43.99999999999980815 ) ) ;
#451 = CARTESIAN_POINT ( 'NONE',  ( 77.00000000000001421, 17.49999999999999645, -45.49999999999982947 ) ) ;
#452 = DIRECTION ( 'NONE',  ( 0.000000000000000000, 0.000000000000000000, 1.000000000000000000 ) ) ;
#453 = VERTEX_POINT ( 'NONE', #197 ) ;
#454 = DIRECTION ( 'NONE',  ( -0.000000000000000000, 1.000000000000000000, -0.000000000000000000 ) ) ;
#455 = FACE_BOUND ( 'NONE', #316, .T. ) ;
#456 = DIRECTION ( 'NONE',  ( 0.000000000000000000, 1.000000000000000000, -0.000000000000000000 ) ) ;
#457 = LINE ( 'NONE', #512, #303 ) ;
#458 = EDGE_CURVE ( 'NONE', #477, #825, #514, .T. ) ;
#459 = ORIENTED_EDGE ( 'NONE', *, *, #127, .F. ) ;
#460 = FACE_OUTER_BOUND ( 'NONE', #168, .T. ) ;
#461 = ADVANCED_FACE ( 'NONE', ( #713 ), #852, .F. ) ;
#462 = CIRCLE ( 'NONE', #266, 1.499999999999997780 ) ;
#463 = CYLINDRICAL_SURFACE ( 'NONE', #189, 1.500000000000001332 ) ;
#464 = EDGE_LOOP ( 'NONE', ( #712, #690, #800, #141 ) ) ;
#465 = DIRECTION ( 'NONE',  ( 0.8574929257125442073, -0.000000000000000000, -0.5144957554275263467 ) ) ;
#466 = APPLICATION_PROTOCOL_DEFINITION ( 'draft international standard', 'automotive_design', 1998, #845 ) ;
#467 = ADVANCED_FACE ( 'NONE', ( #847 ), #444, .T. ) ;
#468 = CARTESIAN_POINT ( 'NONE',  ( 75.93809621030941059, 22.50000000000000000, -43.99999999999980815 ) ) ;
#469 = VERTEX_POINT ( 'NONE', #801 ) ;
#470 = CYLINDRICAL_SURFACE ( 'NONE', #441, 10.00000000000000178 ) ;
#471 = EDGE_CURVE ( 'NONE', #269, #832, #388, .T. ) ;
#472 = DIRECTION ( 'NONE',  ( 0.000000000000000000, 0.000000000000000000, 1.000000000000000000 ) ) ;
#473 = LINE ( 'NONE', #85, #669 ) ;
#474 = ORIENTED_EDGE ( 'NONE', *, *, #746, .F. ) ;
#475 = FACE_OUTER_BOUND ( 'NONE', #480, .T. ) ;
#476 = DIRECTION ( 'NONE',  ( 0.000000000000000000, 1.000000000000000000, 0.000000000000000000 ) ) ;
#477 = VERTEX_POINT ( 'NONE', #247 ) ;
#478 = PLANE ( 'NONE',  #511 ) ;
#479 = CIRCLE ( 'NONE', #702, 1.499999999999994449 ) ;
#480 = EDGE_LOOP ( 'NONE', ( #655, #722, #172, #196 ) ) ;
#481 = DIRECTION ( 'NONE',  ( 0.000000000000000000, 1.000000000000000000, 0.000000000000000000 ) ) ;
#482 = CARTESIAN_POINT ( 'NONE',  ( 77.00000000000001421, 22.50000000000000000, -46.99999999999982947 ) ) ;
#483 = VERTEX_POINT ( 'NONE', #509 ) ;
#484 = EDGE_CURVE ( 'NONE', #809, #598, #582, .T. ) ;
#485 = CARTESIAN_POINT ( 'NONE',  ( -7.000000000000005329, 17.49999999999999645, -46.99999999999982947 ) ) ;
#486 = VERTEX_POINT ( 'NONE', #659 ) ;
#487 = ORIENTED_EDGE ( 'NONE', *, *, #491, .T. ) ;
#488 = FACE_OUTER_BOUND ( 'NONE', #167, .T. ) ;
#489 = VERTEX_POINT ( 'NONE', #856 ) ;
#490 = ORIENTED_EDGE ( 'NONE', *, *, #135, .T. ) ;
#491 = EDGE_CURVE ( 'NONE', #397, #489, #447, .T. ) ;
#492 = LINE ( 'NONE', #360, #188 ) ;
#493 = ORIENTED_EDGE ( 'NONE', *, *, #677, .T. ) ;
#494 = CARTESIAN_POINT ( 'NONE',  ( 86.70273345148608257, 2.499999999999998668, -47.16211091418976764 ) ) ;
#495 = DIRECTION ( 'NONE',  ( 0.000000000000000000, 1.000000000000000000, -0.000000000000000000 ) ) ;
#496 = EDGE_LOOP ( 'NONE', ( #493, #443, #761, #164, #147 ) ) ;
#497 = AXIS2_PLACEMENT_3D ( 'NONE', #503, #699, #440 ) ;
#498 = AXIS2_PLACEMENT_3D ( 'NONE', #574, #254, #184 ) ;
#499 = CARTESIAN_POINT ( 'NONE',  ( 86.70273345148608257, 2.499999999999998668, -47.16211091418976764 ) ) ;
#500 = CARTESIAN_POINT ( 'NONE',  ( -85.00000000000000000, 22.50000000000000000, -49.99999999999982947 ) ) ;
#501 = CARTESIAN_POINT ( 'NONE',  ( -85.58260509348697553, -22.50000000000000000, -49.02899151085486551 ) ) ;
#502 = ADVANCED_FACE ( 'NONE', ( #460 ), #779, .F. ) ;
#503 = CARTESIAN_POINT ( 'NONE',  ( 75.93809621030941059, 2.499999999999998668, -33.99999999999980815 ) ) ;
#504 = ORIENTED_EDGE ( 'NONE', *, *, #415, .T. ) ;
#505 = DIRECTION ( 'NONE',  ( 0.000000000000000000, -0.000000000000000000, -1.000000000000000000 ) ) ;
#506 = LINE ( 'NONE', #451, #649 ) ;
#507 = PLANE ( 'NONE',  #568 ) ;
#508 = ORIENTED_EDGE ( 'NONE', *, *, #311, .F. ) ;
#509 = CARTESIAN_POINT ( 'NONE',  ( 114.9999999999999858, 22.50000000000000000, 1.743296003570838555E-13 ) ) ;
#510 = CARTESIAN_POINT ( 'NONE',  ( 84.51302546743484356, 2.499999999999998668, -39.14495755427507362 ) ) ;
#511 = AXIS2_PLACEMENT_3D ( 'NONE', #25, #522, #335 ) ;
#512 = CARTESIAN_POINT ( 'NONE',  ( -83.86761924206189178, 22.50000000000000000, -49.99999999999982947 ) ) ;
#513 = ORIENTED_EDGE ( 'NONE', *, *, #442, .F. ) ;
#514 = LINE ( 'NONE', #577, #817 ) ;
#515 = VECTOR ( 'NONE', #400, 1000.000000000000000 ) ;
#516 = CARTESIAN_POINT ( 'NONE',  ( 7.000000000000005329, 22.50000000000000000, -46.99999999999982947 ) ) ;
#517 = FACE_OUTER_BOUND ( 'NONE', #345, .T. ) ;
#518 = ORIENTED_EDGE ( 'NONE', *, *, #12, .T. ) ;
#519 = FACE_BOUND ( 'NONE', #678, .T. ) ;
#520 = EDGE_CURVE ( 'NONE', #674, #434, #134, .T. ) ;
#521 = CARTESIAN_POINT ( 'NONE',  ( 79.99752372456063654, 2.499999999999998668, -43.13898507803449434 ) ) ;
#522 = DIRECTION ( 'NONE',  ( 0.8574929257125443183, -0.000000000000000000, 0.5144957554275263467 ) ) ;
#523 =( GEOMETRIC_REPRESENTATION_CONTEXT ( 3 ) GLOBAL_UNCERTAINTY_ASSIGNED_CONTEXT ( ( #748 ) ) GLOBAL_UNIT_ASSIGNED_CONTEXT ( ( #138, #723, #261 ) ) REPRESENTATION_CONTEXT ( 'NONE', 'WORKASPACE' ) );
#524 = ORIENTED_EDGE ( 'NONE', *, *, #418, .T. ) ;
#525 = PRODUCT_DEFINITION ( 'General', '', #756, #788 ) ;
#526 = FACE_BOUND ( 'NONE', #221, .T. ) ;
#527 = AXIS2_PLACEMENT_3D ( 'NONE', #402, #326, #528 ) ;
#528 = DIRECTION ( 'NONE',  ( 0.000000000000000000, 0.000000000000000000, -1.000000000000000000 ) ) ;
#529 = MANIFOLD_SOLID_BREP ( 'Fillet2', #320 ) ;
#530 = AXIS2_PLACEMENT_3D ( 'NONE', #330, #595, #808 ) ;
#531 = ORIENTED_EDGE ( 'NONE', *, *, #821, .T. ) ;
#532 = CARTESIAN_POINT ( 'NONE',  ( -7.000000000000005329, 17.49999999999999645, -45.49999999999982236 ) ) ;
#533 = PLANE ( 'NONE',  #630 ) ;
#534 = FACE_OUTER_BOUND ( 'NONE', #496, .T. ) ;
#535 = EDGE_CURVE ( 'NONE', #176, #38, #729, .T. ) ;
#536 = ORIENTED_EDGE ( 'NONE', *, *, #677, .F. ) ;
#537 = DIRECTION ( 'NONE',  ( 0.5144957554275263467, -0.000000000000000000, 0.8574929257125443183 ) ) ;
#538 = CARTESIAN_POINT ( 'NONE',  ( 0.000000000000000000, 22.50000000000000000, 0.000000000000000000 ) ) ;
#539 = DIRECTION ( 'NONE',  ( 0.000000000000000000, 1.000000000000000000, 0.000000000000000000 ) ) ;
#540 = ORIENTED_EDGE ( 'NONE', *, *, #592, .F. ) ;
#541 = DIRECTION ( 'NONE',  ( 0.000000000000000000, 0.000000000000000000, -1.000000000000000000 ) ) ;
#542 = AXIS2_PLACEMENT_3D ( 'NONE', #516, #456, #130 ) ;
#543 = CARTESIAN_POINT ( 'NONE',  ( -7.000000000000005329, 17.49999999999999645, -45.49999999999982236 ) ) ;
#544 = CARTESIAN_POINT ( 'NONE',  ( 103.7014288630928149, 17.49999999999999645, -14.49999999999981526 ) ) ;
#545 = AXIS2_PLACEMENT_3D ( 'NONE', #368, #242, #733 ) ;
#546 = DIRECTION ( 'NONE',  ( -1.000000000000000000, -0.000000000000000000, -0.000000000000000000 ) ) ;
#547 = AXIS2_PLACEMENT_3D ( 'NONE', #485, #347, #549 ) ;
#548 = ADVANCED_FACE ( 'NONE', ( #755 ), #470, .F. ) ;
#549 = DIRECTION ( 'NONE',  ( 0.000000000000000000, -0.000000000000000000, 1.000000000000000000 ) ) ;
#550 = DIRECTION ( 'NONE',  ( -0.000000000000000000, 1.000000000000000000, -0.000000000000000000 ) ) ;
#551 = FACE_OUTER_BOUND ( 'NONE', #351, .T. ) ;
#552 = ADVANCED_FACE ( 'NONE', ( #551 ), #90, .F. ) ;
#553 = ORIENTED_EDGE ( 'NONE', *, *, #131, .F. ) ;
#554 = EDGE_CURVE ( 'NONE', #701, #176, #104, .T. ) ;
#555 = VECTOR ( 'NONE', #218, 1000.000000000000227 ) ;
#556 = DIRECTION ( 'NONE',  ( -0.5144957554275264577, 5.236046142685905779E-16, -0.8574929257125443183 ) ) ;
#557 = EDGE_LOOP ( 'NONE', ( #137, #684, #774, #823 ) ) ;
#558 = EDGE_CURVE ( 'NONE', #434, #674, #114, .T. ) ;
#559 = AXIS2_PLACEMENT_3D ( 'NONE', #317, #206, #191 ) ;
#560 = CARTESIAN_POINT ( 'NONE',  ( -90.17492925712549834, 22.50000000000000000, -49.14495755427509494 ) ) ;
#561 = AXIS2_PLACEMENT_3D ( 'NONE', #439, #309, #647 ) ;
#562 = ORIENTED_EDGE ( 'NONE', *, *, #158, .T. ) ;
#563 = CARTESIAN_POINT ( 'NONE',  ( 81.60000000000000853, 22.50000000000000000, -43.99999999999980815 ) ) ;
#564 = ORIENTED_EDGE ( 'NONE', *, *, #131, .T. ) ;
#565 = ORIENTED_EDGE ( 'NONE', *, *, #583, .T. ) ;
#566 = LINE ( 'NONE', #635, #171 ) ;
#567 = FACE_OUTER_BOUND ( 'NONE', #588, .T. ) ;
#568 = AXIS2_PLACEMENT_3D ( 'NONE', #448, #305, #437 ) ;
#569 = EDGE_CURVE ( 'NONE', #1, #602, #19, .T. ) ;
#570 = CARTESIAN_POINT ( 'NONE',  ( -77.00000000000001421, 17.49999999999999645, -46.99999999999982947 ) ) ;
#571 = EDGE_CURVE ( 'NONE', #429, #693, #751, .T. ) ;
#572 = CARTESIAN_POINT ( 'NONE',  ( -77.00000000000001421, 17.49999999999999645, -46.99999999999982947 ) ) ;
#573 = VERTEX_POINT ( 'NONE', #275 ) ;
#574 = CARTESIAN_POINT ( 'NONE',  ( 77.00000000000001421, 17.49999999999999645, -46.99999999999982947 ) ) ;
#575 = CARTESIAN_POINT ( 'NONE',  ( -7.000000000000005329, 17.49999999999999645, -46.99999999999982947 ) ) ;
#576 = CARTESIAN_POINT ( 'NONE',  ( -77.00000000000001421, 17.49999999999999645, -46.99999999999982947 ) ) ;
#577 = CARTESIAN_POINT ( 'NONE',  ( -77.00000000000001421, 17.49999999999999645, -45.49999999999982947 ) ) ;
#578 = CARTESIAN_POINT ( 'NONE',  ( 114.9999999999999858, 22.50000000000000000, 1.743296003570838555E-13 ) ) ;
#579 = CARTESIAN_POINT ( 'NONE',  ( 79.99752372456063654, 2.499999999999998668, -43.13898507803449434 ) ) ;
#580 = CIRCLE ( 'NONE', #428, 1.500000000000001332 ) ;
#581 = EDGE_LOOP ( 'NONE', ( #370, #621, #805, #433, #392, #438, #410, #682, #696, #846 ) ) ;
#582 = LINE ( 'NONE', #63, #207 ) ;
#583 = EDGE_CURVE ( 'NONE', #687, #354, #664, .T. ) ;
#584 = CYLINDRICAL_SURFACE ( 'NONE', #194, 1.499999999999994449 ) ;
#585 = CIRCLE ( 'NONE', #743, 1.499999999999997780 ) ;
#586 = DIRECTION ( 'NONE',  ( 0.000000000000000000, 1.000000000000000000, 0.000000000000000000 ) ) ;
#587 = EDGE_CURVE ( 'NONE', #828, #701, #611, .T. ) ;
#588 = EDGE_LOOP ( 'NONE', ( #18, #606, #422, #610 ) ) ;
#589 = SURFACE_STYLE_USAGE ( .BOTH. , #375 ) ;
#590 = VECTOR ( 'NONE', #255, 1000.000000000000000 ) ;
#591 = FACE_OUTER_BOUND ( 'NONE', #291, .T. ) ;
#592 = EDGE_CURVE ( 'NONE', #469, #152, #580, .T. ) ;
#593 = CARTESIAN_POINT ( 'NONE',  ( 81.60000000000000853, -22.50000000000000000, -43.99999999999980815 ) ) ;
#594 = CARTESIAN_POINT ( 'NONE',  ( -77.00000000000001421, 22.50000000000000000, -46.99999999999982947 ) ) ;
#595 = DIRECTION ( 'NONE',  ( 0.000000000000000000, 1.000000000000000000, 0.000000000000000000 ) ) ;
#596 =( GEOMETRIC_REPRESENTATION_CONTEXT ( 3 ) GLOBAL_UNCERTAINTY_ASSIGNED_CONTEXT ( ( #612 ) ) GLOBAL_UNIT_ASSIGNED_CONTEXT ( ( #65, #333, #202 ) ) REPRESENTATION_CONTEXT ( 'NONE', 'WORKASPACE' ) );
#597 = VECTOR ( 'NONE', #546, 1000.000000000000000 ) ;
#598 = VERTEX_POINT ( 'NONE', #362 ) ;
#599 = ADVANCED_FACE ( 'NONE', ( #631 ), #43, .T. ) ;
#600 = CIRCLE ( 'NONE', #337, 1.499999999999997780 ) ;
#601 = DIRECTION ( 'NONE',  ( 0.000000000000000000, -0.000000000000000000, 1.000000000000000000 ) ) ;
#602 = VERTEX_POINT ( 'NONE', #60 ) ;
#603 = DIRECTION ( 'NONE',  ( -0.8574929257125443183, 0.000000000000000000, 0.5144957554275263467 ) ) ;
#604 = FACE_OUTER_BOUND ( 'NONE', #557, .T. ) ;
#605 = CARTESIAN_POINT ( 'NONE',  ( 103.7014288630928149, 22.50000000000000000, -12.99999999999981704 ) ) ;
#606 = ORIENTED_EDGE ( 'NONE', *, *, #810, .T. ) ;
#607 = PRODUCT_DEFINITION_SHAPE ( 'NONE', 'NONE',  #525 ) ;
#608 = CARTESIAN_POINT ( 'NONE',  ( 114.9999999999999858, 22.50000000000000000, 1.743296003570838555E-13 ) ) ;
#609 = CARTESIAN_POINT ( 'NONE',  ( -77.00000000000001421, 17.49999999999999645, -48.49999999999982236 ) ) ;
#610 = ORIENTED_EDGE ( 'NONE', *, *, #8, .F. ) ;
#611 = LINE ( 'NONE', #28, #597 ) ;
#612 = UNCERTAINTY_MEASURE_WITH_UNIT (LENGTH_MEASURE( 1.000000000000000082E-05 ), #65, 'distance_accuracy_value', 'NONE');
#613 = DIRECTION ( 'NONE',  ( 0.000000000000000000, 0.000000000000000000, -1.000000000000000000 ) ) ;
#614 = AXIS2_PLACEMENT_3D ( 'NONE', #576, #321, #777 ) ;
#615 = ORIENTED_EDGE ( 'NONE', *, *, #760, .F. ) ;
#616 = CIRCLE ( 'NONE', #219, 10.00000000000000178 ) ;
#617 = EDGE_CURVE ( 'NONE', #693, #706, #642, .T. ) ;
#618 = DIRECTION ( 'NONE',  ( 0.000000000000000000, 0.000000000000000000, 1.000000000000000000 ) ) ;
#619 = ORIENTED_EDGE ( 'NONE', *, *, #435, .T. ) ;
#620 = EDGE_CURVE ( 'NONE', #152, #469, #145, .T. ) ;
#621 = ORIENTED_EDGE ( 'NONE', *, *, #4, .T. ) ;
#622 = PLANE ( 'NONE',  #406 ) ;
#623 = ORIENTED_EDGE ( 'NONE', *, *, #75, .T. ) ;
#624 = ORIENTED_EDGE ( 'NONE', *, *, #115, .T. ) ;
#625 = AXIS2_PLACEMENT_3D ( 'NONE', #66, #181, #703 ) ;
#626 = VERTEX_POINT ( 'NONE', #501 ) ;
#627 = VECTOR ( 'NONE', #136, 1000.000000000000000 ) ;
#628 = DIRECTION ( 'NONE',  ( 0.5144957554275263467, 0.000000000000000000, 0.8574929257125442073 ) ) ;
#629 = DIRECTION ( 'NONE',  ( -0.000000000000000000, 1.000000000000000000, -0.000000000000000000 ) ) ;
#630 = AXIS2_PLACEMENT_3D ( 'NONE', #15, #407, #272 ) ;
#631 = FACE_OUTER_BOUND ( 'NONE', #231, .T. ) ;
#632 = ORIENTED_EDGE ( 'NONE', *, *, #279, .T. ) ;
#633 = EDGE_CURVE ( 'NONE', #477, #246, #249, .T. ) ;
#634 = AXIS2_PLACEMENT_3D ( 'NONE', #399, #208, #656 ) ;
#635 = CARTESIAN_POINT ( 'NONE',  ( -114.9999999999999858, -22.50000000000000000, 1.743296003570838555E-13 ) ) ;
#636 = DIRECTION ( 'NONE',  ( 0.000000000000000000, 0.000000000000000000, 1.000000000000000000 ) ) ;
#637 = ORIENTED_EDGE ( 'NONE', *, *, #115, .F. ) ;
#638 = VECTOR ( 'NONE', #126, 1000.000000000000000 ) ;
#639 = DIRECTION ( 'NONE',  ( 0.8574929257125442073, -0.000000000000000000, -0.5144957554275263467 ) ) ;
#640 = CARTESIAN_POINT ( 'NONE',  ( 7.000000000000005329, 17.49999999999999645, -46.99999999999982947 ) ) ;
#641 = ORIENTED_EDGE ( 'NONE', *, *, #535, .F. ) ;
#642 = LINE ( 'NONE', #314, #59 ) ;
#643 = FACE_OUTER_BOUND ( 'NONE', #119, .T. ) ;
#644 = EDGE_CURVE ( 'NONE', #201, #234, #319, .T. ) ;
#645 = ORIENTED_EDGE ( 'NONE', *, *, #633, .T. ) ;
#646 = CARTESIAN_POINT ( 'NONE',  ( 103.7014288630928149, 17.49999999999999645, -12.99999999999981704 ) ) ;
#647 = DIRECTION ( 'NONE',  ( 0.000000000000000000, 0.000000000000000000, 1.000000000000000000 ) ) ;
#648 = CYLINDRICAL_SURFACE ( 'NONE', #292, 1.500000000000001332 ) ;
#649 = VECTOR ( 'NONE', #786, 1000.000000000000000 ) ;
#650 = ORIENTED_EDGE ( 'NONE', *, *, #17, .F. ) ;
#651 = DIRECTION ( 'NONE',  ( 0.000000000000000000, -1.000000000000000000, 0.000000000000000000 ) ) ;
#652 = DIRECTION ( 'NONE',  ( 1.224646799147367012E-16, 0.000000000000000000, -1.000000000000000000 ) ) ;
#653 = LINE ( 'NONE', #843, #829 ) ;
#654 = DIRECTION ( 'NONE',  ( -0.000000000000000000, 1.000000000000000000, -0.000000000000000000 ) ) ;
#655 = ORIENTED_EDGE ( 'NONE', *, *, #771, .T. ) ;
#656 = DIRECTION ( 'NONE',  ( 1.000000000000000000, 0.000000000000000000, 0.000000000000000000 ) ) ;
#657 = CARTESIAN_POINT ( 'NONE',  ( 84.51302546743484356, 22.50000000000000000, -39.14495755427507362 ) ) ;
#658 = ORIENTED_EDGE ( 'NONE', *, *, #352, .F. ) ;
#659 = CARTESIAN_POINT ( 'NONE',  ( 103.7014288630928149, 22.50000000000000000, -14.49999999999981526 ) ) ;
#660 = APPLICATION_CONTEXT ( 'automotive_design' ) ;
#661 = EDGE_CURVE ( 'NONE', #626, #1, #566, .T. ) ;
#662 = CARTESIAN_POINT ( 'NONE',  ( 7.000000000000005329, 17.49999999999999645, -48.49999999999982947 ) ) ;
#663 = PLANE ( 'NONE',  #281 ) ;
#664 = CIRCLE ( 'NONE', #290, 1.499999999999994449 ) ;
#665 = ORIENTED_EDGE ( 'NONE', *, *, #161, .F. ) ;
#666 = CARTESIAN_POINT ( 'NONE',  ( 83.86761924206189178, 22.50000000000000000, -49.99999999999982947 ) ) ;
#667 = AXIS2_PLACEMENT_3D ( 'NONE', #572, #44, #452 ) ;
#668 = CARTESIAN_POINT ( 'NONE',  ( 7.000000000000005329, 17.49999999999999645, -46.99999999999982947 ) ) ;
#669 = VECTOR ( 'NONE', #339, 1000.000000000000000 ) ;
#670 = ORIENTED_EDGE ( 'NONE', *, *, #50, .F. ) ;
#671 = VECTOR ( 'NONE', #329, 1000.000000000000000 ) ;
#672 = CARTESIAN_POINT ( 'NONE',  ( -85.58260509348697553, 22.50000000000000000, -49.02899151085486551 ) ) ;
#673 = EDGE_CURVE ( 'NONE', #354, #453, #506, .T. ) ;
#674 = VERTEX_POINT ( 'NONE', #376 ) ;
#675 = DIRECTION ( 'NONE',  ( 0.000000000000000000, 1.000000000000000000, -0.000000000000000000 ) ) ;
#676 = DIRECTION ( 'NONE',  ( -1.000000000000000000, 0.000000000000000000, -0.000000000000000000 ) ) ;
#677 = EDGE_CURVE ( 'NONE', #764, #734, #193, .T. ) ;
#678 = EDGE_LOOP ( 'NONE', ( #739, #770 ) ) ;
#679 = CARTESIAN_POINT ( 'NONE',  ( 75.93809621030941059, 22.50000000000000000, -33.99999999999980815 ) ) ;
#680 = AXIS2_PLACEMENT_3D ( 'NONE', #538, #811, #271 ) ;
#681 = AXIS2_PLACEMENT_3D ( 'NONE', #781, #586, #711 ) ;
#682 = ORIENTED_EDGE ( 'NONE', *, *, #198, .T. ) ;
#683 = VECTOR ( 'NONE', #73, 1000.000000000000000 ) ;
#684 = ORIENTED_EDGE ( 'NONE', *, *, #276, .T. ) ;
#685 = CARTESIAN_POINT ( 'NONE',  ( 85.58260509348697553, 22.50000000000000000, -49.02899151085488683 ) ) ;
#686 = VERTEX_POINT ( 'NONE', #185 ) ;
#687 = VERTEX_POINT ( 'NONE', #720 ) ;
#688 = ADVANCED_FACE ( 'NONE', ( #714 ), #302, .F. ) ;
#689 = DIRECTION ( 'NONE',  ( -0.000000000000000000, 1.000000000000000000, -0.000000000000000000 ) ) ;
#690 = ORIENTED_EDGE ( 'NONE', *, *, #730, .T. ) ;
#691 = ORIENTED_EDGE ( 'NONE', *, *, #569, .T. ) ;
#692 = CARTESIAN_POINT ( 'NONE',  ( 103.7014288630928149, 22.50000000000000000, -11.49999999999981881 ) ) ;
#693 = VERTEX_POINT ( 'NONE', #379 ) ;
#694 = ORIENTED_EDGE ( 'NONE', *, *, #178, .F. ) ;
#695 = CIRCLE ( 'NONE', #304, 1.499999999999994449 ) ;
#696 = ORIENTED_EDGE ( 'NONE', *, *, #587, .T. ) ;
#697 = ADVANCED_FACE ( 'NONE', ( #55 ), #838, .F. ) ;
#698 = DIRECTION ( 'NONE',  ( 0.000000000000000000, -1.000000000000000000, 0.000000000000000000 ) ) ;
#699 = DIRECTION ( 'NONE',  ( 0.000000000000000000, 1.000000000000000000, 0.000000000000000000 ) ) ;
#700 = EDGE_CURVE ( 'NONE', #820, #6, #325, .T. ) ;
#701 = VERTEX_POINT ( 'NONE', #385 ) ;
#702 = AXIS2_PLACEMENT_3D ( 'NONE', #384, #83, #262 ) ;
#703 = DIRECTION ( 'NONE',  ( 0.000000000000000000, 0.000000000000000000, -1.000000000000000000 ) ) ;
#704 = EDGE_CURVE ( 'NONE', #176, #626, #653, .T. ) ;
#705 = PLANE ( 'NONE',  #840 ) ;
#706 = VERTEX_POINT ( 'NONE', #848 ) ;
#707 = CARTESIAN_POINT ( 'NONE',  ( -7.000000000000005329, 22.50000000000000000, -46.99999999999982947 ) ) ;
#708 = AXIS2_PLACEMENT_3D ( 'NONE', #310, #715, #850 ) ;
#709 = ADVANCED_FACE ( 'NONE', ( #111 ), #584, .F. ) ;
#710 = DIRECTION ( 'NONE',  ( -0.000000000000000000, 1.000000000000000000, -0.000000000000000000 ) ) ;
#711 = DIRECTION ( 'NONE',  ( 0.000000000000000000, 0.000000000000000000, 1.000000000000000000 ) ) ;
#712 = ORIENTED_EDGE ( 'NONE', *, *, #344, .F. ) ;
#713 = FACE_OUTER_BOUND ( 'NONE', #381, .T. ) ;
#714 = FACE_OUTER_BOUND ( 'NONE', #464, .T. ) ;
#715 = DIRECTION ( 'NONE',  ( 0.000000000000000000, 1.000000000000000000, 0.000000000000000000 ) ) ;
#716 = SHAPE_DEFINITION_REPRESENTATION ( #607, #753 ) ;
#717 = VERTEX_POINT ( 'NONE', #436 ) ;
#718 = FILL_AREA_STYLE_COLOUR ( '', #238 ) ;
#719 = FACE_OUTER_BOUND ( 'NONE', #581, .T. ) ;
#720 = CARTESIAN_POINT ( 'NONE',  ( 77.00000000000001421, 17.49999999999999645, -48.49999999999982236 ) ) ;
#721 = LINE ( 'NONE', #195, #638 ) ;
#722 = ORIENTED_EDGE ( 'NONE', *, *, #617, .T. ) ;
#723 =( NAMED_UNIT ( * ) PLANE_ANGLE_UNIT ( ) SI_UNIT ( $, .RADIAN. ) );
#724 = VECTOR ( 'NONE', #831, 1000.000000000000227 ) ;
#725 = VECTOR ( 'NONE', #689, 1000.000000000000000 ) ;
#726 = DIRECTION ( 'NONE',  ( 0.000000000000000000, -0.000000000000000000, -1.000000000000000000 ) ) ;
#727 = EDGE_CURVE ( 'NONE', #483, #794, #121, .T. ) ;
#728 = ORIENTED_EDGE ( 'NONE', *, *, #727, .F. ) ;
#729 = LINE ( 'NONE', #745, #824 ) ;
#730 = EDGE_CURVE ( 'NONE', #205, #429, #250, .T. ) ;
#731 = PLANE ( 'NONE',  #680 ) ;
#732 = LINE ( 'NONE', #814, #87 ) ;
#733 = DIRECTION ( 'NONE',  ( 0.000000000000000000, 0.000000000000000000, -1.000000000000000000 ) ) ;
#734 = VERTEX_POINT ( 'NONE', #499 ) ;
#735 = DIRECTION ( 'NONE',  ( 0.000000000000000000, 1.000000000000000000, 0.000000000000000000 ) ) ;
#736 = CARTESIAN_POINT ( 'NONE',  ( 103.7014288630928149, 17.49999999999999645, -12.99999999999981704 ) ) ;
#737 = DIRECTION ( 'NONE',  ( 0.000000000000000000, 1.000000000000000000, -0.000000000000000000 ) ) ;
#738 = AXIS2_PLACEMENT_3D ( 'NONE', #570, #366, #776 ) ;
#739 = ORIENTED_EDGE ( 'NONE', *, *, #821, .F. ) ;
#740 = PRODUCT ( 'Frame-Railing-Right', 'Frame-Railing-Right', '', ( #328 ) ) ;
#741 = EDGE_CURVE ( 'NONE', #734, #706, #772, .T. ) ;
#742 = LINE ( 'NONE', #494, #163 ) ;
#743 = AXIS2_PLACEMENT_3D ( 'NONE', #605, #21, #216 ) ;
#744 = ORIENTED_EDGE ( 'NONE', *, *, #102, .T. ) ;
#745 = CARTESIAN_POINT ( 'NONE',  ( -114.9999999999999858, 22.50000000000000000, 1.743296003570838555E-13 ) ) ;
#746 = EDGE_CURVE ( 'NONE', #598, #686, #732, .T. ) ;
#748 = UNCERTAINTY_MEASURE_WITH_UNIT (LENGTH_MEASURE( 1.000000000000000082E-05 ), #138, 'distance_accuracy_value', 'NONE');
#747 = VECTOR ( 'NONE', #212, 1000.000000000000000 ) ;
#749 = FACE_OUTER_BOUND ( 'NONE', #836, .T. ) ;
#750 = EDGE_LOOP ( 'NONE', ( #105, #69 ) ) ;
#751 = LINE ( 'NONE', #23, #383 ) ;
#752 = CARTESIAN_POINT ( 'NONE',  ( 81.60000000000000853, 22.50000000000000000, -43.99999999999980815 ) ) ;
#753 = ADVANCED_BREP_SHAPE_REPRESENTATION ( 'Frame-Railing-Right', ( #529, #634 ), #596 ) ;
#754 = CARTESIAN_POINT ( 'NONE',  ( 77.00000000000001421, 22.50000000000000000, -48.49999999999982236 ) ) ;
#755 = FACE_OUTER_BOUND ( 'NONE', #855, .T. ) ;
#756 = PRODUCT_DEFINITION_FORMATION_WITH_SPECIFIED_SOURCE ( 'Symmetric', '', #740, .NOT_KNOWN. ) ;
#757 = DIRECTION ( 'NONE',  ( -0.000000000000000000, 1.000000000000000000, -0.000000000000000000 ) ) ;
#758 = VECTOR ( 'NONE', #395, 1000.000000000000000 ) ;
#759 = ORIENTED_EDGE ( 'NONE', *, *, #161, .T. ) ;
#760 = EDGE_CURVE ( 'NONE', #820, #674, #390, .T. ) ;
#761 = ORIENTED_EDGE ( 'NONE', *, *, #617, .F. ) ;
#762 = CARTESIAN_POINT ( 'NONE',  ( 84.51302546743484356, 2.499999999999998668, -39.14495755427507362 ) ) ;
#763 = ORIENTED_EDGE ( 'NONE', *, *, #760, .T. ) ;
#764 = VERTEX_POINT ( 'NONE', #521 ) ;
#765 = LINE ( 'NONE', #223, #725 ) ;
#766 = ORIENTED_EDGE ( 'NONE', *, *, #741, .F. ) ;
#767 = DIRECTION ( 'NONE',  ( 5.551115123125782702E-16, 1.000000000000000000, 2.775557561562891351E-16 ) ) ;
#768 = ORIENTED_EDGE ( 'NONE', *, *, #435, .F. ) ;
#769 = CIRCLE ( 'NONE', #229, 2.000000000000001776 ) ;
#770 = ORIENTED_EDGE ( 'NONE', *, *, #775, .F. ) ;
#771 = EDGE_CURVE ( 'NONE', #573, #693, #203, .T. ) ;
#772 = LINE ( 'NONE', #177, #515 ) ;
#773 = DIRECTION ( 'NONE',  ( 0.000000000000000000, 0.000000000000000000, -1.000000000000000000 ) ) ;
#774 = ORIENTED_EDGE ( 'NONE', *, *, #298, .T. ) ;
#775 = EDGE_CURVE ( 'NONE', #818, #825, #40, .T. ) ;
#776 = DIRECTION ( 'NONE',  ( 0.000000000000000000, 0.000000000000000000, 1.000000000000000000 ) ) ;
#777 = DIRECTION ( 'NONE',  ( 0.000000000000000000, 0.000000000000000000, 1.000000000000000000 ) ) ;
#778 = ORIENTED_EDGE ( 'NONE', *, *, #491, .F. ) ;
#779 = CYLINDRICAL_SURFACE ( 'NONE', #498, 1.499999999999994449 ) ;
#780 = DIRECTION ( 'NONE',  ( 0.000000000000000000, 1.000000000000000000, 0.000000000000000000 ) ) ;
#781 = CARTESIAN_POINT ( 'NONE',  ( -7.000000000000005329, 17.49999999999999645, -46.99999999999982947 ) ) ;
#782 = EDGE_LOOP ( 'NONE', ( #759, #565 ) ) ;
#783 = DIRECTION ( 'NONE',  ( 0.000000000000000000, 0.000000000000000000, -1.000000000000000000 ) ) ;
#784 = VECTOR ( 'NONE', #550, 1000.000000000000000 ) ;
#785 = VECTOR ( 'NONE', #378, 1000.000000000000000 ) ;
#786 = DIRECTION ( 'NONE',  ( -0.000000000000000000, 1.000000000000000000, -0.000000000000000000 ) ) ;
#787 = DIRECTION ( 'NONE',  ( -0.000000000000000000, 1.000000000000000000, -0.000000000000000000 ) ) ;
#788 = PRODUCT_DEFINITION_CONTEXT ( 'detailed design', #845, 'design' ) ;
#789 = EDGE_LOOP ( 'NONE', ( #691, #160, #374, #389 ) ) ;
#790 = VECTOR ( 'NONE', #853, 1000.000000000000114 ) ;
#791 = LINE ( 'NONE', #450, #107 ) ;
#792 = CARTESIAN_POINT ( 'NONE',  ( 81.60000000000000853, 22.50000000000000000, -43.99999999999980815 ) ) ;
#793 = FACE_OUTER_BOUND ( 'NONE', #789, .T. ) ;
#794 = VERTEX_POINT ( 'NONE', #78 ) ;
#795 = DIRECTION ( 'NONE',  ( 1.000000000000000000, -0.000000000000000000, -0.000000000000000000 ) ) ;
#796 = CYLINDRICAL_SURFACE ( 'NONE', #225, 1.499999999999997780 ) ;
#797 = AXIS2_PLACEMENT_3D ( 'NONE', #792, #445, #51 ) ;
#798 = DIRECTION ( 'NONE',  ( -1.000000000000000000, -0.000000000000000000, -0.000000000000000000 ) ) ;
#799 = ADVANCED_FACE ( 'NONE', ( #334 ), #533, .T. ) ;
#800 = ORIENTED_EDGE ( 'NONE', *, *, #571, .T. ) ;
#801 = CARTESIAN_POINT ( 'NONE',  ( 7.000000000000005329, 22.50000000000000000, -48.49999999999982947 ) ) ;
#802 = VECTOR ( 'NONE', #839, 1000.000000000000000 ) ;
#803 = VECTOR ( 'NONE', #628, 1000.000000000000227 ) ;
#804 = DIRECTION ( 'NONE',  ( 0.000000000000000000, 0.000000000000000000, 1.000000000000000000 ) ) ;
#805 = ORIENTED_EDGE ( 'NONE', *, *, #442, .T. ) ;
#806 = DIRECTION ( 'NONE',  ( -0.5144957554275262357, -0.000000000000000000, 0.8574929257125443183 ) ) ;
#807 = DIRECTION ( 'NONE',  ( -0.000000000000000000, 1.000000000000000000, -0.000000000000000000 ) ) ;
#808 = DIRECTION ( 'NONE',  ( 0.000000000000000000, -0.000000000000000000, 1.000000000000000000 ) ) ;
#809 = VERTEX_POINT ( 'NONE', #144 ) ;
#810 = EDGE_CURVE ( 'NONE', #269, #469, #7, .T. ) ;
#811 = DIRECTION ( 'NONE',  ( 0.000000000000000000, -1.000000000000000000, -0.000000000000000000 ) ) ;
#812 = CARTESIAN_POINT ( 'NONE',  ( 114.9999999999999858, 22.50000000000000000, 1.743296003570838555E-13 ) ) ;
#813 = ORIENTED_EDGE ( 'NONE', *, *, #569, .F. ) ;
#814 = CARTESIAN_POINT ( 'NONE',  ( 114.9999999999999858, -22.50000000000000000, 1.743296003570838555E-13 ) ) ;
#815 = CIRCLE ( 'NONE', #681, 1.500000000000001332 ) ;
#816 = PLANE ( 'NONE',  #173 ) ;
#817 = VECTOR ( 'NONE', #454, 1000.000000000000000 ) ;
#818 = VERTEX_POINT ( 'NONE', #258 ) ;
#819 = CARTESIAN_POINT ( 'NONE',  ( 103.7014288630928149, 17.49999999999999645, -11.49999999999981881 ) ) ;
#820 = VERTEX_POINT ( 'NONE', #532 ) ;
#821 = EDGE_CURVE ( 'NONE', #825, #818, #479, .T. ) ;
#822 = DIRECTION ( 'NONE',  ( 0.000000000000000000, 0.000000000000000000, -1.000000000000000000 ) ) ;
#823 = ORIENTED_EDGE ( 'NONE', *, *, #415, .F. ) ;
#824 = VECTOR ( 'NONE', #806, 1000.000000000000114 ) ;
#825 = VERTEX_POINT ( 'NONE', #77 ) ;
#826 = DIRECTION ( 'NONE',  ( -0.8574929257125442073, 0.000000000000000000, 0.5144957554275263467 ) ) ;
#827 = AXIS2_PLACEMENT_3D ( 'NONE', #220, #539, #213 ) ;
#828 = VERTEX_POINT ( 'NONE', #666 ) ;
#829 = VECTOR ( 'NONE', #698, 1000.000000000000000 ) ;
#830 = CARTESIAN_POINT ( 'NONE',  ( -7.000000000000005329, 17.49999999999999645, -46.99999999999982947 ) ) ;
#831 = DIRECTION ( 'NONE',  ( 0.8574929257125444293, -0.000000000000000000, 0.5144957554275260136 ) ) ;
#832 = VERTEX_POINT ( 'NONE', #3 ) ;
#833 = ADVANCED_FACE ( 'NONE', ( #519, #215, #338, #526, #455, #719 ), #731, .F. ) ;
#834 = DIRECTION ( 'NONE',  ( 0.000000000000000000, 0.000000000000000000, -1.000000000000000000 ) ) ;
#835 = ORIENTED_EDGE ( 'NONE', *, *, #810, .F. ) ;
#836 = EDGE_LOOP ( 'NONE', ( #645, #355 ) ) ;
#837 = ADVANCED_FACE ( 'NONE', ( #475 ), #13, .F. ) ;
#838 = CYLINDRICAL_SURFACE ( 'NONE', #561, 1.499999999999997780 ) ;
#839 = DIRECTION ( 'NONE',  ( -0.000000000000000000, -1.000000000000000000, -0.000000000000000000 ) ) ;
#840 = AXIS2_PLACEMENT_3D ( 'NONE', #500, #377, #387 ) ;
#841 = ORIENTED_EDGE ( 'NONE', *, *, #704, .F. ) ;
#842 = AXIS2_PLACEMENT_3D ( 'NONE', #58, #124, #54 ) ;
#843 = CARTESIAN_POINT ( 'NONE',  ( -85.58260509348697553, 22.50000000000000000, -49.02899151085488683 ) ) ;
#844 = DIRECTION ( 'NONE',  ( 0.000000000000000000, 0.000000000000000000, -1.000000000000000000 ) ) ;
#845 = APPLICATION_CONTEXT ( 'automotive_design' ) ;
#846 = ORIENTED_EDGE ( 'NONE', *, *, #554, .T. ) ;
#847 = FACE_OUTER_BOUND ( 'NONE', #86, .T. ) ;
#848 = CARTESIAN_POINT ( 'NONE',  ( 114.9999999999999858, 2.500000000000005773, 1.743296003570838555E-13 ) ) ;
#849 = ADVANCED_FACE ( 'NONE', ( #604 ), #796, .F. ) ;
#850 = DIRECTION ( 'NONE',  ( 5.551115123125781913E-15, 0.000000000000000000, -1.000000000000000000 ) ) ;
#851 = ORIENTED_EDGE ( 'NONE', *, *, #673, .T. ) ;
#852 = PLANE ( 'NONE',  #174 ) ;
#853 = DIRECTION ( 'NONE',  ( -0.5144957554275262357, 0.000000000000000000, -0.8574929257125443183 ) ) ;
#854 = FACE_OUTER_BOUND ( 'NONE', #260, .T. ) ;
#855 = EDGE_LOOP ( 'NONE', ( #658, #36, #57, #45, #670, #53 ) ) ;
#856 = CARTESIAN_POINT ( 'NONE',  ( 103.7014288630928149, 17.49999999999999645, -14.49999999999981526 ) ) ;
#857 = CARTESIAN_POINT ( 'NONE',  ( 77.00000000000001421, 17.49999999999999645, -46.99999999999982947 ) ) ;
#858 = CARTESIAN_POINT ( 'NONE',  ( -81.60000000000006537, 22.50000000000000000, -43.99999999999982947 ) ) ;
ENDSEC;
END-ISO-10303-21;
