ISO-10303-21;
HEADER;
FILE_DESCRIPTION (( 'STEP AP214' ),
    '1' );
FILE_NAME ('Frame-Battery-Splitter.STEP',
    '2026-05-07T19:05:52',
    ( '' ),
    ( '' ),
    'SwSTEP 2.0',
    'SolidWorks 2026',
    '' );
FILE_SCHEMA (( 'AUTOMOTIVE_DESIGN' ));
ENDSEC;

DATA;
#1 = VERTEX_POINT ( 'NONE', #692 ) ;
#2 = DIRECTION ( 'NONE',  ( 1.000000000000000000, 0.000000000000000000, 0.000000000000000000 ) ) ;
#3 = CARTESIAN_POINT ( 'NONE',  ( -45.00000000000002132, 8.237518234040742016, -0.3401923626905709042 ) ) ;
#4 = EDGE_CURVE ( 'NONE', #343, #616, #826, .T. ) ;
#5 = LINE ( 'NONE', #615, #818 ) ;
#6 = ORIENTED_EDGE ( 'NONE', *, *, #123, .T. ) ;
#7 = FACE_BOUND ( 'NONE', #835, .T. ) ;
#8 = CARTESIAN_POINT ( 'NONE',  ( 44.99999999999999289, 5.000000000000000000, 6.499999999999999112 ) ) ;
#9 = EDGE_CURVE ( 'NONE', #290, #854, #768, .T. ) ;
#10 = AXIS2_PLACEMENT_3D ( 'NONE', #839, #449, #176 ) ;
#11 = CARTESIAN_POINT ( 'NONE',  ( 55.83095189484529897, 20.00000000000000000, 6.500000000000000000 ) ) ;
#12 = ORIENTED_EDGE ( 'NONE', *, *, #159, .F. ) ;
#13 = EDGE_CURVE ( 'NONE', #240, #229, #37, .T. ) ;
#14 = DIRECTION ( 'NONE',  ( -0.000000000000000000, 1.000000000000000000, -0.000000000000000000 ) ) ;
#15 = VECTOR ( 'NONE', #643, 1000.000000000000000 ) ;
#16 = CARTESIAN_POINT ( 'NONE',  ( -43.99664054024304249, 9.999999997889979397, 0.1844906738812057134 ) ) ;
#17 = PLANE ( 'NONE',  #548 ) ;
#18 = ORIENTED_EDGE ( 'NONE', *, *, #111, .T. ) ;
#19 = DIRECTION ( 'NONE',  ( 0.000000000000000000, -0.000000000000000000, 1.000000000000000000 ) ) ;
#20 = CARTESIAN_POINT ( 'NONE',  ( -43.75417833734230300, 9.999999971276691824, -0.9921164994729293474 ) ) ;
#21 = DIRECTION ( 'NONE',  ( 0.000000000000000000, 0.000000000000000000, 1.000000000000000000 ) ) ;
#22 = ORIENTED_EDGE ( 'NONE', *, *, #504, .F. ) ;
#23 = DIRECTION ( 'NONE',  ( 1.000000000000000000, 0.000000000000000000, 0.000000000000000000 ) ) ;
#24 = CARTESIAN_POINT ( 'NONE',  ( -45.00000000000002132, 8.261570339845132338, 0.1638927658775819196 ) ) ;
#25 = CARTESIAN_POINT ( 'NONE',  ( -43.00000000000001421, 7.999999999999996447, 1.732050807568876305 ) ) ;
#26 = VECTOR ( 'NONE', #638, 1000.000000000000000 ) ;
#27 = ORIENTED_EDGE ( 'NONE', *, *, #814, .T. ) ;
#28 = DIRECTION ( 'NONE',  ( 1.000000000000000000, 0.000000000000000000, -0.000000000000000000 ) ) ;
#29 = VECTOR ( 'NONE', #273, 1000.000000000000000 ) ;
#30 = AXIS2_PLACEMENT_3D ( 'NONE', #617, #28, #549 ) ;
#31 = VERTEX_POINT ( 'NONE', #226 ) ;
#32 = FILL_AREA_STYLE ('',( #565 ) ) ;
#33 = EDGE_LOOP ( 'NONE', ( #821, #416, #237, #302 ) ) ;
#34 = VERTEX_POINT ( 'NONE', #106 ) ;
#35 = DIRECTION ( 'NONE',  ( 0.000000000000000000, 0.000000000000000000, 1.000000000000000000 ) ) ;
#36 = DIRECTION ( 'NONE',  ( 0.000000000000000000, 0.000000000000000000, 1.000000000000000000 ) ) ;
#37 = LINE ( 'NONE', #566, #341 ) ;
#38 = ORIENTED_EDGE ( 'NONE', *, *, #128, .T. ) ;
#39 = CARTESIAN_POINT ( 'NONE',  ( 42.99999999999999289, 7.000000000000000000, -3.500000000000001332 ) ) ;
#40 = VERTEX_POINT ( 'NONE', #427 ) ;
#41 = EDGE_CURVE ( 'NONE', #34, #59, #354, .T. ) ;
#42 = ORIENTED_EDGE ( 'NONE', *, *, #282, .T. ) ;
#43 = VERTEX_POINT ( 'NONE', #633 ) ;
#44 = DIRECTION ( 'NONE',  ( 0.000000000000000000, 0.000000000000000000, 1.000000000000000000 ) ) ;
#45 = CARTESIAN_POINT ( 'NONE',  ( -42.00000000000000711, 10.00000000000000000, 0.000000000000000000 ) ) ;
#46 = ORIENTED_EDGE ( 'NONE', *, *, #728, .F. ) ;
#47 = DIRECTION ( 'NONE',  ( -1.000000000000000000, 0.000000000000000000, -0.000000000000000000 ) ) ;
#48 = LINE ( 'NONE', #57, #425 ) ;
#49 = AXIS2_PLACEMENT_3D ( 'NONE', #680, #619, #766 ) ;
#50 = ORIENTED_EDGE ( 'NONE', *, *, #648, .T. ) ;
#51 = ADVANCED_FACE ( 'NONE', ( #108 ), #357, .F. ) ;
#52 = CARTESIAN_POINT ( 'NONE',  ( -43.06203349573963379, 9.999999999999998224, 1.696235770835368584 ) ) ;
#53 = CARTESIAN_POINT ( 'NONE',  ( -43.00000000000001421, 10.00000000000000000, 1.732050807568876305 ) ) ;
#54 = EDGE_LOOP ( 'NONE', ( #6, #99, #697, #265, #38, #478, #832, #255 ) ) ;
#55 = LINE ( 'NONE', #307, #787 ) ;
#56 = CARTESIAN_POINT ( 'NONE',  ( -50.00000000000001421, 20.00000000000000000, -6.500000000000000888 ) ) ;
#57 = CARTESIAN_POINT ( 'NONE',  ( 44.99999999999999289, 9.999999999999998224, -3.500000000000000888 ) ) ;
#58 = UNCERTAINTY_MEASURE_WITH_UNIT (LENGTH_MEASURE( 1.000000000000000082E-05 ), #283, 'distance_accuracy_value', 'NONE');
#59 = VERTEX_POINT ( 'NONE', #285 ) ;
#60 = DIRECTION ( 'NONE',  ( 0.000000000000000000, 0.000000000000000000, 1.000000000000000000 ) ) ;
#61 = CIRCLE ( 'NONE', #765, 2.000000000000000000 ) ;
#62 = CARTESIAN_POINT ( 'NONE',  ( -42.00000000000000711, 10.00000000000000000, 2.000000000000003109 ) ) ;
#63 = DIRECTION ( 'NONE',  ( -1.000000000000000000, 0.000000000000000000, 0.000000000000000000 ) ) ;
#64 =( LENGTH_UNIT ( ) NAMED_UNIT ( * ) SI_UNIT ( .MILLI., .METRE. ) );
#65 = EDGE_LOOP ( 'NONE', ( #280, #515, #510, #763, #742, #428 ) ) ;
#66 = CARTESIAN_POINT ( 'NONE',  ( -50.00000000000001421, 0.000000000000000000, 3.499999999999999112 ) ) ;
#67 = VECTOR ( 'NONE', #815, 1000.000000000000000 ) ;
#68 = EDGE_CURVE ( 'NONE', #424, #776, #571, .T. ) ;
#69 = DIRECTION ( 'NONE',  ( 0.000000000000000000, 1.000000000000000000, 1.084202172485504434E-16 ) ) ;
#70 = CARTESIAN_POINT ( 'NONE',  ( -42.00000000000000711, 20.00000000000000000, -2.000000000000003109 ) ) ;
#71 = CYLINDRICAL_SURFACE ( 'NONE', #399, 2.000000000000001776 ) ;
#72 = PRODUCT_RELATED_PRODUCT_CATEGORY ( 'part', '', ( #474 ) ) ;
#73 = ORIENTED_EDGE ( 'NONE', *, *, #493, .F. ) ;
#74 = CARTESIAN_POINT ( 'NONE',  ( 47.99999999999998579, 0.000000000000000000, 0.000000000000000000 ) ) ;
#75 = CARTESIAN_POINT ( 'NONE',  ( -43.00000000000001421, 10.00000000000000000, -1.732050807568876305 ) ) ;
#76 = CARTESIAN_POINT ( 'NONE',  ( -45.00000000000002132, 8.266979272891909147, 0.09229483937803470428 ) ) ;
#77 = LINE ( 'NONE', #806, #786 ) ;
#78 = EDGE_CURVE ( 'NONE', #613, #229, #453, .T. ) ;
#79 = VERTEX_POINT ( 'NONE', #122 ) ;
#80 = CARTESIAN_POINT ( 'NONE',  ( -45.00000000000002132, 8.012728468416414174, -1.433641605859192314 ) ) ;
#81 = CARTESIAN_POINT ( 'NONE',  ( -43.91581981056909711, 9.999999987450463479, 0.5898773896001632266 ) ) ;
#82 = CARTESIAN_POINT ( 'NONE',  ( 44.99999999999999289, 7.000000000000000000, -3.500000000000000888 ) ) ;
#83 = EDGE_LOOP ( 'NONE', ( #670, #382, #816, #404 ) ) ;
#84 = CARTESIAN_POINT ( 'NONE',  ( 0.000000000000000000, 20.00000000000000000, 0.000000000000000000 ) ) ;
#85 = CARTESIAN_POINT ( 'NONE',  ( -45.00000000000001421, 9.867778373618742549, -1.637334332063067777 ) ) ;
#86 = AXIS2_PLACEMENT_3D ( 'NONE', #190, #796, #665 ) ;
#87 = DIRECTION ( 'NONE',  ( -1.000000000000000000, 0.000000000000000000, 0.000000000000000000 ) ) ;
#88 = EDGE_LOOP ( 'NONE', ( #417, #281, #836, #115 ) ) ;
#89 = DIRECTION ( 'NONE',  ( 0.000000000000000000, 0.000000000000000000, 1.000000000000000000 ) ) ;
#90 = ORIENTED_EDGE ( 'NONE', *, *, #777, .F. ) ;
#91 = FACE_OUTER_BOUND ( 'NONE', #438, .T. ) ;
#92 = CARTESIAN_POINT ( 'NONE',  ( -50.00000000000001421, 20.00000000000000000, -3.500000000000000888 ) ) ;
#93 = ORIENTED_EDGE ( 'NONE', *, *, #143, .F. ) ;
#94 = EDGE_CURVE ( 'NONE', #770, #234, #193, .T. ) ;
#95 = VECTOR ( 'NONE', #421, 1000.000000000000000 ) ;
#96 = DIRECTION ( 'NONE',  ( 0.000000000000000000, -0.8574929257125442073, 0.5144957554275264577 ) ) ;
#97 = AXIS2_PLACEMENT_3D ( 'NONE', #271, #393, #544 ) ;
#98 = VERTEX_POINT ( 'NONE', #181 ) ;
#99 = ORIENTED_EDGE ( 'NONE', *, *, #833, .T. ) ;
#100 = ADVANCED_FACE ( 'NONE', ( #431 ), #712, .F. ) ;
#101 = EDGE_CURVE ( 'NONE', #781, #199, #684, .T. ) ;
#102 = CARTESIAN_POINT ( 'NONE',  ( 44.99999999999999289, 7.999999999999998224, -3.500000000000001332 ) ) ;
#103 = AXIS2_PLACEMENT_3D ( 'NONE', #144, #592, #436 ) ;
#104 = ORIENTED_EDGE ( 'NONE', *, *, #691, .F. ) ;
#105 = DIRECTION ( 'NONE',  ( 0.000000000000000000, 0.000000000000000000, 1.000000000000000000 ) ) ;
#106 = CARTESIAN_POINT ( 'NONE',  ( 28.00000000000000000, 10.00000000000000000, 1.999999999999999112 ) ) ;
#107 = ORIENTED_EDGE ( 'NONE', *, *, #810, .F. ) ;
#108 = FACE_OUTER_BOUND ( 'NONE', #556, .T. ) ;
#109 = DIRECTION ( 'NONE',  ( -0.000000000000000000, 1.000000000000000000, -0.000000000000000000 ) ) ;
#110 = DIRECTION ( 'NONE',  ( 1.000000000000000000, 0.000000000000000000, 0.000000000000000000 ) ) ;
#111 = EDGE_CURVE ( 'NONE', #343, #98, #639, .T. ) ;
#112 = EDGE_CURVE ( 'NONE', #709, #228, #250, .T. ) ;
#113 = FACE_OUTER_BOUND ( 'NONE', #689, .T. ) ;
#114 = DIRECTION ( 'NONE',  ( 0.000000000000000000, 0.000000000000000000, 1.000000000000000000 ) ) ;
#115 = ORIENTED_EDGE ( 'NONE', *, *, #824, .T. ) ;
#116 = CARTESIAN_POINT ( 'NONE',  ( 44.99999999999999289, 9.999999999999998224, 6.499999999999999112 ) ) ;
#117 = CARTESIAN_POINT ( 'NONE',  ( -45.00000000000002132, 9.678517748459558590, 1.371733713217134998 ) ) ;
#118 = DIRECTION ( 'NONE',  ( 1.000000000000000000, 0.000000000000000000, 0.000000000000000000 ) ) ;
#119 = ORIENTED_EDGE ( 'NONE', *, *, #41, .F. ) ;
#120 = CARTESIAN_POINT ( 'NONE',  ( -43.00000000000001421, 9.999999999999998224, -3.500000000000001332 ) ) ;
#121 = CARTESIAN_POINT ( 'NONE',  ( -43.13383030938960161, 9.999999996778415223, 1.650948608592069711 ) ) ;
#122 = CARTESIAN_POINT ( 'NONE',  ( 49.99999999999998579, 20.00000000000000000, 6.500000000000000000 ) ) ;
#123 = EDGE_CURVE ( 'NONE', #613, #162, #48, .T. ) ;
#124 = ORIENTED_EDGE ( 'NONE', *, *, #9, .T. ) ;
#125 = LINE ( 'NONE', #661, #461 ) ;
#126 = CARTESIAN_POINT ( 'NONE',  ( -45.00000000000002132, 8.156717073495441284, -0.7032327298120395476 ) ) ;
#127 = PLANE ( 'NONE',  #296 ) ;
#128 = EDGE_CURVE ( 'NONE', #169, #781, #275, .T. ) ;
#129 = DIRECTION ( 'NONE',  ( 0.000000000000000000, -1.000000000000000000, 0.000000000000000000 ) ) ;
#130 = VERTEX_POINT ( 'NONE', #721 ) ;
#131 = DIRECTION ( 'NONE',  ( 0.000000000000000000, -0.000000000000000000, 1.000000000000000000 ) ) ;
#132 = VECTOR ( 'NONE', #475, 1000.000000000000000 ) ;
#133 = AXIS2_PLACEMENT_3D ( 'NONE', #356, #635, #44 ) ;
#134 = CARTESIAN_POINT ( 'NONE',  ( -43.93611504949355151, 9.999999990007882644, -0.5203949163963973445 ) ) ;
#135 = EDGE_CURVE ( 'NONE', #392, #98, #794, .T. ) ;
#136 = DIRECTION ( 'NONE',  ( 0.000000000000000000, 0.000000000000000000, -1.000000000000000000 ) ) ;
#137 = ORIENTED_EDGE ( 'NONE', *, *, #112, .T. ) ;
#138 = CARTESIAN_POINT ( 'NONE',  ( -42.99999999999999289, 5.000000000000000000, -3.500000000000000888 ) ) ;
#139 = CARTESIAN_POINT ( 'NONE',  ( 42.99999999999999289, 9.999999999999998224, 3.499999999999999112 ) ) ;
#140 = CARTESIAN_POINT ( 'NONE',  ( -42.00000000000000711, 20.00000000000000000, 0.000000000000000000 ) ) ;
#141 = ORIENTED_EDGE ( 'NONE', *, *, #703, .T. ) ;
#142 = FACE_OUTER_BOUND ( 'NONE', #621, .T. ) ;
#143 = EDGE_CURVE ( 'NONE', #212, #339, #177, .T. ) ;
#144 = CARTESIAN_POINT ( 'NONE',  ( 0.000000000000000000, 0.000000000000000000, 0.000000000000000000 ) ) ;
#145 = DIRECTION ( 'NONE',  ( -0.000000000000000000, 1.000000000000000000, -0.000000000000000000 ) ) ;
#146 = EDGE_LOOP ( 'NONE', ( #350, #640, #189, #738 ) ) ;
#147 = CYLINDRICAL_SURFACE ( 'NONE', #183, 2.000000000000001776 ) ;
#148 = CIRCLE ( 'NONE', #86, 2.000000000000001776 ) ;
#149 = CARTESIAN_POINT ( 'NONE',  ( -45.00000000000000711, 9.448114347289701342, 0.5010988487294953941 ) ) ;
#150 = CARTESIAN_POINT ( 'NONE',  ( 44.99999999999999289, 5.000000000000000000, -3.500000000000000888 ) ) ;
#151 = VERTEX_POINT ( 'NONE', #434 ) ;
#152 = CARTESIAN_POINT ( 'NONE',  ( 42.99999999999999289, 7.000000000000000000, 3.499999999999999112 ) ) ;
#153 = DIRECTION ( 'NONE',  ( 0.000000000000000000, 0.000000000000000000, 1.000000000000000000 ) ) ;
#154 = EDGE_LOOP ( 'NONE', ( #46, #677, #627, #764 ) ) ;
#155 = PLANE ( 'NONE',  #262 ) ;
#156 = EDGE_CURVE ( 'NONE', #636, #290, #725, .T. ) ;
#157 = ORIENTED_EDGE ( 'NONE', *, *, #128, .F. ) ;
#158 = VECTOR ( 'NONE', #300, 1000.000000000000000 ) ;
#159 = EDGE_CURVE ( 'NONE', #829, #169, #696, .T. ) ;
#160 = SURFACE_STYLE_USAGE ( .BOTH. , #754 ) ;
#161 = MECHANICAL_DESIGN_GEOMETRIC_PRESENTATION_REPRESENTATION (  '', ( #513 ), #352 ) ;
#162 = VERTEX_POINT ( 'NONE', #652 ) ;
#163 = ORIENTED_EDGE ( 'NONE', *, *, #666, .T. ) ;
#164 = ORIENTED_EDGE ( 'NONE', *, *, #159, .T. ) ;
#165 = ADVANCED_BREP_SHAPE_REPRESENTATION ( 'Frame-Battery-Splitter', ( #490, #103 ), #435 ) ;
#166 = CARTESIAN_POINT ( 'NONE',  ( 49.99999999999998579, 20.00000000000000000, -3.500000000000000888 ) ) ;
#167 = DIRECTION ( 'NONE',  ( -0.000000000000000000, 1.000000000000000000, -0.000000000000000000 ) ) ;
#168 = VECTOR ( 'NONE', #312, 1000.000000000000000 ) ;
#169 = VERTEX_POINT ( 'NONE', #53 ) ;
#170 = VECTOR ( 'NONE', #208, 1000.000000000000000 ) ;
#171 = DIRECTION ( 'NONE',  ( 0.000000000000000000, 1.000000000000000000, 0.000000000000000000 ) ) ;
#172 = VERTEX_POINT ( 'NONE', #853 ) ;
#173 = CARTESIAN_POINT ( 'NONE',  ( -45.00000000000002132, 9.999999999999998224, 1.732050807568876971 ) ) ;
#174 = LINE ( 'NONE', #244, #182 ) ;
#175 = EDGE_CURVE ( 'NONE', #497, #636, #844, .T. ) ;
#176 = DIRECTION ( 'NONE',  ( -1.000000000000000000, 0.000000000000000000, 0.000000000000000000 ) ) ;
#177 = LINE ( 'NONE', #502, #158 ) ;
#178 = ORIENTED_EDGE ( 'NONE', *, *, #4, .T. ) ;
#179 = FACE_OUTER_BOUND ( 'NONE', #194, .T. ) ;
#180 = CARTESIAN_POINT ( 'NONE',  ( -45.00000000000002132, 9.742817850208737696, 1.478338737443805284 ) ) ;
#181 = CARTESIAN_POINT ( 'NONE',  ( 44.99999999999998579, 6.999999999999999112, 3.499999999999999112 ) ) ;
#182 = VECTOR ( 'NONE', #239, 1000.000000000000000 ) ;
#183 = AXIS2_PLACEMENT_3D ( 'NONE', #614, #467, #23 ) ;
#184 = ORIENTED_EDGE ( 'NONE', *, *, #666, .F. ) ;
#185 = CARTESIAN_POINT ( 'NONE',  ( 55.83095189484529897, 20.00000000000000000, -6.500000000000000888 ) ) ;
#186 = EDGE_CURVE ( 'NONE', #446, #151, #305, .T. ) ;
#187 = CARTESIAN_POINT ( 'NONE',  ( -45.00000000000002132, 9.938993544929177304, 1.696828746048667735 ) ) ;
#188 = DIRECTION ( 'NONE',  ( 0.000000000000000000, 1.000000000000000000, 0.000000000000000000 ) ) ;
#189 = ORIENTED_EDGE ( 'NONE', *, *, #426, .F. ) ;
#190 = CARTESIAN_POINT ( 'NONE',  ( 47.99999999999998579, 1.999999999999998224, 3.499999999999999112 ) ) ;
#191 = EDGE_CURVE ( 'NONE', #446, #172, #174, .T. ) ;
#192 = CARTESIAN_POINT ( 'NONE',  ( -50.00000000000001421, 20.00000000000000000, 6.500000000000000000 ) ) ;
#193 = LINE ( 'NONE', #381, #195 ) ;
#194 = EDGE_LOOP ( 'NONE', ( #292, #594, #487, #528, #756, #42 ) ) ;
#195 = VECTOR ( 'NONE', #716, 1000.000000000000000 ) ;
#196 = CARTESIAN_POINT ( 'NONE',  ( -43.89601818587011195, 10.00000001436165142, -0.6484397188896190434 ) ) ;
#197 = CARTESIAN_POINT ( 'NONE',  ( -45.00000000000002132, 9.461977433040592800, 0.6104580689380848524 ) ) ;
#198 = LINE ( 'NONE', #254, #344 ) ;
#199 = VERTEX_POINT ( 'NONE', #509 ) ;
#200 = CYLINDRICAL_SURFACE ( 'NONE', #590, 1.999999999999999112 ) ;
#201 = AXIS2_PLACEMENT_3D ( 'NONE', #39, #762, #624 ) ;
#202 = PLANE ( 'NONE',  #407 ) ;
#203 = DIRECTION ( 'NONE',  ( 0.000000000000000000, -0.8574929257125442073, -0.5144957554275264577 ) ) ;
#204 = EDGE_CURVE ( 'NONE', #130, #411, #784, .T. ) ;
#205 = ORIENTED_EDGE ( 'NONE', *, *, #111, .F. ) ;
#206 = DIRECTION ( 'NONE',  ( 1.000000000000000000, 0.000000000000000000, 0.000000000000000000 ) ) ;
#207 = CARTESIAN_POINT ( 'NONE',  ( -44.00252058846814407, 10.00000000211001705, -0.1025744568929104761 ) ) ;
#208 = DIRECTION ( 'NONE',  ( -1.000000000000000000, 0.000000000000000000, 0.000000000000000000 ) ) ;
#209 = EDGE_LOOP ( 'NONE', ( #104, #278 ) ) ;
#210 = CARTESIAN_POINT ( 'NONE',  ( -45.00000000000001421, 9.733625039636644161, -1.464567558374939793 ) ) ;
#211 = LINE ( 'NONE', #542, #29 ) ;
#212 = VERTEX_POINT ( 'NONE', #371 ) ;
#213 = CARTESIAN_POINT ( 'NONE',  ( -43.00000000000001421, 5.000000000000000888, 3.499999999999999112 ) ) ;
#214 = EDGE_CURVE ( 'NONE', #199, #829, #313, .T. ) ;
#215 = DIRECTION ( 'NONE',  ( 0.000000000000000000, 1.000000000000000000, 0.000000000000000000 ) ) ;
#216 = ORIENTED_EDGE ( 'NONE', *, *, #757, .T. ) ;
#217 = CARTESIAN_POINT ( 'NONE',  ( 28.00000000000000000, 10.00000000000000000, 0.000000000000000000 ) ) ;
#218 = CARTESIAN_POINT ( 'NONE',  ( -45.00000000000001421, 8.265649123092778439, -0.3058501750639223693 ) ) ;
#219 = VECTOR ( 'NONE', #699, 1000.000000000000000 ) ;
#220 = LINE ( 'NONE', #166, #641 ) ;
#221 = DIRECTION ( 'NONE',  ( -0.000000000000000000, 1.000000000000000000, -0.000000000000000000 ) ) ;
#222 = VECTOR ( 'NONE', #584, 1000.000000000000000 ) ;
#223 = CARTESIAN_POINT ( 'NONE',  ( -45.00000000000002132, 8.191399354208121153, 0.5710089848000775570 ) ) ;
#224 = VERTEX_POINT ( 'NONE', #319 ) ;
#225 = CARTESIAN_POINT ( 'NONE',  ( 55.83095189484529897, 20.00000000000000000, 6.500000000000000000 ) ) ;
#226 = CARTESIAN_POINT ( 'NONE',  ( 28.00000000000000000, 20.00000000000000000, -1.999999999999999112 ) ) ;
#227 = EDGE_LOOP ( 'NONE', ( #90, #539, #375, #498 ) ) ;
#228 = VERTEX_POINT ( 'NONE', #727 ) ;
#229 = VERTEX_POINT ( 'NONE', #403 ) ;
#230 = CARTESIAN_POINT ( 'NONE',  ( -50.00000000000001421, 20.00000000000000000, 3.499999999999999112 ) ) ;
#231 = AXIS2_PLACEMENT_3D ( 'NONE', #217, #830, #35 ) ;
#232 = AXIS2_PLACEMENT_3D ( 'NONE', #185, #782, #529 ) ;
#233 = CARTESIAN_POINT ( 'NONE',  ( -42.00000000000000711, 10.00000000000000000, 0.000000000000000000 ) ) ;
#234 = VERTEX_POINT ( 'NONE', #608 ) ;
#235 = DIRECTION ( 'NONE',  ( 0.000000000000000000, 0.000000000000000000, 1.000000000000000000 ) ) ;
#236 = DIRECTION ( 'NONE',  ( 0.000000000000000000, 0.000000000000000000, 1.000000000000000000 ) ) ;
#237 = ORIENTED_EDGE ( 'NONE', *, *, #347, .T. ) ;
#238 = FACE_OUTER_BOUND ( 'NONE', #146, .T. ) ;
#239 = DIRECTION ( 'NONE',  ( -0.000000000000000000, -1.000000000000000000, -0.000000000000000000 ) ) ;
#240 = VERTEX_POINT ( 'NONE', #676 ) ;
#241 = DIRECTION ( 'NONE',  ( -0.000000000000000000, 1.000000000000000000, -0.000000000000000000 ) ) ;
#242 = EDGE_CURVE ( 'NONE', #234, #172, #5, .T. ) ;
#243 = CARTESIAN_POINT ( 'NONE',  ( -45.00000000000001421, 9.564559457216722294, 1.091112123473789719 ) ) ;
#244 = CARTESIAN_POINT ( 'NONE',  ( 49.99999999999998579, 20.00000000000000000, -3.500000000000000888 ) ) ;
#245 = CIRCLE ( 'NONE', #500, 2.000000000000001776 ) ;
#246 = APPLICATION_PROTOCOL_DEFINITION ( 'draft international standard', 'automotive_design', 1998, #401 ) ;
#247 = EDGE_LOOP ( 'NONE', ( #471, #455, #801, #419, #141 ) ) ;
#248 = LINE ( 'NONE', #388, #533 ) ;
#249 = CARTESIAN_POINT ( 'NONE',  ( -45.00000000000002132, 8.011662183410964033, 1.445511204923090709 ) ) ;
#250 = LINE ( 'NONE', #505, #360 ) ;
#251 = ORIENTED_EDGE ( 'NONE', *, *, #272, .T. ) ;
#252 = CARTESIAN_POINT ( 'NONE',  ( 44.99999999999999289, 7.999999999999998224, -3.500000000000000888 ) ) ;
#253 = CARTESIAN_POINT ( 'NONE',  ( -45.00000000000001421, 9.441735258447906176, -0.4399799227990146000 ) ) ;
#254 = CARTESIAN_POINT ( 'NONE',  ( 44.99999999999999289, 9.999999999999998224, -3.500000000000000888 ) ) ;
#255 = ORIENTED_EDGE ( 'NONE', *, *, #558, .T. ) ;
#256 = PLANE ( 'NONE',  #658 ) ;
#257 = VECTOR ( 'NONE', #831, 1000.000000000000000 ) ;
#258 = DIRECTION ( 'NONE',  ( 0.000000000000000000, -1.000000000000000000, 0.000000000000000000 ) ) ;
#259 = EDGE_CURVE ( 'NONE', #151, #812, #211, .T. ) ;
#260 = LINE ( 'NONE', #337, #769 ) ;
#261 = ORIENTED_EDGE ( 'NONE', *, *, #338, .F. ) ;
#262 = AXIS2_PLACEMENT_3D ( 'NONE', #415, #345, #105 ) ;
#263 = CARTESIAN_POINT ( 'NONE',  ( -50.00000000000001421, 0.000000000000000000, -3.500000000000000888 ) ) ;
#264 = CYLINDRICAL_SURFACE ( 'NONE', #685, 2.000000000000003109 ) ;
#265 = ORIENTED_EDGE ( 'NONE', *, *, #504, .T. ) ;
#266 = LINE ( 'NONE', #540, #674 ) ;
#267 = CARTESIAN_POINT ( 'NONE',  ( -45.00000000000002132, 9.504077697896255117, -0.8744499380387734666 ) ) ;
#268 = CARTESIAN_POINT ( 'NONE',  ( -45.00000000000002132, 8.230611529123438075, 0.3779966022986261942 ) ) ;
#269 = LINE ( 'NONE', #150, #67 ) ;
#270 = ORIENTED_EDGE ( 'NONE', *, *, #426, .T. ) ;
#271 = CARTESIAN_POINT ( 'NONE',  ( 47.99999999999998579, 1.999999999999998224, -3.500000000000000888 ) ) ;
#272 = EDGE_CURVE ( 'NONE', #616, #392, #198, .T. ) ;
#273 = DIRECTION ( 'NONE',  ( -0.000000000000000000, -1.000000000000000000, -0.000000000000000000 ) ) ;
#274 = ORIENTED_EDGE ( 'NONE', *, *, #282, .F. ) ;
#275 = CIRCLE ( 'NONE', #710, 2.000000000000003109 ) ;
#276 = COLOUR_RGB ( '',0.7921568627450980005, 0.8196078431372548767, 0.9333333333333333481 ) ;
#277 = CARTESIAN_POINT ( 'NONE',  ( -45.00000000000002132, 8.000000000000000000, -1.732050807568876305 ) ) ;
#278 = ORIENTED_EDGE ( 'NONE', *, *, #324, .F. ) ;
#279 = ADVANCED_FACE ( 'NONE', ( #547 ), #264, .F. ) ;
#280 = ORIENTED_EDGE ( 'NONE', *, *, #94, .T. ) ;
#281 = ORIENTED_EDGE ( 'NONE', *, *, #101, .F. ) ;
#282 = EDGE_CURVE ( 'NONE', #776, #854, #260, .T. ) ;
#283 =( LENGTH_UNIT ( ) NAMED_UNIT ( * ) SI_UNIT ( .MILLI., .METRE. ) );
#284 = DIRECTION ( 'NONE',  ( 1.000000000000000000, 0.000000000000000000, 0.000000000000000000 ) ) ;
#285 = CARTESIAN_POINT ( 'NONE',  ( 28.00000000000000000, 20.00000000000000000, 1.999999999999999112 ) ) ;
#286 = ORIENTED_EDGE ( 'NONE', *, *, #523, .F. ) ;
#287 = AXIS2_PLACEMENT_3D ( 'NONE', #140, #215, #612 ) ;
#288 = AXIS2_PLACEMENT_3D ( 'NONE', #152, #748, #678 ) ;
#289 = LINE ( 'NONE', #825, #299 ) ;
#290 = VERTEX_POINT ( 'NONE', #460 ) ;
#291 = FACE_OUTER_BOUND ( 'NONE', #65, .T. ) ;
#292 = ORIENTED_EDGE ( 'NONE', *, *, #9, .F. ) ;
#293 = ORIENTED_EDGE ( 'NONE', *, *, #259, .T. ) ;
#294 = EDGE_CURVE ( 'NONE', #776, #169, #499, .T. ) ;
#295 = DIRECTION ( 'NONE',  ( 1.000000000000000000, 0.000000000000000000, 0.000000000000000000 ) ) ;
#296 = AXIS2_PLACEMENT_3D ( 'NONE', #230, #843, #47 ) ;
#297 = ORIENTED_EDGE ( 'NONE', *, *, #68, .F. ) ;
#298 = FACE_OUTER_BOUND ( 'NONE', #247, .T. ) ;
#299 = VECTOR ( 'NONE', #96, 1000.000000000000000 ) ;
#300 = DIRECTION ( 'NONE',  ( 0.000000000000000000, 0.000000000000000000, -1.000000000000000000 ) ) ;
#301 = EDGE_CURVE ( 'NONE', #713, #397, #441, .T. ) ;
#302 = ORIENTED_EDGE ( 'NONE', *, *, #175, .T. ) ;
#303 = CARTESIAN_POINT ( 'NONE',  ( -45.00000000000002132, 9.999999999999998224, 6.499999999999999112 ) ) ;
#304 = CARTESIAN_POINT ( 'NONE',  ( 28.00000000000000000, 10.00000000000000000, 0.000000000000000000 ) ) ;
#305 = LINE ( 'NONE', #581, #222 ) ;
#306 = ORIENTED_EDGE ( 'NONE', *, *, #272, .F. ) ;
#307 = CARTESIAN_POINT ( 'NONE',  ( 49.99999999999998579, 20.00000000000000000, 6.500000000000000000 ) ) ;
#308 = CARTESIAN_POINT ( 'NONE',  ( 28.00000000000000000, 10.00000000000000000, -1.999999999999999112 ) ) ;
#309 = CARTESIAN_POINT ( 'NONE',  ( -45.00000000000002132, 7.999999999999998224, 1.732050807568876305 ) ) ;
#310 = ORIENTED_EDGE ( 'NONE', *, *, #703, .F. ) ;
#311 = LINE ( 'NONE', #444, #400 ) ;
#312 = DIRECTION ( 'NONE',  ( -0.000000000000000000, 0.8574929257125442073, 0.5144957554275264577 ) ) ;
#313 = CIRCLE ( 'NONE', #380, 2.000000000000003109 ) ;
#314 = DIRECTION ( 'NONE',  ( 0.000000000000000000, 1.000000000000000000, 0.000000000000000000 ) ) ;
#315 = CIRCLE ( 'NONE', #562, 2.000000000000001776 ) ;
#316 = ORIENTED_EDGE ( 'NONE', *, *, #824, .F. ) ;
#317 = CARTESIAN_POINT ( 'NONE',  ( 42.99999999999999289, 7.999999999999998224, 6.499999999999999112 ) ) ;
#318 = CARTESIAN_POINT ( 'NONE',  ( -42.00000000000000711, 20.00000000000000000, 0.000000000000000000 ) ) ;
#319 = CARTESIAN_POINT ( 'NONE',  ( -50.00000000000001421, 15.00000000000000000, 3.499999999999999112 ) ) ;
#320 = ORIENTED_EDGE ( 'NONE', *, *, #482, .T. ) ;
#321 = CARTESIAN_POINT ( 'NONE',  ( 42.99999999999999289, 7.999999999999998224, -3.500000000000001332 ) ) ;
#322 = LINE ( 'NONE', #139, #669 ) ;
#323 = CARTESIAN_POINT ( 'NONE',  ( -45.00000000000002132, 8.268676933760785275, -0.05132813943679267327 ) ) ;
#324 = EDGE_CURVE ( 'NONE', #31, #59, #459, .T. ) ;
#325 = CARTESIAN_POINT ( 'NONE',  ( 42.99999999999999289, 5.000000000000000000, -3.500000000000000888 ) ) ;
#326 = ORIENTED_EDGE ( 'NONE', *, *, #301, .T. ) ;
#327 = PLANE ( 'NONE',  #631 ) ;
#328 = CARTESIAN_POINT ( 'NONE',  ( -42.00000000000000711, 10.00000000000000000, 2.000000000000003109 ) ) ;
#329 = CARTESIAN_POINT ( 'NONE',  ( -43.97782853764429234, 10.00000001254953297, 0.3263663227686050550 ) ) ;
#330 = CARTESIAN_POINT ( 'NONE',  ( -42.00000000000000711, 20.00000000000000000, 2.000000000000003109 ) ) ;
#331 = VERTEX_POINT ( 'NONE', #532 ) ;
#332 = CARTESIAN_POINT ( 'NONE',  ( -45.00000000000002132, 8.087769620361987322, -0.9938667106235395954 ) ) ;
#333 = CARTESIAN_POINT ( 'NONE',  ( -50.00000000000001421, 0.000000000000000000, 3.499999999999999112 ) ) ;
#334 = EDGE_LOOP ( 'NONE', ( #124, #690, #634, #660, #18, #163, #50, #705 ) ) ;
#335 = ADVANCED_FACE ( 'NONE', ( #799 ), #71, .F. ) ;
#336 = PRODUCT_DEFINITION_SHAPE ( 'NONE', 'NONE',  #772 ) ;
#337 = CARTESIAN_POINT ( 'NONE',  ( -45.00000000000002132, 7.999999999999998224, 3.499999999999999112 ) ) ;
#338 = EDGE_CURVE ( 'NONE', #43, #812, #77, .T. ) ;
#339 = VERTEX_POINT ( 'NONE', #325 ) ;
#340 = PLANE ( 'NONE',  #30 ) ;
#341 = VECTOR ( 'NONE', #167, 1000.000000000000000 ) ;
#342 = DIRECTION ( 'NONE',  ( 0.000000000000000000, 0.000000000000000000, 1.000000000000000000 ) ) ;
#343 = VERTEX_POINT ( 'NONE', #390 ) ;
#344 = VECTOR ( 'NONE', #659, 1000.000000000000000 ) ;
#345 = DIRECTION ( 'NONE',  ( -1.000000000000000000, 0.000000000000000000, 0.000000000000000000 ) ) ;
#346 = ORIENTED_EDGE ( 'NONE', *, *, #338, .T. ) ;
#347 = EDGE_CURVE ( 'NONE', #339, #497, #269, .T. ) ;
#348 =( BOUNDED_SURFACE ( )  B_SPLINE_SURFACE ( 3, 2, ( 
 ( #773, #173, #365 ),
 ( #52, #187, #852 ),
 ( #121, #847, #249 ),
 ( #701, #180, #711 ),
 ( #373, #117, #518 ),
 ( #370, #243, #512 ),
 ( #788, #536, #395 ),
 ( #733, #197, #268 ),
 ( #81, #149, #402 ),
 ( #329, #385, #24 ),
 ( #16, #546, #76 ),
 ( #207, #524, #323 ),
 ( #469, #817, #601 ),
 ( #134, #253, #464 ),
 ( #196, #724, #3 ),
 ( #20, #267, #611 ),
 ( #667, #803, #126 ),
 ( #541, #671, #332 ),
 ( #813, #210, #732 ),
 ( #656, #85, #80 ),
 ( #473, #394, #448 ),
 ( #384, #662, #719 ) ),
 .UNSPECIFIED., .F., .F., .F. ) 
 B_SPLINE_SURFACE_WITH_KNOTS ( ( 4, 2, 2, 2, 2, 2, 2, 2, 2, 2, 4 ),
 ( 3, 3 ),
 ( 0.003248296678348123242, 0.003673992134546222310, 0.004099687590744321812, 0.004525383046942421314, 0.004738230775041471499, 0.004951078503140520816, 0.005163926231239570133, 0.005376773959338620318, 0.005802469415536719820, 0.006228164871734819322, 0.006653860327932918824 ),
 ( 0.000000000000000000, 1.000000000000000000 ),
 .UNSPECIFIED. ) 
 GEOMETRIC_REPRESENTATION_ITEM ( )  RATIONAL_B_SPLINE_SURFACE ( (
 ( 1.000000000000000000, 0.7071067811865475727, 1.000000000000000000),
 ( 1.000000000000000000, 0.7180513335502219929, 1.000000000000000000),
 ( 1.000000000000000000, 0.7305177820790502707, 1.000000000000000000),
 ( 1.000000000000000000, 0.7587065576665366073, 1.000000000000000000),
 ( 1.000000000000000000, 0.7745703850064672435, 1.000000000000000000),
 ( 1.000000000000000000, 0.8080602544277936117, 1.000000000000000000),
 ( 1.000000000000000000, 0.8258642595943406217, 1.000000000000000000),
 ( 1.000000000000000000, 0.8475183849168584915, 1.000000000000000000),
 ( 1.000000000000000000, 0.8538005277396717441, 1.000000000000000000),
 ( 1.000000000000000000, 0.8628311083741099230, 1.000000000000000000),
 ( 1.000000000000000000, 0.8655404758565549139, 1.000000000000000000),
 ( 1.000000000000000000, 0.8663892468387904833, 1.000000000000000000),
 ( 1.000000000000000000, 0.8645195365098466977, 1.000000000000000000),
 ( 1.000000000000000000, 0.8567635622408665830, 1.000000000000000000),
 ( 1.000000000000000000, 0.8509133852640476947, 1.000000000000000000),
 ( 1.000000000000000000, 0.8299040666289396739, 1.000000000000000000),
 ( 1.000000000000000000, 0.8117076460509869973, 1.000000000000000000),
 ( 1.000000000000000000, 0.7773076044029610943, 1.000000000000000000),
 ( 1.000000000000000000, 0.7608645010946494258, 1.000000000000000000),
 ( 1.000000000000000000, 0.7315681437193329861, 1.000000000000000000),
 ( 1.000000000000000000, 0.7185787032446770972, 1.000000000000000000),
 ( 1.000000000000000000, 0.7071067811865475727, 1.000000000000000000) ) ) 
 REPRESENTATION_ITEM ( '' )  SURFACE ( )  );
#349 = CARTESIAN_POINT ( 'NONE',  ( -45.00000000000002132, 20.00000000000000000, 3.499999999999999112 ) ) ;
#350 = ORIENTED_EDGE ( 'NONE', *, *, #576, .F. ) ;
#351 = ORIENTED_EDGE ( 'NONE', *, *, #135, .T. ) ;
#352 =( GEOMETRIC_REPRESENTATION_CONTEXT ( 3 ) GLOBAL_UNCERTAINTY_ASSIGNED_CONTEXT ( ( #58 ) ) GLOBAL_UNIT_ASSIGNED_CONTEXT ( ( #283, #559, #759 ) ) REPRESENTATION_CONTEXT ( 'NONE', 'WORKASPACE' ) );
#353 = CARTESIAN_POINT ( 'NONE',  ( -50.00000000000001421, 0.000000000000000000, -3.500000000000000888 ) ) ;
#354 = LINE ( 'NONE', #494, #219 ) ;
#355 = ADVANCED_FACE ( 'NONE', ( #602 ), #17, .T. ) ;
#356 = CARTESIAN_POINT ( 'NONE',  ( 28.00000000000000000, 20.00000000000000000, 0.000000000000000000 ) ) ;
#357 = CYLINDRICAL_SURFACE ( 'NONE', #837, 1.999999999999999112 ) ;
#358 = EDGE_CURVE ( 'NONE', #770, #224, #537, .T. ) ;
#359 = DIRECTION ( 'NONE',  ( 0.000000000000000000, 0.000000000000000000, 1.000000000000000000 ) ) ;
#360 = VECTOR ( 'NONE', #450, 1000.000000000000000 ) ;
#361 = DIRECTION ( 'NONE',  ( 0.000000000000000000, 1.000000000000000000, 0.000000000000000000 ) ) ;
#362 = CIRCLE ( 'NONE', #422, 1.999999999999999112 ) ;
#363 = SHAPE_DEFINITION_REPRESENTATION ( #336, #165 ) ;
#364 = ORIENTED_EDGE ( 'NONE', *, *, #517, .T. ) ;
#365 = CARTESIAN_POINT ( 'NONE',  ( -45.00000000000002132, 7.999999999999998224, 1.732050807568876971 ) ) ;
#366 = AXIS2_PLACEMENT_3D ( 'NONE', #92, #342, #496 ) ;
#367 = DIRECTION ( 'NONE',  ( 0.000000000000000000, 0.000000000000000000, 1.000000000000000000 ) ) ;
#368 = ORIENTED_EDGE ( 'NONE', *, *, #493, .T. ) ;
#369 = DIRECTION ( 'NONE',  ( 0.000000000000000000, 0.000000000000000000, 1.000000000000000000 ) ) ;
#370 = CARTESIAN_POINT ( 'NONE',  ( -43.61072393282130832, 10.00000001345313549, 1.196437391115429572 ) ) ;
#371 = CARTESIAN_POINT ( 'NONE',  ( 42.99999999999998579, 5.000000000000000888, 3.499999999999999112 ) ) ;
#372 = DIRECTION ( 'NONE',  ( 0.000000000000000000, 0.000000000000000000, 1.000000000000000000 ) ) ;
#373 = CARTESIAN_POINT ( 'NONE',  ( -43.39871554893091599, 9.999999986546862729, 1.438571907856972976 ) ) ;
#374 = CARTESIAN_POINT ( 'NONE',  ( -45.00000000000003553, 8.052156047158621988, 1.145037431645164583 ) ) ;
#375 = ORIENTED_EDGE ( 'NONE', *, *, #618, .F. ) ;
#376 = FACE_OUTER_BOUND ( 'NONE', #227, .T. ) ;
#377 = VECTOR ( 'NONE', #14, 1000.000000000000000 ) ;
#378 = LINE ( 'NONE', #328, #377 ) ;
#379 = LINE ( 'NONE', #440, #726 ) ;
#380 = AXIS2_PLACEMENT_3D ( 'NONE', #514, #188, #21 ) ;
#381 = CARTESIAN_POINT ( 'NONE',  ( 49.99999999999998579, 20.00000000000000000, 3.499999999999999112 ) ) ;
#382 = ORIENTED_EDGE ( 'NONE', *, *, #423, .T. ) ;
#383 = DIRECTION ( 'NONE',  ( 0.000000000000000000, -0.8574929257125442073, -0.5144957554275264577 ) ) ;
#384 = CARTESIAN_POINT ( 'NONE',  ( -43.00000000000001421, 9.999999999999998224, -1.732050807568877193 ) ) ;
#385 = CARTESIAN_POINT ( 'NONE',  ( -45.00000000000002132, 9.429008156492978188, 0.2731684169035097920 ) ) ;
#386 = CARTESIAN_POINT ( 'NONE',  ( 42.99999999999999289, 7.000000000000000000, 6.499999999999999112 ) ) ;
#387 = ORIENTED_EDGE ( 'NONE', *, *, #681, .F. ) ;
#388 = CARTESIAN_POINT ( 'NONE',  ( -43.00000000000001421, 9.999999999999998224, -3.500000000000001332 ) ) ;
#389 = DIRECTION ( 'NONE',  ( -0.000000000000000000, -0.000000000000000000, -1.000000000000000000 ) ) ;
#390 = CARTESIAN_POINT ( 'NONE',  ( 44.99999999999998579, 7.999999999999998224, 3.499999999999999112 ) ) ;
#391 = EDGE_CURVE ( 'NONE', #1, #709, #465, .T. ) ;
#392 = VERTEX_POINT ( 'NONE', #82 ) ;
#393 = DIRECTION ( 'NONE',  ( 0.000000000000000000, 0.000000000000000000, -1.000000000000000000 ) ) ;
#394 = CARTESIAN_POINT ( 'NONE',  ( -44.99999999999950973, 9.936081798183479918, -1.695147652004374450 ) ) ;
#395 = CARTESIAN_POINT ( 'NONE',  ( -45.00000000000002132, 8.186305143743931367, 0.5914753328614473782 ) ) ;
#396 = DIRECTION ( 'NONE',  ( -0.000000000000000000, -0.000000000000000000, 1.000000000000000000 ) ) ;
#397 = VERTEX_POINT ( 'NONE', #330 ) ;
#398 = DIRECTION ( 'NONE',  ( 1.000000000000000000, 0.000000000000000000, 0.000000000000000000 ) ) ;
#399 = AXIS2_PLACEMENT_3D ( 'NONE', #386, #597, #663 ) ;
#400 = VECTOR ( 'NONE', #516, 1000.000000000000000 ) ;
#401 = APPLICATION_CONTEXT ( 'automotive_design' ) ;
#402 = CARTESIAN_POINT ( 'NONE',  ( -45.00000000000002132, 8.243357577576844619, 0.3067422943169001992 ) ) ;
#403 = CARTESIAN_POINT ( 'NONE',  ( -45.00000000000002132, 7.999999999999998224, -3.500000000000000888 ) ) ;
#404 = ORIENTED_EDGE ( 'NONE', *, *, #358, .F. ) ;
#405 = ORIENTED_EDGE ( 'NONE', *, *, #324, .T. ) ;
#406 = AXIS2_PLACEMENT_3D ( 'NONE', #577, #236, #110 ) ;
#407 = AXIS2_PLACEMENT_3D ( 'NONE', #8, #258, #530 ) ;
#408 = PLANE ( 'NONE',  #366 ) ;
#409 = CARTESIAN_POINT ( 'NONE',  ( -45.00000000000002132, 8.000000000000000000, -1.732050807568876305 ) ) ;
#410 = EDGE_CURVE ( 'NONE', #578, #331, #470, .T. ) ;
#411 = VERTEX_POINT ( 'NONE', #740 ) ;
#412 = AXIS2_PLACEMENT_3D ( 'NONE', #525, #746, #153 ) ;
#413 = EDGE_CURVE ( 'NONE', #40, #34, #620, .T. ) ;
#414 = VECTOR ( 'NONE', #730, 1000.000000000000000 ) ;
#415 = CARTESIAN_POINT ( 'NONE',  ( 49.99999999999998579, 20.00000000000000000, -3.500000000000000888 ) ) ;
#416 = ORIENTED_EDGE ( 'NONE', *, *, #143, .T. ) ;
#417 = ORIENTED_EDGE ( 'NONE', *, *, #517, .F. ) ;
#418 = FACE_OUTER_BOUND ( 'NONE', #795, .T. ) ;
#419 = ORIENTED_EDGE ( 'NONE', *, *, #358, .T. ) ;
#420 = EDGE_LOOP ( 'NONE', ( #561, #310, #649, #722, #270, #293 ) ) ;
#421 = DIRECTION ( 'NONE',  ( -1.000000000000000000, 0.000000000000000000, 0.000000000000000000 ) ) ;
#422 = AXIS2_PLACEMENT_3D ( 'NONE', #304, #706, #235 ) ;
#423 = EDGE_CURVE ( 'NONE', #79, #228, #489, .T. ) ;
#424 = VERTEX_POINT ( 'NONE', #277 ) ;
#425 = VECTOR ( 'NONE', #519, 1000.000000000000000 ) ;
#426 = EDGE_CURVE ( 'NONE', #709, #151, #289, .T. ) ;
#427 = CARTESIAN_POINT ( 'NONE',  ( 28.00000000000000000, 10.00000000000000000, -1.999999999999999112 ) ) ;
#428 = ORIENTED_EDGE ( 'NONE', *, *, #551, .T. ) ;
#429 = EDGE_CURVE ( 'NONE', #854, #130, #804, .T. ) ;
#430 = CARTESIAN_POINT ( 'NONE',  ( -43.00000000000001421, 7.999999999999998224, 6.499999999999999112 ) ) ;
#431 = FACE_OUTER_BOUND ( 'NONE', #420, .T. ) ;
#432 = ORIENTED_EDGE ( 'NONE', *, *, #558, .F. ) ;
#433 = CARTESIAN_POINT ( 'NONE',  ( -45.00000000000002132, 7.000000000000000000, -3.500000000000001332 ) ) ;
#434 = CARTESIAN_POINT ( 'NONE',  ( -50.00000000000001421, 15.00000000000000000, -3.500000000000000000 ) ) ;
#435 =( GEOMETRIC_REPRESENTATION_CONTEXT ( 3 ) GLOBAL_UNCERTAINTY_ASSIGNED_CONTEXT ( ( #790 ) ) GLOBAL_UNIT_ASSIGNED_CONTEXT ( ( #64, #454, #704 ) ) REPRESENTATION_CONTEXT ( 'NONE', 'WORKASPACE' ) );
#436 = DIRECTION ( 'NONE',  ( 1.000000000000000000, 0.000000000000000000, 0.000000000000000000 ) ) ;
#437 = ADVANCED_FACE ( 'NONE', ( #694, #418 ), #408, .F. ) ;
#438 = EDGE_LOOP ( 'NONE', ( #205, #178, #251, #351 ) ) ;
#439 = FACE_OUTER_BOUND ( 'NONE', #520, .T. ) ;
#440 = CARTESIAN_POINT ( 'NONE',  ( -50.00000000000001421, 20.00000000000000000, 3.499999999999999112 ) ) ;
#441 = CIRCLE ( 'NONE', #287, 2.000000000000003109 ) ;
#442 = CARTESIAN_POINT ( 'NONE',  ( -50.00000000000001421, 9.999999999999998224, 3.499999999999999112 ) ) ;
#443 = EDGE_LOOP ( 'NONE', ( #261, #368, #747, #654 ) ) ;
#444 = CARTESIAN_POINT ( 'NONE',  ( -42.00000000000000711, 10.00000000000000000, -2.000000000000003109 ) ) ;
#445 = CARTESIAN_POINT ( 'NONE',  ( -43.00000000000001421, 7.000000000000000000, 3.499999999999999112 ) ) ;
#446 = VERTEX_POINT ( 'NONE', #552 ) ;
#447 = DIRECTION ( 'NONE',  ( 0.000000000000000000, 0.000000000000000000, -1.000000000000000000 ) ) ;
#448 = CARTESIAN_POINT ( 'NONE',  ( -45.00000000000002132, 8.000000004526494735, -1.581989165655425245 ) ) ;
#449 = DIRECTION ( 'NONE',  ( 0.000000000000000000, 0.000000000000000000, -1.000000000000000000 ) ) ;
#450 = DIRECTION ( 'NONE',  ( 0.000000000000000000, 0.000000000000000000, 1.000000000000000000 ) ) ;
#451 = EDGE_CURVE ( 'NONE', #812, #578, #822, .T. ) ;
#452 = EDGE_CURVE ( 'NONE', #79, #1, #220, .T. ) ;
#453 = CIRCLE ( 'NONE', #406, 2.000000000000001776 ) ;
#454 =( NAMED_UNIT ( * ) PLANE_ANGLE_UNIT ( ) SI_UNIT ( $, .RADIAN. ) );
#455 = ORIENTED_EDGE ( 'NONE', *, *, #523, .T. ) ;
#456 = DIRECTION ( 'NONE',  ( 0.000000000000000000, 1.000000000000000000, 0.000000000000000000 ) ) ;
#457 = CARTESIAN_POINT ( 'NONE',  ( -43.00000000000001421, 7.999999999999998224, -1.732050807568876527 ) ) ;
#458 = ADVANCED_FACE ( 'NONE', ( #291 ), #155, .F. ) ;
#459 = CIRCLE ( 'NONE', #412, 1.999999999999999112 ) ;
#460 = CARTESIAN_POINT ( 'NONE',  ( -45.00000000000002132, 6.999999999999999112, 3.499999999999999112 ) ) ;
#461 = VECTOR ( 'NONE', #645, 1000.000000000000000 ) ;
#462 = ORIENTED_EDGE ( 'NONE', *, *, #123, .F. ) ;
#463 = CARTESIAN_POINT ( 'NONE',  ( 0.000000000000000000, 0.000000000000000000, 0.000000000000000000 ) ) ;
#464 = CARTESIAN_POINT ( 'NONE',  ( -45.00000000000002132, 8.249346568438769012, -0.2677871646728343102 ) ) ;
#465 = LINE ( 'NONE', #734, #170 ) ;
#466 = EDGE_LOOP ( 'NONE', ( #717, #274, #572, #22 ) ) ;
#467 = DIRECTION ( 'NONE',  ( 0.000000000000000000, 0.000000000000000000, 1.000000000000000000 ) ) ;
#468 = CARTESIAN_POINT ( 'NONE',  ( -45.00000000000002132, 7.999999999999998224, 3.499999999999999112 ) ) ;
#469 = CARTESIAN_POINT ( 'NONE',  ( -43.98951596259619379, 10.00000000999210847, -0.2473427711762666847 ) ) ;
#470 = LINE ( 'NONE', #333, #132 ) ;
#471 = ORIENTED_EDGE ( 'NONE', *, *, #410, .T. ) ;
#472 = CIRCLE ( 'NONE', #10, 2.000000000000001776 ) ;
#473 = CARTESIAN_POINT ( 'NONE',  ( -43.06503186886121171, 9.999999999999998224, -1.694504660774746929 ) ) ;
#474 = PRODUCT ( 'Frame-Battery-Splitter', 'Frame-Battery-Splitter', '', ( #780 ) ) ;
#475 = DIRECTION ( 'NONE',  ( 1.000000000000000000, 0.000000000000000000, 0.000000000000000000 ) ) ;
#476 = ORIENTED_EDGE ( 'NONE', *, *, #423, .F. ) ;
#477 = DIRECTION ( 'NONE',  ( 0.000000000000000000, -1.000000000000000000, -2.168404344971008868E-16 ) ) ;
#478 = ORIENTED_EDGE ( 'NONE', *, *, #101, .T. ) ;
#479 = DIRECTION ( 'NONE',  ( 0.000000000000000000, 0.000000000000000000, 1.000000000000000000 ) ) ;
#480 = DIRECTION ( 'NONE',  ( 0.000000000000000000, 0.000000000000000000, 1.000000000000000000 ) ) ;
#481 = CARTESIAN_POINT ( 'NONE',  ( -45.00000000000003553, 8.269022431010801810, 0.1329479637626072297 ) ) ;
#482 = EDGE_CURVE ( 'NONE', #339, #392, #755, .T. ) ;
#483 = AXIS2_PLACEMENT_3D ( 'NONE', #702, #361, #570 ) ;
#484 = AXIS2_PLACEMENT_3D ( 'NONE', #430, #569, #501 ) ;
#485 = SURFACE_STYLE_FILL_AREA ( #32 ) ;
#486 = ORIENTED_EDGE ( 'NONE', *, *, #848, .T. ) ;
#487 = ORIENTED_EDGE ( 'NONE', *, *, #13, .T. ) ;
#488 = AXIS2_PLACEMENT_3D ( 'NONE', #25, #819, #477 ) ;
#489 = LINE ( 'NONE', #225, #95 ) ;
#490 = MANIFOLD_SOLID_BREP ( 'Fillet3', #568 ) ;
#491 = CARTESIAN_POINT ( 'NONE',  ( -45.00000000000002132, 8.154043602851265504, 0.7140020763368289947 ) ) ;
#492 = ORIENTED_EDGE ( 'NONE', *, *, #413, .T. ) ;
#493 = EDGE_CURVE ( 'NONE', #43, #331, #632, .T. ) ;
#494 = CARTESIAN_POINT ( 'NONE',  ( 28.00000000000000000, 10.00000000000000000, 1.999999999999999112 ) ) ;
#495 = EDGE_LOOP ( 'NONE', ( #628, #364, #326, #107, #157, #12 ) ) ;
#496 = DIRECTION ( 'NONE',  ( 1.000000000000000000, 0.000000000000000000, -0.000000000000000000 ) ) ;
#497 = VERTEX_POINT ( 'NONE', #138 ) ;
#498 = ORIENTED_EDGE ( 'NONE', *, *, #4, .F. ) ;
#499 = CIRCLE ( 'NONE', #488, 2.000000000000000000 ) ;
#500 = AXIS2_PLACEMENT_3D ( 'NONE', #834, #36, #284 ) ;
#501 = DIRECTION ( 'NONE',  ( 1.000000000000000000, 0.000000000000000000, 0.000000000000000000 ) ) ;
#502 = CARTESIAN_POINT ( 'NONE',  ( 42.99999999999999289, 5.000000000000000000, -3.500000000000001332 ) ) ;
#503 = CYLINDRICAL_SURFACE ( 'NONE', #484, 2.000000000000001776 ) ;
#504 = EDGE_CURVE ( 'NONE', #130, #169, #248, .T. ) ;
#505 = CARTESIAN_POINT ( 'NONE',  ( -50.00000000000001421, 20.00000000000000000, -3.500000000000000888 ) ) ;
#506 = ORIENTED_EDGE ( 'NONE', *, *, #391, .T. ) ;
#507 = PLANE ( 'NONE',  #232 ) ;
#508 = DIRECTION ( 'NONE',  ( -0.000000000000000000, -1.000000000000000000, -0.000000000000000000 ) ) ;
#509 = CARTESIAN_POINT ( 'NONE',  ( -42.00000000000000711, 10.00000000000000000, -2.000000000000003109 ) ) ;
#510 = ORIENTED_EDGE ( 'NONE', *, *, #191, .F. ) ;
#511 = PLANE ( 'NONE',  #805 ) ;
#512 = CARTESIAN_POINT ( 'NONE',  ( -45.00000000000002132, 8.149204907384870467, 0.7334403057913526647 ) ) ;
#513 = STYLED_ITEM ( 'NONE', ( #688 ), #490 ) ;
#514 = CARTESIAN_POINT ( 'NONE',  ( -42.00000000000000711, 10.00000000000000000, 0.000000000000000000 ) ) ;
#515 = ORIENTED_EDGE ( 'NONE', *, *, #242, .T. ) ;
#516 = DIRECTION ( 'NONE',  ( -0.000000000000000000, 1.000000000000000000, -0.000000000000000000 ) ) ;
#517 = EDGE_CURVE ( 'NONE', #199, #713, #311, .T. ) ;
#518 = CARTESIAN_POINT ( 'NONE',  ( -45.00000000000002132, 8.082526607687290365, 1.017722536957164747 ) ) ;
#519 = DIRECTION ( 'NONE',  ( 1.000000000000000000, -0.000000000000000000, -0.000000000000000000 ) ) ;
#520 = EDGE_LOOP ( 'NONE', ( #758, #760, #387, #761 ) ) ;
#521 = FACE_OUTER_BOUND ( 'NONE', #443, .T. ) ;
#522 = DIRECTION ( 'NONE',  ( 0.000000000000000000, 1.084202172485503325E-16, -1.000000000000000000 ) ) ;
#523 = EDGE_CURVE ( 'NONE', #331, #234, #148, .T. ) ;
#524 = CARTESIAN_POINT ( 'NONE',  ( -45.00000000000002842, 9.421922110685571283, -0.08545191858153668163 ) ) ;
#525 = CARTESIAN_POINT ( 'NONE',  ( 28.00000000000000000, 20.00000000000000000, 0.000000000000000000 ) ) ;
#526 = VECTOR ( 'NONE', #129, 1000.000000000000000 ) ;
#527 = AXIS2_PLACEMENT_3D ( 'NONE', #809, #389, #206 ) ;
#528 = ORIENTED_EDGE ( 'NONE', *, *, #700, .T. ) ;
#529 = DIRECTION ( 'NONE',  ( 0.000000000000000000, 0.8574929257125442073, -0.5144957554275264577 ) ) ;
#530 = DIRECTION ( 'NONE',  ( 0.000000000000000000, -0.000000000000000000, -1.000000000000000000 ) ) ;
#531 = VECTOR ( 'NONE', #480, 1000.000000000000000 ) ;
#532 = CARTESIAN_POINT ( 'NONE',  ( 47.99999999999998579, 0.000000000000000000, 3.499999999999999112 ) ) ;
#533 = VECTOR ( 'NONE', #447, 1000.000000000000000 ) ;
#534 = ORIENTED_EDGE ( 'NONE', *, *, #259, .F. ) ;
#535 = DIRECTION ( 'NONE',  ( -0.000000000000000000, -0.000000000000000000, 1.000000000000000000 ) ) ;
#536 = CARTESIAN_POINT ( 'NONE',  ( -45.00000000000002132, 9.514618193317430084, 0.9184682390788160289 ) ) ;
#537 = LINE ( 'NONE', #668, #573 ) ;
#538 = ADVANCED_FACE ( 'NONE', ( #376 ), #792, .F. ) ;
#539 = ORIENTED_EDGE ( 'NONE', *, *, #833, .F. ) ;
#540 = CARTESIAN_POINT ( 'NONE',  ( -50.00000000000001421, 5.000000000000000888, 3.499999999999999112 ) ) ;
#541 = CARTESIAN_POINT ( 'NONE',  ( -43.41564507921253124, 9.999999985106601486, -1.422849225225354841 ) ) ;
#542 = CARTESIAN_POINT ( 'NONE',  ( -50.00000000000001421, 20.00000000000000000, -3.500000000000000888 ) ) ;
#543 = ORIENTED_EDGE ( 'NONE', *, *, #191, .T. ) ;
#544 = DIRECTION ( 'NONE',  ( -1.000000000000000000, 0.000000000000000000, 0.000000000000000000 ) ) ;
#545 = AXIS2_PLACEMENT_3D ( 'NONE', #793, #109, #359 ) ;
#546 = CARTESIAN_POINT ( 'NONE',  ( -45.00000000000001421, 9.423620406588014475, 0.1538393839737982605 ) ) ;
#547 = FACE_OUTER_BOUND ( 'NONE', #88, .T. ) ;
#548 = AXIS2_PLACEMENT_3D ( 'NONE', #11, #811, #203 ) ;
#549 = DIRECTION ( 'NONE',  ( -0.000000000000000000, 0.000000000000000000, -1.000000000000000000 ) ) ;
#550 = VECTOR ( 'NONE', #650, 1000.000000000000000 ) ;
#551 = EDGE_CURVE ( 'NONE', #79, #770, #55, .T. ) ;
#552 = CARTESIAN_POINT ( 'NONE',  ( 49.99999999999998579, 15.00000000000000000, -3.500000000000000888 ) ) ;
#553 = CARTESIAN_POINT ( 'NONE',  ( 28.00000000000000000, 10.00000000000000000, 0.000000000000000000 ) ) ;
#554 = FACE_OUTER_BOUND ( 'NONE', #785, .T. ) ;
#555 = ADVANCED_FACE ( 'NONE', ( #521 ), #511, .F. ) ;
#556 = EDGE_LOOP ( 'NONE', ( #686, #845, #405, #119 ) ) ;
#557 = ORIENTED_EDGE ( 'NONE', *, *, #347, .F. ) ;
#558 = EDGE_CURVE ( 'NONE', #829, #613, #718, .T. ) ;
#559 =( NAMED_UNIT ( * ) PLANE_ANGLE_UNIT ( ) SI_UNIT ( $, .RADIAN. ) );
#560 = CARTESIAN_POINT ( 'NONE',  ( -45.00000000000000711, 8.183704731688864698, -0.5870242843599584592 ) ) ;
#561 = ORIENTED_EDGE ( 'NONE', *, *, #451, .T. ) ;
#562 = AXIS2_PLACEMENT_3D ( 'NONE', #321, #479, #398 ) ;
#563 = EDGE_LOOP ( 'NONE', ( #557, #320, #306, #605, #462, #729, #807, #842 ) ) ;
#564 = ORIENTED_EDGE ( 'NONE', *, *, #294, .F. ) ;
#565 = FILL_AREA_STYLE_COLOUR ( '', #276 ) ;
#566 = CARTESIAN_POINT ( 'NONE',  ( -45.00000000000002132, 9.999999999999998224, -3.500000000000000888 ) ) ;
#567 = EDGE_LOOP ( 'NONE', ( #184, #735, #630, #93 ) ) ;
#568 = CLOSED_SHELL ( 'NONE', ( #707, #51, #437, #458, #100, #739, #637, #555, #606, #279, #355, #593, #679, #574, #588, #838, #538, #335, #598, #623, #800, #767, #626 ) ) ;
#569 = DIRECTION ( 'NONE',  ( 0.000000000000000000, 0.000000000000000000, 1.000000000000000000 ) ) ;
#570 = DIRECTION ( 'NONE',  ( 0.000000000000000000, 0.000000000000000000, 1.000000000000000000 ) ) ;
#571 = B_SPLINE_CURVE_WITH_KNOTS ( 'NONE', 3,
 ( #409, #823, #625, #560, #218, #481, #828, #223, #491, #374, #858, #309 ),
 .UNSPECIFIED., .F., .F.,
 ( 4, 2, 2, 2, 2, 4 ),
 ( 0.000000000000000000, 0.0008770693550093084778, 0.001754138710018616956, 0.002192673387523271303, 0.002631208065027925216, 0.003508277420037233911 ),
 .UNSPECIFIED. ) ;
#572 = ORIENTED_EDGE ( 'NONE', *, *, #294, .T. ) ;
#573 = VECTOR ( 'NONE', #87, 1000.000000000000000 ) ;
#574 = ADVANCED_FACE ( 'NONE', ( #7, #655 ), #723, .F. ) ;
#575 = LINE ( 'NONE', #192, #168 ) ;
#576 = EDGE_CURVE ( 'NONE', #446, #1, #125, .T. ) ;
#577 = CARTESIAN_POINT ( 'NONE',  ( -43.00000000000001421, 7.999999999999998224, -3.500000000000001332 ) ) ;
#578 = VERTEX_POINT ( 'NONE', #66 ) ;
#579 = DIRECTION ( 'NONE',  ( -1.000000000000000000, 0.000000000000000000, 0.000000000000000000 ) ) ;
#580 = CARTESIAN_POINT ( 'NONE',  ( 49.99999999999998579, 15.00000000000000000, 3.499999999999999556 ) ) ;
#581 = CARTESIAN_POINT ( 'NONE',  ( 55.83095189484529897, 15.00000000000000000, -3.500000000000000000 ) ) ;
#582 = FACE_OUTER_BOUND ( 'NONE', #154, .T. ) ;
#583 = LINE ( 'NONE', #433, #653 ) ;
#584 = DIRECTION ( 'NONE',  ( -1.000000000000000000, 0.000000000000000000, 0.000000000000000000 ) ) ;
#585 = AXIS2_PLACEMENT_3D ( 'NONE', #318, #596, #797 ) ;
#586 = ORIENTED_EDGE ( 'NONE', *, *, #848, .F. ) ;
#587 = DIRECTION ( 'NONE',  ( 0.000000000000000000, 0.000000000000000000, 1.000000000000000000 ) ) ;
#588 = ADVANCED_FACE ( 'NONE', ( #179 ), #256, .F. ) ;
#589 = FACE_BOUND ( 'NONE', #334, .T. ) ;
#590 = AXIS2_PLACEMENT_3D ( 'NONE', #599, #241, #587 ) ;
#591 = CARTESIAN_POINT ( 'NONE',  ( 44.99999999999998579, 20.00000000000000000, 3.499999999999999112 ) ) ;
#592 = DIRECTION ( 'NONE',  ( 0.000000000000000000, 0.000000000000000000, 1.000000000000000000 ) ) ;
#593 = ADVANCED_FACE ( 'NONE', ( #238 ), #507, .T. ) ;
#594 = ORIENTED_EDGE ( 'NONE', *, *, #744, .T. ) ;
#595 = CYLINDRICAL_SURFACE ( 'NONE', #771, 2.000000000000001776 ) ;
#596 = DIRECTION ( 'NONE',  ( 0.000000000000000000, 1.000000000000000000, 0.000000000000000000 ) ) ;
#597 = DIRECTION ( 'NONE',  ( 0.000000000000000000, 0.000000000000000000, 1.000000000000000000 ) ) ;
#598 = ADVANCED_FACE ( 'NONE', ( #439 ), #595, .F. ) ;
#599 = CARTESIAN_POINT ( 'NONE',  ( 28.00000000000000000, 10.00000000000000000, 0.000000000000000000 ) ) ;
#600 = FACE_OUTER_BOUND ( 'NONE', #33, .T. ) ;
#601 = CARTESIAN_POINT ( 'NONE',  ( -45.00000000000002132, 8.264951182921073780, -0.1233538698300381681 ) ) ;
#602 = FACE_OUTER_BOUND ( 'NONE', #83, .T. ) ;
#603 = VECTOR ( 'NONE', #171, 1000.000000000000000 ) ;
#604 = CIRCLE ( 'NONE', #527, 2.000000000000001776 ) ;
#605 = ORIENTED_EDGE ( 'NONE', *, *, #618, .T. ) ;
#606 = ADVANCED_FACE ( 'NONE', ( #582 ), #200, .F. ) ;
#607 = VECTOR ( 'NONE', #789, 1000.000000000000000 ) ;
#608 = CARTESIAN_POINT ( 'NONE',  ( 49.99999999999998579, 1.999999999999998224, 3.499999999999999112 ) ) ;
#609 = ORIENTED_EDGE ( 'NONE', *, *, #814, .F. ) ;
#610 = DIRECTION ( 'NONE',  ( 0.000000000000000000, 1.000000000000000000, 0.000000000000000000 ) ) ;
#611 = CARTESIAN_POINT ( 'NONE',  ( -45.00000000000002132, 8.194626627078338998, -0.5577548296041952014 ) ) ;
#612 = DIRECTION ( 'NONE',  ( 0.000000000000000000, 0.000000000000000000, 1.000000000000000000 ) ) ;
#613 = VERTEX_POINT ( 'NONE', #855 ) ;
#614 = CARTESIAN_POINT ( 'NONE',  ( -43.00000000000001421, 7.999999999999998224, 6.499999999999999112 ) ) ;
#615 = CARTESIAN_POINT ( 'NONE',  ( 49.99999999999998579, 1.999999999999998224, -3.500000000000000888 ) ) ;
#616 = VERTEX_POINT ( 'NONE', #252 ) ;
#617 = CARTESIAN_POINT ( 'NONE',  ( 44.99999999999999289, 9.999999999999998224, 6.499999999999999112 ) ) ;
#618 = EDGE_CURVE ( 'NONE', #616, #162, #315, .T. ) ;
#619 = DIRECTION ( 'NONE',  ( 0.000000000000000000, 0.000000000000000000, -1.000000000000000000 ) ) ;
#620 = CIRCLE ( 'NONE', #231, 1.999999999999999112 ) ;
#621 = EDGE_LOOP ( 'NONE', ( #286, #73, #586, #644 ) ) ;
#622 = VECTOR ( 'NONE', #715, 1000.000000000000000 ) ;
#623 = ADVANCED_FACE ( 'NONE', ( #554 ), #147, .F. ) ;
#624 = DIRECTION ( 'NONE',  ( 1.000000000000000000, 0.000000000000000000, 0.000000000000000000 ) ) ;
#625 = CARTESIAN_POINT ( 'NONE',  ( -45.00000000000001421, 8.050468758652394641, -1.153739535760763824 ) ) ;
#626 = ADVANCED_FACE ( 'NONE', ( #142 ), #751, .T. ) ;
#627 = ORIENTED_EDGE ( 'NONE', *, *, #41, .T. ) ;
#628 = ORIENTED_EDGE ( 'NONE', *, *, #214, .F. ) ;
#629 = PRODUCT_DEFINITION_FORMATION_WITH_SPECIFIED_SOURCE ( 'Symmetric', '', #474, .NOT_KNOWN. ) ;
#630 = ORIENTED_EDGE ( 'NONE', *, *, #482, .F. ) ;
#631 = AXIS2_PLACEMENT_3D ( 'NONE', #84, #610, #19 ) ;
#632 = LINE ( 'NONE', #74, #550 ) ;
#633 = CARTESIAN_POINT ( 'NONE',  ( 47.99999999999998579, 0.000000000000000000, -3.500000000000000888 ) ) ;
#634 = ORIENTED_EDGE ( 'NONE', *, *, #204, .T. ) ;
#635 = DIRECTION ( 'NONE',  ( 0.000000000000000000, 1.000000000000000000, 0.000000000000000000 ) ) ;
#636 = VERTEX_POINT ( 'NONE', #213 ) ;
#637 = ADVANCED_FACE ( 'NONE', ( #683, #808, #736 ), #327, .T. ) ;
#638 = DIRECTION ( 'NONE',  ( -0.000000000000000000, 1.000000000000000000, -0.000000000000000000 ) ) ;
#639 = LINE ( 'NONE', #591, #526 ) ;
#640 = ORIENTED_EDGE ( 'NONE', *, *, #186, .T. ) ;
#641 = VECTOR ( 'NONE', #749, 1000.000000000000000 ) ;
#642 = CARTESIAN_POINT ( 'NONE',  ( -45.00000000000002132, 7.999999999999998224, 3.499999999999999112 ) ) ;
#643 = DIRECTION ( 'NONE',  ( -0.000000000000000000, -0.000000000000000000, 1.000000000000000000 ) ) ;
#644 = ORIENTED_EDGE ( 'NONE', *, *, #242, .F. ) ;
#645 = DIRECTION ( 'NONE',  ( 0.000000000000000000, 0.8574929257125442073, -0.5144957554275264577 ) ) ;
#646 = FACE_OUTER_BOUND ( 'NONE', #495, .T. ) ;
#647 = CARTESIAN_POINT ( 'NONE',  ( -50.00000000000001421, 20.00000000000000000, -3.500000000000000888 ) ) ;
#648 = EDGE_CURVE ( 'NONE', #212, #636, #266, .T. ) ;
#649 = ORIENTED_EDGE ( 'NONE', *, *, #731, .T. ) ;
#650 = DIRECTION ( 'NONE',  ( -0.000000000000000000, -0.000000000000000000, 1.000000000000000000 ) ) ;
#651 = FACE_OUTER_BOUND ( 'NONE', #466, .T. ) ;
#652 = CARTESIAN_POINT ( 'NONE',  ( 42.99999999999999289, 9.999999999999998224, -3.500000000000000888 ) ) ;
#653 = VECTOR ( 'NONE', #857, 1000.000000000000000 ) ;
#654 = ORIENTED_EDGE ( 'NONE', *, *, #451, .F. ) ;
#655 = FACE_OUTER_BOUND ( 'NONE', #54, .T. ) ;
#656 = CARTESIAN_POINT ( 'NONE',  ( -43.13990951578838917, 9.999999996546266701, -1.647080014356137712 ) ) ;
#657 = CYLINDRICAL_SURFACE ( 'NONE', #545, 2.000000000000003109 ) ;
#658 = AXIS2_PLACEMENT_3D ( 'NONE', #303, #579, #846 ) ;
#659 = DIRECTION ( 'NONE',  ( 0.000000000000000000, -1.000000000000000000, 0.000000000000000000 ) ) ;
#660 = ORIENTED_EDGE ( 'NONE', *, *, #777, .T. ) ;
#661 = CARTESIAN_POINT ( 'NONE',  ( 49.99999999999998579, 20.00000000000000000, -6.500000000000000888 ) ) ;
#662 = CARTESIAN_POINT ( 'NONE',  ( -45.00000000000002132, 9.999999999999998224, -1.732050807568877415 ) ) ;
#663 = DIRECTION ( 'NONE',  ( 1.000000000000000000, 0.000000000000000000, 0.000000000000000000 ) ) ;
#664 = EDGE_LOOP ( 'NONE', ( #316, #682 ) ) ;
#665 = DIRECTION ( 'NONE',  ( -1.000000000000000000, 0.000000000000000000, 0.000000000000000000 ) ) ;
#666 = EDGE_CURVE ( 'NONE', #98, #212, #820, .T. ) ;
#667 = CARTESIAN_POINT ( 'NONE',  ( -43.63429385313795450, 10.00000001489339496, -1.165175602501955954 ) ) ;
#668 = CARTESIAN_POINT ( 'NONE',  ( 55.83095189484529897, 15.00000000000000000, 3.499999999999999556 ) ) ;
#669 = VECTOR ( 'NONE', #535, 1000.000000000000000 ) ;
#670 = ORIENTED_EDGE ( 'NONE', *, *, #551, .F. ) ;
#671 = CARTESIAN_POINT ( 'NONE',  ( -45.00000000000001421, 9.668090497088963176, -1.352200943367090735 ) ) ;
#672 = AXIS2_PLACEMENT_3D ( 'NONE', #233, #314, #367 ) ;
#673 = DIRECTION ( 'NONE',  ( -1.000000000000000000, -0.000000000000000000, -0.000000000000000000 ) ) ;
#674 = VECTOR ( 'NONE', #743, 1000.000000000000000 ) ;
#675 = ORIENTED_EDGE ( 'NONE', *, *, #700, .F. ) ;
#676 = CARTESIAN_POINT ( 'NONE',  ( -45.00000000000002132, 7.000000000000000000, -3.500000000000000888 ) ) ;
#677 = ORIENTED_EDGE ( 'NONE', *, *, #757, .F. ) ;
#678 = DIRECTION ( 'NONE',  ( -1.000000000000000000, 0.000000000000000000, 0.000000000000000000 ) ) ;
#679 = ADVANCED_FACE ( 'NONE', ( #91 ), #340, .F. ) ;
#680 = CARTESIAN_POINT ( 'NONE',  ( -43.00000000000001421, 7.999999999999998224, 3.499999999999999112 ) ) ;
#681 = EDGE_CURVE ( 'NONE', #240, #497, #245, .T. ) ;
#682 = ORIENTED_EDGE ( 'NONE', *, *, #301, .F. ) ;
#683 = FACE_BOUND ( 'NONE', #664, .T. ) ;
#684 = CIRCLE ( 'NONE', #483, 2.000000000000003109 ) ;
#685 = AXIS2_PLACEMENT_3D ( 'NONE', #737, #145, #89 ) ;
#686 = ORIENTED_EDGE ( 'NONE', *, *, #413, .F. ) ;
#687 = PRESENTATION_LAYER_ASSIGNMENT (  '', '', ( #513 ) ) ;
#688 = PRESENTATION_STYLE_ASSIGNMENT (( #160 ) ) ;
#689 = EDGE_LOOP ( 'NONE', ( #27, #164, #564, #297 ) ) ;
#690 = ORIENTED_EDGE ( 'NONE', *, *, #429, .T. ) ;
#691 = EDGE_CURVE ( 'NONE', #59, #31, #741, .T. ) ;
#692 = CARTESIAN_POINT ( 'NONE',  ( 49.99999999999998579, 20.00000000000000000, -6.500000000000000888 ) ) ;
#693 = EDGE_LOOP ( 'NONE', ( #850, #506, #137, #476 ) ) ;
#694 = FACE_BOUND ( 'NONE', #563, .T. ) ;
#695 = ORIENTED_EDGE ( 'NONE', *, *, #78, .F. ) ;
#696 = CIRCLE ( 'NONE', #672, 2.000000000000003109 ) ;
#697 = ORIENTED_EDGE ( 'NONE', *, *, #204, .F. ) ;
#698 = AXIS2_PLACEMENT_3D ( 'NONE', #116, #802, #369 ) ;
#699 = DIRECTION ( 'NONE',  ( -0.000000000000000000, 1.000000000000000000, -0.000000000000000000 ) ) ;
#700 = EDGE_CURVE ( 'NONE', #229, #424, #720, .T. ) ;
#701 = CARTESIAN_POINT ( 'NONE',  ( -43.30174795879179328, 10.00000000322158122, 1.522056039933152416 ) ) ;
#702 = CARTESIAN_POINT ( 'NONE',  ( -42.00000000000000711, 10.00000000000000000, 0.000000000000000000 ) ) ;
#703 = EDGE_CURVE ( 'NONE', #224, #578, #379, .T. ) ;
#704 =( NAMED_UNIT ( * ) SI_UNIT ( $, .STERADIAN. ) SOLID_ANGLE_UNIT ( ) );
#705 = ORIENTED_EDGE ( 'NONE', *, *, #156, .T. ) ;
#706 = DIRECTION ( 'NONE',  ( 0.000000000000000000, 1.000000000000000000, 0.000000000000000000 ) ) ;
#707 = ADVANCED_FACE ( 'NONE', ( #646 ), #657, .F. ) ;
#708 = DIRECTION ( 'NONE',  ( 0.000000000000000000, 1.000000000000000000, 0.000000000000000000 ) ) ;
#709 = VERTEX_POINT ( 'NONE', #56 ) ;
#710 = AXIS2_PLACEMENT_3D ( 'NONE', #45, #708, #114 ) ;
#711 = CARTESIAN_POINT ( 'NONE',  ( -45.00000000000002132, 8.052824970581506037, 1.160034007873138373 ) ) ;
#712 = PLANE ( 'NONE',  #752 ) ;
#713 = VERTEX_POINT ( 'NONE', #70 ) ;
#714 = CARTESIAN_POINT ( 'NONE',  ( -43.00000000000001421, 7.000000000000000000, 6.499999999999999112 ) ) ;
#715 = DIRECTION ( 'NONE',  ( -0.000000000000000000, -0.000000000000000000, 1.000000000000000000 ) ) ;
#716 = DIRECTION ( 'NONE',  ( -0.000000000000000000, -1.000000000000000000, -0.000000000000000000 ) ) ;
#717 = ORIENTED_EDGE ( 'NONE', *, *, #429, .F. ) ;
#718 = LINE ( 'NONE', #120, #414 ) ;
#719 = CARTESIAN_POINT ( 'NONE',  ( -45.00000000000002132, 7.999999999999998224, -1.732050807568876971 ) ) ;
#720 = LINE ( 'NONE', #642, #622 ) ;
#721 = CARTESIAN_POINT ( 'NONE',  ( -43.00000000000001421, 9.999999999999998224, 3.499999999999999112 ) ) ;
#722 = ORIENTED_EDGE ( 'NONE', *, *, #112, .F. ) ;
#723 = PLANE ( 'NONE',  #698 ) ;
#724 = CARTESIAN_POINT ( 'NONE',  ( -45.00000000000002132, 9.454327586635869807, -0.5533939120829340919 ) ) ;
#725 = CIRCLE ( 'NONE', #827, 2.000000000000001776 ) ;
#726 = VECTOR ( 'NONE', #508, 1000.000000000000000 ) ;
#727 = CARTESIAN_POINT ( 'NONE',  ( -50.00000000000001421, 20.00000000000000000, 6.500000000000000000 ) ) ;
#728 = EDGE_CURVE ( 'NONE', #40, #31, #783, .T. ) ;
#729 = ORIENTED_EDGE ( 'NONE', *, *, #78, .T. ) ;
#730 = DIRECTION ( 'NONE',  ( 0.000000000000000000, 0.000000000000000000, -1.000000000000000000 ) ) ;
#731 = EDGE_CURVE ( 'NONE', #224, #228, #575, .T. ) ;
#732 = CARTESIAN_POINT ( 'NONE',  ( -45.00000000000002132, 8.056498241986634667, -1.139555505626566934 ) ) ;
#733 = CARTESIAN_POINT ( 'NONE',  ( -43.87294125385906085, 10.00000001446958464, 0.7114183021610668289 ) ) ;
#734 = CARTESIAN_POINT ( 'NONE',  ( 55.83095189484529897, 20.00000000000000000, -6.500000000000000888 ) ) ;
#735 = ORIENTED_EDGE ( 'NONE', *, *, #135, .F. ) ;
#736 = FACE_OUTER_BOUND ( 'NONE', #693, .T. ) ;
#737 = CARTESIAN_POINT ( 'NONE',  ( -42.00000000000000711, 10.00000000000000000, 0.000000000000000000 ) ) ;
#738 = ORIENTED_EDGE ( 'NONE', *, *, #391, .F. ) ;
#739 = ADVANCED_FACE ( 'NONE', ( #589, #298 ), #127, .F. ) ;
#740 = CARTESIAN_POINT ( 'NONE',  ( 42.99999999999998579, 9.999999999999998224, 3.499999999999999112 ) ) ;
#741 = CIRCLE ( 'NONE', #133, 1.999999999999999112 ) ;
#742 = ORIENTED_EDGE ( 'NONE', *, *, #452, .F. ) ;
#743 = DIRECTION ( 'NONE',  ( -1.000000000000000000, 0.000000000000000000, 0.000000000000000000 ) ) ;
#744 = EDGE_CURVE ( 'NONE', #290, #240, #583, .T. ) ;
#745 = PRODUCT_DEFINITION_CONTEXT ( 'detailed design', #753, 'design' ) ;
#746 = DIRECTION ( 'NONE',  ( 0.000000000000000000, 1.000000000000000000, 0.000000000000000000 ) ) ;
#747 = ORIENTED_EDGE ( 'NONE', *, *, #410, .F. ) ;
#748 = DIRECTION ( 'NONE',  ( 0.000000000000000000, 0.000000000000000000, -1.000000000000000000 ) ) ;
#749 = DIRECTION ( 'NONE',  ( -0.000000000000000000, -0.000000000000000000, -1.000000000000000000 ) ) ;
#750 = DIRECTION ( 'NONE',  ( 0.000000000000000000, 0.000000000000000000, 1.000000000000000000 ) ) ;
#751 = CYLINDRICAL_SURFACE ( 'NONE', #97, 2.000000000000001776 ) ;
#752 = AXIS2_PLACEMENT_3D ( 'NONE', #647, #295, #779 ) ;
#753 = APPLICATION_CONTEXT ( 'automotive_design' ) ;
#754 = SURFACE_SIDE_STYLE ('',( #485 ) ) ;
#755 = CIRCLE ( 'NONE', #201, 2.000000000000001776 ) ;
#756 = ORIENTED_EDGE ( 'NONE', *, *, #68, .T. ) ;
#757 = EDGE_CURVE ( 'NONE', #34, #40, #362, .T. ) ;
#758 = ORIENTED_EDGE ( 'NONE', *, *, #156, .F. ) ;
#759 =( NAMED_UNIT ( * ) SI_UNIT ( $, .STERADIAN. ) SOLID_ANGLE_UNIT ( ) );
#760 = ORIENTED_EDGE ( 'NONE', *, *, #175, .F. ) ;
#761 = ORIENTED_EDGE ( 'NONE', *, *, #744, .F. ) ;
#762 = DIRECTION ( 'NONE',  ( 0.000000000000000000, 0.000000000000000000, 1.000000000000000000 ) ) ;
#763 = ORIENTED_EDGE ( 'NONE', *, *, #576, .T. ) ;
#764 = ORIENTED_EDGE ( 'NONE', *, *, #691, .T. ) ;
#765 = AXIS2_PLACEMENT_3D ( 'NONE', #457, #522, #69 ) ;
#766 = DIRECTION ( 'NONE',  ( -1.000000000000000000, 0.000000000000000000, 0.000000000000000000 ) ) ;
#767 = ADVANCED_FACE ( 'NONE', ( #651 ), #503, .F. ) ;
#768 = LINE ( 'NONE', #349, #603 ) ;
#769 = VECTOR ( 'NONE', #396, 1000.000000000000000 ) ;
#770 = VERTEX_POINT ( 'NONE', #580 ) ;
#771 = AXIS2_PLACEMENT_3D ( 'NONE', #714, #372, #2 ) ;
#772 = PRODUCT_DEFINITION ( 'General', '', #629, #745 ) ;
#773 = CARTESIAN_POINT ( 'NONE',  ( -43.00000000000001421, 9.999999999999998224, 1.732050807568876305 ) ) ;
#774 = CARTESIAN_POINT ( 'NONE',  ( -43.00000000000001421, 5.000000000000000000, 3.499999999999999112 ) ) ;
#775 = APPLICATION_PROTOCOL_DEFINITION ( 'draft international standard', 'automotive_design', 1998, #753 ) ;
#776 = VERTEX_POINT ( 'NONE', #778 ) ;
#777 = EDGE_CURVE ( 'NONE', #411, #343, #472, .T. ) ;
#778 = CARTESIAN_POINT ( 'NONE',  ( -45.00000000000002132, 7.999999999999998224, 1.732050807568876305 ) ) ;
#779 = DIRECTION ( 'NONE',  ( 0.000000000000000000, 0.000000000000000000, -1.000000000000000000 ) ) ;
#780 = PRODUCT_CONTEXT ( 'NONE', #401, 'mechanical' ) ;
#781 = VERTEX_POINT ( 'NONE', #62 ) ;
#782 = DIRECTION ( 'NONE',  ( 0.000000000000000000, -0.5144957554275264577, -0.8574929257125442073 ) ) ;
#783 = LINE ( 'NONE', #308, #26 ) ;
#784 = LINE ( 'NONE', #442, #841 ) ;
#785 = EDGE_LOOP ( 'NONE', ( #695, #432, #609, #675 ) ) ;
#786 = VECTOR ( 'NONE', #673, 1000.000000000000000 ) ;
#787 = VECTOR ( 'NONE', #383, 1000.000000000000000 ) ;
#788 = CARTESIAN_POINT ( 'NONE',  ( -43.72737349251050887, 9.999999971060818282, 1.035510148266206798 ) ) ;
#789 = DIRECTION ( 'NONE',  ( -0.000000000000000000, -0.000000000000000000, 1.000000000000000000 ) ) ;
#790 = UNCERTAINTY_MEASURE_WITH_UNIT (LENGTH_MEASURE( 1.000000000000000082E-05 ), #64, 'distance_accuracy_value', 'NONE');
#791 = ORIENTED_EDGE ( 'NONE', *, *, #186, .F. ) ;
#792 = CYLINDRICAL_SURFACE ( 'NONE', #856, 2.000000000000001776 ) ;
#793 = CARTESIAN_POINT ( 'NONE',  ( -42.00000000000000711, 10.00000000000000000, 0.000000000000000000 ) ) ;
#794 = LINE ( 'NONE', #840, #607 ) ;
#795 = EDGE_LOOP ( 'NONE', ( #543, #486, #346, #534, #791 ) ) ;
#796 = DIRECTION ( 'NONE',  ( -0.000000000000000000, -0.000000000000000000, 1.000000000000000000 ) ) ;
#797 = DIRECTION ( 'NONE',  ( 0.000000000000000000, 0.000000000000000000, 1.000000000000000000 ) ) ;
#798 = CIRCLE ( 'NONE', #585, 2.000000000000003109 ) ;
#799 = FACE_OUTER_BOUND ( 'NONE', #567, .T. ) ;
#800 = ADVANCED_FACE ( 'NONE', ( #113 ), #348, .F. ) ;
#801 = ORIENTED_EDGE ( 'NONE', *, *, #94, .F. ) ;
#802 = DIRECTION ( 'NONE',  ( 0.000000000000000000, 1.000000000000000000, -0.000000000000000000 ) ) ;
#803 = CARTESIAN_POINT ( 'NONE',  ( -45.00000000000002132, 9.553575273966350423, -1.056981607123335998 ) ) ;
#804 = CIRCLE ( 'NONE', #49, 2.000000000000001776 ) ;
#805 = AXIS2_PLACEMENT_3D ( 'NONE', #463, #456, #131 ) ;
#806 = CARTESIAN_POINT ( 'NONE',  ( -50.00000000000001421, 0.000000000000000000, -3.500000000000000888 ) ) ;
#807 = ORIENTED_EDGE ( 'NONE', *, *, #13, .F. ) ;
#808 = FACE_BOUND ( 'NONE', #209, .T. ) ;
#809 = CARTESIAN_POINT ( 'NONE',  ( 47.99999999999998579, 1.999999999999998224, -3.500000000000000888 ) ) ;
#810 = EDGE_CURVE ( 'NONE', #781, #397, #378, .T. ) ;
#811 = DIRECTION ( 'NONE',  ( 0.000000000000000000, -0.5144957554275264577, 0.8574929257125442073 ) ) ;
#812 = VERTEX_POINT ( 'NONE', #263 ) ;
#813 = CARTESIAN_POINT ( 'NONE',  ( -43.31480088282456364, 10.00000000345372975, -1.511146839266254593 ) ) ;
#814 = EDGE_CURVE ( 'NONE', #424, #829, #61, .T. ) ;
#815 = DIRECTION ( 'NONE',  ( -1.000000000000000000, 0.000000000000000000, 0.000000000000000000 ) ) ;
#816 = ORIENTED_EDGE ( 'NONE', *, *, #731, .F. ) ;
#817 = CARTESIAN_POINT ( 'NONE',  ( -45.00000000000001421, 9.425601308510612952, -0.2064288677609900924 ) ) ;
#818 = VECTOR ( 'NONE', #136, 1000.000000000000000 ) ;
#819 = DIRECTION ( 'NONE',  ( 0.000000000000000000, 2.168404344971006896E-16, -1.000000000000000000 ) ) ;
#820 = CIRCLE ( 'NONE', #288, 2.000000000000001776 ) ;
#821 = ORIENTED_EDGE ( 'NONE', *, *, #648, .F. ) ;
#822 = LINE ( 'NONE', #353, #531 ) ;
#823 = CARTESIAN_POINT ( 'NONE',  ( -45.00000000000002132, 8.000000000000001776, -1.439691628331538631 ) ) ;
#824 = EDGE_CURVE ( 'NONE', #397, #713, #798, .T. ) ;
#825 = CARTESIAN_POINT ( 'NONE',  ( -50.00000000000001421, 20.00000000000000000, -6.500000000000000888 ) ) ;
#826 = LINE ( 'NONE', #102, #257 ) ;
#827 = AXIS2_PLACEMENT_3D ( 'NONE', #445, #849, #63 ) ;
#828 = CARTESIAN_POINT ( 'NONE',  ( -45.00000000000002132, 8.249610288655263801, 0.2816900409058983312 ) ) ;
#829 = VERTEX_POINT ( 'NONE', #75 ) ;
#830 = DIRECTION ( 'NONE',  ( 0.000000000000000000, 1.000000000000000000, 0.000000000000000000 ) ) ;
#831 = DIRECTION ( 'NONE',  ( 0.000000000000000000, 0.000000000000000000, -1.000000000000000000 ) ) ;
#832 = ORIENTED_EDGE ( 'NONE', *, *, #214, .T. ) ;
#833 = EDGE_CURVE ( 'NONE', #162, #411, #322, .T. ) ;
#834 = CARTESIAN_POINT ( 'NONE',  ( -43.00000000000001421, 7.000000000000000000, -3.500000000000001332 ) ) ;
#835 = EDGE_LOOP ( 'NONE', ( #216, #492 ) ) ;
#836 = ORIENTED_EDGE ( 'NONE', *, *, #810, .T. ) ;
#837 = AXIS2_PLACEMENT_3D ( 'NONE', #553, #221, #750 ) ;
#838 = ADVANCED_FACE ( 'NONE', ( #600 ), #202, .F. ) ;
#839 = CARTESIAN_POINT ( 'NONE',  ( 42.99999999999999289, 7.999999999999998224, 3.499999999999999112 ) ) ;
#840 = CARTESIAN_POINT ( 'NONE',  ( 44.99999999999999289, 7.000000000000000000, 3.499999999999999112 ) ) ;
#841 = VECTOR ( 'NONE', #118, 1000.000000000000000 ) ;
#842 = ORIENTED_EDGE ( 'NONE', *, *, #681, .T. ) ;
#843 = DIRECTION ( 'NONE',  ( 0.000000000000000000, 0.000000000000000000, -1.000000000000000000 ) ) ;
#844 = LINE ( 'NONE', #774, #15 ) ;
#845 = ORIENTED_EDGE ( 'NONE', *, *, #728, .T. ) ;
#846 = DIRECTION ( 'NONE',  ( 0.000000000000000000, 0.000000000000000000, 1.000000000000000000 ) ) ;
#847 = CARTESIAN_POINT ( 'NONE',  ( -45.00000000000004263, 9.873178339269871984, 1.642039428793797162 ) ) ;
#848 = EDGE_CURVE ( 'NONE', #172, #43, #604, .T. ) ;
#849 = DIRECTION ( 'NONE',  ( 0.000000000000000000, 0.000000000000000000, -1.000000000000000000 ) ) ;
#850 = ORIENTED_EDGE ( 'NONE', *, *, #452, .T. ) ;
#851 = DIRECTION ( 'NONE',  ( 1.000000000000000000, 0.000000000000000000, 0.000000000000000000 ) ) ;
#852 = CARTESIAN_POINT ( 'NONE',  ( -45.00000000000002132, 8.000000005706491280, 1.588882914919761191 ) ) ;
#853 = CARTESIAN_POINT ( 'NONE',  ( 49.99999999999998579, 1.999999999999998224, -3.500000000000000888 ) ) ;
#854 = VERTEX_POINT ( 'NONE', #468 ) ;
#855 = CARTESIAN_POINT ( 'NONE',  ( -42.99999999999999289, 9.999999999999998224, -3.500000000000000888 ) ) ;
#856 = AXIS2_PLACEMENT_3D ( 'NONE', #317, #60, #851 ) ;
#857 = DIRECTION ( 'NONE',  ( 0.000000000000000000, 0.000000000000000000, -1.000000000000000000 ) ) ;
#858 = CARTESIAN_POINT ( 'NONE',  ( -45.00000000000002132, 8.000000000000000000, 1.436157435138484928 ) ) ;
ENDSEC;
END-ISO-10303-21;
