ISO-10303-21;
HEADER;
FILE_DESCRIPTION (( 'STEP AP214' ),
    '1' );
FILE_NAME ('Front-Suspension-Arm-Ball.STEP',
    '2026-05-07T19:05:52',
    ( '' ),
    ( '' ),
    'SwSTEP 2.0',
    'SolidWorks 2026',
    '' );
FILE_SCHEMA (( 'AUTOMOTIVE_DESIGN' ));
ENDSEC;

DATA;
#1 = CIRCLE ( 'NONE', #130, 1.750000000000000000 ) ;
#2 = CARTESIAN_POINT ( 'NONE',  ( -3.200000000000000178, -4.000000000000000000, 0.000000000000000000 ) ) ;
#3 = CARTESIAN_POINT ( 'NONE',  ( 0.000000000000000000, 0.000000000000000000, 0.000000000000000000 ) ) ;
#4 = EDGE_LOOP ( 'NONE', ( #117, #116 ) ) ;
#5 = UNCERTAINTY_MEASURE_WITH_UNIT (LENGTH_MEASURE( 1.000000000000000082E-05 ), #131, 'distance_accuracy_value', 'NONE');
#6 = STYLED_ITEM ( 'NONE', ( #23 ), #191 ) ;
#7 = CARTESIAN_POINT ( 'NONE',  ( 0.000000000000000000, -4.000000000000000000, 0.000000000000000000 ) ) ;
#8 = EDGE_CURVE ( 'NONE', #55, #121, #66, .T. ) ;
#9 = ORIENTED_EDGE ( 'NONE', *, *, #12, .F. ) ;
#10 = CLOSED_SHELL ( 'NONE', ( #145, #61, #92, #120, #98, #113 ) ) ;
#11 = VERTEX_POINT ( 'NONE', #128 ) ;
#12 = EDGE_CURVE ( 'NONE', #67, #182, #136, .T. ) ;
#13 = EDGE_LOOP ( 'NONE', ( #177, #125, #53, #25 ) ) ;
#14 = PRODUCT_RELATED_PRODUCT_CATEGORY ( 'part', '', ( #115 ) ) ;
#15 = CARTESIAN_POINT ( 'NONE',  ( 0.000000000000000000, -4.000000000000000000, 0.000000000000000000 ) ) ;
#16 = DIRECTION ( 'NONE',  ( 0.000000000000000000, 0.000000000000000000, 1.000000000000000000 ) ) ;
#17 = CARTESIAN_POINT ( 'NONE',  ( 0.000000000000000000, -4.000000000000000000, 0.000000000000000000 ) ) ;
#18 = CARTESIAN_POINT ( 'NONE',  ( 2.143131898507868297E-16, 4.000000000000000000, -1.750000000000000000 ) ) ;
#19 = CIRCLE ( 'NONE', #192, 1.750000000000000000 ) ;
#20 = SPHERICAL_SURFACE ( 'NONE', #95, 5.122499389946279180 ) ;
#21 = ORIENTED_EDGE ( 'NONE', *, *, #109, .F. ) ;
#22 = PRODUCT_DEFINITION_FORMATION_WITH_SPECIFIED_SOURCE ( 'Symmetric', '', #115, .NOT_KNOWN. ) ;
#23 = PRESENTATION_STYLE_ASSIGNMENT (( #162 ) ) ;
#24 = EDGE_CURVE ( 'NONE', #80, #196, #176, .T. ) ;
#25 = ORIENTED_EDGE ( 'NONE', *, *, #8, .T. ) ;
#26 = ORIENTED_EDGE ( 'NONE', *, *, #69, .F. ) ;
#27 = EDGE_LOOP ( 'NONE', ( #85, #119, #181, #152 ) ) ;
#28 = DIRECTION ( 'NONE',  ( 0.000000000000000000, 1.000000000000000000, 0.000000000000000000 ) ) ;
#29 = PLANE ( 'NONE',  #174 ) ;
#30 =( GEOMETRIC_REPRESENTATION_CONTEXT ( 3 ) GLOBAL_UNCERTAINTY_ASSIGNED_CONTEXT ( ( #157 ) ) GLOBAL_UNIT_ASSIGNED_CONTEXT ( ( #100, #58, #189 ) ) REPRESENTATION_CONTEXT ( 'NONE', 'WORKASPACE' ) );
#31 = PRODUCT_DEFINITION_SHAPE ( 'NONE', 'NONE',  #75 ) ;
#32 = EDGE_CURVE ( 'NONE', #121, #55, #1, .T. ) ;
#33 = DIRECTION ( 'NONE',  ( 0.000000000000000000, 0.000000000000000000, 1.000000000000000000 ) ) ;
#34 = COLOUR_RGB ( '',0.7921568627450980005, 0.8196078431372548767, 0.9333333333333333481 ) ;
#35 = DIRECTION ( 'NONE',  ( 0.000000000000000000, 0.000000000000000000, 1.000000000000000000 ) ) ;
#36 = APPLICATION_PROTOCOL_DEFINITION ( 'draft international standard', 'automotive_design', 1998, #46 ) ;
#37 = ORIENTED_EDGE ( 'NONE', *, *, #200, .F. ) ;
#38 = EDGE_CURVE ( 'NONE', #148, #11, #47, .T. ) ;
#39 = DIRECTION ( 'NONE',  ( -1.224646799147353207E-16, 0.000000000000000000, 1.000000000000000000 ) ) ;
#40 = AXIS2_PLACEMENT_3D ( 'NONE', #111, #28, #73 ) ;
#41 = CARTESIAN_POINT ( 'NONE',  ( 0.000000000000000000, 0.000000000000000000, 0.000000000000000000 ) ) ;
#42 = FACE_OUTER_BOUND ( 'NONE', #104, .T. ) ;
#43 = ORIENTED_EDGE ( 'NONE', *, *, #8, .F. ) ;
#44 = AXIS2_PLACEMENT_3D ( 'NONE', #45, #185, #169 ) ;
#45 = CARTESIAN_POINT ( 'NONE',  ( 0.000000000000000000, 4.000000000000000000, 0.000000000000000000 ) ) ;
#46 = APPLICATION_CONTEXT ( 'automotive_design' ) ;
#47 = CIRCLE ( 'NONE', #158, 1.750000000000000000 ) ;
#48 = SURFACE_SIDE_STYLE ('',( #49 ) ) ;
#49 = SURFACE_STYLE_FILL_AREA ( #118 ) ;
#50 = EDGE_LOOP ( 'NONE', ( #21, #82, #51, #9 ) ) ;
#51 = ORIENTED_EDGE ( 'NONE', *, *, #69, .T. ) ;
#52 = DIRECTION ( 'NONE',  ( 0.000000000000000000, -0.000000000000000000, -1.000000000000000000 ) ) ;
#53 = ORIENTED_EDGE ( 'NONE', *, *, #65, .T. ) ;
#54 = CARTESIAN_POINT ( 'NONE',  ( 2.143131898507868297E-16, -4.000000000000000000, -1.750000000000000000 ) ) ;
#55 = VERTEX_POINT ( 'NONE', #170 ) ;
#56 = DIRECTION ( 'NONE',  ( -1.000000000000000000, 0.000000000000000000, 0.000000000000000000 ) ) ;
#57 = AXIS2_PLACEMENT_3D ( 'NONE', #63, #76, #159 ) ;
#58 =( NAMED_UNIT ( * ) PLANE_ANGLE_UNIT ( ) SI_UNIT ( $, .RADIAN. ) );
#59 = DIRECTION ( 'NONE',  ( 0.000000000000000000, 0.000000000000000000, 1.000000000000000000 ) ) ;
#60 = CARTESIAN_POINT ( 'NONE',  ( 0.000000000000000000, -4.000000000000000000, 0.000000000000000000 ) ) ;
#61 = ADVANCED_FACE ( 'NONE', ( #42 ), #201, .T. ) ;
#62 = AXIS2_PLACEMENT_3D ( 'NONE', #83, #193, #81 ) ;
#63 = CARTESIAN_POINT ( 'NONE',  ( 0.000000000000000000, -4.000000000000000000, 0.000000000000000000 ) ) ;
#64 = ORIENTED_EDGE ( 'NONE', *, *, #200, .T. ) ;
#65 = EDGE_CURVE ( 'NONE', #148, #55, #90, .T. ) ;
#66 = CIRCLE ( 'NONE', #40, 1.750000000000000000 ) ;
#67 = VERTEX_POINT ( 'NONE', #198 ) ;
#68 = LINE ( 'NONE', #54, #171 ) ;
#69 = EDGE_CURVE ( 'NONE', #196, #182, #150, .T. ) ;
#70 = CARTESIAN_POINT ( 'NONE',  ( 0.000000000000000000, 0.000000000000000000, 0.000000000000000000 ) ) ;
#71 = AXIS2_PLACEMENT_3D ( 'NONE', #41, #74, #56 ) ;
#72 = DIRECTION ( 'NONE',  ( -0.000000000000000000, 1.000000000000000000, -0.000000000000000000 ) ) ;
#73 = DIRECTION ( 'NONE',  ( 0.000000000000000000, 0.000000000000000000, 1.000000000000000000 ) ) ;
#74 = DIRECTION ( 'NONE',  ( -0.000000000000000000, -0.000000000000000000, -1.000000000000000000 ) ) ;
#75 = PRODUCT_DEFINITION ( 'General', '', #22, #180 ) ;
#76 = DIRECTION ( 'NONE',  ( -0.000000000000000000, 1.000000000000000000, -0.000000000000000000 ) ) ;
#77 = AXIS2_PLACEMENT_3D ( 'NONE', #141, #39, #133 ) ;
#78 = CARTESIAN_POINT ( 'NONE',  ( 0.000000000000000000, 0.000000000000000000, 0.000000000000000000 ) ) ;
#79 =( NAMED_UNIT ( * ) SI_UNIT ( $, .STERADIAN. ) SOLID_ANGLE_UNIT ( ) );
#80 = VERTEX_POINT ( 'NONE', #143 ) ;
#81 = DIRECTION ( 'NONE',  ( 0.000000000000000000, 0.000000000000000000, 1.000000000000000000 ) ) ;
#82 = ORIENTED_EDGE ( 'NONE', *, *, #24, .T. ) ;
#83 = CARTESIAN_POINT ( 'NONE',  ( 0.000000000000000000, 4.000000000000000000, 0.000000000000000000 ) ) ;
#84 = EDGE_CURVE ( 'NONE', #11, #121, #68, .T. ) ;
#85 = ORIENTED_EDGE ( 'NONE', *, *, #123, .F. ) ;
#86 = ADVANCED_BREP_SHAPE_REPRESENTATION ( 'Front-Suspension-Arm-Ball', ( #191, #134 ), #30 ) ;
#87 = DIRECTION ( 'NONE',  ( 0.000000000000000000, 0.000000000000000000, 1.000000000000000000 ) ) ;
#88 = APPLICATION_PROTOCOL_DEFINITION ( 'draft international standard', 'automotive_design', 1998, #165 ) ;
#89 = EDGE_LOOP ( 'NONE', ( #64, #122 ) ) ;
#90 = LINE ( 'NONE', #93, #91 ) ;
#91 = VECTOR ( 'NONE', #151, 1000.000000000000000 ) ;
#92 = ADVANCED_FACE ( 'NONE', ( #127, #167 ), #183, .T. ) ;
#93 = CARTESIAN_POINT ( 'NONE',  ( 0.000000000000000000, -4.000000000000000000, 1.750000000000000000 ) ) ;
#94 = DIRECTION ( 'NONE',  ( 0.000000000000000000, -1.000000000000000000, 0.000000000000000000 ) ) ;
#95 = AXIS2_PLACEMENT_3D ( 'NONE', #3, #35, #147 ) ;
#96 =( NAMED_UNIT ( * ) PLANE_ANGLE_UNIT ( ) SI_UNIT ( $, .RADIAN. ) );
#97 = CIRCLE ( 'NONE', #140, 3.200000000000000178 ) ;
#98 = ADVANCED_FACE ( 'NONE', ( #153, #197 ), #29, .T. ) ;
#99 = PRODUCT_CONTEXT ( 'NONE', #46, 'mechanical' ) ;
#100 =( LENGTH_UNIT ( ) NAMED_UNIT ( * ) SI_UNIT ( .MILLI., .METRE. ) );
#101 = EDGE_LOOP ( 'NONE', ( #43, #155 ) ) ;
#102 = ORIENTED_EDGE ( 'NONE', *, *, #106, .F. ) ;
#103 = PRESENTATION_LAYER_ASSIGNMENT (  '', '', ( #6 ) ) ;
#104 = EDGE_LOOP ( 'NONE', ( #139, #195, #37, #26 ) ) ;
#105 = CARTESIAN_POINT ( 'NONE',  ( 0.000000000000000000, -4.000000000000000000, 0.000000000000000000 ) ) ;
#106 = EDGE_CURVE ( 'NONE', #196, #80, #97, .T. ) ;
#107 = CARTESIAN_POINT ( 'NONE',  ( 0.000000000000000000, -4.000000000000000000, 0.000000000000000000 ) ) ;
#108 = DIRECTION ( 'NONE',  ( 0.000000000000000000, 0.000000000000000000, 1.000000000000000000 ) ) ;
#109 = EDGE_CURVE ( 'NONE', #80, #67, #154, .T. ) ;
#110 = DIRECTION ( 'NONE',  ( 0.000000000000000000, 1.000000000000000000, 0.000000000000000000 ) ) ;
#111 = CARTESIAN_POINT ( 'NONE',  ( 0.000000000000000000, 4.000000000000000000, 0.000000000000000000 ) ) ;
#112 = DIRECTION ( 'NONE',  ( -0.000000000000000000, 1.000000000000000000, -0.000000000000000000 ) ) ;
#113 = ADVANCED_FACE ( 'NONE', ( #190 ), #146, .F. ) ;
#114 = AXIS2_PLACEMENT_3D ( 'NONE', #105, #138, #87 ) ;
#115 = PRODUCT ( 'Front-Suspension-Arm-Ball', 'Front-Suspension-Arm-Ball', '', ( #99 ) ) ;
#116 = ORIENTED_EDGE ( 'NONE', *, *, #123, .T. ) ;
#117 = ORIENTED_EDGE ( 'NONE', *, *, #38, .T. ) ;
#118 = FILL_AREA_STYLE ('',( #175 ) ) ;
#119 = ORIENTED_EDGE ( 'NONE', *, *, #84, .T. ) ;
#120 = ADVANCED_FACE ( 'NONE', ( #149 ), #20, .T. ) ;
#121 = VERTEX_POINT ( 'NONE', #18 ) ;
#122 = ORIENTED_EDGE ( 'NONE', *, *, #12, .T. ) ;
#123 = EDGE_CURVE ( 'NONE', #11, #148, #19, .T. ) ;
#124 = DIRECTION ( 'NONE',  ( 0.000000000000000000, 0.000000000000000000, 1.000000000000000000 ) ) ;
#125 = ORIENTED_EDGE ( 'NONE', *, *, #38, .F. ) ;
#126 =( GEOMETRIC_REPRESENTATION_CONTEXT ( 3 ) GLOBAL_UNCERTAINTY_ASSIGNED_CONTEXT ( ( #5 ) ) GLOBAL_UNIT_ASSIGNED_CONTEXT ( ( #131, #96, #79 ) ) REPRESENTATION_CONTEXT ( 'NONE', 'WORKASPACE' ) );
#127 = FACE_BOUND ( 'NONE', #101, .T. ) ;
#128 = CARTESIAN_POINT ( 'NONE',  ( 2.143131898507868297E-16, -4.000000000000000000, -1.750000000000000000 ) ) ;
#129 = DIRECTION ( 'NONE',  ( 0.000000000000000000, 1.000000000000000000, 0.000000000000000000 ) ) ;
#130 = AXIS2_PLACEMENT_3D ( 'NONE', #142, #129, #199 ) ;
#131 =( LENGTH_UNIT ( ) NAMED_UNIT ( * ) SI_UNIT ( .MILLI., .METRE. ) );
#132 = DIRECTION ( 'NONE',  ( 1.000000000000000000, 0.000000000000000000, 0.000000000000000000 ) ) ;
#133 = DIRECTION ( 'NONE',  ( 1.000000000000000000, 0.000000000000000000, 1.224646799147353207E-16 ) ) ;
#134 = AXIS2_PLACEMENT_3D ( 'NONE', #78, #59, #132 ) ;
#135 = CARTESIAN_POINT ( 'NONE',  ( 0.000000000000000000, -4.000000000000000000, 1.750000000000000000 ) ) ;
#136 = CIRCLE ( 'NONE', #188, 3.200000000000001066 ) ;
#137 = SHAPE_DEFINITION_REPRESENTATION ( #31, #86 ) ;
#138 = DIRECTION ( 'NONE',  ( -0.000000000000000000, 1.000000000000000000, -0.000000000000000000 ) ) ;
#139 = ORIENTED_EDGE ( 'NONE', *, *, #106, .T. ) ;
#140 = AXIS2_PLACEMENT_3D ( 'NONE', #15, #72, #124 ) ;
#141 = CARTESIAN_POINT ( 'NONE',  ( 0.000000000000000000, 0.000000000000000000, 0.000000000000000000 ) ) ;
#142 = CARTESIAN_POINT ( 'NONE',  ( 0.000000000000000000, 4.000000000000000000, 0.000000000000000000 ) ) ;
#143 = CARTESIAN_POINT ( 'NONE',  ( 3.200000000000000178, -4.000000000000000000, 3.918869757271530953E-16 ) ) ;
#144 = MECHANICAL_DESIGN_GEOMETRIC_PRESENTATION_REPRESENTATION (  '', ( #6 ), #126 ) ;
#145 = ADVANCED_FACE ( 'NONE', ( #173 ), #178, .F. ) ;
#146 = CYLINDRICAL_SURFACE ( 'NONE', #168, 1.750000000000000000 ) ;
#147 = DIRECTION ( 'NONE',  ( -1.000000000000000000, 0.000000000000000000, 0.000000000000000000 ) ) ;
#148 = VERTEX_POINT ( 'NONE', #135 ) ;
#149 = FACE_OUTER_BOUND ( 'NONE', #50, .T. ) ;
#150 = CIRCLE ( 'NONE', #71, 5.122499389946279180 ) ;
#151 = DIRECTION ( 'NONE',  ( -0.000000000000000000, 1.000000000000000000, -0.000000000000000000 ) ) ;
#152 = ORIENTED_EDGE ( 'NONE', *, *, #65, .F. ) ;
#153 = FACE_BOUND ( 'NONE', #4, .T. ) ;
#154 = CIRCLE ( 'NONE', #77, 5.122499389946279180 ) ;
#155 = ORIENTED_EDGE ( 'NONE', *, *, #32, .F. ) ;
#156 = DIRECTION ( 'NONE',  ( -0.000000000000000000, 1.000000000000000000, -0.000000000000000000 ) ) ;
#157 = UNCERTAINTY_MEASURE_WITH_UNIT (LENGTH_MEASURE( 1.000000000000000082E-05 ), #100, 'distance_accuracy_value', 'NONE');
#158 = AXIS2_PLACEMENT_3D ( 'NONE', #17, #110, #16 ) ;
#159 = DIRECTION ( 'NONE',  ( 0.000000000000000000, 0.000000000000000000, 1.000000000000000000 ) ) ;
#160 = AXIS2_PLACEMENT_3D ( 'NONE', #70, #108, #184 ) ;
#161 = DIRECTION ( 'NONE',  ( 0.000000000000000000, 1.000000000000000000, 0.000000000000000000 ) ) ;
#162 = SURFACE_STYLE_USAGE ( .BOTH. , #48 ) ;
#163 = DIRECTION ( 'NONE',  ( 0.000000000000000000, 0.000000000000000000, 1.000000000000000000 ) ) ;
#164 = CIRCLE ( 'NONE', #62, 3.200000000000001066 ) ;
#165 = APPLICATION_CONTEXT ( 'automotive_design' ) ;
#166 = EDGE_LOOP ( 'NONE', ( #102, #179 ) ) ;
#167 = FACE_OUTER_BOUND ( 'NONE', #89, .T. ) ;
#168 = AXIS2_PLACEMENT_3D ( 'NONE', #60, #112, #33 ) ;
#169 = DIRECTION ( 'NONE',  ( 0.000000000000000000, 0.000000000000000000, 1.000000000000000000 ) ) ;
#170 = CARTESIAN_POINT ( 'NONE',  ( 0.000000000000000000, 4.000000000000000000, 1.750000000000000000 ) ) ;
#171 = VECTOR ( 'NONE', #187, 1000.000000000000000 ) ;
#172 = DIRECTION ( 'NONE',  ( 0.000000000000000000, 0.000000000000000000, 1.000000000000000000 ) ) ;
#173 = FACE_OUTER_BOUND ( 'NONE', #27, .T. ) ;
#174 = AXIS2_PLACEMENT_3D ( 'NONE', #107, #94, #52 ) ;
#175 = FILL_AREA_STYLE_COLOUR ( '', #34 ) ;
#176 = CIRCLE ( 'NONE', #114, 3.200000000000000178 ) ;
#177 = ORIENTED_EDGE ( 'NONE', *, *, #84, .F. ) ;
#178 = CYLINDRICAL_SURFACE ( 'NONE', #57, 1.750000000000000000 ) ;
#179 = ORIENTED_EDGE ( 'NONE', *, *, #24, .F. ) ;
#180 = PRODUCT_DEFINITION_CONTEXT ( 'detailed design', #165, 'design' ) ;
#181 = ORIENTED_EDGE ( 'NONE', *, *, #32, .T. ) ;
#182 = VERTEX_POINT ( 'NONE', #194 ) ;
#183 = PLANE ( 'NONE',  #44 ) ;
#184 = DIRECTION ( 'NONE',  ( -1.000000000000000000, 0.000000000000000000, 0.000000000000000000 ) ) ;
#185 = DIRECTION ( 'NONE',  ( -0.000000000000000000, 1.000000000000000000, 0.000000000000000000 ) ) ;
#186 = CARTESIAN_POINT ( 'NONE',  ( 0.000000000000000000, 4.000000000000000000, 0.000000000000000000 ) ) ;
#187 = DIRECTION ( 'NONE',  ( -0.000000000000000000, 1.000000000000000000, -0.000000000000000000 ) ) ;
#188 = AXIS2_PLACEMENT_3D ( 'NONE', #186, #156, #172 ) ;
#189 =( NAMED_UNIT ( * ) SI_UNIT ( $, .STERADIAN. ) SOLID_ANGLE_UNIT ( ) );
#190 = FACE_OUTER_BOUND ( 'NONE', #13, .T. ) ;
#191 = MANIFOLD_SOLID_BREP ( 'Cut-Extrude1', #10 ) ;
#192 = AXIS2_PLACEMENT_3D ( 'NONE', #7, #161, #163 ) ;
#193 = DIRECTION ( 'NONE',  ( -0.000000000000000000, 1.000000000000000000, -0.000000000000000000 ) ) ;
#194 = CARTESIAN_POINT ( 'NONE',  ( -3.200000000000001510, 4.000000000000000000, 0.000000000000000000 ) ) ;
#195 = ORIENTED_EDGE ( 'NONE', *, *, #109, .T. ) ;
#196 = VERTEX_POINT ( 'NONE', #2 ) ;
#197 = FACE_OUTER_BOUND ( 'NONE', #166, .T. ) ;
#198 = CARTESIAN_POINT ( 'NONE',  ( 3.200000000000001510, 4.000000000000000000, 3.918869757271531939E-16 ) ) ;
#199 = DIRECTION ( 'NONE',  ( 0.000000000000000000, 0.000000000000000000, 1.000000000000000000 ) ) ;
#200 = EDGE_CURVE ( 'NONE', #182, #67, #164, .T. ) ;
#201 = SPHERICAL_SURFACE ( 'NONE', #160, 5.122499389946279180 ) ;
ENDSEC;
END-ISO-10303-21;
