ISO-10303-21;
HEADER;
FILE_DESCRIPTION (( 'STEP AP214' ),
    '1' );
FILE_NAME ('Motor-Support.STEP',
    '2026-05-07T19:05:54',
    ( '' ),
    ( '' ),
    'SwSTEP 2.0',
    'SolidWorks 2026',
    '' );
FILE_SCHEMA (( 'AUTOMOTIVE_DESIGN' ));
ENDSEC;

DATA;
#1 = CARTESIAN_POINT ( 'NONE',  ( 7.999999999999998224, 10.00000000000000000, 16.40312470232424502 ) ) ;
#2 = ADVANCED_FACE ( 'NONE', ( #108, #283 ), #114, .T. ) ;
#3 = CARTESIAN_POINT ( 'NONE',  ( 9.999999999999998224, 10.00000000000000000, 25.00000000000000000 ) ) ;
#4 = AXIS2_PLACEMENT_3D ( 'NONE', #3, #556, #260 ) ;
#5 = DIRECTION ( 'NONE',  ( 0.000000000000000000, 0.000000000000000000, 1.000000000000000000 ) ) ;
#6 = DIRECTION ( 'NONE',  ( -0.000000000000000000, -1.000000000000000000, -0.000000000000000000 ) ) ;
#7 = DIRECTION ( 'NONE',  ( 1.000000000000000000, 0.000000000000000000, 0.000000000000000000 ) ) ;
#8 = CARTESIAN_POINT ( 'NONE',  ( -10.00000000000000178, 10.00000000000000000, 25.00000000000000000 ) ) ;
#9 = EDGE_CURVE ( 'NONE', #74, #26, #243, .T. ) ;
#10 = LINE ( 'NONE', #97, #348 ) ;
#11 = VECTOR ( 'NONE', #62, 1000.000000000000000 ) ;
#12 = DIRECTION ( 'NONE',  ( 0.000000000000000000, 1.000000000000000000, -0.000000000000000000 ) ) ;
#13 =( LENGTH_UNIT ( ) NAMED_UNIT ( * ) SI_UNIT ( .MILLI., .METRE. ) );
#14 = CARTESIAN_POINT ( 'NONE',  ( -9.321395110033812159, 11.88664336950465561, 15.69064816461556156 ) ) ;
#15 = EDGE_CURVE ( 'NONE', #203, #470, #199, .T. ) ;
#16 = DIRECTION ( 'NONE',  ( 0.000000000000000000, 0.000000000000000000, 1.000000000000000000 ) ) ;
#17 = ORIENTED_EDGE ( 'NONE', *, *, #68, .T. ) ;
#18 = DIRECTION ( 'NONE',  ( -0.000000000000000000, -0.000000000000000000, 1.000000000000000000 ) ) ;
#19 = CIRCLE ( 'NONE', #474, 18.25000000000000000 ) ;
#20 = VERTEX_POINT ( 'NONE', #155 ) ;
#21 = CARTESIAN_POINT ( 'NONE',  ( 8.371101322621615992, 11.20234921776733117, 16.21769493899419601 ) ) ;
#22 = ORIENTED_EDGE ( 'NONE', *, *, #36, .T. ) ;
#23 = EDGE_CURVE ( 'NONE', #170, #257, #48, .T. ) ;
#24 = DIRECTION ( 'NONE',  ( 1.387778780781445922E-16, 0.000000000000000000, -1.000000000000000000 ) ) ;
#25 = DIRECTION ( 'NONE',  ( 0.000000000000000000, 1.000000000000000000, -0.000000000000000000 ) ) ;
#26 = VERTEX_POINT ( 'NONE', #39 ) ;
#27 = EDGE_LOOP ( 'NONE', ( #339, #455 ) ) ;
#28 = CARTESIAN_POINT ( 'NONE',  ( 21.49999999999999645, 20.00000000000000000, 25.00000000000000000 ) ) ;
#29 = AXIS2_PLACEMENT_3D ( 'NONE', #220, #137, #229 ) ;
#30 = AXIS2_PLACEMENT_3D ( 'NONE', #91, #419, #503 ) ;
#31 = ORIENTED_EDGE ( 'NONE', *, *, #195, .F. ) ;
#32 = ADVANCED_FACE ( 'NONE', ( #218, #352, #219 ), #430, .F. ) ;
#33 = VERTEX_POINT ( 'NONE', #441 ) ;
#34 = DIRECTION ( 'NONE',  ( 0.000000000000000000, 0.000000000000000000, -1.000000000000000000 ) ) ;
#35 = CARTESIAN_POINT ( 'NONE',  ( 7.999999999999998224, 10.00000000000000000, 16.40312470232424502 ) ) ;
#36 = EDGE_CURVE ( 'NONE', #33, #26, #212, .T. ) ;
#37 = EDGE_LOOP ( 'NONE', ( #65, #548, #22, #210 ) ) ;
#38 = DIRECTION ( 'NONE',  ( -0.000000000000000000, -1.000000000000000000, -0.000000000000000000 ) ) ;
#39 = CARTESIAN_POINT ( 'NONE',  ( 21.50000000000000000, 0.000000000000000000, 2.632986564067824014E-15 ) ) ;
#40 = ORIENTED_EDGE ( 'NONE', *, *, #177, .F. ) ;
#41 = DIRECTION ( 'NONE',  ( 1.000000000000000000, 0.000000000000000000, 0.000000000000000000 ) ) ;
#42 = AXIS2_PLACEMENT_3D ( 'NONE', #402, #447, #7 ) ;
#43 = LINE ( 'NONE', #353, #451 ) ;
#44 = AXIS2_PLACEMENT_3D ( 'NONE', #8, #182, #440 ) ;
#45 = AXIS2_PLACEMENT_3D ( 'NONE', #71, #25, #200 ) ;
#46 = DIRECTION ( 'NONE',  ( 0.000000000000000000, 0.000000000000000000, 1.000000000000000000 ) ) ;
#47 = EDGE_CURVE ( 'NONE', #342, #335, #217, .T. ) ;
#48 = LINE ( 'NONE', #82, #193 ) ;
#49 = SURFACE_SIDE_STYLE ('',( #529 ) ) ;
#50 = CARTESIAN_POINT ( 'NONE',  ( 9.321395110033808606, 8.113356630495346167, 15.69064816461556511 ) ) ;
#51 = LINE ( 'NONE', #138, #145 ) ;
#52 = CIRCLE ( 'NONE', #444, 21.50000000000000000 ) ;
#53 = DIRECTION ( 'NONE',  ( 1.000000000000000000, 0.000000000000000000, 0.000000000000000000 ) ) ;
#54 = DIRECTION ( 'NONE',  ( 1.000000000000000000, 0.000000000000000000, 0.000000000000000000 ) ) ;
#55 = CARTESIAN_POINT ( 'NONE',  ( 0.000000000000000000, 0.000000000000000000, 0.000000000000000000 ) ) ;
#56 = DIRECTION ( 'NONE',  ( 1.000000000000000000, 0.000000000000000000, 0.000000000000000000 ) ) ;
#57 = PLANE ( 'NONE',  #103 ) ;
#58 = DIRECTION ( 'NONE',  ( -0.000000000000000000, -0.000000000000000000, 1.000000000000000000 ) ) ;
#59 = CARTESIAN_POINT ( 'NONE',  ( 8.000000000000000000, 10.16042333168740086, 16.40312470232424857 ) ) ;
#60 = CIRCLE ( 'NONE', #44, 2.000000000000000000 ) ;
#61 = DIRECTION ( 'NONE',  ( -0.000000000000000000, -1.000000000000000000, -0.000000000000000000 ) ) ;
#62 = DIRECTION ( 'NONE',  ( 1.387778780781445922E-16, 0.000000000000000000, 1.000000000000000000 ) ) ;
#63 = EDGE_LOOP ( 'NONE', ( #305, #366, #371, #279, #495 ) ) ;
#64 = CARTESIAN_POINT ( 'NONE',  ( -10.39531144314589284, 8.039456997942174610, 15.00000000000000178 ) ) ;
#65 = ORIENTED_EDGE ( 'NONE', *, *, #518, .F. ) ;
#66 = VERTEX_POINT ( 'NONE', #520 ) ;
#67 = DIRECTION ( 'NONE',  ( 0.000000000000000000, 1.000000000000000000, -0.000000000000000000 ) ) ;
#68 = EDGE_CURVE ( 'NONE', #351, #33, #388, .T. ) ;
#69 = PRODUCT_DEFINITION_SHAPE ( 'NONE', 'NONE',  #201 ) ;
#70 = DIRECTION ( 'NONE',  ( 0.000000000000000000, 0.000000000000000000, 1.000000000000000000 ) ) ;
#71 = CARTESIAN_POINT ( 'NONE',  ( 0.000000000000000000, 20.00000000000000000, 0.000000000000000000 ) ) ;
#72 = VERTEX_POINT ( 'NONE', #1 ) ;
#73 = DIRECTION ( 'NONE',  ( 1.000000000000000000, 0.000000000000000000, 0.000000000000000000 ) ) ;
#74 = VERTEX_POINT ( 'NONE', #311 ) ;
#75 = APPLICATION_CONTEXT ( 'automotive_design' ) ;
#76 = ORIENTED_EDGE ( 'NONE', *, *, #47, .F. ) ;
#77 = ORIENTED_EDGE ( 'NONE', *, *, #176, .F. ) ;
#78 = CYLINDRICAL_SURFACE ( 'NONE', #113, 21.50000000000000000 ) ;
#79 = CIRCLE ( 'NONE', #397, 2.000000000000000000 ) ;
#80 = CARTESIAN_POINT ( 'NONE',  ( 8.097266264961973548, 9.363177837200261422, 16.35538561737478958 ) ) ;
#81 = ORIENTED_EDGE ( 'NONE', *, *, #151, .F. ) ;
#82 = CARTESIAN_POINT ( 'NONE',  ( -21.50000000000000000, 20.00000000000000000, 2.983724378680108597E-15 ) ) ;
#83 = EDGE_LOOP ( 'NONE', ( #510, #501 ) ) ;
#84 = DIRECTION ( 'NONE',  ( 1.387778780781445922E-16, 0.000000000000000000, 1.000000000000000000 ) ) ;
#85 = EDGE_CURVE ( 'NONE', #20, #170, #52, .T. ) ;
#86 = AXIS2_PLACEMENT_3D ( 'NONE', #341, #511, #118 ) ;
#87 = DIRECTION ( 'NONE',  ( -0.000000000000000000, -1.000000000000000000, -0.000000000000000000 ) ) ;
#88 = PRESENTATION_LAYER_ASSIGNMENT (  '', '', ( #531 ) ) ;
#89 = DIRECTION ( 'NONE',  ( 0.000000000000000000, 0.000000000000000000, 1.000000000000000000 ) ) ;
#90 = CARTESIAN_POINT ( 'NONE',  ( 10.13142247599022383, 7.986248102076542565, 15.18288053333288623 ) ) ;
#91 = CARTESIAN_POINT ( 'NONE',  ( 0.000000000000000000, 0.000000000000000000, 0.000000000000000000 ) ) ;
#92 = CARTESIAN_POINT ( 'NONE',  ( -8.000000000000001776, 10.00000000000000000, 16.40312470232424502 ) ) ;
#93 = EDGE_CURVE ( 'NONE', #389, #66, #483, .T. ) ;
#94 = CARTESIAN_POINT ( 'NONE',  ( -9.455590515461768319, 11.92948364588806243, 15.61024812476852830 ) ) ;
#95 = EDGE_CURVE ( 'NONE', #240, #555, #251, .T. ) ;
#96 = VECTOR ( 'NONE', #374, 1000.000000000000000 ) ;
#97 = CARTESIAN_POINT ( 'NONE',  ( 7.999999999999998224, 10.00000000000000000, 15.00000000000000178 ) ) ;
#98 = DIRECTION ( 'NONE',  ( 1.000000000000000000, 0.000000000000000000, -0.000000000000000000 ) ) ;
#99 = CARTESIAN_POINT ( 'NONE',  ( -12.00000000000000178, 10.00000000000000000, 15.00000000000000178 ) ) ;
#100 = DIRECTION ( 'NONE',  ( -0.000000000000000000, -1.000000000000000000, -0.000000000000000000 ) ) ;
#101 = EDGE_CURVE ( 'NONE', #206, #246, #43, .T. ) ;
#102 = CARTESIAN_POINT ( 'NONE',  ( 2.234980408443919215E-15, 20.00000000000000000, 18.25000000000000000 ) ) ;
#103 = AXIS2_PLACEMENT_3D ( 'NONE', #400, #128, #271 ) ;
#104 = CARTESIAN_POINT ( 'NONE',  ( 9.454348430959187866, 11.92911474402114180, 15.61099711717295513 ) ) ;
#105 = LINE ( 'NONE', #544, #417 ) ;
#106 =( LENGTH_UNIT ( ) NAMED_UNIT ( * ) SI_UNIT ( .MILLI., .METRE. ) );
#107 = ORIENTED_EDGE ( 'NONE', *, *, #289, .F. ) ;
#108 = FACE_OUTER_BOUND ( 'NONE', #468, .T. ) ;
#109 = CARTESIAN_POINT ( 'NONE',  ( -10.00000000000000178, 10.00000000000000000, 15.00000000000000178 ) ) ;
#110 = ORIENTED_EDGE ( 'NONE', *, *, #216, .F. ) ;
#111 = ADVANCED_FACE ( 'NONE', ( #356 ), #438, .T. ) ;
#112 = PLANE ( 'NONE',  #409 ) ;
#113 = AXIS2_PLACEMENT_3D ( 'NONE', #252, #38, #34 ) ;
#114 = PLANE ( 'NONE',  #328 ) ;
#115 = ORIENTED_EDGE ( 'NONE', *, *, #298, .F. ) ;
#116 = EDGE_LOOP ( 'NONE', ( #161, #150, #337 ) ) ;
#117 = ORIENTED_EDGE ( 'NONE', *, *, #518, .T. ) ;
#118 = DIRECTION ( 'NONE',  ( 1.000000000000000000, 0.000000000000000000, 0.000000000000000000 ) ) ;
#119 = CARTESIAN_POINT ( 'NONE',  ( 8.698249522380542942, 8.474372005030803123, 16.04436707746834045 ) ) ;
#120 = VERTEX_POINT ( 'NONE', #521 ) ;
#121 = CARTESIAN_POINT ( 'NONE',  ( -10.00000000000000178, 10.00000000000000000, 25.00000000000000000 ) ) ;
#122 = AXIS2_PLACEMENT_3D ( 'NONE', #255, #307, #481 ) ;
#123 = CARTESIAN_POINT ( 'NONE',  ( -10.39531144314589284, 11.96054300205782717, 15.00000000000000178 ) ) ;
#124 = VERTEX_POINT ( 'NONE', #123 ) ;
#125 = CYLINDRICAL_SURFACE ( 'NONE', #86, 2.000000000000000000 ) ;
#126 = CARTESIAN_POINT ( 'NONE',  ( 10.39531144314589284, 20.00000000000000000, 15.00000000000000178 ) ) ;
#127 = CARTESIAN_POINT ( 'NONE',  ( 21.50000000000000000, 20.00000000000000000, 2.983724378680108597E-15 ) ) ;
#128 = DIRECTION ( 'NONE',  ( 1.000000000000000000, 0.000000000000000000, -1.387778780781445922E-16 ) ) ;
#129 = AXIS2_PLACEMENT_3D ( 'NONE', #434, #248, #349 ) ;
#130 = LINE ( 'NONE', #126, #547 ) ;
#131 = PRODUCT_DEFINITION_CONTEXT ( 'detailed design', #439, 'design' ) ;
#132 = CARTESIAN_POINT ( 'NONE',  ( 0.000000000000000000, 20.00000000000000000, 0.000000000000000000 ) ) ;
#133 = CARTESIAN_POINT ( 'NONE',  ( -8.938081573908700506, 11.70130077921100842, 15.91200670714718690 ) ) ;
#134 = B_SPLINE_CURVE_WITH_KNOTS ( 'NONE', 3,
 ( #272, #485, #449, #94, #14, #453, #133, #487, #188, #493, #140, #179, #230, #405, #186, #92 ),
 .UNSPECIFIED., .F., .F.,
 ( 4, 2, 2, 2, 2, 2, 2, 4 ),
 ( 0.000000000000000000, 0.0009606742492216767274, 0.001441011373832517964, 0.001921348498443359309, 0.002401685623054200872, 0.002882022747665042000, 0.003362359872275883128, 0.003842696996886724690 ),
 .UNSPECIFIED. ) ;
#135 = EDGE_CURVE ( 'NONE', #433, #368, #130, .T. ) ;
#136 = CYLINDRICAL_SURFACE ( 'NONE', #557, 2.000000000000000000 ) ;
#137 = DIRECTION ( 'NONE',  ( 0.000000000000000000, 1.000000000000000000, -0.000000000000000000 ) ) ;
#138 = CARTESIAN_POINT ( 'NONE',  ( 0.000000000000000000, 20.00000000000000000, 25.00000000000000000 ) ) ;
#139 = AXIS2_PLACEMENT_3D ( 'NONE', #387, #46, #343 ) ;
#140 = CARTESIAN_POINT ( 'NONE',  ( -8.299646351386094523, 11.06476398058082822, 16.25377059250077494 ) ) ;
#141 = LINE ( 'NONE', #236, #452 ) ;
#142 = LINE ( 'NONE', #524, #310 ) ;
#143 = CARTESIAN_POINT ( 'NONE',  ( 9.999999999999998224, 10.00000000000000000, 15.00000000000000178 ) ) ;
#144 = LINE ( 'NONE', #294, #301 ) ;
#145 = VECTOR ( 'NONE', #534, 1000.000000000000000 ) ;
#146 = ORIENTED_EDGE ( 'NONE', *, *, #280, .T. ) ;
#147 = PRODUCT_DEFINITION_FORMATION_WITH_SPECIFIED_SOURCE ( 'Symmetric', '', #256, .NOT_KNOWN. ) ;
#148 = ORIENTED_EDGE ( 'NONE', *, *, #135, .T. ) ;
#149 =( NAMED_UNIT ( * ) SI_UNIT ( $, .STERADIAN. ) SOLID_ANGLE_UNIT ( ) );
#150 = ORIENTED_EDGE ( 'NONE', *, *, #244, .T. ) ;
#151 = EDGE_CURVE ( 'NONE', #433, #72, #263, .T. ) ;
#152 = EDGE_LOOP ( 'NONE', ( #550, #506, #386, #471 ) ) ;
#153 = EDGE_LOOP ( 'NONE', ( #239, #559, #291, #504, #513 ) ) ;
#154 = DIRECTION ( 'NONE',  ( -0.000000000000000000, -1.000000000000000000, -0.000000000000000000 ) ) ;
#155 = CARTESIAN_POINT ( 'NONE',  ( 0.000000000000000000, 20.00000000000000000, -21.50000000000000000 ) ) ;
#156 = AXIS2_PLACEMENT_3D ( 'NONE', #185, #443, #53 ) ;
#157 =( GEOMETRIC_REPRESENTATION_CONTEXT ( 3 ) GLOBAL_UNCERTAINTY_ASSIGNED_CONTEXT ( ( #403 ) ) GLOBAL_UNIT_ASSIGNED_CONTEXT ( ( #106, #164, #558 ) ) REPRESENTATION_CONTEXT ( 'NONE', 'WORKASPACE' ) );
#158 = ORIENTED_EDGE ( 'NONE', *, *, #15, .F. ) ;
#159 = EDGE_CURVE ( 'NONE', #555, #240, #79, .T. ) ;
#160 = FACE_OUTER_BOUND ( 'NONE', #192, .T. ) ;
#161 = ORIENTED_EDGE ( 'NONE', *, *, #392, .T. ) ;
#162 = EDGE_LOOP ( 'NONE', ( #429, #237, #499, #76, #336 ) ) ;
#163 = DIRECTION ( 'NONE',  ( -0.000000000000000000, -0.000000000000000000, 1.000000000000000000 ) ) ;
#164 =( NAMED_UNIT ( * ) PLANE_ANGLE_UNIT ( ) SI_UNIT ( $, .RADIAN. ) );
#165 = ORIENTED_EDGE ( 'NONE', *, *, #15, .T. ) ;
#166 = VECTOR ( 'NONE', #407, 1000.000000000000000 ) ;
#167 = AXIS2_PLACEMENT_3D ( 'NONE', #324, #500, #413 ) ;
#168 = CARTESIAN_POINT ( 'NONE',  ( 0.000000000000000000, 20.00000000000000000, 0.000000000000000000 ) ) ;
#169 = APPLICATION_PROTOCOL_DEFINITION ( 'draft international standard', 'automotive_design', 1998, #439 ) ;
#170 = VERTEX_POINT ( 'NONE', #325 ) ;
#171 = DIRECTION ( 'NONE',  ( 1.387778780781445922E-16, 0.000000000000000000, -1.000000000000000000 ) ) ;
#172 = CARTESIAN_POINT ( 'NONE',  ( 0.000000000000000000, 20.00000000000000000, -18.25000000000000000 ) ) ;
#173 = FILL_AREA_STYLE ('',( #406 ) ) ;
#174 = CLOSED_SHELL ( 'NONE', ( #334, #308, #375, #344, #480, #111, #399, #32, #292, #2, #410, #545, #359, #235, #484 ) ) ;
#175 = CARTESIAN_POINT ( 'NONE',  ( 21.50000000000000000, 20.00000000000000000, 2.632986564067824014E-15 ) ) ;
#176 = EDGE_CURVE ( 'NONE', #124, #206, #134, .T. ) ;
#177 = EDGE_CURVE ( 'NONE', #257, #351, #51, .T. ) ;
#178 = DIRECTION ( 'NONE',  ( 0.000000000000000000, 0.000000000000000000, 1.000000000000000000 ) ) ;
#179 = CARTESIAN_POINT ( 'NONE',  ( -8.153645863738999466, 10.78479377431834507, 16.32749972164910091 ) ) ;
#180 = FACE_BOUND ( 'NONE', #27, .T. ) ;
#181 = CARTESIAN_POINT ( 'NONE',  ( -8.000000000000001776, 10.00000000000000000, 25.00000000000000000 ) ) ;
#182 = DIRECTION ( 'NONE',  ( 0.000000000000000000, 0.000000000000000000, 1.000000000000000000 ) ) ;
#183 = DIRECTION ( 'NONE',  ( 0.000000000000000000, 0.000000000000000000, 1.000000000000000000 ) ) ;
#184 = EDGE_CURVE ( 'NONE', #66, #470, #19, .T. ) ;
#185 = CARTESIAN_POINT ( 'NONE',  ( 9.999999999999998224, 10.00000000000000000, 15.00000000000000178 ) ) ;
#186 = CARTESIAN_POINT ( 'NONE',  ( -8.000000000000003553, 10.16132059383897257, 16.40312470232425568 ) ) ;
#187 = CARTESIAN_POINT ( 'NONE',  ( -10.00000000000000178, 10.00000000000000000, 15.00000000000000178 ) ) ;
#188 = CARTESIAN_POINT ( 'NONE',  ( -8.587179377801568592, 11.42369127800541051, 16.10389402024066285 ) ) ;
#189 = CARTESIAN_POINT ( 'NONE',  ( 11.99999999999999822, 10.00000000000000000, 25.00000000000000000 ) ) ;
#190 = EDGE_CURVE ( 'NONE', #194, #120, #142, .T. ) ;
#191 = ORIENTED_EDGE ( 'NONE', *, *, #85, .T. ) ;
#192 = EDGE_LOOP ( 'NONE', ( #281, #198, #415, #509, #250 ) ) ;
#193 = VECTOR ( 'NONE', #84, 1000.000000000000000 ) ;
#194 = VERTEX_POINT ( 'NONE', #99 ) ;
#195 = EDGE_CURVE ( 'NONE', #257, #370, #266, .T. ) ;
#196 = EDGE_LOOP ( 'NONE', ( #538, #414 ) ) ;
#197 = CARTESIAN_POINT ( 'NONE',  ( 8.578328395238420612, 11.43715176063396832, 16.11049565270748829 ) ) ;
#198 = ORIENTED_EDGE ( 'NONE', *, *, #190, .T. ) ;
#199 = LINE ( 'NONE', #376, #367 ) ;
#200 = DIRECTION ( 'NONE',  ( 0.000000000000000000, 0.000000000000000000, 1.000000000000000000 ) ) ;
#201 = PRODUCT_DEFINITION ( 'General', '', #147, #131 ) ;
#202 = EDGE_CURVE ( 'NONE', #72, #240, #10, .T. ) ;
#203 = VERTEX_POINT ( 'NONE', #102 ) ;
#204 = AXIS2_PLACEMENT_3D ( 'NONE', #401, #6, #208 ) ;
#205 = DIRECTION ( 'NONE',  ( -0.000000000000000000, -1.000000000000000000, -0.000000000000000000 ) ) ;
#206 = VERTEX_POINT ( 'NONE', #275 ) ;
#207 = ORIENTED_EDGE ( 'NONE', *, *, #289, .T. ) ;
#208 = DIRECTION ( 'NONE',  ( 0.000000000000000000, 0.000000000000000000, -1.000000000000000000 ) ) ;
#209 = DIRECTION ( 'NONE',  ( 0.000000000000000000, 1.000000000000000000, -0.000000000000000000 ) ) ;
#210 = ORIENTED_EDGE ( 'NONE', *, *, #460, .T. ) ;
#211 = FACE_OUTER_BOUND ( 'NONE', #116, .T. ) ;
#212 = LINE ( 'NONE', #175, #488 ) ;
#213 = ORIENTED_EDGE ( 'NONE', *, *, #497, .T. ) ;
#214 = LINE ( 'NONE', #28, #215 ) ;
#215 = VECTOR ( 'NONE', #205, 1000.000000000000000 ) ;
#216 = EDGE_CURVE ( 'NONE', #206, #249, #245, .T. ) ;
#217 = CIRCLE ( 'NONE', #482, 21.50000000000000000 ) ;
#218 = FACE_BOUND ( 'NONE', #196, .T. ) ;
#219 = FACE_OUTER_BOUND ( 'NONE', #456, .T. ) ;
#220 = CARTESIAN_POINT ( 'NONE',  ( 0.000000000000000000, 20.00000000000000000, 0.000000000000000000 ) ) ;
#221 = CARTESIAN_POINT ( 'NONE',  ( 9.063113770048891737, 8.227382728136188206, 15.84123781193459379 ) ) ;
#222 = EDGE_CURVE ( 'NONE', #389, #203, #380, .T. ) ;
#223 = FACE_BOUND ( 'NONE', #295, .T. ) ;
#224 = VECTOR ( 'NONE', #61, 1000.000000000000000 ) ;
#225 = CARTESIAN_POINT ( 'NONE',  ( -9.061293504424842382, 8.228294484290730182, 15.84228504268277504 ) ) ;
#226 = PLANE ( 'NONE',  #338 ) ;
#227 = FACE_BOUND ( 'NONE', #247, .T. ) ;
#228 = CARTESIAN_POINT ( 'NONE',  ( -8.578328395238422388, 8.562848239366033454, 16.11049565270748829 ) ) ;
#229 = DIRECTION ( 'NONE',  ( 0.000000000000000000, 0.000000000000000000, 1.000000000000000000 ) ) ;
#230 = CARTESIAN_POINT ( 'NONE',  ( -8.097266264961975324, 10.63682216279973858, 16.35538561737478958 ) ) ;
#231 = CARTESIAN_POINT ( 'NONE',  ( 7.999999999999998224, 10.00000000000000000, 25.00000000000000000 ) ) ;
#232 = VECTOR ( 'NONE', #87, 1000.000000000000000 ) ;
#233 = CARTESIAN_POINT ( 'NONE',  ( 9.861418580667212552, 12.01436652866392230, 15.35957891878298653 ) ) ;
#234 = CARTESIAN_POINT ( 'NONE',  ( -8.933890069221694930, 8.301456962800818573, 15.91434668119236839 ) ) ;
#235 = ADVANCED_FACE ( 'NONE', ( #525 ), #136, .F. ) ;
#236 = CARTESIAN_POINT ( 'NONE',  ( 0.000000000000000000, 20.00000000000000000, -21.50000000000000000 ) ) ;
#237 = ORIENTED_EDGE ( 'NONE', *, *, #267, .F. ) ;
#238 = B_SPLINE_CURVE_WITH_KNOTS ( 'NONE', 3,
 ( #423, #59, #539, #242, #465, #21, #197, #274, #494, #372, #104, #233, #542, #491 ),
 .UNSPECIFIED., .F., .F.,
 ( 4, 2, 2, 2, 2, 2, 4 ),
 ( 0.003842696996886729027, 0.004320362495317348235, 0.004798027993747968310, 0.005753358990609209328, 0.006231024489039832873, 0.006708689987470456417, 0.007664020984331708711 ),
 .UNSPECIFIED. ) ;
#239 = ORIENTED_EDGE ( 'NONE', *, *, #151, .T. ) ;
#240 = VERTEX_POINT ( 'NONE', #231 ) ;
#241 = ORIENTED_EDGE ( 'NONE', *, *, #184, .F. ) ;
#242 = CARTESIAN_POINT ( 'NONE',  ( 8.096251672041885783, 10.63340690340833916, 16.35588637353085772 ) ) ;
#243 = LINE ( 'NONE', #422, #496 ) ;
#244 = EDGE_CURVE ( 'NONE', #543, #368, #318, .T. ) ;
#245 = B_SPLINE_CURVE_WITH_KNOTS ( 'NONE', 3,
 ( #527, #364, #360, #442, #489, #363, #228, #234, #225, #357, #532, #445, #490, #269 ),
 .UNSPECIFIED., .F., .F.,
 ( 4, 2, 2, 2, 2, 2, 4 ),
 ( 0.003842696996886724690, 0.004320362495317344766, 0.004798027993747965708, 0.005753358990609209328, 0.006231024489039832873, 0.006708689987470458152, 0.007664020984331703507 ),
 .UNSPECIFIED. ) ;
#246 = VERTEX_POINT ( 'NONE', #181 ) ;
#247 = EDGE_LOOP ( 'NONE', ( #81, #148, #286 ) ) ;
#248 = DIRECTION ( 'NONE',  ( 0.000000000000000000, 1.000000000000000000, -0.000000000000000000 ) ) ;
#249 = VERTEX_POINT ( 'NONE', #64 ) ;
#250 = ORIENTED_EDGE ( 'NONE', *, *, #216, .T. ) ;
#251 = CIRCLE ( 'NONE', #4, 2.000000000000000000 ) ;
#252 = CARTESIAN_POINT ( 'NONE',  ( 0.000000000000000000, 20.00000000000000000, 0.000000000000000000 ) ) ;
#253 = CARTESIAN_POINT ( 'NONE',  ( 8.019882495745571660, 9.675850647339981236, 16.39346956605450245 ) ) ;
#254 = ORIENTED_EDGE ( 'NONE', *, *, #159, .F. ) ;
#255 = CARTESIAN_POINT ( 'NONE',  ( 0.000000000000000000, 20.00000000000000000, 25.00000000000000000 ) ) ;
#256 = PRODUCT ( 'Motor-Support', 'Motor-Support', '', ( #383 ) ) ;
#257 = VERTEX_POINT ( 'NONE', #416 ) ;
#258 = CARTESIAN_POINT ( 'NONE',  ( 8.153645863738990585, 9.215206225681654928, 16.32749972164910801 ) ) ;
#259 = AXIS2_PLACEMENT_3D ( 'NONE', #330, #554, #73 ) ;
#260 = DIRECTION ( 'NONE',  ( 1.000000000000000000, 0.000000000000000000, 0.000000000000000000 ) ) ;
#261 = PRODUCT_RELATED_PRODUCT_CATEGORY ( 'part', '', ( #256 ) ) ;
#262 = CARTESIAN_POINT ( 'NONE',  ( 9.455590515461770096, 8.070516354111937574, 15.61024812476853185 ) ) ;
#263 = B_SPLINE_CURVE_WITH_KNOTS ( 'NONE', 3,
 ( #479, #90, #514, #262, #50, #221, #395, #119, #299, #473, #304, #258, #80, #253, #435, #35 ),
 .UNSPECIFIED., .F., .F.,
 ( 4, 2, 2, 2, 2, 2, 2, 4 ),
 ( 0.000000000000000000, 0.0009606742492216778116, 0.001441011373832519482, 0.001921348498443361478, 0.002401685623054203474, 0.002882022747665045036, 0.003362359872275887031, 0.003842696996886729027 ),
 .UNSPECIFIED. ) ;
#264 = DIRECTION ( 'NONE',  ( -0.000000000000000000, -0.000000000000000000, 1.000000000000000000 ) ) ;
#265 = AXIS2_PLACEMENT_3D ( 'NONE', #168, #350, #519 ) ;
#266 = LINE ( 'NONE', #319, #224 ) ;
#267 = EDGE_CURVE ( 'NONE', #370, #74, #144, .T. ) ;
#268 = DIRECTION ( 'NONE',  ( 0.000000000000000000, 0.000000000000000000, -1.000000000000000000 ) ) ;
#269 = CARTESIAN_POINT ( 'NONE',  ( -10.39531144314589284, 8.039456997942174610, 15.00000000000000178 ) ) ;
#270 = EDGE_CURVE ( 'NONE', #543, #555, #467, .T. ) ;
#271 = DIRECTION ( 'NONE',  ( -1.387778780781445922E-16, 0.000000000000000000, -1.000000000000000000 ) ) ;
#272 = CARTESIAN_POINT ( 'NONE',  ( -10.39531144314589284, 11.96054300205782717, 15.00000000000000178 ) ) ;
#273 = UNCERTAINTY_MEASURE_WITH_UNIT (LENGTH_MEASURE( 1.000000000000000082E-05 ), #13, 'distance_accuracy_value', 'NONE');
#274 = CARTESIAN_POINT ( 'NONE',  ( 8.933890069221687824, 11.69854303719918320, 15.91434668119236662 ) ) ;
#275 = CARTESIAN_POINT ( 'NONE',  ( -8.000000000000001776, 10.00000000000000000, 16.40312470232424502 ) ) ;
#276 = CIRCLE ( 'NONE', #29, 18.25000000000000000 ) ;
#277 = AXIS2_PLACEMENT_3D ( 'NONE', #143, #18, #326 ) ;
#278 = LINE ( 'NONE', #454, #11 ) ;
#279 = ORIENTED_EDGE ( 'NONE', *, *, #101, .T. ) ;
#280 = EDGE_CURVE ( 'NONE', #124, #249, #105, .T. ) ;
#281 = ORIENTED_EDGE ( 'NONE', *, *, #303, .F. ) ;
#282 = EDGE_LOOP ( 'NONE', ( #296, #213, #418, #502, #340 ) ) ;
#283 = FACE_BOUND ( 'NONE', #83, .T. ) ;
#284 = CARTESIAN_POINT ( 'NONE',  ( 2.234980408443919215E-15, 0.000000000000000000, 18.25000000000000000 ) ) ;
#285 = ORIENTED_EDGE ( 'NONE', *, *, #95, .F. ) ;
#286 = ORIENTED_EDGE ( 'NONE', *, *, #497, .F. ) ;
#287 = AXIS2_PLACEMENT_3D ( 'NONE', #187, #16, #457 ) ;
#288 = DIRECTION ( 'NONE',  ( 0.000000000000000000, 0.000000000000000000, 1.000000000000000000 ) ) ;
#289 = EDGE_CURVE ( 'NONE', #170, #335, #378, .T. ) ;
#290 = COLOUR_RGB ( '',0.7921568627450980005, 0.8196078431372548767, 0.9333333333333333481 ) ;
#291 = ORIENTED_EDGE ( 'NONE', *, *, #95, .T. ) ;
#292 = ADVANCED_FACE ( 'NONE', ( #322, #227 ), #492, .F. ) ;
#293 = CARTESIAN_POINT ( 'NONE',  ( 9.999999999999998224, 10.00000000000000000, 15.00000000000000178 ) ) ;
#294 = CARTESIAN_POINT ( 'NONE',  ( 0.000000000000000000, 0.000000000000000000, 25.00000000000000000 ) ) ;
#295 = EDGE_LOOP ( 'NONE', ( #77, #146, #110 ) ) ;
#296 = ORIENTED_EDGE ( 'NONE', *, *, #202, .F. ) ;
#297 = CARTESIAN_POINT ( 'NONE',  ( -21.50000000000000000, 0.000000000000000000, 2.632986564067824014E-15 ) ) ;
#298 = EDGE_CURVE ( 'NONE', #470, #66, #391, .T. ) ;
#299 = CARTESIAN_POINT ( 'NONE',  ( 8.587179377801565039, 8.576308721994589490, 16.10389402024066285 ) ) ;
#300 = EDGE_LOOP ( 'NONE', ( #377, #31, #463, #207 ) ) ;
#301 = VECTOR ( 'NONE', #537, 1000.000000000000000 ) ;
#302 = FACE_OUTER_BOUND ( 'NONE', #373, .T. ) ;
#303 = EDGE_CURVE ( 'NONE', #194, #249, #522, .T. ) ;
#304 = CARTESIAN_POINT ( 'NONE',  ( 8.299646351386090970, 8.935236019419168230, 16.25377059250077494 ) ) ;
#305 = ORIENTED_EDGE ( 'NONE', *, *, #190, .F. ) ;
#306 = CARTESIAN_POINT ( 'NONE',  ( 0.000000000000000000, 20.00000000000000000, 0.000000000000000000 ) ) ;
#307 = DIRECTION ( 'NONE',  ( 0.000000000000000000, 0.000000000000000000, -1.000000000000000000 ) ) ;
#308 = ADVANCED_FACE ( 'NONE', ( #469 ), #517, .F. ) ;
#309 = FACE_OUTER_BOUND ( 'NONE', #162, .T. ) ;
#310 = VECTOR ( 'NONE', #323, 1000.000000000000000 ) ;
#311 = CARTESIAN_POINT ( 'NONE',  ( 21.49999999999999645, 0.000000000000000000, 25.00000000000000000 ) ) ;
#312 = PRESENTATION_STYLE_ASSIGNMENT (( #354 ) ) ;
#313 = DIRECTION ( 'NONE',  ( 0.000000000000000000, 1.000000000000000000, -0.000000000000000000 ) ) ;
#314 = FACE_OUTER_BOUND ( 'NONE', #475, .T. ) ;
#315 = CARTESIAN_POINT ( 'NONE',  ( -21.50000000000000000, 20.00000000000000000, 2.632986564067824014E-15 ) ) ;
#316 = CARTESIAN_POINT ( 'NONE',  ( -10.00000000000000178, 10.00000000000000000, 15.00000000000000178 ) ) ;
#317 = PLANE ( 'NONE',  #427 ) ;
#318 = CIRCLE ( 'NONE', #42, 2.000000000000000000 ) ;
#319 = CARTESIAN_POINT ( 'NONE',  ( -21.49999999999999645, 20.00000000000000000, 25.00000000000000000 ) ) ;
#320 = EDGE_CURVE ( 'NONE', #351, #74, #214, .T. ) ;
#321 = CARTESIAN_POINT ( 'NONE',  ( 9.999999999999998224, 10.00000000000000000, 15.00000000000000178 ) ) ;
#322 = FACE_OUTER_BOUND ( 'NONE', #512, .T. ) ;
#323 = DIRECTION ( 'NONE',  ( -0.000000000000000000, -0.000000000000000000, 1.000000000000000000 ) ) ;
#324 = CARTESIAN_POINT ( 'NONE',  ( 21.50000000000000000, 20.00000000000000000, 2.983724378680108597E-15 ) ) ;
#325 = CARTESIAN_POINT ( 'NONE',  ( -21.50000000000000000, 20.00000000000000000, 2.632986564067824014E-15 ) ) ;
#326 = DIRECTION ( 'NONE',  ( 1.000000000000000000, 0.000000000000000000, 0.000000000000000000 ) ) ;
#327 = EDGE_CURVE ( 'NONE', #246, #120, #355, .T. ) ;
#328 = AXIS2_PLACEMENT_3D ( 'NONE', #459, #67, #70 ) ;
#329 = MECHANICAL_DESIGN_GEOMETRIC_PRESENTATION_REPRESENTATION (  '', ( #531 ), #362 ) ;
#330 = CARTESIAN_POINT ( 'NONE',  ( 0.000000000000000000, 0.000000000000000000, 0.000000000000000000 ) ) ;
#331 = ORIENTED_EDGE ( 'NONE', *, *, #85, .F. ) ;
#332 = ORIENTED_EDGE ( 'NONE', *, *, #280, .F. ) ;
#333 = FACE_OUTER_BOUND ( 'NONE', #152, .T. ) ;
#334 = ADVANCED_FACE ( 'NONE', ( #160 ), #125, .F. ) ;
#335 = VERTEX_POINT ( 'NONE', #297 ) ;
#336 = ORIENTED_EDGE ( 'NONE', *, *, #460, .F. ) ;
#337 = ORIENTED_EDGE ( 'NONE', *, *, #135, .F. ) ;
#338 = AXIS2_PLACEMENT_3D ( 'NONE', #321, #178, #98 ) ;
#339 = ORIENTED_EDGE ( 'NONE', *, *, #184, .T. ) ;
#340 = ORIENTED_EDGE ( 'NONE', *, *, #159, .T. ) ;
#341 = CARTESIAN_POINT ( 'NONE',  ( -10.00000000000000178, 10.00000000000000000, 15.00000000000000178 ) ) ;
#342 = VERTEX_POINT ( 'NONE', #472 ) ;
#343 = DIRECTION ( 'NONE',  ( 1.000000000000000000, 0.000000000000000000, 0.000000000000000000 ) ) ;
#344 = ADVANCED_FACE ( 'NONE', ( #302 ), #78, .T. ) ;
#345 = DIRECTION ( 'NONE',  ( 0.000000000000000000, 1.000000000000000000, 0.000000000000000000 ) ) ;
#346 = SHAPE_DEFINITION_REPRESENTATION ( #69, #390 ) ;
#347 = ORIENTED_EDGE ( 'NONE', *, *, #320, .F. ) ;
#348 = VECTOR ( 'NONE', #264, 1000.000000000000000 ) ;
#349 = DIRECTION ( 'NONE',  ( 0.000000000000000000, 0.000000000000000000, 1.000000000000000000 ) ) ;
#350 = DIRECTION ( 'NONE',  ( -0.000000000000000000, -1.000000000000000000, -0.000000000000000000 ) ) ;
#351 = VERTEX_POINT ( 'NONE', #384 ) ;
#352 = FACE_BOUND ( 'NONE', #382, .T. ) ;
#353 = CARTESIAN_POINT ( 'NONE',  ( -8.000000000000001776, 10.00000000000000000, 15.00000000000000178 ) ) ;
#354 = SURFACE_STYLE_USAGE ( .BOTH. , #49 ) ;
#355 = CIRCLE ( 'NONE', #528, 2.000000000000000000 ) ;
#356 = FACE_OUTER_BOUND ( 'NONE', #37, .T. ) ;
#357 = CARTESIAN_POINT ( 'NONE',  ( -9.320675363024934157, 8.113567293320976148, 15.69108173849215859 ) ) ;
#358 = CARTESIAN_POINT ( 'NONE',  ( -21.49999999999999645, 0.000000000000000000, 25.00000000000000000 ) ) ;
#359 = ADVANCED_FACE ( 'NONE', ( #211 ), #226, .T. ) ;
#360 = CARTESIAN_POINT ( 'NONE',  ( -8.019902711105480364, 9.676462169134413926, 16.39345816797957767 ) ) ;
#361 = CARTESIAN_POINT ( 'NONE',  ( 10.39531144314589284, 8.039456997942174610, 15.00000000000000178 ) ) ;
#362 =( GEOMETRIC_REPRESENTATION_CONTEXT ( 3 ) GLOBAL_UNCERTAINTY_ASSIGNED_CONTEXT ( ( #273 ) ) GLOBAL_UNIT_ASSIGNED_CONTEXT ( ( #13, #369, #149 ) ) REPRESENTATION_CONTEXT ( 'NONE', 'WORKASPACE' ) );
#363 = CARTESIAN_POINT ( 'NONE',  ( -8.371101322621615992, 8.797650782232668831, 16.21769493899419956 ) ) ;
#364 = CARTESIAN_POINT ( 'NONE',  ( -8.000000000000001776, 9.839576668312602692, 16.40312470232424502 ) ) ;
#365 = CYLINDRICAL_SURFACE ( 'NONE', #277, 2.000000000000000000 ) ;
#366 = ORIENTED_EDGE ( 'NONE', *, *, #507, .F. ) ;
#367 = VECTOR ( 'NONE', #546, 1000.000000000000000 ) ;
#368 = VERTEX_POINT ( 'NONE', #523 ) ;
#369 =( NAMED_UNIT ( * ) PLANE_ANGLE_UNIT ( ) SI_UNIT ( $, .RADIAN. ) );
#370 = VERTEX_POINT ( 'NONE', #358 ) ;
#371 = ORIENTED_EDGE ( 'NONE', *, *, #176, .T. ) ;
#372 = CARTESIAN_POINT ( 'NONE',  ( 9.320675363024932381, 11.88643270667902563, 15.69108173849216215 ) ) ;
#373 = EDGE_LOOP ( 'NONE', ( #331, #117, #516, #107 ) ) ;
#374 = DIRECTION ( 'NONE',  ( -0.000000000000000000, -0.000000000000000000, 1.000000000000000000 ) ) ;
#375 = ADVANCED_FACE ( 'NONE', ( #223, #314 ), #448, .F. ) ;
#376 = CARTESIAN_POINT ( 'NONE',  ( 2.234980408443919215E-15, 20.00000000000000000, 18.25000000000000000 ) ) ;
#377 = ORIENTED_EDGE ( 'NONE', *, *, #552, .T. ) ;
#378 = LINE ( 'NONE', #315, #166 ) ;
#379 = ORIENTED_EDGE ( 'NONE', *, *, #195, .T. ) ;
#380 = CIRCLE ( 'NONE', #536, 18.25000000000000000 ) ;
#381 = DIRECTION ( 'NONE',  ( 0.000000000000000000, 0.000000000000000000, 1.000000000000000000 ) ) ;
#382 = EDGE_LOOP ( 'NONE', ( #254, #285 ) ) ;
#383 = PRODUCT_CONTEXT ( 'NONE', #75, 'mechanical' ) ;
#384 = CARTESIAN_POINT ( 'NONE',  ( 21.49999999999999645, 20.00000000000000000, 25.00000000000000000 ) ) ;
#385 = DIRECTION ( 'NONE',  ( 0.000000000000000000, 0.000000000000000000, 1.000000000000000000 ) ) ;
#386 = ORIENTED_EDGE ( 'NONE', *, *, #68, .F. ) ;
#387 = CARTESIAN_POINT ( 'NONE',  ( -10.00000000000000178, 10.00000000000000000, 15.00000000000000178 ) ) ;
#388 = LINE ( 'NONE', #127, #515 ) ;
#389 = VERTEX_POINT ( 'NONE', #526 ) ;
#390 = ADVANCED_BREP_SHAPE_REPRESENTATION ( 'Motor-Support', ( #436, #259 ), #157 ) ;
#391 = CIRCLE ( 'NONE', #129, 18.25000000000000000 ) ;
#392 = EDGE_CURVE ( 'NONE', #433, #543, #437, .T. ) ;
#393 = DIRECTION ( 'NONE',  ( -0.000000000000000000, -1.000000000000000000, -0.000000000000000000 ) ) ;
#394 = DIRECTION ( 'NONE',  ( 0.000000000000000000, 1.000000000000000000, -0.000000000000000000 ) ) ;
#395 = CARTESIAN_POINT ( 'NONE',  ( 8.938081573908698729, 8.298699220788995135, 15.91200670714719401 ) ) ;
#396 = EDGE_CURVE ( 'NONE', #203, #389, #276, .T. ) ;
#397 = AXIS2_PLACEMENT_3D ( 'NONE', #553, #476, #56 ) ;
#398 = CARTESIAN_POINT ( 'NONE',  ( 0.000000000000000000, 20.00000000000000000, 0.000000000000000000 ) ) ;
#399 = ADVANCED_FACE ( 'NONE', ( #446 ), #57, .F. ) ;
#400 = CARTESIAN_POINT ( 'NONE',  ( -21.50000000000000000, 20.00000000000000000, 2.983724378680108597E-15 ) ) ;
#401 = CARTESIAN_POINT ( 'NONE',  ( 0.000000000000000000, 20.00000000000000000, 0.000000000000000000 ) ) ;
#402 = CARTESIAN_POINT ( 'NONE',  ( 9.999999999999998224, 10.00000000000000000, 15.00000000000000178 ) ) ;
#403 = UNCERTAINTY_MEASURE_WITH_UNIT (LENGTH_MEASURE( 1.000000000000000082E-05 ), #106, 'distance_accuracy_value', 'NONE');
#404 = DIRECTION ( 'NONE',  ( 0.000000000000000000, 1.000000000000000000, -0.000000000000000000 ) ) ;
#405 = CARTESIAN_POINT ( 'NONE',  ( -8.019882495745575213, 10.32414935266002054, 16.39346956605449890 ) ) ;
#406 = FILL_AREA_STYLE_COLOUR ( '', #290 ) ;
#407 = DIRECTION ( 'NONE',  ( -0.000000000000000000, -1.000000000000000000, -0.000000000000000000 ) ) ;
#408 = AXIS2_PLACEMENT_3D ( 'NONE', #132, #486, #268 ) ;
#409 = AXIS2_PLACEMENT_3D ( 'NONE', #109, #288, #535 ) ;
#410 = ADVANCED_FACE ( 'NONE', ( #309, #180 ), #317, .F. ) ;
#411 = FACE_OUTER_BOUND ( 'NONE', #282, .T. ) ;
#412 = CARTESIAN_POINT ( 'NONE',  ( 0.000000000000000000, 0.000000000000000000, 0.000000000000000000 ) ) ;
#413 = DIRECTION ( 'NONE',  ( -1.387778780781445922E-16, 0.000000000000000000, 1.000000000000000000 ) ) ;
#414 = ORIENTED_EDGE ( 'NONE', *, *, #421, .F. ) ;
#415 = ORIENTED_EDGE ( 'NONE', *, *, #421, .T. ) ;
#416 = CARTESIAN_POINT ( 'NONE',  ( -21.49999999999999645, 20.00000000000000000, 25.00000000000000000 ) ) ;
#417 = VECTOR ( 'NONE', #154, 1000.000000000000000 ) ;
#418 = ORIENTED_EDGE ( 'NONE', *, *, #244, .F. ) ;
#419 = DIRECTION ( 'NONE',  ( 0.000000000000000000, 1.000000000000000000, -0.000000000000000000 ) ) ;
#420 = ORIENTED_EDGE ( 'NONE', *, *, #267, .T. ) ;
#421 = EDGE_CURVE ( 'NONE', #120, #246, #60, .T. ) ;
#422 = CARTESIAN_POINT ( 'NONE',  ( 21.50000000000000000, 0.000000000000000000, 2.983724378680108597E-15 ) ) ;
#423 = CARTESIAN_POINT ( 'NONE',  ( 7.999999999999998224, 10.00000000000000000, 16.40312470232424502 ) ) ;
#424 = ORIENTED_EDGE ( 'NONE', *, *, #93, .T. ) ;
#425 = DIRECTION ( 'NONE',  ( -0.000000000000000000, -0.000000000000000000, 1.000000000000000000 ) ) ;
#426 = ORIENTED_EDGE ( 'NONE', *, *, #498, .T. ) ;
#427 = AXIS2_PLACEMENT_3D ( 'NONE', #55, #404, #89 ) ;
#428 = CIRCLE ( 'NONE', #45, 21.50000000000000000 ) ;
#429 = ORIENTED_EDGE ( 'NONE', *, *, #9, .F. ) ;
#430 = PLANE ( 'NONE',  #122 ) ;
#431 = ORIENTED_EDGE ( 'NONE', *, *, #23, .T. ) ;
#432 = DIRECTION ( 'NONE',  ( 0.000000000000000000, 0.000000000000000000, 1.000000000000000000 ) ) ;
#433 = VERTEX_POINT ( 'NONE', #361 ) ;
#434 = CARTESIAN_POINT ( 'NONE',  ( 0.000000000000000000, 0.000000000000000000, 0.000000000000000000 ) ) ;
#435 = CARTESIAN_POINT ( 'NONE',  ( 8.000000000000000000, 9.838679406161029206, 16.40312470232425213 ) ) ;
#436 = MANIFOLD_SOLID_BREP ( 'Cut-Extrude1', #174 ) ;
#437 = CIRCLE ( 'NONE', #156, 2.000000000000000000 ) ;
#438 = CYLINDRICAL_SURFACE ( 'NONE', #265, 21.50000000000000000 ) ;
#439 = APPLICATION_CONTEXT ( 'automotive_design' ) ;
#440 = DIRECTION ( 'NONE',  ( 1.000000000000000000, 0.000000000000000000, 0.000000000000000000 ) ) ;
#441 = CARTESIAN_POINT ( 'NONE',  ( 21.50000000000000000, 20.00000000000000000, 2.632986564067824014E-15 ) ) ;
#442 = CARTESIAN_POINT ( 'NONE',  ( -8.096251672041891112, 9.366593096591659062, 16.35588637353085772 ) ) ;
#443 = DIRECTION ( 'NONE',  ( 0.000000000000000000, 0.000000000000000000, 1.000000000000000000 ) ) ;
#444 = AXIS2_PLACEMENT_3D ( 'NONE', #306, #394, #432 ) ;
#445 = CARTESIAN_POINT ( 'NONE',  ( -9.861418580667214329, 7.985633471336080369, 15.35957891878298298 ) ) ;
#446 = FACE_OUTER_BOUND ( 'NONE', #300, .T. ) ;
#447 = DIRECTION ( 'NONE',  ( 0.000000000000000000, 0.000000000000000000, 1.000000000000000000 ) ) ;
#448 = CYLINDRICAL_SURFACE ( 'NONE', #408, 18.25000000000000000 ) ;
#449 = CARTESIAN_POINT ( 'NONE',  ( -9.863461688644337144, 12.01457504103233909, 15.35828042354891387 ) ) ;
#450 = CARTESIAN_POINT ( 'NONE',  ( 11.99999999999999822, 10.00000000000000000, 15.00000000000000178 ) ) ;
#451 = VECTOR ( 'NONE', #163, 1000.000000000000000 ) ;
#452 = VECTOR ( 'NONE', #100, 1000.000000000000000 ) ;
#453 = CARTESIAN_POINT ( 'NONE',  ( -9.063113770048897067, 11.77261727186381002, 15.84123781193459024 ) ) ;
#454 = CARTESIAN_POINT ( 'NONE',  ( -21.50000000000000000, 0.000000000000000000, 2.983724378680108597E-15 ) ) ;
#455 = ORIENTED_EDGE ( 'NONE', *, *, #298, .T. ) ;
#456 = EDGE_LOOP ( 'NONE', ( #420, #347, #40, #379 ) ) ;
#457 = DIRECTION ( 'NONE',  ( 1.000000000000000000, 0.000000000000000000, 0.000000000000000000 ) ) ;
#458 = CARTESIAN_POINT ( 'NONE',  ( 11.99999999999999822, 10.00000000000000000, 15.00000000000000178 ) ) ;
#459 = CARTESIAN_POINT ( 'NONE',  ( 0.000000000000000000, 20.00000000000000000, 0.000000000000000000 ) ) ;
#460 = EDGE_CURVE ( 'NONE', #26, #342, #464, .T. ) ;
#461 = PLANE ( 'NONE',  #167 ) ;
#462 = ORIENTED_EDGE ( 'NONE', *, *, #222, .T. ) ;
#463 = ORIENTED_EDGE ( 'NONE', *, *, #23, .F. ) ;
#464 = CIRCLE ( 'NONE', #30, 21.50000000000000000 ) ;
#465 = CARTESIAN_POINT ( 'NONE',  ( 8.153267710845346627, 10.78378472034819957, 16.32768637184262772 ) ) ;
#466 = ORIENTED_EDGE ( 'NONE', *, *, #396, .T. ) ;
#467 = LINE ( 'NONE', #458, #96 ) ;
#468 = EDGE_LOOP ( 'NONE', ( #17, #426, #191, #431, #478 ) ) ;
#469 = FACE_OUTER_BOUND ( 'NONE', #153, .T. ) ;
#470 = VERTEX_POINT ( 'NONE', #284 ) ;
#471 = ORIENTED_EDGE ( 'NONE', *, *, #320, .T. ) ;
#472 = CARTESIAN_POINT ( 'NONE',  ( 0.000000000000000000, 0.000000000000000000, -21.50000000000000000 ) ) ;
#473 = CARTESIAN_POINT ( 'NONE',  ( 8.388815604113728952, 8.805410611117590491, 16.20810985407804239 ) ) ;
#474 = AXIS2_PLACEMENT_3D ( 'NONE', #412, #313, #183 ) ;
#475 = EDGE_LOOP ( 'NONE', ( #462, #165, #241, #508 ) ) ;
#476 = DIRECTION ( 'NONE',  ( 0.000000000000000000, 0.000000000000000000, 1.000000000000000000 ) ) ;
#477 = APPLICATION_PROTOCOL_DEFINITION ( 'draft international standard', 'automotive_design', 1998, #75 ) ;
#478 = ORIENTED_EDGE ( 'NONE', *, *, #177, .T. ) ;
#479 = CARTESIAN_POINT ( 'NONE',  ( 10.39531144314589284, 8.039456997942174610, 15.00000000000000178 ) ) ;
#480 = ADVANCED_FACE ( 'NONE', ( #333 ), #461, .F. ) ;
#481 = DIRECTION ( 'NONE',  ( -1.000000000000000000, 0.000000000000000000, -0.000000000000000000 ) ) ;
#482 = AXIS2_PLACEMENT_3D ( 'NONE', #560, #209, #385 ) ;
#483 = LINE ( 'NONE', #172, #232 ) ;
#484 = ADVANCED_FACE ( 'NONE', ( #533 ), #112, .T. ) ;
#485 = CARTESIAN_POINT ( 'NONE',  ( -10.13142247599022383, 12.01375189792345743, 15.18288053333288623 ) ) ;
#486 = DIRECTION ( 'NONE',  ( -0.000000000000000000, -1.000000000000000000, -0.000000000000000000 ) ) ;
#487 = CARTESIAN_POINT ( 'NONE',  ( -8.698249522380546495, 11.52562799496919865, 16.04436707746834045 ) ) ;
#488 = VECTOR ( 'NONE', #393, 1000.000000000000000 ) ;
#489 = CARTESIAN_POINT ( 'NONE',  ( -8.153267710845351957, 9.216215279651803982, 16.32768637184263127 ) ) ;
#490 = CARTESIAN_POINT ( 'NONE',  ( -10.13226402270095505, 7.986417786212184566, 15.18229732398942033 ) ) ;
#491 = CARTESIAN_POINT ( 'NONE',  ( 10.39531144314589284, 11.96054300205782539, 15.00000000000000178 ) ) ;
#492 = CYLINDRICAL_SURFACE ( 'NONE', #204, 18.25000000000000000 ) ;
#493 = CARTESIAN_POINT ( 'NONE',  ( -8.388815604113732505, 11.19458938888240240, 16.20810985407803528 ) ) ;
#494 = CARTESIAN_POINT ( 'NONE',  ( 9.061293504424835277, 11.77170551570927337, 15.84228504268277504 ) ) ;
#495 = ORIENTED_EDGE ( 'NONE', *, *, #327, .T. ) ;
#496 = VECTOR ( 'NONE', #24, 1000.000000000000000 ) ;
#497 = EDGE_CURVE ( 'NONE', #72, #368, #238, .T. ) ;
#498 = EDGE_CURVE ( 'NONE', #33, #20, #428, .T. ) ;
#499 = ORIENTED_EDGE ( 'NONE', *, *, #552, .F. ) ;
#500 = DIRECTION ( 'NONE',  ( -1.000000000000000000, 0.000000000000000000, -1.387778780781445922E-16 ) ) ;
#501 = ORIENTED_EDGE ( 'NONE', *, *, #396, .F. ) ;
#502 = ORIENTED_EDGE ( 'NONE', *, *, #270, .T. ) ;
#503 = DIRECTION ( 'NONE',  ( 0.000000000000000000, 0.000000000000000000, 1.000000000000000000 ) ) ;
#504 = ORIENTED_EDGE ( 'NONE', *, *, #270, .F. ) ;
#505 = CIRCLE ( 'NONE', #287, 2.000000000000000000 ) ;
#506 = ORIENTED_EDGE ( 'NONE', *, *, #36, .F. ) ;
#507 = EDGE_CURVE ( 'NONE', #124, #194, #505, .T. ) ;
#508 = ORIENTED_EDGE ( 'NONE', *, *, #93, .F. ) ;
#509 = ORIENTED_EDGE ( 'NONE', *, *, #101, .F. ) ;
#510 = ORIENTED_EDGE ( 'NONE', *, *, #222, .F. ) ;
#511 = DIRECTION ( 'NONE',  ( -0.000000000000000000, -0.000000000000000000, 1.000000000000000000 ) ) ;
#512 = EDGE_LOOP ( 'NONE', ( #158, #466, #424, #115 ) ) ;
#513 = ORIENTED_EDGE ( 'NONE', *, *, #392, .F. ) ;
#514 = CARTESIAN_POINT ( 'NONE',  ( 9.863461688644335368, 7.985424958967660025, 15.35828042354891387 ) ) ;
#515 = VECTOR ( 'NONE', #171, 1000.000000000000000 ) ;
#516 = ORIENTED_EDGE ( 'NONE', *, *, #47, .T. ) ;
#517 = CYLINDRICAL_SURFACE ( 'NONE', #530, 2.000000000000000000 ) ;
#518 = EDGE_CURVE ( 'NONE', #20, #342, #141, .T. ) ;
#519 = DIRECTION ( 'NONE',  ( 0.000000000000000000, 0.000000000000000000, -1.000000000000000000 ) ) ;
#520 = CARTESIAN_POINT ( 'NONE',  ( 0.000000000000000000, 0.000000000000000000, -18.25000000000000000 ) ) ;
#521 = CARTESIAN_POINT ( 'NONE',  ( -12.00000000000000178, 10.00000000000000000, 25.00000000000000000 ) ) ;
#522 = CIRCLE ( 'NONE', #139, 2.000000000000000000 ) ;
#523 = CARTESIAN_POINT ( 'NONE',  ( 10.39531144314589284, 11.96054300205782539, 15.00000000000000178 ) ) ;
#524 = CARTESIAN_POINT ( 'NONE',  ( -12.00000000000000178, 10.00000000000000000, 15.00000000000000178 ) ) ;
#525 = FACE_OUTER_BOUND ( 'NONE', #63, .T. ) ;
#526 = CARTESIAN_POINT ( 'NONE',  ( 0.000000000000000000, 20.00000000000000000, -18.25000000000000000 ) ) ;
#527 = CARTESIAN_POINT ( 'NONE',  ( -8.000000000000001776, 10.00000000000000000, 16.40312470232424502 ) ) ;
#528 = AXIS2_PLACEMENT_3D ( 'NONE', #121, #381, #549 ) ;
#529 = SURFACE_STYLE_FILL_AREA ( #173 ) ;
#530 = AXIS2_PLACEMENT_3D ( 'NONE', #293, #425, #41 ) ;
#531 = STYLED_ITEM ( 'NONE', ( #312 ), #436 ) ;
#532 = CARTESIAN_POINT ( 'NONE',  ( -9.454348430959191418, 8.070885255978861750, 15.61099711717295335 ) ) ;
#533 = FACE_OUTER_BOUND ( 'NONE', #551, .T. ) ;
#534 = DIRECTION ( 'NONE',  ( 1.000000000000000000, -0.000000000000000000, 0.000000000000000000 ) ) ;
#535 = DIRECTION ( 'NONE',  ( 1.000000000000000000, 0.000000000000000000, -0.000000000000000000 ) ) ;
#536 = AXIS2_PLACEMENT_3D ( 'NONE', #398, #12, #5 ) ;
#537 = DIRECTION ( 'NONE',  ( 1.000000000000000000, -0.000000000000000000, 0.000000000000000000 ) ) ;
#538 = ORIENTED_EDGE ( 'NONE', *, *, #327, .F. ) ;
#539 = CARTESIAN_POINT ( 'NONE',  ( 8.019902711105476811, 10.32353783086558785, 16.39345816797957767 ) ) ;
#540 = ORIENTED_EDGE ( 'NONE', *, *, #507, .T. ) ;
#541 = ORIENTED_EDGE ( 'NONE', *, *, #303, .T. ) ;
#542 = CARTESIAN_POINT ( 'NONE',  ( 10.13226402270095505, 12.01358221378781188, 15.18229732398941856 ) ) ;
#543 = VERTEX_POINT ( 'NONE', #450 ) ;
#544 = CARTESIAN_POINT ( 'NONE',  ( -10.39531144314589284, 20.00000000000000000, 15.00000000000000178 ) ) ;
#545 = ADVANCED_FACE ( 'NONE', ( #411 ), #365, .F. ) ;
#546 = DIRECTION ( 'NONE',  ( -0.000000000000000000, -1.000000000000000000, -0.000000000000000000 ) ) ;
#547 = VECTOR ( 'NONE', #345, 1000.000000000000000 ) ;
#548 = ORIENTED_EDGE ( 'NONE', *, *, #498, .F. ) ;
#549 = DIRECTION ( 'NONE',  ( 1.000000000000000000, 0.000000000000000000, 0.000000000000000000 ) ) ;
#550 = ORIENTED_EDGE ( 'NONE', *, *, #9, .T. ) ;
#551 = EDGE_LOOP ( 'NONE', ( #540, #541, #332 ) ) ;
#552 = EDGE_CURVE ( 'NONE', #335, #370, #278, .T. ) ;
#553 = CARTESIAN_POINT ( 'NONE',  ( 9.999999999999998224, 10.00000000000000000, 25.00000000000000000 ) ) ;
#554 = DIRECTION ( 'NONE',  ( 0.000000000000000000, 0.000000000000000000, 1.000000000000000000 ) ) ;
#555 = VERTEX_POINT ( 'NONE', #189 ) ;
#556 = DIRECTION ( 'NONE',  ( 0.000000000000000000, 0.000000000000000000, 1.000000000000000000 ) ) ;
#557 = AXIS2_PLACEMENT_3D ( 'NONE', #316, #58, #54 ) ;
#558 =( NAMED_UNIT ( * ) SI_UNIT ( $, .STERADIAN. ) SOLID_ANGLE_UNIT ( ) );
#559 = ORIENTED_EDGE ( 'NONE', *, *, #202, .T. ) ;
#560 = CARTESIAN_POINT ( 'NONE',  ( 0.000000000000000000, 0.000000000000000000, 0.000000000000000000 ) ) ;
ENDSEC;
END-ISO-10303-21;
