ISO-10303-21;
HEADER;
FILE_DESCRIPTION (( 'STEP AP214' ),
    '1' );
FILE_NAME ('Rear-Gearbox-Axle-Support.STEP',
    '2026-06-29T11:38:42',
    ( '' ),
    ( '' ),
    'SwSTEP 2.0',
    'SolidWorks 2026',
    '' );
FILE_SCHEMA (( 'AUTOMOTIVE_DESIGN' ));
ENDSEC;

DATA;
#1 = ORIENTED_EDGE ( 'NONE', *, *, #20, .T. ) ;
#2 = VECTOR ( 'NONE', #1152, 999.9999999999998863 ) ;
#3 = FACE_OUTER_BOUND ( 'NONE', #1179, .T. ) ;
#4 = PLANE ( 'NONE',  #1242 ) ;
#5 = ORIENTED_EDGE ( 'NONE', *, *, #274, .F. ) ;
#6 = AXIS2_PLACEMENT_3D ( 'NONE', #830, #627, #240 ) ;
#7 = ORIENTED_EDGE ( 'NONE', *, *, #710, .F. ) ;
#8 = EDGE_CURVE ( 'NONE', #1192, #875, #868, .T. ) ;
#9 = CARTESIAN_POINT ( 'NONE',  ( -7.500000000000000000, 33.99999999999998579, -7.500000000000000000 ) ) ;
#10 = DIRECTION ( 'NONE',  ( -0.7071067811865482389, -0.7071067811865469066, 0.000000000000000000 ) ) ;
#11 = ORIENTED_EDGE ( 'NONE', *, *, #189, .T. ) ;
#12 = EDGE_LOOP ( 'NONE', ( #899, #80, #210, #1038 ) ) ;
#13 = DIRECTION ( 'NONE',  ( 0.000000000000000000, 0.000000000000000000, -1.000000000000000000 ) ) ;
#14 = ORIENTED_EDGE ( 'NONE', *, *, #520, .F. ) ;
#15 = DIRECTION ( 'NONE',  ( 1.000000000000000000, -0.000000000000000000, -0.000000000000000000 ) ) ;
#16 = ORIENTED_EDGE ( 'NONE', *, *, #896, .T. ) ;
#17 = PRODUCT_DEFINITION_CONTEXT ( 'detailed design', #474, 'design' ) ;
#18 = LINE ( 'NONE', #405, #1163 ) ;
#19 = CARTESIAN_POINT ( 'NONE',  ( -7.499999999999998224, 13.00000000000000355, 5.500000000000000000 ) ) ;
#20 = EDGE_CURVE ( 'NONE', #670, #532, #473, .T. ) ;
#21 = DIRECTION ( 'NONE',  ( 0.000000000000000000, -1.000000000000000000, 0.000000000000000000 ) ) ;
#22 = VERTEX_POINT ( 'NONE', #1170 ) ;
#23 = LINE ( 'NONE', #611, #196 ) ;
#24 = AXIS2_PLACEMENT_3D ( 'NONE', #838, #156, #355 ) ;
#25 =( NAMED_UNIT ( * ) PLANE_ANGLE_UNIT ( ) SI_UNIT ( $, .RADIAN. ) );
#26 = CARTESIAN_POINT ( 'NONE',  ( 7.500000000000001776, 13.00000000000000355, 5.499999999999998224 ) ) ;
#27 = DIRECTION ( 'NONE',  ( 1.000000000000000000, 0.000000000000000000, 0.000000000000000000 ) ) ;
#28 = EDGE_LOOP ( 'NONE', ( #190, #1012, #910, #624 ) ) ;
#29 = CARTESIAN_POINT ( 'NONE',  ( -6.499999999999987566, 35.00000000000000000, 7.517135062566151914E-16 ) ) ;
#30 = DIRECTION ( 'NONE',  ( 1.000000000000000000, 0.000000000000000000, 0.000000000000000000 ) ) ;
#31 = CARTESIAN_POINT ( 'NONE',  ( 6.499999999999998224, 17.00000000000000000, 2.500000000000000444 ) ) ;
#32 = ORIENTED_EDGE ( 'NONE', *, *, #619, .T. ) ;
#33 = CARTESIAN_POINT ( 'NONE',  ( 6.499999999999998224, 15.00000000000000355, 5.499999999999998224 ) ) ;
#34 = CARTESIAN_POINT ( 'NONE',  ( 0.000000000000000000, 0.000000000000000000, -4.000000000000000000 ) ) ;
#35 = FACE_OUTER_BOUND ( 'NONE', #129, .T. ) ;
#36 = FACE_OUTER_BOUND ( 'NONE', #258, .T. ) ;
#37 = AXIS2_PLACEMENT_3D ( 'NONE', #1122, #71, #1200 ) ;
#38 = ORIENTED_EDGE ( 'NONE', *, *, #865, .T. ) ;
#39 = ADVANCED_FACE ( 'NONE', ( #999 ), #700, .T. ) ;
#40 = VECTOR ( 'NONE', #369, 1000.000000000000000 ) ;
#41 = EDGE_CURVE ( 'NONE', #454, #372, #552, .T. ) ;
#42 = AXIS2_PLACEMENT_3D ( 'NONE', #1065, #83, #1228 ) ;
#43 = LINE ( 'NONE', #213, #597 ) ;
#44 = DIRECTION ( 'NONE',  ( 5.782411586589357392E-17, 0.000000000000000000, 1.000000000000000000 ) ) ;
#45 = CARTESIAN_POINT ( 'NONE',  ( 0.000000000000000000, 25.00000000000000000, -2.499999999999998668 ) ) ;
#46 = ORIENTED_EDGE ( 'NONE', *, *, #989, .T. ) ;
#47 = EDGE_CURVE ( 'NONE', #670, #404, #449, .T. ) ;
#48 = PLANE ( 'NONE',  #578 ) ;
#49 = DIRECTION ( 'NONE',  ( 0.000000000000000000, -1.000000000000000000, 0.000000000000000000 ) ) ;
#50 = VECTOR ( 'NONE', #1176, 1000.000000000000000 ) ;
#51 = CARTESIAN_POINT ( 'NONE',  ( 7.500000000000001776, 35.00000000000000000, 6.499999999999993783 ) ) ;
#52 = EDGE_LOOP ( 'NONE', ( #737, #942 ) ) ;
#53 = ADVANCED_FACE ( 'NONE', ( #214 ), #325, .F. ) ;
#54 = LINE ( 'NONE', #332, #633 ) ;
#55 = CARTESIAN_POINT ( 'NONE',  ( 7.500000000000000888, 34.00000000000000000, -1.499999999999997113 ) ) ;
#56 = VERTEX_POINT ( 'NONE', #31 ) ;
#57 = EDGE_CURVE ( 'NONE', #326, #973, #897, .T. ) ;
#58 = PRODUCT_DEFINITION ( 'UNKNOWN', '', #749, #17 ) ;
#59 = ORIENTED_EDGE ( 'NONE', *, *, #1196, .T. ) ;
#60 = LINE ( 'NONE', #747, #683 ) ;
#61 = LINE ( 'NONE', #1221, #377 ) ;
#62 = VECTOR ( 'NONE', #1099, 1000.000000000000000 ) ;
#63 = CARTESIAN_POINT ( 'NONE',  ( 7.500000000000001776, 15.00000000000000355, 5.499999999999998224 ) ) ;
#64 = DIRECTION ( 'NONE',  ( 0.000000000000000000, 1.000000000000000000, 0.000000000000000000 ) ) ;
#65 = AXIS2_PLACEMENT_3D ( 'NONE', #525, #432, #1182 ) ;
#66 = ORIENTED_EDGE ( 'NONE', *, *, #1172, .F. ) ;
#67 = ORIENTED_EDGE ( 'NONE', *, *, #979, .T. ) ;
#68 = CARTESIAN_POINT ( 'NONE',  ( -6.499999999999990230, 15.00000000000000355, -4.500000000000000000 ) ) ;
#69 = DIRECTION ( 'NONE',  ( -0.000000000000000000, 1.000000000000000000, 0.000000000000000000 ) ) ;
#70 = DIRECTION ( 'NONE',  ( 1.000000000000000000, -0.000000000000000000, -1.156482317317871478E-16 ) ) ;
#71 = DIRECTION ( 'NONE',  ( 1.156482317317871478E-16, 0.000000000000000000, 1.000000000000000000 ) ) ;
#72 = ORIENTED_EDGE ( 'NONE', *, *, #710, .T. ) ;
#73 = EDGE_LOOP ( 'NONE', ( #1051, #787, #569, #879 ) ) ;
#74 = CARTESIAN_POINT ( 'NONE',  ( -6.360652745248294980E-16, 13.00000000000000355, -5.500000000000000888 ) ) ;
#75 = ADVANCED_FACE ( 'NONE', ( #909 ), #225, .T. ) ;
#76 = FACE_OUTER_BOUND ( 'NONE', #466, .T. ) ;
#77 = DIRECTION ( 'NONE',  ( 1.000000000000000000, 0.000000000000000000, -5.782411586589357392E-17 ) ) ;
#78 = PRODUCT_DEFINITION_SHAPE ( 'NONE', 'NONE',  #58 ) ;
#79 = ORIENTED_EDGE ( 'NONE', *, *, #754, .F. ) ;
#80 = ORIENTED_EDGE ( 'NONE', *, *, #869, .T. ) ;
#81 = DIRECTION ( 'NONE',  ( 0.7071067811865472397, -0.7071067811865479058, 0.000000000000000000 ) ) ;
#82 = AXIS2_PLACEMENT_3D ( 'NONE', #1138, #646, #167 ) ;
#83 = DIRECTION ( 'NONE',  ( -0.7071067811865469066, 0.7071067811865482389, 8.177564888977990473E-17 ) ) ;
#84 = DIRECTION ( 'NONE',  ( -1.000000000000000000, 0.000000000000000000, 0.000000000000000000 ) ) ;
#85 = CARTESIAN_POINT ( 'NONE',  ( -7.499999999999998224, 17.00000000000000000, 4.500000000000002665 ) ) ;
#86 = APPLICATION_CONTEXT ( 'automotive_design' ) ;
#87 = DIRECTION ( 'NONE',  ( 1.156482317317871725E-16, 0.000000000000000000, 1.000000000000000000 ) ) ;
#88 = CONICAL_SURFACE ( 'NONE', #1183, 3.000000000000009326, 0.7853981633974476129 ) ;
#89 = CARTESIAN_POINT ( 'NONE',  ( -7.500000000000000000, 35.00000000000000000, -6.499999999999991118 ) ) ;
#90 = ADVANCED_FACE ( 'NONE', ( #36 ), #514, .F. ) ;
#91 = LINE ( 'NONE', #556, #40 ) ;
#92 = ORIENTED_EDGE ( 'NONE', *, *, #1120, .T. ) ;
#93 = ORIENTED_EDGE ( 'NONE', *, *, #1139, .T. ) ;
#94 = VECTOR ( 'NONE', #550, 1000.000000000000000 ) ;
#95 = AXIS2_PLACEMENT_3D ( 'NONE', #19, #30, #895 ) ;
#96 = PLANE ( 'NONE',  #966 ) ;
#97 = EDGE_CURVE ( 'NONE', #275, #762, #420, .T. ) ;
#98 = CARTESIAN_POINT ( 'NONE',  ( -7.499999999999998224, 14.00000000000000533, 4.500000000000002665 ) ) ;
#99 = ORIENTED_EDGE ( 'NONE', *, *, #408, .T. ) ;
#100 = ADVANCED_FACE ( 'NONE', ( #1082 ), #426, .F. ) ;
#101 = ORIENTED_EDGE ( 'NONE', *, *, #322, .F. ) ;
#102 = VECTOR ( 'NONE', #1050, 1000.000000000000000 ) ;
#103 = FACE_OUTER_BOUND ( 'NONE', #1154, .T. ) ;
#104 = ORIENTED_EDGE ( 'NONE', *, *, #510, .F. ) ;
#105 =( GEOMETRIC_REPRESENTATION_CONTEXT ( 3 ) GLOBAL_UNCERTAINTY_ASSIGNED_CONTEXT ( ( #204 ) ) GLOBAL_UNIT_ASSIGNED_CONTEXT ( ( #887, #25, #791 ) ) REPRESENTATION_CONTEXT ( 'NONE', 'WORKASPACE' ) );
#106 = VECTOR ( 'NONE', #1041, 1000.000000000000000 ) ;
#107 = ORIENTED_EDGE ( 'NONE', *, *, #675, .T. ) ;
#108 = DIRECTION ( 'NONE',  ( 0.000000000000000000, 0.000000000000000000, 1.000000000000000000 ) ) ;
#109 = LINE ( 'NONE', #773, #642 ) ;
#110 = ORIENTED_EDGE ( 'NONE', *, *, #520, .T. ) ;
#111 = ORIENTED_EDGE ( 'NONE', *, *, #256, .F. ) ;
#112 = CARTESIAN_POINT ( 'NONE',  ( 6.499999999999998224, 15.00000000000000355, -7.517135062566164733E-16 ) ) ;
#113 = EDGE_CURVE ( 'NONE', #746, #22, #1190, .T. ) ;
#114 = CARTESIAN_POINT ( 'NONE',  ( 0.000000000000000000, 10.00000000000000000, -4.000000000000000000 ) ) ;
#115 = FACE_BOUND ( 'NONE', #52, .T. ) ;
#116 = ORIENTED_EDGE ( 'NONE', *, *, #561, .F. ) ;
#117 = CARTESIAN_POINT ( 'NONE',  ( -6.499999999999988454, 15.00000000000000355, -2.499999999999999556 ) ) ;
#118 = DIRECTION ( 'NONE',  ( 0.7071067811865462405, 0.7071067811865487940, -8.177564888977983077E-17 ) ) ;
#119 = CARTESIAN_POINT ( 'NONE',  ( 0.000000000000000000, 25.00000000000000000, -17.50000000000000000 ) ) ;
#120 = VERTEX_POINT ( 'NONE', #230 ) ;
#121 = CONICAL_SURFACE ( 'NONE', #769, 3.000000000000004441, 0.7853981633974466137 ) ;
#122 = LINE ( 'NONE', #29, #976 ) ;
#123 = CIRCLE ( 'NONE', #1011, 2.000000000000000000 ) ;
#124 = DIRECTION ( 'NONE',  ( 0.000000000000000000, 0.000000000000000000, -1.000000000000000000 ) ) ;
#125 = DIRECTION ( 'NONE',  ( -0.000000000000000000, -1.000000000000000000, -0.000000000000000000 ) ) ;
#126 = ORIENTED_EDGE ( 'NONE', *, *, #725, .F. ) ;
#127 = DIRECTION ( 'NONE',  ( 0.7071067811865472397, 0.000000000000000000, -0.7071067811865479058 ) ) ;
#128 = CARTESIAN_POINT ( 'NONE',  ( 0.000000000000000000, 10.00000000000000000, 3.999999999999999112 ) ) ;
#129 = EDGE_LOOP ( 'NONE', ( #72, #383, #388, #511 ) ) ;
#130 = EDGE_CURVE ( 'NONE', #1063, #1203, #654, .T. ) ;
#131 = LINE ( 'NONE', #913, #698 ) ;
#132 = CARTESIAN_POINT ( 'NONE',  ( 6.499999999999992006, 0.000000000000000000, -7.500000000000001776 ) ) ;
#133 = DIRECTION ( 'NONE',  ( 1.156482317317871725E-16, 0.000000000000000000, 1.000000000000000000 ) ) ;
#134 = VECTOR ( 'NONE', #351, 1000.000000000000000 ) ;
#135 = ORIENTED_EDGE ( 'NONE', *, *, #535, .T. ) ;
#136 = AXIS2_PLACEMENT_3D ( 'NONE', #197, #301, #797 ) ;
#137 = AXIS2_PLACEMENT_3D ( 'NONE', #980, #985, #108 ) ;
#138 = CARTESIAN_POINT ( 'NONE',  ( -7.499999999999998224, 13.00000000000000355, 6.500000000000004441 ) ) ;
#139 = AXIS2_PLACEMENT_3D ( 'NONE', #1105, #249, #141 ) ;
#140 = PLANE ( 'NONE',  #489 ) ;
#141 = DIRECTION ( 'NONE',  ( 0.000000000000000000, 1.000000000000000000, 0.000000000000000000 ) ) ;
#142 = ORIENTED_EDGE ( 'NONE', *, *, #444, .F. ) ;
#143 = ADVANCED_FACE ( 'NONE', ( #605 ), #234, .F. ) ;
#144 = DIRECTION ( 'NONE',  ( 0.000000000000000000, 0.000000000000000000, 1.000000000000000000 ) ) ;
#145 = ADVANCED_FACE ( 'NONE', ( #696 ), #987, .F. ) ;
#146 = ADVANCED_FACE ( 'NONE', ( #414 ), #799, .F. ) ;
#147 = DIRECTION ( 'NONE',  ( -1.156482317317871478E-16, 0.000000000000000000, -1.000000000000000000 ) ) ;
#148 = VECTOR ( 'NONE', #776, 1000.000000000000000 ) ;
#149 = VECTOR ( 'NONE', #328, 1000.000000000000000 ) ;
#150 = FILL_AREA_STYLE ('',( #1015 ) ) ;
#151 = ORIENTED_EDGE ( 'NONE', *, *, #444, .T. ) ;
#152 = ORIENTED_EDGE ( 'NONE', *, *, #1213, .F. ) ;
#153 = CARTESIAN_POINT ( 'NONE',  ( -7.499999999999998224, 35.00000000000000000, 6.500000000000004441 ) ) ;
#154 = CARTESIAN_POINT ( 'NONE',  ( -7.500000000000000000, 0.000000000000000000, -6.499999999999991118 ) ) ;
#155 = LINE ( 'NONE', #403, #893 ) ;
#156 = DIRECTION ( 'NONE',  ( -1.000000000000000000, 0.000000000000000000, 1.156482317317871725E-16 ) ) ;
#157 = ORIENTED_EDGE ( 'NONE', *, *, #336, .T. ) ;
#158 = CIRCLE ( 'NONE', #874, 0.9999999999999956701 ) ;
#159 = ORIENTED_EDGE ( 'NONE', *, *, #584, .T. ) ;
#160 = LINE ( 'NONE', #153, #235 ) ;
#161 = DIRECTION ( 'NONE',  ( -1.000000000000000000, 0.000000000000000000, 1.156482317317871478E-16 ) ) ;
#162 = CONICAL_SURFACE ( 'NONE', #647, 0.9999999999999913403, 0.7853981633974473908 ) ;
#163 = PLANE ( 'NONE',  #685 ) ;
#164 = DIRECTION ( 'NONE',  ( 0.000000000000000000, -1.000000000000000000, 0.000000000000000000 ) ) ;
#165 = ORIENTED_EDGE ( 'NONE', *, *, #760, .T. ) ;
#166 = ORIENTED_EDGE ( 'NONE', *, *, #961, .T. ) ;
#167 = DIRECTION ( 'NONE',  ( 0.000000000000000000, 1.000000000000000000, -0.000000000000000000 ) ) ;
#168 = DIRECTION ( 'NONE',  ( -0.7071067811865463515, 0.7071067811865487940, 8.177564888977984310E-17 ) ) ;
#169 = CARTESIAN_POINT ( 'NONE',  ( 6.499999999999992895, 17.00000000000000000, -2.500000000000000444 ) ) ;
#170 = LINE ( 'NONE', #651, #669 ) ;
#171 = ORIENTED_EDGE ( 'NONE', *, *, #979, .F. ) ;
#172 = ORIENTED_EDGE ( 'NONE', *, *, #1230, .F. ) ;
#173 = CARTESIAN_POINT ( 'NONE',  ( 7.500000000000001776, 17.00000000000000000, 2.500000000000000444 ) ) ;
#174 = EDGE_CURVE ( 'NONE', #56, #275, #993, .T. ) ;
#175 = DIRECTION ( 'NONE',  ( 0.000000000000000000, 0.000000000000000000, -1.000000000000000000 ) ) ;
#176 = LINE ( 'NONE', #545, #287 ) ;
#177 = ORIENTED_EDGE ( 'NONE', *, *, #542, .F. ) ;
#178 = DIRECTION ( 'NONE',  ( 1.000000000000000000, -0.000000000000000000, -8.673617379883967433E-16 ) ) ;
#179 = EDGE_CURVE ( 'NONE', #905, #445, #718, .T. ) ;
#180 = CARTESIAN_POINT ( 'NONE',  ( 7.500000000000000000, 35.00000000000000000, -7.500000000000001776 ) ) ;
#181 = LINE ( 'NONE', #1028, #448 ) ;
#182 = VECTOR ( 'NONE', #931, 1000.000000000000000 ) ;
#183 = ORIENTED_EDGE ( 'NONE', *, *, #319, .F. ) ;
#184 = CIRCLE ( 'NONE', #688, 5.000000000000003553 ) ;
#185 = ORIENTED_EDGE ( 'NONE', *, *, #97, .F. ) ;
#186 = EDGE_CURVE ( 'NONE', #821, #1016, #573, .T. ) ;
#187 = LINE ( 'NONE', #588, #201 ) ;
#188 = FACE_OUTER_BOUND ( 'NONE', #843, .T. ) ;
#189 = EDGE_CURVE ( 'NONE', #539, #481, #123, .T. ) ;
#190 = ORIENTED_EDGE ( 'NONE', *, *, #205, .T. ) ;
#191 = ORIENTED_EDGE ( 'NONE', *, *, #504, .F. ) ;
#192 = DIRECTION ( 'NONE',  ( 0.000000000000000000, -1.000000000000000000, 0.000000000000000000 ) ) ;
#193 = ORIENTED_EDGE ( 'NONE', *, *, #522, .F. ) ;
#194 = EDGE_LOOP ( 'NONE', ( #93, #547, #415, #1003 ) ) ;
#195 = LINE ( 'NONE', #292, #1061 ) ;
#196 = VECTOR ( 'NONE', #127, 1000.000000000000000 ) ;
#197 = CARTESIAN_POINT ( 'NONE',  ( 0.000000000000000000, 0.000000000000000000, 0.000000000000000000 ) ) ;
#198 = DIRECTION ( 'NONE',  ( -1.000000000000000000, 0.000000000000000000, 1.156482317317871725E-16 ) ) ;
#199 = ORIENTED_EDGE ( 'NONE', *, *, #336, .F. ) ;
#200 = VECTOR ( 'NONE', #1143, 1000.000000000000000 ) ;
#201 = VECTOR ( 'NONE', #871, 1000.000000000000000 ) ;
#202 = ORIENTED_EDGE ( 'NONE', *, *, #281, .F. ) ;
#203 = EDGE_CURVE ( 'NONE', #559, #876, #170, .T. ) ;
#204 = UNCERTAINTY_MEASURE_WITH_UNIT (LENGTH_MEASURE( 1.000000000000000082E-05 ), #887, 'distance_accuracy_value', 'NONE');
#205 = EDGE_CURVE ( 'NONE', #1203, #1063, #184, .T. ) ;
#206 = DIRECTION ( 'NONE',  ( 0.000000000000000000, 0.000000000000000000, -1.000000000000000000 ) ) ;
#207 = DIRECTION ( 'NONE',  ( -1.000000000000000000, 0.000000000000000000, 1.156482317317871478E-16 ) ) ;
#208 = ORIENTED_EDGE ( 'NONE', *, *, #785, .F. ) ;
#209 = DIRECTION ( 'NONE',  ( -8.673617379884022653E-16, 0.000000000000000000, -1.000000000000000000 ) ) ;
#210 = ORIENTED_EDGE ( 'NONE', *, *, #974, .T. ) ;
#211 = VECTOR ( 'NONE', #407, 1000.000000000000000 ) ;
#212 = DIRECTION ( 'NONE',  ( 0.000000000000000000, -1.000000000000000000, 0.000000000000000000 ) ) ;
#213 = CARTESIAN_POINT ( 'NONE',  ( -7.499999999999998224, 14.00000000000000888, 4.500000000000002665 ) ) ;
#214 = FACE_OUTER_BOUND ( 'NONE', #917, .T. ) ;
#215 = EDGE_LOOP ( 'NONE', ( #880, #1067, #969, #157 ) ) ;
#216 = EDGE_CURVE ( 'NONE', #532, #722, #794, .T. ) ;
#217 = DIRECTION ( 'NONE',  ( 0.7071067811865469066, 0.000000000000000000, 0.7071067811865482389 ) ) ;
#218 = STYLED_ITEM ( 'NONE', ( #947 ), #280 ) ;
#219 = DIRECTION ( 'NONE',  ( 1.000000000000000000, -0.000000000000000000, -1.156482317317871725E-16 ) ) ;
#220 = DIRECTION ( 'NONE',  ( -1.156482317317871725E-16, 0.000000000000000000, -1.000000000000000000 ) ) ;
#221 = ORIENTED_EDGE ( 'NONE', *, *, #47, .T. ) ;
#222 = DIRECTION ( 'NONE',  ( 1.156482317317871725E-16, -0.000000000000000000, 1.000000000000000000 ) ) ;
#223 = EDGE_CURVE ( 'NONE', #706, #768, #308, .T. ) ;
#224 = LINE ( 'NONE', #613, #211 ) ;
#225 = PLANE ( 'NONE',  #65 ) ;
#226 = ADVANCED_FACE ( 'NONE', ( #628 ), #1029, .F. ) ;
#227 = ORIENTED_EDGE ( 'NONE', *, *, #284, .F. ) ;
#228 = CYLINDRICAL_SURFACE ( 'NONE', #923, 2.000000000000000000 ) ;
#229 = CARTESIAN_POINT ( 'NONE',  ( 7.500000000000001776, 0.000000000000000000, 6.499999999999993783 ) ) ;
#230 = CARTESIAN_POINT ( 'NONE',  ( -7.499999999999998224, 13.00000000000000355, 6.500000000000005329 ) ) ;
#231 = ORIENTED_EDGE ( 'NONE', *, *, #919, .T. ) ;
#232 = CARTESIAN_POINT ( 'NONE',  ( -6.499999999999987566, 17.00000000000000000, -2.499999999999999112 ) ) ;
#233 = FACE_BOUND ( 'NONE', #289, .T. ) ;
#234 = PLANE ( 'NONE',  #512 ) ;
#235 = VECTOR ( 'NONE', #732, 1000.000000000000000 ) ;
#236 = ORIENTED_EDGE ( 'NONE', *, *, #961, .F. ) ;
#237 = ADVANCED_FACE ( 'NONE', ( #921 ), #842, .F. ) ;
#238 = CYLINDRICAL_SURFACE ( 'NONE', #314, 2.000000000000000000 ) ;
#239 = AXIS2_PLACEMENT_3D ( 'NONE', #458, #623, #1207 ) ;
#240 = DIRECTION ( 'NONE',  ( -1.000000000000000000, 0.000000000000000000, 8.673617379884029309E-17 ) ) ;
#241 = CARTESIAN_POINT ( 'NONE',  ( 5.000000000000003553, 25.00000000000000000, 2.500000000000001776 ) ) ;
#242 = ORIENTED_EDGE ( 'NONE', *, *, #562, .F. ) ;
#243 = VERTEX_POINT ( 'NONE', #1023 ) ;
#244 = DIRECTION ( 'NONE',  ( 1.156482317317871725E-16, 0.000000000000000000, 1.000000000000000000 ) ) ;
#245 = DIRECTION ( 'NONE',  ( -5.782411586589358625E-17, 0.000000000000000000, -1.000000000000000000 ) ) ;
#246 = LINE ( 'NONE', #599, #62 ) ;
#247 = CIRCLE ( 'NONE', #533, 2.000000000000000000 ) ;
#248 = AXIS2_PLACEMENT_3D ( 'NONE', #798, #500, #124 ) ;
#249 = DIRECTION ( 'NONE',  ( -0.7071067811865479058, 0.000000000000000000, -0.7071067811865471286 ) ) ;
#250 = VERTEX_POINT ( 'NONE', #736 ) ;
#251 = ORIENTED_EDGE ( 'NONE', *, *, #216, .F. ) ;
#252 = LINE ( 'NONE', #640, #300 ) ;
#253 = CARTESIAN_POINT ( 'NONE',  ( -7.500000000000000000, 13.99999999999999467, -5.500000000000000000 ) ) ;
#254 = DIRECTION ( 'NONE',  ( -0.7071067811865472397, -0.000000000000000000, 0.7071067811865479058 ) ) ;
#255 = FACE_OUTER_BOUND ( 'NONE', #497, .T. ) ;
#256 = EDGE_CURVE ( 'NONE', #1039, #1097, #438, .T. ) ;
#257 = ORIENTED_EDGE ( 'NONE', *, *, #957, .T. ) ;
#258 = EDGE_LOOP ( 'NONE', ( #629, #231, #16, #1165, #832, #1247, #107, #1171, #480, #715, #99, #151 ) ) ;
#259 = LINE ( 'NONE', #834, #1068 ) ;
#260 = FACE_OUTER_BOUND ( 'NONE', #485, .T. ) ;
#261 = AXIS2_PLACEMENT_3D ( 'NONE', #713, #1001, #431 ) ;
#262 = ADVANCED_FACE ( 'NONE', ( #255 ), #88, .F. ) ;
#263 = VECTOR ( 'NONE', #900, 1000.000000000000000 ) ;
#264 = DIRECTION ( 'NONE',  ( 0.7071067811865487940, 0.7071067811865463515, 0.000000000000000000 ) ) ;
#265 = DIRECTION ( 'NONE',  ( -1.000000000000000000, -0.000000000000000000, 8.673617379883944753E-16 ) ) ;
#266 = ORIENTED_EDGE ( 'NONE', *, *, #664, .F. ) ;
#267 = EDGE_CURVE ( 'NONE', #250, #268, #387, .T. ) ;
#268 = VERTEX_POINT ( 'NONE', #241 ) ;
#269 = LINE ( 'NONE', #455, #1102 ) ;
#270 = VECTOR ( 'NONE', #518, 1000.000000000000000 ) ;
#271 = CARTESIAN_POINT ( 'NONE',  ( 0.000000000000000000, 35.00000000000000000, 0.000000000000000000 ) ) ;
#272 = CYLINDRICAL_SURFACE ( 'NONE', #720, 1.400000000000000133 ) ;
#273 = DIRECTION ( 'NONE',  ( 0.000000000000000000, 0.000000000000000000, 1.000000000000000000 ) ) ;
#274 = EDGE_CURVE ( 'NONE', #22, #775, #544, .T. ) ;
#275 = VERTEX_POINT ( 'NONE', #644 ) ;
#276 = CARTESIAN_POINT ( 'NONE',  ( 6.499999999999992006, 17.00000000000000000, -4.500000000000000000 ) ) ;
#277 = CARTESIAN_POINT ( 'NONE',  ( -7.499999999999999112, 17.00000000000000000, 1.500000000000008438 ) ) ;
#278 = CARTESIAN_POINT ( 'NONE',  ( 7.000000000000000888, 0.000000000000000000, 6.999999999999993783 ) ) ;
#279 = CARTESIAN_POINT ( 'NONE',  ( 6.499999999999999112, 15.00000000000000355, 4.500000000000000888 ) ) ;
#280 = MANIFOLD_SOLID_BREP ( 'Cut-Extrude3', #513 ) ;
#281 = EDGE_CURVE ( 'NONE', #331, #1192, #873, .T. ) ;
#282 = ORIENTED_EDGE ( 'NONE', *, *, #319, .T. ) ;
#283 = VERTEX_POINT ( 'NONE', #55 ) ;
#284 = EDGE_CURVE ( 'NONE', #922, #746, #809, .T. ) ;
#285 = DIRECTION ( 'NONE',  ( 1.156482317317871725E-16, 0.000000000000000000, 1.000000000000000000 ) ) ;
#286 = CARTESIAN_POINT ( 'NONE',  ( 7.500000000000000888, 35.00000000000000000, -1.499999999999996891 ) ) ;
#287 = VECTOR ( 'NONE', #650, 1000.000000000000114 ) ;
#288 = LINE ( 'NONE', #1239, #1167 ) ;
#289 = EDGE_LOOP ( 'NONE', ( #606, #839 ) ) ;
#290 = AXIS2_PLACEMENT_3D ( 'NONE', #806, #501, #793 ) ;
#291 = ORIENTED_EDGE ( 'NONE', *, *, #1169, .F. ) ;
#292 = CARTESIAN_POINT ( 'NONE',  ( 7.500000000000000888, 13.00000000000000355, -7.500000000000001776 ) ) ;
#293 = ORIENTED_EDGE ( 'NONE', *, *, #186, .T. ) ;
#294 = VERTEX_POINT ( 'NONE', #679 ) ;
#295 = FACE_OUTER_BOUND ( 'NONE', #386, .T. ) ;
#296 = ADVANCED_FACE ( 'NONE', ( #188 ), #759, .F. ) ;
#297 = ORIENTED_EDGE ( 'NONE', *, *, #130, .T. ) ;
#298 = ORIENTED_EDGE ( 'NONE', *, *, #335, .T. ) ;
#299 = CARTESIAN_POINT ( 'NONE',  ( -6.499999999999988454, 35.00000000000000000, -2.499999999999999556 ) ) ;
#300 = VECTOR ( 'NONE', #1025, 1000.000000000000000 ) ;
#301 = DIRECTION ( 'NONE',  ( 0.000000000000000000, 0.000000000000000000, 1.000000000000000000 ) ) ;
#302 = DIRECTION ( 'NONE',  ( -0.5773502691896267303, 0.5773502691896265082, -0.5773502691896240657 ) ) ;
#303 = VERTEX_POINT ( 'NONE', #391 ) ;
#304 = VECTOR ( 'NONE', #264, 1000.000000000000000 ) ;
#305 = CARTESIAN_POINT ( 'NONE',  ( -7.499999999999999112, 15.00000000000000355, -2.499999999999999556 ) ) ;
#306 = VECTOR ( 'NONE', #703, 1000.000000000000000 ) ;
#307 = ORIENTED_EDGE ( 'NONE', *, *, #782, .T. ) ;
#308 = CIRCLE ( 'NONE', #239, 2.000000000000000000 ) ;
#309 = CARTESIAN_POINT ( 'NONE',  ( 6.500000000000000000, 35.00000000000000000, -7.517135062566166705E-16 ) ) ;
#310 = FACE_OUTER_BOUND ( 'NONE', #551, .T. ) ;
#311 = DIRECTION ( 'NONE',  ( 1.156482317317871725E-16, 0.000000000000000000, 1.000000000000000000 ) ) ;
#312 = ADVANCED_FACE ( 'NONE', ( #1245 ), #1026, .F. ) ;
#313 = ORIENTED_EDGE ( 'NONE', *, *, #281, .T. ) ;
#314 = AXIS2_PLACEMENT_3D ( 'NONE', #626, #829, #245 ) ;
#315 = AXIS2_PLACEMENT_3D ( 'NONE', #641, #930, #841 ) ;
#316 = LINE ( 'NONE', #422, #750 ) ;
#317 = CARTESIAN_POINT ( 'NONE',  ( -7.500000000000000000, 13.00000000000000355, -5.500000000000000000 ) ) ;
#318 = CARTESIAN_POINT ( 'NONE',  ( 0.000000000000000000, 10.00000000000000000, 3.999999999999999112 ) ) ;
#319 = EDGE_CURVE ( 'NONE', #539, #738, #109, .T. ) ;
#320 = ORIENTED_EDGE ( 'NONE', *, *, #802, .F. ) ;
#321 = CARTESIAN_POINT ( 'NONE',  ( 7.500000000000000888, 35.00000000000000000, 1.499999999999996225 ) ) ;
#322 = EDGE_CURVE ( 'NONE', #1097, #1092, #158, .T. ) ;
#323 = AXIS2_PLACEMENT_3D ( 'NONE', #674, #657, #198 ) ;
#324 = FACE_OUTER_BOUND ( 'NONE', #446, .T. ) ;
#325 = CYLINDRICAL_SURFACE ( 'NONE', #290, 1.400000000000000133 ) ;
#326 = VERTEX_POINT ( 'NONE', #1043 ) ;
#327 = CIRCLE ( 'NONE', #1187, 1.400000000000000133 ) ;
#328 = DIRECTION ( 'NONE',  ( -0.000000000000000000, -1.000000000000000000, -0.000000000000000000 ) ) ;
#329 = CARTESIAN_POINT ( 'NONE',  ( 7.500000000000000888, 17.00000000000000000, -1.499999999999997113 ) ) ;
#330 = DIRECTION ( 'NONE',  ( 0.000000000000000000, -1.000000000000000000, 0.000000000000000000 ) ) ;
#331 = VERTEX_POINT ( 'NONE', #1062 ) ;
#332 = CARTESIAN_POINT ( 'NONE',  ( 7.500000000000000000, 0.000000000000000000, -7.500000000000001776 ) ) ;
#333 = PLANE ( 'NONE',  #344 ) ;
#334 = DIRECTION ( 'NONE',  ( -5.782411586589357392E-17, -0.000000000000000000, -1.000000000000000000 ) ) ;
#335 = EDGE_CURVE ( 'NONE', #56, #294, #572, .T. ) ;
#336 = EDGE_CURVE ( 'NONE', #1053, #1224, #765, .T. ) ;
#337 = ORIENTED_EDGE ( 'NONE', *, *, #203, .F. ) ;
#338 = EDGE_CURVE ( 'NONE', #1030, #1070, #288, .T. ) ;
#339 = DIRECTION ( 'NONE',  ( 1.156482317317871725E-16, 0.000000000000000000, 1.000000000000000000 ) ) ;
#340 = FACE_OUTER_BOUND ( 'NONE', #1123, .T. ) ;
#341 = CARTESIAN_POINT ( 'NONE',  ( 0.000000000000000000, 0.000000000000000000, 3.999999999999999112 ) ) ;
#342 = ORIENTED_EDGE ( 'NONE', *, *, #223, .F. ) ;
#343 = ORIENTED_EDGE ( 'NONE', *, *, #726, .F. ) ;
#344 = AXIS2_PLACEMENT_3D ( 'NONE', #786, #147, #1094 ) ;
#345 = FACE_OUTER_BOUND ( 'NONE', #1000, .T. ) ;
#346 = AXIS2_PLACEMENT_3D ( 'NONE', #51, #348, #637 ) ;
#347 = DIRECTION ( 'NONE',  ( -1.156482317317871478E-16, -0.000000000000000000, -1.000000000000000000 ) ) ;
#348 = DIRECTION ( 'NONE',  ( -0.7071067811865479058, -0.000000000000000000, -0.7071067811865471286 ) ) ;
#349 = VERTEX_POINT ( 'NONE', #98 ) ;
#350 = ORIENTED_EDGE ( 'NONE', *, *, #827, .F. ) ;
#351 = DIRECTION ( 'NONE',  ( 1.000000000000000000, -0.000000000000000000, -1.156482317317871478E-16 ) ) ;
#352 = CARTESIAN_POINT ( 'NONE',  ( 7.500000000000001776, 13.00000000000000355, 5.499999999999998224 ) ) ;
#353 = CARTESIAN_POINT ( 'NONE',  ( -7.499999999999998224, 14.00000000000000888, 4.500000000000002665 ) ) ;
#354 = CONICAL_SURFACE ( 'NONE', #904, 0.9999999999999965583, 0.7853981633974482790 ) ;
#355 = DIRECTION ( 'NONE',  ( 0.000000000000000000, 0.000000000000000000, 1.000000000000000000 ) ) ;
#356 = ORIENTED_EDGE ( 'NONE', *, *, #725, .T. ) ;
#357 = ORIENTED_EDGE ( 'NONE', *, *, #693, .T. ) ;
#358 = CARTESIAN_POINT ( 'NONE',  ( 6.499999999999998224, 15.00000000000000355, 5.499999999999998224 ) ) ;
#359 = CARTESIAN_POINT ( 'NONE',  ( 7.500000000000000000, 13.99999999999999822, -5.500000000000001776 ) ) ;
#360 = ADVANCED_FACE ( 'NONE', ( #1156 ), #1117, .T. ) ;
#361 = LINE ( 'NONE', #286, #182 ) ;
#362 = CARTESIAN_POINT ( 'NONE',  ( 7.500000000000000000, 35.00000000000000000, -6.499999999999997335 ) ) ;
#363 = ORIENTED_EDGE ( 'NONE', *, *, #604, .T. ) ;
#364 = ORIENTED_EDGE ( 'NONE', *, *, #41, .T. ) ;
#365 = DIRECTION ( 'NONE',  ( 1.000000000000000000, 0.000000000000000000, -1.156482317317871725E-16 ) ) ;
#366 = CIRCLE ( 'NONE', #1227, 2.000000000000000000 ) ;
#367 = DIRECTION ( 'NONE',  ( 0.000000000000000000, -1.000000000000000000, 0.000000000000000000 ) ) ;
#368 = VECTOR ( 'NONE', #495, 1000.000000000000000 ) ;
#369 = DIRECTION ( 'NONE',  ( -1.156482317317871725E-16, 0.000000000000000000, -1.000000000000000000 ) ) ;
#370 = DIRECTION ( 'NONE',  ( -0.7071067811865484609, -0.7071067811865465735, 0.000000000000000000 ) ) ;
#371 = EDGE_LOOP ( 'NONE', ( #1084, #1211, #59, #964 ) ) ;
#372 = VERTEX_POINT ( 'NONE', #1057 ) ;
#373 = CARTESIAN_POINT ( 'NONE',  ( -7.499999999999999112, 13.00000000000000355, 7.500000000000000000 ) ) ;
#374 = DIRECTION ( 'NONE',  ( 1.000000000000000000, -0.000000000000000000, -0.000000000000000000 ) ) ;
#375 = ADVANCED_FACE ( 'NONE', ( #484 ), #4, .T. ) ;
#376 = DIRECTION ( 'NONE',  ( 0.5773502691896255090, -0.5773502691896256200, -0.5773502691896260641 ) ) ;
#377 = VECTOR ( 'NONE', #1204, 1000.000000000000000 ) ;
#378 = VECTOR ( 'NONE', #302, 1000.000000000000000 ) ;
#379 = ORIENTED_EDGE ( 'NONE', *, *, #433, .F. ) ;
#380 = EDGE_CURVE ( 'NONE', #515, #745, #1090, .T. ) ;
#381 = ADVANCED_FACE ( 'NONE', ( #324 ), #1140, .T. ) ;
#382 = PRODUCT_RELATED_PRODUCT_CATEGORY ( 'part', '', ( #453 ) ) ;
#383 = ORIENTED_EDGE ( 'NONE', *, *, #869, .F. ) ;
#384 = DIRECTION ( 'NONE',  ( 0.000000000000000000, -1.000000000000000000, 0.000000000000000000 ) ) ;
#385 = FACE_OUTER_BOUND ( 'NONE', #526, .T. ) ;
#386 = EDGE_LOOP ( 'NONE', ( #185, #307, #988, #567 ) ) ;
#387 = CIRCLE ( 'NONE', #37, 5.000000000000003553 ) ;
#388 = ORIENTED_EDGE ( 'NONE', *, *, #811, .F. ) ;
#389 = DIRECTION ( 'NONE',  ( -1.000000000000000000, -0.000000000000000000, 1.156482317317871725E-16 ) ) ;
#390 = VECTOR ( 'NONE', #1036, 1000.000000000000000 ) ;
#391 = CARTESIAN_POINT ( 'NONE',  ( -7.499999999999998224, 14.00000000000000888, 5.500000000000000000 ) ) ;
#392 = ORIENTED_EDGE ( 'NONE', *, *, #675, .F. ) ;
#393 = FACE_OUTER_BOUND ( 'NONE', #503, .T. ) ;
#394 = EDGE_CURVE ( 'NONE', #875, #439, #967, .T. ) ;
#395 = CARTESIAN_POINT ( 'NONE',  ( 6.499999999999998224, 17.00000000000000000, 2.500000000000000444 ) ) ;
#396 = ORIENTED_EDGE ( 'NONE', *, *, #962, .F. ) ;
#397 = ORIENTED_EDGE ( 'NONE', *, *, #788, .F. ) ;
#398 = EDGE_CURVE ( 'NONE', #303, #349, #43, .T. ) ;
#399 = PLANE ( 'NONE',  #590 ) ;
#400 =( NAMED_UNIT ( * ) SI_UNIT ( $, .STERADIAN. ) SOLID_ANGLE_UNIT ( ) );
#401 = ADVANCED_FACE ( 'NONE', ( #992 ), #228, .T. ) ;
#402 = EDGE_LOOP ( 'NONE', ( #711, #870, #236, #972 ) ) ;
#403 = CARTESIAN_POINT ( 'NONE',  ( 7.500000000000000000, 0.000000000000000000, -7.500000000000001776 ) ) ;
#404 = VERTEX_POINT ( 'NONE', #419 ) ;
#405 = CARTESIAN_POINT ( 'NONE',  ( 7.500000000000000888, 17.00000000000000000, -1.499999999999998002 ) ) ;
#406 = AXIS2_PLACEMENT_3D ( 'NONE', #74, #365, #1236 ) ;
#407 = DIRECTION ( 'NONE',  ( 0.000000000000000000, -1.000000000000000000, 0.000000000000000000 ) ) ;
#408 = EDGE_CURVE ( 'NONE', #445, #1240, #801, .T. ) ;
#409 = CARTESIAN_POINT ( 'NONE',  ( 1.714505518806294391E-16, 10.00000000000000000, 5.399999999999999467 ) ) ;
#410 = EDGE_LOOP ( 'NONE', ( #1137, #1131, #968, #1162 ) ) ;
#411 = VECTOR ( 'NONE', #64, 1000.000000000000000 ) ;
#412 = DIRECTION ( 'NONE',  ( 0.000000000000000000, -1.000000000000000000, 0.000000000000000000 ) ) ;
#413 = DIRECTION ( 'NONE',  ( -1.000000000000000000, 0.000000000000000000, 1.156482317317871725E-16 ) ) ;
#414 = FACE_OUTER_BOUND ( 'NONE', #767, .T. ) ;
#415 = ORIENTED_EDGE ( 'NONE', *, *, #433, .T. ) ;
#416 = EDGE_CURVE ( 'NONE', #973, #738, #1020, .T. ) ;
#417 = VECTOR ( 'NONE', #1155, 1000.000000000000000 ) ;
#418 = LINE ( 'NONE', #1085, #263 ) ;
#419 = CARTESIAN_POINT ( 'NONE',  ( 0.000000000000000000, 10.00000000000000000, 2.599999999999999201 ) ) ;
#420 = LINE ( 'NONE', #1002, #270 ) ;
#421 = EDGE_LOOP ( 'NONE', ( #298, #459, #956, #1145 ) ) ;
#422 = CARTESIAN_POINT ( 'NONE',  ( -7.166666666666659857, 34.33333333333332860, 1.833333333333346582 ) ) ;
#423 = AXIS2_PLACEMENT_3D ( 'NONE', #577, #566, #582 ) ;
#424 = DIRECTION ( 'NONE',  ( 0.000000000000000000, 0.000000000000000000, -1.000000000000000000 ) ) ;
#425 = LINE ( 'NONE', #813, #304 ) ;
#426 = PLANE ( 'NONE',  #594 ) ;
#427 = ORIENTED_EDGE ( 'NONE', *, *, #974, .F. ) ;
#428 = VECTOR ( 'NONE', #742, 1000.000000000000000 ) ;
#429 = AXIS2_PLACEMENT_3D ( 'NONE', #1151, #660, #1146 ) ;
#430 = FACE_BOUND ( 'NONE', #1219, .T. ) ;
#431 = DIRECTION ( 'NONE',  ( 0.000000000000000000, 0.000000000000000000, -1.000000000000000000 ) ) ;
#432 = DIRECTION ( 'NONE',  ( 0.000000000000000000, 1.000000000000000000, 0.000000000000000000 ) ) ;
#433 = EDGE_CURVE ( 'NONE', #283, #1053, #888, .T. ) ;
#434 = ORIENTED_EDGE ( 'NONE', *, *, #827, .T. ) ;
#435 = AXIS2_PLACEMENT_3D ( 'NONE', #26, #219, #1074 ) ;
#436 = DIRECTION ( 'NONE',  ( -1.156482317317871725E-16, 0.000000000000000000, -1.000000000000000000 ) ) ;
#437 = PLANE ( 'NONE',  #1186 ) ;
#438 = LINE ( 'NONE', #362, #855 ) ;
#439 = VERTEX_POINT ( 'NONE', #517 ) ;
#440 = EDGE_LOOP ( 'NONE', ( #208, #618 ) ) ;
#441 = LINE ( 'NONE', #232, #94 ) ;
#442 = CARTESIAN_POINT ( 'NONE',  ( 7.500000000000000000, 0.000000000000000000, -6.499999999999997335 ) ) ;
#443 = DIRECTION ( 'NONE',  ( -1.000000000000000000, -0.000000000000000000, 8.673617379883944753E-16 ) ) ;
#444 = EDGE_CURVE ( 'NONE', #1240, #559, #224, .T. ) ;
#445 = VERTEX_POINT ( 'NONE', #998 ) ;
#446 = EDGE_LOOP ( 'NONE', ( #135, #5, #600, #1210 ) ) ;
#447 = LINE ( 'NONE', #373, #744 ) ;
#448 = VECTOR ( 'NONE', #70, 1000.000000000000000 ) ;
#449 = CIRCLE ( 'NONE', #610, 1.400000000000000133 ) ;
#450 = LINE ( 'NONE', #359, #479 ) ;
#451 = DIRECTION ( 'NONE',  ( 0.7071067811865469066, 0.000000000000000000, -0.7071067811865481278 ) ) ;
#452 = CARTESIAN_POINT ( 'NONE',  ( -6.499999999999989342, 15.00000000000000355, -5.500000000000000000 ) ) ;
#453 = PRODUCT ( 'Rear-Gearbox-Axle-Support', 'Rear-Gearbox-Axle-Support', '', ( #694 ) ) ;
#454 = VERTEX_POINT ( 'NONE', #908 ) ;
#455 = CARTESIAN_POINT ( 'NONE',  ( 7.500000000000000000, 13.99999999999999822, -4.500000000000000000 ) ) ;
#456 = EDGE_CURVE ( 'NONE', #1158, #579, #534, .T. ) ;
#457 = FACE_OUTER_BOUND ( 'NONE', #778, .T. ) ;
#458 = CARTESIAN_POINT ( 'NONE',  ( 6.499999999999998224, 13.00000000000000355, 5.499999999999998224 ) ) ;
#459 = ORIENTED_EDGE ( 'NONE', *, *, #857, .F. ) ;
#460 = ORIENTED_EDGE ( 'NONE', *, *, #394, .F. ) ;
#461 = DIRECTION ( 'NONE',  ( -1.000000000000000000, -0.000000000000000000, 1.156482317317871725E-16 ) ) ;
#462 = LINE ( 'NONE', #581, #148 ) ;
#463 = DIRECTION ( 'NONE',  ( 1.000000000000000000, 0.000000000000000000, 0.000000000000000000 ) ) ;
#464 = DIRECTION ( 'NONE',  ( 1.000000000000000000, 0.000000000000000000, -8.673617379884029309E-17 ) ) ;
#465 = VERTEX_POINT ( 'NONE', #707 ) ;
#466 = EDGE_LOOP ( 'NONE', ( #1114, #493, #92, #363 ) ) ;
#467 = CARTESIAN_POINT ( 'NONE',  ( 7.500000000000000000, 34.00000000000000000, -7.500000000000001776 ) ) ;
#468 = CIRCLE ( 'NONE', #954, 1.400000000000000133 ) ;
#469 = DIRECTION ( 'NONE',  ( 0.000000000000000000, 0.000000000000000000, 1.000000000000000000 ) ) ;
#470 = LINE ( 'NONE', #1244, #1232 ) ;
#471 = EDGE_CURVE ( 'NONE', #454, #1158, #812, .T. ) ;
#472 = DIRECTION ( 'NONE',  ( 0.000000000000000000, 0.000000000000000000, 1.000000000000000000 ) ) ;
#473 = LINE ( 'NONE', #409, #1214 ) ;
#474 = APPLICATION_CONTEXT ( 'automotive_design' ) ;
#475 = EDGE_LOOP ( 'NONE', ( #496, #487, #883, #397 ) ) ;
#476 = LINE ( 'NONE', #763, #1033 ) ;
#477 = DIRECTION ( 'NONE',  ( 0.000000000000000000, -1.000000000000000000, 0.000000000000000000 ) ) ;
#478 = VECTOR ( 'NONE', #1022, 1000.000000000000000 ) ;
#479 = VECTOR ( 'NONE', #1013, 1000.000000000000000 ) ;
#480 = ORIENTED_EDGE ( 'NONE', *, *, #416, .T. ) ;
#481 = VERTEX_POINT ( 'NONE', #1093 ) ;
#482 = CARTESIAN_POINT ( 'NONE',  ( -6.499999999999988454, 15.00000000000000355, -2.499999999999999556 ) ) ;
#483 = APPLICATION_PROTOCOL_DEFINITION ( 'draft international standard', 'automotive_design', 1998, #86 ) ;
#484 = FACE_OUTER_BOUND ( 'NONE', #402, .T. ) ;
#485 = EDGE_LOOP ( 'NONE', ( #1107, #460, #171, #342 ) ) ;
#486 = VECTOR ( 'NONE', #867, 1000.000000000000000 ) ;
#487 = ORIENTED_EDGE ( 'NONE', *, *, #471, .T. ) ;
#488 = DIRECTION ( 'NONE',  ( 0.7071067811865465735, 0.000000000000000000, 0.7071067811865484609 ) ) ;
#489 = AXIS2_PLACEMENT_3D ( 'NONE', #305, #44, #1008 ) ;
#490 = AXIS2_PLACEMENT_3D ( 'NONE', #112, #1072, #222 ) ;
#491 = EDGE_LOOP ( 'NONE', ( #861, #983, #32, #1202 ) ) ;
#492 = EDGE_CURVE ( 'NONE', #331, #746, #131, .T. ) ;
#493 = ORIENTED_EDGE ( 'NONE', *, *, #903, .T. ) ;
#494 = ADVANCED_FACE ( 'NONE', ( #430, #1168, #310 ), #695, .T. ) ;
#495 = DIRECTION ( 'NONE',  ( 0.000000000000000000, -1.000000000000000000, 0.000000000000000000 ) ) ;
#496 = ORIENTED_EDGE ( 'NONE', *, *, #41, .F. ) ;
#497 = EDGE_LOOP ( 'NONE', ( #282, #687, #116, #828 ) ) ;
#498 = UNCERTAINTY_MEASURE_WITH_UNIT (LENGTH_MEASURE( 1.000000000000000082E-05 ), #848, 'distance_accuracy_value', 'NONE');
#499 = CARTESIAN_POINT ( 'NONE',  ( 0.000000000000000000, 10.00000000000000000, -4.000000000000000000 ) ) ;
#500 = DIRECTION ( 'NONE',  ( 1.000000000000000000, 0.000000000000000000, -1.156482317317871725E-16 ) ) ;
#501 = DIRECTION ( 'NONE',  ( -0.000000000000000000, -1.000000000000000000, -0.000000000000000000 ) ) ;
#502 = CARTESIAN_POINT ( 'NONE',  ( 7.500000000000000000, 17.00000000000000000, -4.500000000000000888 ) ) ;
#503 = EDGE_LOOP ( 'NONE', ( #761, #1032, #658, #807, #293, #833, #1044, #955, #1159, #826, #977, #165 ) ) ;
#504 = EDGE_CURVE ( 'NONE', #1092, #681, #450, .T. ) ;
#505 = CARTESIAN_POINT ( 'NONE',  ( -6.500000000000000888, 13.00000000000000355, 7.500000000000000000 ) ) ;
#506 = CARTESIAN_POINT ( 'NONE',  ( -6.499999999999988454, 35.00000000000000000, -7.500000000000000000 ) ) ;
#507 = EDGE_CURVE ( 'NONE', #816, #706, #61, .T. ) ;
#508 = CIRCLE ( 'NONE', #589, 2.000000000000000000 ) ;
#509 = DIRECTION ( 'NONE',  ( -0.000000000000000000, -0.000000000000000000, 1.000000000000000000 ) ) ;
#510 = EDGE_CURVE ( 'NONE', #755, #326, #712, .T. ) ;
#511 = ORIENTED_EDGE ( 'NONE', *, *, #719, .F. ) ;
#512 = AXIS2_PLACEMENT_3D ( 'NONE', #981, #889, #311 ) ;
#513 = CLOSED_SHELL ( 'NONE', ( #53, #1048, #145, #90, #296, #625, #100, #632, #494, #1021, #75, #1031, #598, #906, #401, #940, #603, #602, #237, #808, #576, #360, #783, #375, #1007, #1069, #226, #984, #1208, #748, #1157, #1141, #381, #724, #565, #262, #312, #770, #1083, #143, #1118, #1004, #146, #39 ) ) ;
#514 = PLANE ( 'NONE',  #772 ) ;
#515 = VERTEX_POINT ( 'NONE', #945 ) ;
#516 = DIRECTION ( 'NONE',  ( -0.7071067811865492381, 0.000000000000000000, -0.7071067811865457964 ) ) ;
#517 = CARTESIAN_POINT ( 'NONE',  ( 7.500000000000001776, 13.00000000000000355, 6.499999999999994671 ) ) ;
#518 = DIRECTION ( 'NONE',  ( -1.000000000000000000, 0.000000000000000000, 1.156482317317871478E-16 ) ) ;
#519 = ORIENTED_EDGE ( 'NONE', *, *, #8, .F. ) ;
#520 = EDGE_CURVE ( 'NONE', #745, #1240, #740, .T. ) ;
#521 = DIRECTION ( 'NONE',  ( 0.000000000000000000, -1.000000000000000000, 0.000000000000000000 ) ) ;
#522 = EDGE_CURVE ( 'NONE', #1070, #515, #54, .T. ) ;
#523 = VECTOR ( 'NONE', #1125, 1000.000000000000000 ) ;
#524 = CARTESIAN_POINT ( 'NONE',  ( -6.500000000000000888, 35.00000000000000000, 7.500000000000000000 ) ) ;
#525 = CARTESIAN_POINT ( 'NONE',  ( 0.000000000000000000, 15.00000000000000355, 0.000000000000000000 ) ) ;
#526 = EDGE_LOOP ( 'NONE', ( #1088, #350, #1108, #574 ) ) ;
#527 = VECTOR ( 'NONE', #49, 1000.000000000000000 ) ;
#528 = AXIS2_PLACEMENT_3D ( 'NONE', #89, #488, #384 ) ;
#529 = LINE ( 'NONE', #620, #478 ) ;
#530 = DIRECTION ( 'NONE',  ( 1.000000000000000000, 0.000000000000000000, -5.782411586589357392E-17 ) ) ;
#531 = DIRECTION ( 'NONE',  ( -5.782411586589357392E-17, -0.000000000000000000, -1.000000000000000000 ) ) ;
#532 = VERTEX_POINT ( 'NONE', #1098 ) ;
#533 = AXIS2_PLACEMENT_3D ( 'NONE', #937, #1198, #727 ) ;
#534 = CIRCLE ( 'NONE', #864, 1.400000000000000133 ) ;
#535 = EDGE_CURVE ( 'NONE', #120, #775, #836, .T. ) ;
#536 = PLANE ( 'NONE',  #733 ) ;
#537 = DIRECTION ( 'NONE',  ( 0.000000000000000000, 0.000000000000000000, -1.000000000000000000 ) ) ;
#538 = SURFACE_SIDE_STYLE ('',( #1129 ) ) ;
#539 = VERTEX_POINT ( 'NONE', #1127 ) ;
#540 = VERTEX_POINT ( 'NONE', #1119 ) ;
#541 = CARTESIAN_POINT ( 'NONE',  ( 0.000000000000000000, 25.00000000000000000, -17.50000000000000000 ) ) ;
#542 = EDGE_CURVE ( 'NONE', #738, #445, #1215, .T. ) ;
#543 = CARTESIAN_POINT ( 'NONE',  ( -6.500000000000001776, 15.00000000000000355, 7.517135062566168677E-16 ) ) ;
#544 = CIRCLE ( 'NONE', #741, 2.000000000000000000 ) ;
#545 = CARTESIAN_POINT ( 'NONE',  ( -6.999999999999986677, -0.000000000000000000, -7.000000000000004441 ) ) ;
#546 = DIRECTION ( 'NONE',  ( 0.000000000000000000, 0.000000000000000000, -1.000000000000000000 ) ) ;
#547 = ORIENTED_EDGE ( 'NONE', *, *, #901, .F. ) ;
#548 = ORIENTED_EDGE ( 'NONE', *, *, #561, .T. ) ;
#549 = FACE_OUTER_BOUND ( 'NONE', #676, .T. ) ;
#550 = DIRECTION ( 'NONE',  ( -0.7071067811865479058, 0.000000000000000000, 0.7071067811865471286 ) ) ;
#551 = EDGE_LOOP ( 'NONE', ( #844, #677, #337, #615, #193, #639, #662, #978 ) ) ;
#552 = CIRCLE ( 'NONE', #996, 1.400000000000000133 ) ;
#553 = ORIENTED_EDGE ( 'NONE', *, *, #113, .F. ) ;
#554 = DIRECTION ( 'NONE',  ( 1.156482317317871725E-16, 0.000000000000000000, 1.000000000000000000 ) ) ;
#555 = CARTESIAN_POINT ( 'NONE',  ( 5.204170427930423255E-16, 17.00000000000000000, 4.500000000000001776 ) ) ;
#556 = CARTESIAN_POINT ( 'NONE',  ( 6.499999999999999112, 15.00000000000000355, 4.500000000000000888 ) ) ;
#557 = DIRECTION ( 'NONE',  ( 1.000000000000000000, 0.000000000000000000, 0.000000000000000000 ) ) ;
#558 = ORIENTED_EDGE ( 'NONE', *, *, #507, .F. ) ;
#559 = VERTEX_POINT ( 'NONE', #154 ) ;
#560 = LINE ( 'NONE', #358, #849 ) ;
#561 = EDGE_CURVE ( 'NONE', #481, #973, #441, .T. ) ;
#562 = EDGE_CURVE ( 'NONE', #404, #722, #529, .T. ) ;
#563 = LINE ( 'NONE', #1237, #648 ) ;
#564 = CARTESIAN_POINT ( 'NONE',  ( 6.499999999999992006, 13.00000000000000355, -5.500000000000001776 ) ) ;
#565 = ADVANCED_FACE ( 'NONE', ( #345 ), #48, .T. ) ;
#566 = DIRECTION ( 'NONE',  ( -1.000000000000000000, -0.000000000000000000, -0.000000000000000000 ) ) ;
#567 = ORIENTED_EDGE ( 'NONE', *, *, #802, .T. ) ;
#568 = CIRCLE ( 'NONE', #1005, 1.000000000000005995 ) ;
#569 = ORIENTED_EDGE ( 'NONE', *, *, #957, .F. ) ;
#570 = CARTESIAN_POINT ( 'NONE',  ( -6.500000000000000888, 15.00000000000000355, 4.500000000000002665 ) ) ;
#571 = CARTESIAN_POINT ( 'NONE',  ( -6.500000000000000888, 35.00000000000000000, 7.500000000000000000 ) ) ;
#572 = LINE ( 'NONE', #395, #486 ) ;
#573 = CIRCLE ( 'NONE', #24, 3.000000000000002665 ) ;
#574 = ORIENTED_EDGE ( 'NONE', *, *, #785, .T. ) ;
#575 = CARTESIAN_POINT ( 'NONE',  ( -7.499999999999999112, 35.00000000000000000, 1.500000000000008216 ) ) ;
#576 = ADVANCED_FACE ( 'NONE', ( #260 ), #354, .T. ) ;
#577 = CARTESIAN_POINT ( 'NONE',  ( -6.500000000000000888, 17.00000000000000000, 4.500000000000002665 ) ) ;
#578 = AXIS2_PLACEMENT_3D ( 'NONE', #543, #168, #436 ) ;
#579 = VERTEX_POINT ( 'NONE', #822 ) ;
#580 = EDGE_LOOP ( 'NONE', ( #1113, #392, #1075, #320 ) ) ;
#581 = CARTESIAN_POINT ( 'NONE',  ( 7.500000000000000000, 13.99999999999999822, -4.500000000000000888 ) ) ;
#582 = DIRECTION ( 'NONE',  ( 0.000000000000000000, 0.000000000000000000, -1.000000000000000000 ) ) ;
#583 = ORIENTED_EDGE ( 'NONE', *, *, #865, .F. ) ;
#584 = EDGE_CURVE ( 'NONE', #745, #905, #247, .T. ) ;
#585 = MECHANICAL_DESIGN_GEOMETRIC_PRESENTATION_REPRESENTATION (  '', ( #218 ), #1126 ) ;
#586 = ORIENTED_EDGE ( 'NONE', *, *, #335, .F. ) ;
#587 = VECTOR ( 'NONE', #212, 1000.000000000000000 ) ;
#588 = CARTESIAN_POINT ( 'NONE',  ( -7.499999999999999112, 17.00000000000000000, 1.500000000000005995 ) ) ;
#589 = AXIS2_PLACEMENT_3D ( 'NONE', #564, #84, #1128 ) ;
#590 = AXIS2_PLACEMENT_3D ( 'NONE', #1174, #1078, #892 ) ;
#591 = VERTEX_POINT ( 'NONE', #1193 ) ;
#592 = ORIENTED_EDGE ( 'NONE', *, *, #691, .F. ) ;
#593 = LINE ( 'NONE', #684, #368 ) ;
#594 = AXIS2_PLACEMENT_3D ( 'NONE', #709, #617, #814 ) ;
#595 = CARTESIAN_POINT ( 'NONE',  ( 6.360652745248293008E-16, 13.00000000000000355, 5.499999999999999112 ) ) ;
#596 = CARTESIAN_POINT ( 'NONE',  ( 7.500000000000001776, 13.99999999999999822, 5.499999999999998224 ) ) ;
#597 = VECTOR ( 'NONE', #792, 1000.000000000000000 ) ;
#598 = ADVANCED_FACE ( 'NONE', ( #76 ), #536, .T. ) ;
#599 = CARTESIAN_POINT ( 'NONE',  ( 5.000000000000003553, 25.00000000000000000, -17.50000000000000000 ) ) ;
#600 = ORIENTED_EDGE ( 'NONE', *, *, #1110, .F. ) ;
#601 = CARTESIAN_POINT ( 'NONE',  ( 7.500000000000001776, 13.99999999999999822, 5.499999999999998224 ) ) ;
#602 = ADVANCED_FACE ( 'NONE', ( #457 ), #1035, .F. ) ;
#603 = ADVANCED_FACE ( 'NONE', ( #1103 ), #238, .F. ) ;
#604 = EDGE_CURVE ( 'NONE', #540, #681, #975, .T. ) ;
#605 = FACE_OUTER_BOUND ( 'NONE', #580, .T. ) ;
#606 = ORIENTED_EDGE ( 'NONE', *, *, #205, .F. ) ;
#607 = AXIS2_PLACEMENT_3D ( 'NONE', #636, #15, #537 ) ;
#608 = DIRECTION ( 'NONE',  ( 0.000000000000000000, 0.000000000000000000, -1.000000000000000000 ) ) ;
#609 = ORIENTED_EDGE ( 'NONE', *, *, #989, .F. ) ;
#610 = AXIS2_PLACEMENT_3D ( 'NONE', #1087, #21, #1095 ) ;
#611 = CARTESIAN_POINT ( 'NONE',  ( 6.499999999999998224, 13.00000000000000355, 7.499999999999998224 ) ) ;
#612 = VECTOR ( 'NONE', #87, 1000.000000000000000 ) ;
#613 = CARTESIAN_POINT ( 'NONE',  ( -7.500000000000000000, 35.00000000000000000, -6.499999999999991118 ) ) ;
#614 = CARTESIAN_POINT ( 'NONE',  ( -7.500000000000000000, 35.00000000000000000, -7.500000000000000000 ) ) ;
#615 = ORIENTED_EDGE ( 'NONE', *, *, #1173, .T. ) ;
#616 = CARTESIAN_POINT ( 'NONE',  ( 1.714505518806294391E-16, 10.00000000000000000, -2.600000000000000089 ) ) ;
#617 = DIRECTION ( 'NONE',  ( 1.156482317317871725E-16, -0.000000000000000000, 1.000000000000000000 ) ) ;
#618 = ORIENTED_EDGE ( 'NONE', *, *, #456, .F. ) ;
#619 = EDGE_CURVE ( 'NONE', #745, #1030, #195, .T. ) ;
#620 = CARTESIAN_POINT ( 'NONE',  ( 0.000000000000000000, 10.00000000000000000, 2.599999999999999201 ) ) ;
#621 = VECTOR ( 'NONE', #554, 1000.000000000000000 ) ;
#622 = FACE_OUTER_BOUND ( 'NONE', #12, .T. ) ;
#623 = DIRECTION ( 'NONE',  ( -1.000000000000000000, 0.000000000000000000, 0.000000000000000000 ) ) ;
#624 = ORIENTED_EDGE ( 'NONE', *, *, #1096, .F. ) ;
#625 = ADVANCED_FACE ( 'NONE', ( #393 ), #96, .F. ) ;
#626 = CARTESIAN_POINT ( 'NONE',  ( -2.602085213965210642E-16, 17.00000000000000000, -4.500000000000000000 ) ) ;
#627 = DIRECTION ( 'NONE',  ( 1.156482317317871478E-16, 0.000000000000000000, 1.000000000000000000 ) ) ;
#628 = FACE_OUTER_BOUND ( 'NONE', #421, .T. ) ;
#629 = ORIENTED_EDGE ( 'NONE', *, *, #203, .T. ) ;
#630 = ORIENTED_EDGE ( 'NONE', *, *, #1173, .F. ) ;
#631 = LINE ( 'NONE', #309, #306 ) ;
#632 = ADVANCED_FACE ( 'NONE', ( #295 ), #951, .F. ) ;
#633 = VECTOR ( 'NONE', #161, 1000.000000000000000 ) ;
#634 = CARTESIAN_POINT ( 'NONE',  ( -6.499999999999988454, 13.00000000000000355, -7.500000000000000000 ) ) ;
#635 = EDGE_CURVE ( 'NONE', #1092, #821, #462, .T. ) ;
#636 = CARTESIAN_POINT ( 'NONE',  ( 7.500000000000001776, 17.00000000000000000, 4.500000000000000888 ) ) ;
#637 = DIRECTION ( 'NONE',  ( 0.000000000000000000, -1.000000000000000000, 0.000000000000000000 ) ) ;
#638 = ORIENTED_EDGE ( 'NONE', *, *, #1076, .T. ) ;
#639 = ORIENTED_EDGE ( 'NONE', *, *, #754, .T. ) ;
#640 = CARTESIAN_POINT ( 'NONE',  ( 7.500000000000000000, 13.00000000000000355, -6.499999999999997335 ) ) ;
#641 = CARTESIAN_POINT ( 'NONE',  ( 0.000000000000000000, 0.000000000000000000, 0.000000000000000000 ) ) ;
#642 = VECTOR ( 'NONE', #10, 999.9999999999998863 ) ;
#643 = CARTESIAN_POINT ( 'NONE',  ( -7.500000000000000000, 13.00000000000000355, -6.499999999999991118 ) ) ;
#644 = CARTESIAN_POINT ( 'NONE',  ( 6.499999999999997335, 35.00000000000000000, 2.500000000000000444 ) ) ;
#645 = ORIENTED_EDGE ( 'NONE', *, *, #284, .T. ) ;
#646 = DIRECTION ( 'NONE',  ( -0.7071067811865460184, 0.000000000000000000, 0.7071067811865490160 ) ) ;
#647 = AXIS2_PLACEMENT_3D ( 'NONE', #1056, #463, #1147 ) ;
#648 = VECTOR ( 'NONE', #389, 1000.000000000000000 ) ;
#649 = DIRECTION ( 'NONE',  ( 0.000000000000000000, -0.000000000000000000, 1.000000000000000000 ) ) ;
#650 = DIRECTION ( 'NONE',  ( 0.7071067811865483499, -0.000000000000000000, -0.7071067811865465735 ) ) ;
#651 = CARTESIAN_POINT ( 'NONE',  ( -7.500000000000000000, 0.000000000000000000, -7.500000000000000000 ) ) ;
#652 = ORIENTED_EDGE ( 'NONE', *, *, #408, .F. ) ;
#653 = ORIENTED_EDGE ( 'NONE', *, *, #994, .F. ) ;
#654 = CIRCLE ( 'NONE', #1209, 5.000000000000003553 ) ;
#655 = DIRECTION ( 'NONE',  ( 0.000000000000000000, -0.000000000000000000, -1.000000000000000000 ) ) ;
#656 = CARTESIAN_POINT ( 'NONE',  ( -2.602085213965210642E-16, 15.00000000000000355, -4.500000000000000000 ) ) ;
#657 = DIRECTION ( 'NONE',  ( -1.156482317317871725E-16, 0.000000000000000000, -1.000000000000000000 ) ) ;
#658 = ORIENTED_EDGE ( 'NONE', *, *, #322, .T. ) ;
#659 = CARTESIAN_POINT ( 'NONE',  ( -6.499999999999989342, 15.00000000000000355, -5.500000000000000000 ) ) ;
#660 = DIRECTION ( 'NONE',  ( 1.000000000000000000, 0.000000000000000000, -1.156482317317871725E-16 ) ) ;
#661 = DIRECTION ( 'NONE',  ( -0.7071067811865475727, -0.7071067811865475727, 8.177564888977997868E-17 ) ) ;
#662 = ORIENTED_EDGE ( 'NONE', *, *, #1046, .F. ) ;
#663 = ORIENTED_EDGE ( 'NONE', *, *, #1231, .T. ) ;
#664 = EDGE_CURVE ( 'NONE', #349, #672, #863, .T. ) ;
#665 = AXIS2_PLACEMENT_3D ( 'NONE', #735, #477, #1049 ) ;
#666 = CARTESIAN_POINT ( 'NONE',  ( 6.499999999999998224, 13.00000000000000355, 7.499999999999998224 ) ) ;
#667 = DIRECTION ( 'NONE',  ( 0.000000000000000000, 0.000000000000000000, -1.000000000000000000 ) ) ;
#668 = DIRECTION ( 'NONE',  ( -1.000000000000000000, 0.000000000000000000, 0.000000000000000000 ) ) ;
#669 = VECTOR ( 'NONE', #1217, 1000.000000000000000 ) ;
#670 = VERTEX_POINT ( 'NONE', #751 ) ;
#671 = AXIS2_PLACEMENT_3D ( 'NONE', #128, #714, #915 ) ;
#672 = VERTEX_POINT ( 'NONE', #277 ) ;
#673 = DIRECTION ( 'NONE',  ( -1.156482317317871725E-16, 0.000000000000000000, -1.000000000000000000 ) ) ;
#674 = CARTESIAN_POINT ( 'NONE',  ( 7.500000000000001776, 35.00000000000000000, 7.499999999999998224 ) ) ;
#675 = EDGE_CURVE ( 'NONE', #591, #326, #1134, .T. ) ;
#676 = EDGE_LOOP ( 'NONE', ( #396, #297, #1101, #995 ) ) ;
#677 = ORIENTED_EDGE ( 'NONE', *, *, #944, .T. ) ;
#678 = LINE ( 'NONE', #482, #106 ) ;
#679 = CARTESIAN_POINT ( 'NONE',  ( 7.500000000000000888, 17.00000000000000000, 1.499999999999996003 ) ) ;
#680 = ORIENTED_EDGE ( 'NONE', *, *, #1213, .T. ) ;
#681 = VERTEX_POINT ( 'NONE', #862 ) ;
#682 = ORIENTED_EDGE ( 'NONE', *, *, #57, .F. ) ;
#683 = VECTOR ( 'NONE', #840, 1000.000000000000114 ) ;
#684 = CARTESIAN_POINT ( 'NONE',  ( 7.500000000000001776, 35.00000000000000000, 6.499999999999993783 ) ) ;
#685 = AXIS2_PLACEMENT_3D ( 'NONE', #571, #451, #847 ) ;
#686 = CIRCLE ( 'NONE', #916, 2.000000000000000000 ) ;
#687 = ORIENTED_EDGE ( 'NONE', *, *, #416, .F. ) ;
#688 = AXIS2_PLACEMENT_3D ( 'NONE', #753, #531, #464 ) ;
#689 = LINE ( 'NONE', #1206, #1052 ) ;
#690 = ORIENTED_EDGE ( 'NONE', *, *, #338, .F. ) ;
#691 = EDGE_CURVE ( 'NONE', #481, #755, #678, .T. ) ;
#692 = PLANE ( 'NONE',  #815 ) ;
#693 = EDGE_CURVE ( 'NONE', #331, #56, #686, .T. ) ;
#694 = PRODUCT_CONTEXT ( 'NONE', #86, 'mechanical' ) ;
#695 = PLANE ( 'NONE',  #315 ) ;
#696 = FACE_OUTER_BOUND ( 'NONE', #28, .T. ) ;
#697 = AXIS2_PLACEMENT_3D ( 'NONE', #271, #367, #655 ) ;
#698 = VECTOR ( 'NONE', #207, 1000.000000000000000 ) ;
#699 = ORIENTED_EDGE ( 'NONE', *, *, #492, .F. ) ;
#700 = PLANE ( 'NONE',  #671 ) ;
#701 = ORIENTED_EDGE ( 'NONE', *, *, #1201, .T. ) ;
#702 = AXIS2_PLACEMENT_3D ( 'NONE', #85, #953, #472 ) ;
#703 = DIRECTION ( 'NONE',  ( -1.156482317317871725E-16, 0.000000000000000000, -1.000000000000000000 ) ) ;
#704 = DIRECTION ( 'NONE',  ( 1.156482317317872218E-16, 0.000000000000000000, 1.000000000000000000 ) ) ;
#705 = CARTESIAN_POINT ( 'NONE',  ( -7.499999999999999112, 35.00000000000000000, -1.499999999999990896 ) ) ;
#706 = VERTEX_POINT ( 'NONE', #666 ) ;
#707 = CARTESIAN_POINT ( 'NONE',  ( 7.500000000000000888, 34.00000000000000000, 1.499999999999996003 ) ) ;
#708 = FACE_OUTER_BOUND ( 'NONE', #475, .T. ) ;
#709 = CARTESIAN_POINT ( 'NONE',  ( 7.500000000000000000, 35.00000000000000000, -7.500000000000001776 ) ) ;
#710 = EDGE_CURVE ( 'NONE', #672, #922, #187, .T. ) ;
#711 = ORIENTED_EDGE ( 'NONE', *, *, #504, .T. ) ;
#712 = LINE ( 'NONE', #924, #800 ) ;
#713 = CARTESIAN_POINT ( 'NONE',  ( 0.000000000000000000, 10.00000000000000000, -4.000000000000000000 ) ) ;
#714 = DIRECTION ( 'NONE',  ( 0.000000000000000000, -1.000000000000000000, 0.000000000000000000 ) ) ;
#715 = ORIENTED_EDGE ( 'NONE', *, *, #542, .T. ) ;
#716 = DIRECTION ( 'NONE',  ( 0.7071067811865481278, 0.000000000000000000, 0.7071067811865469066 ) ) ;
#717 = CARTESIAN_POINT ( 'NONE',  ( 6.499999999999992006, 13.00000000000000355, -7.500000000000001776 ) ) ;
#718 = LINE ( 'NONE', #452, #1106 ) ;
#719 = EDGE_CURVE ( 'NONE', #672, #591, #856, .T. ) ;
#720 = AXIS2_PLACEMENT_3D ( 'NONE', #1222, #1229, #667 ) ;
#721 = EDGE_LOOP ( 'NONE', ( #67, #519, #202, #66 ) ) ;
#722 = VERTEX_POINT ( 'NONE', #965 ) ;
#723 = DIRECTION ( 'NONE',  ( -0.000000000000000000, 1.000000000000000000, 0.000000000000000000 ) ) ;
#724 = ADVANCED_FACE ( 'NONE', ( #3 ), #1243, .T. ) ;
#725 = EDGE_CURVE ( 'NONE', #404, #670, #1010, .T. ) ;
#726 = EDGE_CURVE ( 'NONE', #681, #905, #563, .T. ) ;
#727 = DIRECTION ( 'NONE',  ( 0.000000000000000000, 0.000000000000000000, -1.000000000000000000 ) ) ;
#728 = CYLINDRICAL_SURFACE ( 'NONE', #261, 1.400000000000000133 ) ;
#729 =( NAMED_UNIT ( * ) PLANE_ANGLE_UNIT ( ) SI_UNIT ( $, .RADIAN. ) );
#730 = ORIENTED_EDGE ( 'NONE', *, *, #380, .F. ) ;
#731 = EDGE_LOOP ( 'NONE', ( #110, #652, #1233, #926 ) ) ;
#732 = DIRECTION ( 'NONE',  ( 0.000000000000000000, 1.000000000000000000, 0.000000000000000000 ) ) ;
#733 = AXIS2_PLACEMENT_3D ( 'NONE', #1111, #69, #649 ) ;
#734 = DIRECTION ( 'NONE',  ( -1.000000000000000000, 0.000000000000000000, 0.000000000000000000 ) ) ;
#735 = CARTESIAN_POINT ( 'NONE',  ( 0.000000000000000000, 0.000000000000000000, 3.999999999999999112 ) ) ;
#736 = CARTESIAN_POINT ( 'NONE',  ( -5.000000000000003553, 25.00000000000000000, 2.500000000000002665 ) ) ;
#737 = ORIENTED_EDGE ( 'NONE', *, *, #1086, .F. ) ;
#738 = VERTEX_POINT ( 'NONE', #970 ) ;
#739 = LINE ( 'NONE', #68, #621 ) ;
#740 = LINE ( 'NONE', #634, #1019 ) ;
#741 = AXIS2_PLACEMENT_3D ( 'NONE', #1037, #557, #743 ) ;
#742 = DIRECTION ( 'NONE',  ( -1.000000000000000000, -0.000000000000000000, 5.782411586589357392E-17 ) ) ;
#743 = DIRECTION ( 'NONE',  ( 0.000000000000000000, 0.000000000000000000, -1.000000000000000000 ) ) ;
#744 = VECTOR ( 'NONE', #1133, 1000.000000000000000 ) ;
#745 = VERTEX_POINT ( 'NONE', #757 ) ;
#746 = VERTEX_POINT ( 'NONE', #570 ) ;
#747 = CARTESIAN_POINT ( 'NONE',  ( -6.999999999999995559, -0.000000000000000000, 7.000000000000007994 ) ) ;
#748 = ADVANCED_FACE ( 'NONE', ( #103 ), #959, .F. ) ;
#749 = PRODUCT_DEFINITION_FORMATION_WITH_SPECIFIED_SOURCE ( 'ANY', '', #453, .NOT_KNOWN. ) ;
#750 = VECTOR ( 'NONE', #1160, 1000.000000000000000 ) ;
#751 = CARTESIAN_POINT ( 'NONE',  ( 1.714505518806294145E-16, 10.00000000000000000, 5.399999999999999467 ) ) ;
#752 = CARTESIAN_POINT ( 'NONE',  ( 7.500000000000001776, 13.99999999999999822, 4.500000000000000888 ) ) ;
#753 = CARTESIAN_POINT ( 'NONE',  ( 0.000000000000000000, 25.00000000000000000, -2.499999999999998668 ) ) ;
#754 = EDGE_CURVE ( 'NONE', #1070, #1039, #476, .T. ) ;
#755 = VERTEX_POINT ( 'NONE', #299 ) ;
#756 = LINE ( 'NONE', #173, #134 ) ;
#757 = CARTESIAN_POINT ( 'NONE',  ( -6.499999999999989342, 13.00000000000000355, -7.500000000000000000 ) ) ;
#758 = CARTESIAN_POINT ( 'NONE',  ( -7.499999999999999112, 17.00000000000000000, -2.499999999999999556 ) ) ;
#759 = PLANE ( 'NONE',  #323 ) ;
#760 = EDGE_CURVE ( 'NONE', #439, #1058, #593, .T. ) ;
#761 = ORIENTED_EDGE ( 'NONE', *, *, #1046, .T. ) ;
#762 = VERTEX_POINT ( 'NONE', #810 ) ;
#763 = CARTESIAN_POINT ( 'NONE',  ( 6.999999999999984901, -0.000000000000000000, -7.000000000000008882 ) ) ;
#764 = FACE_OUTER_BOUND ( 'NONE', #731, .T. ) ;
#765 = LINE ( 'NONE', #859, #102 ) ;
#766 = EDGE_CURVE ( 'NONE', #294, #1192, #1235, .T. ) ;
#767 = EDGE_LOOP ( 'NONE', ( #784, #126, #1144, #663 ) ) ;
#768 = VERTEX_POINT ( 'NONE', #33 ) ;
#769 = AXIS2_PLACEMENT_3D ( 'NONE', #502, #1077, #209 ) ;
#770 = ADVANCED_FACE ( 'NONE', ( #1185 ), #692, .F. ) ;
#771 = DIRECTION ( 'NONE',  ( 1.000000000000000000, -0.000000000000000000, -1.156482317317871725E-16 ) ) ;
#772 = AXIS2_PLACEMENT_3D ( 'NONE', #614, #820, #220 ) ;
#773 = CARTESIAN_POINT ( 'NONE',  ( -6.499999999999990230, 15.00000000000000355, -4.500000000000000000 ) ) ;
#774 = ORIENTED_EDGE ( 'NONE', *, *, #994, .T. ) ;
#775 = VERTEX_POINT ( 'NONE', #505 ) ;
#776 = DIRECTION ( 'NONE',  ( 1.156482317317871725E-16, 0.000000000000000000, 1.000000000000000000 ) ) ;
#777 = DIRECTION ( 'NONE',  ( 0.000000000000000000, -1.000000000000000000, 0.000000000000000000 ) ) ;
#778 = EDGE_LOOP ( 'NONE', ( #427, #645, #699, #357 ) ) ;
#779 = ORIENTED_EDGE ( 'NONE', *, *, #903, .F. ) ;
#780 = PLANE ( 'NONE',  #490 ) ;
#781 = CARTESIAN_POINT ( 'NONE',  ( 7.500000000000000000, 13.00000000000000355, -5.500000000000001776 ) ) ;
#782 = EDGE_CURVE ( 'NONE', #275, #1053, #631, .T. ) ;
#783 = ADVANCED_FACE ( 'NONE', ( #1089 ), #780, .T. ) ;
#784 = ORIENTED_EDGE ( 'NONE', *, *, #20, .F. ) ;
#785 = EDGE_CURVE ( 'NONE', #579, #1158, #327, .T. ) ;
#786 = CARTESIAN_POINT ( 'NONE',  ( 7.500000000000001776, 15.00000000000000355, 2.500000000000000444 ) ) ;
#787 = ORIENTED_EDGE ( 'NONE', *, *, #274, .T. ) ;
#788 = EDGE_CURVE ( 'NONE', #372, #579, #418, .T. ) ;
#789 = VECTOR ( 'NONE', #997, 1000.000000000000000 ) ;
#790 = LINE ( 'NONE', #1166, #587 ) ;
#791 =( NAMED_UNIT ( * ) SI_UNIT ( $, .STERADIAN. ) SOLID_ANGLE_UNIT ( ) );
#792 = DIRECTION ( 'NONE',  ( -1.156482317317871725E-16, 0.000000000000000000, -1.000000000000000000 ) ) ;
#793 = DIRECTION ( 'NONE',  ( 0.000000000000000000, 0.000000000000000000, -1.000000000000000000 ) ) ;
#794 = CIRCLE ( 'NONE', #898, 1.400000000000000133 ) ;
#795 = ORIENTED_EDGE ( 'NONE', *, *, #398, .F. ) ;
#796 = CARTESIAN_POINT ( 'NONE',  ( -7.499999999999998224, 13.00000000000000355, 5.500000000000000000 ) ) ;
#797 = DIRECTION ( 'NONE',  ( 1.000000000000000000, 0.000000000000000000, 0.000000000000000000 ) ) ;
#798 = CARTESIAN_POINT ( 'NONE',  ( -7.500000000000000000, 17.00000000000000000, -4.499999999999999112 ) ) ;
#799 = CYLINDRICAL_SURFACE ( 'NONE', #1054, 1.400000000000000133 ) ;
#800 = VECTOR ( 'NONE', #1027, 1000.000000000000000 ) ;
#801 = CIRCLE ( 'NONE', #1177, 0.9999999999999913403 ) ;
#802 = EDGE_CURVE ( 'NONE', #755, #762, #122, .T. ) ;
#803 = ORIENTED_EDGE ( 'NONE', *, *, #1110, .T. ) ;
#804 = CARTESIAN_POINT ( 'NONE',  ( 6.499999999999998224, 0.000000000000000000, 7.499999999999998224 ) ) ;
#805 = DIRECTION ( 'NONE',  ( 0.000000000000000000, 0.000000000000000000, -1.000000000000000000 ) ) ;
#806 = CARTESIAN_POINT ( 'NONE',  ( 0.000000000000000000, 10.00000000000000000, 3.999999999999999112 ) ) ;
#807 = ORIENTED_EDGE ( 'NONE', *, *, #635, .T. ) ;
#808 = ADVANCED_FACE ( 'NONE', ( #881 ), #399, .F. ) ;
#809 = CIRCLE ( 'NONE', #423, 2.000000000000000000 ) ;
#810 = CARTESIAN_POINT ( 'NONE',  ( -6.499999999999997335, 35.00000000000000000, 2.500000000000002220 ) ) ;
#811 = EDGE_CURVE ( 'NONE', #591, #762, #316, .T. ) ;
#812 = LINE ( 'NONE', #616, #149 ) ;
#813 = CARTESIAN_POINT ( 'NONE',  ( -7.499999999999998224, 14.00000000000000888, 5.500000000000000000 ) ) ;
#814 = DIRECTION ( 'NONE',  ( 1.000000000000000000, 0.000000000000000000, -1.156482317317871725E-16 ) ) ;
#815 = AXIS2_PLACEMENT_3D ( 'NONE', #117, #217, #723 ) ;
#816 = VERTEX_POINT ( 'NONE', #804 ) ;
#817 = VECTOR ( 'NONE', #133, 1000.000000000000000 ) ;
#818 = DIRECTION ( 'NONE',  ( -1.000000000000000000, 0.000000000000000000, 1.156482317317871478E-16 ) ) ;
#819 = CARTESIAN_POINT ( 'NONE',  ( -7.499999999999999112, 35.00000000000000000, 1.500000000000008216 ) ) ;
#820 = DIRECTION ( 'NONE',  ( 1.000000000000000000, 0.000000000000000000, -1.156482317317871725E-16 ) ) ;
#821 = VERTEX_POINT ( 'NONE', #1180 ) ;
#822 = CARTESIAN_POINT ( 'NONE',  ( 0.000000000000000000, 0.000000000000000000, -5.400000000000000355 ) ) ;
#823 = DIRECTION ( 'NONE',  ( 0.7071067811865460184, 0.000000000000000000, -0.7071067811865490160 ) ) ;
#824 = CARTESIAN_POINT ( 'NONE',  ( -7.500000000000000000, 17.00000000000000000, -4.499999999999999112 ) ) ;
#825 = EDGE_CURVE ( 'NONE', #706, #439, #23, .T. ) ;
#826 = ORIENTED_EDGE ( 'NONE', *, *, #8, .T. ) ;
#827 = EDGE_CURVE ( 'NONE', #372, #454, #468, .T. ) ;
#828 = ORIENTED_EDGE ( 'NONE', *, *, #189, .F. ) ;
#829 = DIRECTION ( 'NONE',  ( 1.000000000000000000, 0.000000000000000000, -5.782411586589357392E-17 ) ) ;
#830 = CARTESIAN_POINT ( 'NONE',  ( 0.000000000000000000, 25.00000000000000000, 2.500000000000002220 ) ) ;
#831 = SURFACE_STYLE_USAGE ( .BOTH. , #538 ) ;
#832 = ORIENTED_EDGE ( 'NONE', *, *, #664, .T. ) ;
#833 = ORIENTED_EDGE ( 'NONE', *, *, #1169, .T. ) ;
#834 = CARTESIAN_POINT ( 'NONE',  ( -5.000000000000003553, 25.00000000000000000, -17.50000000000000000 ) ) ;
#835 = VECTOR ( 'NONE', #1091, 1000.000000000000000 ) ;
#836 = LINE ( 'NONE', #138, #1175 ) ;
#837 = LINE ( 'NONE', #758, #428 ) ;
#838 = CARTESIAN_POINT ( 'NONE',  ( 7.500000000000000000, 17.00000000000000000, -4.500000000000000888 ) ) ;
#839 = ORIENTED_EDGE ( 'NONE', *, *, #130, .F. ) ;
#840 = DIRECTION ( 'NONE',  ( -0.7071067811865481278, -0.000000000000000000, -0.7071067811865469066 ) ) ;
#841 = DIRECTION ( 'NONE',  ( 0.000000000000000000, -0.000000000000000000, -1.000000000000000000 ) ) ;
#842 = PLANE ( 'NONE',  #346 ) ;
#843 = EDGE_LOOP ( 'NONE', ( #257, #638, #1124, #1184 ) ) ;
#844 = ORIENTED_EDGE ( 'NONE', *, *, #1246, .F. ) ;
#845 = LINE ( 'NONE', #467, #523 ) ;
#846 = DIRECTION ( 'NONE',  ( 0.000000000000000000, 1.000000000000000000, 0.000000000000000000 ) ) ;
#847 = DIRECTION ( 'NONE',  ( 0.000000000000000000, -1.000000000000000000, 0.000000000000000000 ) ) ;
#848 =( LENGTH_UNIT ( ) NAMED_UNIT ( * ) SI_UNIT ( .MILLI., .METRE. ) );
#849 = VECTOR ( 'NONE', #81, 1000.000000000000000 ) ;
#850 = ORIENTED_EDGE ( 'NONE', *, *, #186, .F. ) ;
#851 = ORIENTED_EDGE ( 'NONE', *, *, #216, .T. ) ;
#852 = CARTESIAN_POINT ( 'NONE',  ( -6.500000000000000888, 17.00000000000000000, 2.500000000000002220 ) ) ;
#853 = AXIS2_PLACEMENT_3D ( 'NONE', #1121, #661, #866 ) ;
#854 = VECTOR ( 'NONE', #673, 1000.000000000000000 ) ;
#855 = VECTOR ( 'NONE', #939, 1000.000000000000000 ) ;
#856 = LINE ( 'NONE', #575, #1132 ) ;
#857 = EDGE_CURVE ( 'NONE', #465, #294, #886, .T. ) ;
#858 = LINE ( 'NONE', #278, #877 ) ;
#859 = CARTESIAN_POINT ( 'NONE',  ( 6.499999999999992895, 15.00000000000000355, -2.500000000000000444 ) ) ;
#860 = EDGE_LOOP ( 'NONE', ( #356, #221 ) ) ;
#861 = ORIENTED_EDGE ( 'NONE', *, *, #522, .T. ) ;
#862 = CARTESIAN_POINT ( 'NONE',  ( 6.499999999999992006, 15.00000000000000355, -5.500000000000001776 ) ) ;
#863 = CIRCLE ( 'NONE', #429, 2.999999999999996447 ) ;
#864 = AXIS2_PLACEMENT_3D ( 'NONE', #34, #521, #424 ) ;
#865 = EDGE_CURVE ( 'NONE', #1016, #1224, #18, .T. ) ;
#866 = DIRECTION ( 'NONE',  ( -1.156482317317871725E-16, 0.000000000000000000, -1.000000000000000000 ) ) ;
#867 = DIRECTION ( 'NONE',  ( 0.7071067811865469066, 0.000000000000000000, -0.7071067811865482389 ) ) ;
#868 = LINE ( 'NONE', #596, #612 ) ;
#869 = EDGE_CURVE ( 'NONE', #762, #922, #790, .T. ) ;
#870 = ORIENTED_EDGE ( 'NONE', *, *, #604, .F. ) ;
#871 = DIRECTION ( 'NONE',  ( 0.7071067811865482389, 0.000000000000000000, 0.7071067811865469066 ) ) ;
#872 = SHAPE_DEFINITION_REPRESENTATION ( #78, #986 ) ;
#873 = LINE ( 'NONE', #279, #2 ) ;
#874 = AXIS2_PLACEMENT_3D ( 'NONE', #781, #882, #273 ) ;
#875 = VERTEX_POINT ( 'NONE', #601 ) ;
#876 = VERTEX_POINT ( 'NONE', #907 ) ;
#877 = VECTOR ( 'NONE', #254, 1000.000000000000000 ) ;
#878 = DIRECTION ( 'NONE',  ( 0.7071067811865487940, -0.000000000000000000, 0.7071067811865463515 ) ) ;
#879 = ORIENTED_EDGE ( 'NONE', *, *, #223, .T. ) ;
#880 = ORIENTED_EDGE ( 'NONE', *, *, #1191, .T. ) ;
#881 = FACE_OUTER_BOUND ( 'NONE', #1241, .T. ) ;
#882 = DIRECTION ( 'NONE',  ( 1.000000000000000000, -0.000000000000000000, -1.156482317317871725E-16 ) ) ;
#883 = ORIENTED_EDGE ( 'NONE', *, *, #456, .T. ) ;
#884 = FACE_OUTER_BOUND ( 'NONE', #215, .T. ) ;
#885 = ORIENTED_EDGE ( 'NONE', *, *, #825, .F. ) ;
#886 = LINE ( 'NONE', #321, #789 ) ;
#887 =( LENGTH_UNIT ( ) NAMED_UNIT ( * ) SI_UNIT ( .MILLI., .METRE. ) );
#888 = LINE ( 'NONE', #1181, #378 ) ;
#889 = DIRECTION ( 'NONE',  ( 0.7071067811865487940, -0.7071067811865463515, -8.177564888978012660E-17 ) ) ;
#890 = CARTESIAN_POINT ( 'NONE',  ( 7.500000000000000000, 13.00000000000000355, -6.499999999999997335 ) ) ;
#891 = ORIENTED_EDGE ( 'NONE', *, *, #1231, .F. ) ;
#892 = DIRECTION ( 'NONE',  ( 0.000000000000000000, -1.000000000000000000, 0.000000000000000000 ) ) ;
#893 = VECTOR ( 'NONE', #347, 1000.000000000000000 ) ;
#894 = APPLICATION_PROTOCOL_DEFINITION ( 'draft international standard', 'automotive_design', 1998, #474 ) ;
#895 = DIRECTION ( 'NONE',  ( 0.000000000000000000, 0.000000000000000000, -1.000000000000000000 ) ) ;
#896 = EDGE_CURVE ( 'NONE', #120, #303, #568, .T. ) ;
#897 = LINE ( 'NONE', #705, #835 ) ;
#898 = AXIS2_PLACEMENT_3D ( 'NONE', #341, #164, #546 ) ;
#899 = ORIENTED_EDGE ( 'NONE', *, *, #97, .T. ) ;
#900 = DIRECTION ( 'NONE',  ( -0.000000000000000000, -1.000000000000000000, -0.000000000000000000 ) ) ;
#901 = EDGE_CURVE ( 'NONE', #283, #465, #845, .T. ) ;
#902 = DIRECTION ( 'NONE',  ( -0.000000000000000000, -1.000000000000000000, -0.000000000000000000 ) ) ;
#903 = EDGE_CURVE ( 'NONE', #905, #539, #739, .T. ) ;
#904 = AXIS2_PLACEMENT_3D ( 'NONE', #352, #734, #144 ) ;
#905 = VERTEX_POINT ( 'NONE', #659 ) ;
#906 = ADVANCED_FACE ( 'NONE', ( #549 ), #1034, .F. ) ;
#907 = CARTESIAN_POINT ( 'NONE',  ( -7.499999999999998224, 0.000000000000000000, 6.500000000000004441 ) ) ;
#908 = CARTESIAN_POINT ( 'NONE',  ( 1.714505518806294145E-16, 10.00000000000000000, -2.600000000000000089 ) ) ;
#909 = FACE_OUTER_BOUND ( 'NONE', #371, .T. ) ;
#910 = ORIENTED_EDGE ( 'NONE', *, *, #267, .T. ) ;
#911 = COLOUR_RGB ( '',0.7921568627450980005, 0.8196078431372548767, 0.9333333333333333481 ) ;
#912 = AXIS2_PLACEMENT_3D ( 'NONE', #541, #950, #936 ) ;
#913 = CARTESIAN_POINT ( 'NONE',  ( 5.204170427930423255E-16, 15.00000000000000355, 4.500000000000001776 ) ) ;
#914 = CARTESIAN_POINT ( 'NONE',  ( 0.000000000000000000, 10.00000000000000000, -4.000000000000000000 ) ) ;
#915 = DIRECTION ( 'NONE',  ( 0.000000000000000000, -0.000000000000000000, -1.000000000000000000 ) ) ;
#916 = AXIS2_PLACEMENT_3D ( 'NONE', #1047, #374, #469 ) ;
#917 = EDGE_LOOP ( 'NONE', ( #1234, #1, #851, #242 ) ) ;
#918 = DIRECTION ( 'NONE',  ( -1.156482317317871725E-16, -0.000000000000000000, -1.000000000000000000 ) ) ;
#919 = EDGE_CURVE ( 'NONE', #876, #120, #160, .T. ) ;
#920 = PLANE ( 'NONE',  #1071 ) ;
#921 = FACE_OUTER_BOUND ( 'NONE', #1017, .T. ) ;
#922 = VERTEX_POINT ( 'NONE', #852 ) ;
#923 = AXIS2_PLACEMENT_3D ( 'NONE', #595, #413, #704 ) ;
#924 = CARTESIAN_POINT ( 'NONE',  ( -13.16666666666667318, 28.33333333333330017, 4.166666666666673180 ) ) ;
#925 = FACE_OUTER_BOUND ( 'NONE', #1024, .T. ) ;
#926 = ORIENTED_EDGE ( 'NONE', *, *, #584, .F. ) ;
#927 = EDGE_LOOP ( 'NONE', ( #434, #364 ) ) ;
#928 = FACE_OUTER_BOUND ( 'NONE', #1197, .T. ) ;
#929 = PRESENTATION_LAYER_ASSIGNMENT (  '', '', ( #218 ) ) ;
#930 = DIRECTION ( 'NONE',  ( 0.000000000000000000, -1.000000000000000000, 0.000000000000000000 ) ) ;
#931 = DIRECTION ( 'NONE',  ( 0.000000000000000000, 1.000000000000000000, 0.000000000000000000 ) ) ;
#932 = DIRECTION ( 'NONE',  ( 8.673617379884008848E-16, 0.000000000000000000, 1.000000000000000000 ) ) ;
#933 = VECTOR ( 'NONE', #77, 1000.000000000000000 ) ;
#934 = EDGE_LOOP ( 'NONE', ( #963, #159, #343, #701 ) ) ;
#935 = EDGE_LOOP ( 'NONE', ( #680, #227, #7, #266 ) ) ;
#936 = DIRECTION ( 'NONE',  ( 1.000000000000000000, 0.000000000000000000, 0.000000000000000000 ) ) ;
#937 = CARTESIAN_POINT ( 'NONE',  ( -6.499999999999989342, 13.00000000000000355, -5.500000000000000000 ) ) ;
#938 = CARTESIAN_POINT ( 'NONE',  ( 5.000000000000003553, 25.00000000000000000, -2.499999999999999112 ) ) ;
#939 = DIRECTION ( 'NONE',  ( 0.000000000000000000, 1.000000000000000000, 0.000000000000000000 ) ) ;
#940 = ADVANCED_FACE ( 'NONE', ( #943 ), #1226, .T. ) ;
#941 = ORIENTED_EDGE ( 'NONE', *, *, #693, .F. ) ;
#942 = ORIENTED_EDGE ( 'NONE', *, *, #267, .F. ) ;
#943 = FACE_OUTER_BOUND ( 'NONE', #934, .T. ) ;
#944 = EDGE_CURVE ( 'NONE', #243, #876, #60, .T. ) ;
#945 = CARTESIAN_POINT ( 'NONE',  ( -6.499999999999988454, 0.000000000000000000, -7.500000000000000000 ) ) ;
#946 = LINE ( 'NONE', #656, #933 ) ;
#947 = PRESENTATION_STYLE_ASSIGNMENT (( #831 ) ) ;
#948 = EDGE_LOOP ( 'NONE', ( #548, #682, #104, #592 ) ) ;
#949 = ORIENTED_EDGE ( 'NONE', *, *, #760, .F. ) ;
#950 = DIRECTION ( 'NONE',  ( -0.000000000000000000, -0.000000000000000000, 1.000000000000000000 ) ) ;
#951 = PLANE ( 'NONE',  #697 ) ;
#952 = PLANE ( 'NONE',  #853 ) ;
#953 = DIRECTION ( 'NONE',  ( -1.000000000000000000, -0.000000000000000000, -0.000000000000000000 ) ) ;
#954 = AXIS2_PLACEMENT_3D ( 'NONE', #499, #412, #206 ) ;
#955 = ORIENTED_EDGE ( 'NONE', *, *, #857, .T. ) ;
#956 = ORIENTED_EDGE ( 'NONE', *, *, #1139, .F. ) ;
#957 = EDGE_CURVE ( 'NONE', #706, #775, #447, .T. ) ;
#958 = AXIS2_PLACEMENT_3D ( 'NONE', #119, #509, #27 ) ;
#959 = PLANE ( 'NONE',  #528 ) ;
#960 = FACE_OUTER_BOUND ( 'NONE', #194, .T. ) ;
#961 = EDGE_CURVE ( 'NONE', #821, #540, #269, .T. ) ;
#962 = EDGE_CURVE ( 'NONE', #1063, #250, #259, .T. ) ;
#963 = ORIENTED_EDGE ( 'NONE', *, *, #619, .F. ) ;
#964 = ORIENTED_EDGE ( 'NONE', *, *, #1172, .T. ) ;
#965 = CARTESIAN_POINT ( 'NONE',  ( 0.000000000000000000, 0.000000000000000000, 2.599999999999999201 ) ) ;
#966 = AXIS2_PLACEMENT_3D ( 'NONE', #180, #1055, #285 ) ;
#967 = CIRCLE ( 'NONE', #435, 0.9999999999999965583 ) ;
#968 = ORIENTED_EDGE ( 'NONE', *, *, #535, .F. ) ;
#969 = ORIENTED_EDGE ( 'NONE', *, *, #1066, .T. ) ;
#970 = CARTESIAN_POINT ( 'NONE',  ( -7.500000000000000000, 13.99999999999999467, -4.500000000000000000 ) ) ;
#971 = DIRECTION ( 'NONE',  ( 0.000000000000000000, 0.000000000000000000, 1.000000000000000000 ) ) ;
#972 = ORIENTED_EDGE ( 'NONE', *, *, #635, .F. ) ;
#973 = VERTEX_POINT ( 'NONE', #1040 ) ;
#974 = EDGE_CURVE ( 'NONE', #922, #56, #756, .T. ) ;
#975 = LINE ( 'NONE', #1142, #417 ) ;
#976 = VECTOR ( 'NONE', #244, 1000.000000000000000 ) ;
#977 = ORIENTED_EDGE ( 'NONE', *, *, #394, .T. ) ;
#978 = ORIENTED_EDGE ( 'NONE', *, *, #1230, .T. ) ;
#979 = EDGE_CURVE ( 'NONE', #768, #875, #560, .T. ) ;
#980 = CARTESIAN_POINT ( 'NONE',  ( 7.500000000000001776, 17.00000000000000000, 4.500000000000000888 ) ) ;
#981 = CARTESIAN_POINT ( 'NONE',  ( -6.499999999999987566, 35.00000000000000000, 7.517135062566151914E-16 ) ) ;
#982 = CARTESIAN_POINT ( 'NONE',  ( 6.499999999999992895, 35.00000000000000000, -2.500000000000000444 ) ) ;
#983 = ORIENTED_EDGE ( 'NONE', *, *, #380, .T. ) ;
#984 = ADVANCED_FACE ( 'NONE', ( #928 ), #1018, .F. ) ;
#985 = DIRECTION ( 'NONE',  ( -1.000000000000000000, 0.000000000000000000, 1.156482317317871725E-16 ) ) ;
#986 = ADVANCED_BREP_SHAPE_REPRESENTATION ( 'Rear-Gearbox-Axle-Support', ( #280, #136 ), #105 ) ;
#987 = CYLINDRICAL_SURFACE ( 'NONE', #958, 5.000000000000003553 ) ;
#988 = ORIENTED_EDGE ( 'NONE', *, *, #1066, .F. ) ;
#989 = EDGE_CURVE ( 'NONE', #1224, #540, #366, .T. ) ;
#990 = CARTESIAN_POINT ( 'NONE',  ( 0.000000000000000000, 0.000000000000000000, -4.000000000000000000 ) ) ;
#991 = CIRCLE ( 'NONE', #6, 5.000000000000003553 ) ;
#992 = FACE_OUTER_BOUND ( 'NONE', #73, .T. ) ;
#993 = LINE ( 'NONE', #1136, #411 ) ;
#994 = EDGE_CURVE ( 'NONE', #1097, #1030, #252, .T. ) ;
#995 = ORIENTED_EDGE ( 'NONE', *, *, #1086, .T. ) ;
#996 = AXIS2_PLACEMENT_3D ( 'NONE', #114, #330, #1195 ) ;
#997 = DIRECTION ( 'NONE',  ( 0.000000000000000000, -1.000000000000000000, 0.000000000000000000 ) ) ;
#998 = CARTESIAN_POINT ( 'NONE',  ( -7.500000000000000000, 13.99999999999999467, -5.500000000000000000 ) ) ;
#999 = FACE_OUTER_BOUND ( 'NONE', #860, .T. ) ;
#1000 = EDGE_LOOP ( 'NONE', ( #803, #553, #152, #795 ) ) ;
#1001 = DIRECTION ( 'NONE',  ( -0.000000000000000000, -1.000000000000000000, -0.000000000000000000 ) ) ;
#1002 = CARTESIAN_POINT ( 'NONE',  ( 7.500000000000001776, 35.00000000000000000, 2.500000000000000444 ) ) ;
#1003 = ORIENTED_EDGE ( 'NONE', *, *, #782, .F. ) ;
#1004 = ADVANCED_FACE ( 'NONE', ( #1189 ), #920, .T. ) ;
#1005 = AXIS2_PLACEMENT_3D ( 'NONE', #796, #461, #1212 ) ;
#1006 = DIRECTION ( 'NONE',  ( -0.7071067811865483499, 0.000000000000000000, 0.7071067811865465735 ) ) ;
#1007 = ADVANCED_FACE ( 'NONE', ( #925 ), #1150, .F. ) ;
#1008 = DIRECTION ( 'NONE',  ( 1.000000000000000000, 0.000000000000000000, -5.782411586589357392E-17 ) ) ;
#1009 = DIRECTION ( 'NONE',  ( -8.673617379884035472E-16, 0.000000000000000000, -1.000000000000000000 ) ) ;
#1010 = CIRCLE ( 'NONE', #1073, 1.400000000000000133 ) ;
#1011 = AXIS2_PLACEMENT_3D ( 'NONE', #1223, #443, #1009 ) ;
#1012 = ORIENTED_EDGE ( 'NONE', *, *, #962, .T. ) ;
#1013 = DIRECTION ( 'NONE',  ( -0.7071067811865487940, 0.7071067811865463515, 0.000000000000000000 ) ) ;
#1014 = CARTESIAN_POINT ( 'NONE',  ( 7.500000000000000000, 13.99999999999999822, -5.500000000000001776 ) ) ;
#1015 = FILL_AREA_STYLE_COLOUR ( '', #911 ) ;
#1016 = VERTEX_POINT ( 'NONE', #329 ) ;
#1017 = EDGE_LOOP ( 'NONE', ( #172, #949, #885, #558 ) ) ;
#1018 = PLANE ( 'NONE',  #82 ) ;
#1019 = VECTOR ( 'NONE', #1006, 1000.000000000000114 ) ;
#1020 = CIRCLE ( 'NONE', #248, 3.000000000000009770 ) ;
#1021 = ADVANCED_FACE ( 'NONE', ( #622, #115 ), #333, .F. ) ;
#1022 = DIRECTION ( 'NONE',  ( -0.000000000000000000, -1.000000000000000000, -0.000000000000000000 ) ) ;
#1023 = CARTESIAN_POINT ( 'NONE',  ( -6.500000000000000888, 0.000000000000000000, 7.500000000000000000 ) ) ;
#1024 = EDGE_LOOP ( 'NONE', ( #313, #1130, #586, #941 ) ) ;
#1025 = DIRECTION ( 'NONE',  ( -0.7071067811865487940, 0.000000000000000000, -0.7071067811865463515 ) ) ;
#1026 = CONICAL_SURFACE ( 'NONE', #702, 2.999999999999995559, 0.7853981633974473908 ) ;
#1027 = DIRECTION ( 'NONE',  ( -0.5773502691896253980, -0.5773502691896275074, 0.5773502691896243988 ) ) ;
#1028 = CARTESIAN_POINT ( 'NONE',  ( 7.500000000000001776, 0.000000000000000000, 7.499999999999998224 ) ) ;
#1029 = PLANE ( 'NONE',  #139 ) ;
#1030 = VERTEX_POINT ( 'NONE', #717 ) ;
#1031 = ADVANCED_FACE ( 'NONE', ( #884, #233 ), #140, .F. ) ;
#1032 = ORIENTED_EDGE ( 'NONE', *, *, #256, .T. ) ;
#1033 = VECTOR ( 'NONE', #878, 1000.000000000000000 ) ;
#1034 = CYLINDRICAL_SURFACE ( 'NONE', #912, 5.000000000000003553 ) ;
#1035 = CYLINDRICAL_SURFACE ( 'NONE', #1116, 2.000000000000000000 ) ;
#1036 = DIRECTION ( 'NONE',  ( 0.7071067811865487940, 0.7071067811865463515, 0.000000000000000000 ) ) ;
#1037 = CARTESIAN_POINT ( 'NONE',  ( -6.500000000000000888, 13.00000000000000355, 5.500000000000000000 ) ) ;
#1038 = ORIENTED_EDGE ( 'NONE', *, *, #174, .T. ) ;
#1039 = VERTEX_POINT ( 'NONE', #442 ) ;
#1040 = CARTESIAN_POINT ( 'NONE',  ( -7.499999999999999112, 17.00000000000000000, -1.499999999999988898 ) ) ;
#1041 = DIRECTION ( 'NONE',  ( -0.000000000000000000, 1.000000000000000000, 0.000000000000000000 ) ) ;
#1042 = FACE_OUTER_BOUND ( 'NONE', #410, .T. ) ;
#1043 = CARTESIAN_POINT ( 'NONE',  ( -7.499999999999999112, 33.99999999999998579, -1.499999999999990674 ) ) ;
#1044 = ORIENTED_EDGE ( 'NONE', *, *, #901, .T. ) ;
#1045 = DIRECTION ( 'NONE',  ( -0.000000000000000000, -0.000000000000000000, 1.000000000000000000 ) ) ;
#1046 = EDGE_CURVE ( 'NONE', #1058, #1039, #155, .T. ) ;
#1047 = CARTESIAN_POINT ( 'NONE',  ( 6.499999999999998224, 17.00000000000000000, 4.500000000000000888 ) ) ;
#1048 = ADVANCED_FACE ( 'NONE', ( #708 ), #728, .F. ) ;
#1049 = DIRECTION ( 'NONE',  ( 0.000000000000000000, 0.000000000000000000, -1.000000000000000000 ) ) ;
#1050 = DIRECTION ( 'NONE',  ( 0.000000000000000000, -1.000000000000000000, 0.000000000000000000 ) ) ;
#1051 = ORIENTED_EDGE ( 'NONE', *, *, #1196, .F. ) ;
#1052 = VECTOR ( 'NONE', #530, 1000.000000000000000 ) ;
#1053 = VERTEX_POINT ( 'NONE', #982 ) ;
#1054 = AXIS2_PLACEMENT_3D ( 'NONE', #318, #125, #608 ) ;
#1055 = DIRECTION ( 'NONE',  ( -1.000000000000000000, 0.000000000000000000, 1.156482317317871725E-16 ) ) ;
#1056 = CARTESIAN_POINT ( 'NONE',  ( -7.500000000000000000, 13.00000000000000355, -5.500000000000000000 ) ) ;
#1057 = CARTESIAN_POINT ( 'NONE',  ( 0.000000000000000000, 10.00000000000000000, -5.400000000000000355 ) ) ;
#1058 = VERTEX_POINT ( 'NONE', #229 ) ;
#1059 = EDGE_LOOP ( 'NONE', ( #774, #1064, #191, #101 ) ) ;
#1060 = CARTESIAN_POINT ( 'NONE',  ( 0.000000000000000000, 10.00000000000000000, 3.999999999999999112 ) ) ;
#1061 = VECTOR ( 'NONE', #771, 1000.000000000000000 ) ;
#1062 = CARTESIAN_POINT ( 'NONE',  ( 6.499999999999999112, 15.00000000000000355, 4.500000000000000888 ) ) ;
#1063 = VERTEX_POINT ( 'NONE', #1194 ) ;
#1064 = ORIENTED_EDGE ( 'NONE', *, *, #1201, .F. ) ;
#1065 = CARTESIAN_POINT ( 'NONE',  ( -6.499999999999989342, 15.00000000000000355, 7.517135062566153886E-16 ) ) ;
#1066 = EDGE_CURVE ( 'NONE', #755, #1053, #689, .T. ) ;
#1067 = ORIENTED_EDGE ( 'NONE', *, *, #691, .T. ) ;
#1068 = VECTOR ( 'NONE', #1045, 1000.000000000000000 ) ;
#1069 = ADVANCED_FACE ( 'NONE', ( #340 ), #121, .F. ) ;
#1070 = VERTEX_POINT ( 'NONE', #132 ) ;
#1071 = AXIS2_PLACEMENT_3D ( 'NONE', #914, #1164, #1104 ) ;
#1072 = DIRECTION ( 'NONE',  ( 0.7071067811865482389, 0.7071067811865469066, -8.177564888978005264E-17 ) ) ;
#1073 = AXIS2_PLACEMENT_3D ( 'NONE', #1060, #192, #175 ) ;
#1074 = DIRECTION ( 'NONE',  ( 0.000000000000000000, 0.000000000000000000, 1.000000000000000000 ) ) ;
#1075 = ORIENTED_EDGE ( 'NONE', *, *, #811, .T. ) ;
#1076 = EDGE_CURVE ( 'NONE', #775, #243, #1112, .T. ) ;
#1077 = DIRECTION ( 'NONE',  ( 1.000000000000000000, -0.000000000000000000, -8.673617379883967433E-16 ) ) ;
#1078 = DIRECTION ( 'NONE',  ( -0.7071067811865462405, 0.000000000000000000, 0.7071067811865487940 ) ) ;
#1079 = VECTOR ( 'NONE', #918, 1000.000000000000000 ) ;
#1080 = DIRECTION ( 'NONE',  ( 1.156482317317871725E-16, 0.000000000000000000, 1.000000000000000000 ) ) ;
#1081 = AXIS2_PLACEMENT_3D ( 'NONE', #1148, #668, #971 ) ;
#1082 = FACE_OUTER_BOUND ( 'NONE', #491, .T. ) ;
#1083 = ADVANCED_FACE ( 'NONE', ( #35 ), #437, .F. ) ;
#1084 = ORIENTED_EDGE ( 'NONE', *, *, #492, .T. ) ;
#1085 = CARTESIAN_POINT ( 'NONE',  ( 0.000000000000000000, 10.00000000000000000, -5.400000000000000355 ) ) ;
#1086 = EDGE_CURVE ( 'NONE', #268, #250, #991, .T. ) ;
#1087 = CARTESIAN_POINT ( 'NONE',  ( 0.000000000000000000, 10.00000000000000000, 3.999999999999999112 ) ) ;
#1088 = ORIENTED_EDGE ( 'NONE', *, *, #471, .F. ) ;
#1089 = FACE_OUTER_BOUND ( 'NONE', #721, .T. ) ;
#1090 = LINE ( 'NONE', #506, #50 ) ;
#1091 = DIRECTION ( 'NONE',  ( 0.000000000000000000, -1.000000000000000000, 0.000000000000000000 ) ) ;
#1092 = VERTEX_POINT ( 'NONE', #1014 ) ;
#1093 = CARTESIAN_POINT ( 'NONE',  ( -6.499999999999987566, 17.00000000000000000, -2.499999999999999556 ) ) ;
#1094 = DIRECTION ( 'NONE',  ( -1.000000000000000000, 0.000000000000000000, 1.156482317317871478E-16 ) ) ;
#1095 = DIRECTION ( 'NONE',  ( 0.000000000000000000, 0.000000000000000000, -1.000000000000000000 ) ) ;
#1096 = EDGE_CURVE ( 'NONE', #1203, #268, #246, .T. ) ;
#1097 = VERTEX_POINT ( 'NONE', #890 ) ;
#1098 = CARTESIAN_POINT ( 'NONE',  ( 1.714505518806294145E-16, 0.000000000000000000, 5.399999999999999467 ) ) ;
#1099 = DIRECTION ( 'NONE',  ( -0.000000000000000000, -0.000000000000000000, 1.000000000000000000 ) ) ;
#1100 = DIRECTION ( 'NONE',  ( 1.000000000000000000, 0.000000000000000000, -8.673617379884029309E-17 ) ) ;
#1101 = ORIENTED_EDGE ( 'NONE', *, *, #1096, .T. ) ;
#1102 = VECTOR ( 'NONE', #1220, 1000.000000000000000 ) ;
#1103 = FACE_OUTER_BOUND ( 'NONE', #1218, .T. ) ;
#1104 = DIRECTION ( 'NONE',  ( 0.000000000000000000, -0.000000000000000000, -1.000000000000000000 ) ) ;
#1105 = CARTESIAN_POINT ( 'NONE',  ( 6.499999999999997335, 15.00000000000000355, 2.500000000000000444 ) ) ;
#1106 = VECTOR ( 'NONE', #370, 1000.000000000000000 ) ;
#1107 = ORIENTED_EDGE ( 'NONE', *, *, #825, .T. ) ;
#1108 = ORIENTED_EDGE ( 'NONE', *, *, #788, .T. ) ;
#1109 = DIRECTION ( 'NONE',  ( 0.000000000000000000, -1.000000000000000000, 0.000000000000000000 ) ) ;
#1110 = EDGE_CURVE ( 'NONE', #303, #22, #425, .T. ) ;
#1111 = CARTESIAN_POINT ( 'NONE',  ( 0.000000000000000000, 15.00000000000000355, 0.000000000000000000 ) ) ;
#1112 = LINE ( 'NONE', #524, #527 ) ;
#1113 = ORIENTED_EDGE ( 'NONE', *, *, #510, .T. ) ;
#1114 = ORIENTED_EDGE ( 'NONE', *, *, #726, .T. ) ;
#1115 = DIRECTION ( 'NONE',  ( 8.673617379884035472E-16, 0.000000000000000000, 1.000000000000000000 ) ) ;
#1116 = AXIS2_PLACEMENT_3D ( 'NONE', #555, #818, #339 ) ;
#1117 = CONICAL_SURFACE ( 'NONE', #1081, 0.9999999999999956701, 0.7853981633974466137 ) ;
#1118 = ADVANCED_FACE ( 'NONE', ( #385 ), #272, .F. ) ;
#1119 = CARTESIAN_POINT ( 'NONE',  ( 6.499999999999992006, 15.00000000000000355, -4.500000000000000000 ) ) ;
#1120 = EDGE_CURVE ( 'NONE', #539, #540, #946, .T. ) ;
#1121 = CARTESIAN_POINT ( 'NONE',  ( 6.500000000000000000, 35.00000000000000000, -7.517135062566166705E-16 ) ) ;
#1122 = CARTESIAN_POINT ( 'NONE',  ( 0.000000000000000000, 25.00000000000000000, 2.500000000000002220 ) ) ;
#1123 = EDGE_LOOP ( 'NONE', ( #166, #609, #583, #850 ) ) ;
#1124 = ORIENTED_EDGE ( 'NONE', *, *, #1246, .T. ) ;
#1125 = DIRECTION ( 'NONE',  ( 1.156482317317871725E-16, 0.000000000000000000, 1.000000000000000000 ) ) ;
#1126 =( GEOMETRIC_REPRESENTATION_CONTEXT ( 3 ) GLOBAL_UNCERTAINTY_ASSIGNED_CONTEXT ( ( #498 ) ) GLOBAL_UNIT_ASSIGNED_CONTEXT ( ( #848, #729, #400 ) ) REPRESENTATION_CONTEXT ( 'NONE', 'WORKASPACE' ) );
#1127 = CARTESIAN_POINT ( 'NONE',  ( -6.499999999999990230, 15.00000000000000355, -4.500000000000000000 ) ) ;
#1128 = DIRECTION ( 'NONE',  ( 0.000000000000000000, 0.000000000000000000, 1.000000000000000000 ) ) ;
#1129 = SURFACE_STYLE_FILL_AREA ( #150 ) ;
#1130 = ORIENTED_EDGE ( 'NONE', *, *, #766, .F. ) ;
#1131 = ORIENTED_EDGE ( 'NONE', *, *, #1076, .F. ) ;
#1132 = VECTOR ( 'NONE', #846, 1000.000000000000000 ) ;
#1133 = DIRECTION ( 'NONE',  ( -1.000000000000000000, -0.000000000000000000, 1.156482317317871725E-16 ) ) ;
#1134 = LINE ( 'NONE', #9, #854 ) ;
#1135 = LINE ( 'NONE', #63, #200 ) ;
#1136 = CARTESIAN_POINT ( 'NONE',  ( 6.499999999999997335, 15.00000000000000355, 2.500000000000000444 ) ) ;
#1137 = ORIENTED_EDGE ( 'NONE', *, *, #944, .F. ) ;
#1138 = CARTESIAN_POINT ( 'NONE',  ( 7.500000000000000888, 35.00000000000000000, -1.499999999999996891 ) ) ;
#1139 = EDGE_CURVE ( 'NONE', #275, #465, #470, .T. ) ;
#1140 = CONICAL_SURFACE ( 'NONE', #95, 1.000000000000005995, 0.7853981633974465026 ) ;
#1141 = ADVANCED_FACE ( 'NONE', ( #764 ), #162, .T. ) ;
#1142 = CARTESIAN_POINT ( 'NONE',  ( 6.499999999999992006, 15.00000000000000355, -5.500000000000001776 ) ) ;
#1143 = DIRECTION ( 'NONE',  ( 1.000000000000000000, 0.000000000000000000, -1.156482317317871725E-16 ) ) ;
#1144 = ORIENTED_EDGE ( 'NONE', *, *, #562, .T. ) ;
#1145 = ORIENTED_EDGE ( 'NONE', *, *, #174, .F. ) ;
#1146 = DIRECTION ( 'NONE',  ( 0.000000000000000000, 0.000000000000000000, -1.000000000000000000 ) ) ;
#1147 = DIRECTION ( 'NONE',  ( 0.000000000000000000, 0.000000000000000000, -1.000000000000000000 ) ) ;
#1148 = CARTESIAN_POINT ( 'NONE',  ( 7.500000000000000000, 13.00000000000000355, -5.500000000000001776 ) ) ;
#1149 = ORIENTED_EDGE ( 'NONE', *, *, #1120, .F. ) ;
#1150 = CONICAL_SURFACE ( 'NONE', #607, 3.000000000000003997, 0.7853981633974485010 ) ;
#1151 = CARTESIAN_POINT ( 'NONE',  ( -7.499999999999998224, 17.00000000000000000, 4.500000000000002665 ) ) ;
#1152 = DIRECTION ( 'NONE',  ( 0.7071067811865469066, -0.7071067811865482389, 0.000000000000000000 ) ) ;
#1153 = ORIENTED_EDGE ( 'NONE', *, *, #1191, .F. ) ;
#1154 = EDGE_LOOP ( 'NONE', ( #630, #142, #14, #730 ) ) ;
#1155 = DIRECTION ( 'NONE',  ( -1.156482317317871725E-16, 0.000000000000000000, -1.000000000000000000 ) ) ;
#1156 = FACE_OUTER_BOUND ( 'NONE', #1059, .T. ) ;
#1157 = ADVANCED_FACE ( 'NONE', ( #1042 ), #163, .F. ) ;
#1158 = VERTEX_POINT ( 'NONE', #1238 ) ;
#1159 = ORIENTED_EDGE ( 'NONE', *, *, #766, .T. ) ;
#1160 = DIRECTION ( 'NONE',  ( 0.5773502691896259531, 0.5773502691896278405, 0.5773502691896235106 ) ) ;
#1161 = DIRECTION ( 'NONE',  ( -1.000000000000000000, -0.000000000000000000, 1.156482317317871725E-16 ) ) ;
#1162 = ORIENTED_EDGE ( 'NONE', *, *, #919, .F. ) ;
#1163 = VECTOR ( 'NONE', #516, 1000.000000000000000 ) ;
#1164 = DIRECTION ( 'NONE',  ( 0.000000000000000000, -1.000000000000000000, 0.000000000000000000 ) ) ;
#1165 = ORIENTED_EDGE ( 'NONE', *, *, #398, .T. ) ;
#1166 = CARTESIAN_POINT ( 'NONE',  ( -6.500000000000000888, 15.00000000000000355, 2.500000000000002220 ) ) ;
#1167 = VECTOR ( 'NONE', #777, 1000.000000000000000 ) ;
#1168 = FACE_BOUND ( 'NONE', #440, .T. ) ;
#1169 = EDGE_CURVE ( 'NONE', #1016, #283, #361, .T. ) ;
#1170 = CARTESIAN_POINT ( 'NONE',  ( -6.500000000000000888, 15.00000000000000355, 5.500000000000000000 ) ) ;
#1171 = ORIENTED_EDGE ( 'NONE', *, *, #57, .T. ) ;
#1172 = EDGE_CURVE ( 'NONE', #768, #331, #91, .T. ) ;
#1173 = EDGE_CURVE ( 'NONE', #559, #515, #176, .T. ) ;
#1174 = CARTESIAN_POINT ( 'NONE',  ( 6.499999999999992006, 35.00000000000000000, -7.500000000000001776 ) ) ;
#1175 = VECTOR ( 'NONE', #716, 1000.000000000000114 ) ;
#1176 = DIRECTION ( 'NONE',  ( 0.000000000000000000, 1.000000000000000000, 0.000000000000000000 ) ) ;
#1177 = AXIS2_PLACEMENT_3D ( 'NONE', #317, #1161, #805 ) ;
#1178 = CARTESIAN_POINT ( 'NONE',  ( -6.500000000000000888, 15.00000000000000355, 5.500000000000000000 ) ) ;
#1179 = EDGE_LOOP ( 'NONE', ( #1225, #177, #183, #779 ) ) ;
#1180 = CARTESIAN_POINT ( 'NONE',  ( 7.500000000000000000, 13.99999999999999822, -4.500000000000000000 ) ) ;
#1181 = CARTESIAN_POINT ( 'NONE',  ( 7.166666666666666075, 34.33333333333333570, -1.833333333333330151 ) ) ;
#1182 = DIRECTION ( 'NONE',  ( 0.000000000000000000, -0.000000000000000000, 1.000000000000000000 ) ) ;
#1183 = AXIS2_PLACEMENT_3D ( 'NONE', #824, #265, #932 ) ;
#1184 = ORIENTED_EDGE ( 'NONE', *, *, #507, .T. ) ;
#1185 = FACE_OUTER_BOUND ( 'NONE', #948, .T. ) ;
#1186 = AXIS2_PLACEMENT_3D ( 'NONE', #819, #823, #1199 ) ;
#1187 = AXIS2_PLACEMENT_3D ( 'NONE', #990, #1109, #13 ) ;
#1188 = CARTESIAN_POINT ( 'NONE',  ( 6.499999999999992895, 15.00000000000000355, -7.517135062566157831E-16 ) ) ;
#1189 = FACE_OUTER_BOUND ( 'NONE', #927, .T. ) ;
#1190 = LINE ( 'NONE', #1178, #817 ) ;
#1191 = EDGE_CURVE ( 'NONE', #1224, #481, #837, .T. ) ;
#1192 = VERTEX_POINT ( 'NONE', #752 ) ;
#1193 = CARTESIAN_POINT ( 'NONE',  ( -7.499999999999999112, 33.99999999999998579, 1.500000000000008438 ) ) ;
#1194 = CARTESIAN_POINT ( 'NONE',  ( -5.000000000000003553, 25.00000000000000000, -2.499999999999998224 ) ) ;
#1195 = DIRECTION ( 'NONE',  ( 0.000000000000000000, 0.000000000000000000, -1.000000000000000000 ) ) ;
#1196 = EDGE_CURVE ( 'NONE', #22, #768, #1135, .T. ) ;
#1197 = EDGE_LOOP ( 'NONE', ( #38, #199, #379, #291 ) ) ;
#1198 = DIRECTION ( 'NONE',  ( 1.000000000000000000, 0.000000000000000000, 0.000000000000000000 ) ) ;
#1199 = DIRECTION ( 'NONE',  ( 0.000000000000000000, 1.000000000000000000, 0.000000000000000000 ) ) ;
#1200 = DIRECTION ( 'NONE',  ( -1.000000000000000000, 0.000000000000000000, 8.673617379884029309E-17 ) ) ;
#1201 = EDGE_CURVE ( 'NONE', #681, #1030, #508, .T. ) ;
#1202 = ORIENTED_EDGE ( 'NONE', *, *, #338, .T. ) ;
#1203 = VERTEX_POINT ( 'NONE', #938 ) ;
#1204 = DIRECTION ( 'NONE',  ( 0.000000000000000000, 1.000000000000000000, 0.000000000000000000 ) ) ;
#1205 = CIRCLE ( 'NONE', #665, 1.400000000000000133 ) ;
#1206 = CARTESIAN_POINT ( 'NONE',  ( -7.499999999999999112, 35.00000000000000000, -2.499999999999999556 ) ) ;
#1207 = DIRECTION ( 'NONE',  ( 0.000000000000000000, 0.000000000000000000, 1.000000000000000000 ) ) ;
#1208 = ADVANCED_FACE ( 'NONE', ( #960 ), #952, .F. ) ;
#1209 = AXIS2_PLACEMENT_3D ( 'NONE', #45, #334, #1100 ) ;
#1210 = ORIENTED_EDGE ( 'NONE', *, *, #896, .F. ) ;
#1211 = ORIENTED_EDGE ( 'NONE', *, *, #113, .T. ) ;
#1212 = DIRECTION ( 'NONE',  ( 0.000000000000000000, 0.000000000000000000, -1.000000000000000000 ) ) ;
#1213 = EDGE_CURVE ( 'NONE', #349, #746, #1216, .T. ) ;
#1214 = VECTOR ( 'NONE', #902, 1000.000000000000000 ) ;
#1215 = LINE ( 'NONE', #253, #1079 ) ;
#1216 = LINE ( 'NONE', #353, #390 ) ;
#1217 = DIRECTION ( 'NONE',  ( 1.156482317317871478E-16, 0.000000000000000000, 1.000000000000000000 ) ) ;
#1218 = EDGE_LOOP ( 'NONE', ( #1149, #11, #1153, #46 ) ) ;
#1219 = EDGE_LOOP ( 'NONE', ( #891, #251 ) ) ;
#1220 = DIRECTION ( 'NONE',  ( -0.7071067811865487940, 0.7071067811865463515, 0.000000000000000000 ) ) ;
#1221 = CARTESIAN_POINT ( 'NONE',  ( 6.499999999999998224, 35.00000000000000000, 7.499999999999998224 ) ) ;
#1222 = CARTESIAN_POINT ( 'NONE',  ( 0.000000000000000000, 10.00000000000000000, -4.000000000000000000 ) ) ;
#1223 = CARTESIAN_POINT ( 'NONE',  ( -6.499999999999989342, 17.00000000000000000, -4.500000000000000000 ) ) ;
#1224 = VERTEX_POINT ( 'NONE', #169 ) ;
#1225 = ORIENTED_EDGE ( 'NONE', *, *, #179, .T. ) ;
#1226 = CYLINDRICAL_SURFACE ( 'NONE', #406, 2.000000000000000000 ) ;
#1227 = AXIS2_PLACEMENT_3D ( 'NONE', #276, #178, #1115 ) ;
#1228 = DIRECTION ( 'NONE',  ( -1.156482317317871725E-16, 0.000000000000000000, -1.000000000000000000 ) ) ;
#1229 = DIRECTION ( 'NONE',  ( -0.000000000000000000, -1.000000000000000000, -0.000000000000000000 ) ) ;
#1230 = EDGE_CURVE ( 'NONE', #1058, #816, #858, .T. ) ;
#1231 = EDGE_CURVE ( 'NONE', #722, #532, #1205, .T. ) ;
#1232 = VECTOR ( 'NONE', #376, 1000.000000000000114 ) ;
#1233 = ORIENTED_EDGE ( 'NONE', *, *, #179, .F. ) ;
#1234 = ORIENTED_EDGE ( 'NONE', *, *, #47, .F. ) ;
#1235 = CIRCLE ( 'NONE', #137, 3.000000000000004441 ) ;
#1236 = DIRECTION ( 'NONE',  ( -1.156482317317872218E-16, 0.000000000000000000, -1.000000000000000000 ) ) ;
#1237 = CARTESIAN_POINT ( 'NONE',  ( -7.500000000000000000, 15.00000000000000355, -5.500000000000000000 ) ) ;
#1238 = CARTESIAN_POINT ( 'NONE',  ( 1.714505518806294145E-16, 0.000000000000000000, -2.600000000000000089 ) ) ;
#1239 = CARTESIAN_POINT ( 'NONE',  ( 6.499999999999992006, 35.00000000000000000, -7.500000000000001776 ) ) ;
#1240 = VERTEX_POINT ( 'NONE', #643 ) ;
#1241 = EDGE_LOOP ( 'NONE', ( #79, #690, #653, #111 ) ) ;
#1242 = AXIS2_PLACEMENT_3D ( 'NONE', #1188, #118, #1080 ) ;
#1243 = PLANE ( 'NONE',  #42 ) ;
#1244 = CARTESIAN_POINT ( 'NONE',  ( 13.16666666666666075, 28.33333333333334281, -4.166666666666669627 ) ) ;
#1245 = FACE_OUTER_BOUND ( 'NONE', #935, .T. ) ;
#1246 = EDGE_CURVE ( 'NONE', #243, #816, #181, .T. ) ;
#1247 = ORIENTED_EDGE ( 'NONE', *, *, #719, .T. ) ;
ENDSEC;
END-ISO-10303-21;
