ISO-10303-21;
HEADER;
FILE_DESCRIPTION (( 'STEP AP214' ),
    '1' );
FILE_NAME ('Rear-Wheel-Hub.STEP',
    '2026-05-08T14:34:32',
    ( '' ),
    ( '' ),
    'SwSTEP 2.0',
    'SolidWorks 2026',
    '' );
FILE_SCHEMA (( 'AUTOMOTIVE_DESIGN' ));
ENDSEC;

DATA;
#1 = EDGE_CURVE ( 'NONE', #974, #327, #720, .T. ) ;
#2 = DIRECTION ( 'NONE',  ( 1.156482317317871725E-16, -1.000000000000000000, 0.000000000000000000 ) ) ;
#3 = ORIENTED_EDGE ( 'NONE', *, *, #932, .F. ) ;
#4 = DIRECTION ( 'NONE',  ( 0.000000000000000000, 0.000000000000000000, -1.000000000000000000 ) ) ;
#5 = EDGE_CURVE ( 'NONE', #1065, #695, #985, .T. ) ;
#6 = AXIS2_PLACEMENT_3D ( 'NONE', #929, #769, #355 ) ;
#7 = VECTOR ( 'NONE', #874, 1000.000000000000000 ) ;
#8 = AXIS2_PLACEMENT_3D ( 'NONE', #73, #752, #538 ) ;
#9 = FACE_BOUND ( 'NONE', #758, .T. ) ;
#10 = CARTESIAN_POINT ( 'NONE',  ( -2.000000000000002665, 30.00000000000000355, -4.500000000000000000 ) ) ;
#11 = CYLINDRICAL_SURFACE ( 'NONE', #227, 4.000000000000000000 ) ;
#12 = CARTESIAN_POINT ( 'NONE',  ( -5.999999999999997335, -12.50000000000000711, -7.500000000000000888 ) ) ;
#13 = ORIENTED_EDGE ( 'NONE', *, *, #377, .F. ) ;
#14 = CARTESIAN_POINT ( 'NONE',  ( -1.577021341797098004E-15, 12.50000000000000711, -7.500000000000000888 ) ) ;
#15 = PLANE ( 'NONE',  #117 ) ;
#16 = CARTESIAN_POINT ( 'NONE',  ( 6.000000000000002665, -17.50000000000000711, 7.500000000000000888 ) ) ;
#17 = ORIENTED_EDGE ( 'NONE', *, *, #739, .F. ) ;
#18 = DIRECTION ( 'NONE',  ( 1.000000000000000000, 0.000000000000000000, 0.000000000000000000 ) ) ;
#19 = ORIENTED_EDGE ( 'NONE', *, *, #202, .F. ) ;
#20 = AXIS2_PLACEMENT_3D ( 'NONE', #422, #923, #669 ) ;
#21 = ADVANCED_FACE ( 'NONE', ( #53 ), #878, .F. ) ;
#22 = CIRCLE ( 'NONE', #386, 5.000000000000000000 ) ;
#23 = CIRCLE ( 'NONE', #866, 5.000000000000000000 ) ;
#24 = ORIENTED_EDGE ( 'NONE', *, *, #71, .T. ) ;
#25 = AXIS2_PLACEMENT_3D ( 'NONE', #231, #653, #138 ) ;
#26 = CARTESIAN_POINT ( 'NONE',  ( -1.999999999999996669, -29.99999999999999645, 12.50000000000000000 ) ) ;
#27 = DIRECTION ( 'NONE',  ( 8.673617379884035472E-17, -1.000000000000000000, 0.000000000000000000 ) ) ;
#28 = CYLINDRICAL_SURFACE ( 'NONE', #209, 4.000000000000000000 ) ;
#29 = CARTESIAN_POINT ( 'NONE',  ( -6.000000000000007994, 17.50000000000000711, -4.500000000000000888 ) ) ;
#30 = ORIENTED_EDGE ( 'NONE', *, *, #1106, .F. ) ;
#31 = EDGE_CURVE ( 'NONE', #537, #733, #880, .T. ) ;
#32 = ORIENTED_EDGE ( 'NONE', *, *, #887, .F. ) ;
#33 = VERTEX_POINT ( 'NONE', #114 ) ;
#34 = CARTESIAN_POINT ( 'NONE',  ( 1.249999999999986455, 25.00000000000000711, 4.499999999999999112 ) ) ;
#35 = VERTEX_POINT ( 'NONE', #456 ) ;
#36 = CYLINDRICAL_SURFACE ( 'NONE', #934, 2.249999999999996891 ) ;
#37 = VECTOR ( 'NONE', #298, 1000.000000000000000 ) ;
#38 = EDGE_LOOP ( 'NONE', ( #176, #994, #1060, #576 ) ) ;
#39 = CIRCLE ( 'NONE', #228, 7.500000000000000000 ) ;
#40 = DIRECTION ( 'NONE',  ( -1.000000000000000000, -1.261617073437677752E-16, -0.000000000000000000 ) ) ;
#41 = VERTEX_POINT ( 'NONE', #966 ) ;
#42 = AXIS2_PLACEMENT_3D ( 'NONE', #316, #217, #655 ) ;
#43 = CIRCLE ( 'NONE', #832, 4.000000000000000000 ) ;
#44 = DIRECTION ( 'NONE',  ( 1.000000000000000000, 1.261617073437677752E-16, -0.000000000000000000 ) ) ;
#45 = PRODUCT_DEFINITION_SHAPE ( 'NONE', 'NONE',  #780 ) ;
#46 = ORIENTED_EDGE ( 'NONE', *, *, #146, .T. ) ;
#47 = LINE ( 'NONE', #396, #673 ) ;
#48 = ORIENTED_EDGE ( 'NONE', *, *, #943, .T. ) ;
#49 = CYLINDRICAL_SURFACE ( 'NONE', #1102, 5.000000000000000000 ) ;
#50 = EDGE_LOOP ( 'NONE', ( #137, #74, #633, #715 ) ) ;
#51 = FACE_OUTER_BOUND ( 'NONE', #567, .T. ) ;
#52 = EDGE_CURVE ( 'NONE', #534, #238, #886, .T. ) ;
#53 = FACE_OUTER_BOUND ( 'NONE', #554, .T. ) ;
#54 = DIRECTION ( 'NONE',  ( 0.000000000000000000, 0.000000000000000000, -1.000000000000000000 ) ) ;
#55 = FACE_OUTER_BOUND ( 'NONE', #50, .T. ) ;
#56 = VERTEX_POINT ( 'NONE', #556 ) ;
#57 = DIRECTION ( 'NONE',  ( -1.000000000000000000, -1.156482317317871725E-16, -0.000000000000000000 ) ) ;
#58 = LINE ( 'NONE', #325, #97 ) ;
#59 = FACE_OUTER_BOUND ( 'NONE', #269, .T. ) ;
#60 = PLANE ( 'NONE',  #25 ) ;
#61 = ORIENTED_EDGE ( 'NONE', *, *, #458, .F. ) ;
#62 = AXIS2_PLACEMENT_3D ( 'NONE', #92, #340, #762 ) ;
#63 = DIRECTION ( 'NONE',  ( 1.000000000000000000, 1.261617073437677752E-16, -0.000000000000000000 ) ) ;
#64 = CIRCLE ( 'NONE', #99, 4.000000000000000000 ) ;
#65 = CARTESIAN_POINT ( 'NONE',  ( 6.000000000000000888, 6.938893903907232322E-16, 0.000000000000000000 ) ) ;
#66 = ADVANCED_FACE ( 'NONE', ( #879 ), #11, .T. ) ;
#67 = ORIENTED_EDGE ( 'NONE', *, *, #521, .T. ) ;
#68 = CARTESIAN_POINT ( 'NONE',  ( 6.000000000000000888, 1.343031257496162413E-15, -4.500000000000003553 ) ) ;
#69 = DIRECTION ( 'NONE',  ( -0.000000000000000000, -0.000000000000000000, 1.000000000000000000 ) ) ;
#70 = ADVANCED_FACE ( 'NONE', ( #1091, #59 ), #848, .F. ) ;
#71 = EDGE_CURVE ( 'NONE', #695, #938, #83, .T. ) ;
#72 = ORIENTED_EDGE ( 'NONE', *, *, #452, .F. ) ;
#73 = CARTESIAN_POINT ( 'NONE',  ( -1.999999999999999112, -2.312964634635742464E-16, 0.000000000000000000 ) ) ;
#74 = ORIENTED_EDGE ( 'NONE', *, *, #1068, .T. ) ;
#75 = CARTESIAN_POINT ( 'NONE',  ( 5.999999999999999112, 17.50000000000000711, -4.500000000000000888 ) ) ;
#76 = EDGE_CURVE ( 'NONE', #661, #718, #1036, .T. ) ;
#77 = CARTESIAN_POINT ( 'NONE',  ( -6.000000000000007994, 17.50000000000000711, 0.000000000000000000 ) ) ;
#78 = ORIENTED_EDGE ( 'NONE', *, *, #126, .F. ) ;
#79 = CARTESIAN_POINT ( 'NONE',  ( 5.999999999999999112, 17.50000000000000711, 0.000000000000000000 ) ) ;
#80 = VECTOR ( 'NONE', #350, 1000.000000000000000 ) ;
#81 = VECTOR ( 'NONE', #519, 1000.000000000000000 ) ;
#82 = PLANE ( 'NONE',  #249 ) ;
#83 = LINE ( 'NONE', #665, #634 ) ;
#84 = ORIENTED_EDGE ( 'NONE', *, *, #352, .T. ) ;
#85 = CARTESIAN_POINT ( 'NONE',  ( 3.000000000000000888, 3.469446951953616161E-16, 0.000000000000000000 ) ) ;
#86 = DIRECTION ( 'NONE',  ( 1.750845403988399465E-32, -1.387778780781448387E-16, -1.000000000000000000 ) ) ;
#87 = EDGE_CURVE ( 'NONE', #987, #537, #408, .T. ) ;
#88 = DIRECTION ( 'NONE',  ( -1.000000000000000000, -1.156482317317871725E-16, 0.000000000000000000 ) ) ;
#89 = ORIENTED_EDGE ( 'NONE', *, *, #52, .T. ) ;
#90 = DIRECTION ( 'NONE',  ( 1.261617073437677752E-16, -1.000000000000000000, 0.000000000000000000 ) ) ;
#91 = EDGE_CURVE ( 'NONE', #33, #293, #346, .T. ) ;
#92 = CARTESIAN_POINT ( 'NONE',  ( 5.999999999999998224, 12.50000000000000888, 7.500000000000000888 ) ) ;
#93 = DIRECTION ( 'NONE',  ( 1.156482317317871725E-16, -1.000000000000000000, 0.000000000000000000 ) ) ;
#94 = DIRECTION ( 'NONE',  ( 1.000000000000000000, 0.000000000000000000, 0.000000000000000000 ) ) ;
#95 = AXIS2_PLACEMENT_3D ( 'NONE', #1043, #794, #540 ) ;
#96 = FACE_BOUND ( 'NONE', #992, .T. ) ;
#97 = VECTOR ( 'NONE', #663, 1000.000000000000000 ) ;
#98 = AXIS2_PLACEMENT_3D ( 'NONE', #581, #568, #1080 ) ;
#99 = AXIS2_PLACEMENT_3D ( 'NONE', #566, #307, #906 ) ;
#100 = FACE_OUTER_BOUND ( 'NONE', #337, .T. ) ;
#101 = ORIENTED_EDGE ( 'NONE', *, *, #195, .T. ) ;
#102 = FACE_OUTER_BOUND ( 'NONE', #483, .T. ) ;
#103 = ORIENTED_EDGE ( 'NONE', *, *, #710, .F. ) ;
#104 = LINE ( 'NONE', #447, #808 ) ;
#105 = FACE_OUTER_BOUND ( 'NONE', #511, .T. ) ;
#106 = DIRECTION ( 'NONE',  ( -8.754227019941993218E-33, 6.938893903907238238E-17, 1.000000000000000000 ) ) ;
#107 = ORIENTED_EDGE ( 'NONE', *, *, #276, .F. ) ;
#108 = VERTEX_POINT ( 'NONE', #743 ) ;
#109 = EDGE_CURVE ( 'NONE', #216, #130, #1082, .T. ) ;
#110 = CARTESIAN_POINT ( 'NONE',  ( -1.999999999999998668, -5.500000000000000000, 0.000000000000000000 ) ) ;
#111 = PRODUCT_RELATED_PRODUCT_CATEGORY ( 'part', '', ( #220 ) ) ;
#112 = CARTESIAN_POINT ( 'NONE',  ( -5.999999999999998224, -7.500000000000000888, 0.000000000000000000 ) ) ;
#113 = CARTESIAN_POINT ( 'NONE',  ( -6.000000000000009770, 30.00000000000000355, 4.500000000000000888 ) ) ;
#114 = CARTESIAN_POINT ( 'NONE',  ( -6.000000000000007994, 17.50000000000000711, 7.500000000000000888 ) ) ;
#115 = AXIS2_PLACEMENT_3D ( 'NONE', #694, #88, #93 ) ;
#116 = VECTOR ( 'NONE', #162, 1000.000000000000000 ) ;
#117 = AXIS2_PLACEMENT_3D ( 'NONE', #365, #372, #877 ) ;
#118 = ORIENTED_EDGE ( 'NONE', *, *, #765, .F. ) ;
#119 = DIRECTION ( 'NONE',  ( 0.000000000000000000, 1.000000000000000000, 0.000000000000000000 ) ) ;
#120 = VERTEX_POINT ( 'NONE', #584 ) ;
#121 = EDGE_CURVE ( 'NONE', #478, #527, #915, .T. ) ;
#122 = SHAPE_DEFINITION_REPRESENTATION ( #45, #368 ) ;
#123 = VERTEX_POINT ( 'NONE', #159 ) ;
#124 = LINE ( 'NONE', #491, #267 ) ;
#125 = ORIENTED_EDGE ( 'NONE', *, *, #999, .T. ) ;
#126 = EDGE_CURVE ( 'NONE', #444, #1048, #833, .T. ) ;
#127 = CARTESIAN_POINT ( 'NONE',  ( -1.999999999999996669, -29.99999999999999645, -4.500000000000000000 ) ) ;
#128 = ORIENTED_EDGE ( 'NONE', *, *, #898, .F. ) ;
#129 = LINE ( 'NONE', #351, #1054 ) ;
#130 = VERTEX_POINT ( 'NONE', #601 ) ;
#131 = ORIENTED_EDGE ( 'NONE', *, *, #210, .F. ) ;
#132 = FACE_OUTER_BOUND ( 'NONE', #38, .T. ) ;
#133 = CARTESIAN_POINT ( 'NONE',  ( 6.000000000000000888, 6.938893903907232322E-16, 0.000000000000000000 ) ) ;
#134 = DIRECTION ( 'NONE',  ( 1.750845403988399465E-32, -1.387778780781448387E-16, -1.000000000000000000 ) ) ;
#135 = VECTOR ( 'NONE', #616, 1000.000000000000000 ) ;
#136 = CIRCLE ( 'NONE', #509, 5.500000000000000000 ) ;
#137 = ORIENTED_EDGE ( 'NONE', *, *, #126, .T. ) ;
#138 = DIRECTION ( 'NONE',  ( 1.000000000000000000, 0.000000000000000000, 0.000000000000000000 ) ) ;
#139 = VERTEX_POINT ( 'NONE', #930 ) ;
#140 = AXIS2_PLACEMENT_3D ( 'NONE', #647, #1070, #1083 ) ;
#141 = FACE_OUTER_BOUND ( 'NONE', #517, .T. ) ;
#142 = DIRECTION ( 'NONE',  ( -1.000000000000000000, -1.156482317317871725E-16, 0.000000000000000000 ) ) ;
#143 = ORIENTED_EDGE ( 'NONE', *, *, #921, .T. ) ;
#144 = ORIENTED_EDGE ( 'NONE', *, *, #635, .T. ) ;
#145 = LINE ( 'NONE', #303, #955 ) ;
#146 = EDGE_CURVE ( 'NONE', #478, #534, #438, .T. ) ;
#147 = LINE ( 'NONE', #489, #116 ) ;
#148 = LINE ( 'NONE', #573, #531 ) ;
#149 = EDGE_LOOP ( 'NONE', ( #212, #631, #1029, #976, #3, #382 ) ) ;
#150 = DIRECTION ( 'NONE',  ( 1.000000000000000000, 1.261617073437677752E-16, -0.000000000000000000 ) ) ;
#151 = DIRECTION ( 'NONE',  ( 1.000000000000000000, 1.261617073437677752E-16, 0.000000000000000000 ) ) ;
#152 = VECTOR ( 'NONE', #277, 1000.000000000000000 ) ;
#153 = ORIENTED_EDGE ( 'NONE', *, *, #326, .F. ) ;
#154 = CIRCLE ( 'NONE', #354, 5.000000000000000000 ) ;
#155 = DIRECTION ( 'NONE',  ( 0.000000000000000000, -1.000000000000000000, 0.000000000000000000 ) ) ;
#156 = VECTOR ( 'NONE', #40, 1000.000000000000000 ) ;
#157 = DIRECTION ( 'NONE',  ( 1.734723475976806848E-16, -1.000000000000000000, 0.000000000000000000 ) ) ;
#158 = ADVANCED_FACE ( 'NONE', ( #1061 ), #36, .F. ) ;
#159 = CARTESIAN_POINT ( 'NONE',  ( 3.000000000000001332, -5.500000000000000000, 0.000000000000000000 ) ) ;
#160 = ORIENTED_EDGE ( 'NONE', *, *, #452, .T. ) ;
#161 = LINE ( 'NONE', #502, #207 ) ;
#162 = DIRECTION ( 'NONE',  ( 0.000000000000000000, 0.000000000000000000, -1.000000000000000000 ) ) ;
#163 = VERTEX_POINT ( 'NONE', #190 ) ;
#164 = DIRECTION ( 'NONE',  ( 0.000000000000000000, 0.000000000000000000, 1.000000000000000000 ) ) ;
#165 = EDGE_CURVE ( 'NONE', #970, #388, #181, .T. ) ;
#166 = DIRECTION ( 'NONE',  ( 0.000000000000000000, 0.000000000000000000, 1.000000000000000000 ) ) ;
#167 = ORIENTED_EDGE ( 'NONE', *, *, #714, .T. ) ;
#168 = ADVANCED_FACE ( 'NONE', ( #9, #516 ), #358, .F. ) ;
#169 = DIRECTION ( 'NONE',  ( 1.000000000000000000, 1.261617073437677752E-16, 0.000000000000000000 ) ) ;
#170 = AXIS2_PLACEMENT_3D ( 'NONE', #587, #919, #157 ) ;
#171 = AXIS2_PLACEMENT_3D ( 'NONE', #764, #1111, #609 ) ;
#172 = CYLINDRICAL_SURFACE ( 'NONE', #657, 7.500000000000000000 ) ;
#173 = VECTOR ( 'NONE', #802, 1000.000000000000000 ) ;
#174 = EDGE_CURVE ( 'NONE', #718, #661, #1003, .T. ) ;
#175 = DIRECTION ( 'NONE',  ( 0.000000000000000000, 0.000000000000000000, -1.000000000000000000 ) ) ;
#176 = ORIENTED_EDGE ( 'NONE', *, *, #816, .F. ) ;
#177 = DIRECTION ( 'NONE',  ( 1.156482317317871725E-16, -1.000000000000000000, 0.000000000000000000 ) ) ;
#178 = LINE ( 'NONE', #443, #206 ) ;
#179 = DIRECTION ( 'NONE',  ( 8.754227019941993218E-33, -6.938893903907238238E-17, -1.000000000000000000 ) ) ;
#180 = CARTESIAN_POINT ( 'NONE',  ( 1.249999999999994227, -24.49999999999999289, 4.499999999999999112 ) ) ;
#181 = LINE ( 'NONE', #937, #152 ) ;
#182 = ORIENTED_EDGE ( 'NONE', *, *, #598, .F. ) ;
#183 = CARTESIAN_POINT ( 'NONE',  ( 1.999999999999997335, 30.00000000000000355, -4.500000000000000000 ) ) ;
#184 = ORIENTED_EDGE ( 'NONE', *, *, #1, .F. ) ;
#185 = AXIS2_PLACEMENT_3D ( 'NONE', #1028, #941, #620 ) ;
#186 = VECTOR ( 'NONE', #817, 1000.000000000000000 ) ;
#187 =( NAMED_UNIT ( * ) PLANE_ANGLE_UNIT ( ) SI_UNIT ( $, .RADIAN. ) );
#188 = VECTOR ( 'NONE', #1052, 1000.000000000000000 ) ;
#189 = ADVANCED_FACE ( 'NONE', ( #625, #105 ), #272, .T. ) ;
#190 = CARTESIAN_POINT ( 'NONE',  ( 6.000000000000002665, -12.50000000000000711, 12.50000000000000000 ) ) ;
#191 = ORIENTED_EDGE ( 'NONE', *, *, #865, .F. ) ;
#192 = CARTESIAN_POINT ( 'NONE',  ( -6.000000000000000000, 12.50000000000000711, 12.50000000000000000 ) ) ;
#193 = DIRECTION ( 'NONE',  ( 0.000000000000000000, 1.000000000000000000, 0.000000000000000000 ) ) ;
#194 = EDGE_LOOP ( 'NONE', ( #596, #648, #849, #791 ) ) ;
#195 = EDGE_CURVE ( 'NONE', #280, #423, #205, .T. ) ;
#196 = CARTESIAN_POINT ( 'NONE',  ( -1.999999999999996669, -25.99999999999999645, 12.50000000000000000 ) ) ;
#197 = CARTESIAN_POINT ( 'NONE',  ( -6.000000000000009770, 26.00000000000000355, -4.500000000000000000 ) ) ;
#198 = ORIENTED_EDGE ( 'NONE', *, *, #291, .T. ) ;
#199 = APPLICATION_PROTOCOL_DEFINITION ( 'draft international standard', 'automotive_design', 1998, #366 ) ;
#200 = ORIENTED_EDGE ( 'NONE', *, *, #370, .T. ) ;
#201 = DIRECTION ( 'NONE',  ( -0.000000000000000000, 0.000000000000000000, -1.000000000000000000 ) ) ;
#202 = EDGE_CURVE ( 'NONE', #139, #1105, #129, .T. ) ;
#203 = CARTESIAN_POINT ( 'NONE',  ( 3.000000000000000888, 3.469446951953616654E-16, 0.000000000000000000 ) ) ;
#204 = CARTESIAN_POINT ( 'NONE',  ( -6.000000000000000888, 12.50000000000000711, -7.500000000000000888 ) ) ;
#205 = CIRCLE ( 'NONE', #185, 4.999999999999999112 ) ;
#206 = VECTOR ( 'NONE', #776, 1000.000000000000000 ) ;
#207 = VECTOR ( 'NONE', #840, 1000.000000000000000 ) ;
#208 = ORIENTED_EDGE ( 'NONE', *, *, #458, .T. ) ;
#209 = AXIS2_PLACEMENT_3D ( 'NONE', #196, #201, #1050 ) ;
#210 = EDGE_CURVE ( 'NONE', #388, #1024, #532, .T. ) ;
#211 =( NAMED_UNIT ( * ) SI_UNIT ( $, .STERADIAN. ) SOLID_ANGLE_UNIT ( ) );
#212 = ORIENTED_EDGE ( 'NONE', *, *, #558, .F. ) ;
#213 = DIRECTION ( 'NONE',  ( 0.000000000000000000, -0.000000000000000000, 1.000000000000000000 ) ) ;
#214 = DIRECTION ( 'NONE',  ( 1.261617073437677752E-16, -1.000000000000000000, 0.000000000000000000 ) ) ;
#215 = VERTEX_POINT ( 'NONE', #953 ) ;
#216 = VERTEX_POINT ( 'NONE', #870 ) ;
#217 = DIRECTION ( 'NONE',  ( -1.750845403988399465E-32, 1.387778780781448387E-16, -1.000000000000000000 ) ) ;
#218 = ORIENTED_EDGE ( 'NONE', *, *, #913, .F. ) ;
#219 = CARTESIAN_POINT ( 'NONE',  ( -6.000000000000009770, 30.00000000000000355, -4.500000000000000000 ) ) ;
#220 = PRODUCT ( 'Rear-Wheel-Hub', 'Rear-Wheel-Hub', '', ( #1012 ) ) ;
#221 = ADVANCED_FACE ( 'NONE', ( #690 ), #1023, .F. ) ;
#222 = ORIENTED_EDGE ( 'NONE', *, *, #999, .F. ) ;
#223 = ORIENTED_EDGE ( 'NONE', *, *, #1, .T. ) ;
#224 = CARTESIAN_POINT ( 'NONE',  ( -1.999999999999999556, 5.500000000000000000, 6.735557395310442023E-16 ) ) ;
#225 = ORIENTED_EDGE ( 'NONE', *, *, #546, .F. ) ;
#226 = FACE_OUTER_BOUND ( 'NONE', #680, .T. ) ;
#227 = AXIS2_PLACEMENT_3D ( 'NONE', #253, #910, #510 ) ;
#228 = AXIS2_PLACEMENT_3D ( 'NONE', #507, #266, #615 ) ;
#229 = ORIENTED_EDGE ( 'NONE', *, *, #370, .F. ) ;
#230 = AXIS2_PLACEMENT_3D ( 'NONE', #348, #259, #255 ) ;
#231 = CARTESIAN_POINT ( 'NONE',  ( 0.000000000000000000, 0.000000000000000000, 12.50000000000000000 ) ) ;
#232 = ORIENTED_EDGE ( 'NONE', *, *, #165, .T. ) ;
#233 = CARTESIAN_POINT ( 'NONE',  ( -1.000000000000002665, -24.49999999999999289, 4.499999999999999112 ) ) ;
#234 = APPLICATION_CONTEXT ( 'automotive_design' ) ;
#235 = VERTEX_POINT ( 'NONE', #16 ) ;
#236 = CARTESIAN_POINT ( 'NONE',  ( 3.000000000000000888, 3.469446951953616161E-16, 0.000000000000000000 ) ) ;
#237 = EDGE_CURVE ( 'NONE', #375, #130, #526, .T. ) ;
#238 = VERTEX_POINT ( 'NONE', #268 ) ;
#239 = ORIENTED_EDGE ( 'NONE', *, *, #851, .T. ) ;
#240 = LINE ( 'NONE', #412, #828 ) ;
#241 = ADVANCED_FACE ( 'NONE', ( #1038 ), #286, .T. ) ;
#242 = CARTESIAN_POINT ( 'NONE',  ( -6.000000000000006217, -4.831594563048783367E-16, 4.499999999999999112 ) ) ;
#243 = ORIENTED_EDGE ( 'NONE', *, *, #936, .F. ) ;
#244 = DIRECTION ( 'NONE',  ( 1.734723475976807094E-16, -1.000000000000000000, 0.000000000000000000 ) ) ;
#245 = AXIS2_PLACEMENT_3D ( 'NONE', #612, #175, #522 ) ;
#246 = DIRECTION ( 'NONE',  ( 7.885106708985486569E-17, -1.000000000000000000, 0.000000000000000000 ) ) ;
#247 = ORIENTED_EDGE ( 'NONE', *, *, #87, .T. ) ;
#248 = ADVANCED_FACE ( 'NONE', ( #100 ), #385, .T. ) ;
#249 = AXIS2_PLACEMENT_3D ( 'NONE', #594, #430, #604 ) ;
#250 = VECTOR ( 'NONE', #820, 1000.000000000000000 ) ;
#251 = LINE ( 'NONE', #603, #884 ) ;
#252 = LINE ( 'NONE', #610, #80 ) ;
#253 = CARTESIAN_POINT ( 'NONE',  ( 1.999999999999997335, 26.00000000000000355, 12.50000000000000000 ) ) ;
#254 = EDGE_LOOP ( 'NONE', ( #697, #223 ) ) ;
#255 = DIRECTION ( 'NONE',  ( -1.734723475976807094E-16, 1.000000000000000000, 0.000000000000000000 ) ) ;
#256 = DIRECTION ( 'NONE',  ( 8.673617379884035472E-17, -1.000000000000000000, 0.000000000000000000 ) ) ;
#257 = DIRECTION ( 'NONE',  ( 1.156482317317871478E-16, -1.000000000000000000, 0.000000000000000000 ) ) ;
#258 = VERTEX_POINT ( 'NONE', #767 ) ;
#259 = DIRECTION ( 'NONE',  ( -1.000000000000000000, -1.156482317317871725E-16, 0.000000000000000000 ) ) ;
#260 = CARTESIAN_POINT ( 'NONE',  ( -3.249999999999999556, -24.49999999999999289, -4.499999999999999112 ) ) ;
#261 = ORIENTED_EDGE ( 'NONE', *, *, #109, .F. ) ;
#262 = AXIS2_PLACEMENT_3D ( 'NONE', #133, #310, #463 ) ;
#263 = LINE ( 'NONE', #270, #623 ) ;
#264 = AXIS2_PLACEMENT_3D ( 'NONE', #65, #897, #244 ) ;
#265 = AXIS2_PLACEMENT_3D ( 'NONE', #950, #637, #530 ) ;
#266 = DIRECTION ( 'NONE',  ( -1.000000000000000000, -1.156482317317871725E-16, 0.000000000000000000 ) ) ;
#267 = VECTOR ( 'NONE', #822, 1000.000000000000000 ) ;
#268 = CARTESIAN_POINT ( 'NONE',  ( -3.249999999999999556, -24.49999999999999289, 4.499999999999999112 ) ) ;
#269 = EDGE_LOOP ( 'NONE', ( #477, #542, #735, #167, #239, #1069 ) ) ;
#270 = CARTESIAN_POINT ( 'NONE',  ( 2.000000000000004441, -29.99999999999999645, 12.50000000000000000 ) ) ;
#271 = CARTESIAN_POINT ( 'NONE',  ( -1.000000000000009548, 25.00000000000000711, 4.499999999999999112 ) ) ;
#272 = PLANE ( 'NONE',  #115 ) ;
#273 = DIRECTION ( 'NONE',  ( -0.000000000000000000, -0.000000000000000000, 1.000000000000000000 ) ) ;
#274 = ORIENTED_EDGE ( 'NONE', *, *, #1011, .F. ) ;
#275 = SURFACE_STYLE_FILL_AREA ( #1042 ) ;
#276 = EDGE_CURVE ( 'NONE', #970, #924, #468, .T. ) ;
#277 = DIRECTION ( 'NONE',  ( 0.000000000000000000, 0.000000000000000000, -1.000000000000000000 ) ) ;
#278 = ORIENTED_EDGE ( 'NONE', *, *, #651, .T. ) ;
#279 = CARTESIAN_POINT ( 'NONE',  ( -5.999999999999997335, -12.50000000000000711, 12.50000000000000000 ) ) ;
#280 = VERTEX_POINT ( 'NONE', #606 ) ;
#281 = EDGE_CURVE ( 'NONE', #676, #1065, #178, .T. ) ;
#282 = CIRCLE ( 'NONE', #6, 7.500000000000000000 ) ;
#283 = LINE ( 'NONE', #624, #723 ) ;
#284 = CIRCLE ( 'NONE', #338, 4.000000000000000000 ) ;
#285 = AXIS2_PLACEMENT_3D ( 'NONE', #600, #166, #693 ) ;
#286 = PLANE ( 'NONE',  #588 ) ;
#287 = ORIENTED_EDGE ( 'NONE', *, *, #290, .T. ) ;
#288 = CARTESIAN_POINT ( 'NONE',  ( 6.000000000000000888, 4.062805804686845601E-16, 4.499999999999999112 ) ) ;
#289 = DIRECTION ( 'NONE',  ( -1.000000000000000000, -1.156482317317871725E-16, 0.000000000000000000 ) ) ;
#290 = EDGE_CURVE ( 'NONE', #938, #120, #406, .T. ) ;
#291 = EDGE_CURVE ( 'NONE', #572, #216, #399, .T. ) ;
#292 = LINE ( 'NONE', #876, #497 ) ;
#293 = VERTEX_POINT ( 'NONE', #583 ) ;
#294 = EDGE_CURVE ( 'NONE', #859, #1024, #482, .T. ) ;
#295 = ORIENTED_EDGE ( 'NONE', *, *, #71, .F. ) ;
#296 = DIRECTION ( 'NONE',  ( 0.000000000000000000, 1.000000000000000000, 0.000000000000000000 ) ) ;
#297 = ORIENTED_EDGE ( 'NONE', *, *, #508, .F. ) ;
#298 = DIRECTION ( 'NONE',  ( -0.000000000000000000, -0.000000000000000000, 1.000000000000000000 ) ) ;
#299 = AXIS2_PLACEMENT_3D ( 'NONE', #837, #134, #474 ) ;
#300 = EDGE_LOOP ( 'NONE', ( #1047, #815, #61, #19 ) ) ;
#301 = CIRCLE ( 'NONE', #140, 5.000000000000000000 ) ;
#302 = ORIENTED_EDGE ( 'NONE', *, *, #558, .T. ) ;
#303 = CARTESIAN_POINT ( 'NONE',  ( -6.000000000000007994, 17.50000000000000711, 4.500000000000000000 ) ) ;
#304 = ADVANCED_FACE ( 'NONE', ( #1081 ), #732, .T. ) ;
#305 = ORIENTED_EDGE ( 'NONE', *, *, #521, .F. ) ;
#306 = DIRECTION ( 'NONE',  ( 0.000000000000000000, 0.000000000000000000, -1.000000000000000000 ) ) ;
#307 = DIRECTION ( 'NONE',  ( 1.750845403988399465E-32, -1.387778780781448387E-16, -1.000000000000000000 ) ) ;
#308 = ORIENTED_EDGE ( 'NONE', *, *, #555, .T. ) ;
#309 = CYLINDRICAL_SURFACE ( 'NONE', #920, 5.500000000000000000 ) ;
#310 = DIRECTION ( 'NONE',  ( -1.000000000000000000, -1.156482317317871971E-16, -0.000000000000000000 ) ) ;
#311 = CARTESIAN_POINT ( 'NONE',  ( 6.000000000000004441, -25.99999999999999289, -4.500000000000000000 ) ) ;
#312 = EDGE_LOOP ( 'NONE', ( #799, #954, #359, #948 ) ) ;
#313 = CARTESIAN_POINT ( 'NONE',  ( -1.000000000000009548, 25.00000000000000711, 4.499999999999999112 ) ) ;
#314 = ORIENTED_EDGE ( 'NONE', *, *, #5, .F. ) ;
#315 = EDGE_CURVE ( 'NONE', #280, #1024, #741, .T. ) ;
#316 = CARTESIAN_POINT ( 'NONE',  ( 1.999999999999997335, 26.00000000000000355, -4.500000000000000888 ) ) ;
#317 = DIRECTION ( 'NONE',  ( -1.261617073437677752E-16, 1.000000000000000000, 0.000000000000000000 ) ) ;
#318 = VECTOR ( 'NONE', #1109, 1000.000000000000000 ) ;
#319 = CIRCLE ( 'NONE', #371, 7.500000000000000000 ) ;
#320 = VERTEX_POINT ( 'NONE', #750 ) ;
#321 = AXIS2_PLACEMENT_3D ( 'NONE', #455, #289, #962 ) ;
#322 = ORIENTED_EDGE ( 'NONE', *, *, #357, .F. ) ;
#323 = VECTOR ( 'NONE', #1040, 1000.000000000000000 ) ;
#324 = CARTESIAN_POINT ( 'NONE',  ( -6.000000000000006217, -1.419910133332356140E-15, -4.500000000000003553 ) ) ;
#325 = CARTESIAN_POINT ( 'NONE',  ( 3.000000000000001332, -5.500000000000000000, 0.000000000000000000 ) ) ;
#326 = EDGE_CURVE ( 'NONE', #123, #661, #58, .T. ) ;
#327 = VERTEX_POINT ( 'NONE', #977 ) ;
#328 = LINE ( 'NONE', #562, #476 ) ;
#329 = LINE ( 'NONE', #219, #186 ) ;
#330 = ADVANCED_FACE ( 'NONE', ( #226 ), #746, .F. ) ;
#331 = DIRECTION ( 'NONE',  ( -0.000000000000000000, -0.000000000000000000, 1.000000000000000000 ) ) ;
#332 = ORIENTED_EDGE ( 'NONE', *, *, #374, .F. ) ;
#333 = DIRECTION ( 'NONE',  ( 0.000000000000000000, -1.000000000000000000, -2.168404344971008868E-16 ) ) ;
#334 = PLANE ( 'NONE',  #1055 ) ;
#335 = AXIS2_PLACEMENT_3D ( 'NONE', #435, #4, #678 ) ;
#336 = DIRECTION ( 'NONE',  ( 0.000000000000000000, 1.000000000000000000, 0.000000000000000000 ) ) ;
#337 = EDGE_LOOP ( 'NONE', ( #274, #549, #446, #400 ) ) ;
#338 = AXIS2_PLACEMENT_3D ( 'NONE', #691, #1025, #155 ) ;
#339 = DIRECTION ( 'NONE',  ( -1.197551343574183473E-16, 1.000000000000000000, -1.387778780781448387E-16 ) ) ;
#340 = DIRECTION ( 'NONE',  ( 1.000000000000000000, 1.156482317317871725E-16, -0.000000000000000000 ) ) ;
#341 = ADVANCED_FACE ( 'NONE', ( #1000 ), #821, .F. ) ;
#342 = CARTESIAN_POINT ( 'NONE',  ( 1.249999999999994227, -24.49999999999999289, -12.50000000000000178 ) ) ;
#343 = ORIENTED_EDGE ( 'NONE', *, *, #730, .F. ) ;
#344 = DIRECTION ( 'NONE',  ( 8.754227019941993218E-33, -6.938893903907238238E-17, 1.000000000000000000 ) ) ;
#345 = DIRECTION ( 'NONE',  ( 1.156482317317871478E-16, -1.000000000000000000, 0.000000000000000000 ) ) ;
#346 = LINE ( 'NONE', #77, #472 ) ;
#347 = VERTEX_POINT ( 'NONE', #564 ) ;
#348 = CARTESIAN_POINT ( 'NONE',  ( -5.999999999999997335, -12.50000000000000711, 7.500000000000000888 ) ) ;
#349 = EDGE_CURVE ( 'NONE', #347, #35, #240, .T. ) ;
#350 = DIRECTION ( 'NONE',  ( -1.156482317317871478E-16, 1.000000000000000000, -0.000000000000000000 ) ) ;
#351 = CARTESIAN_POINT ( 'NONE',  ( 6.000000000000001776, -4.999999999999999112, 0.000000000000000000 ) ) ;
#352 = EDGE_CURVE ( 'NONE', #123, #582, #136, .T. ) ;
#353 = DIRECTION ( 'NONE',  ( 7.885106708985486569E-17, -1.000000000000000000, 0.000000000000000000 ) ) ;
#354 = AXIS2_PLACEMENT_3D ( 'NONE', #203, #885, #27 ) ;
#355 = DIRECTION ( 'NONE',  ( 1.156482317317871478E-16, -1.000000000000000000, 0.000000000000000000 ) ) ;
#356 = AXIS2_PLACEMENT_3D ( 'NONE', #617, #179, #696 ) ;
#357 = EDGE_CURVE ( 'NONE', #763, #1033, #577, .T. ) ;
#358 = PLANE ( 'NONE',  #1020 ) ;
#359 = ORIENTED_EDGE ( 'NONE', *, *, #315, .T. ) ;
#360 = EDGE_CURVE ( 'NONE', #987, #1033, #329, .T. ) ;
#361 = DIRECTION ( 'NONE',  ( -1.000000000000000000, -1.156482317317871971E-16, -0.000000000000000000 ) ) ;
#362 = CARTESIAN_POINT ( 'NONE',  ( 6.000000000000000888, 9.403035479285802583E-17, -4.500000000000003553 ) ) ;
#363 = FACE_OUTER_BOUND ( 'NONE', #607, .T. ) ;
#364 = ORIENTED_EDGE ( 'NONE', *, *, #281, .F. ) ;
#365 = CARTESIAN_POINT ( 'NONE',  ( -6.000000000000002665, 30.00000000000000355, 12.50000000000000000 ) ) ;
#366 = APPLICATION_CONTEXT ( 'automotive_design' ) ;
#367 = CARTESIAN_POINT ( 'NONE',  ( 5.999999999999997335, 30.00000000000000355, 12.50000000000000000 ) ) ;
#368 = ADVANCED_BREP_SHAPE_REPRESENTATION ( 'Rear-Wheel-Hub', ( #560, #285 ), #867 ) ;
#369 = CARTESIAN_POINT ( 'NONE',  ( -2.000000000000000000, 7.500000000000000000, 9.184850993605147944E-16 ) ) ;
#370 = EDGE_CURVE ( 'NONE', #163, #235, #529, .T. ) ;
#371 = AXIS2_PLACEMENT_3D ( 'NONE', #419, #692, #861 ) ;
#372 = DIRECTION ( 'NONE',  ( 1.000000000000000000, 1.156482317317871725E-16, -0.000000000000000000 ) ) ;
#373 = VECTOR ( 'NONE', #925, 1000.000000000000000 ) ;
#374 = EDGE_CURVE ( 'NONE', #640, #572, #770, .T. ) ;
#375 = VERTEX_POINT ( 'NONE', #809 ) ;
#376 = CARTESIAN_POINT ( 'NONE',  ( -1.000000000000002665, -24.49999999999999289, 4.499999999999999112 ) ) ;
#377 = EDGE_CURVE ( 'NONE', #423, #938, #47, .T. ) ;
#378 = DIRECTION ( 'NONE',  ( 0.000000000000000000, -0.000000000000000000, 1.000000000000000000 ) ) ;
#379 = ORIENTED_EDGE ( 'NONE', *, *, #721, .T. ) ;
#380 = DIRECTION ( 'NONE',  ( -8.754227019941993218E-33, 6.938893903907238238E-17, 1.000000000000000000 ) ) ;
#381 = LINE ( 'NONE', #1035, #7 ) ;
#382 = ORIENTED_EDGE ( 'NONE', *, *, #796, .T. ) ;
#383 = ORIENTED_EDGE ( 'NONE', *, *, #943, .F. ) ;
#384 = ORIENTED_EDGE ( 'NONE', *, *, #816, .T. ) ;
#385 = CYLINDRICAL_SURFACE ( 'NONE', #245, 4.000000000000000000 ) ;
#386 = AXIS2_PLACEMENT_3D ( 'NONE', #441, #845, #256 ) ;
#387 = VECTOR ( 'NONE', #339, 1000.000000000000000 ) ;
#388 = VERTEX_POINT ( 'NONE', #311 ) ;
#389 = PRODUCT_DEFINITION_FORMATION_WITH_SPECIFIED_SOURCE ( 'ANY', '', #220, .NOT_KNOWN. ) ;
#390 = CARTESIAN_POINT ( 'NONE',  ( -6.000000000000005329, -12.50000000000000711, -7.500000000000000888 ) ) ;
#391 = ORIENTED_EDGE ( 'NONE', *, *, #872, .T. ) ;
#392 = EDGE_CURVE ( 'NONE', #108, #56, #983, .T. ) ;
#393 = CARTESIAN_POINT ( 'NONE',  ( 6.000000000000000000, 5.000000000000000888, 6.123233995736766282E-16 ) ) ;
#394 = ORIENTED_EDGE ( 'NONE', *, *, #352, .F. ) ;
#395 = EDGE_CURVE ( 'NONE', #674, #813, #737, .T. ) ;
#396 = CARTESIAN_POINT ( 'NONE',  ( 1.577021341797098004E-15, -12.50000000000000711, -12.50000000000000000 ) ) ;
#397 = ORIENTED_EDGE ( 'NONE', *, *, #174, .F. ) ;
#398 = DIRECTION ( 'NONE',  ( 1.000000000000000000, 1.156482317317871725E-16, -0.000000000000000000 ) ) ;
#399 = LINE ( 'NONE', #645, #495 ) ;
#400 = ORIENTED_EDGE ( 'NONE', *, *, #165, .F. ) ;
#401 = ORIENTED_EDGE ( 'NONE', *, *, #479, .T. ) ;
#402 = CARTESIAN_POINT ( 'NONE',  ( 6.000000000000000000, 12.50000000000000711, -12.50000000000000000 ) ) ;
#403 = DIRECTION ( 'NONE',  ( -1.734723475976807094E-16, 1.000000000000000000, 8.673617379884035472E-16 ) ) ;
#404 = VECTOR ( 'NONE', #1087, 1000.000000000000000 ) ;
#405 = EDGE_CURVE ( 'NONE', #733, #670, #147, .T. ) ;
#406 = CIRCLE ( 'NONE', #805, 5.000000000000000000 ) ;
#407 = AXIS2_PLACEMENT_3D ( 'NONE', #85, #855, #353 ) ;
#408 = LINE ( 'NONE', #427, #318 ) ;
#409 = EDGE_LOOP ( 'NONE', ( #585, #432, #473, #744 ) ) ;
#410 = CARTESIAN_POINT ( 'NONE',  ( -6.000000000000007105, 12.50000000000000711, 7.500000000000000888 ) ) ;
#411 = EDGE_CURVE ( 'NONE', #534, #478, #706, .T. ) ;
#412 = CARTESIAN_POINT ( 'NONE',  ( 5.999999999999998224, 26.00000000000000355, 12.50000000000000000 ) ) ;
#413 = DIRECTION ( 'NONE',  ( 1.156482317317871478E-16, -1.000000000000000000, 0.000000000000000000 ) ) ;
#414 = ORIENTED_EDGE ( 'NONE', *, *, #1073, .T. ) ;
#415 = CARTESIAN_POINT ( 'NONE',  ( -2.000000000000002220, 26.00000000000000355, -4.500000000000000888 ) ) ;
#416 = DIRECTION ( 'NONE',  ( 0.000000000000000000, -0.000000000000000000, 1.000000000000000000 ) ) ;
#417 = EDGE_LOOP ( 'NONE', ( #46, #89, #682, #982 ) ) ;
#418 = CARTESIAN_POINT ( 'NONE',  ( -1.999999999999996669, -29.99999999999999645, 4.500000000000000888 ) ) ;
#419 = CARTESIAN_POINT ( 'NONE',  ( -5.999999999999999112, -6.938893903907229364E-16, 0.000000000000000000 ) ) ;
#420 = VECTOR ( 'NONE', #864, 1000.000000000000000 ) ;
#421 = PRESENTATION_LAYER_ASSIGNMENT (  '', '', ( #902 ) ) ;
#422 = CARTESIAN_POINT ( 'NONE',  ( -6.000000000000006217, -1.709092306290518025E-16, -4.500000000000003553 ) ) ;
#423 = VERTEX_POINT ( 'NONE', #935 ) ;
#424 = VECTOR ( 'NONE', #1085, 1000.000000000000000 ) ;
#425 = LINE ( 'NONE', #593, #387 ) ;
#426 = CARTESIAN_POINT ( 'NONE',  ( -6.000000000000000000, 7.499999999999999112, 9.184850993605147944E-16 ) ) ;
#427 = CARTESIAN_POINT ( 'NONE',  ( -2.000000000000002665, 30.00000000000000355, 12.50000000000000000 ) ) ;
#428 = ORIENTED_EDGE ( 'NONE', *, *, #291, .F. ) ;
#429 = PLANE ( 'NONE',  #1037 ) ;
#430 = DIRECTION ( 'NONE',  ( -1.261617073437677752E-16, 1.000000000000000000, 0.000000000000000000 ) ) ;
#431 = DIRECTION ( 'NONE',  ( 1.156482317317871478E-16, -1.000000000000000000, 0.000000000000000000 ) ) ;
#432 = ORIENTED_EDGE ( 'NONE', *, *, #710, .T. ) ;
#433 = CARTESIAN_POINT ( 'NONE',  ( -6.000000000000004441, -17.50000000000000711, -4.500000000000000888 ) ) ;
#434 = ORIENTED_EDGE ( 'NONE', *, *, #905, .F. ) ;
#435 = CARTESIAN_POINT ( 'NONE',  ( -2.000000000000002220, 26.00000000000000355, 12.50000000000000000 ) ) ;
#436 = ADVANCED_FACE ( 'NONE', ( #503 ), #82, .F. ) ;
#437 = DIRECTION ( 'NONE',  ( -1.000000000000000000, -1.156482317317871971E-16, -0.000000000000000000 ) ) ;
#438 = CIRCLE ( 'NONE', #1093, 2.249999999999995115 ) ;
#439 = FACE_OUTER_BOUND ( 'NONE', #777, .T. ) ;
#440 = AXIS2_PLACEMENT_3D ( 'NONE', #755, #1100, #1010 ) ;
#441 = CARTESIAN_POINT ( 'NONE',  ( 3.000000000000000888, 3.469446951953616654E-16, 0.000000000000000000 ) ) ;
#442 = AXIS2_PLACEMENT_3D ( 'NONE', #14, #700, #1034 ) ;
#443 = CARTESIAN_POINT ( 'NONE',  ( -6.000000000000007994, 17.50000000000000711, -7.500000000000000888 ) ) ;
#444 = VERTEX_POINT ( 'NONE', #856 ) ;
#445 = FACE_OUTER_BOUND ( 'NONE', #795, .T. ) ;
#446 = ORIENTED_EDGE ( 'NONE', *, *, #1112, .F. ) ;
#447 = CARTESIAN_POINT ( 'NONE',  ( -6.000000000000007994, 17.50000000000000711, 0.000000000000000000 ) ) ;
#448 = CARTESIAN_POINT ( 'NONE',  ( -1.999999999999999112, -2.312964634635742464E-16, 0.000000000000000000 ) ) ;
#449 = VERTEX_POINT ( 'NONE', #426 ) ;
#450 = DIRECTION ( 'NONE',  ( 1.197551343574183473E-16, -1.000000000000000000, -6.938893903907238238E-17 ) ) ;
#451 = ORIENTED_EDGE ( 'NONE', *, *, #109, .T. ) ;
#452 = EDGE_CURVE ( 'NONE', #819, #258, #1016, .T. ) ;
#453 = DIRECTION ( 'NONE',  ( 0.000000000000000000, 0.000000000000000000, 1.000000000000000000 ) ) ;
#454 = AXIS2_PLACEMENT_3D ( 'NONE', #699, #852, #771 ) ;
#455 = CARTESIAN_POINT ( 'NONE',  ( 6.000000000000000888, 6.938893903907232322E-16, 0.000000000000000000 ) ) ;
#456 = CARTESIAN_POINT ( 'NONE',  ( 5.999999999999997335, 26.00000000000000355, 4.500000000000000888 ) ) ;
#457 = VECTOR ( 'NONE', #628, 1000.000000000000000 ) ;
#458 = EDGE_CURVE ( 'NONE', #1105, #813, #22, .T. ) ;
#459 = AXIS2_PLACEMENT_3D ( 'NONE', #313, #812, #1064 ) ;
#460 = ORIENTED_EDGE ( 'NONE', *, *, #52, .F. ) ;
#461 = CARTESIAN_POINT ( 'NONE',  ( 6.000000000000002665, -17.50000000000000711, 4.500000000000000000 ) ) ;
#462 = FACE_OUTER_BOUND ( 'NONE', #417, .T. ) ;
#463 = DIRECTION ( 'NONE',  ( 1.734723475976807094E-16, -1.000000000000000000, 0.000000000000000000 ) ) ;
#464 = ORIENTED_EDGE ( 'NONE', *, *, #872, .F. ) ;
#465 = ORIENTED_EDGE ( 'NONE', *, *, #796, .F. ) ;
#466 = FACE_OUTER_BOUND ( 'NONE', #871, .T. ) ;
#467 = EDGE_LOOP ( 'NONE', ( #160, #1008, #1110, #942, #261, #143 ) ) ;
#468 = LINE ( 'NONE', #800, #862 ) ;
#469 = ORIENTED_EDGE ( 'NONE', *, *, #555, .F. ) ;
#470 = VERTEX_POINT ( 'NONE', #1005 ) ;
#471 = PLANE ( 'NONE',  #659 ) ;
#472 = VECTOR ( 'NONE', #490, 1000.000000000000000 ) ;
#473 = ORIENTED_EDGE ( 'NONE', *, *, #392, .T. ) ;
#474 = DIRECTION ( 'NONE',  ( 0.000000000000000000, 1.000000000000000000, -2.168404344971008868E-16 ) ) ;
#475 = ADVANCED_FACE ( 'NONE', ( #945 ), #172, .F. ) ;
#476 = VECTOR ( 'NONE', #150, 1000.000000000000000 ) ;
#477 = ORIENTED_EDGE ( 'NONE', *, *, #635, .F. ) ;
#478 = VERTEX_POINT ( 'NONE', #515 ) ;
#479 = EDGE_CURVE ( 'NONE', #449, #911, #319, .T. ) ;
#480 = CARTESIAN_POINT ( 'NONE',  ( 3.000000000000000444, 5.500000000000000000, 6.735557395310442023E-16 ) ) ;
#481 = EDGE_LOOP ( 'NONE', ( #853, #397 ) ) ;
#482 = LINE ( 'NONE', #991, #988 ) ;
#483 = EDGE_LOOP ( 'NONE', ( #824, #428, #332, #383 ) ) ;
#484 = EDGE_CURVE ( 'NONE', #751, #470, #544, .T. ) ;
#485 =( NAMED_UNIT ( * ) PLANE_ANGLE_UNIT ( ) SI_UNIT ( $, .RADIAN. ) );
#486 = VERTEX_POINT ( 'NONE', #671 ) ;
#487 = DIRECTION ( 'NONE',  ( 1.000000000000000000, 0.000000000000000000, 0.000000000000000000 ) ) ;
#488 = EDGE_CURVE ( 'NONE', #911, #449, #39, .T. ) ;
#489 = CARTESIAN_POINT ( 'NONE',  ( -6.000000000000001776, 26.00000000000000355, 12.50000000000000000 ) ) ;
#490 = DIRECTION ( 'NONE',  ( 0.000000000000000000, 0.000000000000000000, -1.000000000000000000 ) ) ;
#491 = CARTESIAN_POINT ( 'NONE',  ( -3.250000000000005329, 25.00000000000000711, -12.50000000000000178 ) ) ;
#492 = ORIENTED_EDGE ( 'NONE', *, *, #730, .T. ) ;
#493 = DIRECTION ( 'NONE',  ( 0.000000000000000000, 1.000000000000000000, -1.387778780781448387E-16 ) ) ;
#494 = CARTESIAN_POINT ( 'NONE',  ( -6.000000000000002665, 30.00000000000000355, 12.50000000000000000 ) ) ;
#495 = VECTOR ( 'NONE', #996, 1000.000000000000000 ) ;
#496 = VERTEX_POINT ( 'NONE', #75 ) ;
#497 = VECTOR ( 'NONE', #361, 1000.000000000000000 ) ;
#498 = DIRECTION ( 'NONE',  ( 0.000000000000000000, -1.000000000000000000, -6.938893903907238238E-17 ) ) ;
#499 = DIRECTION ( 'NONE',  ( 0.000000000000000000, -1.000000000000000000, 0.000000000000000000 ) ) ;
#500 = CARTESIAN_POINT ( 'NONE',  ( -1.000000000000002665, -24.49999999999999289, -4.499999999999999112 ) ) ;
#501 = EDGE_LOOP ( 'NONE', ( #84, #738 ) ) ;
#502 = CARTESIAN_POINT ( 'NONE',  ( -6.000000000000006217, -1.107659907656529680E-15, 4.499999999999999112 ) ) ;
#503 = FACE_OUTER_BOUND ( 'NONE', #312, .T. ) ;
#504 = ORIENTED_EDGE ( 'NONE', *, *, #357, .T. ) ;
#505 = UNCERTAINTY_MEASURE_WITH_UNIT (LENGTH_MEASURE( 1.000000000000000082E-05 ), #979, 'distance_accuracy_value', 'NONE');
#506 = DIRECTION ( 'NONE',  ( -1.000000000000000000, -1.261617073437677752E-16, 0.000000000000000000 ) ) ;
#507 = CARTESIAN_POINT ( 'NONE',  ( -5.999999999999999112, -6.938893903907229364E-16, 0.000000000000000000 ) ) ;
#508 = EDGE_CURVE ( 'NONE', #582, #123, #589, .T. ) ;
#509 = AXIS2_PLACEMENT_3D ( 'NONE', #236, #142, #1086 ) ;
#510 = DIRECTION ( 'NONE',  ( -1.000000000000000000, 0.000000000000000000, 0.000000000000000000 ) ) ;
#511 = EDGE_LOOP ( 'NONE', ( #834, #1001 ) ) ;
#512 = CIRCLE ( 'NONE', #171, 5.000000000000000888 ) ;
#513 = AXIS2_PLACEMENT_3D ( 'NONE', #376, #453, #711 ) ;
#514 = LINE ( 'NONE', #614, #373 ) ;
#515 = CARTESIAN_POINT ( 'NONE',  ( 1.249999999999994227, -24.49999999999999289, -4.499999999999999112 ) ) ;
#516 = FACE_OUTER_BOUND ( 'NONE', #579, .T. ) ;
#517 = EDGE_LOOP ( 'NONE', ( #464, #963, #305, #103 ) ) ;
#518 = EDGE_CURVE ( 'NONE', #163, #41, #252, .T. ) ;
#519 = DIRECTION ( 'NONE',  ( 1.197551343574183473E-16, -1.000000000000000000, -1.387778780781448387E-16 ) ) ;
#520 = DIRECTION ( 'NONE',  ( -1.000000000000000000, -1.156482317317871971E-16, -0.000000000000000000 ) ) ;
#521 = EDGE_CURVE ( 'NONE', #108, #41, #636, .T. ) ;
#522 = DIRECTION ( 'NONE',  ( -1.000000000000000000, 0.000000000000000000, 0.000000000000000000 ) ) ;
#523 = ORIENTED_EDGE ( 'NONE', *, *, #651, .F. ) ;
#524 = CARTESIAN_POINT ( 'NONE',  ( 6.000000000000002665, -17.50000000000000711, -4.500000000000000888 ) ) ;
#525 = CYLINDRICAL_SURFACE ( 'NONE', #335, 4.000000000000000000 ) ;
#526 = LINE ( 'NONE', #704, #420 ) ;
#527 = VERTEX_POINT ( 'NONE', #180 ) ;
#528 = CARTESIAN_POINT ( 'NONE',  ( -6.000000000000007994, 17.50000000000000711, -4.500000000000000888 ) ) ;
#529 = CIRCLE ( 'NONE', #170, 5.000000000000000888 ) ;
#530 = DIRECTION ( 'NONE',  ( 1.000000000000000000, 0.000000000000000000, 0.000000000000000000 ) ) ;
#531 = VECTOR ( 'NONE', #969, 1000.000000000000000 ) ;
#532 = LINE ( 'NONE', #362, #135 ) ;
#533 = ADVANCED_FACE ( 'NONE', ( #683 ), #525, .T. ) ;
#534 = VERTEX_POINT ( 'NONE', #260 ) ;
#535 = CYLINDRICAL_SURFACE ( 'NONE', #773, 2.249999999999996003 ) ;
#536 = SURFACE_SIDE_STYLE ('',( #275 ) ) ;
#537 = VERTEX_POINT ( 'NONE', #599 ) ;
#538 = DIRECTION ( 'NONE',  ( 1.156482317317871478E-16, -1.000000000000000000, 0.000000000000000000 ) ) ;
#539 = CARTESIAN_POINT ( 'NONE',  ( -6.000000000000006217, -1.709092306290518025E-16, -4.500000000000003553 ) ) ;
#540 = DIRECTION ( 'NONE',  ( 0.000000000000000000, -1.000000000000000000, 0.000000000000000000 ) ) ;
#541 = ADVANCED_FACE ( 'NONE', ( #766, #96 ), #850, .T. ) ;
#542 = ORIENTED_EDGE ( 'NONE', *, *, #887, .T. ) ;
#543 = CARTESIAN_POINT ( 'NONE',  ( -6.000000000000004441, -17.50000000000000711, -7.500000000000000888 ) ) ;
#544 = CIRCLE ( 'NONE', #1004, 2.249999999999996003 ) ;
#545 = FILL_AREA_STYLE_COLOUR ( '', #621 ) ;
#546 = EDGE_CURVE ( 'NONE', #320, #931, #282, .T. ) ;
#547 = DIRECTION ( 'NONE',  ( -1.734723475976806848E-16, 1.000000000000000000, 0.000000000000000000 ) ) ;
#548 = AXIS2_PLACEMENT_3D ( 'NONE', #415, #939, #333 ) ;
#549 = ORIENTED_EDGE ( 'NONE', *, *, #831, .F. ) ;
#550 = FACE_OUTER_BOUND ( 'NONE', #823, .T. ) ;
#551 = ORIENTED_EDGE ( 'NONE', *, *, #290, .F. ) ;
#552 = ADVANCED_FACE ( 'NONE', ( #1090 ), #334, .F. ) ;
#553 = CARTESIAN_POINT ( 'NONE',  ( -1.000000000000009548, 25.00000000000000711, -4.499999999999999112 ) ) ;
#554 = EDGE_LOOP ( 'NONE', ( #973, #1071, #1018, #469 ) ) ;
#555 = EDGE_CURVE ( 'NONE', #813, #1105, #154, .T. ) ;
#556 = CARTESIAN_POINT ( 'NONE',  ( 5.999999999999999112, 17.50000000000000711, 4.500000000000000000 ) ) ;
#557 = DIRECTION ( 'NONE',  ( 1.000000000000000000, 1.261617073437677752E-16, 0.000000000000000000 ) ) ;
#558 = EDGE_CURVE ( 'NONE', #537, #763, #789, .T. ) ;
#559 = ORIENTED_EDGE ( 'NONE', *, *, #349, .F. ) ;
#560 = MANIFOLD_SOLID_BREP ( 'Cut-Extrude6', #705 ) ;
#561 = ORIENTED_EDGE ( 'NONE', *, *, #1068, .F. ) ;
#562 = CARTESIAN_POINT ( 'NONE',  ( 5.999999999999999112, 17.50000000000000711, 7.500000000000000888 ) ) ;
#563 = ORIENTED_EDGE ( 'NONE', *, *, #349, .T. ) ;
#564 = CARTESIAN_POINT ( 'NONE',  ( 5.999999999999997335, 26.00000000000000355, -4.500000000000000000 ) ) ;
#565 = EDGE_LOOP ( 'NONE', ( #749, #191, #229, #561 ) ) ;
#566 = CARTESIAN_POINT ( 'NONE',  ( 2.000000000000003997, -25.99999999999999289, -4.500000000000000888 ) ) ;
#567 = EDGE_LOOP ( 'NONE', ( #131, #927, #642, #629, #968, #613 ) ) ;
#568 = DIRECTION ( 'NONE',  ( -0.000000000000000000, -0.000000000000000000, 1.000000000000000000 ) ) ;
#569 = EDGE_LOOP ( 'NONE', ( #118, #198, #451, #719, #901, #78, #391, #997, #128, #646, #144, #618, #1044, #24, #287, #1062 ) ) ;
#570 = CARTESIAN_POINT ( 'NONE',  ( 5.999999999999999112, 17.50000000000000711, 0.000000000000000000 ) ) ;
#571 = AXIS2_PLACEMENT_3D ( 'NONE', #410, #745, #995 ) ;
#572 = VERTEX_POINT ( 'NONE', #965 ) ;
#573 = CARTESIAN_POINT ( 'NONE',  ( 1.577021341797098004E-15, -12.50000000000000711, 12.50000000000000000 ) ) ;
#574 = EDGE_LOOP ( 'NONE', ( #465, #559, #1092, #322 ) ) ;
#575 = FACE_BOUND ( 'NONE', #907, .T. ) ;
#576 = ORIENTED_EDGE ( 'NONE', *, *, #578, .T. ) ;
#577 = LINE ( 'NONE', #904, #951 ) ;
#578 = EDGE_CURVE ( 'NONE', #1039, #496, #619, .T. ) ;
#579 = EDGE_LOOP ( 'NONE', ( #107, #232, #892, #818, #101, #602, #899, #384, #626, #563, #811, #957, #67, #580, #200, #685 ) ) ;
#580 = ORIENTED_EDGE ( 'NONE', *, *, #518, .F. ) ;
#581 = CARTESIAN_POINT ( 'NONE',  ( -1.000000000000009548, 25.00000000000000711, -12.50000000000000178 ) ) ;
#582 = VERTEX_POINT ( 'NONE', #784 ) ;
#583 = CARTESIAN_POINT ( 'NONE',  ( -6.000000000000007994, 17.50000000000000711, 4.500000000000000000 ) ) ;
#584 = CARTESIAN_POINT ( 'NONE',  ( -6.000000000000004441, -17.50000000000000711, -7.500000000000000888 ) ) ;
#585 = ORIENTED_EDGE ( 'NONE', *, *, #91, .F. ) ;
#586 = CARTESIAN_POINT ( 'NONE',  ( -6.000000000000009770, 26.00000000000000355, 4.500000000000000888 ) ) ;
#587 = CARTESIAN_POINT ( 'NONE',  ( 6.000000000000002665, -12.50000000000000711, 7.500000000000000888 ) ) ;
#588 = AXIS2_PLACEMENT_3D ( 'NONE', #959, #214, #557 ) ;
#589 = CIRCLE ( 'NONE', #440, 5.500000000000000000 ) ;
#590 = CIRCLE ( 'NONE', #1006, 2.249999999999996891 ) ;
#591 = ORIENTED_EDGE ( 'NONE', *, *, #488, .F. ) ;
#592 = VECTOR ( 'NONE', #873, 1000.000000000000000 ) ;
#593 = CARTESIAN_POINT ( 'NONE',  ( -6.000000000000006217, -1.419910133332356140E-15, -4.500000000000003553 ) ) ;
#594 = CARTESIAN_POINT ( 'NONE',  ( -6.000000000000004441, -17.50000000000000711, 0.000000000000000000 ) ) ;
#595 = ADVANCED_FACE ( 'NONE', ( #462 ), #793, .F. ) ;
#596 = ORIENTED_EDGE ( 'NONE', *, *, #638, .F. ) ;
#597 = FACE_OUTER_BOUND ( 'NONE', #409, .T. ) ;
#598 = EDGE_CURVE ( 'NONE', #327, #974, #882, .T. ) ;
#599 = CARTESIAN_POINT ( 'NONE',  ( -2.000000000000002665, 30.00000000000000355, 4.500000000000000888 ) ) ;
#600 = CARTESIAN_POINT ( 'NONE',  ( 0.000000000000000000, 0.000000000000000000, 0.000000000000000000 ) ) ;
#601 = CARTESIAN_POINT ( 'NONE',  ( -6.000000000000004441, -17.50000000000000711, 4.500000000000000000 ) ) ;
#602 = ORIENTED_EDGE ( 'NONE', *, *, #801, .T. ) ;
#603 = CARTESIAN_POINT ( 'NONE',  ( 5.999999999999997335, 30.00000000000000355, -12.50000000000000000 ) ) ;
#604 = DIRECTION ( 'NONE',  ( -1.000000000000000000, -1.261617073437677752E-16, 0.000000000000000000 ) ) ;
#605 = VECTOR ( 'NONE', #869, 1000.000000000000000 ) ;
#606 = CARTESIAN_POINT ( 'NONE',  ( 6.000000000000002665, -17.50000000000000711, -7.500000000000000888 ) ) ;
#607 = EDGE_LOOP ( 'NONE', ( #1077, #182, #807, #980 ) ) ;
#608 = VECTOR ( 'NONE', #450, 1000.000000000000000 ) ;
#609 = DIRECTION ( 'NONE',  ( -1.734723475976806848E-16, 1.000000000000000000, 0.000000000000000000 ) ) ;
#610 = CARTESIAN_POINT ( 'NONE',  ( 5.999999999999997335, 30.00000000000000355, 12.50000000000000000 ) ) ;
#611 = EDGE_CURVE ( 'NONE', #1065, #1039, #104, .T. ) ;
#612 = CARTESIAN_POINT ( 'NONE',  ( 2.000000000000003997, -25.99999999999999289, 12.50000000000000000 ) ) ;
#613 = ORIENTED_EDGE ( 'NONE', *, *, #294, .T. ) ;
#614 = CARTESIAN_POINT ( 'NONE',  ( -6.000000000000004441, -17.50000000000000711, 7.500000000000000888 ) ) ;
#615 = DIRECTION ( 'NONE',  ( 1.156482317317871478E-16, -1.000000000000000000, 0.000000000000000000 ) ) ;
#616 = DIRECTION ( 'NONE',  ( -1.197551343574183473E-16, 1.000000000000000000, -1.387778780781448387E-16 ) ) ;
#617 = CARTESIAN_POINT ( 'NONE',  ( -6.000000000000006217, -4.831594563048783367E-16, 4.499999999999999112 ) ) ;
#618 = ORIENTED_EDGE ( 'NONE', *, *, #611, .F. ) ;
#619 = LINE ( 'NONE', #29, #605 ) ;
#620 = DIRECTION ( 'NONE',  ( 1.734723475976807341E-16, -1.000000000000000000, 0.000000000000000000 ) ) ;
#621 = COLOUR_RGB ( '',0.7921568627450980005, 0.8196078431372548767, 0.9333333333333333481 ) ;
#622 = FACE_OUTER_BOUND ( 'NONE', #467, .T. ) ;
#623 = VECTOR ( 'NONE', #1002, 1000.000000000000000 ) ;
#624 = CARTESIAN_POINT ( 'NONE',  ( -2.000000000000000000, 7.500000000000000000, 9.184850993605147944E-16 ) ) ;
#625 = FACE_BOUND ( 'NONE', #481, .T. ) ;
#626 = ORIENTED_EDGE ( 'NONE', *, *, #851, .F. ) ;
#627 = CARTESIAN_POINT ( 'NONE',  ( -5.999999999999997335, -12.50000000000000711, -12.50000000000000000 ) ) ;
#628 = DIRECTION ( 'NONE',  ( 1.197551343574183473E-16, -1.000000000000000000, -1.387778780781448387E-16 ) ) ;
#629 = ORIENTED_EDGE ( 'NONE', *, *, #374, .T. ) ;
#630 = CARTESIAN_POINT ( 'NONE',  ( 2.000000000000003997, -25.99999999999999289, 4.500000000000000888 ) ) ;
#631 = ORIENTED_EDGE ( 'NONE', *, *, #31, .T. ) ;
#632 = ORIENTED_EDGE ( 'NONE', *, *, #801, .F. ) ;
#633 = ORIENTED_EDGE ( 'NONE', *, *, #518, .T. ) ;
#634 = VECTOR ( 'NONE', #413, 1000.000000000000000 ) ;
#635 = EDGE_CURVE ( 'NONE', #670, #1039, #890, .T. ) ;
#636 = CIRCLE ( 'NONE', #62, 5.000000000000000000 ) ;
#637 = DIRECTION ( 'NONE',  ( -0.000000000000000000, -0.000000000000000000, 1.000000000000000000 ) ) ;
#638 = EDGE_CURVE ( 'NONE', #235, #924, #381, .T. ) ;
#639 = CIRCLE ( 'NONE', #810, 4.000000000000000000 ) ;
#640 = VERTEX_POINT ( 'NONE', #127 ) ;
#641 = ADVANCED_FACE ( 'NONE', ( #698, #779 ), #15, .F. ) ;
#642 = ORIENTED_EDGE ( 'NONE', *, *, #721, .F. ) ;
#643 = CARTESIAN_POINT ( 'NONE',  ( -6.000000000000000888, 12.50000000000000711, -12.50000000000000000 ) ) ;
#644 = ORIENTED_EDGE ( 'NONE', *, *, #174, .T. ) ;
#645 = CARTESIAN_POINT ( 'NONE',  ( -5.999999999999996447, -25.99999999999999289, 12.50000000000000000 ) ) ;
#646 = ORIENTED_EDGE ( 'NONE', *, *, #405, .T. ) ;
#647 = CARTESIAN_POINT ( 'NONE',  ( 6.000000000000000888, 6.938893903907232322E-16, 0.000000000000000000 ) ) ;
#648 = ORIENTED_EDGE ( 'NONE', *, *, #865, .T. ) ;
#649 = LINE ( 'NONE', #402, #250 ) ;
#650 = DIRECTION ( 'NONE',  ( -1.000000000000000000, -1.156482317317871725E-16, 0.000000000000000000 ) ) ;
#651 = EDGE_CURVE ( 'NONE', #931, #449, #283, .T. ) ;
#652 = ORIENTED_EDGE ( 'NONE', *, *, #195, .F. ) ;
#653 = DIRECTION ( 'NONE',  ( -0.000000000000000000, 0.000000000000000000, 1.000000000000000000 ) ) ;
#654 = ORIENTED_EDGE ( 'NONE', *, *, #831, .T. ) ;
#655 = DIRECTION ( 'NONE',  ( 0.000000000000000000, -1.000000000000000000, -2.168404344971008868E-16 ) ) ;
#656 = VECTOR ( 'NONE', #257, 1000.000000000000000 ) ;
#657 = AXIS2_PLACEMENT_3D ( 'NONE', #841, #520, #345 ) ;
#658 = DIRECTION ( 'NONE',  ( 0.000000000000000000, -0.000000000000000000, -1.000000000000000000 ) ) ;
#659 = AXIS2_PLACEMENT_3D ( 'NONE', #806, #686, #506 ) ;
#660 = EDGE_LOOP ( 'NONE', ( #523, #225, #125, #1031 ) ) ;
#661 = VERTEX_POINT ( 'NONE', #110 ) ;
#662 = DIRECTION ( 'NONE',  ( 1.750845403988399465E-32, -1.387778780781448387E-16, -1.000000000000000000 ) ) ;
#663 = DIRECTION ( 'NONE',  ( -1.000000000000000000, -1.156482317317871725E-16, -0.000000000000000000 ) ) ;
#664 = EDGE_CURVE ( 'NONE', #674, #139, #675, .T. ) ;
#665 = CARTESIAN_POINT ( 'NONE',  ( -6.000000000000002665, 30.00000000000000355, -12.50000000000000000 ) ) ;
#666 = EDGE_LOOP ( 'NONE', ( #218, #916 ) ) ;
#667 = CARTESIAN_POINT ( 'NONE',  ( -6.000000000000002665, -29.99999999999999645, -4.500000000000000000 ) ) ;
#668 = CARTESIAN_POINT ( 'NONE',  ( 1.577021341797098004E-15, -12.50000000000000711, 7.500000000000000888 ) ) ;
#669 = DIRECTION ( 'NONE',  ( 0.000000000000000000, -1.000000000000000000, -1.387778780781448387E-16 ) ) ;
#670 = VERTEX_POINT ( 'NONE', #197 ) ;
#671 = CARTESIAN_POINT ( 'NONE',  ( 2.000000000000004441, -29.99999999999999645, -4.500000000000000000 ) ) ;
#672 = EDGE_CURVE ( 'NONE', #238, #527, #590, .T. ) ;
#673 = VECTOR ( 'NONE', #1067, 1000.000000000000000 ) ;
#674 = VERTEX_POINT ( 'NONE', #393 ) ;
#675 = CIRCLE ( 'NONE', #321, 5.000000000000000000 ) ;
#676 = VERTEX_POINT ( 'NONE', #729 ) ;
#677 = CYLINDRICAL_SURFACE ( 'NONE', #407, 5.500000000000000000 ) ;
#678 = DIRECTION ( 'NONE',  ( -1.000000000000000000, 0.000000000000000000, 0.000000000000000000 ) ) ;
#679 = ADVANCED_FACE ( 'NONE', ( #141 ), #736, .T. ) ;
#680 = EDGE_LOOP ( 'NONE', ( #726, #247, #302, #504 ) ) ;
#681 = CARTESIAN_POINT ( 'NONE',  ( 1.999999999999997335, 30.00000000000000355, 4.500000000000000888 ) ) ;
#682 = ORIENTED_EDGE ( 'NONE', *, *, #672, .T. ) ;
#683 = FACE_OUTER_BOUND ( 'NONE', #803, .T. ) ;
#684 = EDGE_CURVE ( 'NONE', #293, #56, #145, .T. ) ;
#685 = ORIENTED_EDGE ( 'NONE', *, *, #638, .T. ) ;
#686 = DIRECTION ( 'NONE',  ( -1.261617073437677752E-16, 1.000000000000000000, 0.000000000000000000 ) ) ;
#687 = DIRECTION ( 'NONE',  ( 1.000000000000000000, 1.261617073437677752E-16, -0.000000000000000000 ) ) ;
#688 = AXIS2_PLACEMENT_3D ( 'NONE', #1104, #842, #246 ) ;
#689 = AXIS2_PLACEMENT_3D ( 'NONE', #1026, #86, #1113 ) ;
#690 = FACE_OUTER_BOUND ( 'NONE', #660, .T. ) ;
#691 = CARTESIAN_POINT ( 'NONE',  ( 1.999999999999997335, 26.00000000000000355, 4.500000000000000888 ) ) ;
#692 = DIRECTION ( 'NONE',  ( -1.000000000000000000, -1.156482317317871725E-16, 0.000000000000000000 ) ) ;
#693 = DIRECTION ( 'NONE',  ( 1.000000000000000000, 0.000000000000000000, 0.000000000000000000 ) ) ;
#694 = CARTESIAN_POINT ( 'NONE',  ( -1.999999999999999112, -2.312964634635742464E-16, 0.000000000000000000 ) ) ;
#695 = VERTEX_POINT ( 'NONE', #643 ) ;
#696 = DIRECTION ( 'NONE',  ( 0.000000000000000000, 1.000000000000000000, -6.938893903907238238E-17 ) ) ;
#697 = ORIENTED_EDGE ( 'NONE', *, *, #598, .T. ) ;
#698 = FACE_BOUND ( 'NONE', #722, .T. ) ;
#699 = CARTESIAN_POINT ( 'NONE',  ( -1.999999999999999112, -2.312964634635742464E-16, 0.000000000000000000 ) ) ;
#700 = DIRECTION ( 'NONE',  ( -1.000000000000000000, -1.261617073437677752E-16, 0.000000000000000000 ) ) ;
#701 = DIRECTION ( 'NONE',  ( 0.000000000000000000, -1.000000000000000000, 0.000000000000000000 ) ) ;
#702 = ADVANCED_FACE ( 'NONE', ( #1072 ), #998, .F. ) ;
#703 = ADVANCED_FACE ( 'NONE', ( #466 ), #309, .F. ) ;
#704 = CARTESIAN_POINT ( 'NONE',  ( -6.000000000000004441, -17.50000000000000711, 0.000000000000000000 ) ) ;
#705 = CLOSED_SHELL ( 'NONE', ( #703, #475, #595, #702, #341, #21, #168, #330, #641, #552, #1057, #908, #747, #436, #753, #70, #241, #1017, #836, #857, #1027, #158, #304, #1063, #1041, #679, #248, #946, #533, #66, #221, #189, #541, #790 ) ) ;
#706 = CIRCLE ( 'NONE', #689, 2.249999999999995115 ) ;
#707 = CARTESIAN_POINT ( 'NONE',  ( 1.249999999999986455, 25.00000000000000711, -12.50000000000000178 ) ) ;
#708 = EDGE_CURVE ( 'NONE', #130, #924, #975, .T. ) ;
#709 = CARTESIAN_POINT ( 'NONE',  ( -5.999999999999995559, -29.99999999999999645, 12.50000000000000000 ) ) ;
#710 = EDGE_CURVE ( 'NONE', #33, #108, #328, .T. ) ;
#711 = DIRECTION ( 'NONE',  ( 1.000000000000000000, 0.000000000000000000, 0.000000000000000000 ) ) ;
#712 = PRESENTATION_STYLE_ASSIGNMENT (( #717 ) ) ;
#713 = ORIENTED_EDGE ( 'NONE', *, *, #479, .F. ) ;
#714 = EDGE_CURVE ( 'NONE', #1033, #347, #1079, .T. ) ;
#715 = ORIENTED_EDGE ( 'NONE', *, *, #1049, .T. ) ;
#716 = CARTESIAN_POINT ( 'NONE',  ( 0.000000000000000000, 0.000000000000000000, -12.50000000000000000 ) ) ;
#717 = SURFACE_STYLE_USAGE ( .BOTH. , #536 ) ;
#718 = VERTEX_POINT ( 'NONE', #224 ) ;
#719 = ORIENTED_EDGE ( 'NONE', *, *, #237, .F. ) ;
#720 = CIRCLE ( 'NONE', #754, 2.249999999999995115 ) ;
#721 = EDGE_CURVE ( 'NONE', #640, #486, #814, .T. ) ;
#722 = EDGE_LOOP ( 'NONE', ( #591, #713 ) ) ;
#723 = VECTOR ( 'NONE', #958, 1000.000000000000000 ) ;
#724 = DIRECTION ( 'NONE',  ( -1.197551343574183473E-16, 1.000000000000000000, -6.938893903907238238E-17 ) ) ;
#725 = AXIS2_PLACEMENT_3D ( 'NONE', #716, #949, #18 ) ;
#726 = ORIENTED_EDGE ( 'NONE', *, *, #360, .F. ) ;
#727 = LINE ( 'NONE', #1076, #173 ) ;
#728 = ORIENTED_EDGE ( 'NONE', *, *, #411, .T. ) ;
#729 = CARTESIAN_POINT ( 'NONE',  ( 5.999999999999999112, 17.50000000000000711, -7.500000000000000888 ) ) ;
#730 = EDGE_CURVE ( 'NONE', #695, #215, #649, .T. ) ;
#731 = DIRECTION ( 'NONE',  ( 1.750845403988399465E-32, -1.387778780781448387E-16, 1.000000000000000000 ) ) ;
#732 = CYLINDRICAL_SURFACE ( 'NONE', #786, 5.000000000000000000 ) ;
#733 = VERTEX_POINT ( 'NONE', #586 ) ;
#734 = DIRECTION ( 'NONE',  ( -1.734723475976807094E-16, 1.000000000000000000, 0.000000000000000000 ) ) ;
#735 = ORIENTED_EDGE ( 'NONE', *, *, #360, .T. ) ;
#736 = CYLINDRICAL_SURFACE ( 'NONE', #571, 5.000000000000000000 ) ;
#737 = LINE ( 'NONE', #1074, #804 ) ;
#738 = ORIENTED_EDGE ( 'NONE', *, *, #508, .T. ) ;
#739 = EDGE_CURVE ( 'NONE', #582, #718, #740, .T. ) ;
#740 = LINE ( 'NONE', #480, #757 ) ;
#741 = LINE ( 'NONE', #829, #1096 ) ;
#742 = CIRCLE ( 'NONE', #8, 7.500000000000000000 ) ;
#743 = CARTESIAN_POINT ( 'NONE',  ( 5.999999999999999112, 17.50000000000000711, 7.500000000000000888 ) ) ;
#744 = ORIENTED_EDGE ( 'NONE', *, *, #684, .F. ) ;
#745 = DIRECTION ( 'NONE',  ( -1.000000000000000000, -1.261617073437677752E-16, 0.000000000000000000 ) ) ;
#746 = PLANE ( 'NONE',  #756 ) ;
#747 = ADVANCED_FACE ( 'NONE', ( #575, #51 ), #917, .T. ) ;
#748 = EDGE_CURVE ( 'NONE', #215, #676, #23, .T. ) ;
#749 = ORIENTED_EDGE ( 'NONE', *, *, #854, .F. ) ;
#750 = CARTESIAN_POINT ( 'NONE',  ( -1.999999999999998224, -7.500000000000000000, 0.000000000000000000 ) ) ;
#751 = VERTEX_POINT ( 'NONE', #34 ) ;
#752 = DIRECTION ( 'NONE',  ( -1.000000000000000000, -1.156482317317871725E-16, 0.000000000000000000 ) ) ;
#753 = ADVANCED_FACE ( 'NONE', ( #132 ), #471, .T. ) ;
#754 = AXIS2_PLACEMENT_3D ( 'NONE', #903, #731, #1066 ) ;
#755 = CARTESIAN_POINT ( 'NONE',  ( 3.000000000000000888, 3.469446951953616161E-16, 0.000000000000000000 ) ) ;
#756 = AXIS2_PLACEMENT_3D ( 'NONE', #494, #499, #658 ) ;
#757 = VECTOR ( 'NONE', #895, 1000.000000000000000 ) ;
#758 = EDGE_LOOP ( 'NONE', ( #894, #888 ) ) ;
#759 = ORIENTED_EDGE ( 'NONE', *, *, #1106, .T. ) ;
#760 = PRODUCT_DEFINITION_CONTEXT ( 'detailed design', #366, 'design' ) ;
#761 = LINE ( 'NONE', #79, #1099 ) ;
#762 = DIRECTION ( 'NONE',  ( 1.734723475976807094E-16, -1.000000000000000000, 0.000000000000000000 ) ) ;
#763 = VERTEX_POINT ( 'NONE', #681 ) ;
#764 = CARTESIAN_POINT ( 'NONE',  ( -6.000000000000000888, 12.50000000000000711, 7.500000000000000888 ) ) ;
#765 = EDGE_CURVE ( 'NONE', #572, #859, #425, .T. ) ;
#766 = FACE_OUTER_BOUND ( 'NONE', #501, .T. ) ;
#767 = CARTESIAN_POINT ( 'NONE',  ( 2.000000000000004441, -29.99999999999999645, 4.500000000000000888 ) ) ;
#768 = CARTESIAN_POINT ( 'NONE',  ( -6.000000000000006217, -1.107659907656529680E-15, 4.499999999999999112 ) ) ;
#769 = DIRECTION ( 'NONE',  ( -1.000000000000000000, -1.156482317317871725E-16, 0.000000000000000000 ) ) ;
#770 = CIRCLE ( 'NONE', #299, 4.000000000000000000 ) ;
#771 = DIRECTION ( 'NONE',  ( 7.885106708985486569E-17, -1.000000000000000000, 0.000000000000000000 ) ) ;
#772 = EDGE_LOOP ( 'NONE', ( #1056, #30 ) ) ;
#773 = AXIS2_PLACEMENT_3D ( 'NONE', #860, #273, #94 ) ;
#774 = LINE ( 'NONE', #707, #592 ) ;
#775 =( NAMED_UNIT ( * ) SI_UNIT ( $, .STERADIAN. ) SOLID_ANGLE_UNIT ( ) );
#776 = DIRECTION ( 'NONE',  ( -1.000000000000000000, -1.261617073437677752E-16, -0.000000000000000000 ) ) ;
#777 = EDGE_LOOP ( 'NONE', ( #632, #1084, #295, #492 ) ) ;
#778 = CYLINDRICAL_SURFACE ( 'NONE', #442, 5.000000000000000000 ) ;
#779 = FACE_OUTER_BOUND ( 'NONE', #569, .T. ) ;
#780 = PRODUCT_DEFINITION ( 'UNKNOWN', '', #389, #760 ) ;
#781 = DIRECTION ( 'NONE',  ( -1.000000000000000000, -1.156482317317871971E-16, -0.000000000000000000 ) ) ;
#782 = ORIENTED_EDGE ( 'NONE', *, *, #326, .T. ) ;
#783 = CARTESIAN_POINT ( 'NONE',  ( -3.250000000000005329, 25.00000000000000711, -4.499999999999999112 ) ) ;
#784 = CARTESIAN_POINT ( 'NONE',  ( 3.000000000000000444, 5.500000000000000000, 6.735557395310442023E-16 ) ) ;
#785 = VECTOR ( 'NONE', #331, 1000.000000000000000 ) ;
#786 = AXIS2_PLACEMENT_3D ( 'NONE', #668, #151, #317 ) ;
#787 = LINE ( 'NONE', #26, #323 ) ;
#788 = CIRCLE ( 'NONE', #548, 4.000000000000000000 ) ;
#789 = LINE ( 'NONE', #113, #188 ) ;
#790 = ADVANCED_FACE ( 'NONE', ( #1019 ), #677, .F. ) ;
#791 = ORIENTED_EDGE ( 'NONE', *, *, #708, .T. ) ;
#792 = LINE ( 'NONE', #288, #608 ) ;
#793 = CYLINDRICAL_SURFACE ( 'NONE', #265, 2.249999999999996891 ) ;
#794 = DIRECTION ( 'NONE',  ( 8.754227019941993218E-33, -6.938893903907238238E-17, 1.000000000000000000 ) ) ;
#795 = EDGE_LOOP ( 'NONE', ( #314, #364, #1088, #343 ) ) ;
#796 = EDGE_CURVE ( 'NONE', #35, #763, #284, .T. ) ;
#797 = EDGE_LOOP ( 'NONE', ( #184, #414, #759, #243 ) ) ;
#798 = CARTESIAN_POINT ( 'NONE',  ( 5.999999999999999112, 12.50000000000000711, -7.500000000000000888 ) ) ;
#799 = ORIENTED_EDGE ( 'NONE', *, *, #1101, .F. ) ;
#800 = CARTESIAN_POINT ( 'NONE',  ( 6.000000000000000888, 1.030781031820335755E-15, 4.499999999999999112 ) ) ;
#801 = EDGE_CURVE ( 'NONE', #423, #215, #251, .T. ) ;
#802 = DIRECTION ( 'NONE',  ( 0.000000000000000000, -0.000000000000000000, 1.000000000000000000 ) ) ;
#803 = EDGE_LOOP ( 'NONE', ( #843, #1014, #32, #960 ) ) ;
#804 = VECTOR ( 'NONE', #909, 1000.000000000000000 ) ;
#805 = AXIS2_PLACEMENT_3D ( 'NONE', #12, #650, #403 ) ;
#806 = CARTESIAN_POINT ( 'NONE',  ( -6.000000000000007994, 17.50000000000000711, 0.000000000000000000 ) ) ;
#807 = ORIENTED_EDGE ( 'NONE', *, *, #936, .T. ) ;
#808 = VECTOR ( 'NONE', #213, 1000.000000000000000 ) ;
#809 = CARTESIAN_POINT ( 'NONE',  ( -6.000000000000004441, -17.50000000000000711, 7.500000000000000888 ) ) ;
#810 = AXIS2_PLACEMENT_3D ( 'NONE', #961, #106, #119 ) ;
#811 = ORIENTED_EDGE ( 'NONE', *, *, #932, .T. ) ;
#812 = DIRECTION ( 'NONE',  ( 0.000000000000000000, 0.000000000000000000, 1.000000000000000000 ) ) ;
#813 = VERTEX_POINT ( 'NONE', #1009 ) ;
#814 = LINE ( 'NONE', #667, #830 ) ;
#815 = ORIENTED_EDGE ( 'NONE', *, *, #395, .T. ) ;
#816 = EDGE_CURVE ( 'NONE', #676, #496, #761, .T. ) ;
#817 = DIRECTION ( 'NONE',  ( 1.000000000000000000, 1.261617073437677752E-16, -0.000000000000000000 ) ) ;
#818 = ORIENTED_EDGE ( 'NONE', *, *, #315, .F. ) ;
#819 = VERTEX_POINT ( 'NONE', #418 ) ;
#820 = DIRECTION ( 'NONE',  ( 1.000000000000000000, 1.261617073437677752E-16, 0.000000000000000000 ) ) ;
#821 = CYLINDRICAL_SURFACE ( 'NONE', #264, 5.000000000000000000 ) ;
#822 = DIRECTION ( 'NONE',  ( -0.000000000000000000, -0.000000000000000000, 1.000000000000000000 ) ) ;
#823 = EDGE_LOOP ( 'NONE', ( #551, #13, #652, #434 ) ) ;
#824 = ORIENTED_EDGE ( 'NONE', *, *, #921, .F. ) ;
#825 = DIRECTION ( 'NONE',  ( 1.734723475976807094E-16, -1.000000000000000000, 8.673617379884035472E-16 ) ) ;
#826 = AXIS2_PLACEMENT_3D ( 'NONE', #448, #781, #431 ) ;
#827 = ORIENTED_EDGE ( 'NONE', *, *, #146, .F. ) ;
#828 = VECTOR ( 'NONE', #69, 1000.000000000000000 ) ;
#829 = CARTESIAN_POINT ( 'NONE',  ( 6.000000000000002665, -17.50000000000000711, 0.000000000000000000 ) ) ;
#830 = VECTOR ( 'NONE', #44, 1000.000000000000000 ) ;
#831 = EDGE_CURVE ( 'NONE', #486, #258, #263, .T. ) ;
#832 = AXIS2_PLACEMENT_3D ( 'NONE', #630, #380, #296 ) ;
#833 = LINE ( 'NONE', #1013, #656 ) ;
#834 = ORIENTED_EDGE ( 'NONE', *, *, #546, .T. ) ;
#835 = LINE ( 'NONE', #68, #81 ) ;
#836 = ADVANCED_FACE ( 'NONE', ( #1015, #1095 ), #429, .T. ) ;
#837 = CARTESIAN_POINT ( 'NONE',  ( -1.999999999999996669, -25.99999999999999645, -4.500000000000000888 ) ) ;
#838 = DIRECTION ( 'NONE',  ( 1.750845403988399465E-32, -1.387778780781448387E-16, -1.000000000000000000 ) ) ;
#839 = ORIENTED_EDGE ( 'NONE', *, *, #900, .F. ) ;
#840 = DIRECTION ( 'NONE',  ( 1.197551343574183473E-16, -1.000000000000000000, -6.938893903907238238E-17 ) ) ;
#841 = CARTESIAN_POINT ( 'NONE',  ( -1.999999999999999112, -2.312964634635742464E-16, 0.000000000000000000 ) ) ;
#842 = DIRECTION ( 'NONE',  ( -1.000000000000000000, -1.156482317317871725E-16, 0.000000000000000000 ) ) ;
#843 = ORIENTED_EDGE ( 'NONE', *, *, #31, .F. ) ;
#844 = DIRECTION ( 'NONE',  ( -1.156482317317871478E-16, 1.000000000000000000, -0.000000000000000000 ) ) ;
#845 = DIRECTION ( 'NONE',  ( 1.000000000000000000, 1.156482317317871725E-16, -0.000000000000000000 ) ) ;
#846 = MECHANICAL_DESIGN_GEOMETRIC_PRESENTATION_REPRESENTATION (  '', ( #902 ), #1078 ) ;
#847 = AXIS2_PLACEMENT_3D ( 'NONE', #1107, #90, #169 ) ;
#848 = PLANE ( 'NONE',  #20 ) ;
#849 = ORIENTED_EDGE ( 'NONE', *, *, #237, .T. ) ;
#850 = PLANE ( 'NONE',  #918 ) ;
#851 = EDGE_CURVE ( 'NONE', #347, #496, #835, .T. ) ;
#852 = DIRECTION ( 'NONE',  ( -1.000000000000000000, -1.156482317317871725E-16, 0.000000000000000000 ) ) ;
#853 = ORIENTED_EDGE ( 'NONE', *, *, #76, .F. ) ;
#854 = EDGE_CURVE ( 'NONE', #375, #1048, #989, .T. ) ;
#855 = DIRECTION ( 'NONE',  ( -1.000000000000000000, -1.156482317317871725E-16, -0.000000000000000000 ) ) ;
#856 = CARTESIAN_POINT ( 'NONE',  ( -6.000000000000000888, 12.50000000000000711, 12.50000000000000000 ) ) ;
#857 = ADVANCED_FACE ( 'NONE', ( #597 ), #1089, .F. ) ;
#858 = DIRECTION ( 'NONE',  ( 1.000000000000000000, 0.000000000000000000, 0.000000000000000000 ) ) ;
#859 = VERTEX_POINT ( 'NONE', #433 ) ;
#860 = CARTESIAN_POINT ( 'NONE',  ( -1.000000000000009548, 25.00000000000000711, -12.50000000000000178 ) ) ;
#861 = DIRECTION ( 'NONE',  ( 1.156482317317871478E-16, -1.000000000000000000, 0.000000000000000000 ) ) ;
#862 = VECTOR ( 'NONE', #724, 1000.000000000000000 ) ;
#863 = VECTOR ( 'NONE', #687, 1000.000000000000000 ) ;
#864 = DIRECTION ( 'NONE',  ( 0.000000000000000000, 0.000000000000000000, -1.000000000000000000 ) ) ;
#865 = EDGE_CURVE ( 'NONE', #235, #375, #514, .T. ) ;
#866 = AXIS2_PLACEMENT_3D ( 'NONE', #798, #398, #825 ) ;
#867 =( GEOMETRIC_REPRESENTATION_CONTEXT ( 3 ) GLOBAL_UNCERTAINTY_ASSIGNED_CONTEXT ( ( #505 ) ) GLOBAL_UNIT_ASSIGNED_CONTEXT ( ( #979, #485, #211 ) ) REPRESENTATION_CONTEXT ( 'NONE', 'WORKASPACE' ) );
#868 = DIRECTION ( 'NONE',  ( 1.000000000000000000, 1.261617073437677752E-16, 0.000000000000000000 ) ) ;
#869 = DIRECTION ( 'NONE',  ( 1.000000000000000000, 1.261617073437677752E-16, -0.000000000000000000 ) ) ;
#870 = CARTESIAN_POINT ( 'NONE',  ( -6.000000000000002665, -25.99999999999999645, 4.500000000000000888 ) ) ;
#871 = EDGE_LOOP ( 'NONE', ( #297, #984, #644, #153 ) ) ;
#872 = EDGE_CURVE ( 'NONE', #444, #33, #512, .T. ) ;
#873 = DIRECTION ( 'NONE',  ( -0.000000000000000000, -0.000000000000000000, 1.000000000000000000 ) ) ;
#874 = DIRECTION ( 'NONE',  ( 0.000000000000000000, 0.000000000000000000, -1.000000000000000000 ) ) ;
#875 = ORIENTED_EDGE ( 'NONE', *, *, #913, .T. ) ;
#876 = CARTESIAN_POINT ( 'NONE',  ( -1.999999999999998224, -7.500000000000000000, 0.000000000000000000 ) ) ;
#877 = DIRECTION ( 'NONE',  ( -1.156482317317871725E-16, 1.000000000000000000, 0.000000000000000000 ) ) ;
#878 = CYLINDRICAL_SURFACE ( 'NONE', #262, 5.000000000000000000 ) ;
#879 = FACE_OUTER_BOUND ( 'NONE', #574, .T. ) ;
#880 = CIRCLE ( 'NONE', #95, 4.000000000000000000 ) ;
#881 = EDGE_LOOP ( 'NONE', ( #17, #394, #782, #928 ) ) ;
#882 = CIRCLE ( 'NONE', #971, 2.249999999999995115 ) ;
#883 = PLANE ( 'NONE',  #725 ) ;
#884 = VECTOR ( 'NONE', #844, 1000.000000000000000 ) ;
#885 = DIRECTION ( 'NONE',  ( 1.000000000000000000, 1.156482317317871725E-16, -0.000000000000000000 ) ) ;
#886 = LINE ( 'NONE', #1053, #37 ) ;
#887 = EDGE_CURVE ( 'NONE', #670, #987, #788, .T. ) ;
#888 = ORIENTED_EDGE ( 'NONE', *, *, #664, .T. ) ;
#889 = EDGE_LOOP ( 'NONE', ( #839, #278, #401, #222 ) ) ;
#890 = LINE ( 'NONE', #539, #457 ) ;
#891 = CARTESIAN_POINT ( 'NONE',  ( -1.000000000000002665, -24.49999999999999289, -12.50000000000000178 ) ) ;
#892 = ORIENTED_EDGE ( 'NONE', *, *, #210, .T. ) ;
#893 = DIRECTION ( 'NONE',  ( 1.000000000000000000, 1.261617073437677752E-16, 0.000000000000000000 ) ) ;
#894 = ORIENTED_EDGE ( 'NONE', *, *, #1097, .T. ) ;
#895 = DIRECTION ( 'NONE',  ( -1.000000000000000000, -1.156482317317871725E-16, -0.000000000000000000 ) ) ;
#896 = DIRECTION ( 'NONE',  ( -1.000000000000000000, -1.156482317317871725E-16, 0.000000000000000000 ) ) ;
#897 = DIRECTION ( 'NONE',  ( -1.000000000000000000, -1.156482317317871971E-16, -0.000000000000000000 ) ) ;
#898 = EDGE_CURVE ( 'NONE', #733, #293, #161, .T. ) ;
#899 = ORIENTED_EDGE ( 'NONE', *, *, #748, .T. ) ;
#900 = EDGE_CURVE ( 'NONE', #931, #320, #742, .T. ) ;
#901 = ORIENTED_EDGE ( 'NONE', *, *, #854, .T. ) ;
#902 = STYLED_ITEM ( 'NONE', ( #712 ), #560 ) ;
#903 = CARTESIAN_POINT ( 'NONE',  ( -1.000000000000009548, 25.00000000000000711, -4.499999999999999112 ) ) ;
#904 = CARTESIAN_POINT ( 'NONE',  ( 1.999999999999997335, 30.00000000000000355, 12.50000000000000000 ) ) ;
#905 = EDGE_CURVE ( 'NONE', #120, #280, #1030, .T. ) ;
#906 = DIRECTION ( 'NONE',  ( 0.000000000000000000, 1.000000000000000000, -2.168404344971008868E-16 ) ) ;
#907 = EDGE_LOOP ( 'NONE', ( #827, #1051 ) ) ;
#908 = ADVANCED_FACE ( 'NONE', ( #439 ), #883, .F. ) ;
#909 = DIRECTION ( 'NONE',  ( -1.000000000000000000, -1.156482317317871971E-16, -0.000000000000000000 ) ) ;
#910 = DIRECTION ( 'NONE',  ( 0.000000000000000000, 0.000000000000000000, -1.000000000000000000 ) ) ;
#911 = VERTEX_POINT ( 'NONE', #112 ) ;
#912 = CARTESIAN_POINT ( 'NONE',  ( 3.000000000000000888, 3.469446951953616161E-16, 0.000000000000000000 ) ) ;
#913 = EDGE_CURVE ( 'NONE', #527, #238, #1007, .T. ) ;
#914 = DIRECTION ( 'NONE',  ( 1.000000000000000000, 1.261617073437677752E-16, -0.000000000000000000 ) ) ;
#915 = LINE ( 'NONE', #342, #785 ) ;
#916 = ORIENTED_EDGE ( 'NONE', *, *, #672, .F. ) ;
#917 = PLANE ( 'NONE',  #952 ) ;
#918 = AXIS2_PLACEMENT_3D ( 'NONE', #940, #1108, #177 ) ;
#919 = DIRECTION ( 'NONE',  ( 1.000000000000000000, 1.156482317317871725E-16, -0.000000000000000000 ) ) ;
#920 = AXIS2_PLACEMENT_3D ( 'NONE', #912, #57, #990 ) ;
#921 = EDGE_CURVE ( 'NONE', #216, #819, #639, .T. ) ;
#922 = CIRCLE ( 'NONE', #459, 2.249999999999996003 ) ;
#923 = DIRECTION ( 'NONE',  ( 1.750845403988399465E-32, -1.387778780781448387E-16, 1.000000000000000000 ) ) ;
#924 = VERTEX_POINT ( 'NONE', #461 ) ;
#925 = DIRECTION ( 'NONE',  ( -1.000000000000000000, -1.261617073437677752E-16, -0.000000000000000000 ) ) ;
#926 = CARTESIAN_POINT ( 'NONE',  ( -6.000000000000002665, -29.99999999999999645, 4.500000000000000888 ) ) ;
#927 = ORIENTED_EDGE ( 'NONE', *, *, #1112, .T. ) ;
#928 = ORIENTED_EDGE ( 'NONE', *, *, #76, .T. ) ;
#929 = CARTESIAN_POINT ( 'NONE',  ( -1.999999999999999112, -2.312964634635742464E-16, 0.000000000000000000 ) ) ;
#930 = CARTESIAN_POINT ( 'NONE',  ( 6.000000000000001776, -4.999999999999999112, 0.000000000000000000 ) ) ;
#931 = VERTEX_POINT ( 'NONE', #369 ) ;
#932 = EDGE_CURVE ( 'NONE', #35, #56, #792, .T. ) ;
#933 = DIRECTION ( 'NONE',  ( 0.000000000000000000, -0.000000000000000000, 1.000000000000000000 ) ) ;
#934 = AXIS2_PLACEMENT_3D ( 'NONE', #891, #1032, #858 ) ;
#935 = CARTESIAN_POINT ( 'NONE',  ( 6.000000000000002665, -12.50000000000000711, -12.50000000000000000 ) ) ;
#936 = EDGE_CURVE ( 'NONE', #327, #751, #774, .T. ) ;
#937 = CARTESIAN_POINT ( 'NONE',  ( 6.000000000000003553, -25.99999999999999289, 12.50000000000000000 ) ) ;
#938 = VERTEX_POINT ( 'NONE', #627 ) ;
#939 = DIRECTION ( 'NONE',  ( -1.750845403988399465E-32, 1.387778780781448387E-16, -1.000000000000000000 ) ) ;
#940 = CARTESIAN_POINT ( 'NONE',  ( 3.000000000000000888, 3.469446951953616161E-16, 0.000000000000000000 ) ) ;
#941 = DIRECTION ( 'NONE',  ( 1.000000000000000000, 1.156482317317871725E-16, -0.000000000000000000 ) ) ;
#942 = ORIENTED_EDGE ( 'NONE', *, *, #708, .F. ) ;
#943 = EDGE_CURVE ( 'NONE', #819, #640, #787, .T. ) ;
#944 = PLANE ( 'NONE',  #356 ) ;
#945 = FACE_OUTER_BOUND ( 'NONE', #889, .T. ) ;
#946 = ADVANCED_FACE ( 'NONE', ( #102 ), #28, .T. ) ;
#947 = DIRECTION ( 'NONE',  ( -1.000000000000000000, -1.156482317317871725E-16, 0.000000000000000000 ) ) ;
#948 = ORIENTED_EDGE ( 'NONE', *, *, #294, .F. ) ;
#949 = DIRECTION ( 'NONE',  ( -0.000000000000000000, 0.000000000000000000, 1.000000000000000000 ) ) ;
#950 = CARTESIAN_POINT ( 'NONE',  ( -1.000000000000002665, -24.49999999999999289, -12.50000000000000178 ) ) ;
#951 = VECTOR ( 'NONE', #306, 1000.000000000000000 ) ;
#952 = AXIS2_PLACEMENT_3D ( 'NONE', #324, #662, #493 ) ;
#953 = CARTESIAN_POINT ( 'NONE',  ( 5.999999999999999112, 12.50000000000000711, -12.50000000000000000 ) ) ;
#954 = ORIENTED_EDGE ( 'NONE', *, *, #905, .T. ) ;
#955 = VECTOR ( 'NONE', #63, 1000.000000000000000 ) ;
#956 = LINE ( 'NONE', #192, #156 ) ;
#957 = ORIENTED_EDGE ( 'NONE', *, *, #392, .F. ) ;
#958 = DIRECTION ( 'NONE',  ( -1.000000000000000000, -1.156482317317871971E-16, -0.000000000000000000 ) ) ;
#959 = CARTESIAN_POINT ( 'NONE',  ( -6.000000000000004441, -17.50000000000000711, 0.000000000000000000 ) ) ;
#960 = ORIENTED_EDGE ( 'NONE', *, *, #405, .F. ) ;
#961 = CARTESIAN_POINT ( 'NONE',  ( -1.999999999999996669, -25.99999999999999645, 4.500000000000000888 ) ) ;
#962 = DIRECTION ( 'NONE',  ( 1.734723475976807094E-16, -1.000000000000000000, 0.000000000000000000 ) ) ;
#963 = ORIENTED_EDGE ( 'NONE', *, *, #1049, .F. ) ;
#964 = FACE_BOUND ( 'NONE', #666, .T. ) ;
#965 = CARTESIAN_POINT ( 'NONE',  ( -6.000000000000002665, -25.99999999999999645, -4.500000000000000000 ) ) ;
#966 = CARTESIAN_POINT ( 'NONE',  ( 5.999999999999999112, 12.50000000000000711, 12.50000000000000000 ) ) ;
#967 = AXIS2_PLACEMENT_3D ( 'NONE', #204, #896, #547 ) ;
#968 = ORIENTED_EDGE ( 'NONE', *, *, #765, .T. ) ;
#969 = DIRECTION ( 'NONE',  ( 1.000000000000000000, 1.261617073437677752E-16, 0.000000000000000000 ) ) ;
#970 = VERTEX_POINT ( 'NONE', #1045 ) ;
#971 = AXIS2_PLACEMENT_3D ( 'NONE', #553, #972, #701 ) ;
#972 = DIRECTION ( 'NONE',  ( 1.750845403988399465E-32, -1.387778780781448387E-16, 1.000000000000000000 ) ) ;
#973 = ORIENTED_EDGE ( 'NONE', *, *, #395, .F. ) ;
#974 = VERTEX_POINT ( 'NONE', #783 ) ;
#975 = LINE ( 'NONE', #981, #424 ) ;
#976 = ORIENTED_EDGE ( 'NONE', *, *, #684, .T. ) ;
#977 = CARTESIAN_POINT ( 'NONE',  ( 1.249999999999986455, 25.00000000000000711, -4.499999999999999112 ) ) ;
#978 = ORIENTED_EDGE ( 'NONE', *, *, #121, .T. ) ;
#979 =( LENGTH_UNIT ( ) NAMED_UNIT ( * ) SI_UNIT ( .MILLI., .METRE. ) );
#980 = ORIENTED_EDGE ( 'NONE', *, *, #484, .T. ) ;
#981 = CARTESIAN_POINT ( 'NONE',  ( -6.000000000000004441, -17.50000000000000711, 4.500000000000000000 ) ) ;
#982 = ORIENTED_EDGE ( 'NONE', *, *, #121, .F. ) ;
#983 = LINE ( 'NONE', #570, #1022 ) ;
#984 = ORIENTED_EDGE ( 'NONE', *, *, #739, .T. ) ;
#985 = CIRCLE ( 'NONE', #967, 5.000000000000000888 ) ;
#986 = CARTESIAN_POINT ( 'NONE',  ( 3.000000000000001332, -5.000000000000000000, 0.000000000000000000 ) ) ;
#987 = VERTEX_POINT ( 'NONE', #10 ) ;
#988 = VECTOR ( 'NONE', #914, 1000.000000000000000 ) ;
#989 = CIRCLE ( 'NONE', #230, 5.000000000000000000 ) ;
#990 = DIRECTION ( 'NONE',  ( 7.885106708985486569E-17, -1.000000000000000000, 0.000000000000000000 ) ) ;
#991 = CARTESIAN_POINT ( 'NONE',  ( -6.000000000000004441, -17.50000000000000711, -4.500000000000000888 ) ) ;
#992 = EDGE_LOOP ( 'NONE', ( #208, #308 ) ) ;
#993 = CARTESIAN_POINT ( 'NONE',  ( -6.000000000000007994, 17.50000000000000711, -7.500000000000000888 ) ) ;
#994 = ORIENTED_EDGE ( 'NONE', *, *, #281, .T. ) ;
#995 = DIRECTION ( 'NONE',  ( 1.734723475976807094E-16, -1.000000000000000000, 0.000000000000000000 ) ) ;
#996 = DIRECTION ( 'NONE',  ( 0.000000000000000000, -0.000000000000000000, 1.000000000000000000 ) ) ;
#997 = ORIENTED_EDGE ( 'NONE', *, *, #91, .T. ) ;
#998 = CYLINDRICAL_SURFACE ( 'NONE', #98, 2.249999999999996003 ) ;
#999 = EDGE_CURVE ( 'NONE', #320, #911, #292, .T. ) ;
#1000 = FACE_OUTER_BOUND ( 'NONE', #300, .T. ) ;
#1001 = ORIENTED_EDGE ( 'NONE', *, *, #900, .T. ) ;
#1002 = DIRECTION ( 'NONE',  ( -0.000000000000000000, -0.000000000000000000, 1.000000000000000000 ) ) ;
#1003 = CIRCLE ( 'NONE', #454, 5.500000000000000000 ) ;
#1004 = AXIS2_PLACEMENT_3D ( 'NONE', #271, #164, #1021 ) ;
#1005 = CARTESIAN_POINT ( 'NONE',  ( -3.250000000000005329, 25.00000000000000711, 4.499999999999999112 ) ) ;
#1006 = AXIS2_PLACEMENT_3D ( 'NONE', #233, #1059, #487 ) ;
#1007 = CIRCLE ( 'NONE', #513, 2.249999999999996891 ) ;
#1008 = ORIENTED_EDGE ( 'NONE', *, *, #1011, .T. ) ;
#1009 = CARTESIAN_POINT ( 'NONE',  ( 3.000000000000000444, 5.000000000000000000, 6.123233995736766282E-16 ) ) ;
#1010 = DIRECTION ( 'NONE',  ( 7.885106708985486569E-17, -1.000000000000000000, 0.000000000000000000 ) ) ;
#1011 = EDGE_CURVE ( 'NONE', #258, #970, #43, .T. ) ;
#1012 = PRODUCT_CONTEXT ( 'NONE', #234, 'mechanical' ) ;
#1013 = CARTESIAN_POINT ( 'NONE',  ( -6.000000000000002665, 30.00000000000000355, 12.50000000000000000 ) ) ;
#1014 = ORIENTED_EDGE ( 'NONE', *, *, #87, .F. ) ;
#1015 = FACE_BOUND ( 'NONE', #772, .T. ) ;
#1016 = LINE ( 'NONE', #926, #863 ) ;
#1017 = ADVANCED_FACE ( 'NONE', ( #964, #622 ), #944, .F. ) ;
#1018 = ORIENTED_EDGE ( 'NONE', *, *, #202, .T. ) ;
#1019 = FACE_OUTER_BOUND ( 'NONE', #881, .T. ) ;
#1020 = AXIS2_PLACEMENT_3D ( 'NONE', #367, #947, #2 ) ;
#1021 = DIRECTION ( 'NONE',  ( 1.000000000000000000, 0.000000000000000000, 0.000000000000000000 ) ) ;
#1022 = VECTOR ( 'NONE', #54, 1000.000000000000000 ) ;
#1023 = CYLINDRICAL_SURFACE ( 'NONE', #826, 7.500000000000000000 ) ;
#1024 = VERTEX_POINT ( 'NONE', #524 ) ;
#1025 = DIRECTION ( 'NONE',  ( 8.754227019941993218E-33, -6.938893903907238238E-17, 1.000000000000000000 ) ) ;
#1026 = CARTESIAN_POINT ( 'NONE',  ( -1.000000000000002665, -24.49999999999999289, -4.499999999999999112 ) ) ;
#1027 = ADVANCED_FACE ( 'NONE', ( #363 ), #535, .F. ) ;
#1028 = CARTESIAN_POINT ( 'NONE',  ( 6.000000000000003553, -12.50000000000000533, -7.500000000000000888 ) ) ;
#1029 = ORIENTED_EDGE ( 'NONE', *, *, #898, .T. ) ;
#1030 = LINE ( 'NONE', #543, #1058 ) ;
#1031 = ORIENTED_EDGE ( 'NONE', *, *, #488, .T. ) ;
#1032 = DIRECTION ( 'NONE',  ( -0.000000000000000000, -0.000000000000000000, 1.000000000000000000 ) ) ;
#1033 = VERTEX_POINT ( 'NONE', #183 ) ;
#1034 = DIRECTION ( 'NONE',  ( 1.261617073437677752E-16, -1.000000000000000000, 0.000000000000000000 ) ) ;
#1035 = CARTESIAN_POINT ( 'NONE',  ( 6.000000000000002665, -17.50000000000000711, 0.000000000000000000 ) ) ;
#1036 = CIRCLE ( 'NONE', #688, 5.500000000000000000 ) ;
#1037 = AXIS2_PLACEMENT_3D ( 'NONE', #768, #344, #498 ) ;
#1038 = FACE_OUTER_BOUND ( 'NONE', #194, .T. ) ;
#1039 = VERTEX_POINT ( 'NONE', #528 ) ;
#1040 = DIRECTION ( 'NONE',  ( -0.000000000000000000, 0.000000000000000000, -1.000000000000000000 ) ) ;
#1041 = ADVANCED_FACE ( 'NONE', ( #445 ), #778, .T. ) ;
#1042 = FILL_AREA_STYLE ('',( #545 ) ) ;
#1043 = CARTESIAN_POINT ( 'NONE',  ( -2.000000000000002220, 26.00000000000000355, 4.500000000000000888 ) ) ;
#1044 = ORIENTED_EDGE ( 'NONE', *, *, #5, .T. ) ;
#1045 = CARTESIAN_POINT ( 'NONE',  ( 6.000000000000004441, -25.99999999999999289, 4.500000000000000888 ) ) ;
#1046 =( LENGTH_UNIT ( ) NAMED_UNIT ( * ) SI_UNIT ( .MILLI., .METRE. ) );
#1047 = ORIENTED_EDGE ( 'NONE', *, *, #664, .F. ) ;
#1048 = VERTEX_POINT ( 'NONE', #279 ) ;
#1049 = EDGE_CURVE ( 'NONE', #41, #444, #956, .T. ) ;
#1050 = DIRECTION ( 'NONE',  ( -1.000000000000000000, 0.000000000000000000, 0.000000000000000000 ) ) ;
#1051 = ORIENTED_EDGE ( 'NONE', *, *, #411, .F. ) ;
#1052 = DIRECTION ( 'NONE',  ( 1.000000000000000000, 1.261617073437677752E-16, -0.000000000000000000 ) ) ;
#1053 = CARTESIAN_POINT ( 'NONE',  ( -3.249999999999999556, -24.49999999999999289, -12.50000000000000178 ) ) ;
#1054 = VECTOR ( 'NONE', #437, 1000.000000000000000 ) ;
#1055 = AXIS2_PLACEMENT_3D ( 'NONE', #709, #193, #378 ) ;
#1056 = ORIENTED_EDGE ( 'NONE', *, *, #484, .F. ) ;
#1057 = ADVANCED_FACE ( 'NONE', ( #55 ), #60, .T. ) ;
#1058 = VECTOR ( 'NONE', #868, 1000.000000000000000 ) ;
#1059 = DIRECTION ( 'NONE',  ( 0.000000000000000000, 0.000000000000000000, 1.000000000000000000 ) ) ;
#1060 = ORIENTED_EDGE ( 'NONE', *, *, #611, .T. ) ;
#1061 = FACE_OUTER_BOUND ( 'NONE', #1098, .T. ) ;
#1062 = ORIENTED_EDGE ( 'NONE', *, *, #1101, .T. ) ;
#1063 = ADVANCED_FACE ( 'NONE', ( #550 ), #49, .T. ) ;
#1064 = DIRECTION ( 'NONE',  ( 1.000000000000000000, 0.000000000000000000, 0.000000000000000000 ) ) ;
#1065 = VERTEX_POINT ( 'NONE', #993 ) ;
#1066 = DIRECTION ( 'NONE',  ( 0.000000000000000000, -1.000000000000000000, 0.000000000000000000 ) ) ;
#1067 = DIRECTION ( 'NONE',  ( -1.000000000000000000, -1.261617073437677752E-16, -0.000000000000000000 ) ) ;
#1068 = EDGE_CURVE ( 'NONE', #1048, #163, #148, .T. ) ;
#1069 = ORIENTED_EDGE ( 'NONE', *, *, #578, .F. ) ;
#1070 = DIRECTION ( 'NONE',  ( -1.000000000000000000, -1.156482317317871725E-16, 0.000000000000000000 ) ) ;
#1071 = ORIENTED_EDGE ( 'NONE', *, *, #1097, .F. ) ;
#1072 = FACE_OUTER_BOUND ( 'NONE', #797, .T. ) ;
#1073 = EDGE_CURVE ( 'NONE', #974, #470, #124, .T. ) ;
#1074 = CARTESIAN_POINT ( 'NONE',  ( 6.000000000000000000, 5.000000000000000888, 6.123233995736766282E-16 ) ) ;
#1075 = EDGE_LOOP ( 'NONE', ( #379, #654, #72, #48 ) ) ;
#1076 = CARTESIAN_POINT ( 'NONE',  ( -6.000000000000004441, -17.50000000000000711, 0.000000000000000000 ) ) ;
#1077 = ORIENTED_EDGE ( 'NONE', *, *, #1073, .F. ) ;
#1078 =( GEOMETRIC_REPRESENTATION_CONTEXT ( 3 ) GLOBAL_UNCERTAINTY_ASSIGNED_CONTEXT ( ( #1094 ) ) GLOBAL_UNIT_ASSIGNED_CONTEXT ( ( #1046, #187, #775 ) ) REPRESENTATION_CONTEXT ( 'NONE', 'WORKASPACE' ) );
#1079 = CIRCLE ( 'NONE', #42, 4.000000000000000000 ) ;
#1080 = DIRECTION ( 'NONE',  ( 1.000000000000000000, 0.000000000000000000, 0.000000000000000000 ) ) ;
#1081 = FACE_OUTER_BOUND ( 'NONE', #565, .T. ) ;
#1082 = LINE ( 'NONE', #242, #404 ) ;
#1083 = DIRECTION ( 'NONE',  ( 1.734723475976807094E-16, -1.000000000000000000, 0.000000000000000000 ) ) ;
#1084 = ORIENTED_EDGE ( 'NONE', *, *, #377, .T. ) ;
#1085 = DIRECTION ( 'NONE',  ( 1.000000000000000000, 1.261617073437677752E-16, -0.000000000000000000 ) ) ;
#1086 = DIRECTION ( 'NONE',  ( 7.885106708985486569E-17, -1.000000000000000000, 0.000000000000000000 ) ) ;
#1087 = DIRECTION ( 'NONE',  ( -1.197551343574183473E-16, 1.000000000000000000, -6.938893903907238238E-17 ) ) ;
#1088 = ORIENTED_EDGE ( 'NONE', *, *, #748, .F. ) ;
#1089 = PLANE ( 'NONE',  #847 ) ;
#1090 = FACE_OUTER_BOUND ( 'NONE', #1075, .T. ) ;
#1091 = FACE_BOUND ( 'NONE', #254, .T. ) ;
#1092 = ORIENTED_EDGE ( 'NONE', *, *, #714, .F. ) ;
#1093 = AXIS2_PLACEMENT_3D ( 'NONE', #500, #838, #336 ) ;
#1094 = UNCERTAINTY_MEASURE_WITH_UNIT (LENGTH_MEASURE( 1.000000000000000082E-05 ), #1046, 'distance_accuracy_value', 'NONE');
#1095 = FACE_OUTER_BOUND ( 'NONE', #149, .T. ) ;
#1096 = VECTOR ( 'NONE', #416, 1000.000000000000000 ) ;
#1097 = EDGE_CURVE ( 'NONE', #139, #674, #301, .T. ) ;
#1098 = EDGE_LOOP ( 'NONE', ( #460, #728, #978, #875 ) ) ;
#1099 = VECTOR ( 'NONE', #933, 1000.000000000000000 ) ;
#1100 = DIRECTION ( 'NONE',  ( -1.000000000000000000, -1.156482317317871725E-16, 0.000000000000000000 ) ) ;
#1101 = EDGE_CURVE ( 'NONE', #120, #859, #727, .T. ) ;
#1102 = AXIS2_PLACEMENT_3D ( 'NONE', #390, #893, #734 ) ;
#1103 = APPLICATION_PROTOCOL_DEFINITION ( 'draft international standard', 'automotive_design', 1998, #234 ) ;
#1104 = CARTESIAN_POINT ( 'NONE',  ( -1.999999999999999112, -2.312964634635742464E-16, 0.000000000000000000 ) ) ;
#1105 = VERTEX_POINT ( 'NONE', #986 ) ;
#1106 = EDGE_CURVE ( 'NONE', #470, #751, #922, .T. ) ;
#1107 = CARTESIAN_POINT ( 'NONE',  ( -6.000000000000007994, 17.50000000000000711, 0.000000000000000000 ) ) ;
#1108 = DIRECTION ( 'NONE',  ( -1.000000000000000000, -1.156482317317871725E-16, 0.000000000000000000 ) ) ;
#1109 = DIRECTION ( 'NONE',  ( -0.000000000000000000, -0.000000000000000000, 1.000000000000000000 ) ) ;
#1110 = ORIENTED_EDGE ( 'NONE', *, *, #276, .T. ) ;
#1111 = DIRECTION ( 'NONE',  ( -1.000000000000000000, -1.156482317317871725E-16, 0.000000000000000000 ) ) ;
#1112 = EDGE_CURVE ( 'NONE', #388, #486, #64, .T. ) ;
#1113 = DIRECTION ( 'NONE',  ( 0.000000000000000000, 1.000000000000000000, 0.000000000000000000 ) ) ;
ENDSEC;
END-ISO-10303-21;
