ISO-10303-21;
HEADER;
FILE_DESCRIPTION (( 'STEP AP214' ),
    '1' );
FILE_NAME ('Steering-Servo-Arm.STEP',
    '2026-06-03T04:43:32',
    ( '' ),
    ( '' ),
    'SwSTEP 2.0',
    'SolidWorks 2026',
    '' );
FILE_SCHEMA (( 'AUTOMOTIVE_DESIGN' ));
ENDSEC;

DATA;
#1 = PLANE ( 'NONE',  #191 ) ;
#2 = VERTEX_POINT ( 'NONE', #33 ) ;
#3 = EDGE_CURVE ( 'NONE', #135, #861, #529, .T. ) ;
#4 = VECTOR ( 'NONE', #725, 1000.000000000000000 ) ;
#5 = CARTESIAN_POINT ( 'NONE',  ( 22.50000000000000000, 5.000000000000000000, 4.999999999999998224 ) ) ;
#6 = AXIS2_PLACEMENT_3D ( 'NONE', #914, #166, #1004 ) ;
#7 = CIRCLE ( 'NONE', #533, 1.000000000000000000 ) ;
#8 = VERTEX_POINT ( 'NONE', #141 ) ;
#9 = CARTESIAN_POINT ( 'NONE',  ( 0.4999999999999978351, 3.000000000000000000, 6.000000000000000000 ) ) ;
#10 = ORIENTED_EDGE ( 'NONE', *, *, #919, .F. ) ;
#11 = DIRECTION ( 'NONE',  ( 0.000000000000000000, 0.000000000000000000, 1.000000000000000000 ) ) ;
#12 = EDGE_CURVE ( 'NONE', #1059, #1174, #984, .T. ) ;
#13 = LINE ( 'NONE', #22, #1093 ) ;
#14 = ORIENTED_EDGE ( 'NONE', *, *, #1121, .T. ) ;
#15 = DIRECTION ( 'NONE',  ( 0.000000000000000000, 0.000000000000000000, -1.000000000000000000 ) ) ;
#16 = DIRECTION ( 'NONE',  ( 0.000000000000000000, 0.000000000000000000, 1.000000000000000000 ) ) ;
#17 = VERTEX_POINT ( 'NONE', #401 ) ;
#18 = ORIENTED_EDGE ( 'NONE', *, *, #619, .T. ) ;
#19 = CARTESIAN_POINT ( 'NONE',  ( 2.499999999999997780, 4.000000000000000000, 6.000000000000000000 ) ) ;
#20 = DIRECTION ( 'NONE',  ( 0.000000000000000000, -1.000000000000000000, 0.000000000000000000 ) ) ;
#21 = AXIS2_PLACEMENT_3D ( 'NONE', #447, #162, #819 ) ;
#22 = CARTESIAN_POINT ( 'NONE',  ( 22.50000000000000000, 5.000000000000000000, -6.000000000000000000 ) ) ;
#23 = CARTESIAN_POINT ( 'NONE',  ( -22.50000000000000000, 2.000000000000000000, -6.000000000000000000 ) ) ;
#24 = VECTOR ( 'NONE', #1082, 1000.000000000000000 ) ;
#25 = EDGE_CURVE ( 'NONE', #602, #776, #1126, .T. ) ;
#26 = AXIS2_PLACEMENT_3D ( 'NONE', #183, #741, #1120 ) ;
#27 = ORIENTED_EDGE ( 'NONE', *, *, #1027, .T. ) ;
#28 = AXIS2_PLACEMENT_3D ( 'NONE', #664, #125, #595 ) ;
#29 = LINE ( 'NONE', #229, #244 ) ;
#30 = AXIS2_PLACEMENT_3D ( 'NONE', #1077, #983, #795 ) ;
#31 = LINE ( 'NONE', #321, #149 ) ;
#32 = CARTESIAN_POINT ( 'NONE',  ( 21.50000000000000000, 5.000000000000000000, -6.000000000000000000 ) ) ;
#33 = CARTESIAN_POINT ( 'NONE',  ( 19.00000000000000355, 1.500000000000000222, -2.250000000000000444 ) ) ;
#34 = ORIENTED_EDGE ( 'NONE', *, *, #105, .T. ) ;
#35 = LINE ( 'NONE', #312, #71 ) ;
#36 = EDGE_CURVE ( 'NONE', #369, #861, #633, .T. ) ;
#37 = EDGE_CURVE ( 'NONE', #869, #8, #296, .T. ) ;
#38 = DIRECTION ( 'NONE',  ( 0.000000000000000000, 0.000000000000000000, -1.000000000000000000 ) ) ;
#39 = CARTESIAN_POINT ( 'NONE',  ( -17.00000000000000000, -1.500000000000000000, -3.775643679511807793 ) ) ;
#40 = EDGE_LOOP ( 'NONE', ( #48, #362 ) ) ;
#41 = ORIENTED_EDGE ( 'NONE', *, *, #398, .F. ) ;
#42 = LINE ( 'NONE', #499, #670 ) ;
#43 = ADVANCED_FACE ( 'NONE', ( #119 ), #591, .T. ) ;
#44 = CARTESIAN_POINT ( 'NONE',  ( -17.00000000000000000, -1.500000000000000000, 0.000000000000000000 ) ) ;
#45 = EDGE_CURVE ( 'NONE', #416, #1179, #485, .T. ) ;
#46 = LINE ( 'NONE', #420, #1165 ) ;
#47 = EDGE_LOOP ( 'NONE', ( #523, #900, #110, #645 ) ) ;
#48 = ORIENTED_EDGE ( 'NONE', *, *, #1100, .T. ) ;
#49 = AXIS2_PLACEMENT_3D ( 'NONE', #1072, #601, #977 ) ;
#50 = AXIS2_PLACEMENT_3D ( 'NONE', #611, #817, #606 ) ;
#51 = PLANE ( 'NONE',  #1113 ) ;
#52 = VECTOR ( 'NONE', #563, 1000.000000000000000 ) ;
#53 = TOROIDAL_SURFACE ( 'NONE', #458, 4.275643679511808237, 0.5000000000000000000 ) ;
#54 = FACE_OUTER_BOUND ( 'NONE', #58, .T. ) ;
#55 = SURFACE_SIDE_STYLE ('',( #810 ) ) ;
#56 = DIRECTION ( 'NONE',  ( -0.000000000000000000, -1.000000000000000000, -0.000000000000000000 ) ) ;
#57 = EDGE_CURVE ( 'NONE', #648, #833, #1086, .T. ) ;
#58 = EDGE_LOOP ( 'NONE', ( #608, #720, #641, #937, #178 ) ) ;
#59 = CARTESIAN_POINT ( 'NONE',  ( -17.00000000000000000, 2.000000000000000000, 0.000000000000000000 ) ) ;
#60 = DIRECTION ( 'NONE',  ( 0.000000000000000000, 0.000000000000000000, 1.000000000000000000 ) ) ;
#61 = DIRECTION ( 'NONE',  ( 0.000000000000000000, 0.000000000000000000, -1.000000000000000000 ) ) ;
#62 = ORIENTED_EDGE ( 'NONE', *, *, #643, .T. ) ;
#63 = CARTESIAN_POINT ( 'NONE',  ( -13.19616409712250515, 1.334478334024252533, 4.658355462940706075E-16 ) ) ;
#64 = DIRECTION ( 'NONE',  ( -0.000000000000000000, 0.000000000000000000, 1.000000000000000000 ) ) ;
#65 = FILL_AREA_STYLE ('',( #235 ) ) ;
#66 = CARTESIAN_POINT ( 'NONE',  ( 16.00000000000000000, 1.500000000000000000, 2.250000000000000000 ) ) ;
#67 = ORIENTED_EDGE ( 'NONE', *, *, #690, .T. ) ;
#68 = ORIENTED_EDGE ( 'NONE', *, *, #804, .F. ) ;
#69 = CARTESIAN_POINT ( 'NONE',  ( -17.00000000000000000, -1.334478334024252533, -3.803835902877495290 ) ) ;
#70 = CIRCLE ( 'NONE', #1162, 4.275643679511808237 ) ;
#71 = VECTOR ( 'NONE', #685, 1000.000000000000000 ) ;
#72 = CARTESIAN_POINT ( 'NONE',  ( 22.50000000000000000, 2.000000000000000000, -2.250000000000000000 ) ) ;
#73 = PRESENTATION_STYLE_ASSIGNMENT (( #1172 ) ) ;
#74 = DIRECTION ( 'NONE',  ( 0.000000000000000000, 0.000000000000000000, -1.000000000000000000 ) ) ;
#75 = ORIENTED_EDGE ( 'NONE', *, *, #747, .F. ) ;
#76 = EDGE_LOOP ( 'NONE', ( #271, #225, #656, #27 ) ) ;
#77 = CARTESIAN_POINT ( 'NONE',  ( -19.50000000000000000, 2.000000000000000000, 6.000000000000000000 ) ) ;
#78 = ADVANCED_FACE ( 'NONE', ( #260, #1178 ), #432, .T. ) ;
#79 = EDGE_CURVE ( 'NONE', #735, #1079, #1049, .T. ) ;
#80 = CARTESIAN_POINT ( 'NONE',  ( 8.999999999999998224, 1.500000000000000000, 6.000000000000000000 ) ) ;
#81 = DIRECTION ( 'NONE',  ( 0.000000000000000000, 0.000000000000000000, 1.000000000000000000 ) ) ;
#82 = ORIENTED_EDGE ( 'NONE', *, *, #262, .T. ) ;
#83 = EDGE_LOOP ( 'NONE', ( #921, #580, #1074, #539 ) ) ;
#84 = DIRECTION ( 'NONE',  ( -0.000000000000000000, -1.000000000000000000, -0.000000000000000000 ) ) ;
#85 = EDGE_CURVE ( 'NONE', #158, #1179, #705, .T. ) ;
#86 = DIRECTION ( 'NONE',  ( 1.000000000000000000, 0.000000000000000000, 0.000000000000000000 ) ) ;
#87 = VERTEX_POINT ( 'NONE', #516 ) ;
#88 = LINE ( 'NONE', #187, #1069 ) ;
#89 = CIRCLE ( 'NONE', #686, 3.803835902877494846 ) ;
#90 = AXIS2_PLACEMENT_3D ( 'NONE', #122, #222, #115 ) ;
#91 = CARTESIAN_POINT ( 'NONE',  ( -22.50000000000000000, 2.000000000000000000, -6.000000000000000000 ) ) ;
#92 = VECTOR ( 'NONE', #290, 1000.000000000000000 ) ;
#93 = AXIS2_PLACEMENT_3D ( 'NONE', #527, #431, #620 ) ;
#94 = ADVANCED_FACE ( 'NONE', ( #1000 ), #632, .T. ) ;
#95 = ORIENTED_EDGE ( 'NONE', *, *, #45, .F. ) ;
#96 = CARTESIAN_POINT ( 'NONE',  ( 22.50000000000000000, -2.000000000000000000, 4.999999999999999112 ) ) ;
#97 = DIRECTION ( 'NONE',  ( -0.000000000000000000, -0.000000000000000000, -1.000000000000000000 ) ) ;
#98 = ORIENTED_EDGE ( 'NONE', *, *, #1133, .T. ) ;
#99 = EDGE_CURVE ( 'NONE', #293, #186, #1066, .T. ) ;
#100 = DIRECTION ( 'NONE',  ( -1.000000000000000000, 0.000000000000000000, 0.000000000000000000 ) ) ;
#101 = DIRECTION ( 'NONE',  ( -1.000000000000000000, 0.000000000000000000, 0.000000000000000000 ) ) ;
#102 = ORIENTED_EDGE ( 'NONE', *, *, #963, .F. ) ;
#103 = CARTESIAN_POINT ( 'NONE',  ( 21.50000000000000000, 2.000000000000000000, 6.000000000000000000 ) ) ;
#104 = ORIENTED_EDGE ( 'NONE', *, *, #404, .T. ) ;
#105 = EDGE_CURVE ( 'NONE', #306, #616, #1099, .T. ) ;
#106 = CIRCLE ( 'NONE', #206, 4.031128874149275454 ) ;
#107 = DIRECTION ( 'NONE',  ( 0.000000000000000000, 0.000000000000000000, -1.000000000000000000 ) ) ;
#108 = CIRCLE ( 'NONE', #50, 1.000000000000000000 ) ;
#109 = AXIS2_PLACEMENT_3D ( 'NONE', #805, #423, #799 ) ;
#110 = ORIENTED_EDGE ( 'NONE', *, *, #667, .F. ) ;
#111 = FACE_OUTER_BOUND ( 'NONE', #232, .T. ) ;
#112 = DIRECTION ( 'NONE',  ( 0.000000000000000000, 1.000000000000000000, 0.000000000000000000 ) ) ;
#113 = ORIENTED_EDGE ( 'NONE', *, *, #988, .T. ) ;
#114 = EDGE_LOOP ( 'NONE', ( #147, #1026, #288, #34, #220, #345, #779, #813, #1119, #874 ) ) ;
#115 = DIRECTION ( 'NONE',  ( -1.000000000000000000, 0.000000000000000000, 0.000000000000000000 ) ) ;
#116 = ADVANCED_FACE ( 'NONE', ( #522 ), #1191, .T. ) ;
#117 = FACE_BOUND ( 'NONE', #666, .T. ) ;
#118 = DIRECTION ( 'NONE',  ( -0.000000000000000000, -1.000000000000000000, -0.000000000000000000 ) ) ;
#119 = FACE_OUTER_BOUND ( 'NONE', #464, .T. ) ;
#120 = EDGE_CURVE ( 'NONE', #357, #135, #751, .T. ) ;
#121 = VERTEX_POINT ( 'NONE', #730 ) ;
#122 = CARTESIAN_POINT ( 'NONE',  ( 10.49999999999999822, 1.500000000000000000, 2.250000000000000000 ) ) ;
#123 = DIRECTION ( 'NONE',  ( 1.000000000000000000, -0.000000000000000000, 1.224646799147353207E-16 ) ) ;
#124 = AXIS2_PLACEMENT_3D ( 'NONE', #1078, #236, #860 ) ;
#125 = DIRECTION ( 'NONE',  ( -0.000000000000000000, -0.000000000000000000, -1.000000000000000000 ) ) ;
#126 = ORIENTED_EDGE ( 'NONE', *, *, #37, .T. ) ;
#127 = CIRCLE ( 'NONE', #592, 0.4999999999999995559 ) ;
#128 = AXIS2_PLACEMENT_3D ( 'NONE', #1182, #438, #150 ) ;
#129 = EDGE_LOOP ( 'NONE', ( #41, #163, #1043, #14 ) ) ;
#130 = PRODUCT_RELATED_PRODUCT_CATEGORY ( 'part', '', ( #261 ) ) ;
#131 = VECTOR ( 'NONE', #332, 1000.000000000000000 ) ;
#132 = LINE ( 'NONE', #308, #456 ) ;
#133 = CARTESIAN_POINT ( 'NONE',  ( -17.00000000000000000, -1.334478334024252533, 0.000000000000000000 ) ) ;
#134 = DIRECTION ( 'NONE',  ( 0.000000000000000000, -1.000000000000000000, 0.000000000000000000 ) ) ;
#135 = VERTEX_POINT ( 'NONE', #1006 ) ;
#136 = EDGE_LOOP ( 'NONE', ( #798, #1009, #958, #169 ) ) ;
#137 = CARTESIAN_POINT ( 'NONE',  ( 8.999999999999998224, 1.500000000000000000, -2.250000000000000444 ) ) ;
#138 = ADVANCED_FACE ( 'NONE', ( #333 ), #168, .T. ) ;
#139 = LINE ( 'NONE', #581, #669 ) ;
#140 = DIRECTION ( 'NONE',  ( -0.000000000000000000, -0.000000000000000000, -1.000000000000000000 ) ) ;
#141 = CARTESIAN_POINT ( 'NONE',  ( -17.00000000000000000, 1.334478334024252533, -3.803835902877495290 ) ) ;
#142 = VERTEX_POINT ( 'NONE', #270 ) ;
#143 = DIRECTION ( 'NONE',  ( 0.000000000000000000, 0.000000000000000000, -1.000000000000000000 ) ) ;
#144 = EDGE_CURVE ( 'NONE', #861, #8, #89, .T. ) ;
#145 = FACE_OUTER_BOUND ( 'NONE', #136, .T. ) ;
#146 = VERTEX_POINT ( 'NONE', #796 ) ;
#147 = ORIENTED_EDGE ( 'NONE', *, *, #347, .T. ) ;
#148 = CIRCLE ( 'NONE', #770, 3.000000000000000000 ) ;
#149 = VECTOR ( 'NONE', #681, 1000.000000000000000 ) ;
#150 = DIRECTION ( 'NONE',  ( -1.000000000000000000, 0.000000000000000000, 0.000000000000000000 ) ) ;
#151 = CIRCLE ( 'NONE', #109, 1.500000000000001332 ) ;
#152 = AXIS2_PLACEMENT_3D ( 'NONE', #560, #549, #729 ) ;
#153 = DIRECTION ( 'NONE',  ( 0.000000000000000000, 0.000000000000000000, -1.000000000000000000 ) ) ;
#154 = EDGE_CURVE ( 'NONE', #468, #158, #148, .T. ) ;
#155 = CARTESIAN_POINT ( 'NONE',  ( -19.50000000000000000, 2.000000000000000000, -6.000000000000000000 ) ) ;
#156 = CARTESIAN_POINT ( 'NONE',  ( 10.49999999999999822, 1.500000000000000000, 6.000000000000000000 ) ) ;
#157 = ORIENTED_EDGE ( 'NONE', *, *, #460, .F. ) ;
#158 = VERTEX_POINT ( 'NONE', #528 ) ;
#159 = DIRECTION ( 'NONE',  ( 0.000000000000000000, 0.000000000000000000, 1.000000000000000000 ) ) ;
#160 = DIRECTION ( 'NONE',  ( -0.000000000000000000, 0.000000000000000000, -1.000000000000000000 ) ) ;
#161 = DIRECTION ( 'NONE',  ( 0.000000000000000000, 0.000000000000000000, 1.000000000000000000 ) ) ;
#162 = DIRECTION ( 'NONE',  ( -0.000000000000000000, -0.000000000000000000, -1.000000000000000000 ) ) ;
#163 = ORIENTED_EDGE ( 'NONE', *, *, #105, .F. ) ;
#164 = ORIENTED_EDGE ( 'NONE', *, *, #919, .T. ) ;
#165 = FACE_OUTER_BOUND ( 'NONE', #750, .T. ) ;
#166 = DIRECTION ( 'NONE',  ( 0.000000000000000000, 0.000000000000000000, -1.000000000000000000 ) ) ;
#167 = DIRECTION ( 'NONE',  ( 0.000000000000000000, 1.000000000000000000, 0.000000000000000000 ) ) ;
#168 = PLANE ( 'NONE',  #943 ) ;
#169 = ORIENTED_EDGE ( 'NONE', *, *, #543, .F. ) ;
#170 = AXIS2_PLACEMENT_3D ( 'NONE', #802, #711, #249 ) ;
#171 = DIRECTION ( 'NONE',  ( -0.000000000000000000, -1.000000000000000000, -0.000000000000000000 ) ) ;
#172 = AXIS2_PLACEMENT_3D ( 'NONE', #346, #708, #60 ) ;
#173 = VECTOR ( 'NONE', #745, 1000.000000000000000 ) ;
#174 = CARTESIAN_POINT ( 'NONE',  ( 22.50000000000000000, -2.000000000000000000, -6.000000000000000000 ) ) ;
#175 = AXIS2_PLACEMENT_3D ( 'NONE', #582, #118, #774 ) ;
#176 = DIRECTION ( 'NONE',  ( 1.000000000000000000, 0.000000000000000000, 0.000000000000000000 ) ) ;
#177 = ORIENTED_EDGE ( 'NONE', *, *, #947, .F. ) ;
#178 = ORIENTED_EDGE ( 'NONE', *, *, #350, .T. ) ;
#179 = CARTESIAN_POINT ( 'NONE',  ( 8.999999999999998224, 1.500000000000000000, 6.000000000000000000 ) ) ;
#180 = EDGE_CURVE ( 'NONE', #468, #449, #421, .T. ) ;
#181 = DIRECTION ( 'NONE',  ( 9.120916465742055574E-16, 0.000000000000000000, -1.000000000000000000 ) ) ;
#182 = ORIENTED_EDGE ( 'NONE', *, *, #992, .T. ) ;
#183 = CARTESIAN_POINT ( 'NONE',  ( -17.00000000000000000, 1.500000000000000000, 0.000000000000000000 ) ) ;
#184 = ADVANCED_FACE ( 'NONE', ( #240, #613, #1094 ), #994, .F. ) ;
#185 = CARTESIAN_POINT ( 'NONE',  ( 12.00000000000000000, 1.500000000000000222, -6.000000000000000000 ) ) ;
#186 = VERTEX_POINT ( 'NONE', #66 ) ;
#187 = CARTESIAN_POINT ( 'NONE',  ( 1.499999999999997780, 5.000000000000000000, 6.000000000000000000 ) ) ;
#188 = ORIENTED_EDGE ( 'NONE', *, *, #316, .T. ) ;
#189 = AXIS2_PLACEMENT_3D ( 'NONE', #655, #202, #570 ) ;
#190 = AXIS2_PLACEMENT_3D ( 'NONE', #1030, #97, #463 ) ;
#191 = AXIS2_PLACEMENT_3D ( 'NONE', #555, #930, #373 ) ;
#192 =( LENGTH_UNIT ( ) NAMED_UNIT ( * ) SI_UNIT ( .MILLI., .METRE. ) );
#193 = DIRECTION ( 'NONE',  ( -1.000000000000000000, 0.000000000000000000, 0.000000000000000000 ) ) ;
#194 = ORIENTED_EDGE ( 'NONE', *, *, #3, .F. ) ;
#195 = ORIENTED_EDGE ( 'NONE', *, *, #451, .F. ) ;
#196 = ADVANCED_FACE ( 'NONE', ( #811, #719, #760 ), #273, .F. ) ;
#197 = ORIENTED_EDGE ( 'NONE', *, *, #1098, .T. ) ;
#198 = CARTESIAN_POINT ( 'NONE',  ( 17.50000000000000000, 1.500000000000000000, -6.000000000000000000 ) ) ;
#199 = ORIENTED_EDGE ( 'NONE', *, *, #180, .T. ) ;
#200 = EDGE_CURVE ( 'NONE', #325, #228, #1011, .T. ) ;
#201 = CARTESIAN_POINT ( 'NONE',  ( 8.999999999999998224, 1.500000000000000000, 2.250000000000000000 ) ) ;
#202 = DIRECTION ( 'NONE',  ( -1.000000000000000000, 0.000000000000000000, 0.000000000000000000 ) ) ;
#203 = ORIENTED_EDGE ( 'NONE', *, *, #212, .T. ) ;
#204 = LINE ( 'NONE', #278, #52 ) ;
#205 = VERTEX_POINT ( 'NONE', #371 ) ;
#206 = AXIS2_PLACEMENT_3D ( 'NONE', #1214, #938, #749 ) ;
#207 = CYLINDRICAL_SURFACE ( 'NONE', #241, 1.000000000000000000 ) ;
#208 = AXIS2_PLACEMENT_3D ( 'NONE', #990, #153, #515 ) ;
#209 = AXIS2_PLACEMENT_3D ( 'NONE', #657, #380, #835 ) ;
#210 = VERTEX_POINT ( 'NONE', #383 ) ;
#211 =( GEOMETRIC_REPRESENTATION_CONTEXT ( 3 ) GLOBAL_UNCERTAINTY_ASSIGNED_CONTEXT ( ( #381 ) ) GLOBAL_UNIT_ASSIGNED_CONTEXT ( ( #192, #1196, #1014 ) ) REPRESENTATION_CONTEXT ( 'NONE', 'WORKASPACE' ) );
#212 = EDGE_CURVE ( 'NONE', #683, #659, #508, .T. ) ;
#213 = EDGE_CURVE ( 'NONE', #436, #623, #106, .T. ) ;
#214 = DIRECTION ( 'NONE',  ( 1.000000000000000000, -0.000000000000000000, 1.224646799147353207E-16 ) ) ;
#215 = ORIENTED_EDGE ( 'NONE', *, *, #324, .F. ) ;
#216 = EDGE_LOOP ( 'NONE', ( #784, #881 ) ) ;
#217 = CYLINDRICAL_SURFACE ( 'NONE', #1033, 1.000000000000000000 ) ;
#218 = DIRECTION ( 'NONE',  ( 0.000000000000000000, 0.000000000000000000, 1.000000000000000000 ) ) ;
#219 = PRODUCT_DEFINITION ( 'UNKNOWN', '', #755, #1136 ) ;
#220 = ORIENTED_EDGE ( 'NONE', *, *, #324, .T. ) ;
#221 = ORIENTED_EDGE ( 'NONE', *, *, #973, .T. ) ;
#222 = DIRECTION ( 'NONE',  ( -0.000000000000000000, -0.000000000000000000, -1.000000000000000000 ) ) ;
#223 = CARTESIAN_POINT ( 'NONE',  ( -17.00000000000000000, -1.500000000000000000, -4.275643679511808237 ) ) ;
#224 = CYLINDRICAL_SURFACE ( 'NONE', #28, 1.500000000000001332 ) ;
#225 = ORIENTED_EDGE ( 'NONE', *, *, #370, .T. ) ;
#226 = AXIS2_PLACEMENT_3D ( 'NONE', #490, #1062, #578 ) ;
#227 = AXIS2_PLACEMENT_3D ( 'NONE', #443, #986, #330 ) ;
#228 = VERTEX_POINT ( 'NONE', #1127 ) ;
#229 = CARTESIAN_POINT ( 'NONE',  ( 12.00000000000000000, 1.500000000000000222, 6.000000000000000000 ) ) ;
#230 = CARTESIAN_POINT ( 'NONE',  ( -17.00000000000000000, -1.500000000000000000, -4.275643679511808237 ) ) ;
#231 = EDGE_LOOP ( 'NONE', ( #492, #1159, #279, #486 ) ) ;
#232 = EDGE_LOOP ( 'NONE', ( #652, #98, #372, #759, #895 ) ) ;
#233 = CARTESIAN_POINT ( 'NONE',  ( -19.50000000000000000, -2.000000000000000000, -6.000000000000000000 ) ) ;
#234 = DIRECTION ( 'NONE',  ( 0.000000000000000000, 0.000000000000000000, 1.000000000000000000 ) ) ;
#235 = FILL_AREA_STYLE_COLOUR ( '', #738 ) ;
#236 = DIRECTION ( 'NONE',  ( 0.000000000000000000, 1.000000000000000000, 0.000000000000000000 ) ) ;
#237 = ORIENTED_EDGE ( 'NONE', *, *, #886, .T. ) ;
#238 = DIRECTION ( 'NONE',  ( 0.000000000000000000, -1.000000000000000000, 0.000000000000000000 ) ) ;
#239 = CARTESIAN_POINT ( 'NONE',  ( 7.500000000000000000, 5.000000000000000000, 2.250000000000000000 ) ) ;
#240 = FACE_BOUND ( 'NONE', #402, .T. ) ;
#241 = AXIS2_PLACEMENT_3D ( 'NONE', #827, #756, #86 ) ;
#242 = ORIENTED_EDGE ( 'NONE', *, *, #262, .F. ) ;
#243 = CARTESIAN_POINT ( 'NONE',  ( -17.00000000000000000, -1.334478334024252533, 0.000000000000000000 ) ) ;
#244 = VECTOR ( 'NONE', #1163, 1000.000000000000000 ) ;
#245 = EDGE_CURVE ( 'NONE', #146, #735, #612, .T. ) ;
#246 = TOROIDAL_SURFACE ( 'NONE', #948, 4.275643679511808237, 0.5000000000000000000 ) ;
#247 = LINE ( 'NONE', #885, #336 ) ;
#248 = FACE_OUTER_BOUND ( 'NONE', #1017, .T. ) ;
#249 = DIRECTION ( 'NONE',  ( -1.000000000000000000, 0.000000000000000000, -0.000000000000000000 ) ) ;
#250 = VERTEX_POINT ( 'NONE', #185 ) ;
#251 = LINE ( 'NONE', #77, #282 ) ;
#252 = CARTESIAN_POINT ( 'NONE',  ( 21.49999999999999289, 5.000000000000000000, 6.000000000000000000 ) ) ;
#253 = CARTESIAN_POINT ( 'NONE',  ( 1.499999999999997780, 3.000000000000000000, 2.500000000000000444 ) ) ;
#254 = DIRECTION ( 'NONE',  ( 0.000000000000000000, 0.000000000000000000, -1.000000000000000000 ) ) ;
#255 = ORIENTED_EDGE ( 'NONE', *, *, #566, .T. ) ;
#256 = ORIENTED_EDGE ( 'NONE', *, *, #877, .F. ) ;
#257 = DIRECTION ( 'NONE',  ( -0.000000000000000000, -0.000000000000000000, -1.000000000000000000 ) ) ;
#258 = CARTESIAN_POINT ( 'NONE',  ( -17.00000000000000000, -1.500000000000000000, 0.000000000000000000 ) ) ;
#259 = LINE ( 'NONE', #976, #131 ) ;
#260 = FACE_OUTER_BOUND ( 'NONE', #532, .T. ) ;
#261 = PRODUCT ( 'Steering-Servo-Arm', 'Steering-Servo-Arm', '', ( #544 ) ) ;
#262 = EDGE_CURVE ( 'NONE', #939, #1152, #411, .T. ) ;
#263 = EDGE_CURVE ( 'NONE', #302, #306, #561, .T. ) ;
#264 = EDGE_LOOP ( 'NONE', ( #1124, #744, #1055, #571 ) ) ;
#265 = ORIENTED_EDGE ( 'NONE', *, *, #398, .T. ) ;
#266 = AXIS2_PLACEMENT_3D ( 'NONE', #823, #1106, #81 ) ;
#267 = DIRECTION ( 'NONE',  ( -1.000000000000000000, 0.000000000000000000, 0.000000000000000000 ) ) ;
#268 = AXIS2_PLACEMENT_3D ( 'NONE', #680, #390, #303 ) ;
#269 = CIRCLE ( 'NONE', #1091, 3.803835902877494846 ) ;
#270 = CARTESIAN_POINT ( 'NONE',  ( 0.4999999999999900080, 2.000000000000000000, -6.000000000000000000 ) ) ;
#271 = ORIENTED_EDGE ( 'NONE', *, *, #767, .F. ) ;
#272 = CARTESIAN_POINT ( 'NONE',  ( 16.00000000000000000, 1.500000000000000000, 6.000000000000000000 ) ) ;
#273 = PLANE ( 'NONE',  #314 ) ;
#274 = ORIENTED_EDGE ( 'NONE', *, *, #913, .F. ) ;
#275 = FACE_OUTER_BOUND ( 'NONE', #264, .T. ) ;
#276 = DIRECTION ( 'NONE',  ( 0.000000000000000000, 0.000000000000000000, 1.000000000000000000 ) ) ;
#277 = ORIENTED_EDGE ( 'NONE', *, *, #862, .F. ) ;
#278 = CARTESIAN_POINT ( 'NONE',  ( 22.50000000000000000, -2.000000000000000000, -6.000000000000000000 ) ) ;
#279 = ORIENTED_EDGE ( 'NONE', *, *, #675, .T. ) ;
#280 = FACE_OUTER_BOUND ( 'NONE', #510, .T. ) ;
#281 = AXIS2_PLACEMENT_3D ( 'NONE', #587, #218, #788 ) ;
#282 = VECTOR ( 'NONE', #1096, 1000.000000000000000 ) ;
#283 = CARTESIAN_POINT ( 'NONE',  ( 22.50000000000000000, 5.000000000000000000, 2.250000000000000000 ) ) ;
#284 = ORIENTED_EDGE ( 'NONE', *, *, #99, .T. ) ;
#285 = DIRECTION ( 'NONE',  ( -0.000000000000000000, 1.000000000000000000, -0.000000000000000000 ) ) ;
#286 = DIRECTION ( 'NONE',  ( 1.000000000000000000, 0.000000000000000000, -0.000000000000000000 ) ) ;
#287 = ADVANCED_FACE ( 'NONE', ( #842 ), #207, .F. ) ;
#288 = ORIENTED_EDGE ( 'NONE', *, *, #263, .T. ) ;
#289 = ADVANCED_FACE ( 'NONE', ( #1047 ), #452, .F. ) ;
#290 = DIRECTION ( 'NONE',  ( 0.000000000000000000, 0.000000000000000000, 1.000000000000000000 ) ) ;
#291 = ORIENTED_EDGE ( 'NONE', *, *, #947, .T. ) ;
#292 = CARTESIAN_POINT ( 'NONE',  ( 7.500000000000000000, 5.000000000000000000, -2.249999999999998224 ) ) ;
#293 = VERTEX_POINT ( 'NONE', #361 ) ;
#294 = EDGE_CURVE ( 'NONE', #735, #792, #769, .T. ) ;
#295 = ORIENTED_EDGE ( 'NONE', *, *, #1205, .F. ) ;
#296 = CIRCLE ( 'NONE', #1201, 0.4999999999999995559 ) ;
#297 = FACE_BOUND ( 'NONE', #803, .T. ) ;
#298 = CYLINDRICAL_SURFACE ( 'NONE', #535, 3.000000000000000000 ) ;
#299 = AXIS2_PLACEMENT_3D ( 'NONE', #9, #758, #100 ) ;
#300 = DIRECTION ( 'NONE',  ( 1.000000000000000000, -0.000000000000000000, 1.224646799147353207E-16 ) ) ;
#301 = VECTOR ( 'NONE', #161, 1000.000000000000000 ) ;
#302 = VERTEX_POINT ( 'NONE', #5 ) ;
#303 = DIRECTION ( 'NONE',  ( -1.000000000000000000, 0.000000000000000000, 0.000000000000000000 ) ) ;
#304 = EDGE_CURVE ( 'NONE', #344, #1046, #707, .T. ) ;
#305 = CARTESIAN_POINT ( 'NONE',  ( -17.00000000000000000, 1.500000000000000000, -4.275643679511808237 ) ) ;
#306 = VERTEX_POINT ( 'NONE', #849 ) ;
#307 = ORIENTED_EDGE ( 'NONE', *, *, #507, .T. ) ;
#308 = CARTESIAN_POINT ( 'NONE',  ( 16.00000000000000000, 1.500000000000000000, 6.000000000000000000 ) ) ;
#309 = LINE ( 'NONE', #854, #966 ) ;
#310 = ORIENTED_EDGE ( 'NONE', *, *, #949, .F. ) ;
#311 = ORIENTED_EDGE ( 'NONE', *, *, #736, .F. ) ;
#312 = CARTESIAN_POINT ( 'NONE',  ( -22.50000000000000000, -2.000000000000000000, -6.000000000000000000 ) ) ;
#313 = DIRECTION ( 'NONE',  ( 0.000000000000000000, 0.000000000000000000, 1.000000000000000000 ) ) ;
#314 = AXIS2_PLACEMENT_3D ( 'NONE', #91, #564, #286 ) ;
#315 = ORIENTED_EDGE ( 'NONE', *, *, #304, .T. ) ;
#316 = EDGE_CURVE ( 'NONE', #369, #146, #1028, .T. ) ;
#317 = CIRCLE ( 'NONE', #927, 3.000000000000000000 ) ;
#318 = VECTOR ( 'NONE', #462, 1000.000000000000000 ) ;
#319 = ORIENTED_EDGE ( 'NONE', *, *, #988, .F. ) ;
#320 = DIRECTION ( 'NONE',  ( -1.000000000000000000, 0.000000000000000000, 0.000000000000000000 ) ) ;
#321 = CARTESIAN_POINT ( 'NONE',  ( 22.50000000000000000, 2.000000000000000000, -5.000000000000000000 ) ) ;
#322 = CARTESIAN_POINT ( 'NONE',  ( 10.49999999999999822, 1.500000000000000000, 6.000000000000000000 ) ) ;
#323 = EDGE_LOOP ( 'NONE', ( #583, #662, #319, #1151 ) ) ;
#324 = EDGE_CURVE ( 'NONE', #616, #634, #663, .T. ) ;
#325 = VERTEX_POINT ( 'NONE', #1118 ) ;
#326 = DIRECTION ( 'NONE',  ( -0.000000000000000000, -0.000000000000000000, -1.000000000000000000 ) ) ;
#327 = DIRECTION ( 'NONE',  ( -0.000000000000000000, -0.000000000000000000, -1.000000000000000000 ) ) ;
#328 = CARTESIAN_POINT ( 'NONE',  ( -22.50000000000000000, -2.000000000000000000, 6.000000000000000000 ) ) ;
#329 = ADVANCED_FACE ( 'NONE', ( #925 ), #366, .F. ) ;
#330 = DIRECTION ( 'NONE',  ( -1.000000000000000000, 0.000000000000000000, 0.000000000000000000 ) ) ;
#331 = LINE ( 'NONE', #80, #24 ) ;
#332 = DIRECTION ( 'NONE',  ( -1.000000000000000000, 0.000000000000000000, 0.000000000000000000 ) ) ;
#333 = FACE_OUTER_BOUND ( 'NONE', #114, .T. ) ;
#334 = AXIS2_PLACEMENT_3D ( 'NONE', #378, #107, #743 ) ;
#335 = ORIENTED_EDGE ( 'NONE', *, *, #213, .F. ) ;
#336 = VECTOR ( 'NONE', #64, 1000.000000000000000 ) ;
#337 = ORIENTED_EDGE ( 'NONE', *, *, #569, .T. ) ;
#338 = AXIS2_PLACEMENT_3D ( 'NONE', #695, #590, #876 ) ;
#339 = DIRECTION ( 'NONE',  ( 0.000000000000000000, 0.000000000000000000, 1.000000000000000000 ) ) ;
#340 = CIRCLE ( 'NONE', #175, 3.803835902877494846 ) ;
#341 = ADVANCED_FACE ( 'NONE', ( #1210 ), #647, .F. ) ;
#342 = CARTESIAN_POINT ( 'NONE',  ( 17.50000000000000000, 1.500000000000000000, -6.000000000000000000 ) ) ;
#343 = CARTESIAN_POINT ( 'NONE',  ( 7.500000000000000000, 5.000000000000000000, 2.250000000000000000 ) ) ;
#344 = VERTEX_POINT ( 'NONE', #773 ) ;
#345 = ORIENTED_EDGE ( 'NONE', *, *, #949, .T. ) ;
#346 = CARTESIAN_POINT ( 'NONE',  ( -19.50000000000000000, 2.000000000000000000, -3.000000000000000000 ) ) ;
#347 = EDGE_CURVE ( 'NONE', #1022, #498, #139, .T. ) ;
#348 = CARTESIAN_POINT ( 'NONE',  ( 16.00000000000000000, 1.500000000000000000, -2.250000000000000444 ) ) ;
#349 = DIRECTION ( 'NONE',  ( -1.000000000000000000, 0.000000000000000000, 0.000000000000000000 ) ) ;
#350 = EDGE_CURVE ( 'NONE', #824, #1079, #752, .T. ) ;
#351 = ORIENTED_EDGE ( 'NONE', *, *, #1207, .T. ) ;
#352 = EDGE_LOOP ( 'NONE', ( #274, #910 ) ) ;
#353 = DIRECTION ( 'NONE',  ( -1.000000000000000000, 0.000000000000000000, 0.000000000000000000 ) ) ;
#354 = DIRECTION ( 'NONE',  ( 0.000000000000000000, 0.000000000000000000, 1.000000000000000000 ) ) ;
#355 = DIRECTION ( 'NONE',  ( 0.000000000000000000, 0.000000000000000000, 1.000000000000000000 ) ) ;
#356 = ORIENTED_EDGE ( 'NONE', *, *, #886, .F. ) ;
#357 = VERTEX_POINT ( 'NONE', #1058 ) ;
#358 = CARTESIAN_POINT ( 'NONE',  ( -17.00000000000000000, -2.000000000000000000, 4.275643679511808237 ) ) ;
#359 = CIRCLE ( 'NONE', #1050, 3.803835902877494846 ) ;
#360 = AXIS2_PLACEMENT_3D ( 'NONE', #831, #1135, #846 ) ;
#361 = CARTESIAN_POINT ( 'NONE',  ( 19.00000000000000355, 1.500000000000000222, 2.250000000000000000 ) ) ;
#362 = ORIENTED_EDGE ( 'NONE', *, *, #57, .T. ) ;
#363 = EDGE_CURVE ( 'NONE', #344, #293, #1054, .T. ) ;
#364 = LINE ( 'NONE', #455, #318 ) ;
#365 = CARTESIAN_POINT ( 'NONE',  ( 12.00000000000000000, 1.500000000000000222, 6.000000000000000000 ) ) ;
#366 = SPHERICAL_SURFACE ( 'NONE', #649, 4.031128874149273678 ) ;
#367 = ORIENTED_EDGE ( 'NONE', *, *, #144, .T. ) ;
#368 = LINE ( 'NONE', #272, #991 ) ;
#369 = VERTEX_POINT ( 'NONE', #478 ) ;
#370 = EDGE_CURVE ( 'NONE', #1137, #665, #489, .T. ) ;
#371 = CARTESIAN_POINT ( 'NONE',  ( -17.00000000000000000, 2.000000000000000000, -4.275643679511808237 ) ) ;
#372 = ORIENTED_EDGE ( 'NONE', *, *, #120, .T. ) ;
#373 = DIRECTION ( 'NONE',  ( 0.000000000000000000, -0.000000000000000000, 1.000000000000000000 ) ) ;
#374 = VECTOR ( 'NONE', #775, 1000.000000000000000 ) ;
#375 = LINE ( 'NONE', #1122, #926 ) ;
#376 = VECTOR ( 'NONE', #1176, 1000.000000000000000 ) ;
#377 = VECTOR ( 'NONE', #871, 1000.000000000000000 ) ;
#378 = CARTESIAN_POINT ( 'NONE',  ( 17.50000000000000000, 1.500000000000000000, 6.000000000000000000 ) ) ;
#379 = ORIENTED_EDGE ( 'NONE', *, *, #12, .T. ) ;
#380 = DIRECTION ( 'NONE',  ( 0.000000000000000000, 1.000000000000000000, 0.000000000000000000 ) ) ;
#381 = UNCERTAINTY_MEASURE_WITH_UNIT (LENGTH_MEASURE( 1.000000000000000082E-05 ), #192, 'distance_accuracy_value', 'NONE');
#382 = ADVANCED_FACE ( 'NONE', ( #297, #117, #1158 ), #1154, .T. ) ;
#383 = CARTESIAN_POINT ( 'NONE',  ( 22.50000000000000000, 5.000000000000000000, -2.250000000000000000 ) ) ;
#384 = VERTEX_POINT ( 'NONE', #483 ) ;
#385 = EDGE_LOOP ( 'NONE', ( #295, #1002, #182, #693 ) ) ;
#386 = LINE ( 'NONE', #1141, #1088 ) ;
#387 = DIRECTION ( 'NONE',  ( 0.000000000000000000, 1.000000000000000000, 0.000000000000000000 ) ) ;
#388 = ORIENTED_EDGE ( 'NONE', *, *, #1197, .T. ) ;
#389 = ORIENTED_EDGE ( 'NONE', *, *, #85, .T. ) ;
#390 = DIRECTION ( 'NONE',  ( 0.000000000000000000, 0.000000000000000000, 1.000000000000000000 ) ) ;
#391 = AXIS2_PLACEMENT_3D ( 'NONE', #941, #467, #11 ) ;
#392 = AXIS2_PLACEMENT_3D ( 'NONE', #904, #1184, #1090 ) ;
#393 = DIRECTION ( 'NONE',  ( -0.000000000000000000, -0.000000000000000000, -1.000000000000000000 ) ) ;
#394 = AXIS2_PLACEMENT_3D ( 'NONE', #342, #717, #445 ) ;
#395 = VECTOR ( 'NONE', #285, 1000.000000000000000 ) ;
#396 = EDGE_LOOP ( 'NONE', ( #972, #856, #310, #1199 ) ) ;
#397 = EDGE_LOOP ( 'NONE', ( #1146, #337, #126, #573, #194 ) ) ;
#398 = EDGE_CURVE ( 'NONE', #616, #1051, #309, .T. ) ;
#399 = CARTESIAN_POINT ( 'NONE',  ( 1.499999999999997780, 5.000000000000000000, 2.500000000000000444 ) ) ;
#400 = DIRECTION ( 'NONE',  ( 0.000000000000000000, 0.000000000000000000, -1.000000000000000000 ) ) ;
#401 = CARTESIAN_POINT ( 'NONE',  ( -17.00000000000000000, 2.000000000000000000, 4.275643679511808237 ) ) ;
#402 = EDGE_LOOP ( 'NONE', ( #901, #315 ) ) ;
#403 = PLANE ( 'NONE',  #1183 ) ;
#404 = EDGE_CURVE ( 'NONE', #205, #869, #472, .T. ) ;
#405 = CARTESIAN_POINT ( 'NONE',  ( -20.80383590287749485, -1.334478334024252533, 0.000000000000000000 ) ) ;
#406 = ORIENTED_EDGE ( 'NONE', *, *, #200, .F. ) ;
#407 = ORIENTED_EDGE ( 'NONE', *, *, #619, .F. ) ;
#408 = CARTESIAN_POINT ( 'NONE',  ( 21.50000000000000000, 2.000000000000000000, -5.000000000000000000 ) ) ;
#409 = DIRECTION ( 'NONE',  ( 0.000000000000000000, 1.000000000000000000, 0.000000000000000000 ) ) ;
#410 = EDGE_CURVE ( 'NONE', #384, #985, #31, .T. ) ;
#411 = CIRCLE ( 'NONE', #1111, 1.500000000000001332 ) ;
#412 = DIRECTION ( 'NONE',  ( 0.000000000000000000, 0.000000000000000000, 1.000000000000000000 ) ) ;
#413 = CARTESIAN_POINT ( 'NONE',  ( -17.00000000000000000, 1.500000000000000000, -4.275643679511808237 ) ) ;
#414 = CIRCLE ( 'NONE', #172, 3.000000000000000000 ) ;
#415 = VECTOR ( 'NONE', #922, 1000.000000000000000 ) ;
#416 = VERTEX_POINT ( 'NONE', #688 ) ;
#417 = CARTESIAN_POINT ( 'NONE',  ( 1.499999999999997780, 4.000000000000000000, 6.000000000000000000 ) ) ;
#418 = CARTESIAN_POINT ( 'NONE',  ( 7.500000000000000000, 5.000000000000000000, -2.249999999999998224 ) ) ;
#419 = EDGE_CURVE ( 'NONE', #1079, #87, #127, .T. ) ;
#420 = CARTESIAN_POINT ( 'NONE',  ( 19.00000000000000355, 1.500000000000000222, 6.000000000000000000 ) ) ;
#421 = LINE ( 'NONE', #328, #807 ) ;
#422 = ORIENTED_EDGE ( 'NONE', *, *, #213, .T. ) ;
#423 = DIRECTION ( 'NONE',  ( -0.000000000000000000, -0.000000000000000000, -1.000000000000000000 ) ) ;
#424 = DIRECTION ( 'NONE',  ( 0.000000000000000000, 1.000000000000000000, 0.000000000000000000 ) ) ;
#425 = DIRECTION ( 'NONE',  ( 0.000000000000000000, 0.000000000000000000, 1.000000000000000000 ) ) ;
#426 = ORIENTED_EDGE ( 'NONE', *, *, #955, .F. ) ;
#427 = ADVANCED_FACE ( 'NONE', ( #961 ), #1150, .F. ) ;
#428 = ADVANCED_FACE ( 'NONE', ( #593 ), #867, .F. ) ;
#429 = DIRECTION ( 'NONE',  ( 0.000000000000000000, -0.000000000000000000, -1.000000000000000000 ) ) ;
#430 = CARTESIAN_POINT ( 'NONE',  ( -17.00000000000000000, 1.500000000000000000, 0.000000000000000000 ) ) ;
#431 = DIRECTION ( 'NONE',  ( 0.000000000000000000, 0.000000000000000000, 1.000000000000000000 ) ) ;
#432 = PLANE ( 'NONE',  #553 ) ;
#433 = AXIS2_PLACEMENT_3D ( 'NONE', #971, #692, #1155 ) ;
#434 = ORIENTED_EDGE ( 'NONE', *, *, #1205, .T. ) ;
#435 = CIRCLE ( 'NONE', #614, 4.275643679511808237 ) ;
#436 = VERTEX_POINT ( 'NONE', #405 ) ;
#437 = AXIS2_PLACEMENT_3D ( 'NONE', #967, #495, #1170 ) ;
#438 = DIRECTION ( 'NONE',  ( -0.000000000000000000, -0.000000000000000000, -1.000000000000000000 ) ) ;
#439 = DIRECTION ( 'NONE',  ( 0.000000000000000000, 1.000000000000000000, -0.000000000000000000 ) ) ;
#440 = LINE ( 'NONE', #906, #1149 ) ;
#441 = CARTESIAN_POINT ( 'NONE',  ( 21.50000000000000000, 2.000000000000000000, 4.999999999999999112 ) ) ;
#442 = ORIENTED_EDGE ( 'NONE', *, *, #471, .T. ) ;
#443 = CARTESIAN_POINT ( 'NONE',  ( 22.50001199999999812, 2.000000000000000000, 2.250000000000000000 ) ) ;
#444 = PRODUCT_DEFINITION_SHAPE ( 'NONE', 'NONE',  #219 ) ;
#445 = DIRECTION ( 'NONE',  ( -1.000000000000000000, 0.000000000000000000, 0.000000000000000000 ) ) ;
#446 = EDGE_CURVE ( 'NONE', #146, #436, #359, .T. ) ;
#447 = CARTESIAN_POINT ( 'NONE',  ( 17.50000000000000000, 1.500000000000000000, 2.250000000000000000 ) ) ;
#448 = ORIENTED_EDGE ( 'NONE', *, *, #980, .F. ) ;
#449 = VERTEX_POINT ( 'NONE', #1070 ) ;
#450 = DIRECTION ( 'NONE',  ( 0.000000000000000000, 0.000000000000000000, 1.000000000000000000 ) ) ;
#451 = EDGE_CURVE ( 'NONE', #306, #121, #500, .T. ) ;
#452 = PLANE ( 'NONE',  #189 ) ;
#453 = ORIENTED_EDGE ( 'NONE', *, *, #180, .F. ) ;
#454 = CLOSED_SHELL ( 'NONE', ( #1108, #1031, #1167, #1040, #341, #575, #427, #853, #605, #43, #661, #791, #289, #962, #196, #923, #184, #78, #329, #1073, #1189, #1080, #815, #382, #834, #116, #682, #138, #1044, #428, #782, #848, #287, #637, #94, #701 ) ) ;
#455 = CARTESIAN_POINT ( 'NONE',  ( 22.50000000000000000, 5.000000000000000000, -2.250000000000000000 ) ) ;
#456 = VECTOR ( 'NONE', #1057, 1000.000000000000000 ) ;
#457 = VECTOR ( 'NONE', #918, 1000.000000000000000 ) ;
#458 = AXIS2_PLACEMENT_3D ( 'NONE', #509, #1177, #412 ) ;
#459 = DIRECTION ( 'NONE',  ( -0.000000000000000000, -1.000000000000000000, -0.000000000000000000 ) ) ;
#460 = EDGE_CURVE ( 'NONE', #1079, #735, #1128, .T. ) ;
#461 = VERTEX_POINT ( 'NONE', #1166 ) ;
#462 = DIRECTION ( 'NONE',  ( 1.000000000000000000, -0.000000000000000000, -1.156482317317871478E-16 ) ) ;
#463 = DIRECTION ( 'NONE',  ( -1.000000000000000000, 0.000000000000000000, 0.000000000000000000 ) ) ;
#464 = EDGE_LOOP ( 'NONE', ( #1211, #1187, #356, #104 ) ) ;
#465 = LINE ( 'NONE', #840, #92 ) ;
#466 = ORIENTED_EDGE ( 'NONE', *, *, #57, .F. ) ;
#467 = DIRECTION ( 'NONE',  ( -1.000000000000000000, 0.000000000000000000, 0.000000000000000000 ) ) ;
#468 = VERTEX_POINT ( 'NONE', #1076 ) ;
#469 = CARTESIAN_POINT ( 'NONE',  ( 21.50000000000000000, -2.000000000000000000, -5.000000000000000000 ) ) ;
#470 = ORIENTED_EDGE ( 'NONE', *, *, #263, .F. ) ;
#471 = EDGE_CURVE ( 'NONE', #792, #87, #435, .T. ) ;
#472 = CIRCLE ( 'NONE', #554, 0.4999999999999995559 ) ;
#473 = AXIS2_PLACEMENT_3D ( 'NONE', #469, #1212, #660 ) ;
#474 = CARTESIAN_POINT ( 'NONE',  ( 2.499999999999997780, 4.000000000000000000, -6.000000000000000000 ) ) ;
#475 = FACE_OUTER_BOUND ( 'NONE', #1160, .T. ) ;
#476 = EDGE_LOOP ( 'NONE', ( #95, #351, #1101, #389 ) ) ;
#477 = CARTESIAN_POINT ( 'NONE',  ( 1.499999999999997780, 3.000000000000000000, 6.000000000000000000 ) ) ;
#478 = CARTESIAN_POINT ( 'NONE',  ( -13.19616409712250515, -1.334478334024252533, 4.658355462940706075E-16 ) ) ;
#479 = EDGE_CURVE ( 'NONE', #833, #939, #386, .T. ) ;
#480 = ORIENTED_EDGE ( 'NONE', *, *, #370, .F. ) ;
#481 = ORIENTED_EDGE ( 'NONE', *, *, #479, .T. ) ;
#482 = CARTESIAN_POINT ( 'NONE',  ( 22.50000000000000000, 5.000000000000000000, -2.250000000000000000 ) ) ;
#483 = CARTESIAN_POINT ( 'NONE',  ( 22.50000000000000000, -2.000000000000000000, -5.000000000000000000 ) ) ;
#484 = EDGE_CURVE ( 'NONE', #87, #792, #70, .T. ) ;
#485 = LINE ( 'NONE', #23, #374 ) ;
#486 = ORIENTED_EDGE ( 'NONE', *, *, #913, .T. ) ;
#487 = DIRECTION ( 'NONE',  ( 4.163336342344337027E-14, 0.000000000000000000, 1.000000000000000000 ) ) ;
#488 = AXIS2_PLACEMENT_3D ( 'NONE', #739, #459, #1138 ) ;
#489 = CIRCLE ( 'NONE', #281, 1.500000000000001332 ) ;
#490 = CARTESIAN_POINT ( 'NONE',  ( 17.50000000000000000, 1.500000000000000000, 6.000000000000000000 ) ) ;
#491 = CIRCLE ( 'NONE', #1164, 1.500000000000001332 ) ;
#492 = ORIENTED_EDGE ( 'NONE', *, *, #363, .F. ) ;
#493 = ORIENTED_EDGE ( 'NONE', *, *, #586, .T. ) ;
#494 = EDGE_CURVE ( 'NONE', #17, #357, #511, .T. ) ;
#495 = DIRECTION ( 'NONE',  ( 0.000000000000000000, 0.000000000000000000, 1.000000000000000000 ) ) ;
#496 = DIRECTION ( 'NONE',  ( 1.000000000000000000, 0.000000000000000000, -0.000000000000000000 ) ) ;
#497 = ORIENTED_EDGE ( 'NONE', *, *, #566, .F. ) ;
#498 = VERTEX_POINT ( 'NONE', #252 ) ;
#499 = CARTESIAN_POINT ( 'NONE',  ( 22.50000000000000000, 2.000000000000000000, 4.999999999999999112 ) ) ;
#500 = LINE ( 'NONE', #975, #905 ) ;
#501 = CARTESIAN_POINT ( 'NONE',  ( -19.50000000000000000, 2.000000000000000000, 3.000000000000000000 ) ) ;
#502 = DIRECTION ( 'NONE',  ( -1.224646799147353207E-16, 0.000000000000000000, 1.000000000000000000 ) ) ;
#503 = ORIENTED_EDGE ( 'NONE', *, *, #667, .T. ) ;
#504 = CARTESIAN_POINT ( 'NONE',  ( 10.49999999999999822, 1.500000000000000000, 6.000000000000000000 ) ) ;
#505 = EDGE_CURVE ( 'NONE', #1056, #820, #892, .T. ) ;
#506 = CARTESIAN_POINT ( 'NONE',  ( -20.80383590287749485, 1.334478334024252533, 0.000000000000000000 ) ) ;
#507 = EDGE_CURVE ( 'NONE', #1114, #142, #520, .T. ) ;
#508 = CIRCLE ( 'NONE', #924, 1.000000000000000000 ) ;
#509 = CARTESIAN_POINT ( 'NONE',  ( -17.00000000000000000, -1.500000000000000000, 0.000000000000000000 ) ) ;
#510 = EDGE_LOOP ( 'NONE', ( #164, #197, #934, #367, #996, #335 ) ) ;
#511 = CIRCLE ( 'NONE', #1202, 0.4999999999999995559 ) ;
#512 = VECTOR ( 'NONE', #585, 1000.000000000000000 ) ;
#513 = ORIENTED_EDGE ( 'NONE', *, *, #505, .T. ) ;
#514 = PLANE ( 'NONE',  #227 ) ;
#515 = DIRECTION ( 'NONE',  ( -1.000000000000000000, 0.000000000000000000, 0.000000000000000000 ) ) ;
#516 = CARTESIAN_POINT ( 'NONE',  ( -17.00000000000000000, -2.000000000000000000, -4.275643679511808237 ) ) ;
#517 = EDGE_CURVE ( 'NONE', #250, #461, #531, .T. ) ;
#518 = VERTEX_POINT ( 'NONE', #526 ) ;
#519 = DIRECTION ( 'NONE',  ( 0.000000000000000000, 1.000000000000000000, 0.000000000000000000 ) ) ;
#520 = LINE ( 'NONE', #631, #1067 ) ;
#521 = CYLINDRICAL_SURFACE ( 'NONE', #993, 3.000000000000000000 ) ;
#522 = FACE_OUTER_BOUND ( 'NONE', #889, .T. ) ;
#523 = ORIENTED_EDGE ( 'NONE', *, *, #212, .F. ) ;
#524 = EDGE_LOOP ( 'NONE', ( #830, #426, #565, #952 ) ) ;
#525 = CARTESIAN_POINT ( 'NONE',  ( 21.49999999999998579, -2.000000000000000000, -6.000000000000000000 ) ) ;
#526 = CARTESIAN_POINT ( 'NONE',  ( 1.499999999999997780, 3.000000000000000000, -6.000000000000000000 ) ) ;
#527 = CARTESIAN_POINT ( 'NONE',  ( 17.50000000000000000, 1.500000000000000000, -2.250000000000000444 ) ) ;
#528 = CARTESIAN_POINT ( 'NONE',  ( -22.50000000000000000, -2.000000000000000000, 3.000000000000000888 ) ) ;
#529 = CIRCLE ( 'NONE', #433, 3.803835902877494846 ) ;
#530 = EDGE_LOOP ( 'NONE', ( #857, #513, #1215, #552, #841, #674, #68, #203 ) ) ;
#531 = CIRCLE ( 'NONE', #6, 1.500000000000001332 ) ;
#532 = EDGE_LOOP ( 'NONE', ( #673, #307, #221, #255, #1206, #1001 ) ) ;
#533 = AXIS2_PLACEMENT_3D ( 'NONE', #786, #1157, #487 ) ;
#534 = FACE_OUTER_BOUND ( 'NONE', #129, .T. ) ;
#535 = AXIS2_PLACEMENT_3D ( 'NONE', #672, #134, #873 ) ;
#536 = CARTESIAN_POINT ( 'NONE',  ( -19.50000000000000000, 2.000000000000000000, 3.000000000000000000 ) ) ;
#537 = ADVANCED_BREP_SHAPE_REPRESENTATION ( 'Steering-Servo-Arm', ( #1213, #152 ), #211 ) ;
#538 = CARTESIAN_POINT ( 'NONE',  ( -17.00000000000000000, 1.500000000000000000, 4.275643679511808237 ) ) ;
#539 = ORIENTED_EDGE ( 'NONE', *, *, #484, .F. ) ;
#540 = ORIENTED_EDGE ( 'NONE', *, *, #816, .T. ) ;
#541 = FACE_BOUND ( 'NONE', #917, .T. ) ;
#542 = EDGE_CURVE ( 'NONE', #1179, #1008, #317, .T. ) ;
#543 = EDGE_CURVE ( 'NONE', #665, #461, #331, .T. ) ;
#544 = PRODUCT_CONTEXT ( 'NONE', #959, 'mechanical' ) ;
#545 = CARTESIAN_POINT ( 'NONE',  ( -19.50000000000000000, -2.000000000000000000, 3.000000000000000000 ) ) ;
#546 = EDGE_LOOP ( 'NONE', ( #757, #768, #177, #1034 ) ) ;
#547 = DIRECTION ( 'NONE',  ( 1.000000000000000000, 0.000000000000000000, 0.000000000000000000 ) ) ;
#548 = EDGE_CURVE ( 'NONE', #659, #1022, #247, .T. ) ;
#549 = DIRECTION ( 'NONE',  ( 0.000000000000000000, 0.000000000000000000, 1.000000000000000000 ) ) ;
#550 = DIRECTION ( 'NONE',  ( -0.000000000000000000, -0.000000000000000000, -1.000000000000000000 ) ) ;
#551 = EDGE_LOOP ( 'NONE', ( #442, #812 ) ) ;
#552 = ORIENTED_EDGE ( 'NONE', *, *, #1020, .T. ) ;
#553 = AXIS2_PLACEMENT_3D ( 'NONE', #915, #621, #907 ) ;
#554 = AXIS2_PLACEMENT_3D ( 'NONE', #305, #214, #38 ) ;
#555 = CARTESIAN_POINT ( 'NONE',  ( 0.000000000000000000, -2.000000000000000000, 0.000000000000000000 ) ) ;
#556 = ORIENTED_EDGE ( 'NONE', *, *, #1197, .F. ) ;
#557 = TOROIDAL_SURFACE ( 'NONE', #26, 4.275643679511808237, 0.5000000000000000000 ) ;
#558 = CIRCLE ( 'NONE', #1089, 1.500000000000001332 ) ;
#559 = CIRCLE ( 'NONE', #654, 1.500000000000001332 ) ;
#560 = CARTESIAN_POINT ( 'NONE',  ( 0.000000000000000000, 0.000000000000000000, 0.000000000000000000 ) ) ;
#561 = LINE ( 'NONE', #283, #574 ) ;
#562 = ORIENTED_EDGE ( 'NONE', *, *, #1207, .F. ) ;
#563 = DIRECTION ( 'NONE',  ( -0.000000000000000000, -0.000000000000000000, -1.000000000000000000 ) ) ;
#564 = DIRECTION ( 'NONE',  ( 0.000000000000000000, 0.000000000000000000, 1.000000000000000000 ) ) ;
#565 = ORIENTED_EDGE ( 'NONE', *, *, #742, .F. ) ;
#566 = EDGE_CURVE ( 'NONE', #1192, #416, #414, .T. ) ;
#567 = FACE_OUTER_BOUND ( 'NONE', #1024, .T. ) ;
#568 = UNCERTAINTY_MEASURE_WITH_UNIT (LENGTH_MEASURE( 1.000000000000000082E-05 ), #1185, 'distance_accuracy_value', 'NONE');
#569 = EDGE_CURVE ( 'NONE', #357, #869, #845, .T. ) ;
#570 = DIRECTION ( 'NONE',  ( 0.000000000000000000, 0.000000000000000000, 1.000000000000000000 ) ) ;
#571 = ORIENTED_EDGE ( 'NONE', *, *, #471, .F. ) ;
#572 = CARTESIAN_POINT ( 'NONE',  ( 10.49999999999999822, 1.500000000000000000, -6.000000000000000000 ) ) ;
#573 = ORIENTED_EDGE ( 'NONE', *, *, #144, .F. ) ;
#574 = VECTOR ( 'NONE', #1132, 1000.000000000000000 ) ;
#575 = ADVANCED_FACE ( 'NONE', ( #145 ), #808, .F. ) ;
#576 = AXIS2_PLACEMENT_3D ( 'NONE', #223, #123, #671 ) ;
#577 = CIRCLE ( 'NONE', #968, 1.000000000000000000 ) ;
#578 = DIRECTION ( 'NONE',  ( -1.000000000000000000, 0.000000000000000000, 0.000000000000000000 ) ) ;
#579 = CIRCLE ( 'NONE', #30, 3.775643679511807793 ) ;
#580 = ORIENTED_EDGE ( 'NONE', *, *, #460, .T. ) ;
#581 = CARTESIAN_POINT ( 'NONE',  ( 1.499999999999997780, 5.000000000000000000, 6.000000000000000000 ) ) ;
#582 = CARTESIAN_POINT ( 'NONE',  ( -17.00000000000000000, -1.334478334024252533, 0.000000000000000000 ) ) ;
#583 = ORIENTED_EDGE ( 'NONE', *, *, #981, .F. ) ;
#584 = ORIENTED_EDGE ( 'NONE', *, *, #85, .F. ) ;
#585 = DIRECTION ( 'NONE',  ( 0.000000000000000000, 0.000000000000000000, -1.000000000000000000 ) ) ;
#586 = EDGE_CURVE ( 'NONE', #228, #325, #635, .T. ) ;
#587 = CARTESIAN_POINT ( 'NONE',  ( 10.49999999999999822, 1.500000000000000000, -2.250000000000000444 ) ) ;
#588 = ORIENTED_EDGE ( 'NONE', *, *, #1133, .F. ) ;
#589 = ORIENTED_EDGE ( 'NONE', *, *, #1100, .F. ) ;
#590 = DIRECTION ( 'NONE',  ( 0.000000000000000000, 1.000000000000000000, 0.000000000000000000 ) ) ;
#591 = TOROIDAL_SURFACE ( 'NONE', #124, 4.275643679511808237, 0.5000000000000000000 ) ;
#592 = AXIS2_PLACEMENT_3D ( 'NONE', #230, #696, #400 ) ;
#593 = FACE_OUTER_BOUND ( 'NONE', #231, .T. ) ;
#594 = AXIS2_PLACEMENT_3D ( 'NONE', #1200, #610, #891 ) ;
#595 = DIRECTION ( 'NONE',  ( -1.000000000000000000, 0.000000000000000000, 0.000000000000000000 ) ) ;
#596 = ORIENTED_EDGE ( 'NONE', *, *, #742, .T. ) ;
#597 = ORIENTED_EDGE ( 'NONE', *, *, #25, .T. ) ;
#598 = EDGE_CURVE ( 'NONE', #1059, #210, #1097, .T. ) ;
#599 = DIRECTION ( 'NONE',  ( 0.000000000000000000, 0.000000000000000000, -1.000000000000000000 ) ) ;
#600 = DIRECTION ( 'NONE',  ( 1.000000000000000000, 0.000000000000000000, 0.000000000000000000 ) ) ;
#601 = DIRECTION ( 'NONE',  ( -0.000000000000000000, -1.000000000000000000, -0.000000000000000000 ) ) ;
#602 = VERTEX_POINT ( 'NONE', #822 ) ;
#603 = EDGE_CURVE ( 'NONE', #498, #302, #108, .T. ) ;
#604 = FACE_OUTER_BOUND ( 'NONE', #76, .T. ) ;
#605 = ADVANCED_FACE ( 'NONE', ( #54 ), #709, .T. ) ;
#606 = DIRECTION ( 'NONE',  ( 0.000000000000000000, 0.000000000000000000, 1.000000000000000000 ) ) ;
#607 = DIRECTION ( 'NONE',  ( 0.000000000000000000, 0.000000000000000000, 1.000000000000000000 ) ) ;
#608 = ORIENTED_EDGE ( 'NONE', *, *, #79, .F. ) ;
#609 = EDGE_LOOP ( 'NONE', ( #18, #629, #1037, #995 ) ) ;
#610 = DIRECTION ( 'NONE',  ( -0.000000000000000000, -1.000000000000000000, -0.000000000000000000 ) ) ;
#611 = CARTESIAN_POINT ( 'NONE',  ( 21.50000000000000000, 5.000000000000000000, 4.999999999999999112 ) ) ;
#612 = CIRCLE ( 'NONE', #787, 0.4999999999999995559 ) ;
#613 = FACE_BOUND ( 'NONE', #40, .T. ) ;
#614 = AXIS2_PLACEMENT_3D ( 'NONE', #950, #112, #16 ) ;
#615 = VECTOR ( 'NONE', #1103, 1000.000000000000000 ) ;
#616 = VERTEX_POINT ( 'NONE', #239 ) ;
#617 = DIRECTION ( 'NONE',  ( -0.000000000000000000, -1.000000000000000000, -0.000000000000000000 ) ) ;
#618 = CARTESIAN_POINT ( 'NONE',  ( -17.00000000000000000, -2.000000000000000000, 0.000000000000000000 ) ) ;
#619 = EDGE_CURVE ( 'NONE', #1059, #384, #723, .T. ) ;
#620 = DIRECTION ( 'NONE',  ( 1.000000000000000000, 0.000000000000000000, 0.000000000000000000 ) ) ;
#621 = DIRECTION ( 'NONE',  ( 0.000000000000000000, 1.000000000000000000, 0.000000000000000000 ) ) ;
#622 = ORIENTED_EDGE ( 'NONE', *, *, #347, .F. ) ;
#623 = VERTEX_POINT ( 'NONE', #506 ) ;
#624 = LINE ( 'NONE', #814, #615 ) ;
#625 = DIRECTION ( 'NONE',  ( 0.000000000000000000, 0.000000000000000000, 1.000000000000000000 ) ) ;
#626 = CARTESIAN_POINT ( 'NONE',  ( 0.4999999999999900080, 2.000000000000000000, 6.000000000000000000 ) ) ;
#627 = DIRECTION ( 'NONE',  ( 0.000000000000000000, -0.000000000000000000, 1.000000000000000000 ) ) ;
#628 = EDGE_LOOP ( 'NONE', ( #406, #1140 ) ) ;
#629 = ORIENTED_EDGE ( 'NONE', *, *, #410, .T. ) ;
#630 = CARTESIAN_POINT ( 'NONE',  ( 1.499999999999997780, 5.000000000000000000, -6.000000000000000000 ) ) ;
#631 = CARTESIAN_POINT ( 'NONE',  ( 0.4999999999999978351, 2.000000000000000000, 0.000000000000000000 ) ) ;
#632 = CYLINDRICAL_SURFACE ( 'NONE', #844, 1.000000000000000000 ) ;
#633 = CIRCLE ( 'NONE', #883, 4.031128874149273678 ) ;
#634 = VERTEX_POINT ( 'NONE', #418 ) ;
#635 = CIRCLE ( 'NONE', #394, 1.500000000000001332 ) ;
#636 = ORIENTED_EDGE ( 'NONE', *, *, #694, .T. ) ;
#637 = ADVANCED_FACE ( 'NONE', ( #794 ), #1171, .T. ) ;
#638 = AXIS2_PLACEMENT_3D ( 'NONE', #997, #257, #267 ) ;
#639 = CYLINDRICAL_SURFACE ( 'NONE', #128, 1.500000000000001332 ) ;
#640 = CARTESIAN_POINT ( 'NONE',  ( -17.00000000000000000, 1.334478334024252533, 0.000000000000000000 ) ) ;
#641 = ORIENTED_EDGE ( 'NONE', *, *, #316, .F. ) ;
#642 = PLANE ( 'NONE',  #946 ) ;
#643 = EDGE_CURVE ( 'NONE', #1174, #634, #375, .T. ) ;
#644 = DIRECTION ( 'NONE',  ( -0.000000000000000000, -0.000000000000000000, -1.000000000000000000 ) ) ;
#645 = ORIENTED_EDGE ( 'NONE', *, *, #548, .F. ) ;
#646 = CARTESIAN_POINT ( 'NONE',  ( 2.499999999999997335, 5.000000000000000000, 6.000000000000000000 ) ) ;
#647 = CYLINDRICAL_SURFACE ( 'NONE', #190, 1.500000000000001332 ) ;
#648 = VERTEX_POINT ( 'NONE', #365 ) ;
#649 = AXIS2_PLACEMENT_3D ( 'NONE', #1123, #276, #193 ) ;
#650 = CIRCLE ( 'NONE', #338, 3.803835902877494846 ) ;
#651 = LINE ( 'NONE', #936, #173 ) ;
#652 = ORIENTED_EDGE ( 'NONE', *, *, #37, .F. ) ;
#653 = CIRCLE ( 'NONE', #437, 1.500000000000001332 ) ;
#654 = AXIS2_PLACEMENT_3D ( 'NONE', #322, #801, #704 ) ;
#655 = CARTESIAN_POINT ( 'NONE',  ( 22.50000000000000000, 2.000000000000000000, -6.000000000000000000 ) ) ;
#656 = ORIENTED_EDGE ( 'NONE', *, *, #543, .T. ) ;
#657 = CARTESIAN_POINT ( 'NONE',  ( -17.00000000000000000, 1.334478334024252533, 0.000000000000000000 ) ) ;
#658 = DIRECTION ( 'NONE',  ( 1.000000000000000000, 0.000000000000000000, 0.000000000000000000 ) ) ;
#659 = VERTEX_POINT ( 'NONE', #837 ) ;
#660 = DIRECTION ( 'NONE',  ( 0.000000000000000000, 0.000000000000000000, 1.000000000000000000 ) ) ;
#661 = ADVANCED_FACE ( 'NONE', ( #280 ), #1081, .F. ) ;
#662 = ORIENTED_EDGE ( 'NONE', *, *, #507, .F. ) ;
#663 = LINE ( 'NONE', #292, #1181 ) ;
#664 = CARTESIAN_POINT ( 'NONE',  ( 10.49999999999999822, 1.500000000000000000, 6.000000000000000000 ) ) ;
#665 = VERTEX_POINT ( 'NONE', #137 ) ;
#666 = EDGE_LOOP ( 'NONE', ( #843, #480 ) ) ;
#667 = EDGE_CURVE ( 'NONE', #1022, #740, #989, .T. ) ;
#668 = AXIS2_PLACEMENT_3D ( 'NONE', #156, #74, #1015 ) ;
#669 = VECTOR ( 'NONE', #600, 1000.000000000000000 ) ;
#670 = VECTOR ( 'NONE', #238, 1000.000000000000000 ) ;
#671 = DIRECTION ( 'NONE',  ( 0.000000000000000000, 0.000000000000000000, -1.000000000000000000 ) ) ;
#672 = CARTESIAN_POINT ( 'NONE',  ( -19.50000000000000000, 2.000000000000000000, -3.000000000000000000 ) ) ;
#673 = ORIENTED_EDGE ( 'NONE', *, *, #736, .T. ) ;
#674 = ORIENTED_EDGE ( 'NONE', *, *, #981, .T. ) ;
#675 = EDGE_CURVE ( 'NONE', #1046, #186, #132, .T. ) ;
#676 = FACE_OUTER_BOUND ( 'NONE', #1085, .T. ) ;
#677 = CARTESIAN_POINT ( 'NONE',  ( 22.50001199999999812, 2.000000000000000000, -2.250000000000000000 ) ) ;
#678 = EDGE_LOOP ( 'NONE', ( #699, #188, #978, #422, #636, #785 ) ) ;
#679 = ORIENTED_EDGE ( 'NONE', *, *, #877, .T. ) ;
#680 = CARTESIAN_POINT ( 'NONE',  ( -17.00000000000000000, 0.000000000000000000, 0.000000000000000000 ) ) ;
#681 = DIRECTION ( 'NONE',  ( -0.000000000000000000, 1.000000000000000000, -0.000000000000000000 ) ) ;
#682 = ADVANCED_FACE ( 'NONE', ( #960 ), #403, .F. ) ;
#683 = VERTEX_POINT ( 'NONE', #1061 ) ;
#684 = ORIENTED_EDGE ( 'NONE', *, *, #955, .T. ) ;
#685 = DIRECTION ( 'NONE',  ( -1.000000000000000000, -0.000000000000000000, -0.000000000000000000 ) ) ;
#686 = AXIS2_PLACEMENT_3D ( 'NONE', #640, #1021, #181 ) ;
#687 = VECTOR ( 'NONE', #393, 1000.000000000000000 ) ;
#688 = CARTESIAN_POINT ( 'NONE',  ( -22.50000000000000000, 2.000000000000000000, -3.000000000000000000 ) ) ;
#689 = AXIS2_PLACEMENT_3D ( 'NONE', #1188, #716, #1193 ) ;
#690 = EDGE_CURVE ( 'NONE', #1152, #939, #944, .T. ) ;
#691 = DIRECTION ( 'NONE',  ( 0.000000000000000000, 1.000000000000000000, 0.000000000000000000 ) ) ;
#692 = DIRECTION ( 'NONE',  ( 0.000000000000000000, 1.000000000000000000, 0.000000000000000000 ) ) ;
#693 = ORIENTED_EDGE ( 'NONE', *, *, #200, .T. ) ;
#694 = EDGE_CURVE ( 'NONE', #623, #135, #650, .T. ) ;
#695 = CARTESIAN_POINT ( 'NONE',  ( -17.00000000000000000, 1.334478334024252533, 0.000000000000000000 ) ) ;
#696 = DIRECTION ( 'NONE',  ( 1.000000000000000000, -0.000000000000000000, 1.224646799147353207E-16 ) ) ;
#697 = DIRECTION ( 'NONE',  ( 0.000000000000000000, 0.000000000000000000, -1.000000000000000000 ) ) ;
#698 = DIRECTION ( 'NONE',  ( 0.000000000000000000, 0.000000000000000000, -1.000000000000000000 ) ) ;
#699 = ORIENTED_EDGE ( 'NONE', *, *, #36, .F. ) ;
#700 = EDGE_CURVE ( 'NONE', #302, #928, #42, .T. ) ;
#701 = ADVANCED_FACE ( 'NONE', ( #676 ), #217, .T. ) ;
#702 = DIRECTION ( 'NONE',  ( -0.000000000000000000, -0.000000000000000000, 1.000000000000000000 ) ) ;
#703 = DIRECTION ( 'NONE',  ( -1.000000000000000000, 0.000000000000000000, 0.000000000000000000 ) ) ;
#704 = DIRECTION ( 'NONE',  ( -1.000000000000000000, 0.000000000000000000, 0.000000000000000000 ) ) ;
#705 = LINE ( 'NONE', #1084, #1161 ) ;
#706 = CYLINDRICAL_SURFACE ( 'NONE', #638, 1.500000000000001332 ) ;
#707 = CIRCLE ( 'NONE', #334, 1.500000000000001332 ) ;
#708 = DIRECTION ( 'NONE',  ( 0.000000000000000000, 1.000000000000000000, 0.000000000000000000 ) ) ;
#709 = TOROIDAL_SURFACE ( 'NONE', #734, 4.275643679511808237, 0.5000000000000000000 ) ;
#710 = CARTESIAN_POINT ( 'NONE',  ( 12.00000000000000000, 1.500000000000000222, 2.250000000000000000 ) ) ;
#711 = DIRECTION ( 'NONE',  ( 0.000000000000000000, 0.000000000000000000, -1.000000000000000000 ) ) ;
#712 = TOROIDAL_SURFACE ( 'NONE', #866, 4.275643679511808237, 0.5000000000000000000 ) ;
#713 = ORIENTED_EDGE ( 'NONE', *, *, #494, .T. ) ;
#714 = ORIENTED_EDGE ( 'NONE', *, *, #479, .F. ) ;
#715 = STYLED_ITEM ( 'NONE', ( #73 ), #1213 ) ;
#716 = DIRECTION ( 'NONE',  ( 0.000000000000000000, 1.000000000000000000, 0.000000000000000000 ) ) ;
#717 = DIRECTION ( 'NONE',  ( 0.000000000000000000, 0.000000000000000000, -1.000000000000000000 ) ) ;
#718 =( NAMED_UNIT ( * ) SI_UNIT ( $, .STERADIAN. ) SOLID_ANGLE_UNIT ( ) );
#719 = FACE_BOUND ( 'NONE', #216, .T. ) ;
#720 = ORIENTED_EDGE ( 'NONE', *, *, #245, .F. ) ;
#721 = EDGE_LOOP ( 'NONE', ( #256, #589, #481, #82 ) ) ;
#722 = CARTESIAN_POINT ( 'NONE',  ( -17.00000000000000000, 1.500000000000000000, -3.775643679511807793 ) ) ;
#723 = LINE ( 'NONE', #174, #863 ) ;
#724 = CARTESIAN_POINT ( 'NONE',  ( -22.50000000000000000, 2.000000000000000000, 3.000000000000000888 ) ) ;
#725 = DIRECTION ( 'NONE',  ( -1.000000000000000000, -0.000000000000000000, -0.000000000000000000 ) ) ;
#726 = ORIENTED_EDGE ( 'NONE', *, *, #410, .F. ) ;
#727 = LINE ( 'NONE', #630, #865 ) ;
#728 = CARTESIAN_POINT ( 'NONE',  ( 21.50000000000000000, 2.000000000000000000, -6.000000000000000000 ) ) ;
#729 = DIRECTION ( 'NONE',  ( 1.000000000000000000, 0.000000000000000000, 0.000000000000000000 ) ) ;
#730 = CARTESIAN_POINT ( 'NONE',  ( 22.50000000000000000, -2.000000000000000000, 2.250000000000000444 ) ) ;
#731 = AXIS2_PLACEMENT_3D ( 'NONE', #538, #349, #355 ) ;
#732 = EDGE_CURVE ( 'NONE', #665, #1137, #653, .T. ) ;
#733 = ORIENTED_EDGE ( 'NONE', *, *, #446, .F. ) ;
#734 = AXIS2_PLACEMENT_3D ( 'NONE', #258, #1012, #354 ) ;
#735 = VERTEX_POINT ( 'NONE', #1075 ) ;
#736 = EDGE_CURVE ( 'NONE', #1008, #1114, #781, .T. ) ;
#737 = FACE_OUTER_BOUND ( 'NONE', #875, .T. ) ;
#738 = COLOUR_RGB ( '',0.7921568627450980005, 0.8196078431372548767, 0.9333333333333333481 ) ;
#739 = CARTESIAN_POINT ( 'NONE',  ( -17.00000000000000000, -1.334478334024252533, 0.000000000000000000 ) ) ;
#740 = VERTEX_POINT ( 'NONE', #417 ) ;
#741 = DIRECTION ( 'NONE',  ( 0.000000000000000000, 1.000000000000000000, 0.000000000000000000 ) ) ;
#742 = EDGE_CURVE ( 'NONE', #928, #449, #7, .T. ) ;
#743 = DIRECTION ( 'NONE',  ( -1.000000000000000000, 0.000000000000000000, 0.000000000000000000 ) ) ;
#744 = ORIENTED_EDGE ( 'NONE', *, *, #79, .T. ) ;
#745 = DIRECTION ( 'NONE',  ( -1.000000000000000000, -0.000000000000000000, -0.000000000000000000 ) ) ;
#746 = EDGE_CURVE ( 'NONE', #1046, #344, #491, .T. ) ;
#747 = EDGE_CURVE ( 'NONE', #820, #776, #35, .T. ) ;
#748 = SHAPE_DEFINITION_REPRESENTATION ( #444, #537 ) ;
#749 = DIRECTION ( 'NONE',  ( -1.000000000000000000, 0.000000000000000000, 0.000000000000000000 ) ) ;
#750 = EDGE_LOOP ( 'NONE', ( #157, #1169, #10, #733, #1134 ) ) ;
#751 = CIRCLE ( 'NONE', #731, 0.4999999999999995559 ) ;
#752 = CIRCLE ( 'NONE', #576, 0.4999999999999995559 ) ;
#753 = CARTESIAN_POINT ( 'NONE',  ( -19.50000000000000000, 2.000000000000000000, 6.000000000000000000 ) ) ;
#754 = AXIS2_PLACEMENT_3D ( 'NONE', #903, #1010, #1003 ) ;
#755 = PRODUCT_DEFINITION_FORMATION_WITH_SPECIFIED_SOURCE ( 'ANY', '', #261, .NOT_KNOWN. ) ;
#756 = DIRECTION ( 'NONE',  ( 0.000000000000000000, 0.000000000000000000, 1.000000000000000000 ) ) ;
#757 = ORIENTED_EDGE ( 'NONE', *, *, #804, .T. ) ;
#758 = DIRECTION ( 'NONE',  ( 0.000000000000000000, 0.000000000000000000, -1.000000000000000000 ) ) ;
#759 = ORIENTED_EDGE ( 'NONE', *, *, #694, .F. ) ;
#760 = FACE_OUTER_BOUND ( 'NONE', #530, .T. ) ;
#761 = DIRECTION ( 'NONE',  ( -1.000000000000000000, 0.000000000000000000, 0.000000000000000000 ) ) ;
#762 = ORIENTED_EDGE ( 'NONE', *, *, #902, .F. ) ;
#763 = EDGE_CURVE ( 'NONE', #210, #985, #1148, .T. ) ;
#764 = DIRECTION ( 'NONE',  ( -0.000000000000000000, -1.000000000000000000, -0.000000000000000000 ) ) ;
#765 = CARTESIAN_POINT ( 'NONE',  ( 19.00000000000000355, 1.500000000000000222, 6.000000000000000000 ) ) ;
#766 = DIRECTION ( 'NONE',  ( -1.000000000000000000, 0.000000000000000000, 0.000000000000000000 ) ) ;
#767 = EDGE_CURVE ( 'NONE', #1137, #250, #29, .T. ) ;
#768 = ORIENTED_EDGE ( 'NONE', *, *, #1116, .T. ) ;
#769 = CIRCLE ( 'NONE', #391, 0.4999999999999995559 ) ;
#770 = AXIS2_PLACEMENT_3D ( 'NONE', #545, #56, #425 ) ;
#771 = CARTESIAN_POINT ( 'NONE',  ( 22.50000000000000000, 2.000000000000000000, -6.000000000000000000 ) ) ;
#772 = TOROIDAL_SURFACE ( 'NONE', #689, 4.275643679511808237, 0.5000000000000000000 ) ;
#773 = CARTESIAN_POINT ( 'NONE',  ( 19.00000000000000355, 1.500000000000000222, 6.000000000000000000 ) ) ;
#774 = DIRECTION ( 'NONE',  ( 0.000000000000000000, 0.000000000000000000, 1.000000000000000000 ) ) ;
#775 = DIRECTION ( 'NONE',  ( 0.000000000000000000, 0.000000000000000000, 1.000000000000000000 ) ) ;
#776 = VERTEX_POINT ( 'NONE', #233 ) ;
#777 = DIRECTION ( 'NONE',  ( 0.000000000000000000, -1.000000000000000000, 0.000000000000000000 ) ) ;
#778 = CARTESIAN_POINT ( 'NONE',  ( 17.50000000000000000, 1.500000000000000000, 6.000000000000000000 ) ) ;
#779 = ORIENTED_EDGE ( 'NONE', *, *, #763, .T. ) ;
#780 = EDGE_LOOP ( 'NONE', ( #470, #1018, #1102, #195 ) ) ;
#781 = LINE ( 'NONE', #953, #377 ) ;
#782 = ADVANCED_FACE ( 'NONE', ( #604 ), #979, .F. ) ;
#783 = DIRECTION ( 'NONE',  ( 0.000000000000000000, 0.000000000000000000, 1.000000000000000000 ) ) ;
#784 = ORIENTED_EDGE ( 'NONE', *, *, #1027, .F. ) ;
#785 = ORIENTED_EDGE ( 'NONE', *, *, #3, .T. ) ;
#786 = CARTESIAN_POINT ( 'NONE',  ( 21.50000000000000000, -2.000000000000000000, 4.999999999999999112 ) ) ;
#787 = AXIS2_PLACEMENT_3D ( 'NONE', #1042, #1023, #1038 ) ;
#788 = DIRECTION ( 'NONE',  ( 1.000000000000000000, 0.000000000000000000, 0.000000000000000000 ) ) ;
#789 = VECTOR ( 'NONE', #429, 1000.000000000000000 ) ;
#790 = PRESENTATION_LAYER_ASSIGNMENT (  '', '', ( #715 ) ) ;
#791 = ADVANCED_FACE ( 'NONE', ( #882 ), #51, .F. ) ;
#792 = VERTEX_POINT ( 'NONE', #358 ) ;
#793 = DIRECTION ( 'NONE',  ( -1.000000000000000000, 0.000000000000000000, 0.000000000000000000 ) ) ;
#794 = FACE_OUTER_BOUND ( 'NONE', #47, .T. ) ;
#795 = DIRECTION ( 'NONE',  ( 0.000000000000000000, 0.000000000000000000, 1.000000000000000000 ) ) ;
#796 = CARTESIAN_POINT ( 'NONE',  ( -17.00000000000000000, -1.334478334024252533, 3.803835902877495290 ) ) ;
#797 = EDGE_CURVE ( 'NONE', #985, #1056, #577, .T. ) ;
#798 = ORIENTED_EDGE ( 'NONE', *, *, #732, .T. ) ;
#799 = DIRECTION ( 'NONE',  ( -1.000000000000000000, 0.000000000000000000, 0.000000000000000000 ) ) ;
#800 = DIRECTION ( 'NONE',  ( 0.000000000000000000, 0.000000000000000000, 1.000000000000000000 ) ) ;
#801 = DIRECTION ( 'NONE',  ( 0.000000000000000000, 0.000000000000000000, -1.000000000000000000 ) ) ;
#802 = CARTESIAN_POINT ( 'NONE',  ( -22.50000000000000000, 2.000000000000000000, 6.000000000000000000 ) ) ;
#803 = EDGE_LOOP ( 'NONE', ( #556, #942 ) ) ;
#804 = EDGE_CURVE ( 'NONE', #683, #518, #727, .T. ) ;
#805 = CARTESIAN_POINT ( 'NONE',  ( 17.50000000000000000, 1.500000000000000000, 2.250000000000000000 ) ) ;
#806 = EDGE_CURVE ( 'NONE', #2, #1107, #847, .T. ) ;
#807 = VECTOR ( 'NONE', #899, 1000.000000000000000 ) ;
#808 = CYLINDRICAL_SURFACE ( 'NONE', #392, 1.500000000000001332 ) ;
#809 = AXIS2_PLACEMENT_3D ( 'NONE', #19, #702, #1068 ) ;
#810 = SURFACE_STYLE_FILL_AREA ( #65 ) ;
#811 = FACE_BOUND ( 'NONE', #628, .T. ) ;
#812 = ORIENTED_EDGE ( 'NONE', *, *, #484, .T. ) ;
#813 = ORIENTED_EDGE ( 'NONE', *, *, #797, .T. ) ;
#814 = CARTESIAN_POINT ( 'NONE',  ( 7.500000000000000000, -2.000000000000000000, 2.250000000000000000 ) ) ;
#815 = ADVANCED_FACE ( 'NONE', ( #165 ), #772, .T. ) ;
#816 = EDGE_CURVE ( 'NONE', #1008, #468, #251, .T. ) ;
#817 = DIRECTION ( 'NONE',  ( 0.000000000000000000, 1.000000000000000000, 0.000000000000000000 ) ) ;
#818 = FACE_OUTER_BOUND ( 'NONE', #83, .T. ) ;
#819 = DIRECTION ( 'NONE',  ( -1.000000000000000000, 0.000000000000000000, 0.000000000000000000 ) ) ;
#820 = VERTEX_POINT ( 'NONE', #525 ) ;
#821 = LINE ( 'NONE', #1019, #457 ) ;
#822 = CARTESIAN_POINT ( 'NONE',  ( -22.50000000000000000, -2.000000000000000000, -3.000000000000000000 ) ) ;
#823 = CARTESIAN_POINT ( 'NONE',  ( -17.00000000000000000, -1.500000000000000000, 0.000000000000000000 ) ) ;
#824 = VERTEX_POINT ( 'NONE', #69 ) ;
#825 = ORIENTED_EDGE ( 'NONE', *, *, #1020, .F. ) ;
#826 = CARTESIAN_POINT ( 'NONE',  ( 1.499999999999997780, 4.000000000000000000, -6.000000000000000000 ) ) ;
#827 = CARTESIAN_POINT ( 'NONE',  ( 0.4999999999999978351, 3.000000000000000000, 2.500000000000000444 ) ) ;
#828 = AXIS2_PLACEMENT_3D ( 'NONE', #1198, #176, #254 ) ;
#829 = AXIS2_PLACEMENT_3D ( 'NONE', #430, #424, #1195 ) ;
#830 = ORIENTED_EDGE ( 'NONE', *, *, #603, .F. ) ;
#831 = CARTESIAN_POINT ( 'NONE',  ( 0.4999999999999978351, 3.000000000000000000, -6.000000000000000000 ) ) ;
#832 = APPLICATION_PROTOCOL_DEFINITION ( 'draft international standard', 'automotive_design', 1998, #1194 ) ;
#833 = VERTEX_POINT ( 'NONE', #179 ) ;
#834 = ADVANCED_FACE ( 'NONE', ( #1175, #541, #534 ), #514, .T. ) ;
#835 = DIRECTION ( 'NONE',  ( 0.000000000000000000, 0.000000000000000000, -1.000000000000000000 ) ) ;
#836 = ORIENTED_EDGE ( 'NONE', *, *, #690, .F. ) ;
#837 = CARTESIAN_POINT ( 'NONE',  ( 2.500000000000005773, 5.000000000000000000, -6.000000000000000000 ) ) ;
#838 = DIRECTION ( 'NONE',  ( -1.000000000000000000, 0.000000000000000000, 0.000000000000000000 ) ) ;
#839 = ORIENTED_EDGE ( 'NONE', *, *, #980, .T. ) ;
#840 = CARTESIAN_POINT ( 'NONE',  ( -22.50000000000000000, -2.000000000000000000, -6.000000000000000000 ) ) ;
#841 = ORIENTED_EDGE ( 'NONE', *, *, #973, .F. ) ;
#842 = FACE_OUTER_BOUND ( 'NONE', #323, .T. ) ;
#843 = ORIENTED_EDGE ( 'NONE', *, *, #732, .F. ) ;
#844 = AXIS2_PLACEMENT_3D ( 'NONE', #441, #894, #61 ) ;
#845 = CIRCLE ( 'NONE', #829, 3.775643679511807793 ) ;
#846 = DIRECTION ( 'NONE',  ( 1.000000000000000000, 0.000000000000000000, 0.000000000000000000 ) ) ;
#847 = CIRCLE ( 'NONE', #754, 1.500000000000001332 ) ;
#848 = ADVANCED_FACE ( 'NONE', ( #1110 ), #639, .F. ) ;
#849 = CARTESIAN_POINT ( 'NONE',  ( 22.50000000000000000, 5.000000000000000000, 2.250000000000000000 ) ) ;
#850 = FACE_OUTER_BOUND ( 'NONE', #890, .T. ) ;
#851 = ORIENTED_EDGE ( 'NONE', *, *, #1007, .F. ) ;
#852 = CARTESIAN_POINT ( 'NONE',  ( 22.50000000000000000, 5.000000000000000000, -4.999999999999999112 ) ) ;
#853 = ADVANCED_FACE ( 'NONE', ( #737 ), #706, .F. ) ;
#854 = CARTESIAN_POINT ( 'NONE',  ( 7.500000000000000000, 2.000000000000000000, 2.250000000000000000 ) ) ;
#855 = CARTESIAN_POINT ( 'NONE',  ( -17.00000000000000000, 1.500000000000000000, 0.000000000000000000 ) ) ;
#856 = ORIENTED_EDGE ( 'NONE', *, *, #598, .T. ) ;
#857 = ORIENTED_EDGE ( 'NONE', *, *, #1064, .F. ) ;
#858 = DIRECTION ( 'NONE',  ( 0.000000000000000000, 0.000000000000000000, 1.000000000000000000 ) ) ;
#859 = CARTESIAN_POINT ( 'NONE',  ( -17.00000000000000000, -1.500000000000000000, 0.000000000000000000 ) ) ;
#860 = DIRECTION ( 'NONE',  ( 0.000000000000000000, 0.000000000000000000, 1.000000000000000000 ) ) ;
#861 = VERTEX_POINT ( 'NONE', #63 ) ;
#862 = EDGE_CURVE ( 'NONE', #1051, #1174, #624, .T. ) ;
#863 = VECTOR ( 'NONE', #982, 1000.000000000000000 ) ;
#864 = CARTESIAN_POINT ( 'NONE',  ( 17.50000000000000000, 1.500000000000000000, 6.000000000000000000 ) ) ;
#865 = VECTOR ( 'NONE', #84, 1000.000000000000000 ) ;
#866 = AXIS2_PLACEMENT_3D ( 'NONE', #859, #691, #1071 ) ;
#867 = CYLINDRICAL_SURFACE ( 'NONE', #884, 1.500000000000001332 ) ;
#868 = CARTESIAN_POINT ( 'NONE',  ( 16.00000000000000000, 1.500000000000000000, 6.000000000000000000 ) ) ;
#869 = VERTEX_POINT ( 'NONE', #722 ) ;
#870 = ORIENTED_EDGE ( 'NONE', *, *, #992, .F. ) ;
#871 = DIRECTION ( 'NONE',  ( 1.000000000000000000, 0.000000000000000000, 0.000000000000000000 ) ) ;
#872 = DIRECTION ( 'NONE',  ( -0.000000000000000000, -1.000000000000000000, -0.000000000000000000 ) ) ;
#873 = DIRECTION ( 'NONE',  ( 0.000000000000000000, 0.000000000000000000, -1.000000000000000000 ) ) ;
#874 = ORIENTED_EDGE ( 'NONE', *, *, #548, .T. ) ;
#875 = EDGE_LOOP ( 'NONE', ( #466, #679, #67, #714 ) ) ;
#876 = DIRECTION ( 'NONE',  ( 0.000000000000000000, 0.000000000000000000, -1.000000000000000000 ) ) ;
#877 = EDGE_CURVE ( 'NONE', #648, #1152, #821, .T. ) ;
#878 = DIRECTION ( 'NONE',  ( 0.000000000000000000, -1.000000000000000000, 0.000000000000000000 ) ) ;
#879 = FACE_OUTER_BOUND ( 'NONE', #397, .T. ) ;
#880 = DIRECTION ( 'NONE',  ( 1.000000000000000000, 0.000000000000000000, 1.224646799147353207E-16 ) ) ;
#881 = ORIENTED_EDGE ( 'NONE', *, *, #517, .F. ) ;
#882 = FACE_OUTER_BOUND ( 'NONE', #609, .T. ) ;
#883 = AXIS2_PLACEMENT_3D ( 'NONE', #1143, #502, #880 ) ;
#884 = AXIS2_PLACEMENT_3D ( 'NONE', #778, #954, #969 ) ;
#885 = CARTESIAN_POINT ( 'NONE',  ( 2.499999999999997780, 5.000000000000000000, 6.000000000000000000 ) ) ;
#886 = EDGE_CURVE ( 'NONE', #205, #17, #1204, .T. ) ;
#887 = CIRCLE ( 'NONE', #360, 1.000000000000000000 ) ;
#888 = CIRCLE ( 'NONE', #93, 1.500000000000001332 ) ;
#889 = EDGE_LOOP ( 'NONE', ( #62, #215, #265, #1048 ) ) ;
#890 = EDGE_LOOP ( 'NONE', ( #588, #1109, #762, #713 ) ) ;
#891 = DIRECTION ( 'NONE',  ( 0.000000000000000000, 0.000000000000000000, 1.000000000000000000 ) ) ;
#892 = LINE ( 'NONE', #728, #376 ) ;
#893 = EDGE_CURVE ( 'NONE', #740, #683, #1087, .T. ) ;
#894 = DIRECTION ( 'NONE',  ( 0.000000000000000000, -1.000000000000000000, 0.000000000000000000 ) ) ;
#895 = ORIENTED_EDGE ( 'NONE', *, *, #935, .F. ) ;
#896 = FACE_OUTER_BOUND ( 'NONE', #476, .T. ) ;
#897 = DIRECTION ( 'NONE',  ( 0.000000000000000000, 1.000000000000000000, 0.000000000000000000 ) ) ;
#898 = DIRECTION ( 'NONE',  ( 0.000000000000000000, -1.000000000000000000, 0.000000000000000000 ) ) ;
#899 = DIRECTION ( 'NONE',  ( 1.000000000000000000, 0.000000000000000000, 0.000000000000000000 ) ) ;
#900 = ORIENTED_EDGE ( 'NONE', *, *, #893, .F. ) ;
#901 = ORIENTED_EDGE ( 'NONE', *, *, #746, .T. ) ;
#902 = EDGE_CURVE ( 'NONE', #17, #205, #1129, .T. ) ;
#903 = CARTESIAN_POINT ( 'NONE',  ( 17.50000000000000000, 1.500000000000000000, -2.250000000000000444 ) ) ;
#904 = CARTESIAN_POINT ( 'NONE',  ( 10.49999999999999822, 1.500000000000000000, 6.000000000000000000 ) ) ;
#905 = VECTOR ( 'NONE', #878, 1000.000000000000000 ) ;
#906 = CARTESIAN_POINT ( 'NONE',  ( -22.50000000000000000, 2.000000000000000000, -3.000000000000000000 ) ) ;
#907 = DIRECTION ( 'NONE',  ( 0.000000000000000000, -0.000000000000000000, 1.000000000000000000 ) ) ;
#908 = CIRCLE ( 'NONE', #209, 3.803835902877494846 ) ;
#909 =( GEOMETRIC_REPRESENTATION_CONTEXT ( 3 ) GLOBAL_UNCERTAINTY_ASSIGNED_CONTEXT ( ( #568 ) ) GLOBAL_UNIT_ASSIGNED_CONTEXT ( ( #1185, #1083, #718 ) ) REPRESENTATION_CONTEXT ( 'NONE', 'WORKASPACE' ) );
#910 = ORIENTED_EDGE ( 'NONE', *, *, #99, .F. ) ;
#911 = ORIENTED_EDGE ( 'NONE', *, *, #675, .F. ) ;
#912 = CARTESIAN_POINT ( 'NONE',  ( 21.50000000000000000, 5.000000000000000000, -5.000000000000000000 ) ) ;
#913 = EDGE_CURVE ( 'NONE', #186, #293, #151, .T. ) ;
#914 = CARTESIAN_POINT ( 'NONE',  ( 10.49999999999999822, 1.500000000000000000, -6.000000000000000000 ) ) ;
#915 = CARTESIAN_POINT ( 'NONE',  ( 0.000000000000000000, 2.000000000000000000, 0.000000000000000000 ) ) ;
#916 = ORIENTED_EDGE ( 'NONE', *, *, #542, .F. ) ;
#917 = EDGE_LOOP ( 'NONE', ( #242, #836 ) ) ;
#918 = DIRECTION ( 'NONE',  ( -0.000000000000000000, -0.000000000000000000, -1.000000000000000000 ) ) ;
#919 = EDGE_CURVE ( 'NONE', #436, #824, #269, .T. ) ;
#920 = DIRECTION ( 'NONE',  ( 0.000000000000000000, 0.000000000000000000, -1.000000000000000000 ) ) ;
#921 = ORIENTED_EDGE ( 'NONE', *, *, #419, .F. ) ;
#922 = DIRECTION ( 'NONE',  ( -0.000000000000000000, 1.000000000000000000, -0.000000000000000000 ) ) ;
#923 = ADVANCED_FACE ( 'NONE', ( #896 ), #642, .F. ) ;
#924 = AXIS2_PLACEMENT_3D ( 'NONE', #474, #644, #658 ) ;
#925 = FACE_OUTER_BOUND ( 'NONE', #678, .T. ) ;
#926 = VECTOR ( 'NONE', #1209, 1000.000000000000000 ) ;
#927 = AXIS2_PLACEMENT_3D ( 'NONE', #536, #897, #234 ) ;
#928 = VERTEX_POINT ( 'NONE', #96 ) ;
#929 = AXIS2_PLACEMENT_3D ( 'NONE', #504, #326, #793 ) ;
#930 = DIRECTION ( 'NONE',  ( 0.000000000000000000, 1.000000000000000000, 0.000000000000000000 ) ) ;
#931 = VERTEX_POINT ( 'NONE', #477 ) ;
#932 = AXIS2_PLACEMENT_3D ( 'NONE', #1005, #167, #607 ) ;
#933 = DIRECTION ( 'NONE',  ( -0.000000000000000000, -0.000000000000000000, -1.000000000000000000 ) ) ;
#934 = ORIENTED_EDGE ( 'NONE', *, *, #36, .T. ) ;
#935 = EDGE_CURVE ( 'NONE', #8, #623, #908, .T. ) ;
#936 = CARTESIAN_POINT ( 'NONE',  ( -22.50000000000000000, 2.000000000000000000, -6.000000000000000000 ) ) ;
#937 = ORIENTED_EDGE ( 'NONE', *, *, #1098, .F. ) ;
#938 = DIRECTION ( 'NONE',  ( -0.000000000000000000, -0.000000000000000000, -1.000000000000000000 ) ) ;
#939 = VERTEX_POINT ( 'NONE', #201 ) ;
#940 = LINE ( 'NONE', #103, #415 ) ;
#941 = CARTESIAN_POINT ( 'NONE',  ( -17.00000000000000000, -1.500000000000000000, 4.275643679511808237 ) ) ;
#942 = ORIENTED_EDGE ( 'NONE', *, *, #806, .F. ) ;
#943 = AXIS2_PLACEMENT_3D ( 'NONE', #1173, #1112, #627 ) ;
#944 = CIRCLE ( 'NONE', #90, 1.500000000000001332 ) ;
#945 = DIRECTION ( 'NONE',  ( 0.000000000000000000, 0.000000000000000000, -1.000000000000000000 ) ) ;
#946 = AXIS2_PLACEMENT_3D ( 'NONE', #1041, #547, #15 ) ;
#947 = EDGE_CURVE ( 'NONE', #740, #931, #88, .T. ) ;
#948 = AXIS2_PLACEMENT_3D ( 'NONE', #855, #387, #956 ) ;
#949 = EDGE_CURVE ( 'NONE', #634, #210, #364, .T. ) ;
#950 = CARTESIAN_POINT ( 'NONE',  ( -17.00000000000000000, -2.000000000000000000, 0.000000000000000000 ) ) ;
#951 = EDGE_LOOP ( 'NONE', ( #1168, #237 ) ) ;
#952 = ORIENTED_EDGE ( 'NONE', *, *, #700, .F. ) ;
#953 = CARTESIAN_POINT ( 'NONE',  ( -22.50000000000000000, 2.000000000000000000, 6.000000000000000000 ) ) ;
#954 = DIRECTION ( 'NONE',  ( -0.000000000000000000, -0.000000000000000000, -1.000000000000000000 ) ) ;
#955 = EDGE_CURVE ( 'NONE', #449, #498, #940, .T. ) ;
#956 = DIRECTION ( 'NONE',  ( 0.000000000000000000, 0.000000000000000000, 1.000000000000000000 ) ) ;
#957 = ORIENTED_EDGE ( 'NONE', *, *, #154, .T. ) ;
#958 = ORIENTED_EDGE ( 'NONE', *, *, #517, .T. ) ;
#959 = APPLICATION_CONTEXT ( 'automotive_design' ) ;
#960 = FACE_OUTER_BOUND ( 'NONE', #546, .T. ) ;
#961 = FACE_OUTER_BOUND ( 'NONE', #1060, .T. ) ;
#962 = ADVANCED_FACE ( 'NONE', ( #1125, #567 ), #1, .F. ) ;
#963 = EDGE_CURVE ( 'NONE', #928, #121, #204, .T. ) ;
#964 = CARTESIAN_POINT ( 'NONE',  ( 22.50001199999999812, -2.000000000000000000, -2.250000000000000000 ) ) ;
#965 = ORIENTED_EDGE ( 'NONE', *, *, #154, .F. ) ;
#966 = VECTOR ( 'NONE', #20, 1000.000000000000000 ) ;
#967 = CARTESIAN_POINT ( 'NONE',  ( 10.49999999999999822, 1.500000000000000000, -2.250000000000000444 ) ) ;
#968 = AXIS2_PLACEMENT_3D ( 'NONE', #912, #519, #1117 ) ;
#969 = DIRECTION ( 'NONE',  ( -1.000000000000000000, 0.000000000000000000, 0.000000000000000000 ) ) ;
#970 = CARTESIAN_POINT ( 'NONE',  ( 22.50000000000000000, -2.000000000000000000, -2.250000000000000000 ) ) ;
#971 = CARTESIAN_POINT ( 'NONE',  ( -17.00000000000000000, 1.334478334024252533, 0.000000000000000000 ) ) ;
#972 = ORIENTED_EDGE ( 'NONE', *, *, #12, .F. ) ;
#973 = EDGE_CURVE ( 'NONE', #142, #1192, #651, .T. ) ;
#974 = DIRECTION ( 'NONE',  ( 0.000000000000000000, 0.000000000000000000, -1.000000000000000000 ) ) ;
#975 = CARTESIAN_POINT ( 'NONE',  ( 22.50000000000000000, 2.000000000000000000, 2.250000000000000444 ) ) ;
#976 = CARTESIAN_POINT ( 'NONE',  ( 22.50001199999999812, -2.000000000000000000, 2.250000000000000000 ) ) ;
#977 = DIRECTION ( 'NONE',  ( 0.000000000000000000, 0.000000000000000000, 1.000000000000000000 ) ) ;
#978 = ORIENTED_EDGE ( 'NONE', *, *, #446, .T. ) ;
#979 = CYLINDRICAL_SURFACE ( 'NONE', #929, 1.500000000000001332 ) ;
#980 = EDGE_CURVE ( 'NONE', #820, #384, #1016, .T. ) ;
#981 = EDGE_CURVE ( 'NONE', #142, #518, #887, .T. ) ;
#982 = DIRECTION ( 'NONE',  ( -0.000000000000000000, -0.000000000000000000, -1.000000000000000000 ) ) ;
#983 = DIRECTION ( 'NONE',  ( 0.000000000000000000, 1.000000000000000000, 0.000000000000000000 ) ) ;
#984 = LINE ( 'NONE', #964, #1144 ) ;
#985 = VERTEX_POINT ( 'NONE', #852 ) ;
#986 = DIRECTION ( 'NONE',  ( -0.000000000000000000, 0.000000000000000000, -1.000000000000000000 ) ) ;
#987 = AXIS2_PLACEMENT_3D ( 'NONE', #198, #920, #838 ) ;
#988 = EDGE_CURVE ( 'NONE', #931, #1114, #1052, .T. ) ;
#989 = CIRCLE ( 'NONE', #809, 1.000000000000000000 ) ;
#990 = CARTESIAN_POINT ( 'NONE',  ( 2.499999999999997780, 4.000000000000000000, 0.000000000000000000 ) ) ;
#991 = VECTOR ( 'NONE', #1036, 1000.000000000000000 ) ;
#992 = EDGE_CURVE ( 'NONE', #1107, #325, #368, .T. ) ;
#993 = AXIS2_PLACEMENT_3D ( 'NONE', #501, #1105, #697 ) ;
#994 = PLANE ( 'NONE',  #170 ) ;
#995 = ORIENTED_EDGE ( 'NONE', *, *, #598, .F. ) ;
#996 = ORIENTED_EDGE ( 'NONE', *, *, #935, .T. ) ;
#997 = CARTESIAN_POINT ( 'NONE',  ( 10.49999999999999822, 1.500000000000000000, 6.000000000000000000 ) ) ;
#998 = CARTESIAN_POINT ( 'NONE',  ( -17.00000000000000000, 1.500000000000000000, 4.275643679511808237 ) ) ;
#999 = CARTESIAN_POINT ( 'NONE',  ( 7.500000000000000000, -2.000000000000000000, -2.250000000000000000 ) ) ;
#1000 = FACE_OUTER_BOUND ( 'NONE', #524, .T. ) ;
#1001 = ORIENTED_EDGE ( 'NONE', *, *, #542, .T. ) ;
#1002 = ORIENTED_EDGE ( 'NONE', *, *, #806, .T. ) ;
#1003 = DIRECTION ( 'NONE',  ( 1.000000000000000000, 0.000000000000000000, 0.000000000000000000 ) ) ;
#1004 = DIRECTION ( 'NONE',  ( -1.000000000000000000, 0.000000000000000000, 0.000000000000000000 ) ) ;
#1005 = CARTESIAN_POINT ( 'NONE',  ( -17.00000000000000000, 1.500000000000000000, 0.000000000000000000 ) ) ;
#1006 = CARTESIAN_POINT ( 'NONE',  ( -17.00000000000000000, 1.334478334024252533, 3.803835902877495290 ) ) ;
#1007 = EDGE_CURVE ( 'NONE', #602, #158, #465, .T. ) ;
#1008 = VERTEX_POINT ( 'NONE', #753 ) ;
#1009 = ORIENTED_EDGE ( 'NONE', *, *, #767, .T. ) ;
#1010 = DIRECTION ( 'NONE',  ( 0.000000000000000000, 0.000000000000000000, 1.000000000000000000 ) ) ;
#1011 = CIRCLE ( 'NONE', #987, 1.500000000000001332 ) ;
#1012 = DIRECTION ( 'NONE',  ( 0.000000000000000000, 1.000000000000000000, 0.000000000000000000 ) ) ;
#1013 = AXIS2_PLACEMENT_3D ( 'NONE', #677, #313, #496 ) ;
#1014 =( NAMED_UNIT ( * ) SI_UNIT ( $, .STERADIAN. ) SOLID_ANGLE_UNIT ( ) );
#1015 = DIRECTION ( 'NONE',  ( -1.000000000000000000, 0.000000000000000000, 0.000000000000000000 ) ) ;
#1016 = CIRCLE ( 'NONE', #473, 1.000000000000000000 ) ;
#1017 = EDGE_LOOP ( 'NONE', ( #916, #584, #965, #1063 ) ) ;
#1018 = ORIENTED_EDGE ( 'NONE', *, *, #700, .T. ) ;
#1019 = CARTESIAN_POINT ( 'NONE',  ( 12.00000000000000000, 1.500000000000000222, 6.000000000000000000 ) ) ;
#1020 = EDGE_CURVE ( 'NONE', #776, #1192, #1131, .T. ) ;
#1021 = DIRECTION ( 'NONE',  ( 0.000000000000000000, 1.000000000000000000, 0.000000000000000000 ) ) ;
#1022 = VERTEX_POINT ( 'NONE', #646 ) ;
#1023 = DIRECTION ( 'NONE',  ( -1.000000000000000000, 0.000000000000000000, 0.000000000000000000 ) ) ;
#1024 = EDGE_LOOP ( 'NONE', ( #102, #596, #453, #957, #851, #597, #75, #839, #407, #379, #277, #1039 ) ) ;
#1025 = FACE_OUTER_BOUND ( 'NONE', #721, .T. ) ;
#1026 = ORIENTED_EDGE ( 'NONE', *, *, #603, .T. ) ;
#1027 = EDGE_CURVE ( 'NONE', #461, #250, #558, .T. ) ;
#1028 = CIRCLE ( 'NONE', #488, 3.803835902877494846 ) ;
#1029 = APPLICATION_PROTOCOL_DEFINITION ( 'draft international standard', 'automotive_design', 1998, #959 ) ;
#1030 = CARTESIAN_POINT ( 'NONE',  ( 17.50000000000000000, 1.500000000000000000, 6.000000000000000000 ) ) ;
#1031 = ADVANCED_FACE ( 'NONE', ( #111 ), #557, .T. ) ;
#1032 = VECTOR ( 'NONE', #439, 1000.000000000000000 ) ;
#1033 = AXIS2_PLACEMENT_3D ( 'NONE', #408, #777, #143 ) ;
#1034 = ORIENTED_EDGE ( 'NONE', *, *, #893, .T. ) ;
#1035 = TOROIDAL_SURFACE ( 'NONE', #932, 4.275643679511808237, 0.5000000000000000000 ) ;
#1036 = DIRECTION ( 'NONE',  ( -0.000000000000000000, -0.000000000000000000, -1.000000000000000000 ) ) ;
#1037 = ORIENTED_EDGE ( 'NONE', *, *, #763, .F. ) ;
#1038 = DIRECTION ( 'NONE',  ( 0.000000000000000000, 0.000000000000000000, 1.000000000000000000 ) ) ;
#1039 = ORIENTED_EDGE ( 'NONE', *, *, #1121, .F. ) ;
#1040 = ADVANCED_FACE ( 'NONE', ( #275 ), #712, .T. ) ;
#1041 = CARTESIAN_POINT ( 'NONE',  ( -22.50000000000000000, 2.000000000000000000, -6.000000000000000000 ) ) ;
#1042 = CARTESIAN_POINT ( 'NONE',  ( -17.00000000000000000, -1.500000000000000000, 4.275643679511808237 ) ) ;
#1043 = ORIENTED_EDGE ( 'NONE', *, *, #451, .T. ) ;
#1044 = ADVANCED_FACE ( 'NONE', ( #1025 ), #224, .F. ) ;
#1045 = CARTESIAN_POINT ( 'NONE',  ( -19.50000000000000000, 2.000000000000000000, -6.000000000000000000 ) ) ;
#1046 = VERTEX_POINT ( 'NONE', #868 ) ;
#1047 = FACE_OUTER_BOUND ( 'NONE', #780, .T. ) ;
#1048 = ORIENTED_EDGE ( 'NONE', *, *, #862, .T. ) ;
#1049 = CIRCLE ( 'NONE', #266, 3.775643679511807793 ) ;
#1050 = AXIS2_PLACEMENT_3D ( 'NONE', #133, #872, #783 ) ;
#1051 = VERTEX_POINT ( 'NONE', #1142 ) ;
#1052 = CIRCLE ( 'NONE', #299, 1.000000000000000000 ) ;
#1053 = MECHANICAL_DESIGN_GEOMETRIC_PRESENTATION_REPRESENTATION (  '', ( #715 ), #909 ) ;
#1054 = LINE ( 'NONE', #765, #687 ) ;
#1055 = ORIENTED_EDGE ( 'NONE', *, *, #419, .T. ) ;
#1056 = VERTEX_POINT ( 'NONE', #32 ) ;
#1057 = DIRECTION ( 'NONE',  ( -0.000000000000000000, -0.000000000000000000, -1.000000000000000000 ) ) ;
#1058 = CARTESIAN_POINT ( 'NONE',  ( -17.00000000000000000, 1.500000000000000000, 3.775643679511807793 ) ) ;
#1059 = VERTEX_POINT ( 'NONE', #970 ) ;
#1060 = EDGE_LOOP ( 'NONE', ( #1130, #1156, #284, #911 ) ) ;
#1061 = CARTESIAN_POINT ( 'NONE',  ( 1.499999999999997780, 4.000000000000000000, -6.000000000000000000 ) ) ;
#1062 = DIRECTION ( 'NONE',  ( -0.000000000000000000, -0.000000000000000000, -1.000000000000000000 ) ) ;
#1063 = ORIENTED_EDGE ( 'NONE', *, *, #816, .F. ) ;
#1064 = EDGE_CURVE ( 'NONE', #1056, #659, #13, .T. ) ;
#1065 = ORIENTED_EDGE ( 'NONE', *, *, #797, .F. ) ;
#1066 = CIRCLE ( 'NONE', #21, 1.500000000000001332 ) ;
#1067 = VECTOR ( 'NONE', #160, 1000.000000000000000 ) ;
#1068 = DIRECTION ( 'NONE',  ( -1.000000000000000000, -1.734723475976807094E-15, 0.000000000000000000 ) ) ;
#1069 = VECTOR ( 'NONE', #764, 1000.000000000000000 ) ;
#1070 = CARTESIAN_POINT ( 'NONE',  ( 21.49999999999998579, -2.000000000000000000, 6.000000000000000000 ) ) ;
#1071 = DIRECTION ( 'NONE',  ( 0.000000000000000000, 0.000000000000000000, 1.000000000000000000 ) ) ;
#1072 = CARTESIAN_POINT ( 'NONE',  ( -19.50000000000000000, -2.000000000000000000, -3.000000000000000000 ) ) ;
#1073 = ADVANCED_FACE ( 'NONE', ( #475 ), #298, .T. ) ;
#1074 = ORIENTED_EDGE ( 'NONE', *, *, #294, .T. ) ;
#1075 = CARTESIAN_POINT ( 'NONE',  ( -17.00000000000000000, -1.500000000000000000, 3.775643679511807793 ) ) ;
#1076 = CARTESIAN_POINT ( 'NONE',  ( -19.50000000000000000, -2.000000000000000000, 6.000000000000000000 ) ) ;
#1077 = CARTESIAN_POINT ( 'NONE',  ( -17.00000000000000000, 1.500000000000000000, 0.000000000000000000 ) ) ;
#1078 = CARTESIAN_POINT ( 'NONE',  ( -17.00000000000000000, 1.500000000000000000, 0.000000000000000000 ) ) ;
#1079 = VERTEX_POINT ( 'NONE', #39 ) ;
#1080 = ADVANCED_FACE ( 'NONE', ( #850 ), #246, .T. ) ;
#1081 = SPHERICAL_SURFACE ( 'NONE', #268, 4.031128874149273678 ) ;
#1082 = DIRECTION ( 'NONE',  ( -0.000000000000000000, -0.000000000000000000, -1.000000000000000000 ) ) ;
#1083 =( NAMED_UNIT ( * ) PLANE_ANGLE_UNIT ( ) SI_UNIT ( $, .RADIAN. ) );
#1084 = CARTESIAN_POINT ( 'NONE',  ( -22.50000000000000000, 2.000000000000000000, 3.000000000000000888 ) ) ;
#1085 = EDGE_LOOP ( 'NONE', ( #1065, #726, #448, #1095 ) ) ;
#1086 = CIRCLE ( 'NONE', #668, 1.500000000000001332 ) ;
#1087 = LINE ( 'NONE', #826, #789 ) ;
#1088 = VECTOR ( 'NONE', #327, 1000.000000000000000 ) ;
#1089 = AXIS2_PLACEMENT_3D ( 'NONE', #572, #945, #1208 ) ;
#1090 = DIRECTION ( 'NONE',  ( -1.000000000000000000, 0.000000000000000000, 0.000000000000000000 ) ) ;
#1091 = AXIS2_PLACEMENT_3D ( 'NONE', #243, #617, #159 ) ;
#1092 = LINE ( 'NONE', #253, #301 ) ;
#1093 = VECTOR ( 'NONE', #761, 1000.000000000000000 ) ;
#1094 = FACE_OUTER_BOUND ( 'NONE', #1115, .T. ) ;
#1095 = ORIENTED_EDGE ( 'NONE', *, *, #505, .F. ) ;
#1096 = DIRECTION ( 'NONE',  ( 0.000000000000000000, -1.000000000000000000, 0.000000000000000000 ) ) ;
#1097 = LINE ( 'NONE', #72, #1032 ) ;
#1098 = EDGE_CURVE ( 'NONE', #824, #369, #340, .T. ) ;
#1099 = LINE ( 'NONE', #343, #4 ) ;
#1100 = EDGE_CURVE ( 'NONE', #833, #648, #559, .T. ) ;
#1101 = ORIENTED_EDGE ( 'NONE', *, *, #1007, .T. ) ;
#1102 = ORIENTED_EDGE ( 'NONE', *, *, #963, .T. ) ;
#1103 = DIRECTION ( 'NONE',  ( 0.000000000000000000, 0.000000000000000000, -1.000000000000000000 ) ) ;
#1104 = DIRECTION ( 'NONE',  ( 0.000000000000000000, 1.000000000000000000, 0.000000000000000000 ) ) ;
#1105 = DIRECTION ( 'NONE',  ( 0.000000000000000000, -1.000000000000000000, 0.000000000000000000 ) ) ;
#1106 = DIRECTION ( 'NONE',  ( 0.000000000000000000, 1.000000000000000000, 0.000000000000000000 ) ) ;
#1107 = VERTEX_POINT ( 'NONE', #348 ) ;
#1108 = ADVANCED_FACE ( 'NONE', ( #818 ), #53, .T. ) ;
#1109 = ORIENTED_EDGE ( 'NONE', *, *, #404, .F. ) ;
#1110 = FACE_OUTER_BOUND ( 'NONE', #385, .T. ) ;
#1111 = AXIS2_PLACEMENT_3D ( 'NONE', #1203, #550, #101 ) ;
#1112 = DIRECTION ( 'NONE',  ( 0.000000000000000000, 1.000000000000000000, 0.000000000000000000 ) ) ;
#1113 = AXIS2_PLACEMENT_3D ( 'NONE', #771, #353, #339 ) ;
#1114 = VERTEX_POINT ( 'NONE', #626 ) ;
#1115 = EDGE_LOOP ( 'NONE', ( #199, #684, #622, #503, #291, #113, #311, #540 ) ) ;
#1116 = EDGE_CURVE ( 'NONE', #518, #931, #1092, .T. ) ;
#1117 = DIRECTION ( 'NONE',  ( 0.000000000000000000, 0.000000000000000000, 1.000000000000000000 ) ) ;
#1118 = CARTESIAN_POINT ( 'NONE',  ( 16.00000000000000000, 1.500000000000000000, -6.000000000000000000 ) ) ;
#1119 = ORIENTED_EDGE ( 'NONE', *, *, #1064, .T. ) ;
#1120 = DIRECTION ( 'NONE',  ( 0.000000000000000000, 0.000000000000000000, 1.000000000000000000 ) ) ;
#1121 = EDGE_CURVE ( 'NONE', #121, #1051, #259, .T. ) ;
#1122 = CARTESIAN_POINT ( 'NONE',  ( 7.500000000000000000, 2.000000000000000000, -2.250000000000000000 ) ) ;
#1123 = CARTESIAN_POINT ( 'NONE',  ( -17.00000000000000000, 0.000000000000000000, 0.000000000000000000 ) ) ;
#1124 = ORIENTED_EDGE ( 'NONE', *, *, #294, .F. ) ;
#1125 = FACE_BOUND ( 'NONE', #551, .T. ) ;
#1126 = CIRCLE ( 'NONE', #49, 3.000000000000000000 ) ;
#1127 = CARTESIAN_POINT ( 'NONE',  ( 19.00000000000000355, 1.500000000000000222, -6.000000000000000000 ) ) ;
#1128 = CIRCLE ( 'NONE', #1145, 3.775643679511807793 ) ;
#1129 = CIRCLE ( 'NONE', #594, 4.275643679511808237 ) ;
#1130 = ORIENTED_EDGE ( 'NONE', *, *, #304, .F. ) ;
#1131 = LINE ( 'NONE', #1045, #395 ) ;
#1132 = DIRECTION ( 'NONE',  ( -0.000000000000000000, -0.000000000000000000, -1.000000000000000000 ) ) ;
#1133 = EDGE_CURVE ( 'NONE', #869, #357, #579, .T. ) ;
#1134 = ORIENTED_EDGE ( 'NONE', *, *, #245, .T. ) ;
#1135 = DIRECTION ( 'NONE',  ( 0.000000000000000000, 0.000000000000000000, 1.000000000000000000 ) ) ;
#1136 = PRODUCT_DEFINITION_CONTEXT ( 'detailed design', #1194, 'design' ) ;
#1137 = VERTEX_POINT ( 'NONE', #1190 ) ;
#1138 = DIRECTION ( 'NONE',  ( 0.000000000000000000, 0.000000000000000000, 1.000000000000000000 ) ) ;
#1139 = ORIENTED_EDGE ( 'NONE', *, *, #25, .F. ) ;
#1140 = ORIENTED_EDGE ( 'NONE', *, *, #586, .F. ) ;
#1141 = CARTESIAN_POINT ( 'NONE',  ( 8.999999999999998224, 1.500000000000000000, 6.000000000000000000 ) ) ;
#1142 = CARTESIAN_POINT ( 'NONE',  ( 7.500000000000000000, -2.000000000000000000, 2.250000000000000000 ) ) ;
#1143 = CARTESIAN_POINT ( 'NONE',  ( -17.00000000000000000, 0.000000000000000000, 0.000000000000000000 ) ) ;
#1144 = VECTOR ( 'NONE', #766, 1000.000000000000000 ) ;
#1145 = AXIS2_PLACEMENT_3D ( 'NONE', #44, #409, #858 ) ;
#1146 = ORIENTED_EDGE ( 'NONE', *, *, #120, .F. ) ;
#1147 = AXIS2_PLACEMENT_3D ( 'NONE', #59, #171, #450 ) ;
#1148 = LINE ( 'NONE', #482, #512 ) ;
#1149 = VECTOR ( 'NONE', #898, 1000.000000000000000 ) ;
#1150 = CYLINDRICAL_SURFACE ( 'NONE', #226, 1.500000000000001332 ) ;
#1151 = ORIENTED_EDGE ( 'NONE', *, *, #1116, .F. ) ;
#1152 = VERTEX_POINT ( 'NONE', #710 ) ;
#1153 = DIRECTION ( 'NONE',  ( 1.000000000000000000, 0.000000000000000000, 0.000000000000000000 ) ) ;
#1154 = PLANE ( 'NONE',  #1013 ) ;
#1155 = DIRECTION ( 'NONE',  ( 0.000000000000000000, 0.000000000000000000, -1.000000000000000000 ) ) ;
#1156 = ORIENTED_EDGE ( 'NONE', *, *, #363, .T. ) ;
#1157 = DIRECTION ( 'NONE',  ( -0.000000000000000000, -1.000000000000000000, -0.000000000000000000 ) ) ;
#1158 = FACE_OUTER_BOUND ( 'NONE', #396, .T. ) ;
#1159 = ORIENTED_EDGE ( 'NONE', *, *, #746, .F. ) ;
#1160 = EDGE_LOOP ( 'NONE', ( #497, #825, #1139, #562 ) ) ;
#1161 = VECTOR ( 'NONE', #1186, 1000.000000000000000 ) ;
#1162 = AXIS2_PLACEMENT_3D ( 'NONE', #618, #1104, #800 ) ;
#1163 = DIRECTION ( 'NONE',  ( -0.000000000000000000, -0.000000000000000000, -1.000000000000000000 ) ) ;
#1164 = AXIS2_PLACEMENT_3D ( 'NONE', #864, #599, #320 ) ;
#1165 = VECTOR ( 'NONE', #140, 1000.000000000000000 ) ;
#1166 = CARTESIAN_POINT ( 'NONE',  ( 8.999999999999998224, 1.500000000000000000, -6.000000000000000000 ) ) ;
#1167 = ADVANCED_FACE ( 'NONE', ( #879 ), #1035, .T. ) ;
#1168 = ORIENTED_EDGE ( 'NONE', *, *, #902, .T. ) ;
#1169 = ORIENTED_EDGE ( 'NONE', *, *, #350, .F. ) ;
#1170 = DIRECTION ( 'NONE',  ( 1.000000000000000000, 0.000000000000000000, 0.000000000000000000 ) ) ;
#1171 = CYLINDRICAL_SURFACE ( 'NONE', #208, 1.000000000000000000 ) ;
#1172 = SURFACE_STYLE_USAGE ( .BOTH. , #55 ) ;
#1173 = CARTESIAN_POINT ( 'NONE',  ( 0.000000000000000000, 5.000000000000000000, 0.000000000000000000 ) ) ;
#1174 = VERTEX_POINT ( 'NONE', #999 ) ;
#1175 = FACE_BOUND ( 'NONE', #352, .T. ) ;
#1176 = DIRECTION ( 'NONE',  ( 0.000000000000000000, -1.000000000000000000, 0.000000000000000000 ) ) ;
#1177 = DIRECTION ( 'NONE',  ( 0.000000000000000000, 1.000000000000000000, 0.000000000000000000 ) ) ;
#1178 = FACE_BOUND ( 'NONE', #951, .T. ) ;
#1179 = VERTEX_POINT ( 'NONE', #724 ) ;
#1180 = EDGE_LOOP ( 'NONE', ( #388, #434, #493, #870 ) ) ;
#1181 = VECTOR ( 'NONE', #933, 1000.000000000000000 ) ;
#1182 = CARTESIAN_POINT ( 'NONE',  ( 17.50000000000000000, 1.500000000000000000, 6.000000000000000000 ) ) ;
#1183 = AXIS2_PLACEMENT_3D ( 'NONE', #399, #1153, #974 ) ;
#1184 = DIRECTION ( 'NONE',  ( -0.000000000000000000, -0.000000000000000000, -1.000000000000000000 ) ) ;
#1185 =( LENGTH_UNIT ( ) NAMED_UNIT ( * ) SI_UNIT ( .MILLI., .METRE. ) );
#1186 = DIRECTION ( 'NONE',  ( -0.000000000000000000, 1.000000000000000000, -0.000000000000000000 ) ) ;
#1187 = ORIENTED_EDGE ( 'NONE', *, *, #494, .F. ) ;
#1188 = CARTESIAN_POINT ( 'NONE',  ( -17.00000000000000000, -1.500000000000000000, 0.000000000000000000 ) ) ;
#1189 = ADVANCED_FACE ( 'NONE', ( #248 ), #521, .T. ) ;
#1190 = CARTESIAN_POINT ( 'NONE',  ( 12.00000000000000000, 1.500000000000000222, -2.250000000000000444 ) ) ;
#1191 = PLANE ( 'NONE',  #828 ) ;
#1192 = VERTEX_POINT ( 'NONE', #155 ) ;
#1193 = DIRECTION ( 'NONE',  ( 0.000000000000000000, 0.000000000000000000, 1.000000000000000000 ) ) ;
#1194 = APPLICATION_CONTEXT ( 'automotive_design' ) ;
#1195 = DIRECTION ( 'NONE',  ( 0.000000000000000000, 0.000000000000000000, 1.000000000000000000 ) ) ;
#1196 =( NAMED_UNIT ( * ) PLANE_ANGLE_UNIT ( ) SI_UNIT ( $, .RADIAN. ) );
#1197 = EDGE_CURVE ( 'NONE', #1107, #2, #888, .T. ) ;
#1198 = CARTESIAN_POINT ( 'NONE',  ( 7.500000000000000000, 0.000000000000000000, 0.000000000000000000 ) ) ;
#1199 = ORIENTED_EDGE ( 'NONE', *, *, #643, .F. ) ;
#1200 = CARTESIAN_POINT ( 'NONE',  ( -17.00000000000000000, 2.000000000000000000, 0.000000000000000000 ) ) ;
#1201 = AXIS2_PLACEMENT_3D ( 'NONE', #413, #300, #698 ) ;
#1202 = AXIS2_PLACEMENT_3D ( 'NONE', #998, #703, #625 ) ;
#1203 = CARTESIAN_POINT ( 'NONE',  ( 10.49999999999999822, 1.500000000000000000, 2.250000000000000000 ) ) ;
#1204 = CIRCLE ( 'NONE', #1147, 4.275643679511808237 ) ;
#1205 = EDGE_CURVE ( 'NONE', #2, #228, #46, .T. ) ;
#1206 = ORIENTED_EDGE ( 'NONE', *, *, #45, .T. ) ;
#1207 = EDGE_CURVE ( 'NONE', #416, #602, #440, .T. ) ;
#1208 = DIRECTION ( 'NONE',  ( -1.000000000000000000, 0.000000000000000000, 0.000000000000000000 ) ) ;
#1209 = DIRECTION ( 'NONE',  ( -0.000000000000000000, 1.000000000000000000, -0.000000000000000000 ) ) ;
#1210 = FACE_OUTER_BOUND ( 'NONE', #1180, .T. ) ;
#1211 = ORIENTED_EDGE ( 'NONE', *, *, #569, .F. ) ;
#1212 = DIRECTION ( 'NONE',  ( -0.000000000000000000, -1.000000000000000000, -0.000000000000000000 ) ) ;
#1213 = MANIFOLD_SOLID_BREP ( 'Fillet18', #454 ) ;
#1214 = CARTESIAN_POINT ( 'NONE',  ( -17.00000000000000000, 0.000000000000000000, 0.000000000000000000 ) ) ;
#1215 = ORIENTED_EDGE ( 'NONE', *, *, #747, .T. ) ;
ENDSEC;
END-ISO-10303-21;
