ISO-10303-21;
HEADER;
FILE_DESCRIPTION (( 'STEP AP214' ),
    '1' );
FILE_NAME ('Steering Servo Arm #2.STEP',
    '2026-05-08T14:30:49',
    ( '' ),
    ( '' ),
    'SwSTEP 2.0',
    'SolidWorks 2026',
    '' );
FILE_SCHEMA (( 'AUTOMOTIVE_DESIGN' ));
ENDSEC;

DATA;
#1 = CARTESIAN_POINT ( 'NONE',  ( 28.00000000000000000, 4.000000000000000000, 0.000000000000000000 ) ) ;
#2 = DIRECTION ( 'NONE',  ( 0.000000000000000000, 0.000000000000000000, 1.000000000000000000 ) ) ;
#3 = DIRECTION ( 'NONE',  ( 0.000000000000000000, -1.224646799147353454E-16, 1.000000000000000000 ) ) ;
#4 = VERTEX_POINT ( 'NONE', #14 ) ;
#5 = ORIENTED_EDGE ( 'NONE', *, *, #681, .F. ) ;
#6 = CIRCLE ( 'NONE', #621, 4.275643679511810014 ) ;
#7 = DIRECTION ( 'NONE',  ( 0.000000000000000000, 0.000000000000000000, 1.000000000000000000 ) ) ;
#8 = DIRECTION ( 'NONE',  ( 0.000000000000000000, -1.000000000000000000, 0.000000000000000000 ) ) ;
#9 = VERTEX_POINT ( 'NONE', #416 ) ;
#10 = ORIENTED_EDGE ( 'NONE', *, *, #545, .F. ) ;
#11 = DIRECTION ( 'NONE',  ( 0.000000000000000000, 0.000000000000000000, 1.000000000000000000 ) ) ;
#12 = EDGE_CURVE ( 'NONE', #170, #633, #855, .T. ) ;
#13 = CARTESIAN_POINT ( 'NONE',  ( -12.00000000000000000, 4.000000000000000000, 1.999999999999999556 ) ) ;
#14 = CARTESIAN_POINT ( 'NONE',  ( -16.00000000000000000, 0.000000000000000000, -1.999999999999999112 ) ) ;
#15 = SURFACE_STYLE_USAGE ( .BOTH. , #429 ) ;
#16 = CIRCLE ( 'NONE', #635, 1.500000000000000666 ) ;
#17 = VECTOR ( 'NONE', #709, 1000.000000000000000 ) ;
#18 = LINE ( 'NONE', #790, #258 ) ;
#19 = CARTESIAN_POINT ( 'NONE',  ( -9.999999999999998224, 2.000000000000000000, 0.000000000000000000 ) ) ;
#20 = ORIENTED_EDGE ( 'NONE', *, *, #929, .T. ) ;
#21 = AXIS2_PLACEMENT_3D ( 'NONE', #1058, #1046, #279 ) ;
#22 = VECTOR ( 'NONE', #283, 1000.000000000000000 ) ;
#23 = DIRECTION ( 'NONE',  ( -0.000000000000000000, -1.000000000000000000, -1.224646799147353454E-16 ) ) ;
#24 = CARTESIAN_POINT ( 'NONE',  ( -9.999999999999998224, 3.500000000000000000, 3.775643679511809570 ) ) ;
#25 = VERTEX_POINT ( 'NONE', #99 ) ;
#26 = FACE_OUTER_BOUND ( 'NONE', #965, .T. ) ;
#27 = DIRECTION ( 'NONE',  ( 0.000000000000000000, -1.000000000000000000, 0.000000000000000000 ) ) ;
#28 = DIRECTION ( 'NONE',  ( -0.000000000000000000, 1.000000000000000000, -0.000000000000000000 ) ) ;
#29 = EDGE_CURVE ( 'NONE', #844, #988, #661, .T. ) ;
#30 = EDGE_CURVE ( 'NONE', #785, #25, #1008, .T. ) ;
#31 = TOROIDAL_SURFACE ( 'NONE', #171, 4.275643679511810014, 0.5000000000000000000 ) ;
#32 = DIRECTION ( 'NONE',  ( -0.000000000000000000, 1.000000000000000000, -0.000000000000000000 ) ) ;
#33 = AXIS2_PLACEMENT_3D ( 'NONE', #846, #592, #1091 ) ;
#34 = DIRECTION ( 'NONE',  ( 0.000000000000000000, 0.000000000000000000, -1.000000000000000000 ) ) ;
#35 = CIRCLE ( 'NONE', #195, 1.000000000000000000 ) ;
#36 = DIRECTION ( 'NONE',  ( 0.000000000000000000, 0.000000000000000000, -1.000000000000000000 ) ) ;
#37 = AXIS2_PLACEMENT_3D ( 'NONE', #541, #1071, #886 ) ;
#38 = APPLICATION_PROTOCOL_DEFINITION ( 'draft international standard', 'automotive_design', 1998, #1003 ) ;
#39 = CARTESIAN_POINT ( 'NONE',  ( -12.00000000000000000, 0.000000000000000000, -1.999999999999999112 ) ) ;
#40 = APPLICATION_CONTEXT ( 'automotive_design' ) ;
#41 = ORIENTED_EDGE ( 'NONE', *, *, #12, .F. ) ;
#42 = SPHERICAL_SURFACE ( 'NONE', #805, 3.901602234979880901 ) ;
#43 = CARTESIAN_POINT ( 'NONE',  ( -9.999999999999998224, 0.5000000000000000000, -4.275643679511810014 ) ) ;
#44 = ADVANCED_FACE ( 'NONE', ( #946, #228, #831, #896 ), #505, .F. ) ;
#45 = PRODUCT_CONTEXT ( 'NONE', #608, 'mechanical' ) ;
#46 = CARTESIAN_POINT ( 'NONE',  ( 0.000000000000000000, 3.999999999999999112, 4.898587196589412829E-16 ) ) ;
#47 = EDGE_LOOP ( 'NONE', ( #905, #933, #662, #877, #741 ) ) ;
#48 = CARTESIAN_POINT ( 'NONE',  ( 2.143131898507868544E-16, -2.000000000000000000, -1.750000000000000666 ) ) ;
#49 = EDGE_CURVE ( 'NONE', #4, #544, #376, .T. ) ;
#50 = DIRECTION ( 'NONE',  ( 0.000000000000000000, 0.000000000000000000, 1.000000000000000000 ) ) ;
#51 = DIRECTION ( 'NONE',  ( -0.000000000000000000, 1.000000000000000000, -0.000000000000000000 ) ) ;
#52 = VERTEX_POINT ( 'NONE', #379 ) ;
#53 = CYLINDRICAL_SURFACE ( 'NONE', #474, 1.500000000000000666 ) ;
#54 = LINE ( 'NONE', #390, #935 ) ;
#55 = PRESENTATION_LAYER_ASSIGNMENT (  '', '', ( #156 ) ) ;
#56 = PLANE ( 'NONE',  #37 ) ;
#57 = AXIS2_PLACEMENT_3D ( 'NONE', #568, #327, #238 ) ;
#58 = CYLINDRICAL_SURFACE ( 'NONE', #21, 1.000000000000000000 ) ;
#59 = ORIENTED_EDGE ( 'NONE', *, *, #740, .F. ) ;
#60 = CARTESIAN_POINT ( 'NONE',  ( -9.999999999999998224, 3.334478334024252977, 3.803835902877497066 ) ) ;
#61 = ITEM_DEFINED_TRANSFORMATION ( 'NONE', 'NONE', #299,  #584 ) ;
#62 = ADVANCED_FACE ( 'NONE', ( #980 ), #58, .T. ) ;
#63 = ORIENTED_EDGE ( 'NONE', *, *, #514, .T. ) ;
#64 = FILL_AREA_STYLE_COLOUR ( '', #135 ) ;
#65 = CARTESIAN_POINT ( 'NONE',  ( 0.000000000000000000, 0.000000000000000000, 0.000000000000000000 ) ) ;
#66 = CIRCLE ( 'NONE', #780, 3.901602234979880901 ) ;
#67 = ORIENTED_EDGE ( 'NONE', *, *, #450, .F. ) ;
#68 = AXIS2_PLACEMENT_3D ( 'NONE', #337, #421, #934 ) ;
#69 = DIRECTION ( 'NONE',  ( 0.000000000000000000, 0.000000000000000000, 1.000000000000000000 ) ) ;
#70 = AXIS2_PLACEMENT_3D ( 'NONE', #250, #339, #686 ) ;
#71 = AXIS2_PLACEMENT_3D ( 'NONE', #876, #630, #548 ) ;
#72 = ORIENTED_EDGE ( 'NONE', *, *, #81, .F. ) ;
#73 = CARTESIAN_POINT ( 'NONE',  ( 30.00000000000000000, 0.000000000000000000, -5.000000000000004441 ) ) ;
#74 = DIRECTION ( 'NONE',  ( 1.000000000000000000, 0.000000000000000000, 0.000000000000000000 ) ) ;
#75 = ADVANCED_FACE ( 'NONE', ( #1064 ), #1029, .T. ) ;
#76 = DIRECTION ( 'NONE',  ( 0.000000000000000000, -1.224646799147353454E-16, 1.000000000000000000 ) ) ;
#77 = EDGE_LOOP ( 'NONE', ( #549, #985 ) ) ;
#78 = CARTESIAN_POINT ( 'NONE',  ( -16.00000000000000000, 4.000000000000000000, 2.000000000000000000 ) ) ;
#79 = CARTESIAN_POINT ( 'NONE',  ( -12.00000000000000000, 0.000000000000000000, 6.000000000000000000 ) ) ;
#80 = ORIENTED_EDGE ( 'NONE', *, *, #361, .T. ) ;
#81 = EDGE_CURVE ( 'NONE', #779, #798, #684, .T. ) ;
#82 = ORIENTED_EDGE ( 'NONE', *, *, #1033, .T. ) ;
#83 = CIRCLE ( 'NONE', #33, 3.350000000000000533 ) ;
#84 = DIRECTION ( 'NONE',  ( 0.000000000000000000, 0.000000000000000000, 1.000000000000000000 ) ) ;
#85 = CARTESIAN_POINT ( 'NONE',  ( 0.000000000000000000, 4.000000000000000000, 0.000000000000000000 ) ) ;
#86 = VECTOR ( 'NONE', #708, 1000.000000000000000 ) ;
#87 = DIRECTION ( 'NONE',  ( 0.000000000000000000, -1.000000000000000000, 0.000000000000000000 ) ) ;
#88 = DIRECTION ( 'NONE',  ( -1.000000000000000000, -4.303319318569046950E-16, 0.000000000000000000 ) ) ;
#89 = VECTOR ( 'NONE', #493, 1000.000000000000000 ) ;
#90 = ORIENTED_EDGE ( 'NONE', *, *, #120, .T. ) ;
#91 = PRODUCT_DEFINITION_SHAPE ( 'NONE', 'NONE',  #1094 ) ;
#92 = VECTOR ( 'NONE', #470, 1000.000000000000000 ) ;
#93 = CARTESIAN_POINT ( 'NONE',  ( -9.999999999999998224, 2.000000000000000000, 0.000000000000000000 ) ) ;
#94 = ORIENTED_EDGE ( 'NONE', *, *, #152, .F. ) ;
#95 = CARTESIAN_POINT ( 'NONE',  ( -9.999999999999998224, 2.000000000000000000, 0.000000000000000000 ) ) ;
#96 = EDGE_LOOP ( 'NONE', ( #94, #776, #41, #729, #693, #20, #241, #248 ) ) ;
#97 = EDGE_CURVE ( 'NONE', #125, #892, #35, .T. ) ;
#98 = CARTESIAN_POINT ( 'NONE',  ( 28.00000000000000000, 4.000000000000000000, 0.000000000000000000 ) ) ;
#99 = CARTESIAN_POINT ( 'NONE',  ( -9.999999999999998224, 0.6655216659757472453, -3.803835902877497066 ) ) ;
#100 =( LENGTH_UNIT ( ) NAMED_UNIT ( * ) SI_UNIT ( .MILLI., .METRE. ) );
#101 = FACE_OUTER_BOUND ( 'NONE', #949, .T. ) ;
#102 = CIRCLE ( 'NONE', #560, 1.500000000000000666 ) ;
#103 = CARTESIAN_POINT ( 'NONE',  ( 0.000000000000000000, -2.000000000000000000, -4.628314976684542407E-16 ) ) ;
#104 = EDGE_LOOP ( 'NONE', ( #231, #530, #5, #671 ) ) ;
#105 = ORIENTED_EDGE ( 'NONE', *, *, #1062, .F. ) ;
#106 = COLOUR_RGB ( '',0.7921568627450980005, 0.8196078431372548767, 0.9333333333333333481 ) ;
#107 = DIRECTION ( 'NONE',  ( 0.000000000000000000, 0.000000000000000000, -1.000000000000000000 ) ) ;
#108 = ADVANCED_FACE ( 'NONE', ( #724 ), #650, .F. ) ;
#109 = PRODUCT_DEFINITION ( 'UNKNOWN', '', #442, #476 ) ;
#110 = EDGE_LOOP ( 'NONE', ( #157, #80, #473, #380 ) ) ;
#111 = ORIENTED_EDGE ( 'NONE', *, *, #606, .F. ) ;
#112 = CARTESIAN_POINT ( 'NONE',  ( -9.999999999999998224, 0.5000000000000000000, 4.275643679511810014 ) ) ;
#113 = VERTEX_POINT ( 'NONE', #627 ) ;
#114 = PRODUCT_DEFINITION_CONTEXT ( 'detailed design', #802, 'design' ) ;
#115 = DIRECTION ( 'NONE',  ( -0.000000000000000000, 1.000000000000000000, -0.000000000000000000 ) ) ;
#116 = AXIS2_PLACEMENT_3D ( 'NONE', #285, #199, #36 ) ;
#117 = CARTESIAN_POINT ( 'NONE',  ( -9.999999999999998224, 0.000000000000000000, 0.000000000000000000 ) ) ;
#118 = DIRECTION ( 'NONE',  ( -1.000000000000000000, 0.000000000000000000, 1.355252715606880543E-16 ) ) ;
#119 = ORIENTED_EDGE ( 'NONE', *, *, #955, .F. ) ;
#120 = EDGE_CURVE ( 'NONE', #688, #25, #194, .T. ) ;
#121 = AXIS2_PLACEMENT_3D ( 'NONE', #632, #209, #556 ) ;
#122 = DIRECTION ( 'NONE',  ( 0.000000000000000000, 1.000000000000000000, 1.224646799147353454E-16 ) ) ;
#123 = AXIS2_PLACEMENT_3D ( 'NONE', #524, #869, #443 ) ;
#124 = CARTESIAN_POINT ( 'NONE',  ( -9.999999999999998224, 3.500000000000000000, -4.275643679511810014 ) ) ;
#125 = VERTEX_POINT ( 'NONE', #1072 ) ;
#126 = ADVANCED_FACE ( 'NONE', ( #898 ), #214, .T. ) ;
#127 = LINE ( 'NONE', #397, #188 ) ;
#128 = PRODUCT_DEFINITION ( 'UNKNOWN', '', #322, #655 ) ;
#129 = DIRECTION ( 'NONE',  ( -0.000000000000000000, -1.000000000000000000, -1.224646799147353454E-16 ) ) ;
#130 = ORIENTED_EDGE ( 'NONE', *, *, #1028, .T. ) ;
#131 = CARTESIAN_POINT ( 'NONE',  ( -16.00000000000000000, 4.000000000000000000, -1.999999999999999112 ) ) ;
#132 = FILL_AREA_STYLE ('',( #64 ) ) ;
#133 = CIRCLE ( 'NONE', #576, 4.275643679511810014 ) ;
#134 = UNCERTAINTY_MEASURE_WITH_UNIT (LENGTH_MEASURE( 1.000000000000000082E-05 ), #915, 'distance_accuracy_value', 'NONE');
#135 = COLOUR_RGB ( '',0.7921568627450980005, 0.8196078431372548767, 0.9333333333333333481 ) ;
#136 = DIRECTION ( 'NONE',  ( 0.000000000000000000, 0.000000000000000000, -1.000000000000000000 ) ) ;
#137 = ORIENTED_EDGE ( 'NONE', *, *, #909, .F. ) ;
#138 = VECTOR ( 'NONE', #153, 1000.000000000000000 ) ;
#139 = CARTESIAN_POINT ( 'NONE',  ( -16.00000000000000000, 0.000000000000000000, -5.999999999999998224 ) ) ;
#140 = VERTEX_POINT ( 'NONE', #806 ) ;
#141 = DIRECTION ( 'NONE',  ( 0.000000000000000000, -1.000000000000000000, 0.000000000000000000 ) ) ;
#142 = ADVANCED_FACE ( 'NONE', ( #511 ), #585, .T. ) ;
#143 = AXIS2_PLACEMENT_3D ( 'NONE', #607, #948, #788 ) ;
#144 = ADVANCED_FACE ( 'NONE', ( #1016, #762 ), #677, .T. ) ;
#145 = ADVANCED_FACE ( 'NONE', ( #498, #769, #577, #167 ), #925, .T. ) ;
#146 = ORIENTED_EDGE ( 'NONE', *, *, #438, .T. ) ;
#147 = LINE ( 'NONE', #826, #529 ) ;
#148 = ORIENTED_EDGE ( 'NONE', *, *, #551, .F. ) ;
#149 = DIRECTION ( 'NONE',  ( 0.000000000000000000, 0.000000000000000000, -1.000000000000000000 ) ) ;
#150 = AXIS2_PLACEMENT_3D ( 'NONE', #624, #368, #1035 ) ;
#151 = ORIENTED_EDGE ( 'NONE', *, *, #751, .T. ) ;
#152 = EDGE_CURVE ( 'NONE', #371, #941, #1020, .T. ) ;
#153 = DIRECTION ( 'NONE',  ( 1.000000000000000000, -0.000000000000000000, -1.084202172485504434E-16 ) ) ;
#154 =( LENGTH_UNIT ( ) NAMED_UNIT ( * ) SI_UNIT ( .MILLI., .METRE. ) );
#155 = ORIENTED_EDGE ( 'NONE', *, *, #29, .T. ) ;
#156 = STYLED_ITEM ( 'NONE', ( #362 ), #823 ) ;
#157 = ORIENTED_EDGE ( 'NONE', *, *, #304, .F. ) ;
#158 = EDGE_CURVE ( 'NONE', #434, #904, #885, .T. ) ;
#159 = CARTESIAN_POINT ( 'NONE',  ( 30.00000000000000000, 0.000000000000000000, 5.999999999999994671 ) ) ;
#160 = EDGE_CURVE ( 'NONE', #384, #785, #664, .T. ) ;
#161 = CARTESIAN_POINT ( 'NONE',  ( 0.000000000000000000, 0.000000000000000000, 0.000000000000000000 ) ) ;
#162 =( NAMED_UNIT ( * ) SI_UNIT ( $, .STERADIAN. ) SOLID_ANGLE_UNIT ( ) );
#163 = ORIENTED_EDGE ( 'NONE', *, *, #999, .T. ) ;
#164 = EDGE_LOOP ( 'NONE', ( #522, #10 ) ) ;
#165 = FACE_OUTER_BOUND ( 'NONE', #839, .T. ) ;
#166 = PRODUCT ( 'Steering-Ball-Servo', 'Steering-Ball-Servo', '', ( #45 ) ) ;
#167 = FACE_OUTER_BOUND ( 'NONE', #96, .T. ) ;
#168 = ORIENTED_EDGE ( 'NONE', *, *, #982, .T. ) ;
#169 = CARTESIAN_POINT ( 'NONE',  ( 31.00000000000000000, 4.000000000000000000, 4.999999999999994671 ) ) ;
#170 = VERTEX_POINT ( 'NONE', #79 ) ;
#171 = AXIS2_PLACEMENT_3D ( 'NONE', #298, #141, #467 ) ;
#172 = AXIS2_PLACEMENT_3D ( 'NONE', #1, #766, #69 ) ;
#173 = CYLINDRICAL_SURFACE ( 'NONE', #453, 1.750000000000000000 ) ;
#174 = EDGE_LOOP ( 'NONE', ( #67, #851, #509, #303 ) ) ;
#175 = VECTOR ( 'NONE', #472, 1000.000000000000000 ) ;
#176 = ORIENTED_EDGE ( 'NONE', *, *, #516, .F. ) ;
#177 = AXIS2_PLACEMENT_3D ( 'NONE', #284, #641, #287 ) ;
#178 = EDGE_LOOP ( 'NONE', ( #840, #587 ) ) ;
#179 = CARTESIAN_POINT ( 'NONE',  ( 21.00000000000000000, 4.000000000000000000, 1.500000000000000666 ) ) ;
#180 = CARTESIAN_POINT ( 'NONE',  ( 0.000000000000000000, -2.000000000000000000, 1.749999999999999556 ) ) ;
#181 = DIRECTION ( 'NONE',  ( 0.000000000000000000, -1.000000000000000000, 0.000000000000000000 ) ) ;
#182 = DIRECTION ( 'NONE',  ( 0.000000000000000000, 0.000000000000000000, 1.000000000000000000 ) ) ;
#183 = DIRECTION ( 'NONE',  ( -0.000000000000000000, 1.000000000000000000, -0.000000000000000000 ) ) ;
#184 = CARTESIAN_POINT ( 'NONE',  ( 0.000000000000000000, 3.999999999999999112, 1.750000000000000222 ) ) ;
#185 = ORIENTED_EDGE ( 'NONE', *, *, #569, .T. ) ;
#186 = FILL_AREA_STYLE_COLOUR ( '', #106 ) ;
#187 = VERTEX_POINT ( 'NONE', #415 ) ;
#188 = VECTOR ( 'NONE', #743, 1000.000000000000000 ) ;
#189 = CIRCLE ( 'NONE', #781, 3.803835902877497066 ) ;
#190 = EDGE_CURVE ( 'NONE', #399, #346, #943, .T. ) ;
#191 = DIRECTION ( 'NONE',  ( -0.000000000000000000, 1.000000000000000000, 1.224646799147353454E-16 ) ) ;
#192 = CLOSED_SHELL ( 'NONE', ( #451, #75, #1084, #240, #329, #870, #273, #320, #881, #986, #492, #1015, #44, #145, #895, #1085, #142, #126, #224, #947, #742, #108, #589, #62 ) ) ;
#193 = DIRECTION ( 'NONE',  ( 0.000000000000000000, 0.000000000000000000, -1.000000000000000000 ) ) ;
#194 = CIRCLE ( 'NONE', #542, 0.5000000000000000000 ) ;
#195 = AXIS2_PLACEMENT_3D ( 'NONE', #534, #734, #370 ) ;
#196 = CARTESIAN_POINT ( 'NONE',  ( -16.00000000000000000, 4.000000000000000000, 2.000000000000000000 ) ) ;
#197 = AXIS2_PLACEMENT_3D ( 'NONE', #667, #582, #479 ) ;
#198 = SHAPE_REPRESENTATION ( 'Steering Servo Arm #2', ( #342, #299, #197 ), #820 ) ;
#199 = DIRECTION ( 'NONE',  ( 0.000000000000000000, -1.000000000000000000, 0.000000000000000000 ) ) ;
#200 = CARTESIAN_POINT ( 'NONE',  ( 31.00000000000000000, 4.000000000000000000, 6.000000000000000000 ) ) ;
#201 = DIRECTION ( 'NONE',  ( 0.000000000000000000, 0.000000000000000000, -1.000000000000000000 ) ) ;
#202 = EDGE_LOOP ( 'NONE', ( #405, #295, #272, #59, #168 ) ) ;
#203 = LINE ( 'NONE', #275, #420 ) ;
#204 = LINE ( 'NONE', #783, #17 ) ;
#205 = DIRECTION ( 'NONE',  ( 0.000000000000000000, 0.000000000000000000, 1.000000000000000000 ) ) ;
#206 = AXIS2_PLACEMENT_3D ( 'NONE', #518, #32, #107 ) ;
#207 = CARTESIAN_POINT ( 'NONE',  ( 28.00000000000000000, 4.000000000000000000, 1.500000000000000666 ) ) ;
#208 = FACE_OUTER_BOUND ( 'NONE', #502, .T. ) ;
#209 = DIRECTION ( 'NONE',  ( 0.000000000000000000, -1.000000000000000000, 0.000000000000000000 ) ) ;
#210 = ADVANCED_FACE ( 'NONE', ( #837 ), #594, .T. ) ;
#211 = ORIENTED_EDGE ( 'NONE', *, *, #567, .T. ) ;
#212 = EDGE_CURVE ( 'NONE', #52, #988, #133, .T. ) ;
#213 = DIRECTION ( 'NONE',  ( 1.000000000000000000, 0.000000000000000000, 0.000000000000000000 ) ) ;
#214 = TOROIDAL_SURFACE ( 'NONE', #121, 4.275643679511810014, 0.5000000000000000000 ) ;
#215 = AXIS2_PLACEMENT_3D ( 'NONE', #675, #580, #1024 ) ;
#216 = ITEM_DEFINED_TRANSFORMATION ( 'NONE', 'NONE', #197,  #584 ) ;
#217 = LINE ( 'NONE', #795, #92 ) ;
#218 = CARTESIAN_POINT ( 'NONE',  ( -9.999999999999998224, 3.500000000000000000, 0.000000000000000000 ) ) ;
#219 = ORIENTED_EDGE ( 'NONE', *, *, #606, .T. ) ;
#220 = DIRECTION ( 'NONE',  ( 0.000000000000000000, -1.000000000000000000, 0.000000000000000000 ) ) ;
#221 = VERTEX_POINT ( 'NONE', #180 ) ;
#222 = EDGE_CURVE ( 'NONE', #251, #1009, #1005, .T. ) ;
#223 = FACE_OUTER_BOUND ( 'NONE', #692, .T. ) ;
#224 = ADVANCED_FACE ( 'NONE', ( #422 ), #1040, .T. ) ;
#225 = ORIENTED_EDGE ( 'NONE', *, *, #233, .F. ) ;
#226 = DIRECTION ( 'NONE',  ( 0.000000000000000000, -1.000000000000000000, -0.000000000000000000 ) ) ;
#227 = FACE_OUTER_BOUND ( 'NONE', #737, .T. ) ;
#228 = FACE_BOUND ( 'NONE', #164, .T. ) ;
#229 = AXIS2_PLACEMENT_3D ( 'NONE', #124, #811, #50 ) ;
#230 = CONTEXT_DEPENDENT_SHAPE_REPRESENTATION ( #984, #843 ) ;
#231 = ORIENTED_EDGE ( 'NONE', *, *, #1075, .F. ) ;
#232 = DIRECTION ( 'NONE',  ( 0.000000000000000000, 0.000000000000000000, -1.000000000000000000 ) ) ;
#233 = EDGE_CURVE ( 'NONE', #825, #712, #16, .T. ) ;
#234 = ORIENTED_EDGE ( 'NONE', *, *, #836, .T. ) ;
#235 = CARTESIAN_POINT ( 'NONE',  ( -9.999999999999998224, 0.5000000000000001110, -3.775643679511809570 ) ) ;
#236 = AXIS2_PLACEMENT_3D ( 'NONE', #848, #858, #76 ) ;
#237 = DIRECTION ( 'NONE',  ( 0.000000000000000000, 0.000000000000000000, 1.000000000000000000 ) ) ;
#238 = DIRECTION ( 'NONE',  ( 0.000000000000000000, 0.000000000000000000, -1.000000000000000000 ) ) ;
#239 = VECTOR ( 'NONE', #875, 1000.000000000000000 ) ;
#240 = ADVANCED_FACE ( 'NONE', ( #448 ), #466, .T. ) ;
#241 = ORIENTED_EDGE ( 'NONE', *, *, #755, .F. ) ;
#242 = CARTESIAN_POINT ( 'NONE',  ( 0.000000000000000000, -2.000000000000000000, -4.628314976684542407E-16 ) ) ;
#243 = DIRECTION ( 'NONE',  ( 0.000000000000000000, 0.000000000000000000, 1.000000000000000000 ) ) ;
#244 =( NAMED_UNIT ( * ) PLANE_ANGLE_UNIT ( ) SI_UNIT ( $, .RADIAN. ) );
#245 = ORIENTED_EDGE ( 'NONE', *, *, #302, .F. ) ;
#246 = AXIS2_PLACEMENT_3D ( 'NONE', #161, #8, #488 ) ;
#247 = AXIS2_PLACEMENT_3D ( 'NONE', #456, #533, #136 ) ;
#248 = ORIENTED_EDGE ( 'NONE', *, *, #618, .T. ) ;
#249 = DIRECTION ( 'NONE',  ( 1.000000000000000000, 0.000000000000000000, 1.224646799147353454E-16 ) ) ;
#250 = CARTESIAN_POINT ( 'NONE',  ( 0.000000000000000000, 3.999999999999999112, 4.898587196589412829E-16 ) ) ;
#251 = VERTEX_POINT ( 'NONE', #207 ) ;
#252 = ORIENTED_EDGE ( 'NONE', *, *, #833, .F. ) ;
#253 = DIRECTION ( 'NONE',  ( -0.000000000000000000, 1.000000000000000000, -0.000000000000000000 ) ) ;
#254 = ADVANCED_FACE ( 'NONE', ( #721 ), #540, .T. ) ;
#255 = DIRECTION ( 'NONE',  ( 1.000000000000000000, -0.000000000000000000, -1.084202172485504434E-16 ) ) ;
#256 = DIRECTION ( 'NONE',  ( 0.000000000000000000, -1.000000000000000000, 0.000000000000000000 ) ) ;
#257 = EDGE_LOOP ( 'NONE', ( #591, #668, #563, #590 ) ) ;
#258 = VECTOR ( 'NONE', #23, 1000.000000000000000 ) ;
#259 = DIRECTION ( 'NONE',  ( 0.000000000000000000, 1.000000000000000000, 0.000000000000000000 ) ) ;
#260 = AXIS2_PLACEMENT_3D ( 'NONE', #431, #183, #517 ) ;
#261 = DIRECTION ( 'NONE',  ( 0.000000000000000000, -1.000000000000000000, 0.000000000000000000 ) ) ;
#262 = CARTESIAN_POINT ( 'NONE',  ( -9.999999999999998224, 0.6655216659757472453, 0.000000000000000000 ) ) ;
#263 = DIRECTION ( 'NONE',  ( 0.000000000000000000, 1.224646799147353454E-16, -1.000000000000000000 ) ) ;
#264 = ORIENTED_EDGE ( 'NONE', *, *, #286, .T. ) ;
#265 = AXIS2_PLACEMENT_3D ( 'NONE', #601, #271, #942 ) ;
#266 = DIRECTION ( 'NONE',  ( -0.000000000000000000, 1.000000000000000000, -0.000000000000000000 ) ) ;
#267 = CARTESIAN_POINT ( 'NONE',  ( -16.00000000000000000, 4.000000000000000000, -5.999999999999998224 ) ) ;
#268 = ORIENTED_EDGE ( 'NONE', *, *, #597, .T. ) ;
#269 = CARTESIAN_POINT ( 'NONE',  ( 21.00000000000000000, 4.000000000000000000, -1.500000000000000666 ) ) ;
#270 = EDGE_CURVE ( 'NONE', #113, #477, #436, .T. ) ;
#271 = DIRECTION ( 'NONE',  ( -1.000000000000000000, -0.000000000000000000, 0.000000000000000000 ) ) ;
#272 = ORIENTED_EDGE ( 'NONE', *, *, #605, .F. ) ;
#273 = ADVANCED_FACE ( 'NONE', ( #101 ), #899, .T. ) ;
#274 = MECHANICAL_DESIGN_GEOMETRIC_PRESENTATION_REPRESENTATION (  '', ( #761 ), #710 ) ;
#275 = CARTESIAN_POINT ( 'NONE',  ( 31.00000000000000000, 0.000000000000000000, 4.999999999999994671 ) ) ;
#276 = CARTESIAN_POINT ( 'NONE',  ( -9.999999999999998224, 3.500000000000000000, 0.000000000000000000 ) ) ;
#277 = FACE_OUTER_BOUND ( 'NONE', #316, .T. ) ;
#278 =( NAMED_UNIT ( * ) SI_UNIT ( $, .STERADIAN. ) SOLID_ANGLE_UNIT ( ) );
#279 = DIRECTION ( 'NONE',  ( 0.000000000000000000, 0.000000000000000000, -1.000000000000000000 ) ) ;
#280 = AXIS2_PLACEMENT_3D ( 'NONE', #459, #964, #1054 ) ;
#281 = DIRECTION ( 'NONE',  ( 0.000000000000000000, 0.000000000000000000, -1.000000000000000000 ) ) ;
#282 = CYLINDRICAL_SURFACE ( 'NONE', #381, 1.500000000000000666 ) ;
#283 = DIRECTION ( 'NONE',  ( 0.000000000000000000, -1.000000000000000000, 0.000000000000000000 ) ) ;
#284 = CARTESIAN_POINT ( 'NONE',  ( -9.999999999999998224, 3.500000000000000000, -4.275643679511810014 ) ) ;
#285 = CARTESIAN_POINT ( 'NONE',  ( -9.999999999999998224, 0.5000000000000000000, 0.000000000000000000 ) ) ;
#286 = EDGE_CURVE ( 'NONE', #221, #403, #959, .T. ) ;
#287 = DIRECTION ( 'NONE',  ( 0.000000000000000000, 0.000000000000000000, 1.000000000000000000 ) ) ;
#288 = CARTESIAN_POINT ( 'NONE',  ( 21.00000000000000000, 0.000000000000000000, 0.000000000000000000 ) ) ;
#289 = ORIENTED_EDGE ( 'NONE', *, *, #190, .F. ) ;
#290 = DIRECTION ( 'NONE',  ( -0.000000000000000000, 1.000000000000000000, 1.224646799147353454E-16 ) ) ;
#291 = AXIS2_PLACEMENT_3D ( 'NONE', #375, #191, #354 ) ;
#292 = CARTESIAN_POINT ( 'NONE',  ( 28.00000000000000000, 0.000000000000000000, 0.000000000000000000 ) ) ;
#293 = CIRCLE ( 'NONE', #172, 1.500000000000000666 ) ;
#294 = DIRECTION ( 'NONE',  ( 0.000000000000000000, -1.000000000000000000, 0.000000000000000000 ) ) ;
#295 = ORIENTED_EDGE ( 'NONE', *, *, #968, .F. ) ;
#296 = CIRCLE ( 'NONE', #507, 0.5000000000000000000 ) ;
#297 =( NAMED_UNIT ( * ) PLANE_ANGLE_UNIT ( ) SI_UNIT ( $, .RADIAN. ) );
#298 = CARTESIAN_POINT ( 'NONE',  ( -9.999999999999998224, 0.5000000000000000000, 0.000000000000000000 ) ) ;
#299 = AXIS2_PLACEMENT_3D ( 'NONE', #408, #243, #660 ) ;
#300 = EDGE_LOOP ( 'NONE', ( #319, #506, #772, #705 ) ) ;
#301 = CARTESIAN_POINT ( 'NONE',  ( -9.999999999999998224, 0.5000000000000000000, -4.275643679511810014 ) ) ;
#302 = EDGE_CURVE ( 'NONE', #633, #125, #204, .T. ) ;
#303 = ORIENTED_EDGE ( 'NONE', *, *, #418, .T. ) ;
#304 = EDGE_CURVE ( 'NONE', #187, #140, #66, .T. ) ;
#305 = EDGE_CURVE ( 'NONE', #343, #140, #18, .T. ) ;
#306 = SURFACE_STYLE_FILL_AREA ( #132 ) ;
#307 = DIRECTION ( 'NONE',  ( 0.000000000000000000, 0.000000000000000000, -1.000000000000000000 ) ) ;
#308 = ORIENTED_EDGE ( 'NONE', *, *, #1048, .T. ) ;
#309 = PLANE ( 'NONE',  #596 ) ;
#310 = ORIENTED_EDGE ( 'NONE', *, *, #372, .F. ) ;
#311 = CIRCLE ( 'NONE', #880, 1.500000000000000666 ) ;
#312 = SHAPE_DEFINITION_REPRESENTATION ( #663, #344 ) ;
#313 =( NAMED_UNIT ( * ) SI_UNIT ( $, .STERADIAN. ) SOLID_ANGLE_UNIT ( ) );
#314 = EDGE_LOOP ( 'NONE', ( #1081, #328, #610, #834 ) ) ;
#315 = AXIS2_PLACEMENT_3D ( 'NONE', #911, #482, #1088 ) ;
#316 = EDGE_LOOP ( 'NONE', ( #72, #480, #647, #1023 ) ) ;
#317 = DIRECTION ( 'NONE',  ( 0.000000000000000000, 0.000000000000000000, -1.000000000000000000 ) ) ;
#318 = PRODUCT ( 'Steering-Servo-Arm-2', 'Steering-Servo-Arm-2', '', ( #815 ) ) ;
#319 = ORIENTED_EDGE ( 'NONE', *, *, #1050, .F. ) ;
#320 = ADVANCED_FACE ( 'NONE', ( #359 ), #862, .T. ) ;
#321 = CIRCLE ( 'NONE', #229, 0.5000000000000000000 ) ;
#322 = PRODUCT_DEFINITION_FORMATION_WITH_SPECIFIED_SOURCE ( 'ANY', '', #318, .NOT_KNOWN. ) ;
#323 = VERTEX_POINT ( 'NONE', #536 ) ;
#324 = ORIENTED_EDGE ( 'NONE', *, *, #152, .T. ) ;
#325 = CARTESIAN_POINT ( 'NONE',  ( 4.102566777143634267E-16, 3.999999999999999112, 3.350000000000001421 ) ) ;
#326 = ORIENTED_EDGE ( 'NONE', *, *, #597, .F. ) ;
#327 = DIRECTION ( 'NONE',  ( 0.000000000000000000, -1.000000000000000000, -0.000000000000000000 ) ) ;
#328 = ORIENTED_EDGE ( 'NONE', *, *, #304, .T. ) ;
#329 = ADVANCED_FACE ( 'NONE', ( #277 ), #282, .F. ) ;
#330 = EDGE_LOOP ( 'NONE', ( #1087, #489, #324, #335 ) ) ;
#331 = CARTESIAN_POINT ( 'NONE',  ( -13.80383590287749485, 0.6655216659757472453, 0.000000000000000000 ) ) ;
#332 = CARTESIAN_POINT ( 'NONE',  ( -9.999999999999998224, 2.000000000000000000, 0.000000000000000000 ) ) ;
#333 = DIRECTION ( 'NONE',  ( 0.000000000000000000, -1.000000000000000000, 0.000000000000000000 ) ) ;
#334 = CIRCLE ( 'NONE', #452, 0.5000000000000000000 ) ;
#335 = ORIENTED_EDGE ( 'NONE', *, *, #707, .T. ) ;
#336 = VECTOR ( 'NONE', #255, 1000.000000000000000 ) ;
#337 = CARTESIAN_POINT ( 'NONE',  ( 21.00000000000000000, 0.000000000000000000, 0.000000000000000000 ) ) ;
#338 = AXIS2_PLACEMENT_3D ( 'NONE', #13, #333, #672 ) ;
#339 = DIRECTION ( 'NONE',  ( 0.000000000000000000, 1.000000000000000000, 1.224646799147353454E-16 ) ) ;
#340 =( NAMED_UNIT ( * ) PLANE_ANGLE_UNIT ( ) SI_UNIT ( $, .RADIAN. ) );
#341 = CIRCLE ( 'NONE', #143, 1.000000000000000000 ) ;
#342 = AXIS2_PLACEMENT_3D ( 'NONE', #638, #1051, #967 ) ;
#343 = VERTEX_POINT ( 'NONE', #700 ) ;
#344 = SHAPE_REPRESENTATION ( 'Steering-Ball-Servo', ( #584 ), #768 ) ;
#345 = CARTESIAN_POINT ( 'NONE',  ( 30.00000000000000000, 0.000000000000000000, 4.999999999999994671 ) ) ;
#346 = VERTEX_POINT ( 'NONE', #184 ) ;
#347 = ORIENTED_EDGE ( 'NONE', *, *, #605, .T. ) ;
#348 = DIRECTION ( 'NONE',  ( 0.000000000000000000, 0.000000000000000000, 1.000000000000000000 ) ) ;
#349 = CARTESIAN_POINT ( 'NONE',  ( -9.999999999999998224, 4.000000000000000000, 0.000000000000000000 ) ) ;
#350 = CARTESIAN_POINT ( 'NONE',  ( -9.999999999999998224, 3.500000000000000000, 4.275643679511810014 ) ) ;
#351 =( NAMED_UNIT ( * ) PLANE_ANGLE_UNIT ( ) SI_UNIT ( $, .RADIAN. ) );
#352 = CARTESIAN_POINT ( 'NONE',  ( 28.00000000000000000, 0.000000000000000000, 1.500000000000000666 ) ) ;
#353 = CIRCLE ( 'NONE', #1043, 3.775643679511809570 ) ;
#354 = DIRECTION ( 'NONE',  ( 0.000000000000000000, -1.294569758191647402E-16, 1.000000000000000000 ) ) ;
#355 = EDGE_LOOP ( 'NONE', ( #956, #245, #440, #970 ) ) ;
#356 = EDGE_CURVE ( 'NONE', #425, #927, #658, .T. ) ;
#357 = DIRECTION ( 'NONE',  ( 0.000000000000000000, 0.000000000000000000, 1.000000000000000000 ) ) ;
#358 = CIRCLE ( 'NONE', #265, 3.901602234979880901 ) ;
#359 = FACE_OUTER_BOUND ( 'NONE', #202, .T. ) ;
#360 = ORIENTED_EDGE ( 'NONE', *, *, #773, .F. ) ;
#361 = EDGE_CURVE ( 'NONE', #187, #562, #614, .T. ) ;
#362 = PRESENTATION_STYLE_ASSIGNMENT (( #15 ) ) ;
#363 = ORIENTED_EDGE ( 'NONE', *, *, #212, .T. ) ;
#364 = FACE_BOUND ( 'NONE', #77, .T. ) ;
#365 = LINE ( 'NONE', #1038, #86 ) ;
#366 = CARTESIAN_POINT ( 'NONE',  ( -12.00000000000000000, 4.000000000000000000, -1.999999999999999112 ) ) ;
#367 = FACE_OUTER_BOUND ( 'NONE', #832, .T. ) ;
#368 = DIRECTION ( 'NONE',  ( 0.000000000000000000, -1.000000000000000000, -1.224646799147353454E-16 ) ) ;
#369 = LINE ( 'NONE', #352, #565 ) ;
#370 = DIRECTION ( 'NONE',  ( 0.000000000000000000, 0.000000000000000000, -1.000000000000000000 ) ) ;
#371 = VERTEX_POINT ( 'NONE', #1042 ) ;
#372 = EDGE_CURVE ( 'NONE', #927, #669, #878, .T. ) ;
#373 =( GEOMETRIC_REPRESENTATION_CONTEXT ( 3 ) GLOBAL_UNCERTAINTY_ASSIGNED_CONTEXT ( ( #983 ) ) GLOBAL_UNIT_ASSIGNED_CONTEXT ( ( #100, #351, #278 ) ) REPRESENTATION_CONTEXT ( 'NONE', 'WORKASPACE' ) );
#374 = DIRECTION ( 'NONE',  ( 0.000000000000000000, 0.000000000000000000, 1.000000000000000000 ) ) ;
#375 = CARTESIAN_POINT ( 'NONE',  ( 0.000000000000000000, -2.000000000000000000, -4.628314976684542407E-16 ) ) ;
#376 = LINE ( 'NONE', #139, #175 ) ;
#377 = DIRECTION ( 'NONE',  ( -0.000000000000000000, 1.000000000000000000, -0.000000000000000000 ) ) ;
#378 = CARTESIAN_POINT ( 'NONE',  ( -9.999999999999998224, 0.000000000000000000, 4.275643679511810014 ) ) ;
#379 = CARTESIAN_POINT ( 'NONE',  ( -9.999999999999998224, 4.000000000000000000, -4.275643679511810014 ) ) ;
#380 = ORIENTED_EDGE ( 'NONE', *, *, #631, .F. ) ;
#381 = AXIS2_PLACEMENT_3D ( 'NONE', #801, #629, #704 ) ;
#382 = APPLICATION_PROTOCOL_DEFINITION ( 'draft international standard', 'automotive_design', 1998, #951 ) ;
#383 = CARTESIAN_POINT ( 'NONE',  ( 0.000000000000000000, 1.999999999999998668, 3.350000000000000533 ) ) ;
#384 = VERTEX_POINT ( 'NONE', #526 ) ;
#385 = CARTESIAN_POINT ( 'NONE',  ( -6.196164097122501602, 3.334478334024252977, 4.658355462940709033E-16 ) ) ;
#386 = EDGE_CURVE ( 'NONE', #908, #425, #1031, .T. ) ;
#387 = ORIENTED_EDGE ( 'NONE', *, *, #873, .T. ) ;
#388 = AXIS2_PLACEMENT_3D ( 'NONE', #350, #499, #696 ) ;
#389 = AXIS2_PLACEMENT_3D ( 'NONE', #620, #739, #34 ) ;
#390 = CARTESIAN_POINT ( 'NONE',  ( 21.00000000000000000, 0.000000000000000000, 1.500000000000000666 ) ) ;
#391 = EDGE_LOOP ( 'NONE', ( #363, #151 ) ) ;
#392 = UNCERTAINTY_MEASURE_WITH_UNIT (LENGTH_MEASURE( 1.000000000000000082E-05 ), #154, 'distance_accuracy_value', 'NONE');
#393 = CARTESIAN_POINT ( 'NONE',  ( -9.999999999999998224, 4.000000000000000000, 4.275643679511810014 ) ) ;
#394 = EDGE_CURVE ( 'NONE', #434, #744, #417, .T. ) ;
#395 = EDGE_LOOP ( 'NONE', ( #557, #225 ) ) ;
#396 = LINE ( 'NONE', #550, #583 ) ;
#397 = CARTESIAN_POINT ( 'NONE',  ( 4.102566777143634267E-16, 3.999999999999999112, 3.350000000000001421 ) ) ;
#398 = ADVANCED_BREP_SHAPE_REPRESENTATION ( '', ( #823, #584 ), #718 ) ;
#399 = VERTEX_POINT ( 'NONE', #962 ) ;
#400 = EDGE_CURVE ( 'NONE', #904, #384, #437, .T. ) ;
#401 = DIRECTION ( 'NONE',  ( 0.000000000000000000, 0.000000000000000000, -1.000000000000000000 ) ) ;
#402 = ORIENTED_EDGE ( 'NONE', *, *, #29, .F. ) ;
#403 = VERTEX_POINT ( 'NONE', #48 ) ;
#404 = AXIS2_PLACEMENT_3D ( 'NONE', #774, #694, #1025 ) ;
#405 = ORIENTED_EDGE ( 'NONE', *, *, #514, .F. ) ;
#406 = CARTESIAN_POINT ( 'NONE',  ( -9.999999999999998224, 3.334478334024252977, 0.000000000000000000 ) ) ;
#407 = VECTOR ( 'NONE', #226, 1000.000000000000000 ) ;
#408 = CARTESIAN_POINT ( 'NONE',  ( 998.1088228523731232, 1076.003723941743374, -52.36267542932182550 ) ) ;
#409 = ORIENTED_EDGE ( 'NONE', *, *, #957, .T. ) ;
#410 = DIRECTION ( 'NONE',  ( 0.000000000000000000, -1.000000000000000000, 0.000000000000000000 ) ) ;
#411 = CARTESIAN_POINT ( 'NONE',  ( 0.000000000000000000, 0.000000000000000000, 0.000000000000000000 ) ) ;
#412 = DIRECTION ( 'NONE',  ( 0.000000000000000000, 1.000000000000000000, 0.000000000000000000 ) ) ;
#413 = ORIENTED_EDGE ( 'NONE', *, *, #957, .F. ) ;
#414 = DIRECTION ( 'NONE',  ( 0.000000000000000000, -1.000000000000000000, 0.000000000000000000 ) ) ;
#415 = CARTESIAN_POINT ( 'NONE',  ( 4.102566777143632788E-16, -1.999999999999999556, -3.349999999999999645 ) ) ;
#416 = CARTESIAN_POINT ( 'NONE',  ( 28.00000000000000000, 0.000000000000000000, -1.500000000000000666 ) ) ;
#417 = CIRCLE ( 'NONE', #917, 4.275643679511810014 ) ;
#418 = EDGE_CURVE ( 'NONE', #744, #688, #334, .T. ) ;
#419 = EDGE_LOOP ( 'NONE', ( #268, #777, #119, #913, #409, #796, #520, #994 ) ) ;
#420 = VECTOR ( 'NONE', #966, 1000.000000000000000 ) ;
#421 = DIRECTION ( 'NONE',  ( 0.000000000000000000, 1.000000000000000000, 0.000000000000000000 ) ) ;
#422 = FACE_OUTER_BOUND ( 'NONE', #174, .T. ) ;
#423 = CIRCLE ( 'NONE', #71, 1.000000000000000000 ) ;
#424 = FACE_OUTER_BOUND ( 'NONE', #612, .T. ) ;
#425 = VERTEX_POINT ( 'NONE', #976 ) ;
#426 = CARTESIAN_POINT ( 'NONE',  ( 31.00000000000000000, 4.000000000000000000, -5.000000000000004441 ) ) ;
#427 = CARTESIAN_POINT ( 'NONE',  ( -9.999999999999998224, 0.5000000000000000000, 4.275643679511810014 ) ) ;
#428 = VERTEX_POINT ( 'NONE', #383 ) ;
#429 = SURFACE_SIDE_STYLE ('',( #445 ) ) ;
#430 = ORIENTED_EDGE ( 'NONE', *, *, #516, .T. ) ;
#431 = CARTESIAN_POINT ( 'NONE',  ( -9.999999999999998224, 3.334478334024252977, 0.000000000000000000 ) ) ;
#432 = EDGE_CURVE ( 'NONE', #712, #825, #1092, .T. ) ;
#433 = DIRECTION ( 'NONE',  ( -0.000000000000000000, 1.000000000000000000, -0.000000000000000000 ) ) ;
#434 = VERTEX_POINT ( 'NONE', #378 ) ;
#435 = DIRECTION ( 'NONE',  ( 0.000000000000000000, 0.000000000000000000, -1.000000000000000000 ) ) ;
#436 = CIRCLE ( 'NONE', #206, 3.803835902877497066 ) ;
#437 = CIRCLE ( 'NONE', #634, 0.5000000000000000000 ) ;
#438 = EDGE_CURVE ( 'NONE', #646, #428, #127, .T. ) ;
#439 = DIRECTION ( 'NONE',  ( 0.000000000000000000, 0.000000000000000000, -1.000000000000000000 ) ) ;
#440 = ORIENTED_EDGE ( 'NONE', *, *, #807, .F. ) ;
#441 = CIRCLE ( 'NONE', #665, 4.000000000000000000 ) ;
#442 = PRODUCT_DEFINITION_FORMATION_WITH_SPECIFIED_SOURCE ( 'ANY', '', #166, .NOT_KNOWN. ) ;
#443 = DIRECTION ( 'NONE',  ( 0.000000000000000000, 0.000000000000000000, -1.000000000000000000 ) ) ;
#444 = DIRECTION ( 'NONE',  ( 1.224646799147353207E-16, 0.000000000000000000, -1.000000000000000000 ) ) ;
#445 = SURFACE_STYLE_FILL_AREA ( #850 ) ;
#446 = ORIENTED_EDGE ( 'NONE', *, *, #302, .T. ) ;
#447 = CARTESIAN_POINT ( 'NONE',  ( 0.000000000000000000, 0.000000000000000000, -2.179021378389835993E-16 ) ) ;
#448 = FACE_OUTER_BOUND ( 'NONE', #47, .T. ) ;
#449 = MANIFOLD_SOLID_BREP ( 'Boss-Extrude1', #525 ) ;
#450 = EDGE_CURVE ( 'NONE', #904, #688, #989, .T. ) ;
#451 = ADVANCED_FACE ( 'NONE', ( #227 ), #31, .T. ) ;
#452 = AXIS2_PLACEMENT_3D ( 'NONE', #43, #731, #659 ) ;
#453 = AXIS2_PLACEMENT_3D ( 'NONE', #683, #750, #348 ) ;
#454 = CARTESIAN_POINT ( 'NONE',  ( -9.999999999999998224, 0.5000000000000000000, 0.000000000000000000 ) ) ;
#455 = LINE ( 'NONE', #636, #701 ) ;
#456 = CARTESIAN_POINT ( 'NONE',  ( -16.00000000000000000, 4.000000000000000000, -5.999999999999998224 ) ) ;
#457 = VECTOR ( 'NONE', #463, 1000.000000000000000 ) ;
#458 = DIRECTION ( 'NONE',  ( -1.084202172485504434E-16, 0.000000000000000000, -1.000000000000000000 ) ) ;
#459 = CARTESIAN_POINT ( 'NONE',  ( 31.00000000000000000, 0.000000000000000000, 0.000000000000000000 ) ) ;
#460 = ORIENTED_EDGE ( 'NONE', *, *, #751, .F. ) ;
#461 =( NAMED_UNIT ( * ) PLANE_ANGLE_UNIT ( ) SI_UNIT ( $, .RADIAN. ) );
#462 = EDGE_CURVE ( 'NONE', #1089, #9, #311, .T. ) ;
#463 = DIRECTION ( 'NONE',  ( -0.000000000000000000, -0.000000000000000000, 1.000000000000000000 ) ) ;
#464 = CARTESIAN_POINT ( 'NONE',  ( 21.00000000000000000, 0.000000000000000000, 0.000000000000000000 ) ) ;
#465 = ORIENTED_EDGE ( 'NONE', *, *, #999, .F. ) ;
#466 = TOROIDAL_SURFACE ( 'NONE', #778, 4.275643679511810014, 0.5000000000000000000 ) ;
#467 = DIRECTION ( 'NONE',  ( 0.000000000000000000, 0.000000000000000000, -1.000000000000000000 ) ) ;
#468 = EDGE_CURVE ( 'NONE', #798, #712, #54, .T. ) ;
#469 = EDGE_LOOP ( 'NONE', ( #310, #1032, #981, #997 ) ) ;
#470 = DIRECTION ( 'NONE',  ( -0.000000000000000000, 1.000000000000000000, 1.224646799147353454E-16 ) ) ;
#471 = ORIENTED_EDGE ( 'NONE', *, *, #833, .T. ) ;
#472 = DIRECTION ( 'NONE',  ( 0.000000000000000000, 0.000000000000000000, 1.000000000000000000 ) ) ;
#473 = ORIENTED_EDGE ( 'NONE', *, *, #791, .T. ) ;
#474 = AXIS2_PLACEMENT_3D ( 'NONE', #821, #377, #889 ) ;
#475 = DIRECTION ( 'NONE',  ( 1.000000000000000000, 0.000000000000000000, -1.224646799147353207E-16 ) ) ;
#476 = PRODUCT_DEFINITION_CONTEXT ( 'detailed design', #1003, 'design' ) ;
#477 = VERTEX_POINT ( 'NONE', #60 ) ;
#478 = CARTESIAN_POINT ( 'NONE',  ( 0.000000000000000000, 1.999999999999999112, 2.702722199048697746E-17 ) ) ;
#479 = DIRECTION ( 'NONE',  ( 1.000000000000000000, 0.000000000000000000, 0.000000000000000000 ) ) ;
#480 = ORIENTED_EDGE ( 'NONE', *, *, #1050, .T. ) ;
#481 = ORIENTED_EDGE ( 'NONE', *, *, #462, .T. ) ;
#482 = DIRECTION ( 'NONE',  ( 0.000000000000000000, -1.000000000000000000, 0.000000000000000000 ) ) ;
#483 = UNCERTAINTY_MEASURE_WITH_UNIT (LENGTH_MEASURE( 1.000000000000000082E-05 ), #1076, 'distance_accuracy_value', 'NONE');
#484 =( LENGTH_UNIT ( ) NAMED_UNIT ( * ) SI_UNIT ( .MILLI., .METRE. ) );
#485 = ORIENTED_EDGE ( 'NONE', *, *, #728, .T. ) ;
#486 = DIRECTION ( 'NONE',  ( 9.120916465742049658E-16, 0.000000000000000000, -1.000000000000000000 ) ) ;
#487 = CIRCLE ( 'NONE', #123, 4.000000000000000000 ) ;
#488 = DIRECTION ( 'NONE',  ( 0.000000000000000000, -0.000000000000000000, -1.000000000000000000 ) ) ;
#489 = ORIENTED_EDGE ( 'NONE', *, *, #722, .T. ) ;
#490 = ORIENTED_EDGE ( 'NONE', *, *, #618, .F. ) ;
#491 = FACE_OUTER_BOUND ( 'NONE', #355, .T. ) ;
#492 = ADVANCED_FACE ( 'NONE', ( #223 ), #309, .F. ) ;
#493 = DIRECTION ( 'NONE',  ( 0.000000000000000000, 0.000000000000000000, -1.000000000000000000 ) ) ;
#494 = ORIENTED_EDGE ( 'NONE', *, *, #861, .F. ) ;
#495 = EDGE_LOOP ( 'NONE', ( #111, #146, #1047, #1027 ) ) ;
#496 =( REPRESENTATION_RELATIONSHIP ('NONE','NONE', #198, #657 ) REPRESENTATION_RELATIONSHIP_WITH_TRANSFORMATION ( #216 )SHAPE_REPRESENTATION_RELATIONSHIP( ) );
#497 = CYLINDRICAL_SURFACE ( 'NONE', #404, 1.750000000000000000 ) ;
#498 = FACE_BOUND ( 'NONE', #535, .T. ) ;
#499 = DIRECTION ( 'NONE',  ( 1.000000000000000000, 0.000000000000000000, -1.224646799147353207E-16 ) ) ;
#500 = AXIS2_PLACEMENT_3D ( 'NONE', #822, #220, #317 ) ;
#501 = LINE ( 'NONE', #954, #1011 ) ;
#502 = EDGE_LOOP ( 'NONE', ( #413, #471, #810, #792 ) ) ;
#503 = AXIS2_PLACEMENT_3D ( 'NONE', #676, #670, #84 ) ;
#504 = CARTESIAN_POINT ( 'NONE',  ( -12.00000000000000000, 4.000000000000000000, 6.000000000000000000 ) ) ;
#505 = PLANE ( 'NONE',  #977 ) ;
#506 = ORIENTED_EDGE ( 'NONE', *, *, #567, .F. ) ;
#507 = AXIS2_PLACEMENT_3D ( 'NONE', #625, #537, #1057 ) ;
#508 = CARTESIAN_POINT ( 'NONE',  ( 30.00000000000000000, 4.000000000000000000, -6.000000000000004441 ) ) ;
#509 = ORIENTED_EDGE ( 'NONE', *, *, #873, .F. ) ;
#510 = EDGE_CURVE ( 'NONE', #428, #140, #538, .T. ) ;
#511 = FACE_OUTER_BOUND ( 'NONE', #104, .T. ) ;
#512 = ORIENTED_EDGE ( 'NONE', *, *, #861, .T. ) ;
#513 = CYLINDRICAL_SURFACE ( 'NONE', #1069, 1.500000000000000666 ) ;
#514 = EDGE_CURVE ( 'NONE', #1074, #844, #353, .T. ) ;
#515 = ORIENTED_EDGE ( 'NONE', *, *, #212, .F. ) ;
#516 = EDGE_CURVE ( 'NONE', #346, #399, #864, .T. ) ;
#517 = DIRECTION ( 'NONE',  ( 0.000000000000000000, 0.000000000000000000, -1.000000000000000000 ) ) ;
#518 = CARTESIAN_POINT ( 'NONE',  ( -9.999999999999998224, 3.334478334024252977, 0.000000000000000000 ) ) ;
#519 = EDGE_LOOP ( 'NONE', ( #494, #1066, #975, #845, #1021 ) ) ;
#520 = ORIENTED_EDGE ( 'NONE', *, *, #372, .T. ) ;
#521 = CIRCLE ( 'NONE', #68, 1.500000000000000666 ) ;
#522 = ORIENTED_EDGE ( 'NONE', *, *, #222, .F. ) ;
#523 = VECTOR ( 'NONE', #115, 1000.000000000000000 ) ;
#524 = CARTESIAN_POINT ( 'NONE',  ( -12.00000000000000000, 4.000000000000000000, 1.999999999999999556 ) ) ;
#525 = CLOSED_SHELL ( 'NONE', ( #254, #679, #210, #1073, #817, #642, #144, #916 ) ) ;
#526 = CARTESIAN_POINT ( 'NONE',  ( -9.999999999999998224, 0.6655216659757472453, 3.803835902877497066 ) ) ;
#527 = AXIS2_PLACEMENT_3D ( 'NONE', #262, #181, #604 ) ;
#528 = DIRECTION ( 'NONE',  ( 0.000000000000000000, -1.000000000000000000, -1.224646799147353454E-16 ) ) ;
#529 = VECTOR ( 'NONE', #753, 1000.000000000000000 ) ;
#530 = ORIENTED_EDGE ( 'NONE', *, *, #727, .F. ) ;
#531 = DIRECTION ( 'NONE',  ( 1.000000000000000000, -1.499759782661857882E-32, 1.224646799147353207E-16 ) ) ;
#532 = EDGE_CURVE ( 'NONE', #25, #323, #189, .T. ) ;
#533 = DIRECTION ( 'NONE',  ( 1.000000000000000000, 0.000000000000000000, 0.000000000000000000 ) ) ;
#534 = CARTESIAN_POINT ( 'NONE',  ( 30.00000000000000000, 4.000000000000000000, 4.999999999999994671 ) ) ;
#535 = EDGE_LOOP ( 'NONE', ( #211, #920 ) ) ;
#536 = CARTESIAN_POINT ( 'NONE',  ( -6.196164097122501602, 0.6655216659757472453, 4.658355462940709033E-16 ) ) ;
#537 = DIRECTION ( 'NONE',  ( 1.000000000000000000, 0.000000000000000000, -1.224646799147353207E-16 ) ) ;
#538 = CIRCLE ( 'NONE', #539, 3.350000000000000533 ) ;
#539 = AXIS2_PLACEMENT_3D ( 'NONE', #478, #639, #998 ) ;
#540 = CYLINDRICAL_SURFACE ( 'NONE', #812, 3.350000000000000977 ) ;
#541 = CARTESIAN_POINT ( 'NONE',  ( 16.00000000000000000, 4.000000000000000000, -6.000000000000002665 ) ) ;
#542 = AXIS2_PLACEMENT_3D ( 'NONE', #301, #971, #205 ) ;
#543 = AXIS2_PLACEMENT_3D ( 'NONE', #866, #1022, #182 ) ;
#544 = VERTEX_POINT ( 'NONE', #1014 ) ;
#545 = EDGE_CURVE ( 'NONE', #1009, #251, #293, .T. ) ;
#546 = FACE_OUTER_BOUND ( 'NONE', #651, .T. ) ;
#547 = APPLICATION_PROTOCOL_DEFINITION ( 'draft international standard', 'automotive_design', 1998, #802 ) ;
#548 = DIRECTION ( 'NONE',  ( 0.000000000000000000, 0.000000000000000000, -1.000000000000000000 ) ) ;
#549 = ORIENTED_EDGE ( 'NONE', *, *, #286, .F. ) ;
#550 = CARTESIAN_POINT ( 'NONE',  ( 16.00000000000000000, 0.000000000000000000, -6.000000000000002665 ) ) ;
#551 = EDGE_CURVE ( 'NONE', #785, #113, #558, .T. ) ;
#552 = DIRECTION ( 'NONE',  ( 0.000000000000000000, 0.000000000000000000, 1.000000000000000000 ) ) ;
#553 = UNCERTAINTY_MEASURE_WITH_UNIT (LENGTH_MEASURE( 1.000000000000000082E-05 ), #484, 'distance_accuracy_value', 'NONE');
#554 = SHAPE_DEFINITION_REPRESENTATION ( #930, #198 ) ;
#555 = FACE_OUTER_BOUND ( 'NONE', #595, .T. ) ;
#556 = DIRECTION ( 'NONE',  ( 0.000000000000000000, 0.000000000000000000, -1.000000000000000000 ) ) ;
#557 = ORIENTED_EDGE ( 'NONE', *, *, #432, .F. ) ;
#558 = CIRCLE ( 'NONE', #1063, 4.031128874149275454 ) ;
#559 = CARTESIAN_POINT ( 'NONE',  ( 16.00000000000000000, 4.000000000000000000, 5.999999999999996447 ) ) ;
#560 = AXIS2_PLACEMENT_3D ( 'NONE', #924, #259, #11 ) ;
#561 = APPLICATION_PROTOCOL_DEFINITION ( 'draft international standard', 'automotive_design', 1998, #793 ) ;
#562 = VERTEX_POINT ( 'NONE', #574 ) ;
#563 = ORIENTED_EDGE ( 'NONE', *, *, #929, .F. ) ;
#564 = AXIS2_PLACEMENT_3D ( 'NONE', #288, #622, #797 ) ;
#565 = VECTOR ( 'NONE', #266, 1000.000000000000000 ) ;
#566 = CARTESIAN_POINT ( 'NONE',  ( -9.999999999999998224, 3.500000000000000000, 0.000000000000000000 ) ) ;
#567 = EDGE_CURVE ( 'NONE', #798, #779, #521, .T. ) ;
#568 = CARTESIAN_POINT ( 'NONE',  ( -12.00000000000000000, 4.000000000000000000, -1.999999999999999112 ) ) ;
#569 = EDGE_CURVE ( 'NONE', #323, #923, #865, .T. ) ;
#570 = EDGE_LOOP ( 'NONE', ( #465, #809, #1000, #430 ) ) ;
#571 = CARTESIAN_POINT ( 'NONE',  ( 0.000000000000000000, 3.999999999999999112, 4.898587196589412829E-16 ) ) ;
#572 = SHAPE_REPRESENTATION_RELATIONSHIP ( 'NONE' , 'NONE' ,  #344, #760 ) ;
#573 = VERTEX_POINT ( 'NONE', #504 ) ;
#574 = CARTESIAN_POINT ( 'NONE',  ( 0.000000000000000000, -2.000000000000000444, 3.349999999999998757 ) ) ;
#575 = AXIS2_PLACEMENT_3D ( 'NONE', #993, #903, #747 ) ;
#576 = AXIS2_PLACEMENT_3D ( 'NONE', #349, #87, #695 ) ;
#577 = FACE_BOUND ( 'NONE', #579, .T. ) ;
#578 = CARTESIAN_POINT ( 'NONE',  ( 28.00000000000000000, 0.000000000000000000, 1.500000000000000666 ) ) ;
#579 = EDGE_LOOP ( 'NONE', ( #387, #888 ) ) ;
#580 = DIRECTION ( 'NONE',  ( -0.000000000000000000, 1.000000000000000000, 1.224646799147353454E-16 ) ) ;
#581 = DIRECTION ( 'NONE',  ( 0.000000000000000000, -1.000000000000000000, -1.224646799147353454E-16 ) ) ;
#582 = DIRECTION ( 'NONE',  ( 0.000000000000000000, 0.000000000000000000, 1.000000000000000000 ) ) ;
#583 = VECTOR ( 'NONE', #893, 1000.000000000000000 ) ;
#584 = AXIS2_PLACEMENT_3D ( 'NONE', #65, #907, #586 ) ;
#585 = CYLINDRICAL_SURFACE ( 'NONE', #338, 4.000000000000000000 ) ;
#586 = DIRECTION ( 'NONE',  ( 1.000000000000000000, 0.000000000000000000, 0.000000000000000000 ) ) ;
#587 = ORIENTED_EDGE ( 'NONE', *, *, #361, .F. ) ;
#588 = DIRECTION ( 'NONE',  ( 0.000000000000000000, -0.000000000000000000, -1.000000000000000000 ) ) ;
#589 = ADVANCED_FACE ( 'NONE', ( #491 ), #759, .T. ) ;
#590 = ORIENTED_EDGE ( 'NONE', *, *, #757, .F. ) ;
#591 = ORIENTED_EDGE ( 'NONE', *, *, #356, .F. ) ;
#592 = DIRECTION ( 'NONE',  ( -0.000000000000000000, 1.000000000000000000, 1.224646799147353454E-16 ) ) ;
#593 = DIRECTION ( 'NONE',  ( 0.000000000000000000, -1.000000000000000000, 0.000000000000000000 ) ) ;
#594 = SPHERICAL_SURFACE ( 'NONE', #236, 3.901602234979880901 ) ;
#595 = EDGE_LOOP ( 'NONE', ( #770, #1082, #912, #765 ) ) ;
#596 = AXIS2_PLACEMENT_3D ( 'NONE', #559, #458, #666 ) ;
#597 = EDGE_CURVE ( 'NONE', #573, #125, #1019, .T. ) ;
#598 = SPHERICAL_SURFACE ( 'NONE', #767, 4.031128874149275454 ) ;
#599 = ORIENTED_EDGE ( 'NONE', *, *, #400, .F. ) ;
#600 = CIRCLE ( 'NONE', #748, 3.775643679511809570 ) ;
#601 = CARTESIAN_POINT ( 'NONE',  ( 0.000000000000000000, 0.000000000000000000, -2.179021378389835993E-16 ) ) ;
#602 = AXIS2_PLACEMENT_3D ( 'NONE', #464, #51, #719 ) ;
#603 = CARTESIAN_POINT ( 'NONE',  ( 0.000000000000000000, 3.999999999999999112, 4.898587196589412829E-16 ) ) ;
#604 = DIRECTION ( 'NONE',  ( 0.000000000000000000, 0.000000000000000000, 1.000000000000000000 ) ) ;
#605 = EDGE_CURVE ( 'NONE', #923, #910, #678, .T. ) ;
#606 = EDGE_CURVE ( 'NONE', #646, #343, #1065, .T. ) ;
#607 = CARTESIAN_POINT ( 'NONE',  ( 30.00000000000000000, 0.000000000000000000, 4.999999999999994671 ) ) ;
#608 = APPLICATION_CONTEXT ( 'automotive_design' ) ;
#609 = DIRECTION ( 'NONE',  ( 0.000000000000000000, 0.000000000000000000, -1.000000000000000000 ) ) ;
#610 = ORIENTED_EDGE ( 'NONE', *, *, #510, .F. ) ;
#611 = CARTESIAN_POINT ( 'NONE',  ( -9.999999999999998224, 0.5000000000000001110, 3.775643679511809570 ) ) ;
#612 = EDGE_LOOP ( 'NONE', ( #990, #234, #1018, #926, #687, #702 ) ) ;
#613 = DIRECTION ( 'NONE',  ( 0.000000000000000000, 0.000000000000000000, -1.000000000000000000 ) ) ;
#614 = CIRCLE ( 'NONE', #291, 3.349999999999999201 ) ;
#615 = AXIS2_PLACEMENT_3D ( 'NONE', #345, #689, #918 ) ;
#616 = EDGE_CURVE ( 'NONE', #9, #1089, #102, .T. ) ;
#617 = DIRECTION ( 'NONE',  ( 0.000000000000000000, -1.000000000000000000, 0.000000000000000000 ) ) ;
#618 = EDGE_CURVE ( 'NONE', #828, #941, #902, .T. ) ;
#619 = DIRECTION ( 'NONE',  ( 0.000000000000000000, 0.000000000000000000, 1.000000000000000000 ) ) ;
#620 = CARTESIAN_POINT ( 'NONE',  ( -9.999999999999998224, 3.334478334024252977, 0.000000000000000000 ) ) ;
#621 = AXIS2_PLACEMENT_3D ( 'NONE', #706, #782, #193 ) ;
#622 = DIRECTION ( 'NONE',  ( 0.000000000000000000, 1.000000000000000000, 0.000000000000000000 ) ) ;
#623 = ORIENTED_EDGE ( 'NONE', *, *, #1012, .F. ) ;
#624 = CARTESIAN_POINT ( 'NONE',  ( 0.000000000000000000, -2.000000000000000000, -4.628314976684542407E-16 ) ) ;
#625 = CARTESIAN_POINT ( 'NONE',  ( -9.999999999999998224, 3.500000000000000000, 4.275643679511810014 ) ) ;
#626 = VERTEX_POINT ( 'NONE', #426 ) ;
#627 = CARTESIAN_POINT ( 'NONE',  ( -13.80383590287749485, 3.334478334024252977, 0.000000000000000000 ) ) ;
#628 = CARTESIAN_POINT ( 'NONE',  ( -9.999999999999998224, 0.000000000000000000, -4.275643679511810014 ) ) ;
#629 = DIRECTION ( 'NONE',  ( -0.000000000000000000, 1.000000000000000000, -0.000000000000000000 ) ) ;
#630 = DIRECTION ( 'NONE',  ( -0.000000000000000000, 1.000000000000000000, -0.000000000000000000 ) ) ;
#631 = EDGE_CURVE ( 'NONE', #140, #428, #83, .T. ) ;
#632 = CARTESIAN_POINT ( 'NONE',  ( -9.999999999999998224, 3.500000000000000000, 0.000000000000000000 ) ) ;
#633 = VERTEX_POINT ( 'NONE', #159 ) ;
#634 = AXIS2_PLACEMENT_3D ( 'NONE', #112, #475, #401 ) ;
#635 = AXIS2_PLACEMENT_3D ( 'NONE', #690, #1002, #237 ) ;
#636 = CARTESIAN_POINT ( 'NONE',  ( 21.00000000000000000, 0.000000000000000000, -1.500000000000000666 ) ) ;
#637 = AXIS2_PLACEMENT_3D ( 'NONE', #571, #122, #726 ) ;
#638 = CARTESIAN_POINT ( 'NONE',  ( 0.000000000000000000, 0.000000000000000000, 0.000000000000000000 ) ) ;
#639 = DIRECTION ( 'NONE',  ( -0.000000000000000000, 1.000000000000000000, 1.224646799147353454E-16 ) ) ;
#640 = PRODUCT_CONTEXT ( 'NONE', #951, 'mechanical' ) ;
#641 = DIRECTION ( 'NONE',  ( -1.000000000000000000, -0.000000000000000000, -0.000000000000000000 ) ) ;
#642 = ADVANCED_FACE ( 'NONE', ( #1006 ), #173, .F. ) ;
#643 = AXIS2_PLACEMENT_3D ( 'NONE', #218, #891, #201 ) ;
#644 = TOROIDAL_SURFACE ( 'NONE', #887, 4.275643679511810014, 0.5000000000000000000 ) ;
#645 = EDGE_CURVE ( 'NONE', #403, #221, #938, .T. ) ;
#646 = VERTEX_POINT ( 'NONE', #325 ) ;
#647 = ORIENTED_EDGE ( 'NONE', *, *, #233, .T. ) ;
#648 = APPLICATION_PROTOCOL_DEFINITION ( 'draft international standard', 'automotive_design', 1998, #608 ) ;
#649 = DIRECTION ( 'NONE',  ( 0.000000000000000000, 0.000000000000000000, -1.000000000000000000 ) ) ;
#650 = CYLINDRICAL_SURFACE ( 'NONE', #602, 1.500000000000000666 ) ;
#651 = EDGE_LOOP ( 'NONE', ( #360, #1004, #82, #1068 ) ) ;
#652 = LINE ( 'NONE', #131, #407 ) ;
#653 = SURFACE_SIDE_STYLE ('',( #306 ) ) ;
#654 = EDGE_LOOP ( 'NONE', ( #176, #289 ) ) ;
#655 = PRODUCT_DEFINITION_CONTEXT ( 'detailed design', #793, 'design' ) ;
#656 = EDGE_LOOP ( 'NONE', ( #402, #512, #758, #460 ) ) ;
#657 = SHAPE_REPRESENTATION ( 'Steering-Servo-Arm-2', ( #584 ), #718 ) ;
#658 = CIRCLE ( 'NONE', #829, 4.000000000000000000 ) ;
#659 = DIRECTION ( 'NONE',  ( 0.000000000000000000, 0.000000000000000000, 1.000000000000000000 ) ) ;
#660 = DIRECTION ( 'NONE',  ( 1.000000000000000000, 0.000000000000000000, 0.000000000000000000 ) ) ;
#661 = CIRCLE ( 'NONE', #388, 0.5000000000000000000 ) ;
#662 = ORIENTED_EDGE ( 'NONE', *, *, #400, .T. ) ;
#663 = PRODUCT_DEFINITION_SHAPE ( 'NONE', 'NONE',  #109 ) ;
#664 = CIRCLE ( 'NONE', #803, 3.803835902877497066 ) ;
#665 = AXIS2_PLACEMENT_3D ( 'NONE', #39, #294, #716 ) ;
#666 = DIRECTION ( 'NONE',  ( -1.000000000000000000, 0.000000000000000000, 1.084202172485504434E-16 ) ) ;
#667 = CARTESIAN_POINT ( 'NONE',  ( 1008.108822852373123, 1074.003723941743374, -52.36267542932182550 ) ) ;
#668 = ORIENTED_EDGE ( 'NONE', *, *, #386, .F. ) ;
#669 = VERTEX_POINT ( 'NONE', #78 ) ;
#670 = DIRECTION ( 'NONE',  ( 0.000000000000000000, 1.000000000000000000, 1.224646799147353454E-16 ) ) ;
#671 = ORIENTED_EDGE ( 'NONE', *, *, #1048, .F. ) ;
#672 = DIRECTION ( 'NONE',  ( 0.000000000000000000, 0.000000000000000000, -1.000000000000000000 ) ) ;
#673 = EDGE_CURVE ( 'NONE', #688, #904, #600, .T. ) ;
#674 = ORIENTED_EDGE ( 'NONE', *, *, #158, .T. ) ;
#675 = CARTESIAN_POINT ( 'NONE',  ( 0.000000000000000000, -2.000000000000000000, -4.628314976684542407E-16 ) ) ;
#676 = CARTESIAN_POINT ( 'NONE',  ( 0.000000000000000000, 3.999999999999999112, 4.898587196589412829E-16 ) ) ;
#677 = PLANE ( 'NONE',  #735 ) ;
#678 = CIRCLE ( 'NONE', #698, 3.803835902877497066 ) ;
#679 = ADVANCED_FACE ( 'NONE', ( #165 ), #497, .F. ) ;
#680 = ORIENTED_EDGE ( 'NONE', *, *, #12, .T. ) ;
#681 = EDGE_CURVE ( 'NONE', #170, #544, #882, .T. ) ;
#682 = PRODUCT_DEFINITION ( 'UNKNOWN', '', #1013, #114 ) ;
#683 = CARTESIAN_POINT ( 'NONE',  ( 0.000000000000000000, -8.000000000000000000, -1.197619577156866412E-15 ) ) ;
#684 = CIRCLE ( 'NONE', #564, 1.500000000000000666 ) ;
#685 = CIRCLE ( 'NONE', #215, 3.349999999999999201 ) ;
#686 = DIRECTION ( 'NONE',  ( 0.000000000000000000, 0.000000000000000000, 1.000000000000000000 ) ) ;
#687 = ORIENTED_EDGE ( 'NONE', *, *, #270, .T. ) ;
#688 = VERTEX_POINT ( 'NONE', #235 ) ;
#689 = DIRECTION ( 'NONE',  ( 0.000000000000000000, 1.000000000000000000, 0.000000000000000000 ) ) ;
#690 = CARTESIAN_POINT ( 'NONE',  ( 21.00000000000000000, 4.000000000000000000, 0.000000000000000000 ) ) ;
#691 = PRODUCT ( 'Steering Servo Arm #2', 'Steering Servo Arm #2', '', ( #640 ) ) ;
#692 = EDGE_LOOP ( 'NONE', ( #680, #446, #326, #308 ) ) ;
#693 = ORIENTED_EDGE ( 'NONE', *, *, #49, .F. ) ;
#694 = DIRECTION ( 'NONE',  ( -0.000000000000000000, 1.000000000000000000, 1.224646799147353454E-16 ) ) ;
#695 = DIRECTION ( 'NONE',  ( 0.000000000000000000, 0.000000000000000000, -1.000000000000000000 ) ) ;
#696 = DIRECTION ( 'NONE',  ( 0.000000000000000000, 0.000000000000000000, -1.000000000000000000 ) ) ;
#697 = ORIENTED_EDGE ( 'NONE', *, *, #616, .F. ) ;
#698 = AXIS2_PLACEMENT_3D ( 'NONE', #406, #253, #486 ) ;
#699 = CARTESIAN_POINT ( 'NONE',  ( 0.000000000000000000, 3.999999999999999112, 4.898587196589412829E-16 ) ) ;
#700 = CARTESIAN_POINT ( 'NONE',  ( 0.000000000000000000, 3.999999999999999112, -3.350000000000000533 ) ) ;
#701 = VECTOR ( 'NONE', #725, 1000.000000000000000 ) ;
#702 = ORIENTED_EDGE ( 'NONE', *, *, #740, .T. ) ;
#703 = FACE_OUTER_BOUND ( 'NONE', #857, .T. ) ;
#704 = DIRECTION ( 'NONE',  ( 0.000000000000000000, 0.000000000000000000, 1.000000000000000000 ) ) ;
#705 = ORIENTED_EDGE ( 'NONE', *, *, #432, .T. ) ;
#706 = CARTESIAN_POINT ( 'NONE',  ( -9.999999999999998224, 0.000000000000000000, 0.000000000000000000 ) ) ;
#707 = EDGE_CURVE ( 'NONE', #941, #626, #365, .T. ) ;
#708 = DIRECTION ( 'NONE',  ( -0.000000000000000000, 1.000000000000000000, 0.000000000000000000 ) ) ;
#709 = DIRECTION ( 'NONE',  ( -0.000000000000000000, 1.000000000000000000, -0.000000000000000000 ) ) ;
#710 =( GEOMETRIC_REPRESENTATION_CONTEXT ( 3 ) GLOBAL_UNCERTAINTY_ASSIGNED_CONTEXT ( ( #483 ) ) GLOBAL_UNIT_ASSIGNED_CONTEXT ( ( #1076, #461, #894 ) ) REPRESENTATION_CONTEXT ( 'NONE', 'WORKASPACE' ) );
#711 = LINE ( 'NONE', #852, #22 ) ;
#712 = VERTEX_POINT ( 'NONE', #179 ) ;
#713 = CIRCLE ( 'NONE', #849, 3.350000000000000977 ) ;
#714 = CARTESIAN_POINT ( 'NONE',  ( -9.999999999999998224, 3.500000000000000000, 0.000000000000000000 ) ) ;
#715 = AXIS2_PLACEMENT_3D ( 'NONE', #427, #945, #775 ) ;
#716 = DIRECTION ( 'NONE',  ( 0.000000000000000000, 0.000000000000000000, -1.000000000000000000 ) ) ;
#717 = CIRCLE ( 'NONE', #818, 4.275643679511810014 ) ;
#718 =( GEOMETRIC_REPRESENTATION_CONTEXT ( 3 ) GLOBAL_UNCERTAINTY_ASSIGNED_CONTEXT ( ( #553 ) ) GLOBAL_UNIT_ASSIGNED_CONTEXT ( ( #484, #340, #162 ) ) REPRESENTATION_CONTEXT ( 'NONE', 'WORKASPACE' ) );
#719 = DIRECTION ( 'NONE',  ( 0.000000000000000000, 0.000000000000000000, 1.000000000000000000 ) ) ;
#720 = ORIENTED_EDGE ( 'NONE', *, *, #673, .F. ) ;
#721 = FACE_OUTER_BOUND ( 'NONE', #495, .T. ) ;
#722 = EDGE_CURVE ( 'NONE', #892, #371, #203, .T. ) ;
#723 = PLANE ( 'NONE',  #280 ) ;
#724 = FACE_OUTER_BOUND ( 'NONE', #300, .T. ) ;
#725 = DIRECTION ( 'NONE',  ( -0.000000000000000000, 1.000000000000000000, -0.000000000000000000 ) ) ;
#726 = DIRECTION ( 'NONE',  ( 0.000000000000000000, 0.000000000000000000, 1.000000000000000000 ) ) ;
#727 = EDGE_CURVE ( 'NONE', #544, #669, #950, .T. ) ;
#728 = EDGE_CURVE ( 'NONE', #343, #646, #713, .T. ) ;
#729 = ORIENTED_EDGE ( 'NONE', *, *, #681, .T. ) ;
#730 = CARTESIAN_POINT ( 'NONE',  ( -9.999999999999998224, 4.000000000000000000, 0.000000000000000000 ) ) ;
#731 = DIRECTION ( 'NONE',  ( -1.000000000000000000, -0.000000000000000000, -0.000000000000000000 ) ) ;
#732 = EDGE_LOOP ( 'NONE', ( #490, #252, #623, #749 ) ) ;
#733 = PLANE ( 'NONE',  #247 ) ;
#734 = DIRECTION ( 'NONE',  ( -0.000000000000000000, 1.000000000000000000, -0.000000000000000000 ) ) ;
#735 = AXIS2_PLACEMENT_3D ( 'NONE', #603, #854, #3 ) ;
#736 = AXIS2_PLACEMENT_3D ( 'NONE', #1045, #256, #435 ) ;
#737 = EDGE_LOOP ( 'NONE', ( #599, #953, #90, #745, #814 ) ) ;
#738 = DIRECTION ( 'NONE',  ( -0.000000000000000000, 1.000000000000000000, -0.000000000000000000 ) ) ;
#739 = DIRECTION ( 'NONE',  ( -0.000000000000000000, 1.000000000000000000, -0.000000000000000000 ) ) ;
#740 = EDGE_CURVE ( 'NONE', #477, #923, #992, .T. ) ;
#741 = ORIENTED_EDGE ( 'NONE', *, *, #532, .F. ) ;
#742 = ADVANCED_FACE ( 'NONE', ( #546 ), #53, .F. ) ;
#743 = DIRECTION ( 'NONE',  ( -0.000000000000000000, -1.000000000000000000, -1.224646799147353454E-16 ) ) ;
#744 = VERTEX_POINT ( 'NONE', #628 ) ;
#745 = ORIENTED_EDGE ( 'NONE', *, *, #30, .F. ) ;
#746 = PRESENTATION_LAYER_ASSIGNMENT (  '', '', ( #761 ) ) ;
#747 = DIRECTION ( 'NONE',  ( 0.000000000000000000, 0.000000000000000000, 1.000000000000000000 ) ) ;
#748 = AXIS2_PLACEMENT_3D ( 'NONE', #853, #928, #830 ) ;
#749 = ORIENTED_EDGE ( 'NONE', *, *, #707, .F. ) ;
#750 = DIRECTION ( 'NONE',  ( -0.000000000000000000, 1.000000000000000000, 1.224646799147353454E-16 ) ) ;
#751 = EDGE_CURVE ( 'NONE', #988, #52, #717, .T. ) ;
#752 = ORIENTED_EDGE ( 'NONE', *, *, #773, .T. ) ;
#753 = DIRECTION ( 'NONE',  ( -0.000000000000000000, 1.000000000000000000, -0.000000000000000000 ) ) ;
#754 = DIRECTION ( 'NONE',  ( 0.000000000000000000, 0.000000000000000000, -1.000000000000000000 ) ) ;
#755 = EDGE_CURVE ( 'NONE', #828, #908, #396, .T. ) ;
#756 = DIRECTION ( 'NONE',  ( 0.000000000000000000, 0.000000000000000000, 1.000000000000000000 ) ) ;
#757 = EDGE_CURVE ( 'NONE', #927, #4, #652, .T. ) ;
#758 = ORIENTED_EDGE ( 'NONE', *, *, #909, .T. ) ;
#759 = CYLINDRICAL_SURFACE ( 'NONE', #615, 1.000000000000000000 ) ;
#760 = ADVANCED_BREP_SHAPE_REPRESENTATION ( '', ( #449, #584 ), #768 ) ;
#761 = STYLED_ITEM ( 'NONE', ( #987 ), #449 ) ;
#762 = FACE_BOUND ( 'NONE', #654, .T. ) ;
#763 = SHAPE_REPRESENTATION_RELATIONSHIP ( 'NONE' , 'NONE' ,  #657, #398 ) ;
#764 = ORIENTED_EDGE ( 'NONE', *, *, #1033, .F. ) ;
#765 = ORIENTED_EDGE ( 'NONE', *, *, #631, .T. ) ;
#766 = DIRECTION ( 'NONE',  ( 0.000000000000000000, 1.000000000000000000, 0.000000000000000000 ) ) ;
#767 = AXIS2_PLACEMENT_3D ( 'NONE', #95, #961, #88 ) ;
#768 =( GEOMETRIC_REPRESENTATION_CONTEXT ( 3 ) GLOBAL_UNCERTAINTY_ASSIGNED_CONTEXT ( ( #392 ) ) GLOBAL_UNIT_ASSIGNED_CONTEXT ( ( #154, #244, #313 ) ) REPRESENTATION_CONTEXT ( 'NONE', 'WORKASPACE' ) );
#769 = FACE_BOUND ( 'NONE', #819, .T. ) ;
#770 = ORIENTED_EDGE ( 'NONE', *, *, #438, .F. ) ;
#771 = PLANE ( 'NONE',  #872 ) ;
#772 = ORIENTED_EDGE ( 'NONE', *, *, #468, .T. ) ;
#773 = EDGE_CURVE ( 'NONE', #9, #1009, #147, .T. ) ;
#774 = CARTESIAN_POINT ( 'NONE',  ( 0.000000000000000000, -8.000000000000000000, -1.197619577156866412E-15 ) ) ;
#775 = DIRECTION ( 'NONE',  ( 0.000000000000000000, 0.000000000000000000, -1.000000000000000000 ) ) ;
#776 = ORIENTED_EDGE ( 'NONE', *, *, #807, .T. ) ;
#777 = ORIENTED_EDGE ( 'NONE', *, *, #97, .T. ) ;
#778 = AXIS2_PLACEMENT_3D ( 'NONE', #454, #972, #952 ) ;
#779 = VERTEX_POINT ( 'NONE', #1090 ) ;
#780 = AXIS2_PLACEMENT_3D ( 'NONE', #960, #531, #444 ) ;
#781 = AXIS2_PLACEMENT_3D ( 'NONE', #1060, #414, #7 ) ;
#782 = DIRECTION ( 'NONE',  ( -0.000000000000000000, 1.000000000000000000, -0.000000000000000000 ) ) ;
#783 = CARTESIAN_POINT ( 'NONE',  ( 30.00000000000000000, 4.000000000000000000, 5.999999999999994671 ) ) ;
#784 = AXIS2_PLACEMENT_3D ( 'NONE', #19, #357, #1034 ) ;
#785 = VERTEX_POINT ( 'NONE', #331 ) ;
#786 = EDGE_CURVE ( 'NONE', #562, #187, #685, .T. ) ;
#787 = CARTESIAN_POINT ( 'NONE',  ( 30.00000000000000000, 0.000000000000000000, -6.000000000000004441 ) ) ;
#788 = DIRECTION ( 'NONE',  ( 0.000000000000000000, 0.000000000000000000, -1.000000000000000000 ) ) ;
#789 = CARTESIAN_POINT ( 'NONE',  ( 0.000000000000000000, -8.000000000000000000, 1.749999999999998668 ) ) ;
#790 = CARTESIAN_POINT ( 'NONE',  ( 0.000000000000000000, 3.999999999999999112, -3.350000000000000533 ) ) ;
#791 = EDGE_CURVE ( 'NONE', #562, #428, #358, .T. ) ;
#792 = ORIENTED_EDGE ( 'NONE', *, *, #386, .T. ) ;
#793 = APPLICATION_CONTEXT ( 'automotive_design' ) ;
#794 = CARTESIAN_POINT ( 'NONE',  ( 0.000000000000000000, 3.999999999999999112, 4.898587196589412829E-16 ) ) ;
#795 = CARTESIAN_POINT ( 'NONE',  ( 2.143131898507868297E-16, -8.000000000000000000, -1.750000000000001332 ) ) ;
#796 = ORIENTED_EDGE ( 'NONE', *, *, #356, .T. ) ;
#797 = DIRECTION ( 'NONE',  ( 0.000000000000000000, 0.000000000000000000, 1.000000000000000000 ) ) ;
#798 = VERTEX_POINT ( 'NONE', #867 ) ;
#799 = DIRECTION ( 'NONE',  ( 0.000000000000000000, 1.000000000000000000, 1.224646799147353454E-16 ) ) ;
#800 =( NAMED_UNIT ( * ) SI_UNIT ( $, .STERADIAN. ) SOLID_ANGLE_UNIT ( ) );
#801 = CARTESIAN_POINT ( 'NONE',  ( 21.00000000000000000, 0.000000000000000000, 0.000000000000000000 ) ) ;
#802 = APPLICATION_CONTEXT ( 'automotive_design' ) ;
#803 = AXIS2_PLACEMENT_3D ( 'NONE', #937, #842, #1078 ) ;
#804 = FACE_OUTER_BOUND ( 'NONE', #330, .T. ) ;
#805 = AXIS2_PLACEMENT_3D ( 'NONE', #447, #213, #1049 ) ;
#806 = CARTESIAN_POINT ( 'NONE',  ( 4.102566777143633281E-16, 1.999999999999999556, -3.350000000000000533 ) ) ;
#807 = EDGE_CURVE ( 'NONE', #371, #633, #341, .T. ) ;
#808 = CYLINDRICAL_SURFACE ( 'NONE', #996, 3.350000000000000977 ) ;
#809 = ORIENTED_EDGE ( 'NONE', *, *, #645, .T. ) ;
#810 = ORIENTED_EDGE ( 'NONE', *, *, #755, .T. ) ;
#811 = DIRECTION ( 'NONE',  ( -1.000000000000000000, -0.000000000000000000, -0.000000000000000000 ) ) ;
#812 = AXIS2_PLACEMENT_3D ( 'NONE', #794, #1056, #613 ) ;
#813 = ORIENTED_EDGE ( 'NONE', *, *, #394, .F. ) ;
#814 = ORIENTED_EDGE ( 'NONE', *, *, #160, .F. ) ;
#815 = PRODUCT_CONTEXT ( 'NONE', #40, 'mechanical' ) ;
#816 = CARTESIAN_POINT ( 'NONE',  ( 28.00000000000000000, 4.000000000000000000, -1.500000000000000666 ) ) ;
#817 = ADVANCED_FACE ( 'NONE', ( #364, #1037 ), #771, .T. ) ;
#818 = AXIS2_PLACEMENT_3D ( 'NONE', #730, #1067, #901 ) ;
#819 = EDGE_LOOP ( 'NONE', ( #481, #1036 ) ) ;
#820 =( GEOMETRIC_REPRESENTATION_CONTEXT ( 3 ) GLOBAL_UNCERTAINTY_ASSIGNED_CONTEXT ( ( #134 ) ) GLOBAL_UNIT_ASSIGNED_CONTEXT ( ( #915, #297, #800 ) ) REPRESENTATION_CONTEXT ( 'NONE', 'WORKASPACE' ) );
#821 = CARTESIAN_POINT ( 'NONE',  ( 28.00000000000000000, 0.000000000000000000, 0.000000000000000000 ) ) ;
#822 = CARTESIAN_POINT ( 'NONE',  ( -9.999999999999998224, 0.5000000000000001110, 0.000000000000000000 ) ) ;
#823 = MANIFOLD_SOLID_BREP ( 'Fillet4', #192 ) ;
#824 = CYLINDRICAL_SURFACE ( 'NONE', #57, 4.000000000000000000 ) ;
#825 = VERTEX_POINT ( 'NONE', #269 ) ;
#826 = CARTESIAN_POINT ( 'NONE',  ( 28.00000000000000000, 0.000000000000000000, -1.500000000000000666 ) ) ;
#827 = DIRECTION ( 'NONE',  ( 0.000000000000000000, -1.000000000000000000, 0.000000000000000000 ) ) ;
#828 = VERTEX_POINT ( 'NONE', #787 ) ;
#829 = AXIS2_PLACEMENT_3D ( 'NONE', #366, #433, #609 ) ;
#830 = DIRECTION ( 'NONE',  ( 0.000000000000000000, 0.000000000000000000, -1.000000000000000000 ) ) ;
#831 = FACE_BOUND ( 'NONE', #391, .T. ) ;
#832 = EDGE_LOOP ( 'NONE', ( #939, #900, #185, #347, #130, #148 ) ) ;
#833 = EDGE_CURVE ( 'NONE', #868, #828, #501, .T. ) ;
#834 = ORIENTED_EDGE ( 'NONE', *, *, #791, .F. ) ;
#835 = CARTESIAN_POINT ( 'NONE',  ( 16.00000000000000000, 4.000000000000000000, 5.999999999999996447 ) ) ;
#836 = EDGE_CURVE ( 'NONE', #323, #384, #921, .T. ) ;
#837 = FACE_OUTER_BOUND ( 'NONE', #314, .T. ) ;
#838 = PRODUCT_RELATED_PRODUCT_CATEGORY ( 'part', '', ( #691 ) ) ;
#839 = EDGE_LOOP ( 'NONE', ( #264, #163, #1007, #105 ) ) ;
#840 = ORIENTED_EDGE ( 'NONE', *, *, #786, .F. ) ;
#841 = DIRECTION ( 'NONE',  ( -1.224646799147353207E-16, -5.311058880651918365E-32, 1.000000000000000000 ) ) ;
#842 = DIRECTION ( 'NONE',  ( 0.000000000000000000, -1.000000000000000000, 0.000000000000000000 ) ) ;
#843 = PRODUCT_DEFINITION_SHAPE ( 'NONE', 'NONE',  #1093 ) ;
#844 = VERTEX_POINT ( 'NONE', #24 ) ;
#845 = ORIENTED_EDGE ( 'NONE', *, *, #1028, .F. ) ;
#846 = CARTESIAN_POINT ( 'NONE',  ( 0.000000000000000000, 1.999999999999999112, 2.702722199048697746E-17 ) ) ;
#847 = AXIS2_PLACEMENT_3D ( 'NONE', #714, #27, #884 ) ;
#848 = CARTESIAN_POINT ( 'NONE',  ( 0.000000000000000000, 0.000000000000000000, -2.179021378389835993E-16 ) ) ;
#849 = AXIS2_PLACEMENT_3D ( 'NONE', #699, #799, #374 ) ;
#850 = FILL_AREA_STYLE ('',( #186 ) ) ;
#851 = ORIENTED_EDGE ( 'NONE', *, *, #158, .F. ) ;
#852 = CARTESIAN_POINT ( 'NONE',  ( -12.00000000000000000, 4.000000000000000000, 6.000000000000000000 ) ) ;
#853 = CARTESIAN_POINT ( 'NONE',  ( -9.999999999999998224, 0.5000000000000001110, 0.000000000000000000 ) ) ;
#854 = DIRECTION ( 'NONE',  ( 0.000000000000000000, 1.000000000000000000, 1.224646799147353454E-16 ) ) ;
#855 = LINE ( 'NONE', #931, #336 ) ;
#856 = DIRECTION ( 'NONE',  ( 0.000000000000000000, 0.000000000000000000, 1.000000000000000000 ) ) ;
#857 = EDGE_LOOP ( 'NONE', ( #697, #752, #1017, #764 ) ) ;
#858 = DIRECTION ( 'NONE',  ( 1.000000000000000000, 0.000000000000000000, 0.000000000000000000 ) ) ;
#859 = ORIENTED_EDGE ( 'NONE', *, *, #418, .F. ) ;
#860 = SPHERICAL_SURFACE ( 'NONE', #784, 4.031128874149275454 ) ;
#861 = EDGE_CURVE ( 'NONE', #844, #1074, #963, .T. ) ;
#862 = TOROIDAL_SURFACE ( 'NONE', #847, 4.275643679511810014, 0.5000000000000000000 ) ;
#863 = DIRECTION ( 'NONE',  ( -0.000000000000000000, 1.000000000000000000, -0.000000000000000000 ) ) ;
#864 = CIRCLE ( 'NONE', #637, 1.749999999999999778 ) ;
#865 = CIRCLE ( 'NONE', #991, 4.031128874149275454 ) ;
#866 = CARTESIAN_POINT ( 'NONE',  ( -9.999999999999998224, 0.6655216659757472453, 0.000000000000000000 ) ) ;
#867 = CARTESIAN_POINT ( 'NONE',  ( 21.00000000000000000, 0.000000000000000000, 1.500000000000000666 ) ) ;
#868 = VERTEX_POINT ( 'NONE', #508 ) ;
#869 = DIRECTION ( 'NONE',  ( -0.000000000000000000, 1.000000000000000000, -0.000000000000000000 ) ) ;
#870 = ADVANCED_FACE ( 'NONE', ( #703 ), #513, .F. ) ;
#871 = CARTESIAN_POINT ( 'NONE',  ( -12.00000000000000000, 4.000000000000000000, -5.999999999999999112 ) ) ;
#872 = AXIS2_PLACEMENT_3D ( 'NONE', #103, #528, #263 ) ;
#873 = EDGE_CURVE ( 'NONE', #744, #434, #6, .T. ) ;
#874 = DIRECTION ( 'NONE',  ( -0.000000000000000000, -1.000000000000000000, -0.000000000000000000 ) ) ;
#875 = DIRECTION ( 'NONE',  ( -0.000000000000000000, 1.000000000000000000, 0.000000000000000000 ) ) ;
#876 = CARTESIAN_POINT ( 'NONE',  ( 30.00000000000000000, 4.000000000000000000, -5.000000000000004441 ) ) ;
#877 = ORIENTED_EDGE ( 'NONE', *, *, #836, .F. ) ;
#878 = LINE ( 'NONE', #267, #1041 ) ;
#879 = FACE_OUTER_BOUND ( 'NONE', #469, .T. ) ;
#880 = AXIS2_PLACEMENT_3D ( 'NONE', #292, #906, #552 ) ;
#881 = ADVANCED_FACE ( 'NONE', ( #367 ), #598, .F. ) ;
#882 = CIRCLE ( 'NONE', #315, 4.000000000000000000 ) ;
#883 = PRODUCT_RELATED_PRODUCT_CATEGORY ( 'part', '', ( #318 ) ) ;
#884 = DIRECTION ( 'NONE',  ( 0.000000000000000000, 0.000000000000000000, -1.000000000000000000 ) ) ;
#885 = CIRCLE ( 'NONE', #715, 0.5000000000000000000 ) ;
#886 = DIRECTION ( 'NONE',  ( 1.000000000000000000, 0.000000000000000000, -1.355252715606880543E-16 ) ) ;
#887 = AXIS2_PLACEMENT_3D ( 'NONE', #276, #617, #281 ) ;
#888 = ORIENTED_EDGE ( 'NONE', *, *, #394, .T. ) ;
#889 = DIRECTION ( 'NONE',  ( 0.000000000000000000, 0.000000000000000000, 1.000000000000000000 ) ) ;
#890 = CARTESIAN_POINT ( 'NONE',  ( -16.00000000000000000, 4.000000000000000000, -1.999999999999999112 ) ) ;
#891 = DIRECTION ( 'NONE',  ( 0.000000000000000000, -1.000000000000000000, 0.000000000000000000 ) ) ;
#892 = VERTEX_POINT ( 'NONE', #169 ) ;
#893 = DIRECTION ( 'NONE',  ( -1.000000000000000000, 0.000000000000000000, 1.355252715606880543E-16 ) ) ;
#894 =( NAMED_UNIT ( * ) SI_UNIT ( $, .STERADIAN. ) SOLID_ANGLE_UNIT ( ) );
#895 = ADVANCED_FACE ( 'NONE', ( #424 ), #860, .F. ) ;
#896 = FACE_OUTER_BOUND ( 'NONE', #419, .T. ) ;
#897 = CARTESIAN_POINT ( 'NONE',  ( 31.00000000000000000, 0.000000000000000000, -5.000000000000004441 ) ) ;
#898 = FACE_OUTER_BOUND ( 'NONE', #519, .T. ) ;
#899 = TOROIDAL_SURFACE ( 'NONE', #116, 4.275643679511810014, 0.5000000000000000000 ) ;
#900 = ORIENTED_EDGE ( 'NONE', *, *, #532, .T. ) ;
#901 = DIRECTION ( 'NONE',  ( 0.000000000000000000, 0.000000000000000000, -1.000000000000000000 ) ) ;
#902 = CIRCLE ( 'NONE', #1044, 1.000000000000000000 ) ;
#903 = DIRECTION ( 'NONE',  ( 0.000000000000000000, 1.000000000000000000, 0.000000000000000000 ) ) ;
#904 = VERTEX_POINT ( 'NONE', #611 ) ;
#905 = ORIENTED_EDGE ( 'NONE', *, *, #120, .F. ) ;
#906 = DIRECTION ( 'NONE',  ( 0.000000000000000000, 1.000000000000000000, 0.000000000000000000 ) ) ;
#907 = DIRECTION ( 'NONE',  ( 0.000000000000000000, 0.000000000000000000, 1.000000000000000000 ) ) ;
#908 = VERTEX_POINT ( 'NONE', #940 ) ;
#909 = EDGE_CURVE ( 'NONE', #1074, #52, #321, .T. ) ;
#910 = VERTEX_POINT ( 'NONE', #1061 ) ;
#911 = CARTESIAN_POINT ( 'NONE',  ( -12.00000000000000000, 0.000000000000000000, 1.999999999999999556 ) ) ;
#912 = ORIENTED_EDGE ( 'NONE', *, *, #305, .T. ) ;
#913 = ORIENTED_EDGE ( 'NONE', *, *, #1012, .T. ) ;
#914 = AXIS2_PLACEMENT_3D ( 'NONE', #98, #412, #756 ) ;
#915 =( LENGTH_UNIT ( ) NAMED_UNIT ( * ) SI_UNIT ( .MILLI., .METRE. ) );
#916 = ADVANCED_FACE ( 'NONE', ( #555 ), #808, .T. ) ;
#917 = AXIS2_PLACEMENT_3D ( 'NONE', #117, #863, #439 ) ;
#918 = DIRECTION ( 'NONE',  ( 0.000000000000000000, 0.000000000000000000, 1.000000000000000000 ) ) ;
#919 = CARTESIAN_POINT ( 'NONE',  ( 31.00000000000000000, 0.000000000000000000, 6.000000000000000000 ) ) ;
#920 = ORIENTED_EDGE ( 'NONE', *, *, #81, .T. ) ;
#921 = CIRCLE ( 'NONE', #543, 3.803835902877497066 ) ;
#922 = AXIS2_PLACEMENT_3D ( 'NONE', #411, #2, #74 ) ;
#923 = VERTEX_POINT ( 'NONE', #385 ) ;
#924 = CARTESIAN_POINT ( 'NONE',  ( 28.00000000000000000, 0.000000000000000000, 0.000000000000000000 ) ) ;
#925 = PLANE ( 'NONE',  #246 ) ;
#926 = ORIENTED_EDGE ( 'NONE', *, *, #551, .T. ) ;
#927 = VERTEX_POINT ( 'NONE', #890 ) ;
#928 = DIRECTION ( 'NONE',  ( 0.000000000000000000, -1.000000000000000000, 0.000000000000000000 ) ) ;
#929 = EDGE_CURVE ( 'NONE', #4, #908, #441, .T. ) ;
#930 = PRODUCT_DEFINITION_SHAPE ( 'NONE', 'NONE',  #682 ) ;
#931 = CARTESIAN_POINT ( 'NONE',  ( 16.00000000000000000, 0.000000000000000000, 5.999999999999996447 ) ) ;
#932 = CARTESIAN_POINT ( 'NONE',  ( 28.00000000000000000, 0.000000000000000000, 0.000000000000000000 ) ) ;
#933 = ORIENTED_EDGE ( 'NONE', *, *, #673, .T. ) ;
#934 = DIRECTION ( 'NONE',  ( 0.000000000000000000, 0.000000000000000000, 1.000000000000000000 ) ) ;
#935 = VECTOR ( 'NONE', #738, 1000.000000000000000 ) ;
#936 = DIRECTION ( 'NONE',  ( 0.000000000000000000, -0.000000000000000000, -1.000000000000000000 ) ) ;
#937 = CARTESIAN_POINT ( 'NONE',  ( -9.999999999999998224, 0.6655216659757472453, 0.000000000000000000 ) ) ;
#938 = CIRCLE ( 'NONE', #1083, 1.750000000000000000 ) ;
#939 = ORIENTED_EDGE ( 'NONE', *, *, #30, .T. ) ;
#940 = CARTESIAN_POINT ( 'NONE',  ( -12.00000000000000000, 0.000000000000000000, -5.999999999999999112 ) ) ;
#941 = VERTEX_POINT ( 'NONE', #897 ) ;
#942 = DIRECTION ( 'NONE',  ( 0.000000000000000000, 0.000000000000000000, 1.000000000000000000 ) ) ;
#943 = CIRCLE ( 'NONE', #70, 1.749999999999999778 ) ;
#944 = MECHANICAL_DESIGN_GEOMETRIC_PRESENTATION_REPRESENTATION (  '', ( #156 ), #373 ) ;
#945 = DIRECTION ( 'NONE',  ( 1.000000000000000000, 0.000000000000000000, -1.224646799147353207E-16 ) ) ;
#946 = FACE_BOUND ( 'NONE', #395, .T. ) ;
#947 = ADVANCED_FACE ( 'NONE', ( #804 ), #723, .T. ) ;
#948 = DIRECTION ( 'NONE',  ( 0.000000000000000000, -1.000000000000000000, 0.000000000000000000 ) ) ;
#949 = EDGE_LOOP ( 'NONE', ( #720, #859, #813, #674 ) ) ;
#950 = LINE ( 'NONE', #196, #523 ) ;
#951 = APPLICATION_CONTEXT ( 'automotive_design' ) ;
#952 = DIRECTION ( 'NONE',  ( 0.000000000000000000, 0.000000000000000000, -1.000000000000000000 ) ) ;
#953 = ORIENTED_EDGE ( 'NONE', *, *, #450, .T. ) ;
#954 = CARTESIAN_POINT ( 'NONE',  ( 30.00000000000000000, 0.000000000000000000, -6.000000000000004441 ) ) ;
#955 = EDGE_CURVE ( 'NONE', #626, #892, #1077, .T. ) ;
#956 = ORIENTED_EDGE ( 'NONE', *, *, #97, .F. ) ;
#957 = EDGE_CURVE ( 'NONE', #868, #425, #969, .T. ) ;
#958 = CARTESIAN_POINT ( 'NONE',  ( -9.999999999999998224, 3.500000000000000000, -3.775643679511809570 ) ) ;
#959 = CIRCLE ( 'NONE', #150, 1.750000000000000000 ) ;
#960 = CARTESIAN_POINT ( 'NONE',  ( 0.000000000000000000, 0.000000000000000000, -2.179021378389835993E-16 ) ) ;
#961 = DIRECTION ( 'NONE',  ( 0.000000000000000000, 0.000000000000000000, 1.000000000000000000 ) ) ;
#962 = CARTESIAN_POINT ( 'NONE',  ( 2.143131898507868051E-16, 3.999999999999999112, -1.749999999999999334 ) ) ;
#963 = CIRCLE ( 'NONE', #736, 3.775643679511809570 ) ;
#964 = DIRECTION ( 'NONE',  ( 1.000000000000000000, 0.000000000000000000, 0.000000000000000000 ) ) ;
#965 = EDGE_LOOP ( 'NONE', ( #137, #63, #155, #515 ) ) ;
#966 = DIRECTION ( 'NONE',  ( 0.000000000000000000, -1.000000000000000000, 0.000000000000000000 ) ) ;
#967 = DIRECTION ( 'NONE',  ( 1.000000000000000000, 0.000000000000000000, 0.000000000000000000 ) ) ;
#968 = EDGE_CURVE ( 'NONE', #910, #1074, #1030, .T. ) ;
#969 = LINE ( 'NONE', #979, #1086 ) ;
#970 = ORIENTED_EDGE ( 'NONE', *, *, #722, .F. ) ;
#971 = DIRECTION ( 'NONE',  ( -1.000000000000000000, -0.000000000000000000, -0.000000000000000000 ) ) ;
#972 = DIRECTION ( 'NONE',  ( 0.000000000000000000, -1.000000000000000000, 0.000000000000000000 ) ) ;
#973 = AXIS2_PLACEMENT_3D ( 'NONE', #1026, #261, #307 ) ;
#974 = CONTEXT_DEPENDENT_SHAPE_REPRESENTATION ( #496, #91 ) ;
#975 = ORIENTED_EDGE ( 'NONE', *, *, #270, .F. ) ;
#976 = CARTESIAN_POINT ( 'NONE',  ( -12.00000000000000000, 4.000000000000000000, -5.999999999999999112 ) ) ;
#977 = AXIS2_PLACEMENT_3D ( 'NONE', #85, #593, #936 ) ;
#978 = VECTOR ( 'NONE', #290, 1000.000000000000000 ) ;
#979 = CARTESIAN_POINT ( 'NONE',  ( 16.00000000000000000, 4.000000000000000000, -6.000000000000002665 ) ) ;
#980 = FACE_OUTER_BOUND ( 'NONE', #732, .T. ) ;
#981 = ORIENTED_EDGE ( 'NONE', *, *, #49, .T. ) ;
#982 = EDGE_CURVE ( 'NONE', #477, #844, #296, .T. ) ;
#983 = UNCERTAINTY_MEASURE_WITH_UNIT (LENGTH_MEASURE( 1.000000000000000082E-05 ), #100, 'distance_accuracy_value', 'NONE');
#984 =( REPRESENTATION_RELATIONSHIP ('NONE','NONE', #198, #344 ) REPRESENTATION_RELATIONSHIP_WITH_TRANSFORMATION ( #61 )SHAPE_REPRESENTATION_RELATIONSHIP( ) );
#985 = ORIENTED_EDGE ( 'NONE', *, *, #645, .F. ) ;
#986 = ADVANCED_FACE ( 'NONE', ( #879 ), #733, .F. ) ;
#987 = PRESENTATION_STYLE_ASSIGNMENT (( #1080 ) ) ;
#988 = VERTEX_POINT ( 'NONE', #393 ) ;
#989 = CIRCLE ( 'NONE', #500, 3.775643679511809570 ) ;
#990 = ORIENTED_EDGE ( 'NONE', *, *, #569, .F. ) ;
#991 = AXIS2_PLACEMENT_3D ( 'NONE', #93, #841, #249 ) ;
#992 = CIRCLE ( 'NONE', #260, 3.803835902877497066 ) ;
#993 = CARTESIAN_POINT ( 'NONE',  ( 21.00000000000000000, 4.000000000000000000, 0.000000000000000000 ) ) ;
#994 = ORIENTED_EDGE ( 'NONE', *, *, #1075, .T. ) ;
#995 = SHAPE_DEFINITION_REPRESENTATION ( #1010, #657 ) ;
#996 = AXIS2_PLACEMENT_3D ( 'NONE', #46, #129, #649 ) ;
#997 = ORIENTED_EDGE ( 'NONE', *, *, #727, .T. ) ;
#998 = DIRECTION ( 'NONE',  ( 0.000000000000000000, -1.294569758191646909E-16, 1.000000000000000000 ) ) ;
#999 = EDGE_CURVE ( 'NONE', #403, #399, #217, .T. ) ;
#1000 = ORIENTED_EDGE ( 'NONE', *, *, #1062, .T. ) ;
#1001 = DIRECTION ( 'NONE',  ( -1.000000000000000000, 0.000000000000000000, 0.000000000000000000 ) ) ;
#1002 = DIRECTION ( 'NONE',  ( 0.000000000000000000, 1.000000000000000000, 0.000000000000000000 ) ) ;
#1003 = APPLICATION_CONTEXT ( 'automotive_design' ) ;
#1004 = ORIENTED_EDGE ( 'NONE', *, *, #462, .F. ) ;
#1005 = CIRCLE ( 'NONE', #914, 1.500000000000000666 ) ;
#1006 = FACE_OUTER_BOUND ( 'NONE', #570, .T. ) ;
#1007 = ORIENTED_EDGE ( 'NONE', *, *, #190, .T. ) ;
#1008 = CIRCLE ( 'NONE', #527, 3.803835902877497066 ) ;
#1009 = VERTEX_POINT ( 'NONE', #816 ) ;
#1010 = PRODUCT_DEFINITION_SHAPE ( 'NONE', 'NONE',  #128 ) ;
#1011 = VECTOR ( 'NONE', #874, 1000.000000000000000 ) ;
#1012 = EDGE_CURVE ( 'NONE', #626, #868, #423, .T. ) ;
#1013 = PRODUCT_DEFINITION_FORMATION_WITH_SPECIFIED_SOURCE ( 'ANY', '', #691, .NOT_KNOWN. ) ;
#1014 = CARTESIAN_POINT ( 'NONE',  ( -16.00000000000000000, 0.000000000000000000, 2.000000000000000000 ) ) ;
#1015 = ADVANCED_FACE ( 'NONE', ( #208 ), #56, .F. ) ;
#1016 = FACE_OUTER_BOUND ( 'NONE', #1079, .T. ) ;
#1017 = ORIENTED_EDGE ( 'NONE', *, *, #545, .T. ) ;
#1018 = ORIENTED_EDGE ( 'NONE', *, *, #160, .T. ) ;
#1019 = LINE ( 'NONE', #835, #138 ) ;
#1020 = LINE ( 'NONE', #919, #89 ) ;
#1021 = ORIENTED_EDGE ( 'NONE', *, *, #968, .T. ) ;
#1022 = DIRECTION ( 'NONE',  ( 0.000000000000000000, -1.000000000000000000, 0.000000000000000000 ) ) ;
#1023 = ORIENTED_EDGE ( 'NONE', *, *, #468, .F. ) ;
#1024 = DIRECTION ( 'NONE',  ( 0.000000000000000000, -1.294569758191647402E-16, 1.000000000000000000 ) ) ;
#1025 = DIRECTION ( 'NONE',  ( 0.000000000000000000, 0.000000000000000000, 1.000000000000000000 ) ) ;
#1026 = CARTESIAN_POINT ( 'NONE',  ( -9.999999999999998224, 0.5000000000000000000, 0.000000000000000000 ) ) ;
#1027 = ORIENTED_EDGE ( 'NONE', *, *, #305, .F. ) ;
#1028 = EDGE_CURVE ( 'NONE', #910, #113, #1052, .T. ) ;
#1029 = TOROIDAL_SURFACE ( 'NONE', #643, 4.275643679511810014, 0.5000000000000000000 ) ;
#1030 = CIRCLE ( 'NONE', #177, 0.5000000000000000000 ) ;
#1031 = LINE ( 'NONE', #871, #239 ) ;
#1032 = ORIENTED_EDGE ( 'NONE', *, *, #757, .T. ) ;
#1033 = EDGE_CURVE ( 'NONE', #1089, #251, #369, .T. ) ;
#1034 = DIRECTION ( 'NONE',  ( -1.000000000000000000, -4.303319318569046950E-16, 0.000000000000000000 ) ) ;
#1035 = DIRECTION ( 'NONE',  ( 0.000000000000000000, 0.000000000000000000, -1.000000000000000000 ) ) ;
#1036 = ORIENTED_EDGE ( 'NONE', *, *, #616, .T. ) ;
#1037 = FACE_OUTER_BOUND ( 'NONE', #178, .T. ) ;
#1038 = CARTESIAN_POINT ( 'NONE',  ( 31.00000000000000000, 4.000000000000000000, -5.000000000000004441 ) ) ;
#1039 = FACE_OUTER_BOUND ( 'NONE', #257, .T. ) ;
#1040 = TOROIDAL_SURFACE ( 'NONE', #973, 4.275643679511810014, 0.5000000000000000000 ) ;
#1041 = VECTOR ( 'NONE', #619, 1000.000000000000000 ) ;
#1042 = CARTESIAN_POINT ( 'NONE',  ( 31.00000000000000000, 0.000000000000000000, 4.999999999999994671 ) ) ;
#1043 = AXIS2_PLACEMENT_3D ( 'NONE', #566, #827, #232 ) ;
#1044 = AXIS2_PLACEMENT_3D ( 'NONE', #73, #410, #754 ) ;
#1045 = CARTESIAN_POINT ( 'NONE',  ( -9.999999999999998224, 3.500000000000000000, 0.000000000000000000 ) ) ;
#1046 = DIRECTION ( 'NONE',  ( 0.000000000000000000, -1.000000000000000000, -0.000000000000000000 ) ) ;
#1047 = ORIENTED_EDGE ( 'NONE', *, *, #510, .T. ) ;
#1048 = EDGE_CURVE ( 'NONE', #573, #170, #711, .T. ) ;
#1049 = DIRECTION ( 'NONE',  ( 0.000000000000000000, -1.224646799147353454E-16, 1.000000000000000000 ) ) ;
#1050 = EDGE_CURVE ( 'NONE', #779, #825, #455, .T. ) ;
#1051 = DIRECTION ( 'NONE',  ( 0.000000000000000000, 0.000000000000000000, 1.000000000000000000 ) ) ;
#1052 = CIRCLE ( 'NONE', #389, 3.803835902877497066 ) ;
#1053 = PRODUCT_RELATED_PRODUCT_CATEGORY ( 'part', '', ( #166 ) ) ;
#1054 = DIRECTION ( 'NONE',  ( 0.000000000000000000, 0.000000000000000000, -1.000000000000000000 ) ) ;
#1055 = FACE_OUTER_BOUND ( 'NONE', #110, .T. ) ;
#1056 = DIRECTION ( 'NONE',  ( -0.000000000000000000, -1.000000000000000000, -1.224646799147353454E-16 ) ) ;
#1057 = DIRECTION ( 'NONE',  ( 0.000000000000000000, 0.000000000000000000, -1.000000000000000000 ) ) ;
#1058 = CARTESIAN_POINT ( 'NONE',  ( 30.00000000000000000, 0.000000000000000000, -5.000000000000004441 ) ) ;
#1059 = LINE ( 'NONE', #789, #978 ) ;
#1060 = CARTESIAN_POINT ( 'NONE',  ( -9.999999999999998224, 0.6655216659757472453, 0.000000000000000000 ) ) ;
#1061 = CARTESIAN_POINT ( 'NONE',  ( -9.999999999999998224, 3.334478334024252977, -3.803835902877497066 ) ) ;
#1062 = EDGE_CURVE ( 'NONE', #221, #346, #1059, .T. ) ;
#1063 = AXIS2_PLACEMENT_3D ( 'NONE', #332, #588, #1001 ) ;
#1064 = FACE_OUTER_BOUND ( 'NONE', #656, .T. ) ;
#1065 = CIRCLE ( 'NONE', #503, 3.350000000000000977 ) ;
#1066 = ORIENTED_EDGE ( 'NONE', *, *, #982, .F. ) ;
#1067 = DIRECTION ( 'NONE',  ( 0.000000000000000000, -1.000000000000000000, 0.000000000000000000 ) ) ;
#1068 = ORIENTED_EDGE ( 'NONE', *, *, #222, .T. ) ;
#1069 = AXIS2_PLACEMENT_3D ( 'NONE', #932, #28, #856 ) ;
#1070 = APPLICATION_PROTOCOL_DEFINITION ( 'draft international standard', 'automotive_design', 1998, #40 ) ;
#1071 = DIRECTION ( 'NONE',  ( 1.355252715606880543E-16, -0.000000000000000000, 1.000000000000000000 ) ) ;
#1072 = CARTESIAN_POINT ( 'NONE',  ( 30.00000000000000000, 4.000000000000000000, 5.999999999999994671 ) ) ;
#1073 = ADVANCED_FACE ( 'NONE', ( #1055 ), #42, .T. ) ;
#1074 = VERTEX_POINT ( 'NONE', #958 ) ;
#1075 = EDGE_CURVE ( 'NONE', #669, #573, #487, .T. ) ;
#1076 =( LENGTH_UNIT ( ) NAMED_UNIT ( * ) SI_UNIT ( .MILLI., .METRE. ) );
#1077 = LINE ( 'NONE', #200, #457 ) ;
#1078 = DIRECTION ( 'NONE',  ( 0.000000000000000000, 0.000000000000000000, 1.000000000000000000 ) ) ;
#1079 = EDGE_LOOP ( 'NONE', ( #485, #219 ) ) ;
#1080 = SURFACE_STYLE_USAGE ( .BOTH. , #653 ) ;
#1081 = ORIENTED_EDGE ( 'NONE', *, *, #786, .T. ) ;
#1082 = ORIENTED_EDGE ( 'NONE', *, *, #728, .F. ) ;
#1083 = AXIS2_PLACEMENT_3D ( 'NONE', #242, #581, #149 ) ;
#1084 = ADVANCED_FACE ( 'NONE', ( #26 ), #644, .T. ) ;
#1085 = ADVANCED_FACE ( 'NONE', ( #1039 ), #824, .T. ) ;
#1086 = VECTOR ( 'NONE', #118, 1000.000000000000000 ) ;
#1087 = ORIENTED_EDGE ( 'NONE', *, *, #955, .T. ) ;
#1088 = DIRECTION ( 'NONE',  ( 0.000000000000000000, 0.000000000000000000, -1.000000000000000000 ) ) ;
#1089 = VERTEX_POINT ( 'NONE', #578 ) ;
#1090 = CARTESIAN_POINT ( 'NONE',  ( 21.00000000000000000, 0.000000000000000000, -1.500000000000000666 ) ) ;
#1091 = DIRECTION ( 'NONE',  ( 0.000000000000000000, -1.294569758191646909E-16, 1.000000000000000000 ) ) ;
#1092 = CIRCLE ( 'NONE', #575, 1.500000000000000666 ) ;
#1093 = NEXT_ASSEMBLY_USAGE_OCCURRENCE ( 'NAUO1', ' ', ' ', #682, #109, $ ) ;
#1094 = NEXT_ASSEMBLY_USAGE_OCCURRENCE ( 'NAUO2', ' ', ' ', #682, #128, $ ) ;
ENDSEC;
END-ISO-10303-21;
