ISO-10303-21;
HEADER;
FILE_DESCRIPTION (( 'STEP AP214' ),
    '1' );
FILE_NAME ('Steering-Post-Right.STEP',
    '2026-05-11T14:27:00',
    ( '' ),
    ( '' ),
    'SwSTEP 2.0',
    'SolidWorks 2026',
    '' );
FILE_SCHEMA (( 'AUTOMOTIVE_DESIGN' ));
ENDSEC;

DATA;
#1 = VECTOR ( 'NONE', #96, 1000.000000000000000 ) ;
#2 = CARTESIAN_POINT ( 'NONE',  ( -4.579646017699118055, 29.00000000000000000, -7.798672566371683601 ) ) ;
#3 = CARTESIAN_POINT ( 'NONE',  ( -0.5796460176991178326, 0.000000000000000000, 2.201327433628315955 ) ) ;
#4 = DIRECTION ( 'NONE',  ( -0.000000000000000000, -1.000000000000000000, -0.000000000000000000 ) ) ;
#5 = PLANE ( 'NONE',  #266 ) ;
#6 = CYLINDRICAL_SURFACE ( 'NONE', #502, 2.000000000000000000 ) ;
#7 = ORIENTED_EDGE ( 'NONE', *, *, #14, .F. ) ;
#8 = LINE ( 'NONE', #12, #520 ) ;
#9 = ORIENTED_EDGE ( 'NONE', *, *, #27, .F. ) ;
#10 = VECTOR ( 'NONE', #394, 1000.000000000000000 ) ;
#11 = ORIENTED_EDGE ( 'NONE', *, *, #480, .T. ) ;
#12 = CARTESIAN_POINT ( 'NONE',  ( 7.420353982300881945, 10.00000000000000000, 0.7013274336283171762 ) ) ;
#13 = VERTEX_POINT ( 'NONE', #33 ) ;
#14 = EDGE_CURVE ( 'NONE', #43, #88, #219, .T. ) ;
#15 = ORIENTED_EDGE ( 'NONE', *, *, #470, .F. ) ;
#16 = ORIENTED_EDGE ( 'NONE', *, *, #507, .F. ) ;
#17 = CIRCLE ( 'NONE', #558, 1.499999999999998668 ) ;
#18 = CARTESIAN_POINT ( 'NONE',  ( -4.579646017699118943, 29.00000000000000355, 6.789604369253627425 ) ) ;
#19 = EDGE_CURVE ( 'NONE', #64, #123, #17, .T. ) ;
#20 = CARTESIAN_POINT ( 'NONE',  ( 9.970479304330208237, 29.56042669719959903, -0.07284582092083238813 ) ) ;
#21 = FACE_BOUND ( 'NONE', #25, .T. ) ;
#22 = PRODUCT_DEFINITION_SHAPE ( 'NONE', 'NONE',  #354 ) ;
#23 = DIRECTION ( 'NONE',  ( -0.000000000000000000, 1.000000000000000000, -0.000000000000000000 ) ) ;
#24 = LINE ( 'NONE', #105, #169 ) ;
#25 = EDGE_LOOP ( 'NONE', ( #425, #536 ) ) ;
#26 = DIRECTION ( 'NONE',  ( 2.478176394252581141E-16, -0.000000000000000000, -1.000000000000000000 ) ) ;
#27 = EDGE_CURVE ( 'NONE', #464, #455, #441, .T. ) ;
#28 = VERTEX_POINT ( 'NONE', #622 ) ;
#29 = DIRECTION ( 'NONE',  ( 0.5953510028633117734, 0.08715574274765837404, -0.7987246458547232475 ) ) ;
#30 = EDGE_CURVE ( 'NONE', #515, #28, #421, .T. ) ;
#31 = EDGE_CURVE ( 'NONE', #475, #364, #414, .T. ) ;
#32 = CIRCLE ( 'NONE', #186, 1.949999999999999512 ) ;
#33 = CARTESIAN_POINT ( 'NONE',  ( -0.5796460176991178326, 10.00000000000000000, 0.2013274336283158161 ) ) ;
#34 = AXIS2_PLACEMENT_3D ( 'NONE', #171, #365, #75 ) ;
#35 = FACE_OUTER_BOUND ( 'NONE', #620, .T. ) ;
#36 = DIRECTION ( 'NONE',  ( -0.000000000000000000, 1.000000000000000000, -0.000000000000000000 ) ) ;
#37 = CARTESIAN_POINT ( 'NONE',  ( -4.579646017699118055, 29.00000000000000000, 7.201327433628316399 ) ) ;
#38 = CARTESIAN_POINT ( 'NONE',  ( -4.167922953324428192, 29.00000000000000000, -7.798672566371685377 ) ) ;
#39 = EDGE_LOOP ( 'NONE', ( #338, #522, #323, #524 ) ) ;
#40 = DIRECTION ( 'NONE',  ( 0.000000000000000000, 0.000000000000000000, 1.000000000000000000 ) ) ;
#41 = CARTESIAN_POINT ( 'NONE',  ( -0.6428940079278638864, 29.00000000000000000, -7.798672566371681825 ) ) ;
#42 = VECTOR ( 'NONE', #26, 1000.000000000000000 ) ;
#43 = VERTEX_POINT ( 'NONE', #74 ) ;
#44 = PLANE ( 'NONE',  #572 ) ;
#45 = CARTESIAN_POINT ( 'NONE',  ( 0.000000000000000000, 0.000000000000000000, 0.000000000000000000 ) ) ;
#46 = FACE_OUTER_BOUND ( 'NONE', #305, .T. ) ;
#47 = DIRECTION ( 'NONE',  ( 0.000000000000000000, 0.08715574274765701401, -0.9961946980917456562 ) ) ;
#48 = ADVANCED_FACE ( 'NONE', ( #173 ), #371, .T. ) ;
#49 = DIRECTION ( 'NONE',  ( 0.000000000000000000, -1.000000000000000000, 0.000000000000000000 ) ) ;
#50 = CYLINDRICAL_SURFACE ( 'NONE', #290, 1.949999999999999512 ) ;
#51 = DIRECTION ( 'NONE',  ( 0.000000000000000000, -1.000000000000000000, 0.000000000000000000 ) ) ;
#52 = CARTESIAN_POINT ( 'NONE',  ( -0.3124694044178131791, 29.00000000000000000, -7.798672566371681825 ) ) ;
#53 = CARTESIAN_POINT ( 'NONE',  ( 10.42035398230088283, 29.00000000000000000, 0.7012723971679745150 ) ) ;
#54 = VERTEX_POINT ( 'NONE', #241 ) ;
#55 = AXIS2_PLACEMENT_3D ( 'NONE', #188, #438, #288 ) ;
#56 = AXIS2_PLACEMENT_3D ( 'NONE', #452, #393, #47 ) ;
#57 = UNCERTAINTY_MEASURE_WITH_UNIT (LENGTH_MEASURE( 1.000000000000000082E-05 ), #435, 'distance_accuracy_value', 'NONE');
#58 = CYLINDRICAL_SURFACE ( 'NONE', #245, 1.949999999999999512 ) ;
#59 = EDGE_CURVE ( 'NONE', #170, #258, #145, .T. ) ;
#60 = VERTEX_POINT ( 'NONE', #447 ) ;
#61 = DIRECTION ( 'NONE',  ( -0.08682659386424779191, -0.9924325091389669673, 0.08682659386424777803 ) ) ;
#62 = ORIENTED_EDGE ( 'NONE', *, *, #262, .F. ) ;
#63 = CARTESIAN_POINT ( 'NONE',  ( 10.42035398230088283, 29.00000000000000000, 0.2013274336283140953 ) ) ;
#64 = VERTEX_POINT ( 'NONE', #289 ) ;
#65 = VECTOR ( 'NONE', #384, 1000.000000000000114 ) ;
#66 = ORIENTED_EDGE ( 'NONE', *, *, #467, .F. ) ;
#67 = EDGE_LOOP ( 'NONE', ( #412, #416 ) ) ;
#68 = CARTESIAN_POINT ( 'NONE',  ( -4.579646017699118055, 29.00000000000000000, 6.205132735536570188 ) ) ;
#69 = EDGE_CURVE ( 'NONE', #532, #54, #523, .T. ) ;
#70 = CIRCLE ( 'NONE', #152, 1.499999999999998668 ) ;
#71 = ORIENTED_EDGE ( 'NONE', *, *, #59, .T. ) ;
#72 = CARTESIAN_POINT ( 'NONE',  ( 0.1986521309584828032, 0.000000000000000000, -10.33584380862348340 ) ) ;
#73 = PRODUCT_RELATED_PRODUCT_CATEGORY ( 'part', '', ( #466 ) ) ;
#74 = CARTESIAN_POINT ( 'NONE',  ( 3.420353982300881945, 23.00000000000000000, -1.748672566371683779 ) ) ;
#75 = DIRECTION ( 'NONE',  ( 1.000000000000000000, 0.000000000000000000, 0.000000000000000000 ) ) ;
#76 = DIRECTION ( 'NONE',  ( 0.000000000000000000, 0.000000000000000000, -1.000000000000000000 ) ) ;
#77 = AXIS2_PLACEMENT_3D ( 'NONE', #392, #531, #433 ) ;
#78 = ORIENTED_EDGE ( 'NONE', *, *, #463, .F. ) ;
#79 = DIRECTION ( 'NONE',  ( 0.000000000000000000, -0.08715574274765701401, -0.9961946980917456562 ) ) ;
#80 = AXIS2_PLACEMENT_3D ( 'NONE', #568, #315, #217 ) ;
#81 = ORIENTED_EDGE ( 'NONE', *, *, #618, .T. ) ;
#82 = ORIENTED_EDGE ( 'NONE', *, *, #199, .F. ) ;
#83 = CARTESIAN_POINT ( 'NONE',  ( 10.37509215026002174, 29.51734510754583241, 6.159870903495713534 ) ) ;
#84 = DIRECTION ( 'NONE',  ( 0.000000000000000000, 0.000000000000000000, -1.000000000000000000 ) ) ;
#85 = ADVANCED_FACE ( 'NONE', ( #46 ), #50, .F. ) ;
#86 = PLANE ( 'NONE',  #385 ) ;
#87 = CARTESIAN_POINT ( 'NONE',  ( -0.4264444811978888583, 29.00000000000000000, -7.798672566371682713 ) ) ;
#88 = VERTEX_POINT ( 'NONE', #591 ) ;
#89 = DIRECTION ( 'NONE',  ( 0.08682659386424776415, -0.9924325091389670783, 0.08682659386424779191 ) ) ;
#90 = CARTESIAN_POINT ( 'NONE',  ( -3.583451319607371399, 29.00000000000000000, -7.798672566371683601 ) ) ;
#91 = VECTOR ( 'NONE', #213, 1000.000000000000000 ) ;
#92 = CARTESIAN_POINT ( 'NONE',  ( 3.420353982300881501, 29.00000000000000000, 2.151327433628315244 ) ) ;
#93 = CARTESIAN_POINT ( 'NONE',  ( 12.95752522455268618, 0.000000000000000000, -0.5720188446256430082 ) ) ;
#94 = EDGE_LOOP ( 'NONE', ( #468, #214, #235, #565 ) ) ;
#95 = EDGE_CURVE ( 'NONE', #374, #107, #254, .T. ) ;
#96 = DIRECTION ( 'NONE',  ( -1.000000000000000000, -0.000000000000000000, -4.065272270610020886E-16 ) ) ;
#97 = CARTESIAN_POINT ( 'NONE',  ( 11.96133052646093908, 0.000000000000000000, 9.738498675880117972 ) ) ;
#98 = ORIENTED_EDGE ( 'NONE', *, *, #30, .F. ) ;
#99 = LINE ( 'NONE', #298, #1 ) ;
#100 = DIRECTION ( 'NONE',  ( -0.000000000000000000, -1.000000000000000000, -0.000000000000000000 ) ) ;
#101 =( BOUNDED_CURVE ( )  B_SPLINE_CURVE ( 3, ( #160, #456, #604, #559 ),
 .UNSPECIFIED., .F., .T. ) 
 B_SPLINE_CURVE_WITH_KNOTS ( ( 4, 4 ),
 ( 5.501585242055419656, 7.064785372303753697 ),
 .UNSPECIFIED. ) 
 CURVE ( )  GEOMETRIC_REPRESENTATION_ITEM ( )  RATIONAL_B_SPLINE_CURVE ( ( 1.000000000000000000, 0.8065248903853481366, 0.8065248903853481366, 1.000000000000000000 ) ) 
 REPRESENTATION_ITEM ( '' )  );
#102 = ORIENTED_EDGE ( 'NONE', *, *, #361, .T. ) ;
#103 = LINE ( 'NONE', #398, #437 ) ;
#104 = CIRCLE ( 'NONE', #426, 1.499999999999998668 ) ;
#105 = CARTESIAN_POINT ( 'NONE',  ( 12.95752522455268618, 0.000000000000000000, 3.211103313941884154E-15 ) ) ;
#106 = DIRECTION ( 'NONE',  ( -0.08707249138189127047, 0.9952431306267512934, 0.04369773660973459706 ) ) ;
#107 = VERTEX_POINT ( 'NONE', #588 ) ;
#108 = CARTESIAN_POINT ( 'NONE',  ( -6.120622561859175192, 0.000000000000000000, 9.738498675880117972 ) ) ;
#109 = ORIENTED_EDGE ( 'NONE', *, *, #430, .T. ) ;
#110 = CARTESIAN_POINT ( 'NONE',  ( 10.42035398230088106, 29.00000000000000000, 6.205132735536571964 ) ) ;
#111 = ORIENTED_EDGE ( 'NONE', *, *, #379, .F. ) ;
#112 = EDGE_CURVE ( 'NONE', #267, #118, #303, .T. ) ;
#113 = EDGE_CURVE ( 'NONE', #43, #158, #211, .T. ) ;
#114 = CIRCLE ( 'NONE', #513, 2.000000000000000000 ) ;
#115 = ORIENTED_EDGE ( 'NONE', *, *, #608, .T. ) ;
#116 = ORIENTED_EDGE ( 'NONE', *, *, #379, .T. ) ;
#117 = CARTESIAN_POINT ( 'NONE',  ( -0.5796460176991176105, 10.00000000000000000, 4.201327433628315511 ) ) ;
#118 = VERTEX_POINT ( 'NONE', #97 ) ;
#119 = ORIENTED_EDGE ( 'NONE', *, *, #19, .F. ) ;
#120 = FACE_OUTER_BOUND ( 'NONE', #566, .T. ) ;
#121 =( GEOMETRIC_REPRESENTATION_CONTEXT ( 3 ) GLOBAL_UNCERTAINTY_ASSIGNED_CONTEXT ( ( #57 ) ) GLOBAL_UNIT_ASSIGNED_CONTEXT ( ( #435, #491, #583 ) ) REPRESENTATION_CONTEXT ( 'NONE', 'WORKASPACE' ) );
#122 = CIRCLE ( 'NONE', #493, 2.000000000000000000 ) ;
#123 = VERTEX_POINT ( 'NONE', #336 ) ;
#124 = CARTESIAN_POINT ( 'NONE',  ( 5.141499056957902880, 0.000000000000000000, -6.897850165163740499 ) ) ;
#125 =( BOUNDED_CURVE ( )  B_SPLINE_CURVE ( 3, ( #488, #535, #87, #41 ),
 .UNSPECIFIED., .F., .T. ) 
 B_SPLINE_CURVE_WITH_KNOTS ( ( 4, 4 ),
 ( 5.964179293989785968, 6.602191320369386496 ),
 .UNSPECIFIED. ) 
 CURVE ( )  GEOMETRIC_REPRESENTATION_ITEM ( )  RATIONAL_B_SPLINE_CURVE ( ( 1.000000000000000000, 0.9663650827441575553, 0.9663650827441575553, 1.000000000000000000 ) ) 
 REPRESENTATION_ITEM ( '' )  );
#126 = AXIS2_PLACEMENT_3D ( 'NONE', #585, #635, #139 ) ;
#127 = ORIENTED_EDGE ( 'NONE', *, *, #272, .T. ) ;
#128 = EDGE_CURVE ( 'NONE', #362, #170, #595, .T. ) ;
#129 = FACE_OUTER_BOUND ( 'NONE', #155, .T. ) ;
#130 = ORIENTED_EDGE ( 'NONE', *, *, #190, .F. ) ;
#131 = EDGE_CURVE ( 'NONE', #158, #359, #540, .T. ) ;
#132 = DIRECTION ( 'NONE',  ( -0.000000000000000000, -0.000000000000000000, 1.000000000000000000 ) ) ;
#133 = EDGE_CURVE ( 'NONE', #54, #532, #70, .T. ) ;
#134 = AXIS2_PLACEMENT_3D ( 'NONE', #3, #295, #510 ) ;
#135 = DIRECTION ( 'NONE',  ( 0.000000000000000000, 0.000000000000000000, -1.000000000000000000 ) ) ;
#136 = ORIENTED_EDGE ( 'NONE', *, *, #208, .F. ) ;
#137 = DIRECTION ( 'NONE',  ( -0.8017756442437558029, -0.000000000000000000, -0.5976251469755186063 ) ) ;
#138 = FACE_OUTER_BOUND ( 'NONE', #342, .T. ) ;
#139 = DIRECTION ( 'NONE',  ( 0.000000000000000000, 0.000000000000000000, -1.000000000000000000 ) ) ;
#140 = DIRECTION ( 'NONE',  ( 0.02889633520296243374, -0.9957787008503929949, -0.08711934770498193370 ) ) ;
#141 = FACE_BOUND ( 'NONE', #509, .T. ) ;
#142 = DIRECTION ( 'NONE',  ( 0.000000000000000000, 0.000000000000000000, 1.000000000000000000 ) ) ;
#143 = ORIENTED_EDGE ( 'NONE', *, *, #59, .F. ) ;
#144 = DIRECTION ( 'NONE',  ( 4.049802682281095207E-16, 0.08715574274765837404, -0.9961946980917455452 ) ) ;
#145 = LINE ( 'NONE', #150, #162 ) ;
#146 = AXIS2_PLACEMENT_3D ( 'NONE', #587, #89, #189 ) ;
#147 = EDGE_CURVE ( 'NONE', #500, #200, #413, .T. ) ;
#148 = ORIENTED_EDGE ( 'NONE', *, *, #287, .T. ) ;
#149 = DIRECTION ( 'NONE',  ( 0.000000000000000000, -0.000000000000000000, -1.000000000000000000 ) ) ;
#150 = CARTESIAN_POINT ( 'NONE',  ( -4.587156187472726465, 28.91415836668503658, 6.212642905310179486 ) ) ;
#151 = CARTESIAN_POINT ( 'NONE',  ( 7.420353982300881945, 10.00000000000000000, 2.201327433628315955 ) ) ;
#152 = AXIS2_PLACEMENT_3D ( 'NONE', #285, #238, #444 ) ;
#153 = PLANE ( 'NONE',  #363 ) ;
#154 = CARTESIAN_POINT ( 'NONE',  ( -4.474073326441721399, 30.20670138281531791, -6.696905177022543398 ) ) ;
#155 = EDGE_LOOP ( 'NONE', ( #282, #490, #163, #518 ) ) ;
#156 = ADVANCED_FACE ( 'NONE', ( #429 ), #383, .F. ) ;
#157 = LINE ( 'NONE', #556, #376 ) ;
#158 = VERTEX_POINT ( 'NONE', #329 ) ;
#159 = VECTOR ( 'NONE', #571, 1000.000000000000114 ) ;
#160 = CARTESIAN_POINT ( 'NONE',  ( -7.116817259950919627, 0.000000000000000000, -9.339649110531741627 ) ) ;
#161 = ORIENTED_EDGE ( 'NONE', *, *, #208, .T. ) ;
#162 = VECTOR ( 'NONE', #439, 1000.000000000000114 ) ;
#163 = ORIENTED_EDGE ( 'NONE', *, *, #310, .F. ) ;
#164 = CARTESIAN_POINT ( 'NONE',  ( -0.5796460176991178326, 10.00000000000000000, 0.2013274336283158161 ) ) ;
#165 = EDGE_CURVE ( 'NONE', #158, #43, #328, .T. ) ;
#166 = VERTEX_POINT ( 'NONE', #93 ) ;
#167 = ORIENTED_EDGE ( 'NONE', *, *, #287, .F. ) ;
#168 = FACE_OUTER_BOUND ( 'NONE', #561, .T. ) ;
#169 = VECTOR ( 'NONE', #453, 1000.000000000000000 ) ;
#170 = VERTEX_POINT ( 'NONE', #627 ) ;
#171 = CARTESIAN_POINT ( 'NONE',  ( 0.000000000000000000, 0.000000000000000000, 0.000000000000000000 ) ) ;
#172 = EDGE_CURVE ( 'NONE', #175, #459, #125, .T. ) ;
#173 = FACE_OUTER_BOUND ( 'NONE', #325, .T. ) ;
#174 = DIRECTION ( 'NONE',  ( -0.000000000000000000, -1.000000000000000000, -0.000000000000000000 ) ) ;
#175 = VERTEX_POINT ( 'NONE', #334 ) ;
#176 = VECTOR ( 'NONE', #406, 1000.000000000000114 ) ;
#177 = ORIENTED_EDGE ( 'NONE', *, *, #310, .T. ) ;
#178 = PRESENTATION_STYLE_ASSIGNMENT (( #621 ) ) ;
#179 = VECTOR ( 'NONE', #36, 1000.000000000000000 ) ;
#180 = EDGE_CURVE ( 'NONE', #123, #54, #8, .T. ) ;
#181 = VERTEX_POINT ( 'NONE', #53 ) ;
#182 = LINE ( 'NONE', #586, #207 ) ;
#183 = PRODUCT_DEFINITION_CONTEXT ( 'detailed design', #410, 'design' ) ;
#184 = DIRECTION ( 'NONE',  ( 0.08682659386424780579, 0.9924325091389669673, 0.08682659386424781967 ) ) ;
#185 = PLANE ( 'NONE',  #582 ) ;
#186 = AXIS2_PLACEMENT_3D ( 'NONE', #391, #590, #339 ) ;
#187 = SURFACE_STYLE_FILL_AREA ( #236 ) ;
#188 = CARTESIAN_POINT ( 'NONE',  ( 7.420353982300881945, 10.00000000000000000, 2.201327433628315955 ) ) ;
#189 = DIRECTION ( 'NONE',  ( 0.000000000000000000, -0.08715574274765701401, -0.9961946980917456562 ) ) ;
#190 = EDGE_CURVE ( 'NONE', #570, #13, #114, .T. ) ;
#191 = DIRECTION ( 'NONE',  ( -0.000000000000000000, -1.000000000000000000, -0.000000000000000000 ) ) ;
#192 = EDGE_LOOP ( 'NONE', ( #81, #616 ) ) ;
#193 = FACE_OUTER_BOUND ( 'NONE', #192, .T. ) ;
#194 = DIRECTION ( 'NONE',  ( -0.000000000000000000, 1.000000000000000000, -0.000000000000000000 ) ) ;
#195 = ADVANCED_FACE ( 'NONE', ( #355 ), #58, .F. ) ;
#196 = VECTOR ( 'NONE', #534, 1000.000000000000114 ) ;
#197 = DIRECTION ( 'NONE',  ( -3.543118242164760463E-17, 0.9961946980917455452, 0.08715574274765837404 ) ) ;
#198 = DIRECTION ( 'NONE',  ( 0.000000000000000000, -1.000000000000000000, 0.000000000000000000 ) ) ;
#199 = EDGE_CURVE ( 'NONE', #60, #286, #301, .T. ) ;
#200 = VERTEX_POINT ( 'NONE', #110 ) ;
#201 = DIRECTION ( 'NONE',  ( 0.000000000000000000, 0.000000000000000000, -1.000000000000000000 ) ) ;
#202 = CARTESIAN_POINT ( 'NONE',  ( -3.477878628349976520, 30.11954564006765978, 6.099560044279173532 ) ) ;
#203 = CARTESIAN_POINT ( 'NONE',  ( 12.95752522455268441, 0.000000000000000000, 8.742303977788374425 ) ) ;
#204 = ORIENTED_EDGE ( 'NONE', *, *, #95, .F. ) ;
#205 = DIRECTION ( 'NONE',  ( 0.000000000000000000, 0.000000000000000000, -1.000000000000000000 ) ) ;
#206 = ORIENTED_EDGE ( 'NONE', *, *, #112, .T. ) ;
#207 = VECTOR ( 'NONE', #140, 1000.000000000000114 ) ;
#208 = EDGE_CURVE ( 'NONE', #107, #362, #450, .T. ) ;
#209 = DIRECTION ( 'NONE',  ( -0.000000000000000000, 1.000000000000000000, -0.000000000000000000 ) ) ;
#210 = ORIENTED_EDGE ( 'NONE', *, *, #133, .F. ) ;
#211 = CIRCLE ( 'NONE', #358, 1.949999999999999512 ) ;
#212 = ORIENTED_EDGE ( 'NONE', *, *, #272, .F. ) ;
#213 = DIRECTION ( 'NONE',  ( -1.000000000000000000, -0.000000000000000000, -4.065272270610020886E-16 ) ) ;
#214 = ORIENTED_EDGE ( 'NONE', *, *, #623, .F. ) ;
#215 = CARTESIAN_POINT ( 'NONE',  ( 7.420353982300881945, 10.00000000000000000, 2.201327433628315955 ) ) ;
#216 = CIRCLE ( 'NONE', #134, 2.000000000000000000 ) ;
#217 = DIRECTION ( 'NONE',  ( 0.000000000000000000, 0.000000000000000000, -1.000000000000000000 ) ) ;
#218 = CARTESIAN_POINT ( 'NONE',  ( 0.7940031338217936607, 0.000000000000000000, -10.13837375638645888 ) ) ;
#219 = LINE ( 'NONE', #263, #477 ) ;
#220 = CARTESIAN_POINT ( 'NONE',  ( -4.167922953324429969, 29.00000000000000355, 7.201327433628316399 ) ) ;
#221 = ORIENTED_EDGE ( 'NONE', *, *, #69, .T. ) ;
#222 = DIRECTION ( 'NONE',  ( 0.000000000000000000, 0.9961946980917455452, -0.08715574274765837404 ) ) ;
#223 = ADVANCED_FACE ( 'NONE', ( #411 ), #6, .F. ) ;
#224 = PRESENTATION_LAYER_ASSIGNMENT (  '', '', ( #603 ) ) ;
#225 = ORIENTED_EDGE ( 'NONE', *, *, #341, .F. ) ;
#226 = ORIENTED_EDGE ( 'NONE', *, *, #467, .T. ) ;
#227 = CARTESIAN_POINT ( 'NONE',  ( 9.424159284209137510, 29.00000000000000000, 7.201327433628316399 ) ) ;
#228 = CARTESIAN_POINT ( 'NONE',  ( 7.420353982300881945, 10.00000000000000000, 2.201327433628315955 ) ) ;
#229 = CARTESIAN_POINT ( 'NONE',  ( 12.54580216017799543, 0.000000000000000000, 9.738498675880121525 ) ) ;
#230 = EDGE_LOOP ( 'NONE', ( #130, #579, #505, #599 ) ) ;
#231 = LINE ( 'NONE', #283, #542 ) ;
#232 = CARTESIAN_POINT ( 'NONE',  ( 10.01951028707244973, 29.00000000000000000, -0.09745224868674701169 ) ) ;
#233 = AXIS2_PLACEMENT_3D ( 'NONE', #202, #617, #79 ) ;
#234 = CARTESIAN_POINT ( 'NONE',  ( 10.00863091792619386, 29.00000000000000355, 7.201327433628317287 ) ) ;
#235 = ORIENTED_EDGE ( 'NONE', *, *, #112, .F. ) ;
#236 = FILL_AREA_STYLE ('',( #580 ) ) ;
#237 = APPLICATION_CONTEXT ( 'automotive_design' ) ;
#238 = DIRECTION ( 'NONE',  ( 0.000000000000000000, -1.000000000000000000, 0.000000000000000000 ) ) ;
#239 = CARTESIAN_POINT ( 'NONE',  ( 3.420353982300881501, 29.00000000000000000, 0.2013274336283158161 ) ) ;
#240 = EDGE_CURVE ( 'NONE', #364, #475, #216, .T. ) ;
#241 = CARTESIAN_POINT ( 'NONE',  ( 7.420353982300881945, 0.000000000000000000, 0.7013274336283171762 ) ) ;
#242 = DIRECTION ( 'NONE',  ( 0.000000000000000000, 0.000000000000000000, -1.000000000000000000 ) ) ;
#243 = FACE_OUTER_BOUND ( 'NONE', #94, .T. ) ;
#244 = CARTESIAN_POINT ( 'NONE',  ( -0.5796460176991178326, 10.00000000000000000, 2.201327433628315955 ) ) ;
#245 = AXIS2_PLACEMENT_3D ( 'NONE', #598, #209, #351 ) ;
#246 = ADVANCED_FACE ( 'NONE', ( #552 ), #403, .T. ) ;
#247 = DIRECTION ( 'NONE',  ( 0.02889633520296243721, -0.9957787008503931059, -0.08711934770498196146 ) ) ;
#248 = CARTESIAN_POINT ( 'NONE',  ( 12.95752522455268796, 0.000000000000000000, -0.8927229431708074703 ) ) ;
#249 = ORIENTED_EDGE ( 'NONE', *, *, #560, .T. ) ;
#250 =( LENGTH_UNIT ( ) NAMED_UNIT ( * ) SI_UNIT ( .MILLI., .METRE. ) );
#251 = CARTESIAN_POINT ( 'NONE',  ( 12.55668152932424952, 0.000000000000000000, -1.370743490480364368 ) ) ;
#252 = ORIENTED_EDGE ( 'NONE', *, *, #373, .T. ) ;
#253 = EDGE_CURVE ( 'NONE', #13, #475, #360, .T. ) ;
#254 =( BOUNDED_CURVE ( )  B_SPLINE_CURVE ( 3, ( #90, #38, #346, #497 ),
 .UNSPECIFIED., .F., .T. ) 
 B_SPLINE_CURVE_WITH_KNOTS ( ( 4, 4 ),
 ( 5.501585242055418767, 7.064785372303752808 ),
 .UNSPECIFIED. ) 
 CURVE ( )  GEOMETRIC_REPRESENTATION_ITEM ( )  RATIONAL_B_SPLINE_CURVE ( ( 1.000000000000000000, 0.8065248903853481366, 0.8065248903853481366, 1.000000000000000000 ) ) 
 REPRESENTATION_ITEM ( '' )  );
#255 = LINE ( 'NONE', #460, #612 ) ;
#256 = EDGE_LOOP ( 'NONE', ( #538, #249, #66, #302 ) ) ;
#257 = AXIS2_PLACEMENT_3D ( 'NONE', #273, #29, #427 ) ;
#258 = VERTEX_POINT ( 'NONE', #562 ) ;
#259 = ORIENTED_EDGE ( 'NONE', *, *, #172, .F. ) ;
#260 = CYLINDRICAL_SURFACE ( 'NONE', #275, 1.499999999999998668 ) ;
#261 = ORIENTED_EDGE ( 'NONE', *, *, #503, .F. ) ;
#262 = EDGE_CURVE ( 'NONE', #28, #166, #546, .T. ) ;
#263 = CARTESIAN_POINT ( 'NONE',  ( 3.420353982300881945, 23.00000000000000000, -1.748672566371683779 ) ) ;
#264 = APPLICATION_PROTOCOL_DEFINITION ( 'draft international standard', 'automotive_design', 1998, #237 ) ;
#265 = CARTESIAN_POINT ( 'NONE',  ( 9.424159284209137510, 29.00000000000000000, 7.201327433628316399 ) ) ;
#266 = AXIS2_PLACEMENT_3D ( 'NONE', #417, #402, #368 ) ;
#267 = VERTEX_POINT ( 'NONE', #203 ) ;
#268 = ORIENTED_EDGE ( 'NONE', *, *, #262, .T. ) ;
#269 = ORIENTED_EDGE ( 'NONE', *, *, #277, .F. ) ;
#270 = CARTESIAN_POINT ( 'NONE',  ( 10.42035398230088283, 29.00000000000000000, 0.2013274336283140953 ) ) ;
#271 = ORIENTED_EDGE ( 'NONE', *, *, #27, .T. ) ;
#272 = EDGE_CURVE ( 'NONE', #166, #181, #157, .T. ) ;
#273 = CARTESIAN_POINT ( 'NONE',  ( -0.3124694044178131791, 29.00000000000000000, -7.798672566371681825 ) ) ;
#274 = ORIENTED_EDGE ( 'NONE', *, *, #470, .T. ) ;
#275 = AXIS2_PLACEMENT_3D ( 'NONE', #215, #420, #76 ) ;
#276 = CARTESIAN_POINT ( 'NONE',  ( 0.6204591750816121909, 0.000000000000000000, -10.26772943661124415 ) ) ;
#277 = EDGE_CURVE ( 'NONE', #362, #609, #101, .T. ) ;
#278 = DIRECTION ( 'NONE',  ( 0.000000000000000000, 1.000000000000000000, 0.000000000000000000 ) ) ;
#279 = DIRECTION ( 'NONE',  ( 0.000000000000000000, -0.000000000000000000, 1.000000000000000000 ) ) ;
#280 = FACE_OUTER_BOUND ( 'NONE', #256, .T. ) ;
#281 = DIRECTION ( 'NONE',  ( 0.9961946980917457672, 0.08715574274765694462, 0.000000000000000000 ) ) ;
#282 = ORIENTED_EDGE ( 'NONE', *, *, #512, .T. ) ;
#283 = CARTESIAN_POINT ( 'NONE',  ( -3.590961489380980254, 28.91415836668503658, -7.806182736145292012 ) ) ;
#284 = CARTESIAN_POINT ( 'NONE',  ( 10.27664302229511151, 28.99999999999999645, 0.09420858534195704348 ) ) ;
#285 = CARTESIAN_POINT ( 'NONE',  ( 7.420353982300881945, 0.000000000000000000, 2.201327433628315955 ) ) ;
#286 = VERTEX_POINT ( 'NONE', #108 ) ;
#287 = EDGE_CURVE ( 'NONE', #60, #500, #255, .T. ) ;
#288 = DIRECTION ( 'NONE',  ( 0.000000000000000000, -0.000000000000000000, -1.000000000000000000 ) ) ;
#289 = CARTESIAN_POINT ( 'NONE',  ( 7.420353982300881945, 10.00000000000000000, 3.701327433628314623 ) ) ;
#290 = AXIS2_PLACEMENT_3D ( 'NONE', #390, #194, #397 ) ;
#291 = EDGE_CURVE ( 'NONE', #181, #515, #319, .T. ) ;
#292 = CLOSED_SHELL ( 'NONE', ( #195, #223, #634, #337, #320, #526, #246, #563, #483, #306, #489, #356, #156, #314, #85, #550, #377, #366, #610, #415, #48 ) ) ;
#293 = DIRECTION ( 'NONE',  ( 0.000000000000000000, -1.000000000000000000, 0.000000000000000000 ) ) ;
#294 = EDGE_CURVE ( 'NONE', #64, #532, #348, .T. ) ;
#295 = DIRECTION ( 'NONE',  ( 0.000000000000000000, -1.000000000000000000, 0.000000000000000000 ) ) ;
#296 =( BOUNDED_CURVE ( )  B_SPLINE_CURVE ( 3, ( #519, #554, #615, #474 ),
 .UNSPECIFIED., .F., .F. ) 
 B_SPLINE_CURVE_WITH_KNOTS ( ( 4, 4 ),
 ( 5.501585242055419656, 7.064785372303752808 ),
 .UNSPECIFIED. ) 
 CURVE ( )  GEOMETRIC_REPRESENTATION_ITEM ( )  RATIONAL_B_SPLINE_CURVE ( ( 1.000000000000000000, 0.8065248903853482476, 0.8065248903853482476, 1.000000000000000000 ) ) 
 REPRESENTATION_ITEM ( '' )  );
#297 = ORIENTED_EDGE ( 'NONE', *, *, #172, .T. ) ;
#298 = CARTESIAN_POINT ( 'NONE',  ( 4.201801922855331163E-15, 0.000000000000000000, -10.33584380862348340 ) ) ;
#299 = VECTOR ( 'NONE', #100, 1000.000000000000000 ) ;
#300 = ORIENTED_EDGE ( 'NONE', *, *, #623, .T. ) ;
#301 = LINE ( 'NONE', #601, #555 ) ;
#302 = ORIENTED_EDGE ( 'NONE', *, *, #545, .T. ) ;
#303 =( BOUNDED_CURVE ( )  B_SPLINE_CURVE ( 3, ( #340, #548, #229, #624 ),
 .UNSPECIFIED., .F., .F. ) 
 B_SPLINE_CURVE_WITH_KNOTS ( ( 4, 4 ),
 ( 5.501585242055419656, 7.064785372303752808 ),
 .UNSPECIFIED. ) 
 CURVE ( )  GEOMETRIC_REPRESENTATION_ITEM ( )  RATIONAL_B_SPLINE_CURVE ( ( 1.000000000000000000, 0.8065248903853482476, 0.8065248903853482476, 1.000000000000000000 ) ) 
 REPRESENTATION_ITEM ( '' )  );
#304 = DIRECTION ( 'NONE',  ( -0.000000000000000000, -1.000000000000000000, -0.000000000000000000 ) ) ;
#305 = EDGE_LOOP ( 'NONE', ( #7, #404, #614, #252 ) ) ;
#306 = ADVANCED_FACE ( 'NONE', ( #626, #141, #335 ), #185, .T. ) ;
#307 = DIRECTION ( 'NONE',  ( 0.000000000000000000, 0.000000000000000000, -1.000000000000000000 ) ) ;
#308 = ORIENTED_EDGE ( 'NONE', *, *, #113, .T. ) ;
#309 = VECTOR ( 'NONE', #551, 1000.000000000000000 ) ;
#310 = EDGE_CURVE ( 'NONE', #515, #175, #597, .T. ) ;
#311 = ORIENTED_EDGE ( 'NONE', *, *, #69, .F. ) ;
#312 =( NAMED_UNIT ( * ) PLANE_ANGLE_UNIT ( ) SI_UNIT ( $, .RADIAN. ) );
#313 = LINE ( 'NONE', #574, #91 ) ;
#314 = ADVANCED_FACE ( 'NONE', ( #193 ), #153, .T. ) ;
#315 = DIRECTION ( 'NONE',  ( 0.000000000000000000, -1.000000000000000000, 0.000000000000000000 ) ) ;
#316 = CARTESIAN_POINT ( 'NONE',  ( -3.583451319607373176, 29.00000000000000000, 7.201327433628316399 ) ) ;
#317 = EDGE_LOOP ( 'NONE', ( #111, #115, #11, #127 ) ) ;
#318 = MECHANICAL_DESIGN_GEOMETRIC_PRESENTATION_REPRESENTATION (  '', ( #603 ), #121 ) ;
#319 =( BOUNDED_CURVE ( )  B_SPLINE_CURVE ( 3, ( #333, #494, #284, #232 ),
 .UNSPECIFIED., .F., .T. ) 
 B_SPLINE_CURVE_WITH_KNOTS ( ( 4, 4 ),
 ( 5.819963856970061578, 6.746406757389109110 ),
 .UNSPECIFIED. ) 
 CURVE ( )  GEOMETRIC_REPRESENTATION_ITEM ( )  RATIONAL_B_SPLINE_CURVE ( ( 1.000000000000000000, 0.9297451291869347489, 0.9297451291869347489, 1.000000000000000000 ) ) 
 REPRESENTATION_ITEM ( '' )  );
#320 = ADVANCED_FACE ( 'NONE', ( #138 ), #86, .T. ) ;
#321 = ORIENTED_EDGE ( 'NONE', *, *, #291, .T. ) ;
#322 = PLANE ( 'NONE',  #257 ) ;
#323 = ORIENTED_EDGE ( 'NONE', *, *, #180, .T. ) ;
#324 = CARTESIAN_POINT ( 'NONE',  ( -0.5796460176991176105, 10.00000000000000000, 4.201327433628315511 ) ) ;
#325 = EDGE_LOOP ( 'NONE', ( #557, #212, #62, #98 ) ) ;
#326 = CARTESIAN_POINT ( 'NONE',  ( 10.01951028707244973, 29.00000000000000000, -0.09745224868674701169 ) ) ;
#327 = ORIENTED_EDGE ( 'NONE', *, *, #147, .T. ) ;
#328 = CIRCLE ( 'NONE', #77, 1.949999999999999512 ) ;
#329 = CARTESIAN_POINT ( 'NONE',  ( 3.420353982300881501, 23.00000000000000000, 2.151327433628315244 ) ) ;
#330 = ORIENTED_EDGE ( 'NONE', *, *, #165, .T. ) ;
#331 = CARTESIAN_POINT ( 'NONE',  ( -6.120622561859173416, 0.000000000000000000, -10.33584380862348517 ) ) ;
#332 = ADVANCED_BREP_SHAPE_REPRESENTATION ( 'Steering-Post-Right', ( #506, #34 ), #396 ) ;
#333 = CARTESIAN_POINT ( 'NONE',  ( 10.42035398230088283, 29.00000000000000000, 0.7012723971679745150 ) ) ;
#334 = CARTESIAN_POINT ( 'NONE',  ( -0.04754300506455266112, 29.00000000000000000, -7.601202514134659083 ) ) ;
#335 = FACE_OUTER_BOUND ( 'NONE', #457, .T. ) ;
#336 = CARTESIAN_POINT ( 'NONE',  ( 7.420353982300881945, 10.00000000000000000, 0.7013274336283171762 ) ) ;
#337 = ADVANCED_FACE ( 'NONE', ( #280 ), #633, .T. ) ;
#338 = ORIENTED_EDGE ( 'NONE', *, *, #294, .F. ) ;
#339 = DIRECTION ( 'NONE',  ( 0.000000000000000000, 0.000000000000000000, 1.000000000000000000 ) ) ;
#340 = CARTESIAN_POINT ( 'NONE',  ( 12.95752522455268441, 0.000000000000000000, 8.742303977788374425 ) ) ;
#341 = EDGE_CURVE ( 'NONE', #286, #118, #399, .T. ) ;
#342 = EDGE_LOOP ( 'NONE', ( #434, #71, #16, #161 ) ) ;
#343 = CYLINDRICAL_SURFACE ( 'NONE', #56, 0.9999999999999998890 ) ;
#344 = EDGE_CURVE ( 'NONE', #88, #359, #352, .T. ) ;
#345 = CARTESIAN_POINT ( 'NONE',  ( 0.000000000000000000, 0.000000000000000000, 9.738498675880117972 ) ) ;
#346 = CARTESIAN_POINT ( 'NONE',  ( -4.579646017699118055, 29.00000000000000000, -7.386949501996996403 ) ) ;
#347 = EDGE_CURVE ( 'NONE', #464, #609, #99, .T. ) ;
#348 = LINE ( 'NONE', #584, #10 ) ;
#349 = DIRECTION ( 'NONE',  ( -0.000000000000000000, -1.000000000000000000, -0.000000000000000000 ) ) ;
#350 = ORIENTED_EDGE ( 'NONE', *, *, #507, .T. ) ;
#351 = DIRECTION ( 'NONE',  ( 0.000000000000000000, 0.000000000000000000, 1.000000000000000000 ) ) ;
#352 = CIRCLE ( 'NONE', #529, 1.949999999999999512 ) ;
#353 = ORIENTED_EDGE ( 'NONE', *, *, #560, .F. ) ;
#354 = PRODUCT_DEFINITION ( 'UNKNOWN', '', #473, #183 ) ;
#355 = FACE_OUTER_BOUND ( 'NONE', #408, .T. ) ;
#356 = ADVANCED_FACE ( 'NONE', ( #501 ), #446, .T. ) ;
#357 = ORIENTED_EDGE ( 'NONE', *, *, #277, .T. ) ;
#358 = AXIS2_PLACEMENT_3D ( 'NONE', #495, #278, #142 ) ;
#359 = VERTEX_POINT ( 'NONE', #92 ) ;
#360 = LINE ( 'NONE', #164, #299 ) ;
#361 = EDGE_CURVE ( 'NONE', #123, #64, #104, .T. ) ;
#362 = VERTEX_POINT ( 'NONE', #628 ) ;
#363 = AXIS2_PLACEMENT_3D ( 'NONE', #449, #594, #386 ) ;
#364 = VERTEX_POINT ( 'NONE', #498 ) ;
#365 = DIRECTION ( 'NONE',  ( 0.000000000000000000, 0.000000000000000000, 1.000000000000000000 ) ) ;
#366 = ADVANCED_FACE ( 'NONE', ( #243 ), #389, .T. ) ;
#367 = VECTOR ( 'NONE', #174, 1000.000000000000000 ) ;
#368 = DIRECTION ( 'NONE',  ( 0.000000000000000000, -0.000000000000000000, -1.000000000000000000 ) ) ;
#369 = DIRECTION ( 'NONE',  ( 0.08707249138189127047, -0.9952431306267512934, -0.04369773660973459706 ) ) ;
#370 = CARTESIAN_POINT ( 'NONE',  ( -0.6461811887232662421, 29.02612175763135838, -6.792567371164218493 ) ) ;
#371 = CYLINDRICAL_SURFACE ( 'NONE', #443, 1.000000000000000666 ) ;
#372 = CARTESIAN_POINT ( 'NONE',  ( -0.04726710111929743191, 28.99049224511566081, -7.602034334902621815 ) ) ;
#373 = EDGE_CURVE ( 'NONE', #359, #88, #32, .T. ) ;
#374 = VERTEX_POINT ( 'NONE', #543 ) ;
#375 = CARTESIAN_POINT ( 'NONE',  ( -0.6428940079278638864, 29.00000000000000000, -7.798672566371681825 ) ) ;
#376 = VECTOR ( 'NONE', #106, 1000.000000000000114 ) ;
#377 = ADVANCED_FACE ( 'NONE', ( #496 ), #465, .T. ) ;
#378 = ORIENTED_EDGE ( 'NONE', *, *, #95, .T. ) ;
#379 = EDGE_CURVE ( 'NONE', #200, #181, #517, .T. ) ;
#380 = VECTOR ( 'NONE', #484, 1000.000000000000000 ) ;
#381 = CARTESIAN_POINT ( 'NONE',  ( 0.4151016576884574150, 0.000000000000000000, -10.33584380862348162 ) ) ;
#382 = DIRECTION ( 'NONE',  ( 0.000000000000000000, 0.08715574274765837404, 0.9961946980917455452 ) ) ;
#383 = CYLINDRICAL_SURFACE ( 'NONE', #418, 2.000000000000000000 ) ;
#384 = DIRECTION ( 'NONE',  ( 0.08682659386424775028, -0.9924325091389669673, 0.08682659386424779191 ) ) ;
#385 = AXIS2_PLACEMENT_3D ( 'NONE', #442, #539, #631 ) ;
#386 = DIRECTION ( 'NONE',  ( 0.000000000000000000, -0.000000000000000000, -1.000000000000000000 ) ) ;
#387 = DIRECTION ( 'NONE',  ( 0.08707249138189128435, -0.9952431306267514044, -0.04369773660973460400 ) ) ;
#388 = CARTESIAN_POINT ( 'NONE',  ( 10.42035398230088106, 29.00000000000000000, 7.201327433628316399 ) ) ;
#389 = CYLINDRICAL_SURFACE ( 'NONE', #146, 0.9999999999999998890 ) ;
#390 = CARTESIAN_POINT ( 'NONE',  ( 3.420353982300881501, 23.00000000000000000, 0.2013274336283158161 ) ) ;
#391 = CARTESIAN_POINT ( 'NONE',  ( 3.420353982300881501, 29.00000000000000000, 0.2013274336283158161 ) ) ;
#392 = CARTESIAN_POINT ( 'NONE',  ( 3.420353982300881501, 23.00000000000000000, 0.2013274336283158161 ) ) ;
#393 = DIRECTION ( 'NONE',  ( -0.08682659386424779191, -0.9924325091389670783, -0.08682659386424783354 ) ) ;
#394 = DIRECTION ( 'NONE',  ( -0.000000000000000000, -1.000000000000000000, -0.000000000000000000 ) ) ;
#395 = AXIS2_PLACEMENT_3D ( 'NONE', #370, #247, #569 ) ;
#396 =( GEOMETRIC_REPRESENTATION_CONTEXT ( 3 ) GLOBAL_UNCERTAINTY_ASSIGNED_CONTEXT ( ( #405 ) ) GLOBAL_UNIT_ASSIGNED_CONTEXT ( ( #250, #312, #458 ) ) REPRESENTATION_CONTEXT ( 'NONE', 'WORKASPACE' ) );
#397 = DIRECTION ( 'NONE',  ( 0.000000000000000000, 0.000000000000000000, 1.000000000000000000 ) ) ;
#398 = CARTESIAN_POINT ( 'NONE',  ( 9.431669453982745921, 28.91415836668503658, 7.208837603401924810 ) ) ;
#399 = LINE ( 'NONE', #345, #309 ) ;
#400 = CARTESIAN_POINT ( 'NONE',  ( -0.5796460176991178326, 10.00000000000000000, 2.201327433628315955 ) ) ;
#401 = ORIENTED_EDGE ( 'NONE', *, *, #480, .F. ) ;
#402 = DIRECTION ( 'NONE',  ( 0.000000000000000000, -1.000000000000000000, 0.000000000000000000 ) ) ;
#403 = PLANE ( 'NONE',  #593 ) ;
#404 = ORIENTED_EDGE ( 'NONE', *, *, #165, .F. ) ;
#405 = UNCERTAINTY_MEASURE_WITH_UNIT (LENGTH_MEASURE( 1.000000000000000082E-05 ), #250, 'distance_accuracy_value', 'NONE');
#406 = DIRECTION ( 'NONE',  ( -0.08682659386424777803, -0.9924325091389669673, -0.08682659386424783354 ) ) ;
#407 = AXIS2_PLACEMENT_3D ( 'NONE', #151, #4, #201 ) ;
#408 = EDGE_LOOP ( 'NONE', ( #573, #578, #606, #602 ) ) ;
#409 = SHAPE_DEFINITION_REPRESENTATION ( #22, #332 ) ;
#410 = APPLICATION_CONTEXT ( 'automotive_design' ) ;
#411 = FACE_OUTER_BOUND ( 'NONE', #230, .T. ) ;
#412 = ORIENTED_EDGE ( 'NONE', *, *, #31, .F. ) ;
#413 =( BOUNDED_CURVE ( )  B_SPLINE_CURVE ( 3, ( #227, #234, #485, #544 ),
 .UNSPECIFIED., .F., .F. ) 
 B_SPLINE_CURVE_WITH_KNOTS ( ( 4, 4 ),
 ( 5.501585242055419656, 7.064785372303751920 ),
 .UNSPECIFIED. ) 
 CURVE ( )  GEOMETRIC_REPRESENTATION_ITEM ( )  RATIONAL_B_SPLINE_CURVE ( ( 1.000000000000000000, 0.8065248903853483586, 0.8065248903853483586, 1.000000000000000000 ) ) 
 REPRESENTATION_ITEM ( '' )  );
#414 = CIRCLE ( 'NONE', #80, 2.000000000000000000 ) ;
#415 = ADVANCED_FACE ( 'NONE', ( #168 ), #600, .T. ) ;
#416 = ORIENTED_EDGE ( 'NONE', *, *, #240, .F. ) ;
#417 = CARTESIAN_POINT ( 'NONE',  ( 0.000000000000000000, 29.00000000000000000, 0.000000000000000000 ) ) ;
#418 = AXIS2_PLACEMENT_3D ( 'NONE', #632, #191, #135 ) ;
#419 = EDGE_LOOP ( 'NONE', ( #589, #143, #15, #82 ) ) ;
#420 = DIRECTION ( 'NONE',  ( -0.000000000000000000, -1.000000000000000000, -0.000000000000000000 ) ) ;
#421 = LINE ( 'NONE', #20, #428 ) ;
#422 = APPLICATION_PROTOCOL_DEFINITION ( 'draft international standard', 'automotive_design', 1998, #410 ) ;
#423 = LINE ( 'NONE', #372, #159 ) ;
#424 = DIRECTION ( 'NONE',  ( 0.000000000000000000, -1.000000000000000000, 0.000000000000000000 ) ) ;
#425 = ORIENTED_EDGE ( 'NONE', *, *, #373, .F. ) ;
#426 = AXIS2_PLACEMENT_3D ( 'NONE', #228, #293, #432 ) ;
#427 = DIRECTION ( 'NONE',  ( -0.05208646356932982585, 0.9961946980917455452, 0.06987935179104684535 ) ) ;
#428 = VECTOR ( 'NONE', #369, 1000.000000000000000 ) ;
#429 = FACE_OUTER_BOUND ( 'NONE', #541, .T. ) ;
#430 = EDGE_CURVE ( 'NONE', #258, #60, #525, .T. ) ;
#431 = CARTESIAN_POINT ( 'NONE',  ( 7.420353982300881945, 0.000000000000000000, 3.701327433628314623 ) ) ;
#432 = DIRECTION ( 'NONE',  ( 0.000000000000000000, 0.000000000000000000, -1.000000000000000000 ) ) ;
#433 = DIRECTION ( 'NONE',  ( 0.000000000000000000, 0.000000000000000000, 1.000000000000000000 ) ) ;
#434 = ORIENTED_EDGE ( 'NONE', *, *, #128, .T. ) ;
#435 =( LENGTH_UNIT ( ) NAMED_UNIT ( * ) SI_UNIT ( .MILLI., .METRE. ) );
#436 = AXIS2_PLACEMENT_3D ( 'NONE', #2, #144, #197 ) ;
#437 = VECTOR ( 'NONE', #445, 1000.000000000000114 ) ;
#438 = DIRECTION ( 'NONE',  ( 0.000000000000000000, -1.000000000000000000, 0.000000000000000000 ) ) ;
#439 = DIRECTION ( 'NONE',  ( 0.08682659386424777803, 0.9924325091389669673, -0.08682659386424779191 ) ) ;
#440 = ORIENTED_EDGE ( 'NONE', *, *, #341, .T. ) ;
#441 =( BOUNDED_CURVE ( )  B_SPLINE_CURVE ( 3, ( #528, #381, #276, #613 ),
 .UNSPECIFIED., .F., .F. ) 
 B_SPLINE_CURVE_WITH_KNOTS ( ( 4, 4 ),
 ( 5.964179293989785968, 6.602191320369386496 ),
 .UNSPECIFIED. ) 
 CURVE ( )  GEOMETRIC_REPRESENTATION_ITEM ( )  RATIONAL_B_SPLINE_CURVE ( ( 1.000000000000000000, 0.9663650827441575553, 0.9663650827441575553, 1.000000000000000000 ) ) 
 REPRESENTATION_ITEM ( '' )  );
#442 = CARTESIAN_POINT ( 'NONE',  ( -4.579646017699118055, 29.00000000000000000, 7.201327433628316399 ) ) ;
#443 = AXIS2_PLACEMENT_3D ( 'NONE', #521, #387, #281 ) ;
#444 = DIRECTION ( 'NONE',  ( 0.000000000000000000, 0.000000000000000000, -1.000000000000000000 ) ) ;
#445 = DIRECTION ( 'NONE',  ( -0.08682659386424776415, 0.9924325091389669673, -0.08682659386424777803 ) ) ;
#446 = PLANE ( 'NONE',  #55 ) ;
#447 = CARTESIAN_POINT ( 'NONE',  ( -3.583451319607373176, 29.00000000000000000, 7.201327433628316399 ) ) ;
#448 = CARTESIAN_POINT ( 'NONE',  ( -0.5796460176991178326, 10.00000000000000000, 2.201327433628315955 ) ) ;
#449 = CARTESIAN_POINT ( 'NONE',  ( -0.5796460176991178326, 10.00000000000000000, 2.201327433628315955 ) ) ;
#450 = LINE ( 'NONE', #154, #176 ) ;
#451 = ORIENTED_EDGE ( 'NONE', *, *, #512, .F. ) ;
#452 = CARTESIAN_POINT ( 'NONE',  ( -3.477878628349975632, 30.11954564006765978, -6.696905177022541622 ) ) ;
#453 = DIRECTION ( 'NONE',  ( 2.478176394252581141E-16, -0.000000000000000000, -1.000000000000000000 ) ) ;
#454 = CARTESIAN_POINT ( 'NONE',  ( 12.95752522455268618, 0.000000000000000000, -0.5720188446256430082 ) ) ;
#455 = VERTEX_POINT ( 'NONE', #218 ) ;
#456 = CARTESIAN_POINT ( 'NONE',  ( -7.116817259950919627, 0.000000000000000000, -9.924120744248801529 ) ) ;
#457 = EDGE_LOOP ( 'NONE', ( #225, #274, #605, #357, #481, #271, #451, #268, #401, #206 ) ) ;
#458 =( NAMED_UNIT ( * ) SI_UNIT ( $, .STERADIAN. ) SOLID_ANGLE_UNIT ( ) );
#459 = VERTEX_POINT ( 'NONE', #375 ) ;
#460 = CARTESIAN_POINT ( 'NONE',  ( 10.42035398230088106, 29.00000000000000000, 7.201327433628316399 ) ) ;
#461 = AXIS2_PLACEMENT_3D ( 'NONE', #388, #382, #222 ) ;
#462 = ORIENTED_EDGE ( 'NONE', *, *, #294, .T. ) ;
#463 = EDGE_CURVE ( 'NONE', #570, #364, #476, .T. ) ;
#464 = VERTEX_POINT ( 'NONE', #72 ) ;
#465 = CYLINDRICAL_SURFACE ( 'NONE', #233, 0.9999999999999998890 ) ;
#466 = PRODUCT ( 'Steering-Post-Right', 'Steering-Post-Right', '', ( #472 ) ) ;
#467 = EDGE_CURVE ( 'NONE', #459, #374, #313, .T. ) ;
#468 = ORIENTED_EDGE ( 'NONE', *, *, #147, .F. ) ;
#469 = CARTESIAN_POINT ( 'NONE',  ( -0.5796460176991178326, 0.000000000000000000, 0.2013274336283158161 ) ) ;
#470 = EDGE_CURVE ( 'NONE', #286, #170, #296, .T. ) ;
#471 = CARTESIAN_POINT ( 'NONE',  ( 7.420353982300881945, 10.00000000000000000, 2.201327433628315955 ) ) ;
#472 = PRODUCT_CONTEXT ( 'NONE', #237, 'mechanical' ) ;
#473 = PRODUCT_DEFINITION_FORMATION_WITH_SPECIFIED_SOURCE ( 'ANY', '', #466, .NOT_KNOWN. ) ;
#474 = CARTESIAN_POINT ( 'NONE',  ( -7.116817259950919627, -0.000000000000000000, 8.742303977788372649 ) ) ;
#475 = VERTEX_POINT ( 'NONE', #469 ) ;
#476 = LINE ( 'NONE', #117, #367 ) ;
#477 = VECTOR ( 'NONE', #23, 1000.000000000000000 ) ;
#478 = ORIENTED_EDGE ( 'NONE', *, *, #253, .T. ) ;
#479 = PLANE ( 'NONE',  #461 ) ;
#480 = EDGE_CURVE ( 'NONE', #267, #166, #24, .T. ) ;
#481 = ORIENTED_EDGE ( 'NONE', *, *, #347, .F. ) ;
#482 = COLOUR_RGB ( '',0.7921568627450980005, 0.8196078431372548767, 0.9333333333333333481 ) ;
#483 = ADVANCED_FACE ( 'NONE', ( #21, #120 ), #5, .F. ) ;
#484 = DIRECTION ( 'NONE',  ( -0.000000000000000000, -0.000000000000000000, 1.000000000000000000 ) ) ;
#485 = CARTESIAN_POINT ( 'NONE',  ( 10.42035398230088283, 29.00000000000000355, 6.789604369253629201 ) ) ;
#486 = DIRECTION ( 'NONE',  ( 0.000000000000000000, 1.000000000000000000, 0.000000000000000000 ) ) ;
#487 = DIRECTION ( 'NONE',  ( 1.000000000000000000, -0.000000000000000000, -0.000000000000000000 ) ) ;
#488 = CARTESIAN_POINT ( 'NONE',  ( -0.04754300506455266112, 29.00000000000000000, -7.601202514134659083 ) ) ;
#489 = ADVANCED_FACE ( 'NONE', ( #567 ), #260, .F. ) ;
#490 = ORIENTED_EDGE ( 'NONE', *, *, #503, .T. ) ;
#491 =( NAMED_UNIT ( * ) PLANE_ANGLE_UNIT ( ) SI_UNIT ( $, .RADIAN. ) );
#492 = VECTOR ( 'NONE', #137, 1000.000000000000114 ) ;
#493 = AXIS2_PLACEMENT_3D ( 'NONE', #448, #51, #242 ) ;
#494 = CARTESIAN_POINT ( 'NONE',  ( 10.42035398230088283, 28.99999999999999645, 0.3805682986228108300 ) ) ;
#495 = CARTESIAN_POINT ( 'NONE',  ( 3.420353982300881501, 23.00000000000000000, 0.2013274336283158161 ) ) ;
#496 = FACE_OUTER_BOUND ( 'NONE', #419, .T. ) ;
#497 = CARTESIAN_POINT ( 'NONE',  ( -4.579646017699118055, 29.00000000000000000, -6.802477868279939166 ) ) ;
#498 = CARTESIAN_POINT ( 'NONE',  ( -0.5796460176991176105, 0.000000000000000000, 4.201327433628315511 ) ) ;
#499 = DIRECTION ( 'NONE',  ( 0.9961946980917455452, 0.08715574274765837404, 2.468746184890540450E-16 ) ) ;
#500 = VERTEX_POINT ( 'NONE', #265 ) ;
#501 = FACE_OUTER_BOUND ( 'NONE', #553, .T. ) ;
#502 = AXIS2_PLACEMENT_3D ( 'NONE', #244, #304, #205 ) ;
#503 = EDGE_CURVE ( 'NONE', #455, #175, #423, .T. ) ;
#504 = CARTESIAN_POINT ( 'NONE',  ( 12.81381426454691308, 0.000000000000000000, -1.179082656451662325 ) ) ;
#505 = ORIENTED_EDGE ( 'NONE', *, *, #240, .T. ) ;
#506 = MANIFOLD_SOLID_BREP ( 'Fillet1', #292 ) ;
#507 = EDGE_CURVE ( 'NONE', #107, #258, #575, .T. ) ;
#508 = ORIENTED_EDGE ( 'NONE', *, *, #31, .T. ) ;
#509 = EDGE_LOOP ( 'NONE', ( #210, #311 ) ) ;
#510 = DIRECTION ( 'NONE',  ( 0.000000000000000000, 0.000000000000000000, -1.000000000000000000 ) ) ;
#511 = ORIENTED_EDGE ( 'NONE', *, *, #180, .F. ) ;
#512 = EDGE_CURVE ( 'NONE', #28, #455, #537, .T. ) ;
#513 = AXIS2_PLACEMENT_3D ( 'NONE', #400, #198, #307 ) ;
#514 = ORIENTED_EDGE ( 'NONE', *, *, #199, .T. ) ;
#515 = VERTEX_POINT ( 'NONE', #326 ) ;
#516 = EDGE_LOOP ( 'NONE', ( #167, #514, #440, #300 ) ) ;
#517 = LINE ( 'NONE', #270, #42 ) ;
#518 = ORIENTED_EDGE ( 'NONE', *, *, #30, .T. ) ;
#519 = CARTESIAN_POINT ( 'NONE',  ( -6.120622561859175192, 0.000000000000000000, 9.738498675880117972 ) ) ;
#520 = VECTOR ( 'NONE', #349, 1000.000000000000000 ) ;
#521 = CARTESIAN_POINT ( 'NONE',  ( 9.375128301466896019, 29.47327095445194090, 0.7258788249338904430 ) ) ;
#522 = ORIENTED_EDGE ( 'NONE', *, *, #361, .F. ) ;
#523 = CIRCLE ( 'NONE', #126, 1.499999999999998668 ) ;
#524 = ORIENTED_EDGE ( 'NONE', *, *, #133, .T. ) ;
#525 =( BOUNDED_CURVE ( )  B_SPLINE_CURVE ( 3, ( #68, #18, #220, #316 ),
 .UNSPECIFIED., .F., .F. ) 
 B_SPLINE_CURVE_WITH_KNOTS ( ( 4, 4 ),
 ( 5.501585242055419656, 7.064785372303752808 ),
 .UNSPECIFIED. ) 
 CURVE ( )  GEOMETRIC_REPRESENTATION_ITEM ( )  RATIONAL_B_SPLINE_CURVE ( ( 1.000000000000000000, 0.8065248903853482476, 0.8065248903853482476, 1.000000000000000000 ) ) 
 REPRESENTATION_ITEM ( '' )  );
#526 = ADVANCED_FACE ( 'NONE', ( #577 ), #479, .T. ) ;
#527 = LINE ( 'NONE', #83, #65 ) ;
#528 = CARTESIAN_POINT ( 'NONE',  ( 0.1986521309584828032, 0.000000000000000000, -10.33584380862348340 ) ) ;
#529 = AXIS2_PLACEMENT_3D ( 'NONE', #239, #547, #40 ) ;
#530 = CARTESIAN_POINT ( 'NONE',  ( 3.420353982300881501, 23.00000000000000000, 0.2013274336283158161 ) ) ;
#531 = DIRECTION ( 'NONE',  ( 0.000000000000000000, 1.000000000000000000, 0.000000000000000000 ) ) ;
#532 = VERTEX_POINT ( 'NONE', #431 ) ;
#533 = SURFACE_SIDE_STYLE ('',( #187 ) ) ;
#534 = DIRECTION ( 'NONE',  ( -0.8017756442437558029, -0.000000000000000000, -0.5976251469755186063 ) ) ;
#535 = CARTESIAN_POINT ( 'NONE',  ( -0.2210869638047341379, 29.00000000000000000, -7.730558194359442581 ) ) ;
#536 = ORIENTED_EDGE ( 'NONE', *, *, #344, .F. ) ;
#537 = LINE ( 'NONE', #124, #492 ) ;
#538 = ORIENTED_EDGE ( 'NONE', *, *, #347, .T. ) ;
#539 = DIRECTION ( 'NONE',  ( -0.9961946980917455452, 0.08715574274765837404, 0.000000000000000000 ) ) ;
#540 = LINE ( 'NONE', #629, #179 ) ;
#541 = EDGE_LOOP ( 'NONE', ( #78, #630, #478, #508 ) ) ;
#542 = VECTOR ( 'NONE', #184, 1000.000000000000114 ) ;
#543 = CARTESIAN_POINT ( 'NONE',  ( -3.583451319607371399, 29.00000000000000000, -7.798672566371683601 ) ) ;
#544 = CARTESIAN_POINT ( 'NONE',  ( 10.42035398230088106, 29.00000000000000000, 6.205132735536571964 ) ) ;
#545 = EDGE_CURVE ( 'NONE', #459, #464, #182, .T. ) ;
#546 =( BOUNDED_CURVE ( )  B_SPLINE_CURVE ( 3, ( #251, #504, #248, #454 ),
 .UNSPECIFIED., .F., .F. ) 
 B_SPLINE_CURVE_WITH_KNOTS ( ( 4, 4 ),
 ( 5.819963856970060689, 6.746406757389110886 ),
 .UNSPECIFIED. ) 
 CURVE ( )  GEOMETRIC_REPRESENTATION_ITEM ( )  RATIONAL_B_SPLINE_CURVE ( ( 1.000000000000000000, 0.9297451291869345269, 0.9297451291869345269, 1.000000000000000000 ) ) 
 REPRESENTATION_ITEM ( '' )  );
#547 = DIRECTION ( 'NONE',  ( 0.000000000000000000, 1.000000000000000000, 0.000000000000000000 ) ) ;
#548 = CARTESIAN_POINT ( 'NONE',  ( 12.95752522455268441, 0.000000000000000000, 9.326775611505432551 ) ) ;
#549 = EDGE_LOOP ( 'NONE', ( #119, #462, #221, #511 ) ) ;
#550 = ADVANCED_FACE ( 'NONE', ( #625 ), #44, .T. ) ;
#551 = DIRECTION ( 'NONE',  ( 1.000000000000000000, -0.000000000000000000, -0.000000000000000000 ) ) ;
#552 = FACE_OUTER_BOUND ( 'NONE', #317, .T. ) ;
#553 = EDGE_LOOP ( 'NONE', ( #102, #611 ) ) ;
#554 = CARTESIAN_POINT ( 'NONE',  ( -6.705094195576232430, 0.000000000000000000, 9.738498675880117972 ) ) ;
#555 = VECTOR ( 'NONE', #61, 1000.000000000000114 ) ;
#556 = CARTESIAN_POINT ( 'NONE',  ( 10.42225620829144184, 28.97825745743623926, 0.7003177561672584428 ) ) ;
#557 = ORIENTED_EDGE ( 'NONE', *, *, #291, .F. ) ;
#558 = AXIS2_PLACEMENT_3D ( 'NONE', #471, #424, #84 ) ;
#559 = CARTESIAN_POINT ( 'NONE',  ( -6.120622561859173416, 0.000000000000000000, -10.33584380862348517 ) ) ;
#560 = EDGE_CURVE ( 'NONE', #609, #374, #231, .T. ) ;
#561 = EDGE_LOOP ( 'NONE', ( #259, #261, #9, #564 ) ) ;
#562 = CARTESIAN_POINT ( 'NONE',  ( -4.579646017699118055, 29.00000000000000000, 6.205132735536570188 ) ) ;
#563 = ADVANCED_FACE ( 'NONE', ( #129 ), #322, .T. ) ;
#564 = ORIENTED_EDGE ( 'NONE', *, *, #545, .F. ) ;
#565 = ORIENTED_EDGE ( 'NONE', *, *, #608, .F. ) ;
#566 = EDGE_LOOP ( 'NONE', ( #350, #109, #148, #327, #116, #321, #177, #297, #226, #378 ) ) ;
#567 = FACE_OUTER_BOUND ( 'NONE', #39, .T. ) ;
#568 = CARTESIAN_POINT ( 'NONE',  ( -0.5796460176991178326, 0.000000000000000000, 2.201327433628315955 ) ) ;
#569 = DIRECTION ( 'NONE',  ( 0.000000000000000000, 0.08715574274765701401, -0.9961946980917456562 ) ) ;
#570 = VERTEX_POINT ( 'NONE', #324 ) ;
#571 = DIRECTION ( 'NONE',  ( -0.02889633520296242680, 0.9957787008503929949, 0.08711934770498193370 ) ) ;
#572 = AXIS2_PLACEMENT_3D ( 'NONE', #530, #486, #279 ) ;
#573 = ORIENTED_EDGE ( 'NONE', *, *, #113, .F. ) ;
#574 = CARTESIAN_POINT ( 'NONE',  ( -4.579646017699118055, 29.00000000000000000, -7.798672566371683601 ) ) ;
#575 = LINE ( 'NONE', #37, #619 ) ;
#576 = EDGE_LOOP ( 'NONE', ( #330, #308 ) ) ;
#577 = FACE_OUTER_BOUND ( 'NONE', #516, .T. ) ;
#578 = ORIENTED_EDGE ( 'NONE', *, *, #14, .T. ) ;
#579 = ORIENTED_EDGE ( 'NONE', *, *, #463, .T. ) ;
#580 = FILL_AREA_STYLE_COLOUR ( '', #482 ) ;
#581 = CARTESIAN_POINT ( 'NONE',  ( -7.116817259950919627, -0.000000000000000000, 0.000000000000000000 ) ) ;
#582 = AXIS2_PLACEMENT_3D ( 'NONE', #45, #49, #149 ) ;
#583 =( NAMED_UNIT ( * ) SI_UNIT ( $, .STERADIAN. ) SOLID_ANGLE_UNIT ( ) );
#584 = CARTESIAN_POINT ( 'NONE',  ( 7.420353982300881945, 10.00000000000000000, 3.701327433628314623 ) ) ;
#585 = CARTESIAN_POINT ( 'NONE',  ( 7.420353982300881945, 0.000000000000000000, 2.201327433628315955 ) ) ;
#586 = CARTESIAN_POINT ( 'NONE',  ( -0.6461811887232653540, 29.11327750037901652, -7.788762069255963816 ) ) ;
#587 = CARTESIAN_POINT ( 'NONE',  ( 9.378897452168276416, 29.43018936479817782, 6.159870903495710870 ) ) ;
#588 = CARTESIAN_POINT ( 'NONE',  ( -4.579646017699118055, 29.00000000000000000, -6.802477868279939166 ) ) ;
#589 = ORIENTED_EDGE ( 'NONE', *, *, #430, .F. ) ;
#590 = DIRECTION ( 'NONE',  ( 0.000000000000000000, 1.000000000000000000, 0.000000000000000000 ) ) ;
#591 = CARTESIAN_POINT ( 'NONE',  ( 3.420353982300881945, 29.00000000000000000, -1.748672566371683779 ) ) ;
#592 = CYLINDRICAL_SURFACE ( 'NONE', #407, 1.499999999999998668 ) ;
#593 = AXIS2_PLACEMENT_3D ( 'NONE', #63, #499, #607 ) ;
#594 = DIRECTION ( 'NONE',  ( 0.000000000000000000, -1.000000000000000000, 0.000000000000000000 ) ) ;
#595 = LINE ( 'NONE', #581, #380 ) ;
#596 = FACE_OUTER_BOUND ( 'NONE', #549, .T. ) ;
#597 = LINE ( 'NONE', #52, #196 ) ;
#598 = CARTESIAN_POINT ( 'NONE',  ( 3.420353982300881501, 23.00000000000000000, 0.2013274336283158161 ) ) ;
#599 = ORIENTED_EDGE ( 'NONE', *, *, #253, .F. ) ;
#600 = CYLINDRICAL_SURFACE ( 'NONE', #395, 0.9999999999999998890 ) ;
#601 = CARTESIAN_POINT ( 'NONE',  ( -3.477878628349978296, 30.20670138281531791, 7.095754742370918855 ) ) ;
#602 = ORIENTED_EDGE ( 'NONE', *, *, #131, .F. ) ;
#603 = STYLED_ITEM ( 'NONE', ( #178 ), #506 ) ;
#604 = CARTESIAN_POINT ( 'NONE',  ( -6.705094195576232430, 0.000000000000000000, -10.33584380862349050 ) ) ;
#605 = ORIENTED_EDGE ( 'NONE', *, *, #128, .F. ) ;
#606 = ORIENTED_EDGE ( 'NONE', *, *, #344, .T. ) ;
#607 = DIRECTION ( 'NONE',  ( -0.08715574274765837404, 0.9961946980917455452, -2.159873043007975763E-17 ) ) ;
#608 = EDGE_CURVE ( 'NONE', #200, #267, #527, .T. ) ;
#609 = VERTEX_POINT ( 'NONE', #331 ) ;
#610 = ADVANCED_FACE ( 'NONE', ( #35 ), #343, .T. ) ;
#611 = ORIENTED_EDGE ( 'NONE', *, *, #19, .T. ) ;
#612 = VECTOR ( 'NONE', #487, 1000.000000000000000 ) ;
#613 = CARTESIAN_POINT ( 'NONE',  ( 0.7940031338217936607, 0.000000000000000000, -10.13837375638645888 ) ) ;
#614 = ORIENTED_EDGE ( 'NONE', *, *, #131, .T. ) ;
#615 = CARTESIAN_POINT ( 'NONE',  ( -7.116817259950921404, 0.000000000000000000, 9.326775611505430774 ) ) ;
#616 = ORIENTED_EDGE ( 'NONE', *, *, #190, .T. ) ;
#617 = DIRECTION ( 'NONE',  ( -0.08682659386424779191, -0.9924325091389670783, 0.08682659386424779191 ) ) ;
#618 = EDGE_CURVE ( 'NONE', #13, #570, #122, .T. ) ;
#619 = VECTOR ( 'NONE', #132, 1000.000000000000000 ) ;
#620 = EDGE_LOOP ( 'NONE', ( #204, #353, #269, #136 ) ) ;
#621 = SURFACE_STYLE_USAGE ( .BOTH. , #533 ) ;
#622 = CARTESIAN_POINT ( 'NONE',  ( 12.55668152932424952, 0.000000000000000000, -1.370743490480364368 ) ) ;
#623 = EDGE_CURVE ( 'NONE', #118, #500, #103, .T. ) ;
#624 = CARTESIAN_POINT ( 'NONE',  ( 11.96133052646093908, 0.000000000000000000, 9.738498675880117972 ) ) ;
#625 = FACE_OUTER_BOUND ( 'NONE', #576, .T. ) ;
#626 = FACE_BOUND ( 'NONE', #67, .T. ) ;
#627 = CARTESIAN_POINT ( 'NONE',  ( -7.116817259950919627, -0.000000000000000000, 8.742303977788372649 ) ) ;
#628 = CARTESIAN_POINT ( 'NONE',  ( -7.116817259950919627, 0.000000000000000000, -9.339649110531741627 ) ) ;
#629 = CARTESIAN_POINT ( 'NONE',  ( 3.420353982300881501, 23.00000000000000000, 2.151327433628315244 ) ) ;
#630 = ORIENTED_EDGE ( 'NONE', *, *, #618, .F. ) ;
#631 = DIRECTION ( 'NONE',  ( 0.08715574274765837404, 0.9961946980917455452, 0.000000000000000000 ) ) ;
#632 = CARTESIAN_POINT ( 'NONE',  ( -0.5796460176991178326, 10.00000000000000000, 2.201327433628315955 ) ) ;
#633 = PLANE ( 'NONE',  #436 ) ;
#634 = ADVANCED_FACE ( 'NONE', ( #596 ), #592, .F. ) ;
#635 = DIRECTION ( 'NONE',  ( 0.000000000000000000, -1.000000000000000000, 0.000000000000000000 ) ) ;
ENDSEC;
END-ISO-10303-21;
