ISO-10303-21;
HEADER;
FILE_DESCRIPTION (( 'STEP AP214' ),
    '1' );
FILE_NAME ('Steering-Arm-Post-Left.STEP',
    '2026-05-20T19:20:27',
    ( '' ),
    ( '' ),
    'SwSTEP 2.0',
    'SolidWorks 2026',
    '' );
FILE_SCHEMA (( 'AUTOMOTIVE_DESIGN' ));
ENDSEC;

DATA;
#1 = LINE ( 'NONE', #192, #858 ) ;
#2 = ORIENTED_EDGE ( 'NONE', *, *, #457, .F. ) ;
#3 = CARTESIAN_POINT ( 'NONE',  ( 27.00000000000000000, 1.000000000000000888, -5.000000000000000000 ) ) ;
#4 = LINE ( 'NONE', #694, #86 ) ;
#5 = ORIENTED_EDGE ( 'NONE', *, *, #273, .F. ) ;
#6 = ADVANCED_FACE ( 'NONE', ( #437 ), #716, .T. ) ;
#7 = DIRECTION ( 'NONE',  ( 0.000000000000000000, 0.000000000000000000, 1.000000000000000000 ) ) ;
#8 = ORIENTED_EDGE ( 'NONE', *, *, #125, .T. ) ;
#9 = DIRECTION ( 'NONE',  ( 0.000000000000000000, 0.000000000000000000, 1.000000000000000000 ) ) ;
#10 = DIRECTION ( 'NONE',  ( 0.000000000000000000, -1.000000000000000000, 0.000000000000000000 ) ) ;
#11 = CARTESIAN_POINT ( 'NONE',  ( -25.00000000000000000, 0.000000000000000000, 3.000000000000000000 ) ) ;
#12 = CARTESIAN_POINT ( 'NONE',  ( -27.00000000000000000, 1.000000000000000888, 5.000000000000000000 ) ) ;
#13 = VERTEX_POINT ( 'NONE', #357 ) ;
#14 = CARTESIAN_POINT ( 'NONE',  ( -24.05000000000000071, 5.000000000000000000, 0.000000000000000000 ) ) ;
#15 = CIRCLE ( 'NONE', #567, 0.9999999999999922284 ) ;
#16 = DIRECTION ( 'NONE',  ( 0.000000000000000000, -0.7071067811865474617, 0.7071067811865474617 ) ) ;
#17 = DIRECTION ( 'NONE',  ( 0.000000000000000000, 0.000000000000000000, 1.000000000000000000 ) ) ;
#18 = CARTESIAN_POINT ( 'NONE',  ( -25.00000000000000000, 4.000000000000006217, 3.000000000000000000 ) ) ;
#19 = VERTEX_POINT ( 'NONE', #30 ) ;
#20 = EDGE_CURVE ( 'NONE', #1061, #480, #426, .T. ) ;
#21 = LINE ( 'NONE', #371, #787 ) ;
#22 = DIRECTION ( 'NONE',  ( 0.000000000000000000, 0.000000000000000000, -1.000000000000000000 ) ) ;
#23 = CARTESIAN_POINT ( 'NONE',  ( 25.00000000000000000, 0.000000000000000000, 3.000000000000000000 ) ) ;
#24 = ORIENTED_EDGE ( 'NONE', *, *, #701, .T. ) ;
#25 = UNCERTAINTY_MEASURE_WITH_UNIT (LENGTH_MEASURE( 1.000000000000000082E-05 ), #47, 'distance_accuracy_value', 'NONE');
#26 = PLANE ( 'NONE',  #475 ) ;
#27 = ADVANCED_FACE ( 'NONE', ( #535 ), #180, .F. ) ;
#28 = EDGE_CURVE ( 'NONE', #708, #13, #241, .T. ) ;
#29 = EDGE_CURVE ( 'NONE', #395, #738, #96, .T. ) ;
#30 = CARTESIAN_POINT ( 'NONE',  ( -8.050000000000000711, 0.000000000000000000, -1.499999999999999556 ) ) ;
#31 = ORIENTED_EDGE ( 'NONE', *, *, #746, .F. ) ;
#32 = VECTOR ( 'NONE', #207, 1000.000000000000000 ) ;
#33 = DIRECTION ( 'NONE',  ( 0.000000000000000000, -1.000000000000000000, 0.000000000000000000 ) ) ;
#34 = AXIS2_PLACEMENT_3D ( 'NONE', #479, #635, #468 ) ;
#35 = EDGE_CURVE ( 'NONE', #1111, #547, #927, .T. ) ;
#36 = VERTEX_POINT ( 'NONE', #279 ) ;
#37 = DIRECTION ( 'NONE',  ( -0.7071067811865500152, -0.7071067811865451302, 0.000000000000000000 ) ) ;
#38 = DIRECTION ( 'NONE',  ( -0.000000000000000000, 1.000000000000000000, -0.000000000000000000 ) ) ;
#39 = VERTEX_POINT ( 'NONE', #941 ) ;
#40 = CARTESIAN_POINT ( 'NONE',  ( -25.00000000000000000, 0.000000000000000000, -3.000000000000000000 ) ) ;
#41 = CARTESIAN_POINT ( 'NONE',  ( 25.00000000000000355, 0.000000000000000000, -3.999999999999990674 ) ) ;
#42 = ORIENTED_EDGE ( 'NONE', *, *, #178, .F. ) ;
#43 = LINE ( 'NONE', #390, #120 ) ;
#44 = AXIS2_PLACEMENT_3D ( 'NONE', #231, #583, #766 ) ;
#45 = DIRECTION ( 'NONE',  ( 0.000000000000000000, 0.000000000000000000, 1.000000000000000000 ) ) ;
#46 = EDGE_LOOP ( 'NONE', ( #24, #182, #1000, #541 ) ) ;
#47 =( LENGTH_UNIT ( ) NAMED_UNIT ( * ) SI_UNIT ( .MILLI., .METRE. ) );
#48 = PRODUCT ( 'Steering-Arm-Post-Left', 'Steering-Arm-Post-Left', '', ( #465 ) ) ;
#49 = VECTOR ( 'NONE', #668, 1000.000000000000000 ) ;
#50 = ORIENTED_EDGE ( 'NONE', *, *, #557, .F. ) ;
#51 = ADVANCED_FACE ( 'NONE', ( #448 ), #393, .T. ) ;
#52 = AXIS2_PLACEMENT_3D ( 'NONE', #854, #1006, #1106 ) ;
#53 = CARTESIAN_POINT ( 'NONE',  ( 25.99999999999999289, 0.000000000000000000, 3.000000000000000000 ) ) ;
#54 = ORIENTED_EDGE ( 'NONE', *, *, #139, .T. ) ;
#55 = CARTESIAN_POINT ( 'NONE',  ( -24.05000000000000071, -2.500000000000000000, 1.500000000000000666 ) ) ;
#56 = VERTEX_POINT ( 'NONE', #795 ) ;
#57 = DIRECTION ( 'NONE',  ( 0.000000000000000000, 0.000000000000000000, -1.000000000000000000 ) ) ;
#58 = ORIENTED_EDGE ( 'NONE', *, *, #529, .F. ) ;
#59 = CARTESIAN_POINT ( 'NONE',  ( -25.00000000000000000, 5.000000000000000000, 4.000000000000006217 ) ) ;
#60 = DIRECTION ( 'NONE',  ( 0.000000000000000000, 1.000000000000000000, 0.000000000000000000 ) ) ;
#61 = AXIS2_PLACEMENT_3D ( 'NONE', #820, #560, #467 ) ;
#62 = ORIENTED_EDGE ( 'NONE', *, *, #888, .F. ) ;
#63 = AXIS2_PLACEMENT_3D ( 'NONE', #352, #875, #181 ) ;
#64 = EDGE_CURVE ( 'NONE', #1107, #571, #1004, .T. ) ;
#65 = DIRECTION ( 'NONE',  ( 0.000000000000000000, 0.7071067811865451302, -0.7071067811865500152 ) ) ;
#66 = VECTOR ( 'NONE', #89, 1000.000000000000000 ) ;
#67 = CARTESIAN_POINT ( 'NONE',  ( 25.00000000000000355, 1.000000000000000888, 5.000000000000000000 ) ) ;
#68 = PRODUCT_DEFINITION_SHAPE ( 'NONE', 'NONE',  #397 ) ;
#69 = DIRECTION ( 'NONE',  ( -0.000000000000000000, 1.000000000000000000, -0.000000000000000000 ) ) ;
#70 = ORIENTED_EDGE ( 'NONE', *, *, #306, .T. ) ;
#71 = DIRECTION ( 'NONE',  ( 0.000000000000000000, 1.000000000000000000, 0.000000000000000000 ) ) ;
#72 = CARTESIAN_POINT ( 'NONE',  ( -27.00000000000000000, 1.000000000000000888, -5.000000000000000000 ) ) ;
#73 = AXIS2_PLACEMENT_3D ( 'NONE', #616, #190, #1032 ) ;
#74 = CARTESIAN_POINT ( 'NONE',  ( -25.00000000000000000, 4.000000000000006217, 5.000000000000000000 ) ) ;
#75 = ORIENTED_EDGE ( 'NONE', *, *, #733, .T. ) ;
#76 = EDGE_CURVE ( 'NONE', #681, #36, #518, .T. ) ;
#77 = ORIENTED_EDGE ( 'NONE', *, *, #76, .T. ) ;
#78 = CYLINDRICAL_SURFACE ( 'NONE', #1105, 2.000000000000000000 ) ;
#79 = CARTESIAN_POINT ( 'NONE',  ( 26.00000000000000711, 5.000000000000000000, -3.000000000000000000 ) ) ;
#80 = ORIENTED_EDGE ( 'NONE', *, *, #1096, .F. ) ;
#81 = DIRECTION ( 'NONE',  ( 0.000000000000000000, 0.7071067811865500152, -0.7071067811865451302 ) ) ;
#82 = ORIENTED_EDGE ( 'NONE', *, *, #87, .F. ) ;
#83 = CIRCLE ( 'NONE', #978, 2.000000000000000000 ) ;
#84 = CARTESIAN_POINT ( 'NONE',  ( -24.05000000000000071, -2.500000000000000000, 2.899999999999999911 ) ) ;
#85 = AXIS2_PLACEMENT_3D ( 'NONE', #11, #612, #869 ) ;
#86 = VECTOR ( 'NONE', #170, 1000.000000000000114 ) ;
#87 = EDGE_CURVE ( 'NONE', #1017, #398, #478, .T. ) ;
#88 = CARTESIAN_POINT ( 'NONE',  ( -8.050000000000000711, -2.000000000000000000, -1.499999999999999556 ) ) ;
#89 = DIRECTION ( 'NONE',  ( -1.000000000000000000, 0.000000000000000000, 0.000000000000000000 ) ) ;
#90 = DIRECTION ( 'NONE',  ( 0.000000000000000000, -1.000000000000000000, 0.000000000000000000 ) ) ;
#91 = ORIENTED_EDGE ( 'NONE', *, *, #130, .F. ) ;
#92 = AXIS2_PLACEMENT_3D ( 'NONE', #579, #584, #926 ) ;
#93 = DIRECTION ( 'NONE',  ( -0.000000000000000000, -1.000000000000000000, -0.000000000000000000 ) ) ;
#94 = EDGE_CURVE ( 'NONE', #351, #547, #186, .T. ) ;
#95 = CARTESIAN_POINT ( 'NONE',  ( 25.00000000000000355, 5.000000000000000000, -4.000000000000004441 ) ) ;
#96 = LINE ( 'NONE', #861, #697 ) ;
#97 = DIRECTION ( 'NONE',  ( 1.000000000000000000, 0.000000000000000000, 0.000000000000000000 ) ) ;
#98 = VERTEX_POINT ( 'NONE', #966 ) ;
#99 = CARTESIAN_POINT ( 'NONE',  ( -25.99999999999999289, 0.000000000000000000, 0.000000000000000000 ) ) ;
#100 = LINE ( 'NONE', #440, #348 ) ;
#101 = EDGE_LOOP ( 'NONE', ( #471, #962 ) ) ;
#102 = CARTESIAN_POINT ( 'NONE',  ( 20.94999999999999929, -2.000000000000000000, 1.500000000000000666 ) ) ;
#103 = ORIENTED_EDGE ( 'NONE', *, *, #430, .T. ) ;
#104 = EDGE_CURVE ( 'NONE', #134, #647, #336, .T. ) ;
#105 = CARTESIAN_POINT ( 'NONE',  ( 4.000000000000000000, 5.000000000000000000, -2.000000000000000444 ) ) ;
#106 = VECTOR ( 'NONE', #528, 1000.000000000000000 ) ;
#107 = AXIS2_PLACEMENT_3D ( 'NONE', #18, #955, #7 ) ;
#108 = AXIS2_PLACEMENT_3D ( 'NONE', #558, #386, #45 ) ;
#109 = DIRECTION ( 'NONE',  ( 0.000000000000000000, 0.000000000000000000, 1.000000000000000000 ) ) ;
#110 = ADVANCED_FACE ( 'NONE', ( #301 ), #808, .T. ) ;
#111 = VERTEX_POINT ( 'NONE', #41 ) ;
#112 = DIRECTION ( 'NONE',  ( 0.000000000000000000, -1.000000000000000000, 0.000000000000000000 ) ) ;
#113 = ORIENTED_EDGE ( 'NONE', *, *, #506, .F. ) ;
#114 = ORIENTED_EDGE ( 'NONE', *, *, #993, .F. ) ;
#115 = DIRECTION ( 'NONE',  ( 0.000000000000000000, 1.000000000000000000, 0.000000000000000000 ) ) ;
#116 = CARTESIAN_POINT ( 'NONE',  ( -26.00000000000000711, 5.000000000000000000, 0.000000000000000000 ) ) ;
#117 = ORIENTED_EDGE ( 'NONE', *, *, #168, .F. ) ;
#118 = FILL_AREA_STYLE_COLOUR ( '', #749 ) ;
#119 = AXIS2_PLACEMENT_3D ( 'NONE', #774, #315, #660 ) ;
#120 = VECTOR ( 'NONE', #729, 1000.000000000000000 ) ;
#121 = DIRECTION ( 'NONE',  ( 0.000000000000000000, 0.000000000000000000, -1.000000000000000000 ) ) ;
#122 = AXIS2_PLACEMENT_3D ( 'NONE', #644, #995, #121 ) ;
#123 = VERTEX_POINT ( 'NONE', #894 ) ;
#124 = FACE_OUTER_BOUND ( 'NONE', #46, .T. ) ;
#125 = EDGE_CURVE ( 'NONE', #13, #708, #361, .T. ) ;
#126 = LINE ( 'NONE', #726, #967 ) ;
#127 = ORIENTED_EDGE ( 'NONE', *, *, #602, .T. ) ;
#128 = DIRECTION ( 'NONE',  ( 0.000000000000000000, 0.000000000000000000, 1.000000000000000000 ) ) ;
#129 = CARTESIAN_POINT ( 'NONE',  ( 25.00000000000000355, 4.000000000000006217, -3.000000000000000000 ) ) ;
#130 = EDGE_CURVE ( 'NONE', #1077, #427, #211, .T. ) ;
#131 = ORIENTED_EDGE ( 'NONE', *, *, #746, .T. ) ;
#132 = PRESENTATION_STYLE_ASSIGNMENT (( #310 ) ) ;
#133 = EDGE_CURVE ( 'NONE', #571, #1107, #1118, .T. ) ;
#134 = VERTEX_POINT ( 'NONE', #383 ) ;
#135 = STYLED_ITEM ( 'NONE', ( #132 ), #847 ) ;
#136 = DIRECTION ( 'NONE',  ( 0.000000000000000000, 0.000000000000000000, -1.000000000000000000 ) ) ;
#137 = AXIS2_PLACEMENT_3D ( 'NONE', #698, #882, #1048 ) ;
#138 = ORIENTED_EDGE ( 'NONE', *, *, #29, .F. ) ;
#139 = EDGE_CURVE ( 'NONE', #395, #1017, #723, .T. ) ;
#140 = LINE ( 'NONE', #901, #1115 ) ;
#141 = ORIENTED_EDGE ( 'NONE', *, *, #204, .F. ) ;
#142 = LINE ( 'NONE', #1089, #498 ) ;
#143 = VERTEX_POINT ( 'NONE', #214 ) ;
#144 = DIRECTION ( 'NONE',  ( 0.000000000000000000, -0.000000000000000000, 1.000000000000000000 ) ) ;
#145 = CYLINDRICAL_SURFACE ( 'NONE', #711, 1.500000000000000666 ) ;
#146 = ADVANCED_FACE ( 'NONE', ( #554 ), #804, .F. ) ;
#147 = FACE_OUTER_BOUND ( 'NONE', #251, .T. ) ;
#148 = ORIENTED_EDGE ( 'NONE', *, *, #1065, .T. ) ;
#149 = FACE_BOUND ( 'NONE', #485, .T. ) ;
#150 = LINE ( 'NONE', #934, #667 ) ;
#151 = LINE ( 'NONE', #312, #159 ) ;
#152 = AXIS2_PLACEMENT_3D ( 'NONE', #355, #522, #266 ) ;
#153 = VERTEX_POINT ( 'NONE', #1085 ) ;
#154 = VECTOR ( 'NONE', #979, 1000.000000000000000 ) ;
#155 = LINE ( 'NONE', #502, #358 ) ;
#156 = DIRECTION ( 'NONE',  ( 0.000000000000000000, 0.000000000000000000, -1.000000000000000000 ) ) ;
#157 = DIRECTION ( 'NONE',  ( -1.000000000000000000, 0.000000000000000000, 0.000000000000000000 ) ) ;
#158 = EDGE_CURVE ( 'NONE', #830, #745, #126, .T. ) ;
#159 = VECTOR ( 'NONE', #238, 1000.000000000000000 ) ;
#160 = ORIENTED_EDGE ( 'NONE', *, *, #292, .F. ) ;
#161 = FACE_OUTER_BOUND ( 'NONE', #543, .T. ) ;
#162 = ORIENTED_EDGE ( 'NONE', *, *, #436, .T. ) ;
#163 = DIRECTION ( 'NONE',  ( -2.453269466693387577E-15, -0.7071067811865451302, -0.7071067811865500152 ) ) ;
#164 = DIRECTION ( 'NONE',  ( 0.000000000000000000, 0.7071067811865475727, 0.7071067811865475727 ) ) ;
#165 = EDGE_LOOP ( 'NONE', ( #411, #499 ) ) ;
#166 =( NAMED_UNIT ( * ) SI_UNIT ( $, .STERADIAN. ) SOLID_ANGLE_UNIT ( ) );
#167 = ORIENTED_EDGE ( 'NONE', *, *, #104, .T. ) ;
#168 = EDGE_CURVE ( 'NONE', #727, #1082, #902, .T. ) ;
#169 = DIRECTION ( 'NONE',  ( -0.000000000000000000, 1.000000000000000000, -0.000000000000000000 ) ) ;
#170 = DIRECTION ( 'NONE',  ( 0.7071067811865474617, 0.7071067811865474617, 0.000000000000000000 ) ) ;
#171 = CARTESIAN_POINT ( 'NONE',  ( -24.05000000000000071, -2.500000000000000000, 0.000000000000000000 ) ) ;
#172 = CARTESIAN_POINT ( 'NONE',  ( -25.00000000000000000, 5.000000000000000000, -4.000000000000004441 ) ) ;
#173 = ORIENTED_EDGE ( 'NONE', *, *, #450, .F. ) ;
#174 = AXIS2_PLACEMENT_3D ( 'NONE', #203, #826, #937 ) ;
#175 = VECTOR ( 'NONE', #872, 1000.000000000000000 ) ;
#176 = CONICAL_SURFACE ( 'NONE', #1081, 1.000000000000004441, 0.7853981633974491672 ) ;
#177 = CARTESIAN_POINT ( 'NONE',  ( -25.00000000000000000, 0.000000000000000000, -3.000000000000000000 ) ) ;
#178 = EDGE_CURVE ( 'NONE', #989, #1082, #642, .T. ) ;
#179 = CARTESIAN_POINT ( 'NONE',  ( 25.00000000000000000, 0.000000000000000000, 3.000000000000000000 ) ) ;
#180 = PLANE ( 'NONE',  #196 ) ;
#181 = DIRECTION ( 'NONE',  ( 0.000000000000000000, 0.000000000000000000, 1.000000000000000000 ) ) ;
#182 = ORIENTED_EDGE ( 'NONE', *, *, #640, .F. ) ;
#183 = DIRECTION ( 'NONE',  ( 0.000000000000000000, 0.000000000000000000, 1.000000000000000000 ) ) ;
#184 = CARTESIAN_POINT ( 'NONE',  ( 26.00000000000000711, 5.000000000000000000, 3.000000000000000000 ) ) ;
#185 = EDGE_CURVE ( 'NONE', #199, #111, #906, .T. ) ;
#186 = LINE ( 'NONE', #690, #569 ) ;
#187 = LINE ( 'NONE', #520, #210 ) ;
#188 = ORIENTED_EDGE ( 'NONE', *, *, #529, .T. ) ;
#189 = FACE_OUTER_BOUND ( 'NONE', #577, .T. ) ;
#190 = DIRECTION ( 'NONE',  ( -0.000000000000000000, 1.000000000000000000, -0.000000000000000000 ) ) ;
#191 = ORIENTED_EDGE ( 'NONE', *, *, #833, .T. ) ;
#192 = CARTESIAN_POINT ( 'NONE',  ( -27.00000000000000000, 5.000000000000000000, -3.000000000000000000 ) ) ;
#193 = VERTEX_POINT ( 'NONE', #1075 ) ;
#194 = PLANE ( 'NONE',  #1064 ) ;
#195 = AXIS2_PLACEMENT_3D ( 'NONE', #844, #71, #1108 ) ;
#196 = AXIS2_PLACEMENT_3D ( 'NONE', #1052, #255, #442 ) ;
#197 = AXIS2_PLACEMENT_3D ( 'NONE', #274, #10, #1045 ) ;
#198 = ORIENTED_EDGE ( 'NONE', *, *, #993, .T. ) ;
#199 = VERTEX_POINT ( 'NONE', #1071 ) ;
#200 = DIRECTION ( 'NONE',  ( 0.000000000000000000, 0.000000000000000000, 1.000000000000000000 ) ) ;
#201 = DIRECTION ( 'NONE',  ( 0.000000000000000000, 0.000000000000000000, 1.000000000000000000 ) ) ;
#202 = ORIENTED_EDGE ( 'NONE', *, *, #94, .T. ) ;
#203 = CARTESIAN_POINT ( 'NONE',  ( -24.05000000000000071, 0.000000000000000000, 0.000000000000000000 ) ) ;
#204 = EDGE_CURVE ( 'NONE', #56, #1061, #379, .T. ) ;
#205 = CARTESIAN_POINT ( 'NONE',  ( 4.000000000000000000, 0.000000000000000000, 0.000000000000000000 ) ) ;
#206 = ORIENTED_EDGE ( 'NONE', *, *, #849, .F. ) ;
#207 = DIRECTION ( 'NONE',  ( -1.000000000000000000, 0.000000000000000000, 0.000000000000000000 ) ) ;
#208 = ADVANCED_FACE ( 'NONE', ( #458 ), #816, .T. ) ;
#209 = AXIS2_PLACEMENT_3D ( 'NONE', #1013, #665, #657 ) ;
#210 = VECTOR ( 'NONE', #97, 1000.000000000000000 ) ;
#211 = LINE ( 'NONE', #1080, #662 ) ;
#212 = EDGE_LOOP ( 'NONE', ( #360, #973, #50, #80 ) ) ;
#213 = LINE ( 'NONE', #976, #677 ) ;
#214 = CARTESIAN_POINT ( 'NONE',  ( -27.00000000000000000, 4.000000000000006217, -3.000000000000000000 ) ) ;
#215 = EDGE_CURVE ( 'NONE', #943, #559, #648, .T. ) ;
#216 = ORIENTED_EDGE ( 'NONE', *, *, #254, .T. ) ;
#217 = DIRECTION ( 'NONE',  ( 0.000000000000000000, -1.000000000000000000, 0.000000000000000000 ) ) ;
#218 = VERTEX_POINT ( 'NONE', #53 ) ;
#219 = DIRECTION ( 'NONE',  ( 0.000000000000000000, 0.000000000000000000, 1.000000000000000000 ) ) ;
#220 = ORIENTED_EDGE ( 'NONE', *, *, #622, .T. ) ;
#221 = SURFACE_SIDE_STYLE ('',( #904 ) ) ;
#222 = ORIENTED_EDGE ( 'NONE', *, *, #1015, .F. ) ;
#223 = AXIS2_PLACEMENT_3D ( 'NONE', #432, #1060, #276 ) ;
#224 = DIRECTION ( 'NONE',  ( -1.000000000000000000, 0.000000000000000000, 0.000000000000000000 ) ) ;
#225 = EDGE_LOOP ( 'NONE', ( #555, #114, #589, #173 ) ) ;
#226 = FACE_OUTER_BOUND ( 'NONE', #848, .T. ) ;
#227 = ADVANCED_FACE ( 'NONE', ( #399 ), #1067, .F. ) ;
#228 = CYLINDRICAL_SURFACE ( 'NONE', #1055, 1.500000000000000666 ) ;
#229 = CARTESIAN_POINT ( 'NONE',  ( -24.05000000000000071, 0.000000000000000000, -2.899999999999999911 ) ) ;
#230 = ORIENTED_EDGE ( 'NONE', *, *, #331, .T. ) ;
#231 = CARTESIAN_POINT ( 'NONE',  ( -25.00000000000000000, 5.000000000000000000, 3.000000000000000000 ) ) ;
#232 = CARTESIAN_POINT ( 'NONE',  ( 20.94999999999999929, -2.000000000000000000, 0.000000000000000000 ) ) ;
#233 = DIRECTION ( 'NONE',  ( -0.000000000000000000, 1.000000000000000000, -0.000000000000000000 ) ) ;
#234 = EDGE_LOOP ( 'NONE', ( #510, #240, #851, #1120 ) ) ;
#235 = CYLINDRICAL_SURFACE ( 'NONE', #44, 2.000000000000000000 ) ;
#236 = CARTESIAN_POINT ( 'NONE',  ( 20.94999999999999929, -2.000000000000000000, 0.000000000000000000 ) ) ;
#237 = ADVANCED_FACE ( 'NONE', ( #631 ), #628, .T. ) ;
#238 = DIRECTION ( 'NONE',  ( -0.000000000000000000, 1.000000000000000000, -0.000000000000000000 ) ) ;
#239 = AXIS2_PLACEMENT_3D ( 'NONE', #588, #915, #325 ) ;
#240 = ORIENTED_EDGE ( 'NONE', *, *, #299, .T. ) ;
#241 = CIRCLE ( 'NONE', #731, 2.000000000000000444 ) ;
#242 = DIRECTION ( 'NONE',  ( 0.000000000000000000, 0.000000000000000000, -1.000000000000000000 ) ) ;
#243 = ORIENTED_EDGE ( 'NONE', *, *, #29, .T. ) ;
#244 = PLANE ( 'NONE',  #366 ) ;
#245 = AXIS2_PLACEMENT_3D ( 'NONE', #921, #408, #753 ) ;
#246 = LINE ( 'NONE', #322, #462 ) ;
#247 = ADVANCED_FACE ( 'NONE', ( #678 ), #881, .T. ) ;
#248 = ORIENTED_EDGE ( 'NONE', *, *, #630, .T. ) ;
#249 = EDGE_CURVE ( 'NONE', #98, #351, #246, .T. ) ;
#250 = FACE_OUTER_BOUND ( 'NONE', #474, .T. ) ;
#251 = EDGE_LOOP ( 'NONE', ( #703, #316, #2, #277 ) ) ;
#252 = FACE_OUTER_BOUND ( 'NONE', #311, .T. ) ;
#253 = CARTESIAN_POINT ( 'NONE',  ( 25.00000000000000355, 1.000000000000000888, 5.000000000000000000 ) ) ;
#254 = EDGE_CURVE ( 'NONE', #618, #830, #403, .T. ) ;
#255 = DIRECTION ( 'NONE',  ( 0.7071067811865451302, 0.7071067811865500152, -0.000000000000000000 ) ) ;
#256 = DIRECTION ( 'NONE',  ( -0.000000000000000000, 1.000000000000000000, -0.000000000000000000 ) ) ;
#257 = EDGE_LOOP ( 'NONE', ( #936, #674, #587, #699 ) ) ;
#258 = PLANE ( 'NONE',  #317 ) ;
#259 = DIRECTION ( 'NONE',  ( 0.000000000000000000, 0.000000000000000000, -1.000000000000000000 ) ) ;
#260 = CIRCLE ( 'NONE', #563, 1.500000000000000666 ) ;
#261 = ORIENTED_EDGE ( 'NONE', *, *, #761, .T. ) ;
#262 =( GEOMETRIC_REPRESENTATION_CONTEXT ( 3 ) GLOBAL_UNCERTAINTY_ASSIGNED_CONTEXT ( ( #25 ) ) GLOBAL_UNIT_ASSIGNED_CONTEXT ( ( #47, #997, #891 ) ) REPRESENTATION_CONTEXT ( 'NONE', 'WORKASPACE' ) );
#263 = CARTESIAN_POINT ( 'NONE',  ( -26.00000000000000711, 5.000000000000000000, 3.000000000000000000 ) ) ;
#264 = VERTEX_POINT ( 'NONE', #917 ) ;
#265 = AXIS2_PLACEMENT_3D ( 'NONE', #1087, #990, #1073 ) ;
#266 = DIRECTION ( 'NONE',  ( 0.000000000000000000, 0.000000000000000000, 1.000000000000000000 ) ) ;
#267 = ADVANCED_FACE ( 'NONE', ( #147 ), #570, .T. ) ;
#268 = CARTESIAN_POINT ( 'NONE',  ( -25.00000000000000000, 1.000000000000000888, -3.000000000000000000 ) ) ;
#269 = DIRECTION ( 'NONE',  ( 0.000000000000000000, 0.000000000000000000, 1.000000000000000000 ) ) ;
#270 = DIRECTION ( 'NONE',  ( 0.000000000000000000, 1.000000000000000000, 0.000000000000000000 ) ) ;
#271 = EDGE_LOOP ( 'NONE', ( #1084, #1088, #425, #732 ) ) ;
#272 = DIRECTION ( 'NONE',  ( 0.000000000000000000, 0.000000000000000000, 1.000000000000000000 ) ) ;
#273 = EDGE_CURVE ( 'NONE', #727, #199, #842, .T. ) ;
#274 = CARTESIAN_POINT ( 'NONE',  ( 25.00000000000000000, 4.000000000000006217, 3.000000000000000000 ) ) ;
#275 = ORIENTED_EDGE ( 'NONE', *, *, #372, .T. ) ;
#276 = DIRECTION ( 'NONE',  ( 0.000000000000000000, 0.000000000000000000, 1.000000000000000000 ) ) ;
#277 = ORIENTED_EDGE ( 'NONE', *, *, #828, .F. ) ;
#278 = DIRECTION ( 'NONE',  ( 0.000000000000000000, -1.000000000000000000, 0.000000000000000000 ) ) ;
#279 = CARTESIAN_POINT ( 'NONE',  ( -25.00000000000000000, 0.000000000000000000, 3.999999999999992450 ) ) ;
#280 = AXIS2_PLACEMENT_3D ( 'NONE', #785, #693, #1050 ) ;
#281 = DIRECTION ( 'NONE',  ( 0.000000000000000000, 0.000000000000000000, 1.000000000000000000 ) ) ;
#282 = EDGE_LOOP ( 'NONE', ( #629, #384, #319, #1041 ) ) ;
#283 = CARTESIAN_POINT ( 'NONE',  ( -8.050000000000000711, 0.000000000000000000, 1.499999999999999556 ) ) ;
#284 = AXIS2_PLACEMENT_3D ( 'NONE', #116, #759, #999 ) ;
#285 = DIRECTION ( 'NONE',  ( 1.000000000000000000, 0.000000000000000000, 0.000000000000000000 ) ) ;
#286 = ORIENTED_EDGE ( 'NONE', *, *, #617, .T. ) ;
#287 = ADVANCED_FACE ( 'NONE', ( #764 ), #834, .F. ) ;
#288 = VECTOR ( 'NONE', #69, 1000.000000000000000 ) ;
#289 = CARTESIAN_POINT ( 'NONE',  ( 0.000000000000000000, 5.000000000000000000, 0.000000000000000000 ) ) ;
#290 = DIRECTION ( 'NONE',  ( 0.000000000000000000, 0.000000000000000000, -1.000000000000000000 ) ) ;
#291 = ORIENTED_EDGE ( 'NONE', *, *, #178, .T. ) ;
#292 = EDGE_CURVE ( 'NONE', #193, #56, #1093, .T. ) ;
#293 = DIRECTION ( 'NONE',  ( 0.000000000000000000, 0.000000000000000000, 1.000000000000000000 ) ) ;
#294 = CARTESIAN_POINT ( 'NONE',  ( -25.00000000000000000, 4.000000000000006217, -5.000000000000000000 ) ) ;
#295 = ORIENTED_EDGE ( 'NONE', *, *, #630, .F. ) ;
#296 = DIRECTION ( 'NONE',  ( 0.000000000000000000, 1.000000000000000000, 0.000000000000000000 ) ) ;
#297 = ADVANCED_FACE ( 'NONE', ( #829 ), #490, .F. ) ;
#298 = VECTOR ( 'NONE', #952, 999.9999999999998863 ) ;
#299 = EDGE_CURVE ( 'NONE', #134, #708, #1100, .T. ) ;
#300 = VECTOR ( 'NONE', #846, 1000.000000000000000 ) ;
#301 = FACE_OUTER_BOUND ( 'NONE', #271, .T. ) ;
#302 = ORIENTED_EDGE ( 'NONE', *, *, #452, .F. ) ;
#303 = PRODUCT_DEFINITION_CONTEXT ( 'detailed design', #1113, 'design' ) ;
#304 = CARTESIAN_POINT ( 'NONE',  ( -24.05000000000000071, 0.000000000000000000, 0.000000000000000000 ) ) ;
#305 = ADVANCED_BREP_SHAPE_REPRESENTATION ( 'Steering-Arm-Post-Left', ( #847, #751 ), #788 ) ;
#306 = EDGE_CURVE ( 'NONE', #476, #98, #151, .T. ) ;
#307 = ORIENTED_EDGE ( 'NONE', *, *, #977, .T. ) ;
#308 = CARTESIAN_POINT ( 'NONE',  ( -25.00000000000000000, 5.000000000000000000, -3.000000000000000000 ) ) ;
#309 = EDGE_LOOP ( 'NONE', ( #960, #636, #765, #103, #903, #392, #1086, #54 ) ) ;
#310 = SURFACE_STYLE_USAGE ( .BOTH. , #221 ) ;
#311 = EDGE_LOOP ( 'NONE', ( #1019, #720, #550, #5 ) ) ;
#312 = CARTESIAN_POINT ( 'NONE',  ( 25.00000000000000355, 5.000000000000000000, 5.000000000000000000 ) ) ;
#313 = EDGE_LOOP ( 'NONE', ( #724, #1101, #141, #58 ) ) ;
#314 = CARTESIAN_POINT ( 'NONE',  ( -27.35514705882353681, 1.355147058823535255, 0.9154228677592792796 ) ) ;
#315 = DIRECTION ( 'NONE',  ( 0.000000000000000000, 1.000000000000000000, 0.000000000000000000 ) ) ;
#316 = ORIENTED_EDGE ( 'NONE', *, *, #249, .F. ) ;
#317 = AXIS2_PLACEMENT_3D ( 'NONE', #944, #278, #544 ) ;
#318 = DIRECTION ( 'NONE',  ( -0.000000000000000000, 1.000000000000000000, -0.000000000000000000 ) ) ;
#319 = ORIENTED_EDGE ( 'NONE', *, *, #548, .F. ) ;
#320 = DIRECTION ( 'NONE',  ( 0.000000000000000000, -1.000000000000000000, 0.000000000000000000 ) ) ;
#321 = LINE ( 'NONE', #511, #658 ) ;
#322 = CARTESIAN_POINT ( 'NONE',  ( -25.00000000000000000, 4.000000000000006217, 5.000000000000000000 ) ) ;
#323 = ORIENTED_EDGE ( 'NONE', *, *, #1074, .T. ) ;
#324 = EDGE_CURVE ( 'NONE', #1107, #339, #496, .T. ) ;
#325 = DIRECTION ( 'NONE',  ( 0.000000000000000000, 0.000000000000000000, 1.000000000000000000 ) ) ;
#326 = LINE ( 'NONE', #1014, #650 ) ;
#327 = CARTESIAN_POINT ( 'NONE',  ( 25.00000000000000355, 5.000000000000000000, 4.000000000000006217 ) ) ;
#328 = ORIENTED_EDGE ( 'NONE', *, *, #833, .F. ) ;
#329 = DIRECTION ( 'NONE',  ( 0.000000000000000000, 1.000000000000000000, 0.000000000000000000 ) ) ;
#330 = CARTESIAN_POINT ( 'NONE',  ( -25.00000000000000000, 4.000000000000006217, -3.000000000000000000 ) ) ;
#331 = EDGE_CURVE ( 'NONE', #874, #767, #524, .T. ) ;
#332 = LINE ( 'NONE', #79, #983 ) ;
#333 = MECHANICAL_DESIGN_GEOMETRIC_PRESENTATION_REPRESENTATION (  '', ( #135 ), #262 ) ;
#334 = VERTEX_POINT ( 'NONE', #327 ) ;
#335 = AXIS2_PLACEMENT_3D ( 'NONE', #613, #619, #346 ) ;
#336 = CIRCLE ( 'NONE', #607, 2.000000000000000444 ) ;
#337 = FACE_OUTER_BOUND ( 'NONE', #282, .T. ) ;
#338 = AXIS2_PLACEMENT_3D ( 'NONE', #775, #350, #953 ) ;
#339 = VERTEX_POINT ( 'NONE', #229 ) ;
#340 = AXIS2_PLACEMENT_3D ( 'NONE', #268, #611, #873 ) ;
#341 = FACE_OUTER_BOUND ( 'NONE', #822, .T. ) ;
#342 = EDGE_CURVE ( 'NONE', #745, #1111, #585, .T. ) ;
#343 = EDGE_CURVE ( 'NONE', #989, #199, #654, .T. ) ;
#344 = LINE ( 'NONE', #1038, #897 ) ;
#345 = ORIENTED_EDGE ( 'NONE', *, *, #655, .T. ) ;
#346 = DIRECTION ( 'NONE',  ( 0.000000000000000000, 0.000000000000000000, 1.000000000000000000 ) ) ;
#347 = ORIENTED_EDGE ( 'NONE', *, *, #456, .T. ) ;
#348 = VECTOR ( 'NONE', #16, 1000.000000000000114 ) ;
#349 = DIRECTION ( 'NONE',  ( 0.000000000000000000, 0.000000000000000000, -1.000000000000000000 ) ) ;
#350 = DIRECTION ( 'NONE',  ( 0.000000000000000000, 1.000000000000000000, 0.000000000000000000 ) ) ;
#351 = VERTEX_POINT ( 'NONE', #74 ) ;
#352 = CARTESIAN_POINT ( 'NONE',  ( 25.00000000000000355, 0.000000000000000000, -3.000000000000000000 ) ) ;
#353 = EDGE_LOOP ( 'NONE', ( #914, #918, #938, #975 ) ) ;
#354 = EDGE_CURVE ( 'NONE', #609, #664, #420, .T. ) ;
#355 = CARTESIAN_POINT ( 'NONE',  ( -24.05000000000000071, -2.500000000000000000, 0.000000000000000000 ) ) ;
#356 = DIRECTION ( 'NONE',  ( 0.000000000000000000, 0.000000000000000000, 1.000000000000000000 ) ) ;
#357 = CARTESIAN_POINT ( 'NONE',  ( 4.000000000000000000, 5.000000000000000000, 2.000000000000000444 ) ) ;
#358 = VECTOR ( 'NONE', #1112, 1000.000000000000114 ) ;
#359 = DIRECTION ( 'NONE',  ( 1.000000000000000000, -0.000000000000000000, 0.000000000000000000 ) ) ;
#360 = ORIENTED_EDGE ( 'NONE', *, *, #565, .F. ) ;
#361 = CIRCLE ( 'NONE', #34, 2.000000000000000444 ) ;
#362 = DIRECTION ( 'NONE',  ( 0.000000000000000000, 1.000000000000000000, 0.000000000000000000 ) ) ;
#363 = CYLINDRICAL_SURFACE ( 'NONE', #73, 1.500000000000000666 ) ;
#364 = ORIENTED_EDGE ( 'NONE', *, *, #331, .F. ) ;
#365 = DIRECTION ( 'NONE',  ( 0.000000000000000000, 0.000000000000000000, -1.000000000000000000 ) ) ;
#366 = AXIS2_PLACEMENT_3D ( 'NONE', #72, #676, #1109 ) ;
#367 = EDGE_LOOP ( 'NONE', ( #709, #323 ) ) ;
#368 = FACE_OUTER_BOUND ( 'NONE', #998, .T. ) ;
#369 = CARTESIAN_POINT ( 'NONE',  ( 0.000000000000000000, 0.000000000000000000, 3.999999999999992450 ) ) ;
#370 = EDGE_LOOP ( 'NONE', ( #117, #1068, #951, #291 ) ) ;
#371 = CARTESIAN_POINT ( 'NONE',  ( -24.05000000000000071, -2.500000000000000000, 2.899999999999999911 ) ) ;
#372 = EDGE_CURVE ( 'NONE', #1017, #1082, #332, .T. ) ;
#373 = CARTESIAN_POINT ( 'NONE',  ( -25.00000000000000000, 5.000000000000000000, -3.000000000000000000 ) ) ;
#374 = EDGE_LOOP ( 'NONE', ( #295, #1095 ) ) ;
#375 = FACE_BOUND ( 'NONE', #885, .T. ) ;
#376 = AXIS2_PLACEMENT_3D ( 'NONE', #289, #296, #652 ) ;
#377 = AXIS2_PLACEMENT_3D ( 'NONE', #696, #1059, #799 ) ;
#378 = EDGE_CURVE ( 'NONE', #864, #1077, #142, .T. ) ;
#379 = LINE ( 'NONE', #294, #497 ) ;
#380 = ORIENTED_EDGE ( 'NONE', *, *, #1036, .F. ) ;
#381 = EDGE_CURVE ( 'NONE', #664, #645, #1023, .T. ) ;
#382 = PLANE ( 'NONE',  #265 ) ;
#383 = CARTESIAN_POINT ( 'NONE',  ( 4.000000000000000000, 0.000000000000000000, -2.000000000000000444 ) ) ;
#384 = ORIENTED_EDGE ( 'NONE', *, *, #888, .T. ) ;
#385 = DIRECTION ( 'NONE',  ( 0.000000000000000000, 1.000000000000000000, 0.000000000000000000 ) ) ;
#386 = DIRECTION ( 'NONE',  ( -0.000000000000000000, 1.000000000000000000, -0.000000000000000000 ) ) ;
#387 = CIRCLE ( 'NONE', #945, 1.500000000000000666 ) ;
#388 = ORIENTED_EDGE ( 'NONE', *, *, #489, .F. ) ;
#389 = EDGE_CURVE ( 'NONE', #745, #143, #867, .T. ) ;
#390 = CARTESIAN_POINT ( 'NONE',  ( 25.00000000000000355, 5.000000000000000000, 4.000000000000006217 ) ) ;
#391 = CONICAL_SURFACE ( 'NONE', #1020, 1.000000000000004441, 0.7853981633974491672 ) ;
#392 = ORIENTED_EDGE ( 'NONE', *, *, #828, .T. ) ;
#393 = CONICAL_SURFACE ( 'NONE', #85, 0.9999999999999904521, 0.7853981633974526089 ) ;
#394 = DIRECTION ( 'NONE',  ( 0.000000000000000000, -1.000000000000000000, 0.000000000000000000 ) ) ;
#395 = VERTEX_POINT ( 'NONE', #184 ) ;
#396 = LINE ( 'NONE', #639, #32 ) ;
#397 = PRODUCT_DEFINITION ( 'General', '', #410, #303 ) ;
#398 = VERTEX_POINT ( 'NONE', #95 ) ;
#399 = FACE_OUTER_BOUND ( 'NONE', #714, .T. ) ;
#400 = EDGE_LOOP ( 'NONE', ( #160, #347, #805, #188 ) ) ;
#401 = CARTESIAN_POINT ( 'NONE',  ( 25.00000000000000355, 5.000000000000000000, -3.000000000000000000 ) ) ;
#402 = ORIENTED_EDGE ( 'NONE', *, *, #737, .T. ) ;
#403 = LINE ( 'NONE', #1016, #553 ) ;
#404 = EDGE_CURVE ( 'NONE', #143, #480, #4, .T. ) ;
#405 = ORIENTED_EDGE ( 'NONE', *, *, #354, .F. ) ;
#406 = DIRECTION ( 'NONE',  ( 0.000000000000000000, 0.7071067811865451302, 0.7071067811865500152 ) ) ;
#407 = CIRCLE ( 'NONE', #239, 2.000000000000000000 ) ;
#408 = DIRECTION ( 'NONE',  ( 0.000000000000000000, 0.000000000000000000, 1.000000000000000000 ) ) ;
#409 = ADVANCED_FACE ( 'NONE', ( #516 ), #689, .F. ) ;
#410 = PRODUCT_DEFINITION_FORMATION_WITH_SPECIFIED_SOURCE ( 'Symmetric', '', #48, .NOT_KNOWN. ) ;
#411 = ORIENTED_EDGE ( 'NONE', *, *, #125, .F. ) ;
#412 = CARTESIAN_POINT ( 'NONE',  ( -25.99999999999999289, 0.000000000000000000, -2.146508793366576739 ) ) ;
#413 = CIRCLE ( 'NONE', #862, 1.500000000000000666 ) ;
#414 = CARTESIAN_POINT ( 'NONE',  ( 25.99999999999999289, 0.000000000000000000, 0.000000000000000000 ) ) ;
#415 = CARTESIAN_POINT ( 'NONE',  ( -25.00000000000000000, 5.000000000000000000, -3.000000000000000000 ) ) ;
#416 = ORIENTED_EDGE ( 'NONE', *, *, #1078, .T. ) ;
#417 = CARTESIAN_POINT ( 'NONE',  ( -25.99999999999999289, 0.000000000000000000, 2.146508793366576739 ) ) ;
#418 = ADVANCED_FACE ( 'NONE', ( #769 ), #643, .T. ) ;
#419 = CARTESIAN_POINT ( 'NONE',  ( 20.94999999999999929, 0.000000000000000000, -1.500000000000000666 ) ) ;
#420 = LINE ( 'NONE', #1110, #1022 ) ;
#421 = ORIENTED_EDGE ( 'NONE', *, *, #404, .F. ) ;
#422 = ORIENTED_EDGE ( 'NONE', *, *, #343, .T. ) ;
#423 = LINE ( 'NONE', #414, #638 ) ;
#424 = CARTESIAN_POINT ( 'NONE',  ( -24.05000000000000071, 5.000000000000000000, 0.000000000000000000 ) ) ;
#425 = ORIENTED_EDGE ( 'NONE', *, *, #849, .T. ) ;
#426 = CIRCLE ( 'NONE', #770, 1.000000000000004441 ) ;
#427 = VERTEX_POINT ( 'NONE', #435 ) ;
#428 = CARTESIAN_POINT ( 'NONE',  ( -8.050000000000000711, -2.000000000000000000, 0.000000000000000000 ) ) ;
#429 = DIRECTION ( 'NONE',  ( -0.000000000000000000, 1.000000000000000000, -0.000000000000000000 ) ) ;
#430 = EDGE_CURVE ( 'NONE', #480, #1111, #344, .T. ) ;
#431 = CARTESIAN_POINT ( 'NONE',  ( 25.00000000000000355, 5.000000000000000000, -3.000000000000000000 ) ) ;
#432 = CARTESIAN_POINT ( 'NONE',  ( 25.00000000000000000, 5.000000000000000000, 3.000000000000000000 ) ) ;
#433 = ORIENTED_EDGE ( 'NONE', *, *, #168, .T. ) ;
#434 = LINE ( 'NONE', #779, #106 ) ;
#435 = CARTESIAN_POINT ( 'NONE',  ( -27.00000000000000000, 1.000000000000000888, -3.000000000000000000 ) ) ;
#436 = EDGE_CURVE ( 'NONE', #123, #559, #413, .T. ) ;
#437 = FACE_OUTER_BOUND ( 'NONE', #905, .T. ) ;
#438 = ORIENTED_EDGE ( 'NONE', *, *, #815, .F. ) ;
#439 = LINE ( 'NONE', #865, #298 ) ;
#440 = CARTESIAN_POINT ( 'NONE',  ( 25.00000000000000355, 5.000000000000000000, 4.000000000000006217 ) ) ;
#441 = VECTOR ( 'NONE', #112, 1000.000000000000000 ) ;
#442 = DIRECTION ( 'NONE',  ( 0.000000000000000000, 0.000000000000000000, 1.000000000000000000 ) ) ;
#443 = VECTOR ( 'NONE', #688, 1000.000000000000000 ) ;
#444 = FACE_OUTER_BOUND ( 'NONE', #856, .T. ) ;
#445 = ORIENTED_EDGE ( 'NONE', *, *, #35, .F. ) ;
#446 = VECTOR ( 'NONE', #719, 1000.000000000000000 ) ;
#447 = FACE_OUTER_BOUND ( 'NONE', #1029, .T. ) ;
#448 = FACE_OUTER_BOUND ( 'NONE', #225, .T. ) ;
#449 = ORIENTED_EDGE ( 'NONE', *, *, #733, .F. ) ;
#450 = EDGE_CURVE ( 'NONE', #36, #618, #500, .T. ) ;
#451 = DIRECTION ( 'NONE',  ( 1.000000000000000000, 0.000000000000000000, 0.000000000000000000 ) ) ;
#452 = EDGE_CURVE ( 'NONE', #738, #98, #792, .T. ) ;
#453 = ORIENTED_EDGE ( 'NONE', *, *, #622, .F. ) ;
#454 = EDGE_LOOP ( 'NONE', ( #684, #593, #421, #835 ) ) ;
#455 = DIRECTION ( 'NONE',  ( 0.000000000000000000, 0.000000000000000000, 1.000000000000000000 ) ) ;
#456 = EDGE_CURVE ( 'NONE', #193, #427, #823, .T. ) ;
#457 = EDGE_CURVE ( 'NONE', #334, #98, #100, .T. ) ;
#458 = FACE_OUTER_BOUND ( 'NONE', #400, .T. ) ;
#459 = ORIENTED_EDGE ( 'NONE', *, *, #354, .T. ) ;
#460 = FACE_BOUND ( 'NONE', #778, .T. ) ;
#461 = VECTOR ( 'NONE', #200, 1000.000000000000000 ) ;
#462 = VECTOR ( 'NONE', #224, 1000.000000000000000 ) ;
#463 = DIRECTION ( 'NONE',  ( -0.000000000000000000, 1.000000000000000000, -0.000000000000000000 ) ) ;
#464 = ADVANCED_FACE ( 'NONE', ( #786 ), #363, .F. ) ;
#465 = PRODUCT_CONTEXT ( 'NONE', #994, 'mechanical' ) ;
#466 = EDGE_LOOP ( 'NONE', ( #827, #388, #459, #514 ) ) ;
#467 = DIRECTION ( 'NONE',  ( 0.000000000000000000, 0.000000000000000000, -1.000000000000000000 ) ) ;
#468 = DIRECTION ( 'NONE',  ( 0.000000000000000000, 0.000000000000000000, 1.000000000000000000 ) ) ;
#469 = AXIS2_PLACEMENT_3D ( 'NONE', #763, #758, #768 ) ;
#470 = APPLICATION_PROTOCOL_DEFINITION ( 'draft international standard', 'automotive_design', 1998, #994 ) ;
#471 = ORIENTED_EDGE ( 'NONE', *, *, #617, .F. ) ;
#472 = FACE_OUTER_BOUND ( 'NONE', #309, .T. ) ;
#473 = DIRECTION ( 'NONE',  ( 0.000000000000000000, 0.7071067811865469066, 0.7071067811865482389 ) ) ;
#474 = EDGE_LOOP ( 'NONE', ( #328, #968, #75, #402, #148, #781, #656, #77, #561, #127, #364, #206 ) ) ;
#475 = AXIS2_PLACEMENT_3D ( 'NONE', #534, #627, #455 ) ;
#476 = VERTEX_POINT ( 'NONE', #253 ) ;
#477 = VECTOR ( 'NONE', #505, 1000.000000000000114 ) ;
#478 = CIRCLE ( 'NONE', #519, 1.000000000000004441 ) ;
#479 = CARTESIAN_POINT ( 'NONE',  ( 4.000000000000000000, 5.000000000000000000, 0.000000000000000000 ) ) ;
#480 = VERTEX_POINT ( 'NONE', #597 ) ;
#481 = LINE ( 'NONE', #1102, #1043 ) ;
#482 = ORIENTED_EDGE ( 'NONE', *, *, #1008, .T. ) ;
#483 = EDGE_CURVE ( 'NONE', #19, #645, #859, .T. ) ;
#484 = DIRECTION ( 'NONE',  ( 0.000000000000000000, 0.000000000000000000, 1.000000000000000000 ) ) ;
#485 = EDGE_LOOP ( 'NONE', ( #1049, #167 ) ) ;
#486 = FACE_BOUND ( 'NONE', #527, .T. ) ;
#487 = CARTESIAN_POINT ( 'NONE',  ( -24.05000000000000071, -2.000000000000000000, 0.000000000000000000 ) ) ;
#488 = ADVANCED_FACE ( 'NONE', ( #1005 ), #228, .F. ) ;
#489 = EDGE_CURVE ( 'NONE', #609, #19, #992, .T. ) ;
#490 = PLANE ( 'NONE',  #245 ) ;
#491 = VERTEX_POINT ( 'NONE', #419 ) ;
#492 = LINE ( 'NONE', #1009, #909 ) ;
#493 =( BOUNDED_CURVE ( )  B_SPLINE_CURVE ( 3, ( #417, #314, #1091, #1028 ),
 .UNSPECIFIED., .F., .T. ) 
 B_SPLINE_CURVE_WITH_KNOTS ( ( 4, 4 ),
 ( 5.449854066618883941, 7.116516547740288523 ),
 .UNSPECIFIED. ) 
 CURVE ( )  GEOMETRIC_REPRESENTATION_ITEM ( )  RATIONAL_B_SPLINE_CURVE ( ( 1.000000000000000000, 0.7816091954022965638, 0.7816091954022965638, 1.000000000000000000 ) ) 
 REPRESENTATION_ITEM ( '' )  );
#494 = DIRECTION ( 'NONE',  ( -0.000000000000000000, 1.000000000000000000, -0.000000000000000000 ) ) ;
#495 = AXIS2_PLACEMENT_3D ( 'NONE', #932, #320, #747 ) ;
#496 = LINE ( 'NONE', #840, #288 ) ;
#497 = VECTOR ( 'NONE', #473, 999.9999999999998863 ) ;
#498 = VECTOR ( 'NONE', #57, 1000.000000000000000 ) ;
#499 = ORIENTED_EDGE ( 'NONE', *, *, #28, .F. ) ;
#500 = CIRCLE ( 'NONE', #841, 0.9999999999999904521 ) ;
#501 = ADVANCED_FACE ( 'NONE', ( #1104 ), #78, .T. ) ;
#502 = CARTESIAN_POINT ( 'NONE',  ( 27.00000000000000000, 1.000000000000000888, 3.000000000000000000 ) ) ;
#503 = AXIS2_PLACEMENT_3D ( 'NONE', #744, #233, #484 ) ;
#504 = FACE_OUTER_BOUND ( 'NONE', #257, .T. ) ;
#505 = DIRECTION ( 'NONE',  ( 0.7071067811865474617, 0.7071067811865474617, 0.000000000000000000 ) ) ;
#506 = EDGE_CURVE ( 'NONE', #1082, #738, #326, .T. ) ;
#507 = ORIENTED_EDGE ( 'NONE', *, *, #378, .F. ) ;
#508 = DIRECTION ( 'NONE',  ( 0.000000000000000000, -1.000000000000000000, 0.000000000000000000 ) ) ;
#509 = ADVANCED_FACE ( 'NONE', ( #853 ), #832, .F. ) ;
#510 = ORIENTED_EDGE ( 'NONE', *, *, #104, .F. ) ;
#511 = CARTESIAN_POINT ( 'NONE',  ( -25.00000000000000000, 0.000000000000000000, 3.999999999999992450 ) ) ;
#512 = CARTESIAN_POINT ( 'NONE',  ( 4.000000000000000000, -2.000000000000000000, -2.000000000000000444 ) ) ;
#513 = ORIENTED_EDGE ( 'NONE', *, *, #506, .T. ) ;
#514 = ORIENTED_EDGE ( 'NONE', *, *, #381, .T. ) ;
#515 = CARTESIAN_POINT ( 'NONE',  ( -24.05000000000000071, 5.000000000000000000, -1.500000000000000666 ) ) ;
#516 = FACE_OUTER_BOUND ( 'NONE', #735, .T. ) ;
#517 = VECTOR ( 'NONE', #451, 1000.000000000000000 ) ;
#518 = LINE ( 'NONE', #369, #66 ) ;
#519 = AXIS2_PLACEMENT_3D ( 'NONE', #431, #776, #623 ) ;
#520 = CARTESIAN_POINT ( 'NONE',  ( -27.00000000000000000, 1.000000000000000888, 5.000000000000000000 ) ) ;
#521 = ORIENTED_EDGE ( 'NONE', *, *, #381, .F. ) ;
#522 = DIRECTION ( 'NONE',  ( -0.000000000000000000, 1.000000000000000000, -0.000000000000000000 ) ) ;
#523 = CARTESIAN_POINT ( 'NONE',  ( -25.00000000000000000, 0.000000000000000000, 3.000000000000000000 ) ) ;
#524 = CIRCLE ( 'NONE', #52, 2.899999999999999911 ) ;
#525 = CARTESIAN_POINT ( 'NONE',  ( -25.00000000000000000, 5.000000000000000000, 3.000000000000000000 ) ) ;
#526 = DIRECTION ( 'NONE',  ( -0.000000000000000000, 1.000000000000000000, -0.000000000000000000 ) ) ;
#527 = EDGE_LOOP ( 'NONE', ( #307, #956 ) ) ;
#528 = DIRECTION ( 'NONE',  ( 1.000000000000000000, 0.000000000000000000, 0.000000000000000000 ) ) ;
#529 = EDGE_CURVE ( 'NONE', #143, #56, #757, .T. ) ;
#530 = DIRECTION ( 'NONE',  ( -0.000000000000000000, -1.000000000000000000, -0.000000000000000000 ) ) ;
#531 = DIRECTION ( 'NONE',  ( 0.7071067811865474617, -0.7071067811865474617, 0.000000000000000000 ) ) ;
#532 = DIRECTION ( 'NONE',  ( -0.000000000000000000, -1.000000000000000000, -0.000000000000000000 ) ) ;
#533 = ORIENTED_EDGE ( 'NONE', *, *, #1057, .F. ) ;
#534 = CARTESIAN_POINT ( 'NONE',  ( 27.00000000000000000, 5.000000000000000000, -5.000000000000000000 ) ) ;
#535 = FACE_OUTER_BOUND ( 'NONE', #620, .T. ) ;
#536 = CIRCLE ( 'NONE', #195, 1.500000000000000666 ) ;
#537 = CARTESIAN_POINT ( 'NONE',  ( -25.99999999999999289, 0.000000000000000000, -3.000000000000000000 ) ) ;
#538 = ORIENTED_EDGE ( 'NONE', *, *, #852, .F. ) ;
#539 = EDGE_CURVE ( 'NONE', #491, #39, #866, .T. ) ;
#540 = DIRECTION ( 'NONE',  ( -0.7071067811865451302, 0.7071067811865500152, 0.000000000000000000 ) ) ;
#541 = ORIENTED_EDGE ( 'NONE', *, *, #649, .F. ) ;
#542 = ADVANCED_FACE ( 'NONE', ( #504 ), #244, .F. ) ;
#543 = EDGE_LOOP ( 'NONE', ( #855, #198, #633, #595 ) ) ;
#544 = DIRECTION ( 'NONE',  ( 0.000000000000000000, -0.000000000000000000, -1.000000000000000000 ) ) ;
#545 = CARTESIAN_POINT ( 'NONE',  ( 27.00000000000000000, 5.000000000000000000, -3.000000000000000000 ) ) ;
#546 = DIRECTION ( 'NONE',  ( 1.000000000000000000, 0.000000000000000000, 0.000000000000000000 ) ) ;
#547 = VERTEX_POINT ( 'NONE', #59 ) ;
#548 = EDGE_CURVE ( 'NONE', #738, #783, #150, .T. ) ;
#549 = DIRECTION ( 'NONE',  ( 0.000000000000000000, -0.7071067811865444641, 0.7071067811865505703 ) ) ;
#550 = ORIENTED_EDGE ( 'NONE', *, *, #185, .F. ) ;
#551 = AXIS2_PLACEMENT_3D ( 'NONE', #1002, #742, #144 ) ;
#552 = CARTESIAN_POINT ( 'NONE',  ( -25.99999999999999289, 0.000000000000000000, 2.146508793366576739 ) ) ;
#553 = VECTOR ( 'NONE', #673, 1000.000000000000114 ) ;
#554 = FACE_OUTER_BOUND ( 'NONE', #234, .T. ) ;
#555 = ORIENTED_EDGE ( 'NONE', *, *, #565, .T. ) ;
#556 = DIRECTION ( 'NONE',  ( 0.000000000000000000, 1.000000000000000000, 0.000000000000000000 ) ) ;
#557 = EDGE_CURVE ( 'NONE', #476, #681, #920, .T. ) ;
#558 = CARTESIAN_POINT ( 'NONE',  ( -24.05000000000000071, -2.500000000000000000, 0.000000000000000000 ) ) ;
#559 = VERTEX_POINT ( 'NONE', #515 ) ;
#560 = DIRECTION ( 'NONE',  ( 0.000000000000000000, -1.000000000000000000, 0.000000000000000000 ) ) ;
#561 = ORIENTED_EDGE ( 'NONE', *, *, #450, .T. ) ;
#562 = CARTESIAN_POINT ( 'NONE',  ( 25.00000000000000355, 1.000000000000000888, -5.000000000000000000 ) ) ;
#563 = AXIS2_PLACEMENT_3D ( 'NONE', #14, #362, #272 ) ;
#564 = ORIENTED_EDGE ( 'NONE', *, *, #456, .F. ) ;
#565 = EDGE_CURVE ( 'NONE', #36, #773, #321, .T. ) ;
#566 = AXIS2_PLACEMENT_3D ( 'NONE', #428, #596, #1031 ) ;
#567 = AXIS2_PLACEMENT_3D ( 'NONE', #177, #93, #183 ) ;
#568 = ORIENTED_EDGE ( 'NONE', *, *, #701, .F. ) ;
#569 = VECTOR ( 'NONE', #1039, 1000.000000000000114 ) ;
#570 = PLANE ( 'NONE',  #912 ) ;
#571 = VERTEX_POINT ( 'NONE', #84 ) ;
#572 = EDGE_CURVE ( 'NONE', #1007, #218, #423, .T. ) ;
#573 = ADVANCED_FACE ( 'NONE', ( #341 ), #682, .F. ) ;
#574 = FACE_BOUND ( 'NONE', #367, .T. ) ;
#575 = DIRECTION ( 'NONE',  ( 0.000000000000000000, -1.000000000000000000, 0.000000000000000000 ) ) ;
#576 = CARTESIAN_POINT ( 'NONE',  ( -25.00000000000000000, 5.000000000000000000, -5.000000000000000000 ) ) ;
#577 = EDGE_LOOP ( 'NONE', ( #1012, #793, #433, #513 ) ) ;
#578 = PLANE ( 'NONE',  #837 ) ;
#579 = CARTESIAN_POINT ( 'NONE',  ( 20.94999999999999929, 0.000000000000000000, 0.000000000000000000 ) ) ;
#580 = ADVANCED_FACE ( 'NONE', ( #252 ), #1063, .T. ) ;
#581 = DIRECTION ( 'NONE',  ( -0.000000000000000000, 1.000000000000000000, -0.000000000000000000 ) ) ;
#582 = ORIENTED_EDGE ( 'NONE', *, *, #1074, .F. ) ;
#583 = DIRECTION ( 'NONE',  ( 0.000000000000000000, -1.000000000000000000, 0.000000000000000000 ) ) ;
#584 = DIRECTION ( 'NONE',  ( 0.000000000000000000, 1.000000000000000000, 0.000000000000000000 ) ) ;
#585 = LINE ( 'NONE', #928, #477 ) ;
#586 = AXIS2_PLACEMENT_3D ( 'NONE', #415, #1026, #1011 ) ;
#587 = ORIENTED_EDGE ( 'NONE', *, *, #899, .T. ) ;
#588 = CARTESIAN_POINT ( 'NONE',  ( 25.00000000000000000, 1.000000000000000888, 3.000000000000000000 ) ) ;
#589 = ORIENTED_EDGE ( 'NONE', *, *, #254, .F. ) ;
#590 = DIRECTION ( 'NONE',  ( 0.000000000000000000, -1.000000000000000000, 0.000000000000000000 ) ) ;
#591 = CARTESIAN_POINT ( 'NONE',  ( 25.00000000000000355, 5.000000000000000000, -5.000000000000000000 ) ) ;
#592 = ADVANCED_FACE ( 'NONE', ( #916 ), #145, .F. ) ;
#593 = ORIENTED_EDGE ( 'NONE', *, *, #430, .F. ) ;
#594 = CARTESIAN_POINT ( 'NONE',  ( 25.00000000000000355, 4.000000000000006217, -5.000000000000000000 ) ) ;
#595 = ORIENTED_EDGE ( 'NONE', *, *, #1024, .T. ) ;
#596 = DIRECTION ( 'NONE',  ( -0.000000000000000000, 1.000000000000000000, -0.000000000000000000 ) ) ;
#597 = CARTESIAN_POINT ( 'NONE',  ( -26.00000000000000711, 5.000000000000000000, -3.000000000000000000 ) ) ;
#598 = DIRECTION ( 'NONE',  ( 0.000000000000000000, 1.000000000000000000, 0.000000000000000000 ) ) ;
#599 = EDGE_CURVE ( 'NONE', #351, #773, #1099, .T. ) ;
#600 = PLANE ( 'NONE',  #137 ) ;
#601 = ORIENTED_EDGE ( 'NONE', *, *, #655, .F. ) ;
#602 = EDGE_CURVE ( 'NONE', #618, #767, #970, .T. ) ;
#603 = CARTESIAN_POINT ( 'NONE',  ( -25.99999999999999289, 0.000000000000000000, 3.000000000000000000 ) ) ;
#604 = CARTESIAN_POINT ( 'NONE',  ( 4.000000000000000000, -2.000000000000000000, 0.000000000000000000 ) ) ;
#605 = CIRCLE ( 'NONE', #624, 2.000000000000000444 ) ;
#606 = ORIENTED_EDGE ( 'NONE', *, *, #907, .T. ) ;
#607 = AXIS2_PLACEMENT_3D ( 'NONE', #205, #971, #201 ) ;
#608 =( LENGTH_UNIT ( ) NAMED_UNIT ( * ) SI_UNIT ( .MILLI., .METRE. ) );
#609 = VERTEX_POINT ( 'NONE', #283 ) ;
#610 = LINE ( 'NONE', #615, #461 ) ;
#611 = DIRECTION ( 'NONE',  ( 0.000000000000000000, 1.000000000000000000, 0.000000000000000000 ) ) ;
#612 = DIRECTION ( 'NONE',  ( 0.000000000000000000, 1.000000000000000000, 0.000000000000000000 ) ) ;
#613 = CARTESIAN_POINT ( 'NONE',  ( -8.050000000000000711, 5.000000000000000000, 0.000000000000000000 ) ) ;
#614 = EDGE_LOOP ( 'NONE', ( #1114, #670, #606, #900 ) ) ;
#615 = CARTESIAN_POINT ( 'NONE',  ( -27.00000000000000000, 1.000000000000000888, -5.000000000000000000 ) ) ;
#616 = CARTESIAN_POINT ( 'NONE',  ( -24.05000000000000071, -2.000000000000000000, 0.000000000000000000 ) ) ;
#617 = EDGE_CURVE ( 'NONE', #890, #943, #925, .T. ) ;
#618 = VERTEX_POINT ( 'NONE', #603 ) ;
#619 = DIRECTION ( 'NONE',  ( 0.000000000000000000, 1.000000000000000000, 0.000000000000000000 ) ) ;
#620 = EDGE_LOOP ( 'NONE', ( #216, #601, #91, #507, #538, #908 ) ) ;
#621 = CARTESIAN_POINT ( 'NONE',  ( 27.00000000000000000, 1.000000000000000888, -3.000000000000000000 ) ) ;
#622 = EDGE_CURVE ( 'NONE', #559, #123, #260, .T. ) ;
#623 = DIRECTION ( 'NONE',  ( 0.000000000000000000, 0.000000000000000000, 1.000000000000000000 ) ) ;
#624 = AXIS2_PLACEMENT_3D ( 'NONE', #910, #556, #128 ) ;
#625 =( NAMED_UNIT ( * ) PLANE_ANGLE_UNIT ( ) SI_UNIT ( $, .RADIAN. ) );
#626 = ORIENTED_EDGE ( 'NONE', *, *, #707, .T. ) ;
#627 = DIRECTION ( 'NONE',  ( -1.000000000000000000, 0.000000000000000000, 0.000000000000000000 ) ) ;
#628 = PLANE ( 'NONE',  #284 ) ;
#629 = ORIENTED_EDGE ( 'NONE', *, *, #306, .F. ) ;
#630 = EDGE_CURVE ( 'NONE', #153, #653, #387, .T. ) ;
#631 = FACE_OUTER_BOUND ( 'NONE', #454, .T. ) ;
#632 = DIRECTION ( 'NONE',  ( 0.000000000000000000, 0.000000000000000000, 1.000000000000000000 ) ) ;
#633 = ORIENTED_EDGE ( 'NONE', *, *, #599, .F. ) ;
#634 = CARTESIAN_POINT ( 'NONE',  ( 27.00000000000000000, 4.000000000000006217, 3.000000000000000000 ) ) ;
#635 = DIRECTION ( 'NONE',  ( 0.000000000000000000, 1.000000000000000000, 0.000000000000000000 ) ) ;
#636 = ORIENTED_EDGE ( 'NONE', *, *, #649, .T. ) ;
#637 = CIRCLE ( 'NONE', #223, 1.000000000000004441 ) ;
#638 = VECTOR ( 'NONE', #1117, 1000.000000000000000 ) ;
#639 = CARTESIAN_POINT ( 'NONE',  ( -27.00000000000000000, 1.000000000000000888, -5.000000000000000000 ) ) ;
#640 = EDGE_CURVE ( 'NONE', #56, #989, #706, .T. ) ;
#641 = ADVANCED_FACE ( 'NONE', ( #368 ), #963, .T. ) ;
#642 = CIRCLE ( 'NONE', #752, 2.000000000000000000 ) ;
#643 = CONICAL_SURFACE ( 'NONE', #1025, 0.9999999999999922284, 0.7853981633974517207 ) ;
#644 = CARTESIAN_POINT ( 'NONE',  ( -24.05000000000000071, -2.500000000000000000, 0.000000000000000000 ) ) ;
#645 = VERTEX_POINT ( 'NONE', #1037 ) ;
#646 = LINE ( 'NONE', #896, #728 ) ;
#647 = VERTEX_POINT ( 'NONE', #794 ) ;
#648 = LINE ( 'NONE', #824, #154 ) ;
#649 = EDGE_CURVE ( 'NONE', #398, #1061, #1056, .T. ) ;
#650 = VECTOR ( 'NONE', #845, 1000.000000000000000 ) ;
#651 = EDGE_LOOP ( 'NONE', ( #1054, #564, #818, #449 ) ) ;
#652 = DIRECTION ( 'NONE',  ( 0.000000000000000000, -0.000000000000000000, 1.000000000000000000 ) ) ;
#653 = VERTEX_POINT ( 'NONE', #957 ) ;
#654 = LINE ( 'NONE', #591, #300 ) ;
#655 = EDGE_CURVE ( 'NONE', #427, #830, #610, .T. ) ;
#656 = ORIENTED_EDGE ( 'NONE', *, *, #1057, .T. ) ;
#657 = DIRECTION ( 'NONE',  ( 0.000000000000000000, 0.000000000000000000, 1.000000000000000000 ) ) ;
#658 = VECTOR ( 'NONE', #406, 1000.000000000000114 ) ;
#659 = CIRCLE ( 'NONE', #1001, 2.899999999999999911 ) ;
#660 = DIRECTION ( 'NONE',  ( 0.000000000000000000, 0.000000000000000000, 1.000000000000000000 ) ) ;
#661 = ORIENTED_EDGE ( 'NONE', *, *, #133, .F. ) ;
#662 = VECTOR ( 'NONE', #974, 1000.000000000000114 ) ;
#663 = CARTESIAN_POINT ( 'NONE',  ( 25.00000000000000355, 1.000000000000000888, -3.000000000000000000 ) ) ;
#664 = VERTEX_POINT ( 'NONE', #700 ) ;
#665 = DIRECTION ( 'NONE',  ( 0.000000000000000000, 1.000000000000000000, 0.000000000000000000 ) ) ;
#666 = CARTESIAN_POINT ( 'NONE',  ( -25.00000000000000000, 5.000000000000000000, 5.000000000000000000 ) ) ;
#667 = VECTOR ( 'NONE', #1021, 1000.000000000000000 ) ;
#668 = DIRECTION ( 'NONE',  ( -0.000000000000000000, 1.000000000000000000, -0.000000000000000000 ) ) ;
#669 = VECTOR ( 'NONE', #429, 1000.000000000000000 ) ;
#670 = ORIENTED_EDGE ( 'NONE', *, *, #1036, .T. ) ;
#671 = CARTESIAN_POINT ( 'NONE',  ( -24.05000000000000071, -2.500000000000000000, -1.500000000000000666 ) ) ;
#672 = CARTESIAN_POINT ( 'NONE',  ( 25.00000000000000355, 5.000000000000000000, -3.000000000000000000 ) ) ;
#673 = DIRECTION ( 'NONE',  ( -0.7071067811865500152, 0.7071067811865451302, 0.000000000000000000 ) ) ;
#674 = ORIENTED_EDGE ( 'NONE', *, *, #737, .F. ) ;
#675 = DIRECTION ( 'NONE',  ( 0.000000000000000000, 0.000000000000000000, 1.000000000000000000 ) ) ;
#676 = DIRECTION ( 'NONE',  ( 0.000000000000000000, 0.7071067811865500152, 0.7071067811865451302 ) ) ;
#677 = VECTOR ( 'NONE', #725, 1000.000000000000000 ) ;
#678 = FACE_OUTER_BOUND ( 'NONE', #313, .T. ) ;
#679 = ORIENTED_EDGE ( 'NONE', *, *, #292, .T. ) ;
#680 = FACE_OUTER_BOUND ( 'NONE', #930, .T. ) ;
#681 = VERTEX_POINT ( 'NONE', #798 ) ;
#682 = CYLINDRICAL_SURFACE ( 'NONE', #566, 1.499999999999999556 ) ;
#683 = DIRECTION ( 'NONE',  ( 0.000000000000000000, 1.000000000000000000, 0.000000000000000000 ) ) ;
#684 = ORIENTED_EDGE ( 'NONE', *, *, #342, .T. ) ;
#685 = ADVANCED_FACE ( 'NONE', ( #189 ), #26, .F. ) ;
#686 = CARTESIAN_POINT ( 'NONE',  ( 20.94999999999999929, -2.000000000000000000, -1.500000000000000666 ) ) ;
#687 = ORIENTED_EDGE ( 'NONE', *, *, #969, .F. ) ;
#688 = DIRECTION ( 'NONE',  ( -1.000000000000000000, 0.000000000000000000, 0.000000000000000000 ) ) ;
#689 = CYLINDRICAL_SURFACE ( 'NONE', #754, 2.000000000000000444 ) ;
#690 = CARTESIAN_POINT ( 'NONE',  ( -25.00000000000000000, 4.000000000000006217, 5.000000000000000000 ) ) ;
#691 = LINE ( 'NONE', #102, #965 ) ;
#692 = ORIENTED_EDGE ( 'NONE', *, *, #372, .F. ) ;
#693 = DIRECTION ( 'NONE',  ( 0.000000000000000000, -1.000000000000000000, 0.000000000000000000 ) ) ;
#694 = CARTESIAN_POINT ( 'NONE',  ( -27.00000000000000000, 4.000000000000006217, -3.000000000000000000 ) ) ;
#695 = AXIS2_PLACEMENT_3D ( 'NONE', #1040, #270, #281 ) ;
#696 = CARTESIAN_POINT ( 'NONE',  ( 25.00000000000000000, 5.000000000000000000, 3.000000000000000000 ) ) ;
#697 = VECTOR ( 'NONE', #531, 1000.000000000000114 ) ;
#698 = CARTESIAN_POINT ( 'NONE',  ( -27.00000000000000000, 5.000000000000000000, 5.000000000000000000 ) ) ;
#699 = ORIENTED_EDGE ( 'NONE', *, *, #761, .F. ) ;
#700 = CARTESIAN_POINT ( 'NONE',  ( -8.050000000000000711, 5.000000000000000000, 1.499999999999999556 ) ) ;
#701 = EDGE_CURVE ( 'NONE', #398, #989, #439, .T. ) ;
#702 = DIRECTION ( 'NONE',  ( 0.000000000000000000, 0.000000000000000000, 1.000000000000000000 ) ) ;
#703 = ORIENTED_EDGE ( 'NONE', *, *, #94, .F. ) ;
#704 = CARTESIAN_POINT ( 'NONE',  ( -24.05000000000000071, -2.500000000000000000, -2.899999999999999911 ) ) ;
#705 = ORIENTED_EDGE ( 'NONE', *, *, #64, .T. ) ;
#706 = LINE ( 'NONE', #1042, #517 ) ;
#707 = EDGE_CURVE ( 'NONE', #571, #874, #21, .T. ) ;
#708 = VERTEX_POINT ( 'NONE', #105 ) ;
#709 = ORIENTED_EDGE ( 'NONE', *, *, #489, .T. ) ;
#710 = FACE_BOUND ( 'NONE', #101, .T. ) ;
#711 = AXIS2_PLACEMENT_3D ( 'NONE', #487, #750, #1010 ) ;
#712 = DIRECTION ( 'NONE',  ( 0.000000000000000000, 1.000000000000000000, 0.000000000000000000 ) ) ;
#713 = AXIS2_PLACEMENT_3D ( 'NONE', #12, #81, #359 ) ;
#714 = EDGE_LOOP ( 'NONE', ( #482, #345, #796, #871 ) ) ;
#715 = CIRCLE ( 'NONE', #335, 1.499999999999999556 ) ;
#716 = CONICAL_SURFACE ( 'NONE', #377, 1.000000000000005995, 0.7853981633974482790 ) ;
#717 = CARTESIAN_POINT ( 'NONE',  ( 27.00000000000000000, 1.000000000000000888, 3.000000000000000000 ) ) ;
#718 = VECTOR ( 'NONE', #259, 1000.000000000000000 ) ;
#719 = DIRECTION ( 'NONE',  ( -0.000000000000000000, 1.000000000000000000, -0.000000000000000000 ) ) ;
#720 = ORIENTED_EDGE ( 'NONE', *, *, #1065, .F. ) ;
#721 = ADVANCED_FACE ( 'NONE', ( #447, #710 ), #258, .T. ) ;
#722 = CARTESIAN_POINT ( 'NONE',  ( -25.00000000000000000, 1.000000000000000888, 5.000000000000000000 ) ) ;
#723 = LINE ( 'NONE', #987, #839 ) ;
#724 = ORIENTED_EDGE ( 'NONE', *, *, #404, .T. ) ;
#725 = DIRECTION ( 'NONE',  ( -0.000000000000000000, 1.000000000000000000, -0.000000000000000000 ) ) ;
#726 = CARTESIAN_POINT ( 'NONE',  ( -27.00000000000000000, 5.000000000000000000, 3.000000000000000000 ) ) ;
#727 = VERTEX_POINT ( 'NONE', #621 ) ;
#728 = VECTOR ( 'NONE', #37, 1000.000000000000114 ) ;
#729 = DIRECTION ( 'NONE',  ( 1.000000000000000000, 0.000000000000000000, 0.000000000000000000 ) ) ;
#730 = ADVANCED_FACE ( 'NONE', ( #887 ), #194, .F. ) ;
#731 = AXIS2_PLACEMENT_3D ( 'NONE', #879, #789, #17 ) ;
#732 = ORIENTED_EDGE ( 'NONE', *, *, #707, .F. ) ;
#733 = EDGE_CURVE ( 'NONE', #1077, #264, #15, .T. ) ;
#734 = DIRECTION ( 'NONE',  ( 0.000000000000000000, 0.000000000000000000, -1.000000000000000000 ) ) ;
#735 = EDGE_LOOP ( 'NONE', ( #991, #438, #911, #8 ) ) ;
#736 = DIRECTION ( 'NONE',  ( 0.000000000000000000, 0.000000000000000000, -1.000000000000000000 ) ) ;
#737 = EDGE_CURVE ( 'NONE', #264, #111, #434, .T. ) ;
#738 = VERTEX_POINT ( 'NONE', #634 ) ;
#739 = DIRECTION ( 'NONE',  ( 0.7071067811865474617, -0.7071067811865474617, 0.000000000000000000 ) ) ;
#740 = ORIENTED_EDGE ( 'NONE', *, *, #436, .F. ) ;
#741 = UNCERTAINTY_MEASURE_WITH_UNIT (LENGTH_MEASURE( 1.000000000000000082E-05 ), #608, 'distance_accuracy_value', 'NONE');
#742 = DIRECTION ( 'NONE',  ( 0.7071067811865475727, 0.7071067811865475727, 0.000000000000000000 ) ) ;
#743 = ORIENTED_EDGE ( 'NONE', *, *, #599, .T. ) ;
#744 = CARTESIAN_POINT ( 'NONE',  ( -8.050000000000000711, -2.000000000000000000, 0.000000000000000000 ) ) ;
#745 = VERTEX_POINT ( 'NONE', #806 ) ;
#746 = EDGE_CURVE ( 'NONE', #890, #123, #213, .T. ) ;
#747 = DIRECTION ( 'NONE',  ( 0.000000000000000000, 0.000000000000000000, -1.000000000000000000 ) ) ;
#748 = CIRCLE ( 'NONE', #174, 2.899999999999999911 ) ;
#749 = COLOUR_RGB ( '',0.7921568627450980005, 0.8196078431372548767, 0.9333333333333333481 ) ;
#750 = DIRECTION ( 'NONE',  ( -0.000000000000000000, 1.000000000000000000, -0.000000000000000000 ) ) ;
#751 = AXIS2_PLACEMENT_3D ( 'NONE', #1053, #632, #546 ) ;
#752 = AXIS2_PLACEMENT_3D ( 'NONE', #129, #33, #219 ) ;
#753 = DIRECTION ( 'NONE',  ( 1.000000000000000000, 0.000000000000000000, -0.000000000000000000 ) ) ;
#754 = AXIS2_PLACEMENT_3D ( 'NONE', #604, #780, #1119 ) ;
#755 = ORIENTED_EDGE ( 'NONE', *, *, #324, .F. ) ;
#756 = DIRECTION ( 'NONE',  ( -0.000000000000000000, 1.000000000000000000, -0.000000000000000000 ) ) ;
#757 = CIRCLE ( 'NONE', #1030, 2.000000000000000000 ) ;
#758 = DIRECTION ( 'NONE',  ( 0.000000000000000000, 1.000000000000000000, 0.000000000000000000 ) ) ;
#759 = DIRECTION ( 'NONE',  ( -0.7071067811865475727, 0.7071067811865475727, 0.000000000000000000 ) ) ;
#760 = EDGE_LOOP ( 'NONE', ( #743, #876, #70, #1072 ) ) ;
#761 = EDGE_CURVE ( 'NONE', #199, #193, #396, .T. ) ;
#762 = DIRECTION ( 'NONE',  ( 0.000000000000000000, 1.000000000000000000, 0.000000000000000000 ) ) ;
#763 = CARTESIAN_POINT ( 'NONE',  ( -8.050000000000000711, 0.000000000000000000, 0.000000000000000000 ) ) ;
#764 = FACE_OUTER_BOUND ( 'NONE', #466, .T. ) ;
#765 = ORIENTED_EDGE ( 'NONE', *, *, #20, .T. ) ;
#766 = DIRECTION ( 'NONE',  ( 0.000000000000000000, 0.000000000000000000, -1.000000000000000000 ) ) ;
#767 = VERTEX_POINT ( 'NONE', #552 ) ;
#768 = DIRECTION ( 'NONE',  ( 0.000000000000000000, 0.000000000000000000, 1.000000000000000000 ) ) ;
#769 = FACE_OUTER_BOUND ( 'NONE', #843, .T. ) ;
#770 = AXIS2_PLACEMENT_3D ( 'NONE', #373, #712, #109 ) ;
#771 = AXIS2_PLACEMENT_3D ( 'NONE', #889, #285, #290 ) ;
#772 = EDGE_LOOP ( 'NONE', ( #422, #261, #679, #933 ) ) ;
#773 = VERTEX_POINT ( 'NONE', #722 ) ;
#774 = CARTESIAN_POINT ( 'NONE',  ( 25.00000000000000355, 0.000000000000000000, -3.000000000000000000 ) ) ;
#775 = CARTESIAN_POINT ( 'NONE',  ( -8.050000000000000711, 5.000000000000000000, 0.000000000000000000 ) ) ;
#776 = DIRECTION ( 'NONE',  ( 0.000000000000000000, 1.000000000000000000, 0.000000000000000000 ) ) ;
#777 = CARTESIAN_POINT ( 'NONE',  ( 26.00000000000000711, 5.000000000000000000, -3.000000000000000000 ) ) ;
#778 = EDGE_LOOP ( 'NONE', ( #740, #453 ) ) ;
#779 = CARTESIAN_POINT ( 'NONE',  ( 0.000000000000000000, 0.000000000000000000, -3.999999999999992450 ) ) ;
#780 = DIRECTION ( 'NONE',  ( -0.000000000000000000, 1.000000000000000000, -0.000000000000000000 ) ) ;
#781 = ORIENTED_EDGE ( 'NONE', *, *, #572, .T. ) ;
#782 = PLANE ( 'NONE',  #713 ) ;
#783 = VERTEX_POINT ( 'NONE', #717 ) ;
#784 = EDGE_CURVE ( 'NONE', #727, #1007, #646, .T. ) ;
#785 = CARTESIAN_POINT ( 'NONE',  ( -24.05000000000000071, -2.500000000000000000, 0.000000000000000000 ) ) ;
#786 = FACE_OUTER_BOUND ( 'NONE', #1047, .T. ) ;
#787 = VECTOR ( 'NONE', #877, 1000.000000000000000 ) ;
#788 =( GEOMETRIC_REPRESENTATION_CONTEXT ( 3 ) GLOBAL_UNCERTAINTY_ASSIGNED_CONTEXT ( ( #741 ) ) GLOBAL_UNIT_ASSIGNED_CONTEXT ( ( #608, #625, #166 ) ) REPRESENTATION_CONTEXT ( 'NONE', 'WORKASPACE' ) );
#789 = DIRECTION ( 'NONE',  ( 0.000000000000000000, 1.000000000000000000, 0.000000000000000000 ) ) ;
#790 = AXIS2_PLACEMENT_3D ( 'NONE', #308, #394, #136 ) ;
#791 = LINE ( 'NONE', #686, #1066 ) ;
#792 = CIRCLE ( 'NONE', #197, 2.000000000000000000 ) ;
#793 = ORIENTED_EDGE ( 'NONE', *, *, #809, .T. ) ;
#794 = CARTESIAN_POINT ( 'NONE',  ( 4.000000000000000000, 0.000000000000000000, 2.000000000000000444 ) ) ;
#795 = CARTESIAN_POINT ( 'NONE',  ( -25.00000000000000000, 4.000000000000006217, -5.000000000000000000 ) ) ;
#796 = ORIENTED_EDGE ( 'NONE', *, *, #158, .T. ) ;
#797 = ADVANCED_FACE ( 'NONE', ( #124 ), #382, .T. ) ;
#798 = CARTESIAN_POINT ( 'NONE',  ( 25.00000000000000000, 0.000000000000000000, 3.999999999999992450 ) ) ;
#799 = DIRECTION ( 'NONE',  ( 0.000000000000000000, 0.000000000000000000, -1.000000000000000000 ) ) ;
#800 = ORIENTED_EDGE ( 'NONE', *, *, #1094, .T. ) ;
#801 = FILL_AREA_STYLE ('',( #118 ) ) ;
#802 = EDGE_CURVE ( 'NONE', #943, #890, #893, .T. ) ;
#803 = ADVANCED_FACE ( 'NONE', ( #811 ), #924, .T. ) ;
#804 = CYLINDRICAL_SURFACE ( 'NONE', #1046, 2.000000000000000444 ) ;
#805 = ORIENTED_EDGE ( 'NONE', *, *, #1008, .F. ) ;
#806 = CARTESIAN_POINT ( 'NONE',  ( -27.00000000000000000, 4.000000000000006217, 3.000000000000000000 ) ) ;
#807 = ADVANCED_FACE ( 'NONE', ( #472, #460, #1079, #375, #1070 ), #814, .T. ) ;
#808 = CYLINDRICAL_SURFACE ( 'NONE', #108, 2.899999999999999911 ) ;
#809 = EDGE_CURVE ( 'NONE', #783, #727, #140, .T. ) ;
#810 = ORIENTED_EDGE ( 'NONE', *, *, #483, .T. ) ;
#811 = FACE_OUTER_BOUND ( 'NONE', #651, .T. ) ;
#812 = CARTESIAN_POINT ( 'NONE',  ( 4.000000000000000000, -2.000000000000000000, 0.000000000000000000 ) ) ;
#813 = ORIENTED_EDGE ( 'NONE', *, *, #1024, .F. ) ;
#814 = PLANE ( 'NONE',  #376 ) ;
#815 = EDGE_CURVE ( 'NONE', #647, #134, #605, .T. ) ;
#816 = CYLINDRICAL_SURFACE ( 'NONE', #790, 2.000000000000000000 ) ;
#817 = APPLICATION_PROTOCOL_DEFINITION ( 'draft international standard', 'automotive_design', 1998, #1113 ) ;
#818 = ORIENTED_EDGE ( 'NONE', *, *, #899, .F. ) ;
#819 = AXIS2_PLACEMENT_3D ( 'NONE', #40, #385, #293 ) ;
#820 = CARTESIAN_POINT ( 'NONE',  ( -24.05000000000000071, -2.500000000000000000, 0.000000000000000000 ) ) ;
#821 = AXIS2_PLACEMENT_3D ( 'NONE', #23, #532, #942 ) ;
#822 = EDGE_LOOP ( 'NONE', ( #582, #810, #800, #405 ) ) ;
#823 = CIRCLE ( 'NONE', #340, 2.000000000000000000 ) ;
#824 = CARTESIAN_POINT ( 'NONE',  ( -24.05000000000000071, -2.000000000000000000, -1.500000000000000666 ) ) ;
#825 = ORIENTED_EDGE ( 'NONE', *, *, #342, .F. ) ;
#826 = DIRECTION ( 'NONE',  ( 0.000000000000000000, -1.000000000000000000, 0.000000000000000000 ) ) ;
#827 = ORIENTED_EDGE ( 'NONE', *, *, #483, .F. ) ;
#828 = EDGE_CURVE ( 'NONE', #547, #334, #43, .T. ) ;
#829 = FACE_OUTER_BOUND ( 'NONE', #772, .T. ) ;
#830 = VERTEX_POINT ( 'NONE', #1083 ) ;
#831 = DIRECTION ( 'NONE',  ( 0.000000000000000000, -0.000000000000000000, 1.000000000000000000 ) ) ;
#832 = CYLINDRICAL_SURFACE ( 'NONE', #986, 1.500000000000000666 ) ;
#833 = EDGE_CURVE ( 'NONE', #864, #339, #659, .T. ) ;
#834 = CYLINDRICAL_SURFACE ( 'NONE', #503, 1.499999999999999556 ) ;
#835 = ORIENTED_EDGE ( 'NONE', *, *, #389, .F. ) ;
#836 = CARTESIAN_POINT ( 'NONE',  ( 0.000000000000000000, 0.000000000000000000, 0.000000000000000000 ) ) ;
#837 = AXIS2_PLACEMENT_3D ( 'NONE', #836, #762, #831 ) ;
#838 = DIRECTION ( 'NONE',  ( 0.000000000000000000, 0.000000000000000000, 1.000000000000000000 ) ) ;
#839 = VECTOR ( 'NONE', #734, 1000.000000000000000 ) ;
#840 = CARTESIAN_POINT ( 'NONE',  ( -24.05000000000000071, -2.500000000000000000, -2.899999999999999911 ) ) ;
#841 = AXIS2_PLACEMENT_3D ( 'NONE', #523, #530, #356 ) ;
#842 = CIRCLE ( 'NONE', #1069, 2.000000000000000000 ) ;
#843 = EDGE_LOOP ( 'NONE', ( #886, #533, #687, #62 ) ) ;
#844 = CARTESIAN_POINT ( 'NONE',  ( 20.94999999999999929, 0.000000000000000000, 0.000000000000000000 ) ) ;
#845 = DIRECTION ( 'NONE',  ( 0.000000000000000000, -0.000000000000000000, 1.000000000000000000 ) ) ;
#846 = DIRECTION ( 'NONE',  ( 0.000000000000000000, -1.000000000000000000, 0.000000000000000000 ) ) ;
#847 = MANIFOLD_SOLID_BREP ( 'Chamfer1', #880 ) ;
#848 = EDGE_LOOP ( 'NONE', ( #275, #42, #568, #82 ) ) ;
#849 = EDGE_CURVE ( 'NONE', #339, #874, #748, .T. ) ;
#850 = CARTESIAN_POINT ( 'NONE',  ( -25.00000000000000000, 1.000000000000000888, 3.000000000000000000 ) ) ;
#851 = ORIENTED_EDGE ( 'NONE', *, *, #28, .T. ) ;
#852 = EDGE_CURVE ( 'NONE', #767, #864, #493, .T. ) ;
#853 = FACE_OUTER_BOUND ( 'NONE', #614, .T. ) ;
#854 = CARTESIAN_POINT ( 'NONE',  ( -24.05000000000000071, 0.000000000000000000, 0.000000000000000000 ) ) ;
#855 = ORIENTED_EDGE ( 'NONE', *, *, #158, .F. ) ;
#856 = EDGE_LOOP ( 'NONE', ( #202, #445, #825, #813 ) ) ;
#857 = DIRECTION ( 'NONE',  ( 0.000000000000000000, 0.000000000000000000, 1.000000000000000000 ) ) ;
#858 = VECTOR ( 'NONE', #90, 1000.000000000000000 ) ;
#859 = LINE ( 'NONE', #88, #669 ) ;
#860 = AXIS2_PLACEMENT_3D ( 'NONE', #171, #954, #22 ) ;
#861 = CARTESIAN_POINT ( 'NONE',  ( 26.00000000000000711, 5.000000000000000000, 3.000000000000000000 ) ) ;
#862 = AXIS2_PLACEMENT_3D ( 'NONE', #424, #683, #948 ) ;
#863 = DIRECTION ( 'NONE',  ( 0.000000000000000000, -1.000000000000000000, 0.000000000000000000 ) ) ;
#864 = VERTEX_POINT ( 'NONE', #412 ) ;
#865 = CARTESIAN_POINT ( 'NONE',  ( 25.00000000000000355, 5.000000000000000000, -4.000000000000004441 ) ) ;
#866 = CIRCLE ( 'NONE', #92, 1.500000000000000666 ) ;
#867 = LINE ( 'NONE', #940, #718 ) ;
#868 = ADVANCED_FACE ( 'NONE', ( #337 ), #919, .T. ) ;
#869 = DIRECTION ( 'NONE',  ( 0.000000000000000000, 0.000000000000000000, 1.000000000000000000 ) ) ;
#870 = CARTESIAN_POINT ( 'NONE',  ( 27.00000000000000000, 4.000000000000006217, -3.000000000000000000 ) ) ;
#871 = ORIENTED_EDGE ( 'NONE', *, *, #389, .T. ) ;
#872 = DIRECTION ( 'NONE',  ( 0.000000000000000000, 0.000000000000000000, -1.000000000000000000 ) ) ;
#873 = DIRECTION ( 'NONE',  ( 0.000000000000000000, 0.000000000000000000, 1.000000000000000000 ) ) ;
#874 = VERTEX_POINT ( 'NONE', #1097 ) ;
#875 = DIRECTION ( 'NONE',  ( -0.000000000000000000, -1.000000000000000000, -0.000000000000000000 ) ) ;
#876 = ORIENTED_EDGE ( 'NONE', *, *, #1096, .T. ) ;
#877 = DIRECTION ( 'NONE',  ( -0.000000000000000000, 1.000000000000000000, -0.000000000000000000 ) ) ;
#878 = CIRCLE ( 'NONE', #209, 1.500000000000000666 ) ;
#879 = CARTESIAN_POINT ( 'NONE',  ( 4.000000000000000000, 5.000000000000000000, 0.000000000000000000 ) ) ;
#880 = CLOSED_SHELL ( 'NONE', ( #110, #464, #146, #573, #509, #685, #297, #227, #1058, #807, #958, #488, #287, #409, #592, #501, #208, #868, #946, #721, #641, #1003, #418, #51, #730, #27, #580, #803, #542, #267, #6, #1103, #929, #237, #931, #247, #797 ) ) ;
#881 = CONICAL_SURFACE ( 'NONE', #586, 1.000000000000005995, 0.7853981633974482790 ) ;
#882 = DIRECTION ( 'NONE',  ( 0.000000000000000000, 0.000000000000000000, -1.000000000000000000 ) ) ;
#883 = ORIENTED_EDGE ( 'NONE', *, *, #1094, .F. ) ;
#884 = CARTESIAN_POINT ( 'NONE',  ( -25.00000000000000000, 5.000000000000000000, -4.000000000000006217 ) ) ;
#885 = EDGE_LOOP ( 'NONE', ( #521, #883 ) ) ;
#886 = ORIENTED_EDGE ( 'NONE', *, *, #557, .T. ) ;
#887 = FACE_OUTER_BOUND ( 'NONE', #353, .T. ) ;
#888 = EDGE_CURVE ( 'NONE', #476, #783, #407, .T. ) ;
#889 = CARTESIAN_POINT ( 'NONE',  ( -27.00000000000000000, 5.000000000000000000, -5.000000000000000000 ) ) ;
#890 = VERTEX_POINT ( 'NONE', #55 ) ;
#891 =( NAMED_UNIT ( * ) SI_UNIT ( $, .STERADIAN. ) SOLID_ANGLE_UNIT ( ) );
#892 = EDGE_CURVE ( 'NONE', #647, #13, #492, .T. ) ;
#893 = CIRCLE ( 'NONE', #61, 1.500000000000000666 ) ;
#894 = CARTESIAN_POINT ( 'NONE',  ( -24.05000000000000071, 5.000000000000000000, 1.500000000000000666 ) ) ;
#895 = ORIENTED_EDGE ( 'NONE', *, *, #977, .F. ) ;
#896 = CARTESIAN_POINT ( 'NONE',  ( 27.00000000000000000, 1.000000000000000888, -3.000000000000000000 ) ) ;
#897 = VECTOR ( 'NONE', #959, 1000.000000000000000 ) ;
#898 = DIRECTION ( 'NONE',  ( 0.000000000000000000, 0.000000000000000000, 1.000000000000000000 ) ) ;
#899 = EDGE_CURVE ( 'NONE', #264, #193, #481, .T. ) ;
#900 = ORIENTED_EDGE ( 'NONE', *, *, #1078, .F. ) ;
#901 = CARTESIAN_POINT ( 'NONE',  ( 27.00000000000000000, 1.000000000000000888, -5.000000000000000000 ) ) ;
#902 = LINE ( 'NONE', #545, #446 ) ;
#903 = ORIENTED_EDGE ( 'NONE', *, *, #35, .T. ) ;
#904 = SURFACE_STYLE_FILL_AREA ( #801 ) ;
#905 = EDGE_LOOP ( 'NONE', ( #922, #302, #138, #222 ) ) ;
#906 = LINE ( 'NONE', #562, #981 ) ;
#907 = EDGE_CURVE ( 'NONE', #653, #153, #878, .T. ) ;
#908 = ORIENTED_EDGE ( 'NONE', *, *, #602, .F. ) ;
#909 = VECTOR ( 'NONE', #756, 1000.000000000000000 ) ;
#910 = CARTESIAN_POINT ( 'NONE',  ( 4.000000000000000000, 0.000000000000000000, 0.000000000000000000 ) ) ;
#911 = ORIENTED_EDGE ( 'NONE', *, *, #892, .T. ) ;
#912 = AXIS2_PLACEMENT_3D ( 'NONE', #913, #164, #157 ) ;
#913 = CARTESIAN_POINT ( 'NONE',  ( 0.000000000000000000, 5.000000000000000000, 4.000000000000006217 ) ) ;
#914 = ORIENTED_EDGE ( 'NONE', *, *, #969, .T. ) ;
#915 = DIRECTION ( 'NONE',  ( 0.000000000000000000, 1.000000000000000000, 0.000000000000000000 ) ) ;
#916 = FACE_OUTER_BOUND ( 'NONE', #1033, .T. ) ;
#917 = CARTESIAN_POINT ( 'NONE',  ( -25.00000000000000000, 0.000000000000000000, -3.999999999999992450 ) ) ;
#918 = ORIENTED_EDGE ( 'NONE', *, *, #572, .F. ) ;
#919 = CYLINDRICAL_SURFACE ( 'NONE', #495, 2.000000000000000000 ) ;
#920 = LINE ( 'NONE', #67, #988 ) ;
#921 = CARTESIAN_POINT ( 'NONE',  ( -27.00000000000000000, 5.000000000000000000, -5.000000000000000000 ) ) ;
#922 = ORIENTED_EDGE ( 'NONE', *, *, #457, .T. ) ;
#923 = PLANE ( 'NONE',  #551 ) ;
#924 = CONICAL_SURFACE ( 'NONE', #819, 0.9999999999999922284, 0.7853981633974517207 ) ;
#925 = CIRCLE ( 'NONE', #280, 1.500000000000000666 ) ;
#926 = DIRECTION ( 'NONE',  ( 0.000000000000000000, 0.000000000000000000, 1.000000000000000000 ) ) ;
#927 = CIRCLE ( 'NONE', #1098, 1.000000000000004441 ) ;
#928 = CARTESIAN_POINT ( 'NONE',  ( -27.00000000000000000, 4.000000000000006217, 3.000000000000000000 ) ) ;
#929 = ADVANCED_FACE ( 'NONE', ( #680 ), #923, .T. ) ;
#930 = EDGE_LOOP ( 'NONE', ( #243, #113, #692, #1035 ) ) ;
#931 = ADVANCED_FACE ( 'NONE', ( #226 ), #391, .T. ) ;
#932 = CARTESIAN_POINT ( 'NONE',  ( 25.00000000000000000, 5.000000000000000000, 3.000000000000000000 ) ) ;
#933 = ORIENTED_EDGE ( 'NONE', *, *, #640, .T. ) ;
#934 = CARTESIAN_POINT ( 'NONE',  ( 27.00000000000000000, 5.000000000000000000, 3.000000000000000000 ) ) ;
#935 = DIRECTION ( 'NONE',  ( 0.000000000000000000, 0.000000000000000000, 1.000000000000000000 ) ) ;
#936 = ORIENTED_EDGE ( 'NONE', *, *, #185, .T. ) ;
#937 = DIRECTION ( 'NONE',  ( 0.000000000000000000, 0.000000000000000000, -1.000000000000000000 ) ) ;
#938 = ORIENTED_EDGE ( 'NONE', *, *, #784, .F. ) ;
#939 = DIRECTION ( 'NONE',  ( 0.000000000000000000, 0.000000000000000000, 1.000000000000000000 ) ) ;
#940 = CARTESIAN_POINT ( 'NONE',  ( -27.00000000000000000, 4.000000000000006217, -3.000000000000000000 ) ) ;
#941 = CARTESIAN_POINT ( 'NONE',  ( 20.94999999999999929, 0.000000000000000000, 1.500000000000000666 ) ) ;
#942 = DIRECTION ( 'NONE',  ( 0.000000000000000000, 0.000000000000000000, 1.000000000000000000 ) ) ;
#943 = VERTEX_POINT ( 'NONE', #671 ) ;
#944 = CARTESIAN_POINT ( 'NONE',  ( -24.05000000000000071, -2.500000000000000000, 0.000000000000000000 ) ) ;
#945 = AXIS2_PLACEMENT_3D ( 'NONE', #1062, #115, #9 ) ;
#946 = ADVANCED_FACE ( 'NONE', ( #161 ), #235, .T. ) ;
#947 = CIRCLE ( 'NONE', #63, 0.9999999999999904521 ) ;
#948 = DIRECTION ( 'NONE',  ( 0.000000000000000000, 0.000000000000000000, 1.000000000000000000 ) ) ;
#949 = EDGE_LOOP ( 'NONE', ( #380, #895, #416, #248 ) ) ;
#950 = CARTESIAN_POINT ( 'NONE',  ( 25.99999999999999289, 0.000000000000000000, -3.000000000000000000 ) ) ;
#951 = ORIENTED_EDGE ( 'NONE', *, *, #343, .F. ) ;
#952 = DIRECTION ( 'NONE',  ( 0.000000000000000000, -0.7071067811865469066, -0.7071067811865482389 ) ) ;
#953 = DIRECTION ( 'NONE',  ( 0.000000000000000000, 0.000000000000000000, 1.000000000000000000 ) ) ;
#954 = DIRECTION ( 'NONE',  ( 0.000000000000000000, -1.000000000000000000, 0.000000000000000000 ) ) ;
#955 = DIRECTION ( 'NONE',  ( 0.000000000000000000, -1.000000000000000000, 0.000000000000000000 ) ) ;
#956 = ORIENTED_EDGE ( 'NONE', *, *, #539, .T. ) ;
#957 = CARTESIAN_POINT ( 'NONE',  ( 20.94999999999999929, 5.000000000000000000, -1.500000000000000666 ) ) ;
#958 = ADVANCED_FACE ( 'NONE', ( #250, #149, #574, #486 ), #578, .F. ) ;
#959 = DIRECTION ( 'NONE',  ( 0.000000000000000000, 0.000000000000000000, 1.000000000000000000 ) ) ;
#960 = ORIENTED_EDGE ( 'NONE', *, *, #87, .T. ) ;
#961 = CARTESIAN_POINT ( 'NONE',  ( -25.00000000000000000, 5.000000000000000000, 3.000000000000000000 ) ) ;
#962 = ORIENTED_EDGE ( 'NONE', *, *, #802, .F. ) ;
#963 = CYLINDRICAL_SURFACE ( 'NONE', #152, 2.899999999999999911 ) ;
#964 = PRESENTATION_LAYER_ASSIGNMENT (  '', '', ( #135 ) ) ;
#965 = VECTOR ( 'NONE', #526, 1000.000000000000000 ) ;
#966 = CARTESIAN_POINT ( 'NONE',  ( 25.00000000000000355, 4.000000000000006217, 5.000000000000000000 ) ) ;
#967 = VECTOR ( 'NONE', #38, 1000.000000000000000 ) ;
#968 = ORIENTED_EDGE ( 'NONE', *, *, #378, .T. ) ;
#969 = EDGE_CURVE ( 'NONE', #783, #218, #155, .T. ) ;
#970 = LINE ( 'NONE', #99, #175 ) ;
#971 = DIRECTION ( 'NONE',  ( 0.000000000000000000, 1.000000000000000000, 0.000000000000000000 ) ) ;
#972 = PRODUCT_RELATED_PRODUCT_CATEGORY ( 'part', '', ( #48 ) ) ;
#973 = ORIENTED_EDGE ( 'NONE', *, *, #76, .F. ) ;
#974 = DIRECTION ( 'NONE',  ( -0.7071067811865500152, 0.7071067811865451302, 0.000000000000000000 ) ) ;
#975 = ORIENTED_EDGE ( 'NONE', *, *, #809, .F. ) ;
#976 = CARTESIAN_POINT ( 'NONE',  ( -24.05000000000000071, -2.000000000000000000, 1.500000000000000666 ) ) ;
#977 = EDGE_CURVE ( 'NONE', #39, #491, #536, .T. ) ;
#978 = AXIS2_PLACEMENT_3D ( 'NONE', #850, #329, #675 ) ;
#979 = DIRECTION ( 'NONE',  ( -0.000000000000000000, 1.000000000000000000, -0.000000000000000000 ) ) ;
#980 = CIRCLE ( 'NONE', #821, 0.9999999999999922284 ) ;
#981 = VECTOR ( 'NONE', #549, 1000.000000000000000 ) ;
#982 = ORIENTED_EDGE ( 'NONE', *, *, #215, .F. ) ;
#983 = VECTOR ( 'NONE', #739, 1000.000000000000114 ) ;
#984 = DIRECTION ( 'NONE',  ( 0.000000000000000000, 0.000000000000000000, -1.000000000000000000 ) ) ;
#985 = VECTOR ( 'NONE', #581, 1000.000000000000000 ) ;
#986 = AXIS2_PLACEMENT_3D ( 'NONE', #232, #494, #838 ) ;
#987 = CARTESIAN_POINT ( 'NONE',  ( 26.00000000000000711, 5.000000000000000000, -3.000000000000000000 ) ) ;
#988 = VECTOR ( 'NONE', #163, 1000.000000000000114 ) ;
#989 = VERTEX_POINT ( 'NONE', #594 ) ;
#990 = DIRECTION ( 'NONE',  ( 0.000000000000000000, 0.7071067811865475727, -0.7071067811865475727 ) ) ;
#991 = ORIENTED_EDGE ( 'NONE', *, *, #299, .F. ) ;
#992 = CIRCLE ( 'NONE', #469, 1.499999999999999556 ) ;
#993 = EDGE_CURVE ( 'NONE', #830, #773, #83, .T. ) ;
#994 = APPLICATION_CONTEXT ( 'automotive_design' ) ;
#995 = DIRECTION ( 'NONE',  ( 0.000000000000000000, -1.000000000000000000, 0.000000000000000000 ) ) ;
#996 = ORIENTED_EDGE ( 'NONE', *, *, #215, .T. ) ;
#997 =( NAMED_UNIT ( * ) PLANE_ANGLE_UNIT ( ) SI_UNIT ( $, .RADIAN. ) );
#998 = EDGE_LOOP ( 'NONE', ( #755, #661, #626, #230, #1027, #191 ) ) ;
#999 = DIRECTION ( 'NONE',  ( 0.000000000000000000, 0.000000000000000000, -1.000000000000000000 ) ) ;
#1000 = ORIENTED_EDGE ( 'NONE', *, *, #204, .T. ) ;
#1001 = AXIS2_PLACEMENT_3D ( 'NONE', #304, #217, #736 ) ;
#1002 = CARTESIAN_POINT ( 'NONE',  ( 26.00000000000000711, 5.000000000000000000, 0.000000000000000000 ) ) ;
#1003 = ADVANCED_FACE ( 'NONE', ( #1018 ), #782, .F. ) ;
#1004 = CIRCLE ( 'NONE', #860, 2.899999999999999911 ) ;
#1005 = FACE_OUTER_BOUND ( 'NONE', #949, .T. ) ;
#1006 = DIRECTION ( 'NONE',  ( 0.000000000000000000, -1.000000000000000000, 0.000000000000000000 ) ) ;
#1007 = VERTEX_POINT ( 'NONE', #950 ) ;
#1008 = EDGE_CURVE ( 'NONE', #143, #427, #1, .T. ) ;
#1009 = CARTESIAN_POINT ( 'NONE',  ( 4.000000000000000000, -2.000000000000000000, 2.000000000000000444 ) ) ;
#1010 = DIRECTION ( 'NONE',  ( 0.000000000000000000, 0.000000000000000000, 1.000000000000000000 ) ) ;
#1011 = DIRECTION ( 'NONE',  ( 0.000000000000000000, 0.000000000000000000, -1.000000000000000000 ) ) ;
#1012 = ORIENTED_EDGE ( 'NONE', *, *, #548, .T. ) ;
#1013 = CARTESIAN_POINT ( 'NONE',  ( 20.94999999999999929, 5.000000000000000000, 0.000000000000000000 ) ) ;
#1014 = CARTESIAN_POINT ( 'NONE',  ( 27.00000000000000000, 4.000000000000006217, 3.000000000000000000 ) ) ;
#1015 = EDGE_CURVE ( 'NONE', #334, #395, #637, .T. ) ;
#1016 = CARTESIAN_POINT ( 'NONE',  ( -25.99999999999999289, 0.000000000000000000, 3.000000000000000000 ) ) ;
#1017 = VERTEX_POINT ( 'NONE', #777 ) ;
#1018 = FACE_OUTER_BOUND ( 'NONE', #212, .T. ) ;
#1019 = ORIENTED_EDGE ( 'NONE', *, *, #784, .T. ) ;
#1020 = AXIS2_PLACEMENT_3D ( 'NONE', #401, #508, #242 ) ;
#1021 = DIRECTION ( 'NONE',  ( 0.000000000000000000, -1.000000000000000000, 0.000000000000000000 ) ) ;
#1022 = VECTOR ( 'NONE', #318, 1000.000000000000000 ) ;
#1023 = CIRCLE ( 'NONE', #338, 1.499999999999999556 ) ;
#1024 = EDGE_CURVE ( 'NONE', #351, #745, #1044, .T. ) ;
#1025 = AXIS2_PLACEMENT_3D ( 'NONE', #179, #1051, #702 ) ;
#1026 = DIRECTION ( 'NONE',  ( 0.000000000000000000, -1.000000000000000000, 0.000000000000000000 ) ) ;
#1027 = ORIENTED_EDGE ( 'NONE', *, *, #852, .T. ) ;
#1028 = CARTESIAN_POINT ( 'NONE',  ( -25.99999999999999289, 0.000000000000000000, -2.146508793366576739 ) ) ;
#1029 = EDGE_LOOP ( 'NONE', ( #1090, #705 ) ) ;
#1030 = AXIS2_PLACEMENT_3D ( 'NONE', #330, #575, #857 ) ;
#1031 = DIRECTION ( 'NONE',  ( 0.000000000000000000, 0.000000000000000000, 1.000000000000000000 ) ) ;
#1032 = DIRECTION ( 'NONE',  ( 0.000000000000000000, 0.000000000000000000, 1.000000000000000000 ) ) ;
#1033 = EDGE_LOOP ( 'NONE', ( #982, #1092, #131, #162 ) ) ;
#1034 = FACE_OUTER_BOUND ( 'NONE', #760, .T. ) ;
#1035 = ORIENTED_EDGE ( 'NONE', *, *, #139, .F. ) ;
#1036 = EDGE_CURVE ( 'NONE', #491, #653, #791, .T. ) ;
#1037 = CARTESIAN_POINT ( 'NONE',  ( -8.050000000000000711, 5.000000000000000000, -1.499999999999999556 ) ) ;
#1038 = CARTESIAN_POINT ( 'NONE',  ( -26.00000000000000711, 5.000000000000000000, 3.000000000000000000 ) ) ;
#1039 = DIRECTION ( 'NONE',  ( 0.000000000000000000, 0.7071067811865474617, -0.7071067811865474617 ) ) ;
#1040 = CARTESIAN_POINT ( 'NONE',  ( -8.050000000000000711, 0.000000000000000000, 0.000000000000000000 ) ) ;
#1041 = ORIENTED_EDGE ( 'NONE', *, *, #452, .T. ) ;
#1042 = CARTESIAN_POINT ( 'NONE',  ( 25.00000000000000355, 4.000000000000006217, -5.000000000000000000 ) ) ;
#1043 = VECTOR ( 'NONE', #65, 1000.000000000000114 ) ;
#1044 = CIRCLE ( 'NONE', #107, 2.000000000000000000 ) ;
#1045 = DIRECTION ( 'NONE',  ( -5.204170427930421283E-15, 0.000000000000000000, 1.000000000000000000 ) ) ;
#1046 = AXIS2_PLACEMENT_3D ( 'NONE', #812, #463, #898 ) ;
#1047 = EDGE_LOOP ( 'NONE', ( #286, #996, #220, #31 ) ) ;
#1048 = DIRECTION ( 'NONE',  ( -1.000000000000000000, 0.000000000000000000, -0.000000000000000000 ) ) ;
#1049 = ORIENTED_EDGE ( 'NONE', *, *, #815, .T. ) ;
#1050 = DIRECTION ( 'NONE',  ( 0.000000000000000000, 0.000000000000000000, -1.000000000000000000 ) ) ;
#1051 = DIRECTION ( 'NONE',  ( 0.000000000000000000, 1.000000000000000000, 0.000000000000000000 ) ) ;
#1052 = CARTESIAN_POINT ( 'NONE',  ( -27.00000000000000000, 1.000000000000000888, -5.000000000000000000 ) ) ;
#1053 = CARTESIAN_POINT ( 'NONE',  ( 0.000000000000000000, 0.000000000000000000, 0.000000000000000000 ) ) ;
#1054 = ORIENTED_EDGE ( 'NONE', *, *, #130, .T. ) ;
#1055 = AXIS2_PLACEMENT_3D ( 'NONE', #236, #169, #939 ) ;
#1056 = LINE ( 'NONE', #884, #443 ) ;
#1057 = EDGE_CURVE ( 'NONE', #218, #681, #980, .T. ) ;
#1058 = ADVANCED_FACE ( 'NONE', ( #1034 ), #600, .F. ) ;
#1059 = DIRECTION ( 'NONE',  ( 0.000000000000000000, -1.000000000000000000, 0.000000000000000000 ) ) ;
#1060 = DIRECTION ( 'NONE',  ( 0.000000000000000000, 1.000000000000000000, 0.000000000000000000 ) ) ;
#1061 = VERTEX_POINT ( 'NONE', #172 ) ;
#1062 = CARTESIAN_POINT ( 'NONE',  ( 20.94999999999999929, 5.000000000000000000, 0.000000000000000000 ) ) ;
#1063 = CONICAL_SURFACE ( 'NONE', #119, 0.9999999999999904521, 0.7853981633974526089 ) ;
#1064 = AXIS2_PLACEMENT_3D ( 'NONE', #3, #540, #349 ) ;
#1065 = EDGE_CURVE ( 'NONE', #111, #1007, #947, .T. ) ;
#1066 = VECTOR ( 'NONE', #256, 1000.000000000000000 ) ;
#1067 = PLANE ( 'NONE',  #771 ) ;
#1068 = ORIENTED_EDGE ( 'NONE', *, *, #273, .T. ) ;
#1069 = AXIS2_PLACEMENT_3D ( 'NONE', #663, #60, #935 ) ;
#1070 = FACE_BOUND ( 'NONE', #374, .T. ) ;
#1071 = CARTESIAN_POINT ( 'NONE',  ( 25.00000000000000355, 1.000000000000000888, -5.000000000000000000 ) ) ;
#1072 = ORIENTED_EDGE ( 'NONE', *, *, #249, .T. ) ;
#1073 = DIRECTION ( 'NONE',  ( 1.000000000000000000, 0.000000000000000000, 0.000000000000000000 ) ) ;
#1074 = EDGE_CURVE ( 'NONE', #19, #609, #1116, .T. ) ;
#1075 = CARTESIAN_POINT ( 'NONE',  ( -25.00000000000000000, 1.000000000000000888, -5.000000000000000000 ) ) ;
#1076 = SHAPE_DEFINITION_REPRESENTATION ( #68, #305 ) ;
#1077 = VERTEX_POINT ( 'NONE', #537 ) ;
#1078 = EDGE_CURVE ( 'NONE', #39, #153, #691, .T. ) ;
#1079 = FACE_BOUND ( 'NONE', #165, .T. ) ;
#1080 = CARTESIAN_POINT ( 'NONE',  ( -25.99999999999999289, 0.000000000000000000, -3.000000000000000000 ) ) ;
#1081 = AXIS2_PLACEMENT_3D ( 'NONE', #961, #863, #365 ) ;
#1082 = VERTEX_POINT ( 'NONE', #870 ) ;
#1083 = CARTESIAN_POINT ( 'NONE',  ( -27.00000000000000000, 1.000000000000000888, 3.000000000000000000 ) ) ;
#1084 = ORIENTED_EDGE ( 'NONE', *, *, #64, .F. ) ;
#1085 = CARTESIAN_POINT ( 'NONE',  ( 20.94999999999999929, 5.000000000000000000, 1.500000000000000666 ) ) ;
#1086 = ORIENTED_EDGE ( 'NONE', *, *, #1015, .T. ) ;
#1087 = CARTESIAN_POINT ( 'NONE',  ( 0.000000000000000000, 5.000000000000000000, -4.000000000000006217 ) ) ;
#1088 = ORIENTED_EDGE ( 'NONE', *, *, #324, .T. ) ;
#1089 = CARTESIAN_POINT ( 'NONE',  ( -25.99999999999999289, 0.000000000000000000, 0.000000000000000000 ) ) ;
#1090 = ORIENTED_EDGE ( 'NONE', *, *, #133, .T. ) ;
#1091 = CARTESIAN_POINT ( 'NONE',  ( -27.35514705882352970, 1.355147058823535255, -0.9154228677592786134 ) ) ;
#1092 = ORIENTED_EDGE ( 'NONE', *, *, #802, .T. ) ;
#1093 = LINE ( 'NONE', #576, #985 ) ;
#1094 = EDGE_CURVE ( 'NONE', #645, #664, #715, .T. ) ;
#1095 = ORIENTED_EDGE ( 'NONE', *, *, #907, .F. ) ;
#1096 = EDGE_CURVE ( 'NONE', #773, #476, #187, .T. ) ;
#1097 = CARTESIAN_POINT ( 'NONE',  ( -24.05000000000000071, 0.000000000000000000, 2.899999999999999911 ) ) ;
#1098 = AXIS2_PLACEMENT_3D ( 'NONE', #525, #598, #269 ) ;
#1099 = LINE ( 'NONE', #666, #441 ) ;
#1100 = LINE ( 'NONE', #512, #49 ) ;
#1101 = ORIENTED_EDGE ( 'NONE', *, *, #20, .F. ) ;
#1102 = CARTESIAN_POINT ( 'NONE',  ( -25.00000000000000000, 0.000000000000000000, -3.999999999999992450 ) ) ;
#1103 = ADVANCED_FACE ( 'NONE', ( #444 ), #176, .T. ) ;
#1104 = FACE_OUTER_BOUND ( 'NONE', #370, .T. ) ;
#1105 = AXIS2_PLACEMENT_3D ( 'NONE', #672, #590, #156 ) ;
#1106 = DIRECTION ( 'NONE',  ( 0.000000000000000000, 0.000000000000000000, -1.000000000000000000 ) ) ;
#1107 = VERTEX_POINT ( 'NONE', #704 ) ;
#1108 = DIRECTION ( 'NONE',  ( 0.000000000000000000, 0.000000000000000000, 1.000000000000000000 ) ) ;
#1109 = DIRECTION ( 'NONE',  ( -1.000000000000000000, 0.000000000000000000, 0.000000000000000000 ) ) ;
#1110 = CARTESIAN_POINT ( 'NONE',  ( -8.050000000000000711, -2.000000000000000000, 1.499999999999999556 ) ) ;
#1111 = VERTEX_POINT ( 'NONE', #263 ) ;
#1112 = DIRECTION ( 'NONE',  ( -0.7071067811865500152, -0.7071067811865451302, 0.000000000000000000 ) ) ;
#1113 = APPLICATION_CONTEXT ( 'automotive_design' ) ;
#1114 = ORIENTED_EDGE ( 'NONE', *, *, #539, .F. ) ;
#1115 = VECTOR ( 'NONE', #984, 1000.000000000000000 ) ;
#1116 = CIRCLE ( 'NONE', #695, 1.499999999999999556 ) ;
#1117 = DIRECTION ( 'NONE',  ( 0.000000000000000000, 0.000000000000000000, 1.000000000000000000 ) ) ;
#1118 = CIRCLE ( 'NONE', #122, 2.899999999999999911 ) ;
#1119 = DIRECTION ( 'NONE',  ( 0.000000000000000000, 0.000000000000000000, 1.000000000000000000 ) ) ;
#1120 = ORIENTED_EDGE ( 'NONE', *, *, #892, .F. ) ;
ENDSEC;
END-ISO-10303-21;
