ISO-10303-21;
HEADER;
FILE_DESCRIPTION (( 'STEP AP214' ),
    '1' );
FILE_NAME ('Steering-Arm.STEP',
    '2026-05-07T19:05:53',
    ( '' ),
    ( '' ),
    'SwSTEP 2.0',
    'SolidWorks 2026',
    '' );
FILE_SCHEMA (( 'AUTOMOTIVE_DESIGN' ));
ENDSEC;

DATA;
#1 = EDGE_LOOP ( 'NONE', ( #317, #453 ) ) ;
#2 = EDGE_CURVE ( 'NONE', #213, #783, #135, .T. ) ;
#3 = VERTEX_POINT ( 'NONE', #960 ) ;
#4 = CARTESIAN_POINT ( 'NONE',  ( -26.19999999999999929, 0.4999999999999998890, 0.000000000000000000 ) ) ;
#5 = EDGE_CURVE ( 'NONE', #332, #126, #617, .T. ) ;
#6 = CIRCLE ( 'NONE', #685, 0.4999999999999995559 ) ;
#7 = CARTESIAN_POINT ( 'NONE',  ( -26.19999999999999929, 3.334478334024252977, 0.000000000000000000 ) ) ;
#8 = AXIS2_PLACEMENT_3D ( 'NONE', #133, #970, #221 ) ;
#9 = ADVANCED_FACE ( 'NONE', ( #442, #888, #656 ), #65, .F. ) ;
#10 = AXIS2_PLACEMENT_3D ( 'NONE', #63, #368, #968 ) ;
#11 = EDGE_LOOP ( 'NONE', ( #190, #802, #326, #786 ) ) ;
#12 = DIRECTION ( 'NONE',  ( 0.000000000000000000, 0.000000000000000000, -1.000000000000000000 ) ) ;
#13 = ORIENTED_EDGE ( 'NONE', *, *, #69, .T. ) ;
#14 = ORIENTED_EDGE ( 'NONE', *, *, #754, .F. ) ;
#15 = DIRECTION ( 'NONE',  ( 0.000000000000000000, 0.000000000000000000, 1.000000000000000000 ) ) ;
#16 = CARTESIAN_POINT ( 'NONE',  ( -26.19999999999999929, 3.500000000000000000, 4.275643679511808237 ) ) ;
#17 = FACE_OUTER_BOUND ( 'NONE', #862, .T. ) ;
#18 = EDGE_CURVE ( 'NONE', #144, #648, #668, .T. ) ;
#19 = EDGE_CURVE ( 'NONE', #925, #414, #704, .T. ) ;
#20 = VERTEX_POINT ( 'NONE', #751 ) ;
#21 = CARTESIAN_POINT ( 'NONE',  ( 26.19999999999999929, 2.000000000000000000, 0.000000000000000000 ) ) ;
#22 = CARTESIAN_POINT ( 'NONE',  ( -26.19999999999999929, 3.334478334024252977, 0.000000000000000000 ) ) ;
#23 = CARTESIAN_POINT ( 'NONE',  ( 26.19999999999999929, 2.000000000000000000, 0.000000000000000000 ) ) ;
#24 = VECTOR ( 'NONE', #697, 1000.000000000000000 ) ;
#25 = CIRCLE ( 'NONE', #562, 4.275643679511808237 ) ;
#26 = CIRCLE ( 'NONE', #58, 3.775643679511807793 ) ;
#27 = DIRECTION ( 'NONE',  ( 0.000000000000000000, 0.000000000000000000, 1.000000000000000000 ) ) ;
#28 = EDGE_CURVE ( 'NONE', #731, #336, #371, .T. ) ;
#29 = DIRECTION ( 'NONE',  ( 0.000000000000000000, 1.000000000000000000, 0.000000000000000000 ) ) ;
#30 = CARTESIAN_POINT ( 'NONE',  ( 26.19999999999999929, 0.5000000000000000000, -4.275643679511808237 ) ) ;
#31 = EDGE_CURVE ( 'NONE', #270, #531, #638, .T. ) ;
#32 = EDGE_LOOP ( 'NONE', ( #302, #48, #93, #236 ) ) ;
#33 = ORIENTED_EDGE ( 'NONE', *, *, #652, .T. ) ;
#34 = CARTESIAN_POINT ( 'NONE',  ( 26.19999999999999929, 2.000000000000000000, 0.000000000000000000 ) ) ;
#35 = CARTESIAN_POINT ( 'NONE',  ( 26.19999999999999929, 3.334478334024252977, 0.000000000000000000 ) ) ;
#36 = ORIENTED_EDGE ( 'NONE', *, *, #829, .T. ) ;
#37 = ORIENTED_EDGE ( 'NONE', *, *, #678, .F. ) ;
#38 = CARTESIAN_POINT ( 'NONE',  ( -26.19999999999999929, 3.334478334024252977, 3.803835902877496178 ) ) ;
#39 = ADVANCED_FACE ( 'NONE', ( #60 ), #171, .T. ) ;
#40 = DIRECTION ( 'NONE',  ( 0.000000000000000000, 1.000000000000000000, 0.000000000000000000 ) ) ;
#41 = EDGE_CURVE ( 'NONE', #680, #144, #447, .T. ) ;
#42 = ORIENTED_EDGE ( 'NONE', *, *, #361, .F. ) ;
#43 = TOROIDAL_SURFACE ( 'NONE', #495, 4.275643679511808237, 0.5000000000000000000 ) ;
#44 = ORIENTED_EDGE ( 'NONE', *, *, #645, .T. ) ;
#45 = AXIS2_PLACEMENT_3D ( 'NONE', #211, #200, #800 ) ;
#46 = FACE_OUTER_BOUND ( 'NONE', #536, .T. ) ;
#47 = ORIENTED_EDGE ( 'NONE', *, *, #491, .T. ) ;
#48 = ORIENTED_EDGE ( 'NONE', *, *, #743, .F. ) ;
#49 = ORIENTED_EDGE ( 'NONE', *, *, #905, .F. ) ;
#50 = ORIENTED_EDGE ( 'NONE', *, *, #652, .F. ) ;
#51 = EDGE_CURVE ( 'NONE', #488, #642, #759, .T. ) ;
#52 = CARTESIAN_POINT ( 'NONE',  ( -26.19999999999999929, 0.000000000000000000, -4.275643679511808237 ) ) ;
#53 = DIRECTION ( 'NONE',  ( 0.000000000000000000, 0.000000000000000000, 1.000000000000000000 ) ) ;
#54 = VECTOR ( 'NONE', #404, 1000.000000000000000 ) ;
#55 = AXIS2_PLACEMENT_3D ( 'NONE', #720, #40, #812 ) ;
#56 = CIRCLE ( 'NONE', #136, 0.4999999999999995559 ) ;
#57 = CARTESIAN_POINT ( 'NONE',  ( -26.19999999999999929, 3.500000000000000000, -3.775643679511807793 ) ) ;
#58 = AXIS2_PLACEMENT_3D ( 'NONE', #415, #719, #381 ) ;
#59 = EDGE_CURVE ( 'NONE', #351, #3, #909, .T. ) ;
#60 = FACE_OUTER_BOUND ( 'NONE', #763, .T. ) ;
#61 = VERTEX_POINT ( 'NONE', #664 ) ;
#62 = CARTESIAN_POINT ( 'NONE',  ( 29.50000000000000711, 4.000000000000000000, -5.000000000000000000 ) ) ;
#63 = CARTESIAN_POINT ( 'NONE',  ( 26.19999999999999929, 3.500000000000000000, 0.000000000000000000 ) ) ;
#64 = EDGE_CURVE ( 'NONE', #398, #270, #479, .T. ) ;
#65 = PLANE ( 'NONE',  #820 ) ;
#66 = DIRECTION ( 'NONE',  ( 0.000000000000000000, 1.000000000000000000, 0.000000000000000000 ) ) ;
#67 = DIRECTION ( 'NONE',  ( 0.000000000000000000, 0.000000000000000000, 1.000000000000000000 ) ) ;
#68 = DIRECTION ( 'NONE',  ( 0.000000000000000000, 0.000000000000000000, 1.000000000000000000 ) ) ;
#69 = EDGE_CURVE ( 'NONE', #644, #351, #560, .T. ) ;
#70 = CARTESIAN_POINT ( 'NONE',  ( 26.19999999999999929, 3.500000000000000000, 0.000000000000000000 ) ) ;
#71 = TOROIDAL_SURFACE ( 'NONE', #422, 4.275643679511808237, 0.5000000000000000000 ) ;
#72 = LINE ( 'NONE', #373, #226 ) ;
#73 = CIRCLE ( 'NONE', #258, 4.031128874149275454 ) ;
#74 = CARTESIAN_POINT ( 'NONE',  ( -26.19999999999999929, 0.6655216659757470232, 0.000000000000000000 ) ) ;
#75 = ORIENTED_EDGE ( 'NONE', *, *, #428, .F. ) ;
#76 = CARTESIAN_POINT ( 'NONE',  ( 29.50000000000000711, 0.000000000000000000, 5.000000000000000000 ) ) ;
#77 = CARTESIAN_POINT ( 'NONE',  ( -32.49999999999999289, 4.000000000000000000, -5.000000000000000000 ) ) ;
#78 = EDGE_LOOP ( 'NONE', ( #75, #42, #82, #646 ) ) ;
#79 = DIRECTION ( 'NONE',  ( 0.000000000000000000, 1.000000000000000000, 0.000000000000000000 ) ) ;
#80 = ADVANCED_FACE ( 'NONE', ( #207 ), #586, .T. ) ;
#81 = CARTESIAN_POINT ( 'NONE',  ( -26.19999999999999929, 0.4999999999999998890, 3.775643679511807793 ) ) ;
#82 = ORIENTED_EDGE ( 'NONE', *, *, #620, .F. ) ;
#83 = ORIENTED_EDGE ( 'NONE', *, *, #140, .T. ) ;
#84 = DIRECTION ( 'NONE',  ( 0.000000000000000000, 1.000000000000000000, 0.000000000000000000 ) ) ;
#85 = AXIS2_PLACEMENT_3D ( 'NONE', #700, #538, #12 ) ;
#86 = CARTESIAN_POINT ( 'NONE',  ( -32.49999999999999289, 0.000000000000000000, -2.000000000000000000 ) ) ;
#87 = AXIS2_PLACEMENT_3D ( 'NONE', #920, #859, #543 ) ;
#88 = CIRCLE ( 'NONE', #341, 0.4999999999999995559 ) ;
#89 = CIRCLE ( 'NONE', #969, 4.275643679511808237 ) ;
#90 = VERTEX_POINT ( 'NONE', #275 ) ;
#91 = DIRECTION ( 'NONE',  ( 2.312964634635742661E-15, 0.000000000000000000, 1.000000000000000000 ) ) ;
#92 = DIRECTION ( 'NONE',  ( 0.000000000000000000, 0.000000000000000000, -1.000000000000000000 ) ) ;
#93 = ORIENTED_EDGE ( 'NONE', *, *, #806, .F. ) ;
#94 = ORIENTED_EDGE ( 'NONE', *, *, #273, .T. ) ;
#95 = DIRECTION ( 'NONE',  ( 0.000000000000000000, 0.000000000000000000, 1.000000000000000000 ) ) ;
#96 =( LENGTH_UNIT ( ) NAMED_UNIT ( * ) SI_UNIT ( .MILLI., .METRE. ) );
#97 = DIRECTION ( 'NONE',  ( 0.000000000000000000, -0.000000000000000000, 1.000000000000000000 ) ) ;
#98 = CARTESIAN_POINT ( 'NONE',  ( 29.50000000000000711, 4.000000000000000000, -2.000000000000000000 ) ) ;
#99 = DIRECTION ( 'NONE',  ( 1.000000000000000000, 0.000000000000000000, 0.000000000000000000 ) ) ;
#100 = CARTESIAN_POINT ( 'NONE',  ( -29.49999999999999645, 4.000000000000000000, 5.000000000000000000 ) ) ;
#101 = VECTOR ( 'NONE', #887, 1000.000000000000000 ) ;
#102 = TOROIDAL_SURFACE ( 'NONE', #787, 4.275643679511808237, 0.5000000000000000000 ) ;
#103 = ORIENTED_EDGE ( 'NONE', *, *, #59, .F. ) ;
#104 = AXIS2_PLACEMENT_3D ( 'NONE', #243, #394, #554 ) ;
#105 = ORIENTED_EDGE ( 'NONE', *, *, #816, .F. ) ;
#106 = CARTESIAN_POINT ( 'NONE',  ( -26.19999999999999929, 3.500000000000000000, 0.000000000000000000 ) ) ;
#107 = CARTESIAN_POINT ( 'NONE',  ( -32.49999999999999289, 0.000000000000000000, 5.000000000000000000 ) ) ;
#108 = DIRECTION ( 'NONE',  ( -0.000000000000000000, -1.000000000000000000, -0.000000000000000000 ) ) ;
#109 = ADVANCED_BREP_SHAPE_REPRESENTATION ( 'Steering-Arm', ( #348, #819 ), #340 ) ;
#110 = ORIENTED_EDGE ( 'NONE', *, *, #428, .T. ) ;
#111 = ADVANCED_FACE ( 'NONE', ( #579 ), #735, .F. ) ;
#112 = EDGE_CURVE ( 'NONE', #336, #925, #510, .T. ) ;
#113 = ORIENTED_EDGE ( 'NONE', *, *, #284, .F. ) ;
#114 = CARTESIAN_POINT ( 'NONE',  ( -26.19999999999999929, 0.6655216659757470232, 3.803835902877496178 ) ) ;
#115 = DIRECTION ( 'NONE',  ( -1.000000000000000000, -0.000000000000000000, -0.000000000000000000 ) ) ;
#116 = VERTEX_POINT ( 'NONE', #963 ) ;
#117 = ORIENTED_EDGE ( 'NONE', *, *, #903, .T. ) ;
#118 = DIRECTION ( 'NONE',  ( 1.000000000000000000, 0.000000000000000000, 0.000000000000000000 ) ) ;
#119 = VERTEX_POINT ( 'NONE', #501 ) ;
#120 = CIRCLE ( 'NONE', #274, 3.000000000000000000 ) ;
#121 = VERTEX_POINT ( 'NONE', #779 ) ;
#122 = AXIS2_PLACEMENT_3D ( 'NONE', #574, #79, #380 ) ;
#123 = EDGE_CURVE ( 'NONE', #238, #476, #120, .T. ) ;
#124 = FILL_AREA_STYLE ('',( #490 ) ) ;
#125 = ADVANCED_FACE ( 'NONE', ( #254 ), #320, .T. ) ;
#126 = VERTEX_POINT ( 'NONE', #179 ) ;
#127 = EDGE_CURVE ( 'NONE', #414, #731, #860, .T. ) ;
#128 = ORIENTED_EDGE ( 'NONE', *, *, #816, .T. ) ;
#129 = LINE ( 'NONE', #353, #600 ) ;
#130 = DIRECTION ( 'NONE',  ( 0.000000000000000000, 0.000000000000000000, 1.000000000000000000 ) ) ;
#131 = VERTEX_POINT ( 'NONE', #257 ) ;
#132 = SURFACE_SIDE_STYLE ('',( #269 ) ) ;
#133 = CARTESIAN_POINT ( 'NONE',  ( -26.19999999999999929, 3.500000000000000000, 0.000000000000000000 ) ) ;
#134 = CIRCLE ( 'NONE', #434, 4.275643679511808237 ) ;
#135 = CIRCLE ( 'NONE', #150, 4.275643679511808237 ) ;
#136 = AXIS2_PLACEMENT_3D ( 'NONE', #584, #159, #597 ) ;
#137 = DIRECTION ( 'NONE',  ( 0.000000000000000000, 0.000000000000000000, 1.000000000000000000 ) ) ;
#138 = CIRCLE ( 'NONE', #782, 0.4999999999999995559 ) ;
#139 = DIRECTION ( 'NONE',  ( 0.000000000000000000, 1.000000000000000000, 0.000000000000000000 ) ) ;
#140 = EDGE_CURVE ( 'NONE', #332, #616, #785, .T. ) ;
#141 = DIRECTION ( 'NONE',  ( -1.000000000000000000, 0.000000000000000000, 0.000000000000000000 ) ) ;
#142 = DIRECTION ( 'NONE',  ( 0.000000000000000000, 0.000000000000000000, 1.000000000000000000 ) ) ;
#143 = DIRECTION ( 'NONE',  ( -0.000000000000000000, -1.000000000000000000, -0.000000000000000000 ) ) ;
#144 = VERTEX_POINT ( 'NONE', #468 ) ;
#145 = DIRECTION ( 'NONE',  ( 0.000000000000000000, 0.000000000000000000, 1.000000000000000000 ) ) ;
#146 = CARTESIAN_POINT ( 'NONE',  ( -22.39616409712250089, 3.334478334024252977, 4.658355462940707061E-16 ) ) ;
#147 = CARTESIAN_POINT ( 'NONE',  ( -26.19999999999999929, 3.500000000000000000, -4.275643679511808237 ) ) ;
#148 = ORIENTED_EDGE ( 'NONE', *, *, #838, .T. ) ;
#149 = AXIS2_PLACEMENT_3D ( 'NONE', #937, #239, #790 ) ;
#150 = AXIS2_PLACEMENT_3D ( 'NONE', #940, #194, #53 ) ;
#151 = DIRECTION ( 'NONE',  ( 0.000000000000000000, 0.000000000000000000, -1.000000000000000000 ) ) ;
#152 = AXIS2_PLACEMENT_3D ( 'NONE', #916, #931, #706 ) ;
#153 = ADVANCED_FACE ( 'NONE', ( #416 ), #259, .T. ) ;
#154 = CARTESIAN_POINT ( 'NONE',  ( -26.19999999999999929, 0.6655216659757470232, 0.000000000000000000 ) ) ;
#155 = AXIS2_PLACEMENT_3D ( 'NONE', #788, #558, #91 ) ;
#156 = DIRECTION ( 'NONE',  ( 0.000000000000000000, -1.000000000000000000, 0.000000000000000000 ) ) ;
#157 = ORIENTED_EDGE ( 'NONE', *, *, #734, .F. ) ;
#158 = EDGE_CURVE ( 'NONE', #61, #474, #972, .T. ) ;
#159 = DIRECTION ( 'NONE',  ( -1.000000000000000000, 0.000000000000000000, 0.000000000000000000 ) ) ;
#160 = CARTESIAN_POINT ( 'NONE',  ( -26.19999999999999929, 3.500000000000000000, 0.000000000000000000 ) ) ;
#161 = ORIENTED_EDGE ( 'NONE', *, *, #314, .F. ) ;
#162 = EDGE_LOOP ( 'NONE', ( #489, #402 ) ) ;
#163 = FACE_OUTER_BOUND ( 'NONE', #261, .T. ) ;
#164 = CARTESIAN_POINT ( 'NONE',  ( 26.19999999999999929, 3.334478334024252977, 0.000000000000000000 ) ) ;
#165 = ADVANCED_FACE ( 'NONE', ( #921, #523, #17 ), #795, .T. ) ;
#166 = VERTEX_POINT ( 'NONE', #710 ) ;
#167 = EDGE_LOOP ( 'NONE', ( #681, #863, #113, #676 ) ) ;
#168 = FACE_OUTER_BOUND ( 'NONE', #167, .T. ) ;
#169 = CARTESIAN_POINT ( 'NONE',  ( -29.49999999999999645, 0.000000000000000000, -2.000000000000000000 ) ) ;
#170 = EDGE_CURVE ( 'NONE', #783, #915, #88, .T. ) ;
#171 = TOROIDAL_SURFACE ( 'NONE', #893, 4.275643679511808237, 0.5000000000000000000 ) ;
#172 = CIRCLE ( 'NONE', #449, 3.775643679511807793 ) ;
#173 = ORIENTED_EDGE ( 'NONE', *, *, #123, .T. ) ;
#174 = DIRECTION ( 'NONE',  ( 0.000000000000000000, 1.000000000000000000, 0.000000000000000000 ) ) ;
#175 = DIRECTION ( 'NONE',  ( 0.000000000000000000, 1.000000000000000000, 0.000000000000000000 ) ) ;
#176 = ADVANCED_FACE ( 'NONE', ( #561 ), #837, .F. ) ;
#177 = ORIENTED_EDGE ( 'NONE', *, *, #18, .F. ) ;
#178 = LINE ( 'NONE', #854, #654 ) ;
#179 = CARTESIAN_POINT ( 'NONE',  ( 26.19999999999999929, 0.4999999999999998890, 3.775643679511807793 ) ) ;
#180 = ORIENTED_EDGE ( 'NONE', *, *, #817, .T. ) ;
#181 = ORIENTED_EDGE ( 'NONE', *, *, #19, .T. ) ;
#182 = DIRECTION ( 'NONE',  ( 0.000000000000000000, 0.000000000000000000, 1.000000000000000000 ) ) ;
#183 = CARTESIAN_POINT ( 'NONE',  ( -29.49999999999999645, 4.000000000000000000, -2.000000000000000000 ) ) ;
#184 = DIRECTION ( 'NONE',  ( -1.000000000000000000, 0.000000000000000000, 0.000000000000000000 ) ) ;
#185 = AXIS2_PLACEMENT_3D ( 'NONE', #7, #294, #894 ) ;
#186 = CIRCLE ( 'NONE', #303, 3.803835902877496178 ) ;
#187 = VECTOR ( 'NONE', #971, 1000.000000000000000 ) ;
#188 = EDGE_LOOP ( 'NONE', ( #868, #580 ) ) ;
#189 = AXIS2_PLACEMENT_3D ( 'NONE', #928, #709, #865 ) ;
#190 = ORIENTED_EDGE ( 'NONE', *, *, #19, .F. ) ;
#191 = ADVANCED_FACE ( 'NONE', ( #323 ), #555, .F. ) ;
#192 = CARTESIAN_POINT ( 'NONE',  ( 26.19999999999999929, 0.5000000000000000000, 4.275643679511808237 ) ) ;
#193 = DIRECTION ( 'NONE',  ( 0.000000000000000000, -1.000000000000000000, 0.000000000000000000 ) ) ;
#194 = DIRECTION ( 'NONE',  ( -0.000000000000000000, -1.000000000000000000, -0.000000000000000000 ) ) ;
#195 = ORIENTED_EDGE ( 'NONE', *, *, #549, .F. ) ;
#196 = DIRECTION ( 'NONE',  ( 0.000000000000000000, 0.000000000000000000, 1.000000000000000000 ) ) ;
#197 = EDGE_LOOP ( 'NONE', ( #604, #844, #180, #37, #728 ) ) ;
#198 = EDGE_CURVE ( 'NONE', #880, #116, #967, .T. ) ;
#199 = EDGE_LOOP ( 'NONE', ( #515, #810, #358, #177, #47 ) ) ;
#200 = DIRECTION ( 'NONE',  ( 0.000000000000000000, 1.000000000000000000, 0.000000000000000000 ) ) ;
#201 = AXIS2_PLACEMENT_3D ( 'NONE', #827, #813, #68 ) ;
#202 = ORIENTED_EDGE ( 'NONE', *, *, #330, .F. ) ;
#203 = AXIS2_PLACEMENT_3D ( 'NONE', #70, #661, #288 ) ;
#204 = ORIENTED_EDGE ( 'NONE', *, *, #283, .F. ) ;
#205 = CIRCLE ( 'NONE', #906, 4.031128874149275454 ) ;
#206 = ADVANCED_FACE ( 'NONE', ( #596 ), #938, .T. ) ;
#207 = FACE_OUTER_BOUND ( 'NONE', #702, .T. ) ;
#208 = ORIENTED_EDGE ( 'NONE', *, *, #583, .T. ) ;
#209 = FACE_OUTER_BOUND ( 'NONE', #392, .T. ) ;
#210 = CARTESIAN_POINT ( 'NONE',  ( -29.49999999999999645, 0.000000000000000000, 2.000000000000000000 ) ) ;
#211 = CARTESIAN_POINT ( 'NONE',  ( 26.19999999999999929, 0.5000000000000000000, 0.000000000000000000 ) ) ;
#212 = DIRECTION ( 'NONE',  ( 0.000000000000000000, 0.000000000000000000, 1.000000000000000000 ) ) ;
#213 = VERTEX_POINT ( 'NONE', #622 ) ;
#214 = CLOSED_SHELL ( 'NONE', ( #281, #662, #153, #624, #344, #576, #475, #552, #39, #799, #311, #316, #529, #111, #191, #757, #896, #513, #165, #9, #589, #125, #242, #724, #206, #176, #80, #572, #390, #732 ) ) ;
#215 = TOROIDAL_SURFACE ( 'NONE', #511, 4.275643679511808237, 0.5000000000000000000 ) ;
#216 = CARTESIAN_POINT ( 'NONE',  ( 32.50000000000000711, 0.000000000000000000, -2.000000000000000000 ) ) ;
#217 = DIRECTION ( 'NONE',  ( 0.000000000000000000, 0.000000000000000000, 1.000000000000000000 ) ) ;
#218 = DIRECTION ( 'NONE',  ( 0.000000000000000000, -0.000000000000000000, 1.000000000000000000 ) ) ;
#219 = ORIENTED_EDGE ( 'NONE', *, *, #41, .T. ) ;
#220 = CARTESIAN_POINT ( 'NONE',  ( 29.50000000000000711, 4.000000000000000000, 5.000000000000000000 ) ) ;
#221 = DIRECTION ( 'NONE',  ( 0.000000000000000000, 0.000000000000000000, 1.000000000000000000 ) ) ;
#222 = ORIENTED_EDGE ( 'NONE', *, *, #18, .T. ) ;
#223 = CARTESIAN_POINT ( 'NONE',  ( -26.19999999999999929, 3.500000000000000000, 3.775643679511807793 ) ) ;
#224 = DIRECTION ( 'NONE',  ( -0.000000000000000000, -1.000000000000000000, -0.000000000000000000 ) ) ;
#225 = CARTESIAN_POINT ( 'NONE',  ( 26.19999999999999929, 0.5000000000000000000, 0.000000000000000000 ) ) ;
#226 = VECTOR ( 'NONE', #830, 1000.000000000000000 ) ;
#227 = CIRCLE ( 'NONE', #784, 3.803835902877496178 ) ;
#228 = AXIS2_PLACEMENT_3D ( 'NONE', #544, #329, #97 ) ;
#229 = CARTESIAN_POINT ( 'NONE',  ( -29.49999999999999645, 4.000000000000000000, 5.000000000000000000 ) ) ;
#230 = AXIS2_PLACEMENT_3D ( 'NONE', #435, #521, #892 ) ;
#231 = DIRECTION ( 'NONE',  ( -1.224646799147353207E-16, 0.000000000000000000, 1.000000000000000000 ) ) ;
#232 = AXIS2_PLACEMENT_3D ( 'NONE', #627, #917, #932 ) ;
#233 = ORIENTED_EDGE ( 'NONE', *, *, #744, .F. ) ;
#234 = CARTESIAN_POINT ( 'NONE',  ( -26.19999999999999929, 0.000000000000000000, 0.000000000000000000 ) ) ;
#235 = CARTESIAN_POINT ( 'NONE',  ( 26.19999999999999929, 3.500000000000000000, 0.000000000000000000 ) ) ;
#236 = ORIENTED_EDGE ( 'NONE', *, *, #170, .T. ) ;
#237 = PRODUCT_DEFINITION_CONTEXT ( 'detailed design', #845, 'design' ) ;
#238 = VERTEX_POINT ( 'NONE', #904 ) ;
#239 = DIRECTION ( 'NONE',  ( 1.000000000000000000, -0.000000000000000000, 1.224646799147353207E-16 ) ) ;
#240 = VERTEX_POINT ( 'NONE', #297 ) ;
#241 = FACE_OUTER_BOUND ( 'NONE', #485, .T. ) ;
#242 = ADVANCED_FACE ( 'NONE', ( #856 ), #929, .T. ) ;
#243 = CARTESIAN_POINT ( 'NONE',  ( 26.19999999999999929, 0.6655216659757470232, 0.000000000000000000 ) ) ;
#244 = DIRECTION ( 'NONE',  ( 0.000000000000000000, 0.000000000000000000, -1.000000000000000000 ) ) ;
#245 = CIRCLE ( 'NONE', #55, 4.275643679511808237 ) ;
#246 = CIRCLE ( 'NONE', #926, 3.775643679511807793 ) ;
#247 = ORIENTED_EDGE ( 'NONE', *, *, #549, .T. ) ;
#248 = DIRECTION ( 'NONE',  ( 0.000000000000000000, 1.000000000000000000, 0.000000000000000000 ) ) ;
#249 = CARTESIAN_POINT ( 'NONE',  ( 26.19999999999999929, 0.6655216659757470232, 0.000000000000000000 ) ) ;
#250 = DIRECTION ( 'NONE',  ( 0.000000000000000000, 0.000000000000000000, -1.000000000000000000 ) ) ;
#251 = ORIENTED_EDGE ( 'NONE', *, *, #123, .F. ) ;
#252 = DIRECTION ( 'NONE',  ( 0.000000000000000000, 0.000000000000000000, -1.000000000000000000 ) ) ;
#253 = CARTESIAN_POINT ( 'NONE',  ( -32.49999999999999289, 0.000000000000000000, -5.000000000000000000 ) ) ;
#254 = FACE_OUTER_BOUND ( 'NONE', #345, .T. ) ;
#255 = ORIENTED_EDGE ( 'NONE', *, *, #456, .F. ) ;
#256 = VERTEX_POINT ( 'NONE', #52 ) ;
#257 = CARTESIAN_POINT ( 'NONE',  ( 29.50000000000000711, 4.000000000000000000, 5.000000000000000000 ) ) ;
#258 = AXIS2_PLACEMENT_3D ( 'NONE', #440, #231, #962 ) ;
#259 = TOROIDAL_SURFACE ( 'NONE', #509, 4.275643679511808237, 0.5000000000000000000 ) ;
#260 = VECTOR ( 'NONE', #594, 1000.000000000000000 ) ;
#261 = EDGE_LOOP ( 'NONE', ( #671, #247, #94, #161 ) ) ;
#262 = AXIS2_PLACEMENT_3D ( 'NONE', #164, #29, #312 ) ;
#263 = EDGE_LOOP ( 'NONE', ( #438, #267, #625, #593 ) ) ;
#264 = DIRECTION ( 'NONE',  ( 0.000000000000000000, 0.000000000000000000, -1.000000000000000000 ) ) ;
#265 = DIRECTION ( 'NONE',  ( -1.000000000000000000, 0.000000000000000000, 0.000000000000000000 ) ) ;
#266 = EDGE_CURVE ( 'NONE', #869, #336, #581, .T. ) ;
#267 = ORIENTED_EDGE ( 'NONE', *, *, #958, .T. ) ;
#268 = ORIENTED_EDGE ( 'NONE', *, *, #743, .T. ) ;
#269 = SURFACE_STYLE_FILL_AREA ( #124 ) ;
#270 = VERTEX_POINT ( 'NONE', #57 ) ;
#271 = ORIENTED_EDGE ( 'NONE', *, *, #441, .T. ) ;
#272 = DIRECTION ( 'NONE',  ( 0.000000000000000000, 0.000000000000000000, 1.000000000000000000 ) ) ;
#273 = EDGE_CURVE ( 'NONE', #771, #876, #923, .T. ) ;
#274 = AXIS2_PLACEMENT_3D ( 'NONE', #774, #108, #335 ) ;
#275 = CARTESIAN_POINT ( 'NONE',  ( 26.19999999999999929, 0.6655216659757470232, -3.803835902877496178 ) ) ;
#276 = AXIS2_PLACEMENT_3D ( 'NONE', #772, #626, #403 ) ;
#277 = ORIENTED_EDGE ( 'NONE', *, *, #797, .F. ) ;
#278 = TOROIDAL_SURFACE ( 'NONE', #10, 4.275643679511808237, 0.5000000000000000000 ) ;
#279 = CARTESIAN_POINT ( 'NONE',  ( -26.19999999999999929, 0.5000000000000000000, 4.275643679511808237 ) ) ;
#280 = CARTESIAN_POINT ( 'NONE',  ( 26.19999999999999929, 0.6655216659757470232, 0.000000000000000000 ) ) ;
#281 = ADVANCED_FACE ( 'NONE', ( #339 ), #43, .T. ) ;
#282 =( NAMED_UNIT ( * ) SI_UNIT ( $, .STERADIAN. ) SOLID_ANGLE_UNIT ( ) );
#283 = EDGE_CURVE ( 'NONE', #20, #616, #245, .T. ) ;
#284 = EDGE_CURVE ( 'NONE', #414, #131, #129, .T. ) ;
#285 = DIRECTION ( 'NONE',  ( -1.000000000000000000, 0.000000000000000000, 0.000000000000000000 ) ) ;
#286 = EDGE_CURVE ( 'NONE', #116, #424, #186, .T. ) ;
#287 = ORIENTED_EDGE ( 'NONE', *, *, #69, .F. ) ;
#288 = DIRECTION ( 'NONE',  ( 0.000000000000000000, 0.000000000000000000, 1.000000000000000000 ) ) ;
#289 = DIRECTION ( 'NONE',  ( 0.000000000000000000, 0.000000000000000000, 1.000000000000000000 ) ) ;
#290 = CARTESIAN_POINT ( 'NONE',  ( 26.19999999999999929, 0.6655216659757470232, 0.000000000000000000 ) ) ;
#291 = AXIS2_PLACEMENT_3D ( 'NONE', #74, #506, #130 ) ;
#292 = AXIS2_PLACEMENT_3D ( 'NONE', #516, #451, #151 ) ;
#293 = CARTESIAN_POINT ( 'NONE',  ( -26.19999999999999929, 3.500000000000000000, -4.275643679511808237 ) ) ;
#294 = DIRECTION ( 'NONE',  ( 0.000000000000000000, 1.000000000000000000, 0.000000000000000000 ) ) ;
#295 = CARTESIAN_POINT ( 'NONE',  ( 26.19999999999999929, 0.4999999999999998890, 0.000000000000000000 ) ) ;
#296 = DIRECTION ( 'NONE',  ( -0.000000000000000000, -1.000000000000000000, -0.000000000000000000 ) ) ;
#297 = CARTESIAN_POINT ( 'NONE',  ( -30.00383590287749414, 3.334478334024252977, 0.000000000000000000 ) ) ;
#298 = CARTESIAN_POINT ( 'NONE',  ( -30.00383590287749414, 0.6655216659757470232, 0.000000000000000000 ) ) ;
#299 = DIRECTION ( 'NONE',  ( 0.000000000000000000, 1.000000000000000000, 0.000000000000000000 ) ) ;
#300 = EDGE_LOOP ( 'NONE', ( #612, #947 ) ) ;
#301 = CIRCLE ( 'NONE', #262, 3.803835902877496178 ) ;
#302 = ORIENTED_EDGE ( 'NONE', *, *, #660, .F. ) ;
#303 = AXIS2_PLACEMENT_3D ( 'NONE', #420, #494, #738 ) ;
#304 = CARTESIAN_POINT ( 'NONE',  ( -29.49999999999999645, 4.000000000000000000, -5.000000000000000000 ) ) ;
#305 = AXIS2_PLACEMENT_3D ( 'NONE', #293, #590, #919 ) ;
#306 = DIRECTION ( 'NONE',  ( -0.000000000000000000, -1.000000000000000000, -0.000000000000000000 ) ) ;
#307 = AXIS2_PLACEMENT_3D ( 'NONE', #16, #610, #778 ) ;
#308 =( NAMED_UNIT ( * ) PLANE_ANGLE_UNIT ( ) SI_UNIT ( $, .RADIAN. ) );
#309 = EDGE_LOOP ( 'NONE', ( #711, #793, #798, #693, #946, #202 ) ) ;
#310 = DIRECTION ( 'NONE',  ( 0.000000000000000000, 1.000000000000000000, 0.000000000000000000 ) ) ;
#311 = ADVANCED_FACE ( 'NONE', ( #46 ), #805, .T. ) ;
#312 = DIRECTION ( 'NONE',  ( 0.000000000000000000, 0.000000000000000000, -1.000000000000000000 ) ) ;
#313 = DIRECTION ( 'NONE',  ( 1.000000000000000000, 0.000000000000000000, 0.000000000000000000 ) ) ;
#314 = EDGE_CURVE ( 'NONE', #256, #876, #25, .T. ) ;
#315 = ORIENTED_EDGE ( 'NONE', *, *, #198, .T. ) ;
#316 = ADVANCED_FACE ( 'NONE', ( #209 ), #215, .T. ) ;
#317 = ORIENTED_EDGE ( 'NONE', *, *, #376, .T. ) ;
#318 = SPHERICAL_SURFACE ( 'NONE', #462, 4.031128874149274566 ) ;
#319 = LINE ( 'NONE', #253, #54 ) ;
#320 = CYLINDRICAL_SURFACE ( 'NONE', #769, 3.000000000000000000 ) ;
#321 = DIRECTION ( 'NONE',  ( 0.000000000000000000, 0.000000000000000000, -1.000000000000000000 ) ) ;
#322 = DIRECTION ( 'NONE',  ( 0.000000000000000000, 0.000000000000000000, 1.000000000000000000 ) ) ;
#323 = FACE_OUTER_BOUND ( 'NONE', #263, .T. ) ;
#324 = CIRCLE ( 'NONE', #122, 3.775643679511807793 ) ;
#325 = CIRCLE ( 'NONE', #867, 3.000000000000000000 ) ;
#326 = ORIENTED_EDGE ( 'NONE', *, *, #28, .F. ) ;
#327 = FACE_OUTER_BOUND ( 'NONE', #886, .T. ) ;
#328 = DIRECTION ( 'NONE',  ( -0.000000000000000000, -1.000000000000000000, -0.000000000000000000 ) ) ;
#329 = DIRECTION ( 'NONE',  ( 0.000000000000000000, 1.000000000000000000, 0.000000000000000000 ) ) ;
#330 = EDGE_CURVE ( 'NONE', #351, #240, #910, .T. ) ;
#331 = VERTEX_POINT ( 'NONE', #959 ) ;
#332 = VERTEX_POINT ( 'NONE', #945 ) ;
#333 = DIRECTION ( 'NONE',  ( 0.000000000000000000, 1.000000000000000000, 0.000000000000000000 ) ) ;
#334 = DIRECTION ( 'NONE',  ( 1.224646799147353207E-16, 0.000000000000000000, -1.000000000000000000 ) ) ;
#335 = DIRECTION ( 'NONE',  ( 0.000000000000000000, 0.000000000000000000, 1.000000000000000000 ) ) ;
#336 = VERTEX_POINT ( 'NONE', #643 ) ;
#337 = VERTEX_POINT ( 'NONE', #950 ) ;
#338 = CARTESIAN_POINT ( 'NONE',  ( 32.50000000000000711, 0.000000000000000000, 2.000000000000000000 ) ) ;
#339 = FACE_OUTER_BOUND ( 'NONE', #197, .T. ) ;
#340 =( GEOMETRIC_REPRESENTATION_CONTEXT ( 3 ) GLOBAL_UNCERTAINTY_ASSIGNED_CONTEXT ( ( #551 ) ) GLOBAL_UNIT_ASSIGNED_CONTEXT ( ( #96, #308, #930 ) ) REPRESENTATION_CONTEXT ( 'NONE', 'WORKASPACE' ) );
#341 = AXIS2_PLACEMENT_3D ( 'NONE', #628, #184, #933 ) ;
#342 = TOROIDAL_SURFACE ( 'NONE', #203, 4.275643679511808237, 0.5000000000000000000 ) ;
#343 = ORIENTED_EDGE ( 'NONE', *, *, #362, .T. ) ;
#344 = ADVANCED_FACE ( 'NONE', ( #507 ), #71, .T. ) ;
#345 = EDGE_LOOP ( 'NONE', ( #717, #964, #251, #641 ) ) ;
#346 = DIRECTION ( 'NONE',  ( -1.000000000000000000, 0.000000000000000000, 0.000000000000000000 ) ) ;
#347 = ORIENTED_EDGE ( 'NONE', *, *, #502, .T. ) ;
#348 = MANIFOLD_SOLID_BREP ( 'Fillet2', #214 ) ;
#349 = VERTEX_POINT ( 'NONE', #377 ) ;
#350 = EDGE_CURVE ( 'NONE', #270, #398, #324, .T. ) ;
#351 = VERTEX_POINT ( 'NONE', #298 ) ;
#352 = ORIENTED_EDGE ( 'NONE', *, *, #140, .F. ) ;
#353 = CARTESIAN_POINT ( 'NONE',  ( -32.49999999999999289, 4.000000000000000000, 5.000000000000000000 ) ) ;
#354 = CIRCLE ( 'NONE', #760, 4.275643679511808237 ) ;
#355 = AXIS2_PLACEMENT_3D ( 'NONE', #279, #265, #567 ) ;
#356 = DIRECTION ( 'NONE',  ( 0.000000000000000000, 0.000000000000000000, 1.000000000000000000 ) ) ;
#357 = CIRCLE ( 'NONE', #870, 0.4999999999999995559 ) ;
#358 = ORIENTED_EDGE ( 'NONE', *, *, #828, .F. ) ;
#359 = AXIS2_PLACEMENT_3D ( 'NONE', #235, #902, #289 ) ;
#360 = EDGE_CURVE ( 'NONE', #419, #349, #497, .T. ) ;
#361 = EDGE_CURVE ( 'NONE', #460, #131, #833, .T. ) ;
#362 = EDGE_CURVE ( 'NONE', #90, #332, #740, .T. ) ;
#363 = DIRECTION ( 'NONE',  ( 0.000000000000000000, 1.000000000000000000, 0.000000000000000000 ) ) ;
#364 = FACE_OUTER_BOUND ( 'NONE', #952, .T. ) ;
#365 = DIRECTION ( 'NONE',  ( -0.000000000000000000, -1.000000000000000000, -0.000000000000000000 ) ) ;
#366 = ORIENTED_EDGE ( 'NONE', *, *, #914, .T. ) ;
#367 = FACE_OUTER_BOUND ( 'NONE', #32, .T. ) ;
#368 = DIRECTION ( 'NONE',  ( 0.000000000000000000, 1.000000000000000000, 0.000000000000000000 ) ) ;
#369 = DIRECTION ( 'NONE',  ( 0.000000000000000000, 0.000000000000000000, 1.000000000000000000 ) ) ;
#370 = AXIS2_PLACEMENT_3D ( 'NONE', #23, #866, #481 ) ;
#371 = CIRCLE ( 'NONE', #421, 3.000000000000000000 ) ;
#372 = LINE ( 'NONE', #841, #260 ) ;
#373 = CARTESIAN_POINT ( 'NONE',  ( -32.49999999999999289, 4.000000000000000000, -2.000000000000000000 ) ) ;
#374 = CARTESIAN_POINT ( 'NONE',  ( -26.19999999999999929, 0.6655216659757470232, 0.000000000000000000 ) ) ;
#375 = ORIENTED_EDGE ( 'NONE', *, *, #505, .T. ) ;
#376 = EDGE_CURVE ( 'NONE', #876, #256, #89, .T. ) ;
#377 = CARTESIAN_POINT ( 'NONE',  ( -26.19999999999999929, 4.000000000000000000, -4.275643679511808237 ) ) ;
#378 = CARTESIAN_POINT ( 'NONE',  ( -29.49999999999999645, 0.000000000000000000, 5.000000000000000000 ) ) ;
#379 = EDGE_LOOP ( 'NONE', ( #568, #611, #694, #208 ) ) ;
#380 = DIRECTION ( 'NONE',  ( 0.000000000000000000, 0.000000000000000000, 1.000000000000000000 ) ) ;
#381 = DIRECTION ( 'NONE',  ( 0.000000000000000000, 0.000000000000000000, 1.000000000000000000 ) ) ;
#382 = ORIENTED_EDGE ( 'NONE', *, *, #158, .T. ) ;
#383 = AXIS2_PLACEMENT_3D ( 'NONE', #826, #974, #899 ) ;
#384 = ORIENTED_EDGE ( 'NONE', *, *, #41, .F. ) ;
#385 = VECTOR ( 'NONE', #514, 1000.000000000000000 ) ;
#386 = DIRECTION ( 'NONE',  ( -1.000000000000000000, 0.000000000000000000, 0.000000000000000000 ) ) ;
#387 = CIRCLE ( 'NONE', #895, 3.803835902877496178 ) ;
#388 = CARTESIAN_POINT ( 'NONE',  ( 30.00383590287749414, 3.334478334024252977, 0.000000000000000000 ) ) ;
#389 = CIRCLE ( 'NONE', #884, 3.803835902877496178 ) ;
#390 = ADVANCED_FACE ( 'NONE', ( #367 ), #588, .T. ) ;
#391 = ORIENTED_EDGE ( 'NONE', *, *, #850, .F. ) ;
#392 = EDGE_LOOP ( 'NONE', ( #730, #408, #14, #657, #847 ) ) ;
#393 = CARTESIAN_POINT ( 'NONE',  ( -26.19999999999999929, 3.334478334024252977, 0.000000000000000000 ) ) ;
#394 = DIRECTION ( 'NONE',  ( -0.000000000000000000, -1.000000000000000000, -0.000000000000000000 ) ) ;
#395 = DIRECTION ( 'NONE',  ( 0.000000000000000000, -1.000000000000000000, 0.000000000000000000 ) ) ;
#396 = EDGE_LOOP ( 'NONE', ( #520, #255, #498, #277 ) ) ;
#397 = UNCERTAINTY_MEASURE_WITH_UNIT (LENGTH_MEASURE( 1.000000000000000082E-05 ), #429, 'distance_accuracy_value', 'NONE');
#398 = VERTEX_POINT ( 'NONE', #223 ) ;
#399 = CARTESIAN_POINT ( 'NONE',  ( -26.19999999999999929, 0.4999999999999998890, 0.000000000000000000 ) ) ;
#400 = PLANE ( 'NONE',  #85 ) ;
#401 = EDGE_CURVE ( 'NONE', #644, #771, #56, .T. ) ;
#402 = ORIENTED_EDGE ( 'NONE', *, *, #716, .T. ) ;
#403 = DIRECTION ( 'NONE',  ( 0.000000000000000000, 0.000000000000000000, 1.000000000000000000 ) ) ;
#404 = DIRECTION ( 'NONE',  ( -1.000000000000000000, -0.000000000000000000, -0.000000000000000000 ) ) ;
#405 = DIRECTION ( 'NONE',  ( 1.000000000000000000, -0.000000000000000000, 1.224646799147353207E-16 ) ) ;
#406 = CIRCLE ( 'NONE', #305, 0.4999999999999995559 ) ;
#407 = AXIS2_PLACEMENT_3D ( 'NONE', #34, #851, #99 ) ;
#408 = ORIENTED_EDGE ( 'NONE', *, *, #401, .F. ) ;
#409 = VERTEX_POINT ( 'NONE', #528 ) ;
#410 = CARTESIAN_POINT ( 'NONE',  ( -32.49999999999999289, 4.000000000000000000, 5.000000000000000000 ) ) ;
#411 = CARTESIAN_POINT ( 'NONE',  ( 26.19999999999999929, 3.500000000000000000, 3.775643679511807793 ) ) ;
#412 = CARTESIAN_POINT ( 'NONE',  ( 29.50000000000000711, 4.000000000000000000, -2.000000000000000000 ) ) ;
#413 = EDGE_LOOP ( 'NONE', ( #233, #553, #935, #268 ) ) ;
#414 = VERTEX_POINT ( 'NONE', #229 ) ;
#415 = CARTESIAN_POINT ( 'NONE',  ( 26.19999999999999929, 3.500000000000000000, 0.000000000000000000 ) ) ;
#416 = FACE_OUTER_BOUND ( 'NONE', #550, .T. ) ;
#417 = EDGE_CURVE ( 'NONE', #488, #457, #372, .T. ) ;
#418 = ORIENTED_EDGE ( 'NONE', *, *, #286, .T. ) ;
#419 = VERTEX_POINT ( 'NONE', #454 ) ;
#420 = CARTESIAN_POINT ( 'NONE',  ( 26.19999999999999929, 3.334478334024252977, 0.000000000000000000 ) ) ;
#421 = AXIS2_PLACEMENT_3D ( 'NONE', #210, #669, #427 ) ;
#422 = AXIS2_PLACEMENT_3D ( 'NONE', #729, #651, #272 ) ;
#423 = ORIENTED_EDGE ( 'NONE', *, *, #809, .T. ) ;
#424 = VERTEX_POINT ( 'NONE', #745 ) ;
#425 = ORIENTED_EDGE ( 'NONE', *, *, #376, .F. ) ;
#426 = ORIENTED_EDGE ( 'NONE', *, *, #660, .T. ) ;
#427 = DIRECTION ( 'NONE',  ( 0.000000000000000000, 0.000000000000000000, 1.000000000000000000 ) ) ;
#428 = EDGE_CURVE ( 'NONE', #131, #488, #942, .T. ) ;
#429 =( LENGTH_UNIT ( ) NAMED_UNIT ( * ) SI_UNIT ( .MILLI., .METRE. ) );
#430 = CIRCLE ( 'NONE', #185, 3.803835902877496178 ) ;
#431 = AXIS2_PLACEMENT_3D ( 'NONE', #290, #365, #212 ) ;
#432 = DIRECTION ( 'NONE',  ( -0.000000000000000000, -1.000000000000000000, -0.000000000000000000 ) ) ;
#433 = AXIS2_PLACEMENT_3D ( 'NONE', #98, #248, #27 ) ;
#434 = AXIS2_PLACEMENT_3D ( 'NONE', #445, #842, #912 ) ;
#435 = CARTESIAN_POINT ( 'NONE',  ( -26.19999999999999929, 4.000000000000000000, 0.000000000000000000 ) ) ;
#436 = CARTESIAN_POINT ( 'NONE',  ( -26.19999999999999929, 0.6655216659757470232, 0.000000000000000000 ) ) ;
#437 = CARTESIAN_POINT ( 'NONE',  ( -26.19999999999999929, 2.000000000000000000, 0.000000000000000000 ) ) ;
#438 = ORIENTED_EDGE ( 'NONE', *, *, #532, .T. ) ;
#439 = PRODUCT_RELATED_PRODUCT_CATEGORY ( 'part', '', ( #843 ) ) ;
#440 = CARTESIAN_POINT ( 'NONE',  ( -26.19999999999999929, 2.000000000000000000, 0.000000000000000000 ) ) ;
#441 = EDGE_CURVE ( 'NONE', #61, #238, #764, .T. ) ;
#442 = FACE_BOUND ( 'NONE', #1, .T. ) ;
#443 = ORIENTED_EDGE ( 'NONE', *, *, #817, .F. ) ;
#444 = LINE ( 'NONE', #682, #187 ) ;
#445 = CARTESIAN_POINT ( 'NONE',  ( 26.19999999999999929, 0.000000000000000000, 0.000000000000000000 ) ) ;
#446 = CARTESIAN_POINT ( 'NONE',  ( -26.19999999999999929, 3.500000000000000000, 0.000000000000000000 ) ) ;
#447 = CIRCLE ( 'NONE', #431, 3.803835902877496178 ) ;
#448 = ORIENTED_EDGE ( 'NONE', *, *, #692, .F. ) ;
#449 = AXIS2_PLACEMENT_3D ( 'NONE', #4, #672, #145 ) ;
#450 = AXIS2_PLACEMENT_3D ( 'NONE', #762, #139, #67 ) ;
#451 = DIRECTION ( 'NONE',  ( 1.000000000000000000, -0.000000000000000000, 1.224646799147353207E-16 ) ) ;
#452 = FACE_OUTER_BOUND ( 'NONE', #396, .T. ) ;
#453 = ORIENTED_EDGE ( 'NONE', *, *, #314, .T. ) ;
#454 = CARTESIAN_POINT ( 'NONE',  ( -26.19999999999999929, 4.000000000000000000, 4.275643679511808237 ) ) ;
#455 = PLANE ( 'NONE',  #650 ) ;
#456 = EDGE_CURVE ( 'NONE', #166, #474, #444, .T. ) ;
#457 = VERTEX_POINT ( 'NONE', #512 ) ;
#458 = CARTESIAN_POINT ( 'NONE',  ( -26.19999999999999929, 0.5000000000000000000, 0.000000000000000000 ) ) ;
#459 = CARTESIAN_POINT ( 'NONE',  ( 32.50000000000000711, 4.000000000000000000, -2.000000000000000000 ) ) ;
#460 = VERTEX_POINT ( 'NONE', #76 ) ;
#461 = DIRECTION ( 'NONE',  ( 1.000000000000000000, 0.000000000000000000, 0.000000000000000000 ) ) ;
#462 = AXIS2_PLACEMENT_3D ( 'NONE', #21, #321, #461 ) ;
#463 = CARTESIAN_POINT ( 'NONE',  ( -32.49999999999999289, 4.000000000000000000, 2.000000000000000000 ) ) ;
#464 = CARTESIAN_POINT ( 'NONE',  ( 29.50000000000000711, 4.000000000000000000, 2.000000000000000000 ) ) ;
#465 = ORIENTED_EDGE ( 'NONE', *, *, #889, .T. ) ;
#466 = CARTESIAN_POINT ( 'NONE',  ( 26.19999999999999929, 0.000000000000000000, -4.275643679511808237 ) ) ;
#467 = LINE ( 'NONE', #107, #599 ) ;
#468 = CARTESIAN_POINT ( 'NONE',  ( 26.19999999999999929, 0.6655216659757470232, 3.803835902877496178 ) ) ;
#469 = EDGE_CURVE ( 'NONE', #771, #121, #172, .T. ) ;
#470 = ORIENTED_EDGE ( 'NONE', *, *, #914, .F. ) ;
#471 = PLANE ( 'NONE',  #670 ) ;
#472 = DIRECTION ( 'NONE',  ( -1.000000000000000000, 0.000000000000000000, -1.224646799147353207E-16 ) ) ;
#473 = DIRECTION ( 'NONE',  ( 0.000000000000000000, 0.000000000000000000, 1.000000000000000000 ) ) ;
#474 = VERTEX_POINT ( 'NONE', #304 ) ;
#475 = ADVANCED_FACE ( 'NONE', ( #605 ), #342, .T. ) ;
#476 = VERTEX_POINT ( 'NONE', #216 ) ;
#477 = CARTESIAN_POINT ( 'NONE',  ( -26.19999999999999929, 2.000000000000000000, 0.000000000000000000 ) ) ;
#478 = CIRCLE ( 'NONE', #383, 3.803835902877496178 ) ;
#479 = CIRCLE ( 'NONE', #8, 3.775643679511807793 ) ;
#480 = DIRECTION ( 'NONE',  ( 0.000000000000000000, 1.000000000000000000, 0.000000000000000000 ) ) ;
#481 = DIRECTION ( 'NONE',  ( 1.000000000000000000, 0.000000000000000000, 0.000000000000000000 ) ) ;
#482 = AXIS2_PLACEMENT_3D ( 'NONE', #477, #699, #780 ) ;
#483 = CIRCLE ( 'NONE', #872, 3.803835902877496178 ) ;
#484 = ORIENTED_EDGE ( 'NONE', *, *, #754, .T. ) ;
#485 = EDGE_LOOP ( 'NONE', ( #219, #222, #36, #148, #493, #105 ) ) ;
#486 = CARTESIAN_POINT ( 'NONE',  ( 22.39616409712250089, 0.6655216659757470232, -4.658355462940707061E-16 ) ) ;
#487 = CARTESIAN_POINT ( 'NONE',  ( 32.50000000000000711, 4.000000000000000000, -5.000000000000000000 ) ) ;
#488 = VERTEX_POINT ( 'NONE', #825 ) ;
#489 = ORIENTED_EDGE ( 'NONE', *, *, #283, .T. ) ;
#490 = FILL_AREA_STYLE_COLOUR ( '', #758 ) ;
#491 = EDGE_CURVE ( 'NONE', #144, #126, #526, .T. ) ;
#492 = ORIENTED_EDGE ( 'NONE', *, *, #631, .F. ) ;
#493 = ORIENTED_EDGE ( 'NONE', *, *, #674, .T. ) ;
#494 = DIRECTION ( 'NONE',  ( 0.000000000000000000, 1.000000000000000000, 0.000000000000000000 ) ) ;
#495 = AXIS2_PLACEMENT_3D ( 'NONE', #807, #504, #137 ) ;
#496 = AXIS2_PLACEMENT_3D ( 'NONE', #106, #310, #609 ) ;
#497 = CIRCLE ( 'NONE', #230, 4.275643679511808237 ) ;
#498 = ORIENTED_EDGE ( 'NONE', *, *, #878, .F. ) ;
#499 = ORIENTED_EDGE ( 'NONE', *, *, #957, .F. ) ;
#500 = DIRECTION ( 'NONE',  ( 0.000000000000000000, 0.000000000000000000, 1.000000000000000000 ) ) ;
#501 = CARTESIAN_POINT ( 'NONE',  ( -32.49999999999999289, 4.000000000000000000, -2.000000000000000000 ) ) ;
#502 = EDGE_CURVE ( 'NONE', #349, #270, #406, .T. ) ;
#503 = ORIENTED_EDGE ( 'NONE', *, *, #417, .T. ) ;
#504 = DIRECTION ( 'NONE',  ( 0.000000000000000000, 1.000000000000000000, 0.000000000000000000 ) ) ;
#505 = EDGE_CURVE ( 'NONE', #457, #61, #822, .T. ) ;
#506 = DIRECTION ( 'NONE',  ( -0.000000000000000000, -1.000000000000000000, -0.000000000000000000 ) ) ;
#507 = FACE_OUTER_BOUND ( 'NONE', #879, .T. ) ;
#508 = AXIS2_PLACEMENT_3D ( 'NONE', #183, #480, #855 ) ;
#509 = AXIS2_PLACEMENT_3D ( 'NONE', #225, #175, #473 ) ;
#510 = LINE ( 'NONE', #747, #385 ) ;
#511 = AXIS2_PLACEMENT_3D ( 'NONE', #639, #815, #196 ) ;
#512 = CARTESIAN_POINT ( 'NONE',  ( 32.50000000000000711, 4.000000000000000000, -2.000000000000000000 ) ) ;
#513 = ADVANCED_FACE ( 'NONE', ( #168 ), #471, .F. ) ;
#514 = DIRECTION ( 'NONE',  ( -0.000000000000000000, 1.000000000000000000, -0.000000000000000000 ) ) ;
#515 = ORIENTED_EDGE ( 'NONE', *, *, #5, .F. ) ;
#516 = CARTESIAN_POINT ( 'NONE',  ( 26.19999999999999929, 0.5000000000000000000, -4.275643679511808237 ) ) ;
#517 = CYLINDRICAL_SURFACE ( 'NONE', #688, 3.000000000000000000 ) ;
#518 = EDGE_CURVE ( 'NONE', #531, #240, #387, .T. ) ;
#519 = CARTESIAN_POINT ( 'NONE',  ( -26.19999999999999929, 0.5000000000000000000, 0.000000000000000000 ) ) ;
#520 = ORIENTED_EDGE ( 'NONE', *, *, #889, .F. ) ;
#521 = DIRECTION ( 'NONE',  ( -0.000000000000000000, -1.000000000000000000, -0.000000000000000000 ) ) ;
#522 = DIRECTION ( 'NONE',  ( 0.000000000000000000, 0.000000000000000000, 1.000000000000000000 ) ) ;
#523 = FACE_BOUND ( 'NONE', #300, .T. ) ;
#524 = CIRCLE ( 'NONE', #450, 3.775643679511807793 ) ;
#525 = VECTOR ( 'NONE', #115, 1000.000000000000000 ) ;
#526 = CIRCLE ( 'NONE', #808, 0.4999999999999995559 ) ;
#527 = CIRCLE ( 'NONE', #508, 3.000000000000000000 ) ;
#528 = CARTESIAN_POINT ( 'NONE',  ( 26.19999999999999929, 3.334478334024252977, 3.803835902877496178 ) ) ;
#529 = ADVANCED_FACE ( 'NONE', ( #241 ), #318, .F. ) ;
#530 = DIRECTION ( 'NONE',  ( 0.000000000000000000, -1.000000000000000000, 0.000000000000000000 ) ) ;
#531 = VERTEX_POINT ( 'NONE', #858 ) ;
#532 = EDGE_CURVE ( 'NONE', #642, #476, #178, .T. ) ;
#533 = CARTESIAN_POINT ( 'NONE',  ( 26.19999999999999929, 3.500000000000000000, 0.000000000000000000 ) ) ;
#534 = DIRECTION ( 'NONE',  ( -0.000000000000000000, 1.000000000000000000, -0.000000000000000000 ) ) ;
#535 = ORIENTED_EDGE ( 'NONE', *, *, #744, .T. ) ;
#536 = EDGE_LOOP ( 'NONE', ( #545, #748, #384, #727, #343 ) ) ;
#537 = CARTESIAN_POINT ( 'NONE',  ( -26.19999999999999929, 3.500000000000000000, 4.275643679511808237 ) ) ;
#538 = DIRECTION ( 'NONE',  ( 1.000000000000000000, 0.000000000000000000, 0.000000000000000000 ) ) ;
#539 = ORIENTED_EDGE ( 'NONE', *, *, #266, .T. ) ;
#540 = AXIS2_PLACEMENT_3D ( 'NONE', #464, #395, #250 ) ;
#541 = DIRECTION ( 'NONE',  ( 0.000000000000000000, 1.000000000000000000, 0.000000000000000000 ) ) ;
#542 = STYLED_ITEM ( 'NONE', ( #570 ), #348 ) ;
#543 = DIRECTION ( 'NONE',  ( 0.000000000000000000, 0.000000000000000000, 1.000000000000000000 ) ) ;
#544 = CARTESIAN_POINT ( 'NONE',  ( 0.000000000000000000, 4.000000000000000000, 0.000000000000000000 ) ) ;
#545 = ORIENTED_EDGE ( 'NONE', *, *, #809, .F. ) ;
#546 = DIRECTION ( 'NONE',  ( 0.000000000000000000, 0.000000000000000000, -1.000000000000000000 ) ) ;
#547 = DIRECTION ( 'NONE',  ( 1.000000000000000000, 0.000000000000000000, 0.000000000000000000 ) ) ;
#548 = DIRECTION ( 'NONE',  ( 0.000000000000000000, 0.000000000000000000, -1.000000000000000000 ) ) ;
#549 = EDGE_CURVE ( 'NONE', #121, #771, #246, .T. ) ;
#550 = EDGE_LOOP ( 'NONE', ( #352, #853, #33, #665 ) ) ;
#551 = UNCERTAINTY_MEASURE_WITH_UNIT (LENGTH_MEASURE( 1.000000000000000082E-05 ), #96, 'distance_accuracy_value', 'NONE');
#552 = ADVANCED_FACE ( 'NONE', ( #927 ), #924, .T. ) ;
#553 = ORIENTED_EDGE ( 'NONE', *, *, #170, .F. ) ;
#554 = DIRECTION ( 'NONE',  ( 0.000000000000000000, 0.000000000000000000, 1.000000000000000000 ) ) ;
#555 = PLANE ( 'NONE',  #756 ) ;
#556 = ORIENTED_EDGE ( 'NONE', *, *, #829, .F. ) ;
#557 = EDGE_LOOP ( 'NONE', ( #556, #949, #117, #128, #315, #418 ) ) ;
#558 = DIRECTION ( 'NONE',  ( -0.000000000000000000, -1.000000000000000000, -0.000000000000000000 ) ) ;
#559 = TOROIDAL_SURFACE ( 'NONE', #741, 4.275643679511808237, 0.5000000000000000000 ) ;
#560 = CIRCLE ( 'NONE', #881, 3.803835902877496178 ) ;
#561 = FACE_OUTER_BOUND ( 'NONE', #557, .T. ) ;
#562 = AXIS2_PLACEMENT_3D ( 'NONE', #725, #733, #500 ) ;
#563 = CIRCLE ( 'NONE', #956, 3.803835902877496178 ) ;
#564 = EDGE_LOOP ( 'NONE', ( #492, #569, #539, #736 ) ) ;
#565 = ORIENTED_EDGE ( 'NONE', *, *, #957, .T. ) ;
#566 = EDGE_CURVE ( 'NONE', #121, #256, #577, .T. ) ;
#567 = DIRECTION ( 'NONE',  ( 0.000000000000000000, 0.000000000000000000, 1.000000000000000000 ) ) ;
#568 = ORIENTED_EDGE ( 'NONE', *, *, #350, .F. ) ;
#569 = ORIENTED_EDGE ( 'NONE', *, *, #797, .T. ) ;
#570 = PRESENTATION_STYLE_ASSIGNMENT (( #955 ) ) ;
#571 = ORIENTED_EDGE ( 'NONE', *, *, #645, .F. ) ;
#572 = ADVANCED_FACE ( 'NONE', ( #777 ), #705, .T. ) ;
#573 = ORIENTED_EDGE ( 'NONE', *, *, #273, .F. ) ;
#574 = CARTESIAN_POINT ( 'NONE',  ( -26.19999999999999929, 3.500000000000000000, 0.000000000000000000 ) ) ;
#575 = AXIS2_PLACEMENT_3D ( 'NONE', #35, #633, #92 ) ;
#576 = ADVANCED_FACE ( 'NONE', ( #713 ), #102, .T. ) ;
#577 = CIRCLE ( 'NONE', #152, 0.4999999999999995559 ) ;
#578 = TOROIDAL_SURFACE ( 'NONE', #603, 4.275643679511808237, 0.5000000000000000000 ) ;
#579 = FACE_OUTER_BOUND ( 'NONE', #309, .T. ) ;
#580 = ORIENTED_EDGE ( 'NONE', *, *, #2, .T. ) ;
#581 = LINE ( 'NONE', #890, #101 ) ;
#582 = DIRECTION ( 'NONE',  ( 0.000000000000000000, 0.000000000000000000, 1.000000000000000000 ) ) ;
#583 = EDGE_CURVE ( 'NONE', #419, #398, #357, .T. ) ;
#584 = CARTESIAN_POINT ( 'NONE',  ( -26.19999999999999929, 0.5000000000000000000, 4.275643679511808237 ) ) ;
#585 = DIRECTION ( 'NONE',  ( 1.000000000000000000, 0.000000000000000000, -0.000000000000000000 ) ) ;
#586 = TOROIDAL_SURFACE ( 'NONE', #852, 4.275643679511808237, 0.5000000000000000000 ) ;
#587 = DIRECTION ( 'NONE',  ( 0.000000000000000000, -1.000000000000000000, 0.000000000000000000 ) ) ;
#588 = TOROIDAL_SURFACE ( 'NONE', #770, 4.275643679511808237, 0.5000000000000000000 ) ;
#589 = ADVANCED_FACE ( 'NONE', ( #327 ), #864, .F. ) ;
#590 = DIRECTION ( 'NONE',  ( 1.000000000000000000, -0.000000000000000000, 1.224646799147353207E-16 ) ) ;
#591 = DIRECTION ( 'NONE',  ( -0.000000000000000000, -1.000000000000000000, -0.000000000000000000 ) ) ;
#592 = DIRECTION ( 'NONE',  ( 0.000000000000000000, 0.000000000000000000, 1.000000000000000000 ) ) ;
#593 = ORIENTED_EDGE ( 'NONE', *, *, #51, .T. ) ;
#594 = DIRECTION ( 'NONE',  ( -0.000000000000000000, -0.000000000000000000, -1.000000000000000000 ) ) ;
#595 = CARTESIAN_POINT ( 'NONE',  ( 26.19999999999999929, 4.000000000000000000, 4.275643679511808237 ) ) ;
#596 = FACE_OUTER_BOUND ( 'NONE', #11, .T. ) ;
#597 = DIRECTION ( 'NONE',  ( 0.000000000000000000, 0.000000000000000000, 1.000000000000000000 ) ) ;
#598 = FACE_OUTER_BOUND ( 'NONE', #608, .T. ) ;
#599 = VECTOR ( 'NONE', #547, 1000.000000000000000 ) ;
#600 = VECTOR ( 'NONE', #118, 1000.000000000000000 ) ;
#601 = ORIENTED_EDGE ( 'NONE', *, *, #620, .T. ) ;
#602 = CIRCLE ( 'NONE', #155, 3.000000000000000000 ) ;
#603 = AXIS2_PLACEMENT_3D ( 'NONE', #160, #299, #684 ) ;
#604 = ORIENTED_EDGE ( 'NONE', *, *, #31, .F. ) ;
#605 = FACE_OUTER_BOUND ( 'NONE', #934, .T. ) ;
#606 = CARTESIAN_POINT ( 'NONE',  ( 30.00383590287749414, 0.6655216659757470232, 0.000000000000000000 ) ) ;
#607 = DIRECTION ( 'NONE',  ( 0.000000000000000000, 0.000000000000000000, 1.000000000000000000 ) ) ;
#608 = EDGE_LOOP ( 'NONE', ( #877, #271, #718, #635 ) ) ;
#609 = DIRECTION ( 'NONE',  ( 0.000000000000000000, 0.000000000000000000, 1.000000000000000000 ) ) ;
#610 = DIRECTION ( 'NONE',  ( -1.000000000000000000, 0.000000000000000000, 0.000000000000000000 ) ) ;
#611 = ORIENTED_EDGE ( 'NONE', *, *, #502, .F. ) ;
#612 = ORIENTED_EDGE ( 'NONE', *, *, #360, .T. ) ;
#613 = CARTESIAN_POINT ( 'NONE',  ( 26.19999999999999929, 0.5000000000000000000, 0.000000000000000000 ) ) ;
#614 = LINE ( 'NONE', #459, #908 ) ;
#615 = DIRECTION ( 'NONE',  ( -1.000000000000000000, 0.000000000000000000, 0.000000000000000000 ) ) ;
#616 = VERTEX_POINT ( 'NONE', #466 ) ;
#617 = CIRCLE ( 'NONE', #653, 3.775643679511807793 ) ;
#618 = VECTOR ( 'NONE', #898, 1000.000000000000000 ) ;
#619 = DIRECTION ( 'NONE',  ( 0.000000000000000000, 0.000000000000000000, 1.000000000000000000 ) ) ;
#620 = EDGE_CURVE ( 'NONE', #642, #460, #602, .T. ) ;
#621 = CIRCLE ( 'NONE', #104, 3.803835902877496178 ) ;
#622 = CARTESIAN_POINT ( 'NONE',  ( 26.19999999999999929, 4.000000000000000000, -4.275643679511808237 ) ) ;
#623 = APPLICATION_PROTOCOL_DEFINITION ( 'draft international standard', 'automotive_design', 1998, #845 ) ;
#624 = ADVANCED_FACE ( 'NONE', ( #163 ), #559, .T. ) ;
#625 = ORIENTED_EDGE ( 'NONE', *, *, #417, .F. ) ;
#626 = DIRECTION ( 'NONE',  ( 0.000000000000000000, 1.000000000000000000, 0.000000000000000000 ) ) ;
#627 = CARTESIAN_POINT ( 'NONE',  ( -26.19999999999999929, 0.5000000000000000000, -4.275643679511808237 ) ) ;
#628 = CARTESIAN_POINT ( 'NONE',  ( 26.19999999999999929, 3.500000000000000000, 4.275643679511808237 ) ) ;
#629 = ORIENTED_EDGE ( 'NONE', *, *, #330, .T. ) ;
#630 = ORIENTED_EDGE ( 'NONE', *, *, #284, .T. ) ;
#631 = EDGE_CURVE ( 'NONE', #119, #925, #767, .T. ) ;
#632 = CARTESIAN_POINT ( 'NONE',  ( -26.19999999999999929, 0.000000000000000000, 4.275643679511808237 ) ) ;
#633 = DIRECTION ( 'NONE',  ( 0.000000000000000000, 1.000000000000000000, 0.000000000000000000 ) ) ;
#634 = VERTEX_POINT ( 'NONE', #38 ) ;
#635 = ORIENTED_EDGE ( 'NONE', *, *, #456, .T. ) ;
#636 = CARTESIAN_POINT ( 'NONE',  ( -26.19999999999999929, 3.334478334024252977, 0.000000000000000000 ) ) ;
#637 = TOROIDAL_SURFACE ( 'NONE', #359, 4.275643679511808237, 0.5000000000000000000 ) ;
#638 = CIRCLE ( 'NONE', #835, 0.4999999999999995559 ) ;
#639 = CARTESIAN_POINT ( 'NONE',  ( -26.19999999999999929, 0.5000000000000000000, 0.000000000000000000 ) ) ;
#640 = AXIS2_PLACEMENT_3D ( 'NONE', #901, #966, #973 ) ;
#641 = ORIENTED_EDGE ( 'NONE', *, *, #441, .F. ) ;
#642 = VERTEX_POINT ( 'NONE', #338 ) ;
#643 = CARTESIAN_POINT ( 'NONE',  ( -32.49999999999999289, 0.000000000000000000, 2.000000000000000000 ) ) ;
#644 = VERTEX_POINT ( 'NONE', #114 ) ;
#645 = EDGE_CURVE ( 'NONE', #634, #801, #483, .T. ) ;
#646 = ORIENTED_EDGE ( 'NONE', *, *, #51, .F. ) ;
#647 = DIRECTION ( 'NONE',  ( -0.000000000000000000, -0.000000000000000000, -1.000000000000000000 ) ) ;
#648 = VERTEX_POINT ( 'NONE', #486 ) ;
#649 = ORIENTED_EDGE ( 'NONE', *, *, #532, .F. ) ;
#650 = AXIS2_PLACEMENT_3D ( 'NONE', #77, #907, #585 ) ;
#651 = DIRECTION ( 'NONE',  ( 0.000000000000000000, 1.000000000000000000, 0.000000000000000000 ) ) ;
#652 = EDGE_CURVE ( 'NONE', #126, #20, #6, .T. ) ;
#653 = AXIS2_PLACEMENT_3D ( 'NONE', #295, #891, #592 ) ;
#654 = VECTOR ( 'NONE', #690, 1000.000000000000000 ) ;
#655 = CIRCLE ( 'NONE', #232, 0.4999999999999995559 ) ;
#656 = FACE_OUTER_BOUND ( 'NONE', #752, .T. ) ;
#657 = ORIENTED_EDGE ( 'NONE', *, *, #698, .F. ) ;
#658 = CARTESIAN_POINT ( 'NONE',  ( -26.19999999999999929, 2.000000000000000000, 0.000000000000000000 ) ) ;
#659 = CARTESIAN_POINT ( 'NONE',  ( 32.50000000000000711, 4.000000000000000000, 2.000000000000000000 ) ) ;
#660 = EDGE_CURVE ( 'NONE', #331, #915, #26, .T. ) ;
#661 = DIRECTION ( 'NONE',  ( 0.000000000000000000, 1.000000000000000000, 0.000000000000000000 ) ) ;
#662 = ADVANCED_FACE ( 'NONE', ( #364 ), #637, .T. ) ;
#663 = FACE_OUTER_BOUND ( 'NONE', #379, .T. ) ;
#664 = CARTESIAN_POINT ( 'NONE',  ( 29.50000000000000711, 4.000000000000000000, -5.000000000000000000 ) ) ;
#665 = ORIENTED_EDGE ( 'NONE', *, *, #716, .F. ) ;
#666 = DIRECTION ( 'NONE',  ( 0.000000000000000000, 1.000000000000000000, 0.000000000000000000 ) ) ;
#667 = CARTESIAN_POINT ( 'NONE',  ( -29.49999999999999645, 4.000000000000000000, -2.000000000000000000 ) ) ;
#668 = CIRCLE ( 'NONE', #686, 3.803835902877496178 ) ;
#669 = DIRECTION ( 'NONE',  ( -0.000000000000000000, -1.000000000000000000, -0.000000000000000000 ) ) ;
#670 = AXIS2_PLACEMENT_3D ( 'NONE', #410, #252, #936 ) ;
#671 = ORIENTED_EDGE ( 'NONE', *, *, #566, .F. ) ;
#672 = DIRECTION ( 'NONE',  ( 0.000000000000000000, 1.000000000000000000, 0.000000000000000000 ) ) ;
#673 = CARTESIAN_POINT ( 'NONE',  ( -26.19999999999999929, 4.000000000000000000, 0.000000000000000000 ) ) ;
#674 = EDGE_CURVE ( 'NONE', #409, #880, #478, .T. ) ;
#675 = DIRECTION ( 'NONE',  ( 0.000000000000000000, 0.000000000000000000, 1.000000000000000000 ) ) ;
#676 = ORIENTED_EDGE ( 'NONE', *, *, #127, .T. ) ;
#677 = DIRECTION ( 'NONE',  ( 0.000000000000000000, -1.000000000000000000, 0.000000000000000000 ) ) ;
#678 = EDGE_CURVE ( 'NONE', #240, #634, #430, .T. ) ;
#679 = DIRECTION ( 'NONE',  ( 1.000000000000000000, -0.000000000000000000, 1.224646799147353207E-16 ) ) ;
#680 = VERTEX_POINT ( 'NONE', #606 ) ;
#681 = ORIENTED_EDGE ( 'NONE', *, *, #875, .T. ) ;
#682 = CARTESIAN_POINT ( 'NONE',  ( -29.49999999999999645, 4.000000000000000000, -5.000000000000000000 ) ) ;
#683 = PRODUCT_DEFINITION_SHAPE ( 'NONE', 'NONE',  #861 ) ;
#684 = DIRECTION ( 'NONE',  ( 0.000000000000000000, 0.000000000000000000, 1.000000000000000000 ) ) ;
#685 = AXIS2_PLACEMENT_3D ( 'NONE', #192, #871, #794 ) ;
#686 = AXIS2_PLACEMENT_3D ( 'NONE', #280, #143, #582 ) ;
#687 =( GEOMETRIC_REPRESENTATION_CONTEXT ( 3 ) GLOBAL_UNCERTAINTY_ASSIGNED_CONTEXT ( ( #397 ) ) GLOBAL_UNIT_ASSIGNED_CONTEXT ( ( #429, #883, #282 ) ) REPRESENTATION_CONTEXT ( 'NONE', 'WORKASPACE' ) );
#688 = AXIS2_PLACEMENT_3D ( 'NONE', #667, #530, #765 ) ;
#689 = ORIENTED_EDGE ( 'NONE', *, *, #31, .T. ) ;
#690 = DIRECTION ( 'NONE',  ( -0.000000000000000000, -0.000000000000000000, -1.000000000000000000 ) ) ;
#691 = FACE_OUTER_BOUND ( 'NONE', #564, .T. ) ;
#692 = EDGE_CURVE ( 'NONE', #349, #419, #911, .T. ) ;
#693 = ORIENTED_EDGE ( 'NONE', *, *, #965, .T. ) ;
#694 = ORIENTED_EDGE ( 'NONE', *, *, #360, .F. ) ;
#695 = CARTESIAN_POINT ( 'NONE',  ( -32.49999999999999289, 4.000000000000000000, -5.000000000000000000 ) ) ;
#696 = DIRECTION ( 'NONE',  ( 0.000000000000000000, 0.000000000000000000, 1.000000000000000000 ) ) ;
#697 = DIRECTION ( 'NONE',  ( 0.000000000000000000, -1.000000000000000000, 0.000000000000000000 ) ) ;
#698 = EDGE_CURVE ( 'NONE', #3, #337, #389, .T. ) ;
#699 = DIRECTION ( 'NONE',  ( 0.000000000000000000, 0.000000000000000000, 1.000000000000000000 ) ) ;
#700 = CARTESIAN_POINT ( 'NONE',  ( -32.49999999999999289, 4.000000000000000000, -5.000000000000000000 ) ) ;
#701 = CARTESIAN_POINT ( 'NONE',  ( -32.49999999999999289, 4.000000000000000000, -5.000000000000000000 ) ) ;
#702 = EDGE_LOOP ( 'NONE', ( #195, #49, #103, #287, #857 ) ) ;
#703 = PRODUCT_DEFINITION_FORMATION_WITH_SPECIFIED_SOURCE ( 'Symmetric', '', #843, .NOT_KNOWN. ) ;
#704 = CIRCLE ( 'NONE', #201, 3.000000000000000000 ) ;
#705 = TOROIDAL_SURFACE ( 'NONE', #276, 4.275643679511808237, 0.5000000000000000000 ) ;
#706 = DIRECTION ( 'NONE',  ( 0.000000000000000000, 0.000000000000000000, -1.000000000000000000 ) ) ;
#707 = APPLICATION_CONTEXT ( 'automotive_design' ) ;
#708 = VECTOR ( 'NONE', #15, 1000.000000000000000 ) ;
#709 = DIRECTION ( 'NONE',  ( 0.000000000000000000, 1.000000000000000000, 0.000000000000000000 ) ) ;
#710 = CARTESIAN_POINT ( 'NONE',  ( -29.49999999999999645, 0.000000000000000000, -5.000000000000000000 ) ) ;
#711 = ORIENTED_EDGE ( 'NONE', *, *, #59, .T. ) ;
#712 = ORIENTED_EDGE ( 'NONE', *, *, #64, .F. ) ;
#713 = FACE_OUTER_BOUND ( 'NONE', #846, .T. ) ;
#714 = DIRECTION ( 'NONE',  ( 9.120916465742051630E-16, 0.000000000000000000, -1.000000000000000000 ) ) ;
#715 = DIRECTION ( 'NONE',  ( 0.000000000000000000, 0.000000000000000000, -1.000000000000000000 ) ) ;
#716 = EDGE_CURVE ( 'NONE', #616, #20, #134, .T. ) ;
#717 = ORIENTED_EDGE ( 'NONE', *, *, #505, .F. ) ;
#718 = ORIENTED_EDGE ( 'NONE', *, *, #850, .T. ) ;
#719 = DIRECTION ( 'NONE',  ( 0.000000000000000000, 1.000000000000000000, 0.000000000000000000 ) ) ;
#720 = CARTESIAN_POINT ( 'NONE',  ( 26.19999999999999929, 0.000000000000000000, 0.000000000000000000 ) ) ;
#721 = ORIENTED_EDGE ( 'NONE', *, *, #64, .T. ) ;
#722 = ORIENTED_EDGE ( 'NONE', *, *, #566, .T. ) ;
#723 = VECTOR ( 'NONE', #587, 1000.000000000000000 ) ;
#724 = ADVANCED_FACE ( 'NONE', ( #452 ), #517, .T. ) ;
#725 = CARTESIAN_POINT ( 'NONE',  ( -26.19999999999999929, 0.000000000000000000, 0.000000000000000000 ) ) ;
#726 = AXIS2_PLACEMENT_3D ( 'NONE', #658, #647, #346 ) ;
#727 = ORIENTED_EDGE ( 'NONE', *, *, #903, .F. ) ;
#728 = ORIENTED_EDGE ( 'NONE', *, *, #518, .F. ) ;
#729 = CARTESIAN_POINT ( 'NONE',  ( -26.19999999999999929, 0.5000000000000000000, 0.000000000000000000 ) ) ;
#730 = ORIENTED_EDGE ( 'NONE', *, *, #469, .F. ) ;
#731 = VERTEX_POINT ( 'NONE', #378 ) ;
#732 = ADVANCED_FACE ( 'NONE', ( #663 ), #578, .T. ) ;
#733 = DIRECTION ( 'NONE',  ( 0.000000000000000000, 1.000000000000000000, 0.000000000000000000 ) ) ;
#734 = EDGE_CURVE ( 'NONE', #337, #801, #73, .T. ) ;
#735 = SPHERICAL_SURFACE ( 'NONE', #739, 4.031128874149274566 ) ;
#736 = ORIENTED_EDGE ( 'NONE', *, *, #112, .T. ) ;
#737 = AXIS2_PLACEMENT_3D ( 'NONE', #436, #591, #217 ) ;
#738 = DIRECTION ( 'NONE',  ( 0.000000000000000000, 0.000000000000000000, -1.000000000000000000 ) ) ;
#739 = AXIS2_PLACEMENT_3D ( 'NONE', #437, #897, #285 ) ;
#740 = CIRCLE ( 'NONE', #292, 0.4999999999999995559 ) ;
#741 = AXIS2_PLACEMENT_3D ( 'NONE', #458, #84, #849 ) ;
#742 = CARTESIAN_POINT ( 'NONE',  ( 0.000000000000000000, 0.000000000000000000, 0.000000000000000000 ) ) ;
#743 = EDGE_CURVE ( 'NONE', #213, #331, #138, .T. ) ;
#744 = EDGE_CURVE ( 'NONE', #915, #331, #524, .T. ) ;
#745 = CARTESIAN_POINT ( 'NONE',  ( 22.39616409712250089, 3.334478334024252977, -4.658355462940707061E-16 ) ) ;
#746 = FACE_OUTER_BOUND ( 'NONE', #413, .T. ) ;
#747 = CARTESIAN_POINT ( 'NONE',  ( -32.49999999999999289, 4.000000000000000000, 2.000000000000000000 ) ) ;
#748 = ORIENTED_EDGE ( 'NONE', *, *, #491, .F. ) ;
#749 = DIRECTION ( 'NONE',  ( 0.000000000000000000, 0.000000000000000000, 1.000000000000000000 ) ) ;
#750 = CARTESIAN_POINT ( 'NONE',  ( 26.19999999999999929, 3.500000000000000000, -4.275643679511808237 ) ) ;
#751 = CARTESIAN_POINT ( 'NONE',  ( 26.19999999999999929, 0.000000000000000000, 4.275643679511808237 ) ) ;
#752 = EDGE_LOOP ( 'NONE', ( #391, #173, #649, #601, #811, #874, #792, #848 ) ) ;
#753 = CARTESIAN_POINT ( 'NONE',  ( 26.19999999999999929, 0.5000000000000000000, 4.275643679511808237 ) ) ;
#754 = EDGE_CURVE ( 'NONE', #337, #644, #818, .T. ) ;
#755 = CARTESIAN_POINT ( 'NONE',  ( 26.19999999999999929, 4.000000000000000000, 0.000000000000000000 ) ) ;
#756 = AXIS2_PLACEMENT_3D ( 'NONE', #487, #615, #791 ) ;
#757 = ADVANCED_FACE ( 'NONE', ( #598 ), #455, .F. ) ;
#758 = COLOUR_RGB ( '',0.7921568627450980005, 0.8196078431372548767, 0.9333333333333333481 ) ;
#759 = LINE ( 'NONE', #659, #723 ) ;
#760 = AXIS2_PLACEMENT_3D ( 'NONE', #755, #224, #522 ) ;
#761 = DIRECTION ( 'NONE',  ( 0.000000000000000000, 0.000000000000000000, 1.000000000000000000 ) ) ;
#762 = CARTESIAN_POINT ( 'NONE',  ( 26.19999999999999929, 3.500000000000000000, 0.000000000000000000 ) ) ;
#763 = EDGE_LOOP ( 'NONE', ( #712, #776, #448, #347 ) ) ;
#764 = LINE ( 'NONE', #62, #954 ) ;
#765 = DIRECTION ( 'NONE',  ( 0.000000000000000000, 0.000000000000000000, -1.000000000000000000 ) ) ;
#766 = ORIENTED_EDGE ( 'NONE', *, *, #678, .T. ) ;
#767 = LINE ( 'NONE', #695, #708 ) ;
#768 = DIRECTION ( 'NONE',  ( -0.000000000000000000, -1.000000000000000000, -0.000000000000000000 ) ) ;
#769 = AXIS2_PLACEMENT_3D ( 'NONE', #412, #156, #715 ) ;
#770 = AXIS2_PLACEMENT_3D ( 'NONE', #533, #666, #761 ) ;
#771 = VERTEX_POINT ( 'NONE', #81 ) ;
#772 = CARTESIAN_POINT ( 'NONE',  ( 26.19999999999999929, 0.5000000000000000000, 0.000000000000000000 ) ) ;
#773 = DIRECTION ( 'NONE',  ( 0.000000000000000000, 1.000000000000000000, 0.000000000000000000 ) ) ;
#774 = CARTESIAN_POINT ( 'NONE',  ( 29.50000000000000711, 0.000000000000000000, -2.000000000000000000 ) ) ;
#775 = PRODUCT_CONTEXT ( 'NONE', #707, 'mechanical' ) ;
#776 = ORIENTED_EDGE ( 'NONE', *, *, #583, .F. ) ;
#777 = FACE_OUTER_BOUND ( 'NONE', #199, .T. ) ;
#778 = DIRECTION ( 'NONE',  ( 0.000000000000000000, 0.000000000000000000, 1.000000000000000000 ) ) ;
#779 = CARTESIAN_POINT ( 'NONE',  ( -26.19999999999999929, 0.4999999999999998890, -3.775643679511807793 ) ) ;
#780 = DIRECTION ( 'NONE',  ( -1.000000000000000000, 0.000000000000000000, 0.000000000000000000 ) ) ;
#781 = CARTESIAN_POINT ( 'NONE',  ( 26.19999999999999929, 2.000000000000000000, 0.000000000000000000 ) ) ;
#782 = AXIS2_PLACEMENT_3D ( 'NONE', #750, #679, #821 ) ;
#783 = VERTEX_POINT ( 'NONE', #595 ) ;
#784 = AXIS2_PLACEMENT_3D ( 'NONE', #22, #773, #714 ) ;
#785 = CIRCLE ( 'NONE', #804, 0.4999999999999995559 ) ;
#786 = ORIENTED_EDGE ( 'NONE', *, *, #127, .F. ) ;
#787 = AXIS2_PLACEMENT_3D ( 'NONE', #613, #333, #95 ) ;
#788 = CARTESIAN_POINT ( 'NONE',  ( 29.50000000000000711, 0.000000000000000000, 2.000000000000000000 ) ) ;
#789 = CIRCLE ( 'NONE', #149, 0.4999999999999995559 ) ;
#790 = DIRECTION ( 'NONE',  ( 0.000000000000000000, 0.000000000000000000, -1.000000000000000000 ) ) ;
#791 = DIRECTION ( 'NONE',  ( 0.000000000000000000, 0.000000000000000000, 1.000000000000000000 ) ) ;
#792 = ORIENTED_EDGE ( 'NONE', *, *, #266, .F. ) ;
#793 = ORIENTED_EDGE ( 'NONE', *, *, #698, .T. ) ;
#794 = DIRECTION ( 'NONE',  ( 0.000000000000000000, 0.000000000000000000, 1.000000000000000000 ) ) ;
#795 = PLANE ( 'NONE',  #228 ) ;
#796 = ORIENTED_EDGE ( 'NONE', *, *, #631, .T. ) ;
#797 = EDGE_CURVE ( 'NONE', #119, #869, #72, .T. ) ;
#798 = ORIENTED_EDGE ( 'NONE', *, *, #734, .T. ) ;
#799 = ADVANCED_FACE ( 'NONE', ( #746 ), #278, .T. ) ;
#800 = DIRECTION ( 'NONE',  ( 0.000000000000000000, 0.000000000000000000, 1.000000000000000000 ) ) ;
#801 = VERTEX_POINT ( 'NONE', #146 ) ;
#802 = ORIENTED_EDGE ( 'NONE', *, *, #112, .F. ) ;
#803 = CIRCLE ( 'NONE', #87, 0.4999999999999995559 ) ;
#804 = AXIS2_PLACEMENT_3D ( 'NONE', #30, #405, #244 ) ;
#805 = TOROIDAL_SURFACE ( 'NONE', #45, 4.275643679511808237, 0.5000000000000000000 ) ;
#806 = EDGE_CURVE ( 'NONE', #783, #213, #354, .T. ) ;
#807 = CARTESIAN_POINT ( 'NONE',  ( -26.19999999999999929, 3.500000000000000000, 0.000000000000000000 ) ) ;
#808 = AXIS2_PLACEMENT_3D ( 'NONE', #753, #141, #749 ) ;
#809 = EDGE_CURVE ( 'NONE', #126, #332, #839, .T. ) ;
#810 = ORIENTED_EDGE ( 'NONE', *, *, #362, .F. ) ;
#811 = ORIENTED_EDGE ( 'NONE', *, *, #875, .F. ) ;
#812 = DIRECTION ( 'NONE',  ( 0.000000000000000000, 0.000000000000000000, 1.000000000000000000 ) ) ;
#813 = DIRECTION ( 'NONE',  ( 0.000000000000000000, 1.000000000000000000, 0.000000000000000000 ) ) ;
#814 = ORIENTED_EDGE ( 'NONE', *, *, #965, .F. ) ;
#815 = DIRECTION ( 'NONE',  ( 0.000000000000000000, 1.000000000000000000, 0.000000000000000000 ) ) ;
#816 = EDGE_CURVE ( 'NONE', #680, #880, #823, .T. ) ;
#817 = EDGE_CURVE ( 'NONE', #398, #634, #939, .T. ) ;
#818 = CIRCLE ( 'NONE', #737, 3.803835902877496178 ) ;
#819 = AXIS2_PLACEMENT_3D ( 'NONE', #913, #607, #313 ) ;
#820 = AXIS2_PLACEMENT_3D ( 'NONE', #742, #885, #218 ) ;
#821 = DIRECTION ( 'NONE',  ( 0.000000000000000000, 0.000000000000000000, -1.000000000000000000 ) ) ;
#822 = CIRCLE ( 'NONE', #433, 3.000000000000000000 ) ;
#823 = CIRCLE ( 'NONE', #407, 4.031128874149275454 ) ;
#824 = DIRECTION ( 'NONE',  ( 0.000000000000000000, 0.000000000000000000, -1.000000000000000000 ) ) ;
#825 = CARTESIAN_POINT ( 'NONE',  ( 32.50000000000000711, 4.000000000000000000, 2.000000000000000000 ) ) ;
#826 = CARTESIAN_POINT ( 'NONE',  ( 26.19999999999999929, 3.334478334024252977, 0.000000000000000000 ) ) ;
#827 = CARTESIAN_POINT ( 'NONE',  ( -29.49999999999999645, 4.000000000000000000, 2.000000000000000000 ) ) ;
#828 = EDGE_CURVE ( 'NONE', #648, #90, #563, .T. ) ;
#829 = EDGE_CURVE ( 'NONE', #648, #424, #205, .T. ) ;
#830 = DIRECTION ( 'NONE',  ( 0.000000000000000000, -1.000000000000000000, 0.000000000000000000 ) ) ;
#831 = DIRECTION ( 'NONE',  ( 0.000000000000000000, 1.000000000000000000, 0.000000000000000000 ) ) ;
#832 = ORIENTED_EDGE ( 'NONE', *, *, #198, .F. ) ;
#833 = LINE ( 'NONE', #220, #618 ) ;
#834 = DIRECTION ( 'NONE',  ( 0.000000000000000000, 0.000000000000000000, 1.000000000000000000 ) ) ;
#835 = AXIS2_PLACEMENT_3D ( 'NONE', #147, #900, #824 ) ;
#836 = PRESENTATION_LAYER_ASSIGNMENT (  '', '', ( #542 ) ) ;
#837 = SPHERICAL_SURFACE ( 'NONE', #370, 4.031128874149274566 ) ;
#838 = EDGE_CURVE ( 'NONE', #424, #409, #301, .T. ) ;
#839 = CIRCLE ( 'NONE', #189, 3.775643679511807793 ) ;
#840 = EDGE_LOOP ( 'NONE', ( #443, #721, #689, #814, #571 ) ) ;
#841 = CARTESIAN_POINT ( 'NONE',  ( 32.50000000000000711, 4.000000000000000000, -5.000000000000000000 ) ) ;
#842 = DIRECTION ( 'NONE',  ( 0.000000000000000000, 1.000000000000000000, 0.000000000000000000 ) ) ;
#843 = PRODUCT ( 'Steering-Arm', 'Steering-Arm', '', ( #775 ) ) ;
#844 = ORIENTED_EDGE ( 'NONE', *, *, #350, .T. ) ;
#845 = APPLICATION_CONTEXT ( 'automotive_design' ) ;
#846 = EDGE_LOOP ( 'NONE', ( #50, #423, #83, #204 ) ) ;
#847 = ORIENTED_EDGE ( 'NONE', *, *, #905, .T. ) ;
#848 = ORIENTED_EDGE ( 'NONE', *, *, #878, .T. ) ;
#849 = DIRECTION ( 'NONE',  ( 0.000000000000000000, 0.000000000000000000, 1.000000000000000000 ) ) ;
#850 = EDGE_CURVE ( 'NONE', #238, #166, #319, .T. ) ;
#851 = DIRECTION ( 'NONE',  ( 0.000000000000000000, 0.000000000000000000, 1.000000000000000000 ) ) ;
#852 = AXIS2_PLACEMENT_3D ( 'NONE', #519, #831, #675 ) ;
#853 = ORIENTED_EDGE ( 'NONE', *, *, #5, .T. ) ;
#854 = CARTESIAN_POINT ( 'NONE',  ( 32.50000000000000711, 0.000000000000000000, -5.000000000000000000 ) ) ;
#855 = DIRECTION ( 'NONE',  ( 0.000000000000000000, 0.000000000000000000, 1.000000000000000000 ) ) ;
#856 = FACE_OUTER_BOUND ( 'NONE', #78, .T. ) ;
#857 = ORIENTED_EDGE ( 'NONE', *, *, #401, .T. ) ;
#858 = CARTESIAN_POINT ( 'NONE',  ( -26.19999999999999929, 3.334478334024252977, -3.803835902877496178 ) ) ;
#859 = DIRECTION ( 'NONE',  ( -1.000000000000000000, 0.000000000000000000, 0.000000000000000000 ) ) ;
#860 = LINE ( 'NONE', #100, #24 ) ;
#861 = PRODUCT_DEFINITION ( 'General', '', #703, #237 ) ;
#862 = EDGE_LOOP ( 'NONE', ( #503, #375, #382, #465, #796, #181, #630, #110 ) ) ;
#863 = ORIENTED_EDGE ( 'NONE', *, *, #361, .T. ) ;
#864 = SPHERICAL_SURFACE ( 'NONE', #482, 4.031128874149274566 ) ;
#865 = DIRECTION ( 'NONE',  ( 0.000000000000000000, 0.000000000000000000, 1.000000000000000000 ) ) ;
#866 = DIRECTION ( 'NONE',  ( 0.000000000000000000, 0.000000000000000000, -1.000000000000000000 ) ) ;
#867 = AXIS2_PLACEMENT_3D ( 'NONE', #169, #328, #322 ) ;
#868 = ORIENTED_EDGE ( 'NONE', *, *, #806, .T. ) ;
#869 = VERTEX_POINT ( 'NONE', #86 ) ;
#870 = AXIS2_PLACEMENT_3D ( 'NONE', #537, #386, #182 ) ;
#871 = DIRECTION ( 'NONE',  ( -1.000000000000000000, 0.000000000000000000, 0.000000000000000000 ) ) ;
#872 = AXIS2_PLACEMENT_3D ( 'NONE', #636, #943, #264 ) ;
#873 = CARTESIAN_POINT ( 'NONE',  ( -29.49999999999999645, 4.000000000000000000, 2.000000000000000000 ) ) ;
#874 = ORIENTED_EDGE ( 'NONE', *, *, #28, .T. ) ;
#875 = EDGE_CURVE ( 'NONE', #731, #460, #467, .T. ) ;
#876 = VERTEX_POINT ( 'NONE', #632 ) ;
#877 = ORIENTED_EDGE ( 'NONE', *, *, #158, .F. ) ;
#878 = EDGE_CURVE ( 'NONE', #869, #166, #325, .T. ) ;
#879 = EDGE_LOOP ( 'NONE', ( #573, #918, #722, #425 ) ) ;
#880 = VERTEX_POINT ( 'NONE', #388 ) ;
#881 = AXIS2_PLACEMENT_3D ( 'NONE', #374, #432, #369 ) ;
#882 = MECHANICAL_DESIGN_GEOMETRIC_PRESENTATION_REPRESENTATION (  '', ( #542 ), #687 ) ;
#883 =( NAMED_UNIT ( * ) PLANE_ANGLE_UNIT ( ) SI_UNIT ( $, .RADIAN. ) );
#884 = AXIS2_PLACEMENT_3D ( 'NONE', #154, #306, #142 ) ;
#885 = DIRECTION ( 'NONE',  ( 0.000000000000000000, 1.000000000000000000, 0.000000000000000000 ) ) ;
#886 = EDGE_LOOP ( 'NONE', ( #157, #484, #13, #629, #766, #44 ) ) ;
#887 = DIRECTION ( 'NONE',  ( 0.000000000000000000, 0.000000000000000000, 1.000000000000000000 ) ) ;
#888 = FACE_BOUND ( 'NONE', #162, .T. ) ;
#889 = EDGE_CURVE ( 'NONE', #474, #119, #527, .T. ) ;
#890 = CARTESIAN_POINT ( 'NONE',  ( -32.49999999999999289, 0.000000000000000000, -5.000000000000000000 ) ) ;
#891 = DIRECTION ( 'NONE',  ( 0.000000000000000000, 1.000000000000000000, 0.000000000000000000 ) ) ;
#892 = DIRECTION ( 'NONE',  ( 0.000000000000000000, 0.000000000000000000, 1.000000000000000000 ) ) ;
#893 = AXIS2_PLACEMENT_3D ( 'NONE', #446, #363, #356 ) ;
#894 = DIRECTION ( 'NONE',  ( 0.000000000000000000, 0.000000000000000000, -1.000000000000000000 ) ) ;
#895 = AXIS2_PLACEMENT_3D ( 'NONE', #393, #541, #546 ) ;
#896 = ADVANCED_FACE ( 'NONE', ( #691 ), #400, .F. ) ;
#897 = DIRECTION ( 'NONE',  ( 0.000000000000000000, 0.000000000000000000, 1.000000000000000000 ) ) ;
#898 = DIRECTION ( 'NONE',  ( -0.000000000000000000, 1.000000000000000000, -0.000000000000000000 ) ) ;
#899 = DIRECTION ( 'NONE',  ( 0.000000000000000000, 0.000000000000000000, -1.000000000000000000 ) ) ;
#900 = DIRECTION ( 'NONE',  ( 1.000000000000000000, -0.000000000000000000, 1.224646799147353207E-16 ) ) ;
#901 = CARTESIAN_POINT ( 'NONE',  ( 29.50000000000000711, 4.000000000000000000, 2.000000000000000000 ) ) ;
#902 = DIRECTION ( 'NONE',  ( 0.000000000000000000, 1.000000000000000000, 0.000000000000000000 ) ) ;
#903 = EDGE_CURVE ( 'NONE', #90, #680, #621, .T. ) ;
#904 = CARTESIAN_POINT ( 'NONE',  ( 29.50000000000000711, 0.000000000000000000, -5.000000000000000000 ) ) ;
#905 = EDGE_CURVE ( 'NONE', #3, #121, #655, .T. ) ;
#906 = AXIS2_PLACEMENT_3D ( 'NONE', #781, #334, #472 ) ;
#907 = DIRECTION ( 'NONE',  ( 0.000000000000000000, 0.000000000000000000, 1.000000000000000000 ) ) ;
#908 = VECTOR ( 'NONE', #534, 1000.000000000000000 ) ;
#909 = CIRCLE ( 'NONE', #291, 3.803835902877496178 ) ;
#910 = CIRCLE ( 'NONE', #726, 4.031128874149275454 ) ;
#911 = CIRCLE ( 'NONE', #944, 4.275643679511808237 ) ;
#912 = DIRECTION ( 'NONE',  ( 0.000000000000000000, 0.000000000000000000, 1.000000000000000000 ) ) ;
#913 = CARTESIAN_POINT ( 'NONE',  ( 0.000000000000000000, 0.000000000000000000, 0.000000000000000000 ) ) ;
#914 = EDGE_CURVE ( 'NONE', #331, #116, #789, .T. ) ;
#915 = VERTEX_POINT ( 'NONE', #411 ) ;
#916 = CARTESIAN_POINT ( 'NONE',  ( -26.19999999999999929, 0.5000000000000000000, -4.275643679511808237 ) ) ;
#917 = DIRECTION ( 'NONE',  ( 1.000000000000000000, -0.000000000000000000, 1.224646799147353207E-16 ) ) ;
#918 = ORIENTED_EDGE ( 'NONE', *, *, #469, .T. ) ;
#919 = DIRECTION ( 'NONE',  ( 0.000000000000000000, 0.000000000000000000, -1.000000000000000000 ) ) ;
#920 = CARTESIAN_POINT ( 'NONE',  ( 26.19999999999999929, 3.500000000000000000, 4.275643679511808237 ) ) ;
#921 = FACE_BOUND ( 'NONE', #188, .T. ) ;
#922 = APPLICATION_PROTOCOL_DEFINITION ( 'draft international standard', 'automotive_design', 1998, #707 ) ;
#923 = CIRCLE ( 'NONE', #355, 0.4999999999999995559 ) ;
#924 = TOROIDAL_SURFACE ( 'NONE', #496, 4.275643679511808237, 0.5000000000000000000 ) ;
#925 = VERTEX_POINT ( 'NONE', #463 ) ;
#926 = AXIS2_PLACEMENT_3D ( 'NONE', #399, #174, #619 ) ;
#927 = FACE_OUTER_BOUND ( 'NONE', #840, .T. ) ;
#928 = CARTESIAN_POINT ( 'NONE',  ( 26.19999999999999929, 0.4999999999999998890, 0.000000000000000000 ) ) ;
#929 = CYLINDRICAL_SURFACE ( 'NONE', #540, 3.000000000000000000 ) ;
#930 =( NAMED_UNIT ( * ) SI_UNIT ( $, .STERADIAN. ) SOLID_ANGLE_UNIT ( ) );
#931 = DIRECTION ( 'NONE',  ( 1.000000000000000000, -0.000000000000000000, 1.224646799147353207E-16 ) ) ;
#932 = DIRECTION ( 'NONE',  ( 0.000000000000000000, 0.000000000000000000, -1.000000000000000000 ) ) ;
#933 = DIRECTION ( 'NONE',  ( 0.000000000000000000, 0.000000000000000000, 1.000000000000000000 ) ) ;
#934 = EDGE_LOOP ( 'NONE', ( #499, #535, #366, #832, #951 ) ) ;
#935 = ORIENTED_EDGE ( 'NONE', *, *, #2, .F. ) ;
#936 = DIRECTION ( 'NONE',  ( -1.000000000000000000, 0.000000000000000000, -0.000000000000000000 ) ) ;
#937 = CARTESIAN_POINT ( 'NONE',  ( 26.19999999999999929, 3.500000000000000000, -4.275643679511808237 ) ) ;
#938 = CYLINDRICAL_SURFACE ( 'NONE', #953, 3.000000000000000000 ) ;
#939 = CIRCLE ( 'NONE', #307, 0.4999999999999995559 ) ;
#940 = CARTESIAN_POINT ( 'NONE',  ( 26.19999999999999929, 4.000000000000000000, 0.000000000000000000 ) ) ;
#941 = ORIENTED_EDGE ( 'NONE', *, *, #838, .F. ) ;
#942 = CIRCLE ( 'NONE', #640, 3.000000000000000000 ) ;
#943 = DIRECTION ( 'NONE',  ( 0.000000000000000000, 1.000000000000000000, 0.000000000000000000 ) ) ;
#944 = AXIS2_PLACEMENT_3D ( 'NONE', #673, #296, #834 ) ;
#945 = CARTESIAN_POINT ( 'NONE',  ( 26.19999999999999929, 0.4999999999999998890, -3.775643679511807793 ) ) ;
#946 = ORIENTED_EDGE ( 'NONE', *, *, #518, .T. ) ;
#947 = ORIENTED_EDGE ( 'NONE', *, *, #692, .T. ) ;
#948 = ORIENTED_EDGE ( 'NONE', *, *, #286, .F. ) ;
#949 = ORIENTED_EDGE ( 'NONE', *, *, #828, .T. ) ;
#950 = CARTESIAN_POINT ( 'NONE',  ( -22.39616409712250089, 0.6655216659757470232, 4.658355462940707061E-16 ) ) ;
#951 = ORIENTED_EDGE ( 'NONE', *, *, #674, .F. ) ;
#952 = EDGE_LOOP ( 'NONE', ( #470, #426, #565, #941, #948 ) ) ;
#953 = AXIS2_PLACEMENT_3D ( 'NONE', #873, #193, #548 ) ;
#954 = VECTOR ( 'NONE', #677, 1000.000000000000000 ) ;
#955 = SURFACE_STYLE_USAGE ( .BOTH. , #132 ) ;
#956 = AXIS2_PLACEMENT_3D ( 'NONE', #249, #768, #696 ) ;
#957 = EDGE_CURVE ( 'NONE', #915, #409, #803, .T. ) ;
#958 = EDGE_CURVE ( 'NONE', #476, #457, #614, .T. ) ;
#959 = CARTESIAN_POINT ( 'NONE',  ( 26.19999999999999929, 3.500000000000000000, -3.775643679511807793 ) ) ;
#960 = CARTESIAN_POINT ( 'NONE',  ( -26.19999999999999929, 0.6655216659757470232, -3.803835902877496178 ) ) ;
#961 = DIRECTION ( 'NONE',  ( 0.000000000000000000, 0.000000000000000000, 1.000000000000000000 ) ) ;
#962 = DIRECTION ( 'NONE',  ( 1.000000000000000000, 0.000000000000000000, 1.224646799147353207E-16 ) ) ;
#963 = CARTESIAN_POINT ( 'NONE',  ( 26.19999999999999929, 3.334478334024252977, -3.803835902877496178 ) ) ;
#964 = ORIENTED_EDGE ( 'NONE', *, *, #958, .F. ) ;
#965 = EDGE_CURVE ( 'NONE', #801, #531, #227, .T. ) ;
#966 = DIRECTION ( 'NONE',  ( 0.000000000000000000, 1.000000000000000000, 0.000000000000000000 ) ) ;
#967 = CIRCLE ( 'NONE', #575, 3.803835902877496178 ) ;
#968 = DIRECTION ( 'NONE',  ( 0.000000000000000000, 0.000000000000000000, 1.000000000000000000 ) ) ;
#969 = AXIS2_PLACEMENT_3D ( 'NONE', #234, #66, #961 ) ;
#970 = DIRECTION ( 'NONE',  ( 0.000000000000000000, 1.000000000000000000, 0.000000000000000000 ) ) ;
#971 = DIRECTION ( 'NONE',  ( -0.000000000000000000, 1.000000000000000000, -0.000000000000000000 ) ) ;
#972 = LINE ( 'NONE', #701, #525 ) ;
#973 = DIRECTION ( 'NONE',  ( 0.000000000000000000, 0.000000000000000000, 1.000000000000000000 ) ) ;
#974 = DIRECTION ( 'NONE',  ( 0.000000000000000000, 1.000000000000000000, 0.000000000000000000 ) ) ;
#975 = SHAPE_DEFINITION_REPRESENTATION ( #683, #109 ) ;
ENDSEC;
END-ISO-10303-21;
