ISO-10303-21;
HEADER;
FILE_DESCRIPTION (( 'STEP AP214' ),
    '1' );
FILE_NAME ('Steering Arm.STEP',
    '2026-05-27T00:26:14',
    ( '' ),
    ( '' ),
    'SwSTEP 2.0',
    'SolidWorks 2026',
    '' );
FILE_SCHEMA (( 'AUTOMOTIVE_DESIGN' ));
ENDSEC;

DATA;
#1 = VERTEX_POINT ( 'NONE', #998 ) ;
#2 = FACE_OUTER_BOUND ( 'NONE', #910, .T. ) ;
#3 = DIRECTION ( 'NONE',  ( 0.000000000000000000, 0.000000000000000000, 1.000000000000000000 ) ) ;
#4 = CARTESIAN_POINT ( 'NONE',  ( -28.47963894624709980, 5.255370700675806361, 4.923522295895171117E-16 ) ) ;
#5 = VERTEX_POINT ( 'NONE', #233 ) ;
#6 = CIRCLE ( 'NONE', #54, 4.609772228646447090 ) ;
#7 = AXIS2_PLACEMENT_3D ( 'NONE', #878, #23, #202 ) ;
#8 = CARTESIAN_POINT ( 'NONE',  ( 32.50000000000000000, 6.000000000000000000, 0.000000000000000000 ) ) ;
#9 = AXIS2_PLACEMENT_3D ( 'NONE', #483, #603, #299 ) ;
#10 = UNCERTAINTY_MEASURE_WITH_UNIT (LENGTH_MEASURE( 1.000000000000000082E-05 ), #322, 'distance_accuracy_value', 'NONE');
#11 = CARTESIAN_POINT ( 'NONE',  ( -32.50000000000000000, 0.4999999999999998890, -3.956430435746357777 ) ) ;
#12 = ORIENTED_EDGE ( 'NONE', *, *, #246, .T. ) ;
#13 =( LENGTH_UNIT ( ) NAMED_UNIT ( * ) SI_UNIT ( .MILLI., .METRE. ) );
#14 = VERTEX_POINT ( 'NONE', #1090 ) ;
#15 = EDGE_CURVE ( 'NONE', #784, #227, #55, .T. ) ;
#16 = ADVANCED_FACE ( 'NONE', ( #916 ), #1103, .F. ) ;
#17 = DIRECTION ( 'NONE',  ( 0.000000000000000000, 1.224646799147353207E-16, -1.000000000000000000 ) ) ;
#18 = CARTESIAN_POINT ( 'NONE',  ( 0.000000000000000000, -3.000000000000000000, -6.123233995736766282E-16 ) ) ;
#19 = EDGE_LOOP ( 'NONE', ( #520, #330, #59, #680 ) ) ;
#20 = AXIS2_PLACEMENT_3D ( 'NONE', #95, #183, #660 ) ;
#21 = ORIENTED_EDGE ( 'NONE', *, *, #939, .T. ) ;
#22 =( GEOMETRIC_REPRESENTATION_CONTEXT ( 3 ) GLOBAL_UNCERTAINTY_ASSIGNED_CONTEXT ( ( #678 ) ) GLOBAL_UNIT_ASSIGNED_CONTEXT ( ( #13, #926, #799 ) ) REPRESENTATION_CONTEXT ( 'NONE', 'WORKASPACE' ) );
#23 = DIRECTION ( 'NONE',  ( 0.000000000000000000, 0.000000000000000000, -1.000000000000000000 ) ) ;
#24 = FACE_OUTER_BOUND ( 'NONE', #220, .T. ) ;
#25 = CARTESIAN_POINT ( 'NONE',  ( -40.00000000000000000, 6.000000000000000000, 4.500000000000000888 ) ) ;
#26 = EDGE_LOOP ( 'NONE', ( #870, #1106, #395, #293, #284 ) ) ;
#27 = PRESENTATION_STYLE_ASSIGNMENT (( #695 ) ) ;
#28 = ORIENTED_EDGE ( 'NONE', *, *, #922, .F. ) ;
#29 = AXIS2_PLACEMENT_3D ( 'NONE', #1002, #728, #250 ) ;
#30 = DIRECTION ( 'NONE',  ( 0.000000000000000000, 0.000000000000000000, 1.000000000000000000 ) ) ;
#31 = AXIS2_PLACEMENT_3D ( 'NONE', #584, #295, #30 ) ;
#32 = LINE ( 'NONE', #318, #762 ) ;
#33 = AXIS2_PLACEMENT_3D ( 'NONE', #272, #659, #1030 ) ;
#34 = EDGE_CURVE ( 'NONE', #390, #931, #828, .T. ) ;
#35 = DIRECTION ( 'NONE',  ( 0.000000000000000000, 0.000000000000000000, 1.000000000000000000 ) ) ;
#36 = ORIENTED_EDGE ( 'NONE', *, *, #632, .F. ) ;
#37 = DIRECTION ( 'NONE',  ( 0.000000000000000000, 1.000000000000000000, 0.000000000000000000 ) ) ;
#38 = EDGE_LOOP ( 'NONE', ( #463, #606, #897, #348 ) ) ;
#39 = CARTESIAN_POINT ( 'NONE',  ( 32.50000000000000000, 0.4999999999999998890, 0.000000000000000000 ) ) ;
#40 = DIRECTION ( 'NONE',  ( 0.000000000000000000, 1.000000000000000000, 0.000000000000000000 ) ) ;
#41 = EDGE_CURVE ( 'NONE', #218, #836, #485, .T. ) ;
#42 = APPLICATION_CONTEXT ( 'automotive_design' ) ;
#43 = PRODUCT ( 'Steering-Arm', 'Steering-Arm', '', ( #743 ) ) ;
#44 = ORIENTED_EDGE ( 'NONE', *, *, #493, .T. ) ;
#45 = AXIS2_PLACEMENT_3D ( 'NONE', #788, #806, #1087 ) ;
#46 = DIRECTION ( 'NONE',  ( -0.000000000000000000, -1.000000000000000000, -0.000000000000000000 ) ) ;
#47 = AXIS2_PLACEMENT_3D ( 'NONE', #53, #345, #429 ) ;
#48 = CARTESIAN_POINT ( 'NONE',  ( 32.50000000000000000, 3.000000000000000000, 0.000000000000000000 ) ) ;
#49 = DIRECTION ( 'NONE',  ( 0.000000000000000000, -1.000000000000000000, 0.000000000000000000 ) ) ;
#50 = ORIENTED_EDGE ( 'NONE', *, *, #939, .F. ) ;
#51 = EDGE_LOOP ( 'NONE', ( #469, #136 ) ) ;
#52 = DIRECTION ( 'NONE',  ( 1.000000000000000000, 0.000000000000000000, 0.000000000000000000 ) ) ;
#53 = CARTESIAN_POINT ( 'NONE',  ( 32.50000000000000000, 5.500000000000000000, 0.000000000000000000 ) ) ;
#54 = AXIS2_PLACEMENT_3D ( 'NONE', #636, #983, #440 ) ;
#55 = CIRCLE ( 'NONE', #811, 4.386342439892262135 ) ;
#56 = CARTESIAN_POINT ( 'NONE',  ( -32.50000000000000000, 0.000000000000000000, 4.456430435746357333 ) ) ;
#57 = TOROIDAL_SURFACE ( 'NONE', #759, 4.456430435746357333, 0.5000000000000000000 ) ;
#58 = ORIENTED_EDGE ( 'NONE', *, *, #196, .F. ) ;
#59 = ORIENTED_EDGE ( 'NONE', *, *, #702, .T. ) ;
#60 = ADVANCED_FACE ( 'NONE', ( #71 ), #566, .T. ) ;
#61 = EDGE_CURVE ( 'NONE', #1121, #180, #152, .T. ) ;
#62 = FACE_OUTER_BOUND ( 'NONE', #492, .T. ) ;
#63 = CARTESIAN_POINT ( 'NONE',  ( -32.50000000000000000, 0.7446292993241931946, 0.000000000000000000 ) ) ;
#64 = FACE_OUTER_BOUND ( 'NONE', #650, .T. ) ;
#65 = DIRECTION ( 'NONE',  ( 1.000000000000000000, 0.000000000000000000, 0.000000000000000000 ) ) ;
#66 = DIRECTION ( 'NONE',  ( 0.000000000000000000, 1.000000000000000000, 0.000000000000000000 ) ) ;
#67 = CARTESIAN_POINT ( 'NONE',  ( -32.50000000000000000, 5.255370700675806361, -4.020361053752901093 ) ) ;
#68 = AXIS2_PLACEMENT_3D ( 'NONE', #977, #502, #885 ) ;
#69 = CIRCLE ( 'NONE', #1214, 0.4999999999999995559 ) ;
#70 = CARTESIAN_POINT ( 'NONE',  ( 32.50000000000000000, 0.5000000000000000000, -4.456430435746357333 ) ) ;
#71 = FACE_OUTER_BOUND ( 'NONE', #1166, .T. ) ;
#72 = CARTESIAN_POINT ( 'NONE',  ( -28.47963894624709980, 0.7446292993241931946, 4.923522295895171117E-16 ) ) ;
#73 = ADVANCED_FACE ( 'NONE', ( #341 ), #756, .T. ) ;
#74 = CIRCLE ( 'NONE', #770, 3.956430435746357777 ) ;
#75 = ADVANCED_FACE ( 'NONE', ( #64 ), #1205, .T. ) ;
#76 = CIRCLE ( 'NONE', #1045, 0.4999999999999995559 ) ;
#77 = CARTESIAN_POINT ( 'NONE',  ( -32.50000000000000000, 0.5000000000000000000, 4.456430435746357333 ) ) ;
#78 = CARTESIAN_POINT ( 'NONE',  ( 0.000000000000000000, 0.000000000000000000, 0.000000000000000000 ) ) ;
#79 = ORIENTED_EDGE ( 'NONE', *, *, #381, .T. ) ;
#80 = EDGE_CURVE ( 'NONE', #931, #1143, #89, .T. ) ;
#81 = DIRECTION ( 'NONE',  ( 0.000000000000000000, 0.000000000000000000, 1.000000000000000000 ) ) ;
#82 = AXIS2_PLACEMENT_3D ( 'NONE', #796, #677, #211 ) ;
#83 = DIRECTION ( 'NONE',  ( -1.000000000000000000, 0.000000000000000000, 0.000000000000000000 ) ) ;
#84 = ORIENTED_EDGE ( 'NONE', *, *, #1077, .T. ) ;
#85 = EDGE_CURVE ( 'NONE', #122, #227, #370, .T. ) ;
#86 = FACE_OUTER_BOUND ( 'NONE', #1082, .T. ) ;
#87 = DIRECTION ( 'NONE',  ( -0.000000000000000000, -1.000000000000000000, -0.000000000000000000 ) ) ;
#88 = AXIS2_PLACEMENT_3D ( 'NONE', #63, #541, #815 ) ;
#89 = CIRCLE ( 'NONE', #428, 3.000000000000000000 ) ;
#90 = CIRCLE ( 'NONE', #757, 4.020361053752901093 ) ;
#91 = ORIENTED_EDGE ( 'NONE', *, *, #474, .T. ) ;
#92 = EDGE_CURVE ( 'NONE', #443, #122, #551, .T. ) ;
#93 = DIRECTION ( 'NONE',  ( 0.000000000000000000, 0.000000000000000000, -1.000000000000000000 ) ) ;
#94 = EDGE_CURVE ( 'NONE', #504, #1059, #1042, .T. ) ;
#95 = CARTESIAN_POINT ( 'NONE',  ( 0.000000000000000000, -3.000000000000000000, -5.852961775831895861E-16 ) ) ;
#96 = VERTEX_POINT ( 'NONE', #534 ) ;
#97 = DIRECTION ( 'NONE',  ( -0.000000000000000000, -1.000000000000000000, -0.000000000000000000 ) ) ;
#98 = DIRECTION ( 'NONE',  ( -0.000000000000000000, 1.000000000000000000, 1.224646799147353454E-16 ) ) ;
#99 = UNCERTAINTY_MEASURE_WITH_UNIT (LENGTH_MEASURE( 1.000000000000000082E-05 ), #505, 'distance_accuracy_value', 'NONE');
#100 = CARTESIAN_POINT ( 'NONE',  ( -37.00000000000000000, 0.000000000000000000, 4.500000000000000000 ) ) ;
#101 = AXIS2_PLACEMENT_3D ( 'NONE', #930, #565, #176 ) ;
#102 = VERTEX_POINT ( 'NONE', #252 ) ;
#103 = ORIENTED_EDGE ( 'NONE', *, *, #588, .F. ) ;
#104 = CARTESIAN_POINT ( 'NONE',  ( 32.50000000000000000, 0.000000000000000000, 0.000000000000000000 ) ) ;
#105 = CARTESIAN_POINT ( 'NONE',  ( 32.50000000000000000, 5.255370700675806361, 0.000000000000000000 ) ) ;
#106 = DIRECTION ( 'NONE',  ( 0.000000000000000000, 0.000000000000000000, -1.000000000000000000 ) ) ;
#107 = ADVANCED_FACE ( 'NONE', ( #182, #1112, #376 ), #637, .T. ) ;
#108 = ORIENTED_EDGE ( 'NONE', *, *, #15, .F. ) ;
#109 =( NAMED_UNIT ( * ) SI_UNIT ( $, .STERADIAN. ) SOLID_ANGLE_UNIT ( ) );
#110 = ADVANCED_FACE ( 'NONE', ( #925 ), #1036, .F. ) ;
#111 = CIRCLE ( 'NONE', #808, 4.020361053752901093 ) ;
#112 = ORIENTED_EDGE ( 'NONE', *, *, #355, .F. ) ;
#113 = CARTESIAN_POINT ( 'NONE',  ( 32.50000000000000000, 5.500000000000000000, 4.456430435746357333 ) ) ;
#114 = CIRCLE ( 'NONE', #833, 0.4999999999999995559 ) ;
#115 = CARTESIAN_POINT ( 'NONE',  ( 0.000000000000000000, -3.000000000000000000, 1.749999999999999334 ) ) ;
#116 = DIRECTION ( 'NONE',  ( 0.000000000000000000, 0.000000000000000000, 1.000000000000000000 ) ) ;
#117 = ORIENTED_EDGE ( 'NONE', *, *, #974, .T. ) ;
#118 = DIRECTION ( 'NONE',  ( 0.000000000000000000, 1.000000000000000000, 0.000000000000000000 ) ) ;
#119 = DIRECTION ( 'NONE',  ( 0.000000000000000000, 0.000000000000000000, 1.000000000000000000 ) ) ;
#120 = CARTESIAN_POINT ( 'NONE',  ( 37.00000000000000000, 0.000000000000000000, 7.500000000000000000 ) ) ;
#121 = CARTESIAN_POINT ( 'NONE',  ( 0.000000000000000000, -3.000000000000000444, 3.199999999999999734 ) ) ;
#122 = VERTEX_POINT ( 'NONE', #260 ) ;
#123 = AXIS2_PLACEMENT_3D ( 'NONE', #540, #894, #620 ) ;
#124 = ORIENTED_EDGE ( 'NONE', *, *, #982, .F. ) ;
#125 = CIRCLE ( 'NONE', #1019, 4.456430435746357333 ) ;
#126 = ADVANCED_FACE ( 'NONE', ( #643, #86 ), #459, .T. ) ;
#127 = CARTESIAN_POINT ( 'NONE',  ( 32.50000000000000000, 0.5000000000000000000, 4.456430435746357333 ) ) ;
#128 = CARTESIAN_POINT ( 'NONE',  ( -32.50000000000000000, 5.500000000000000000, 0.000000000000000000 ) ) ;
#129 = DIRECTION ( 'NONE',  ( 0.000000000000000000, 0.000000000000000000, -1.000000000000000000 ) ) ;
#130 = ORIENTED_EDGE ( 'NONE', *, *, #85, .T. ) ;
#131 = AXIS2_PLACEMENT_3D ( 'NONE', #1044, #564, #730 ) ;
#132 = FACE_OUTER_BOUND ( 'NONE', #336, .T. ) ;
#133 = AXIS2_PLACEMENT_3D ( 'NONE', #869, #1146, #35 ) ;
#134 = EDGE_CURVE ( 'NONE', #14, #871, #633, .T. ) ;
#135 = DIRECTION ( 'NONE',  ( 1.000000000000000000, -0.000000000000000000, 1.224646799147353207E-16 ) ) ;
#136 = ORIENTED_EDGE ( 'NONE', *, *, #214, .T. ) ;
#137 = ORIENTED_EDGE ( 'NONE', *, *, #196, .T. ) ;
#138 = PRESENTATION_STYLE_ASSIGNMENT (( #156 ) ) ;
#139 = DIRECTION ( 'NONE',  ( -1.000000000000000000, 0.000000000000000000, 0.000000000000000000 ) ) ;
#140 = LINE ( 'NONE', #901, #962 ) ;
#141 = ORIENTED_EDGE ( 'NONE', *, *, #539, .F. ) ;
#142 = ORIENTED_EDGE ( 'NONE', *, *, #648, .F. ) ;
#143 = CARTESIAN_POINT ( 'NONE',  ( 32.50000000000000000, 3.000000000000000000, 0.000000000000000000 ) ) ;
#144 = CARTESIAN_POINT ( 'NONE',  ( 40.00000000000000000, 6.000000000000000000, -7.500000000000000000 ) ) ;
#145 = DIRECTION ( 'NONE',  ( 0.000000000000000000, 1.000000000000000000, 0.000000000000000000 ) ) ;
#146 = ORIENTED_EDGE ( 'NONE', *, *, #92, .T. ) ;
#147 = EDGE_CURVE ( 'NONE', #1038, #504, #309, .T. ) ;
#148 = EDGE_LOOP ( 'NONE', ( #718, #1113, #436, #261 ) ) ;
#149 = EDGE_CURVE ( 'NONE', #14, #96, #1005, .T. ) ;
#150 = CARTESIAN_POINT ( 'NONE',  ( -32.50000000000000000, 6.000000000000000000, 0.000000000000000000 ) ) ;
#151 = CIRCLE ( 'NONE', #460, 0.4999999999999995559 ) ;
#152 = CIRCLE ( 'NONE', #1161, 0.4999999999999995559 ) ;
#153 = CARTESIAN_POINT ( 'NONE',  ( -40.00000000000000000, 0.000000000000000000, 4.500000000000000888 ) ) ;
#154 = CARTESIAN_POINT ( 'NONE',  ( -32.50000000000000000, 5.255370700675806361, 0.000000000000000000 ) ) ;
#155 =( NAMED_UNIT ( * ) PLANE_ANGLE_UNIT ( ) SI_UNIT ( $, .RADIAN. ) );
#156 = SURFACE_STYLE_USAGE ( .BOTH. , #725 ) ;
#157 = DIRECTION ( 'NONE',  ( -1.000000000000000000, 0.000000000000000000, 0.000000000000000000 ) ) ;
#158 = CARTESIAN_POINT ( 'NONE',  ( 0.000000000000000000, 0.000000000000000000, -2.449293598294706414E-16 ) ) ;
#159 = CARTESIAN_POINT ( 'NONE',  ( -40.00000000000000000, 6.000000000000000000, -7.500000000000000000 ) ) ;
#160 = ORIENTED_EDGE ( 'NONE', *, *, #702, .F. ) ;
#161 = EDGE_LOOP ( 'NONE', ( #701, #611, #112, #506, #1226 ) ) ;
#162 = PLANE ( 'NONE',  #793 ) ;
#163 = AXIS2_PLACEMENT_3D ( 'NONE', #264, #649, #761 ) ;
#164 = EDGE_CURVE ( 'NONE', #1131, #559, #407, .T. ) ;
#165 = TOROIDAL_SURFACE ( 'NONE', #955, 4.456430435746357333, 0.5000000000000000000 ) ;
#166 = ADVANCED_FACE ( 'NONE', ( #1067 ), #868, .T. ) ;
#167 = CARTESIAN_POINT ( 'NONE',  ( -36.52036105375290731, 5.255370700675806361, 0.000000000000000000 ) ) ;
#168 = CARTESIAN_POINT ( 'NONE',  ( 0.000000000000000000, 6.000000000000000000, 0.000000000000000000 ) ) ;
#169 = CONTEXT_DEPENDENT_SHAPE_REPRESENTATION ( #832, #621 ) ;
#170 = VERTEX_POINT ( 'NONE', #681 ) ;
#171 = SPHERICAL_SURFACE ( 'NONE', #1149, 4.609772228646446202 ) ;
#172 = PRODUCT_CONTEXT ( 'NONE', #1031, 'mechanical' ) ;
#173 = CIRCLE ( 'NONE', #567, 1.750000000000000000 ) ;
#174 = ORIENTED_EDGE ( 'NONE', *, *, #474, .F. ) ;
#175 = AXIS2_PLACEMENT_3D ( 'NONE', #1196, #994, #421 ) ;
#176 = DIRECTION ( 'NONE',  ( 0.000000000000000000, 0.000000000000000000, 1.000000000000000000 ) ) ;
#177 = ORIENTED_EDGE ( 'NONE', *, *, #827, .T. ) ;
#178 = CARTESIAN_POINT ( 'NONE',  ( -40.00000000000000000, 6.000000000000000000, -7.500000000000000000 ) ) ;
#179 = MECHANICAL_DESIGN_GEOMETRIC_PRESENTATION_REPRESENTATION (  '', ( #664 ), #732 ) ;
#180 = VERTEX_POINT ( 'NONE', #795 ) ;
#181 = EDGE_CURVE ( 'NONE', #1, #971, #654, .T. ) ;
#182 = FACE_BOUND ( 'NONE', #753, .T. ) ;
#183 = DIRECTION ( 'NONE',  ( 0.000000000000000000, -1.000000000000000000, -1.224646799147353207E-16 ) ) ;
#184 = AXIS2_PLACEMENT_3D ( 'NONE', #244, #1011, #1175 ) ;
#185 = ORIENTED_EDGE ( 'NONE', *, *, #61, .F. ) ;
#186 = AXIS2_PLACEMENT_3D ( 'NONE', #777, #1144, #229 ) ;
#187 = ORIENTED_EDGE ( 'NONE', *, *, #316, .F. ) ;
#188 = PRODUCT_DEFINITION ( 'UNKNOWN', '', #324, #920 ) ;
#189 = DIRECTION ( 'NONE',  ( 0.000000000000000000, 0.000000000000000000, 1.000000000000000000 ) ) ;
#190 = CARTESIAN_POINT ( 'NONE',  ( 0.000000000000000000, 3.000000000000000000, 1.494919019052223629E-16 ) ) ;
#191 = DIRECTION ( 'NONE',  ( 0.000000000000000000, 1.000000000000000000, 0.000000000000000000 ) ) ;
#192 = DIRECTION ( 'NONE',  ( 1.000000000000000000, 0.000000000000000000, 0.000000000000000000 ) ) ;
#193 = ORIENTED_EDGE ( 'NONE', *, *, #80, .T. ) ;
#194 = ADVANCED_FACE ( 'NONE', ( #576 ), #1168, .T. ) ;
#195 = DIRECTION ( 'NONE',  ( 0.000000000000000000, 1.000000000000000000, 1.224646799147353454E-16 ) ) ;
#196 = EDGE_CURVE ( 'NONE', #526, #1117, #507, .T. ) ;
#197 = AXIS2_PLACEMENT_3D ( 'NONE', #77, #449, #547 ) ;
#198 = DIRECTION ( 'NONE',  ( 0.000000000000000000, -1.000000000000000000, 0.000000000000000000 ) ) ;
#199 = AXIS2_PLACEMENT_3D ( 'NONE', #234, #638, #65 ) ;
#200 = ORIENTED_EDGE ( 'NONE', *, *, #466, .F. ) ;
#201 = ORIENTED_EDGE ( 'NONE', *, *, #691, .F. ) ;
#202 = DIRECTION ( 'NONE',  ( -1.000000000000000000, 0.000000000000000000, -0.000000000000000000 ) ) ;
#203 = CARTESIAN_POINT ( 'NONE',  ( -40.00000000000000000, 0.000000000000000000, 7.500000000000000000 ) ) ;
#204 = EDGE_CURVE ( 'NONE', #413, #556, #594, .T. ) ;
#205 = CARTESIAN_POINT ( 'NONE',  ( 2.143131898507868544E-16, -3.000000000000000000, -1.750000000000000666 ) ) ;
#206 = ORIENTED_EDGE ( 'NONE', *, *, #1079, .F. ) ;
#207 = AXIS2_PLACEMENT_3D ( 'NONE', #517, #1089, #237 ) ;
#208 = AXIS2_PLACEMENT_3D ( 'NONE', #742, #670, #372 ) ;
#209 = COLOUR_RGB ( '',0.7921568627450980005, 0.8196078431372548767, 0.9333333333333333481 ) ;
#210 = CARTESIAN_POINT ( 'NONE',  ( 40.00000000000000000, 6.000000000000000000, -4.500000000000000000 ) ) ;
#211 = DIRECTION ( 'NONE',  ( 0.000000000000000000, -0.000000000000000000, 1.000000000000000000 ) ) ;
#212 = CARTESIAN_POINT ( 'NONE',  ( 0.000000000000000000, 3.000000000000000000, 1.224646799147353700E-16 ) ) ;
#213 = ORIENTED_EDGE ( 'NONE', *, *, #305, .F. ) ;
#214 = EDGE_CURVE ( 'NONE', #1176, #419, #719, .T. ) ;
#215 = CARTESIAN_POINT ( 'NONE',  ( -40.00000000000000000, 0.000000000000000000, -4.500000000000000000 ) ) ;
#216 = CARTESIAN_POINT ( 'NONE',  ( -32.50000000000000000, 5.500000000000000000, 0.000000000000000000 ) ) ;
#217 = DIRECTION ( 'NONE',  ( 0.000000000000000000, 0.000000000000000000, -1.000000000000000000 ) ) ;
#218 = VERTEX_POINT ( 'NONE', #705 ) ;
#219 = AXIS2_PLACEMENT_3D ( 'NONE', #144, #157, #913 ) ;
#220 = EDGE_LOOP ( 'NONE', ( #1186, #763, #213, #1035, #326 ) ) ;
#221 = EDGE_CURVE ( 'NONE', #836, #406, #74, .T. ) ;
#222 = PRODUCT_DEFINITION_FORMATION_WITH_SPECIFIED_SOURCE ( 'ANY', '', #43, .NOT_KNOWN. ) ;
#223 = CARTESIAN_POINT ( 'NONE',  ( 32.50000000000000000, 0.7446292993241931946, 0.000000000000000000 ) ) ;
#224 = DIRECTION ( 'NONE',  ( 1.000000000000000000, -0.000000000000000000, 1.224646799147353207E-16 ) ) ;
#225 = DIRECTION ( 'NONE',  ( 0.000000000000000000, 1.000000000000000000, 0.000000000000000000 ) ) ;
#226 = ORIENTED_EDGE ( 'NONE', *, *, #554, .F. ) ;
#227 = VERTEX_POINT ( 'NONE', #495 ) ;
#228 = PRODUCT_DEFINITION_SHAPE ( 'NONE', 'NONE',  #188 ) ;
#229 = DIRECTION ( 'NONE',  ( 0.000000000000000000, 0.000000000000000000, 1.000000000000000000 ) ) ;
#230 = DIRECTION ( 'NONE',  ( 1.000000000000000000, -0.000000000000000000, 1.224646799147353207E-16 ) ) ;
#231 = AXIS2_PLACEMENT_3D ( 'NONE', #634, #1174, #1086 ) ;
#232 = DIRECTION ( 'NONE',  ( 0.000000000000000000, 0.000000000000000000, 1.000000000000000000 ) ) ;
#233 = CARTESIAN_POINT ( 'NONE',  ( 36.52036105375290731, 5.255370700675806361, 0.000000000000000000 ) ) ;
#234 = CARTESIAN_POINT ( 'NONE',  ( 705.7271728251071181, 868.5693701048261346, 1292.371208026118666 ) ) ;
#235 = ORIENTED_EDGE ( 'NONE', *, *, #181, .F. ) ;
#236 = DIRECTION ( 'NONE',  ( 0.000000000000000000, 0.000000000000000000, 1.000000000000000000 ) ) ;
#237 = DIRECTION ( 'NONE',  ( 0.000000000000000000, 0.000000000000000000, -1.000000000000000000 ) ) ;
#238 = ADVANCED_FACE ( 'NONE', ( #2 ), #956, .F. ) ;
#239 = VERTEX_POINT ( 'NONE', #215 ) ;
#240 = ORIENTED_EDGE ( 'NONE', *, *, #511, .T. ) ;
#241 = AXIS2_PLACEMENT_3D ( 'NONE', #178, #369, #666 ) ;
#242 = DIRECTION ( 'NONE',  ( -0.000000000000000000, -1.000000000000000000, -0.000000000000000000 ) ) ;
#243 = CARTESIAN_POINT ( 'NONE',  ( -40.00000000000000000, 6.000000000000000000, -4.500000000000000000 ) ) ;
#244 = CARTESIAN_POINT ( 'NONE',  ( 32.50000000000000000, 5.500000000000000000, 4.456430435746357333 ) ) ;
#245 = DIRECTION ( 'NONE',  ( -1.000000000000000000, 0.000000000000000000, 0.000000000000000000 ) ) ;
#246 = EDGE_CURVE ( 'NONE', #993, #448, #173, .T. ) ;
#247 = DIRECTION ( 'NONE',  ( 0.000000000000000000, -1.224646799147353207E-16, 1.000000000000000000 ) ) ;
#248 = AXIS2_PLACEMENT_3D ( 'NONE', #895, #335, #232 ) ;
#249 = AXIS2_PLACEMENT_3D ( 'NONE', #821, #1200, #816 ) ;
#250 = DIRECTION ( 'NONE',  ( 0.000000000000000000, 0.000000000000000000, 1.000000000000000000 ) ) ;
#251 = VECTOR ( 'NONE', #676, 1000.000000000000000 ) ;
#252 = CARTESIAN_POINT ( 'NONE',  ( -32.50000000000000000, 6.000000000000000000, 4.456430435746357333 ) ) ;
#253 = ORIENTED_EDGE ( 'NONE', *, *, #164, .F. ) ;
#254 = EDGE_CURVE ( 'NONE', #383, #419, #76, .T. ) ;
#255 = EDGE_CURVE ( 'NONE', #1143, #457, #1138, .T. ) ;
#256 = VERTEX_POINT ( 'NONE', #1048 ) ;
#257 = DIRECTION ( 'NONE',  ( 0.000000000000000000, 1.000000000000000000, 0.000000000000000000 ) ) ;
#258 =( REPRESENTATION_RELATIONSHIP ('NONE','NONE', #838, #1219 ) REPRESENTATION_RELATIONSHIP_WITH_TRANSFORMATION ( #450 )SHAPE_REPRESENTATION_RELATIONSHIP( ) );
#259 = CARTESIAN_POINT ( 'NONE',  ( -40.00000000000000000, 0.000000000000000000, -7.500000000000000000 ) ) ;
#260 = CARTESIAN_POINT ( 'NONE',  ( 0.000000000000000000, 3.000000000000000444, 3.199999999999999289 ) ) ;
#261 = ORIENTED_EDGE ( 'NONE', *, *, #92, .F. ) ;
#262 = CIRCLE ( 'NONE', #764, 4.020361053752901093 ) ;
#263 = AXIS2_PLACEMENT_3D ( 'NONE', #150, #388, #980 ) ;
#264 = CARTESIAN_POINT ( 'NONE',  ( 32.50000000000000000, 0.5000000000000000000, 0.000000000000000000 ) ) ;
#265 = EDGE_LOOP ( 'NONE', ( #524, #253, #942, #890 ) ) ;
#266 = ORIENTED_EDGE ( 'NONE', *, *, #668, .F. ) ;
#267 = DIRECTION ( 'NONE',  ( -0.000000000000000000, -1.000000000000000000, -0.000000000000000000 ) ) ;
#268 = DIRECTION ( 'NONE',  ( 1.000000000000000000, -0.000000000000000000, 1.224646799147353207E-16 ) ) ;
#269 = CLOSED_SHELL ( 'NONE', ( #332, #60, #1211, #166, #73, #886, #1108, #919, #1028, #598, #1047, #1041, #296, #829, #1049, #704, #451, #238, #107, #1027, #863, #75, #367, #194, #494, #16, #289, #382, #313, #274 ) ) ;
#270 = ORIENTED_EDGE ( 'NONE', *, *, #94, .T. ) ;
#271 = CIRCLE ( 'NONE', #1221, 4.609772228646447090 ) ;
#272 = CARTESIAN_POINT ( 'NONE',  ( 37.00000000000000000, 0.000000000000000000, -4.500000000000000000 ) ) ;
#273 = CARTESIAN_POINT ( 'NONE',  ( -32.50000000000000000, 0.7446292993241931946, 0.000000000000000000 ) ) ;
#274 = ADVANCED_FACE ( 'NONE', ( #479 ), #771, .T. ) ;
#275 = EDGE_CURVE ( 'NONE', #1121, #1131, #1007, .T. ) ;
#276 = ORIENTED_EDGE ( 'NONE', *, *, #458, .T. ) ;
#277 = VERTEX_POINT ( 'NONE', #521 ) ;
#278 = DIRECTION ( 'NONE',  ( 0.000000000000000000, -1.000000000000000000, 0.000000000000000000 ) ) ;
#279 = VECTOR ( 'NONE', #311, 1000.000000000000000 ) ;
#280 = DIRECTION ( 'NONE',  ( -1.000000000000000000, -0.000000000000000000, -0.000000000000000000 ) ) ;
#281 = ORIENTED_EDGE ( 'NONE', *, *, #850, .F. ) ;
#282 = ORIENTED_EDGE ( 'NONE', *, *, #668, .T. ) ;
#283 = CARTESIAN_POINT ( 'NONE',  ( 0.000000000000000000, 0.000000000000000000, -2.449293598294706414E-16 ) ) ;
#284 = ORIENTED_EDGE ( 'NONE', *, *, #41, .T. ) ;
#285 =( NAMED_UNIT ( * ) PLANE_ANGLE_UNIT ( ) SI_UNIT ( $, .RADIAN. ) );
#286 = AXIS2_PLACEMENT_3D ( 'NONE', #608, #310, #401 ) ;
#287 = AXIS2_PLACEMENT_3D ( 'NONE', #143, #1078, #52 ) ;
#288 = ORIENTED_EDGE ( 'NONE', *, *, #745, .T. ) ;
#289 = ADVANCED_FACE ( 'NONE', ( #905 ), #408, .T. ) ;
#290 = CARTESIAN_POINT ( 'NONE',  ( -40.00000000000000000, 6.000000000000000000, -7.500000000000000000 ) ) ;
#291 = CARTESIAN_POINT ( 'NONE',  ( -37.00000000000000000, 6.000000000000000000, -7.500000000000000000 ) ) ;
#292 = DIRECTION ( 'NONE',  ( 0.000000000000000000, 0.000000000000000000, 1.000000000000000000 ) ) ;
#293 = ORIENTED_EDGE ( 'NONE', *, *, #555, .F. ) ;
#294 = ORIENTED_EDGE ( 'NONE', *, *, #513, .F. ) ;
#295 = DIRECTION ( 'NONE',  ( -0.000000000000000000, -1.000000000000000000, -0.000000000000000000 ) ) ;
#296 = ADVANCED_FACE ( 'NONE', ( #530 ), #805, .F. ) ;
#297 = DIRECTION ( 'NONE',  ( -0.000000000000000000, 1.000000000000000000, 1.224646799147353454E-16 ) ) ;
#298 = AXIS2_PLACEMENT_3D ( 'NONE', #128, #1050, #880 ) ;
#299 = DIRECTION ( 'NONE',  ( 0.000000000000000000, -1.355252715606880789E-16, 1.000000000000000000 ) ) ;
#300 = AXIS2_PLACEMENT_3D ( 'NONE', #78, #447, #747 ) ;
#301 = ORIENTED_EDGE ( 'NONE', *, *, #959, .F. ) ;
#302 = EDGE_LOOP ( 'NONE', ( #425, #294, #307, #875 ) ) ;
#303 = DIRECTION ( 'NONE',  ( -0.000000000000000000, -1.000000000000000000, -0.000000000000000000 ) ) ;
#304 = DIRECTION ( 'NONE',  ( 1.000000000000000000, 0.000000000000000000, 0.000000000000000000 ) ) ;
#305 = EDGE_CURVE ( 'NONE', #883, #218, #1139, .T. ) ;
#306 = CARTESIAN_POINT ( 'NONE',  ( -32.50000000000000000, 5.255370700675806361, 0.000000000000000000 ) ) ;
#307 = ORIENTED_EDGE ( 'NONE', *, *, #528, .F. ) ;
#308 = SURFACE_STYLE_FILL_AREA ( #491 ) ;
#309 = CIRCLE ( 'NONE', #286, 4.020361053752901093 ) ;
#310 = DIRECTION ( 'NONE',  ( 0.000000000000000000, 1.000000000000000000, 0.000000000000000000 ) ) ;
#311 = DIRECTION ( 'NONE',  ( -0.000000000000000000, -0.000000000000000000, -1.000000000000000000 ) ) ;
#312 = CARTESIAN_POINT ( 'NONE',  ( -32.50000000000000000, 6.000000000000000000, -4.456430435746357333 ) ) ;
#313 = ADVANCED_FACE ( 'NONE', ( #515 ), #57, .T. ) ;
#314 = ORIENTED_EDGE ( 'NONE', *, *, #1223, .T. ) ;
#315 = CARTESIAN_POINT ( 'NONE',  ( 32.50000000000000000, 0.5000000000000000000, 0.000000000000000000 ) ) ;
#316 = EDGE_CURVE ( 'NONE', #277, #1207, #635, .T. ) ;
#317 = DIRECTION ( 'NONE',  ( 0.000000000000000000, 1.000000000000000000, 0.000000000000000000 ) ) ;
#318 = CARTESIAN_POINT ( 'NONE',  ( 0.000000000000000000, -7.000000000000000000, 1.749999999999998890 ) ) ;
#319 = APPLICATION_CONTEXT ( 'automotive_design' ) ;
#320 = DIRECTION ( 'NONE',  ( -0.000000000000000000, 1.000000000000000000, -0.000000000000000000 ) ) ;
#321 = EDGE_LOOP ( 'NONE', ( #575, #28, #235, #573 ) ) ;
#322 =( LENGTH_UNIT ( ) NAMED_UNIT ( * ) SI_UNIT ( .MILLI., .METRE. ) );
#323 = VECTOR ( 'NONE', #304, 1000.000000000000000 ) ;
#324 = PRODUCT_DEFINITION_FORMATION_WITH_SPECIFIED_SOURCE ( 'ANY', '', #840, .NOT_KNOWN. ) ;
#325 = EDGE_CURVE ( 'NONE', #349, #5, #1025, .T. ) ;
#326 = ORIENTED_EDGE ( 'NONE', *, *, #991, .T. ) ;
#327 = DIRECTION ( 'NONE',  ( 0.000000000000000000, 1.000000000000000000, 0.000000000000000000 ) ) ;
#328 = DIRECTION ( 'NONE',  ( 0.000000000000000000, -1.355252715606880543E-16, 1.000000000000000000 ) ) ;
#329 = ORIENTED_EDGE ( 'NONE', *, *, #1189, .F. ) ;
#330 = ORIENTED_EDGE ( 'NONE', *, *, #537, .T. ) ;
#331 = AXIS2_PLACEMENT_3D ( 'NONE', #789, #1164, #129 ) ;
#332 = ADVANCED_FACE ( 'NONE', ( #1110 ), #508, .T. ) ;
#333 = DIRECTION ( 'NONE',  ( 0.000000000000000000, 0.000000000000000000, 1.000000000000000000 ) ) ;
#334 = STYLED_ITEM ( 'NONE', ( #138 ), #365 ) ;
#335 = DIRECTION ( 'NONE',  ( 0.000000000000000000, 1.000000000000000000, 0.000000000000000000 ) ) ;
#336 = EDGE_LOOP ( 'NONE', ( #108, #282, #146, #174 ) ) ;
#337 = VERTEX_POINT ( 'NONE', #819 ) ;
#338 = FILL_AREA_STYLE ('',( #912 ) ) ;
#339 = PLANE ( 'NONE',  #219 ) ;
#340 = CARTESIAN_POINT ( 'NONE',  ( -37.00000000000000000, 6.000000000000000000, -7.500000000000000000 ) ) ;
#341 = FACE_OUTER_BOUND ( 'NONE', #857, .T. ) ;
#342 = DIRECTION ( 'NONE',  ( 1.000000000000000000, 0.000000000000000000, 0.000000000000000000 ) ) ;
#343 = EDGE_LOOP ( 'NONE', ( #1218, #583, #137, #972, #21, #966 ) ) ;
#344 = AXIS2_PLACEMENT_3D ( 'NONE', #558, #1021, #3 ) ;
#345 = DIRECTION ( 'NONE',  ( 0.000000000000000000, 1.000000000000000000, 0.000000000000000000 ) ) ;
#346 = FACE_OUTER_BOUND ( 'NONE', #265, .T. ) ;
#347 = DIRECTION ( 'NONE',  ( 0.000000000000000000, 0.000000000000000000, 1.000000000000000000 ) ) ;
#348 = ORIENTED_EDGE ( 'NONE', *, *, #513, .T. ) ;
#349 = VERTEX_POINT ( 'NONE', #427 ) ;
#350 = DIRECTION ( 'NONE',  ( 0.000000000000000000, 1.000000000000000000, 0.000000000000000000 ) ) ;
#351 = DIRECTION ( 'NONE',  ( 1.000000000000000000, 0.000000000000000000, 0.000000000000000000 ) ) ;
#352 = VECTOR ( 'NONE', #198, 1000.000000000000000 ) ;
#353 = DIRECTION ( 'NONE',  ( 0.000000000000000000, 1.000000000000000000, 0.000000000000000000 ) ) ;
#354 = PRESENTATION_LAYER_ASSIGNMENT (  '', '', ( #334 ) ) ;
#355 = EDGE_CURVE ( 'NONE', #864, #526, #1107, .T. ) ;
#356 = EDGE_LOOP ( 'NONE', ( #130, #91 ) ) ;
#357 = EDGE_CURVE ( 'NONE', #717, #864, #90, .T. ) ;
#358 = DIRECTION ( 'NONE',  ( -1.000000000000000000, 0.000000000000000000, 0.000000000000000000 ) ) ;
#359 = PRODUCT ( 'Steering Arm', 'Steering Arm', '', ( #752 ) ) ;
#360 = CARTESIAN_POINT ( 'NONE',  ( 37.00000000000000000, 6.000000000000000000, 4.500000000000000888 ) ) ;
#361 = VECTOR ( 'NONE', #280, 1000.000000000000000 ) ;
#362 = AXIS2_PLACEMENT_3D ( 'NONE', #48, #1074, #516 ) ;
#363 = CARTESIAN_POINT ( 'NONE',  ( -32.50000000000000000, 3.000000000000000000, 0.000000000000000000 ) ) ;
#364 = ORIENTED_EDGE ( 'NONE', *, *, #1043, .F. ) ;
#365 = MANIFOLD_SOLID_BREP ( 'Fillet2', #269 ) ;
#366 = EDGE_CURVE ( 'NONE', #256, #669, #371, .T. ) ;
#367 = ADVANCED_FACE ( 'NONE', ( #1187 ), #837, .T. ) ;
#368 = AXIS2_PLACEMENT_3D ( 'NONE', #735, #225, #820 ) ;
#369 = DIRECTION ( 'NONE',  ( 0.000000000000000000, 0.000000000000000000, 1.000000000000000000 ) ) ;
#370 = CIRCLE ( 'NONE', #208, 3.199999999999999289 ) ;
#371 = CIRCLE ( 'NONE', #462, 3.000000000000000000 ) ;
#372 = DIRECTION ( 'NONE',  ( 0.000000000000000000, -1.355252715606880789E-16, 1.000000000000000000 ) ) ;
#373 = FACE_OUTER_BOUND ( 'NONE', #1052, .T. ) ;
#374 = SHAPE_DEFINITION_REPRESENTATION ( #1195, #580 ) ;
#375 = EDGE_LOOP ( 'NONE', ( #804, #142, #892, #514 ) ) ;
#376 = FACE_OUTER_BOUND ( 'NONE', #917, .T. ) ;
#377 = CIRCLE ( 'NONE', #20, 1.750000000000000000 ) ;
#378 = AXIS2_PLACEMENT_3D ( 'NONE', #825, #224, #616 ) ;
#379 = CARTESIAN_POINT ( 'NONE',  ( -37.00000000000000000, 6.000000000000000000, -4.500000000000000000 ) ) ;
#380 = APPLICATION_CONTEXT ( 'automotive_design' ) ;
#381 = EDGE_CURVE ( 'NONE', #1117, #717, #1063, .T. ) ;
#382 = ADVANCED_FACE ( 'NONE', ( #1024 ), #1185, .T. ) ;
#383 = VERTEX_POINT ( 'NONE', #557 ) ;
#384 = DIRECTION ( 'NONE',  ( 0.000000000000000000, 0.000000000000000000, 1.000000000000000000 ) ) ;
#385 = DIRECTION ( 'NONE',  ( 0.000000000000000000, 1.000000000000000000, 0.000000000000000000 ) ) ;
#386 = AXIS2_PLACEMENT_3D ( 'NONE', #610, #40, #1191 ) ;
#387 = LINE ( 'NONE', #411, #1217 ) ;
#388 = DIRECTION ( 'NONE',  ( -0.000000000000000000, -1.000000000000000000, -0.000000000000000000 ) ) ;
#389 = VECTOR ( 'NONE', #700, 1000.000000000000000 ) ;
#390 = VERTEX_POINT ( 'NONE', #755 ) ;
#391 = DIRECTION ( 'NONE',  ( 0.000000000000000000, 0.000000000000000000, 1.000000000000000000 ) ) ;
#392 = LINE ( 'NONE', #957, #801 ) ;
#393 = DIRECTION ( 'NONE',  ( -1.224646799147353207E-16, 0.000000000000000000, 1.000000000000000000 ) ) ;
#394 = VERTEX_POINT ( 'NONE', #844 ) ;
#395 = ORIENTED_EDGE ( 'NONE', *, *, #149, .F. ) ;
#396 = DIRECTION ( 'NONE',  ( 0.000000000000000000, 0.000000000000000000, 1.000000000000000000 ) ) ;
#397 = CARTESIAN_POINT ( 'NONE',  ( 0.000000000000000000, 3.000000000000000000, 1.494919019052223629E-16 ) ) ;
#398 = AXIS2_PLACEMENT_3D ( 'NONE', #1169, #385, #1140 ) ;
#399 = DIRECTION ( 'NONE',  ( 1.000000000000000000, 0.000000000000000000, 1.224646799147352961E-16 ) ) ;
#400 = COLOUR_RGB ( '',0.7921568627450980005, 0.8196078431372548767, 0.9333333333333333481 ) ;
#401 = DIRECTION ( 'NONE',  ( 0.000000000000000000, 0.000000000000000000, -1.000000000000000000 ) ) ;
#402 = EDGE_CURVE ( 'NONE', #687, #413, #614, .T. ) ;
#403 = ADVANCED_FACE ( 'NONE', ( #641, #1015 ), #162, .T. ) ;
#404 = CYLINDRICAL_SURFACE ( 'NONE', #331, 3.000000000000000000 ) ;
#405 = CIRCLE ( 'NONE', #207, 0.4999999999999995559 ) ;
#406 = VERTEX_POINT ( 'NONE', #11 ) ;
#407 = CIRCLE ( 'NONE', #984, 0.4999999999999995559 ) ;
#408 = TOROIDAL_SURFACE ( 'NONE', #175, 4.456430435746357333, 0.5000000000000000000 ) ;
#409 = DIRECTION ( 'NONE',  ( 0.000000000000000000, -1.000000000000000000, 0.000000000000000000 ) ) ;
#410 = FACE_OUTER_BOUND ( 'NONE', #1071, .T. ) ;
#411 = CARTESIAN_POINT ( 'NONE',  ( -40.00000000000000000, 6.000000000000000000, 4.500000000000000888 ) ) ;
#412 = EDGE_LOOP ( 'NONE', ( #160, #1135, #1157, #809, #1014, #943, #201, #951 ) ) ;
#413 = VERTEX_POINT ( 'NONE', #960 ) ;
#414 =( NAMED_UNIT ( * ) SI_UNIT ( $, .STERADIAN. ) SOLID_ANGLE_UNIT ( ) );
#415 = PRODUCT_DEFINITION_SHAPE ( 'NONE', 'NONE',  #1088 ) ;
#416 = LINE ( 'NONE', #340, #887 ) ;
#417 = ORIENTED_EDGE ( 'NONE', *, *, #1189, .T. ) ;
#418 = AXIS2_PLACEMENT_3D ( 'NONE', #1124, #268, #927 ) ;
#419 = VERTEX_POINT ( 'NONE', #970 ) ;
#420 = EDGE_CURVE ( 'NONE', #883, #504, #271, .T. ) ;
#421 = DIRECTION ( 'NONE',  ( 0.000000000000000000, 0.000000000000000000, 1.000000000000000000 ) ) ;
#422 = CARTESIAN_POINT ( 'NONE',  ( -32.50000000000000000, 5.255370700675806361, 0.000000000000000000 ) ) ;
#423 = DIRECTION ( 'NONE',  ( -0.000000000000000000, -0.000000000000000000, -1.000000000000000000 ) ) ;
#424 = ORIENTED_EDGE ( 'NONE', *, *, #592, .T. ) ;
#425 = ORIENTED_EDGE ( 'NONE', *, *, #744, .F. ) ;
#426 = EDGE_CURVE ( 'NONE', #694, #256, #779, .T. ) ;
#427 = CARTESIAN_POINT ( 'NONE',  ( 32.50000000000000000, 5.255370700675806361, 4.020361053752901093 ) ) ;
#428 = AXIS2_PLACEMENT_3D ( 'NONE', #379, #736, #347 ) ;
#429 = DIRECTION ( 'NONE',  ( 0.000000000000000000, 0.000000000000000000, 1.000000000000000000 ) ) ;
#430 = LINE ( 'NONE', #807, #754 ) ;
#431 = CARTESIAN_POINT ( 'NONE',  ( -32.50000000000000000, 0.5000000000000000000, 4.456430435746357333 ) ) ;
#432 = DIRECTION ( 'NONE',  ( 1.000000000000000000, 0.000000000000000000, 0.000000000000000000 ) ) ;
#433 = EDGE_LOOP ( 'NONE', ( #968, #1184, #582, #1039 ) ) ;
#434 = FACE_OUTER_BOUND ( 'NONE', #148, .T. ) ;
#435 = DIRECTION ( 'NONE',  ( 0.000000000000000000, 0.000000000000000000, 1.000000000000000000 ) ) ;
#436 = ORIENTED_EDGE ( 'NONE', *, *, #85, .F. ) ;
#437 = CIRCLE ( 'NONE', #577, 1.750000000000000000 ) ;
#438 = DIRECTION ( 'NONE',  ( 0.000000000000000000, 1.000000000000000000, 0.000000000000000000 ) ) ;
#439 = DIRECTION ( 'NONE',  ( 0.000000000000000000, 0.000000000000000000, -1.000000000000000000 ) ) ;
#440 = DIRECTION ( 'NONE',  ( 1.000000000000000000, 0.000000000000000000, 0.000000000000000000 ) ) ;
#441 = DIRECTION ( 'NONE',  ( -0.000000000000000000, 1.000000000000000000, 1.224646799147353454E-16 ) ) ;
#442 = SHAPE_DEFINITION_REPRESENTATION ( #415, #838 ) ;
#443 = VERTEX_POINT ( 'NONE', #121 ) ;
#444 = AXIS2_PLACEMENT_3D ( 'NONE', #223, #303, #391 ) ;
#445 = FACE_OUTER_BOUND ( 'NONE', #433, .T. ) ;
#446 = AXIS2_PLACEMENT_3D ( 'NONE', #8, #242, #1179 ) ;
#447 = DIRECTION ( 'NONE',  ( 0.000000000000000000, 0.000000000000000000, 1.000000000000000000 ) ) ;
#448 = VERTEX_POINT ( 'NONE', #205 ) ;
#449 = DIRECTION ( 'NONE',  ( -1.000000000000000000, 0.000000000000000000, 0.000000000000000000 ) ) ;
#450 = ITEM_DEFINED_TRANSFORMATION ( 'NONE', 'NONE', #708,  #765 ) ;
#451 = ADVANCED_FACE ( 'NONE', ( #1156 ), #686, .F. ) ;
#452 = EDGE_CURVE ( 'NONE', #871, #1038, #740, .T. ) ;
#453 = CARTESIAN_POINT ( 'NONE',  ( 32.50000000000000000, 0.5000000000000000000, 0.000000000000000000 ) ) ;
#454 = TOROIDAL_SURFACE ( 'NONE', #123, 4.456430435746357333, 0.5000000000000000000 ) ;
#455 = LINE ( 'NONE', #259, #361 ) ;
#456 = ITEM_DEFINED_TRANSFORMATION ( 'NONE', 'NONE', #199,  #765 ) ;
#457 = VERTEX_POINT ( 'NONE', #25 ) ;
#458 = EDGE_CURVE ( 'NONE', #694, #775, #881, .T. ) ;
#459 = PLANE ( 'NONE',  #790 ) ;
#460 = AXIS2_PLACEMENT_3D ( 'NONE', #70, #135, #622 ) ;
#461 = CARTESIAN_POINT ( 'NONE',  ( -37.00000000000000000, 6.000000000000000000, 7.500000000000000000 ) ) ;
#462 = AXIS2_PLACEMENT_3D ( 'NONE', #538, #66, #713 ) ;
#463 = ORIENTED_EDGE ( 'NONE', *, *, #255, .F. ) ;
#464 = ORIENTED_EDGE ( 'NONE', *, *, #1172, .F. ) ;
#465 = DIRECTION ( 'NONE',  ( 1.000000000000000000, -0.000000000000000000, 1.224646799147353207E-16 ) ) ;
#466 = EDGE_CURVE ( 'NONE', #102, #277, #891, .T. ) ;
#467 = FACE_OUTER_BOUND ( 'NONE', #961, .T. ) ;
#468 = EDGE_CURVE ( 'NONE', #180, #518, #114, .T. ) ;
#469 = ORIENTED_EDGE ( 'NONE', *, *, #607, .T. ) ;
#470 = ORIENTED_EDGE ( 'NONE', *, *, #647, .T. ) ;
#471 = DIRECTION ( 'NONE',  ( -0.000000000000000000, 1.000000000000000000, -0.000000000000000000 ) ) ;
#472 = CIRCLE ( 'NONE', #663, 3.200000000000000178 ) ;
#473 = LINE ( 'NONE', #1162, #279 ) ;
#474 = EDGE_CURVE ( 'NONE', #227, #122, #986, .T. ) ;
#475 = DIRECTION ( 'NONE',  ( -0.000000000000000000, -1.000000000000000000, -0.000000000000000000 ) ) ;
#476 = ORIENTED_EDGE ( 'NONE', *, *, #922, .T. ) ;
#477 = SHAPE_REPRESENTATION_RELATIONSHIP ( 'NONE' , 'NONE' ,  #580, #562 ) ;
#478 = EDGE_LOOP ( 'NONE', ( #79, #954, #688, #1118, #1215, #36 ) ) ;
#479 = FACE_OUTER_BOUND ( 'NONE', #947, .T. ) ;
#480 = DIRECTION ( 'NONE',  ( 0.000000000000000000, 1.000000000000000000, 0.000000000000000000 ) ) ;
#481 = CIRCLE ( 'NONE', #1181, 3.200000000000000178 ) ;
#482 = UNCERTAINTY_MEASURE_WITH_UNIT (LENGTH_MEASURE( 1.000000000000000082E-05 ), #509, 'distance_accuracy_value', 'NONE');
#483 = CARTESIAN_POINT ( 'NONE',  ( 0.000000000000000000, 3.000000000000000888, 1.224646799147354440E-16 ) ) ;
#484 = ORIENTED_EDGE ( 'NONE', *, *, #325, .F. ) ;
#485 = CIRCLE ( 'NONE', #589, 0.4999999999999995559 ) ;
#486 = AXIS2_PLACEMENT_3D ( 'NONE', #1057, #783, #888 ) ;
#487 = VERTEX_POINT ( 'NONE', #312 ) ;
#488 = CARTESIAN_POINT ( 'NONE',  ( -32.50000000000000000, 0.7446292993241931946, 0.000000000000000000 ) ) ;
#489 = DIRECTION ( 'NONE',  ( 0.000000000000000000, 0.000000000000000000, -1.000000000000000000 ) ) ;
#490 = ORIENTED_EDGE ( 'NONE', *, *, #426, .T. ) ;
#491 = FILL_AREA_STYLE ('',( #532 ) ) ;
#492 = EDGE_LOOP ( 'NONE', ( #1006, #424, #936, #50, #484 ) ) ;
#493 = EDGE_CURVE ( 'NONE', #1131, #1121, #720, .T. ) ;
#494 = ADVANCED_FACE ( 'NONE', ( #978 ), #404, .T. ) ;
#495 = CARTESIAN_POINT ( 'NONE',  ( 3.918869757271529967E-16, 3.000000000000001332, -3.199999999999999289 ) ) ;
#496 = CARTESIAN_POINT ( 'NONE',  ( -32.50000000000000000, 5.255370700675806361, 4.020361053752901093 ) ) ;
#497 = TOROIDAL_SURFACE ( 'NONE', #68, 4.456430435746357333, 0.5000000000000000000 ) ;
#498 = DIRECTION ( 'NONE',  ( 0.000000000000000000, 1.000000000000000000, 0.000000000000000000 ) ) ;
#499 = EDGE_LOOP ( 'NONE', ( #640, #281, #590, #58, #1013 ) ) ;
#500 = EDGE_LOOP ( 'NONE', ( #987, #301 ) ) ;
#501 = DIRECTION ( 'NONE',  ( 0.000000000000000000, -1.000000000000000000, -1.224646799147353207E-16 ) ) ;
#502 = DIRECTION ( 'NONE',  ( 0.000000000000000000, 1.000000000000000000, 0.000000000000000000 ) ) ;
#503 = CARTESIAN_POINT ( 'NONE',  ( -40.00000000000000000, 6.000000000000000000, 7.500000000000000000 ) ) ;
#504 = VERTEX_POINT ( 'NONE', #4 ) ;
#505 =( LENGTH_UNIT ( ) NAMED_UNIT ( * ) SI_UNIT ( .MILLI., .METRE. ) );
#506 = ORIENTED_EDGE ( 'NONE', *, *, #357, .F. ) ;
#507 = CIRCLE ( 'NONE', #444, 4.020361053752901093 ) ;
#508 = TOROIDAL_SURFACE ( 'NONE', #929, 4.456430435746357333, 0.5000000000000000000 ) ;
#509 =( LENGTH_UNIT ( ) NAMED_UNIT ( * ) SI_UNIT ( .MILLI., .METRE. ) );
#510 = FACE_OUTER_BOUND ( 'NONE', #499, .T. ) ;
#511 = EDGE_CURVE ( 'NONE', #180, #559, #593, .T. ) ;
#512 = CARTESIAN_POINT ( 'NONE',  ( -32.50000000000000000, 0.000000000000000000, 0.000000000000000000 ) ) ;
#513 = EDGE_CURVE ( 'NONE', #599, #457, #387, .T. ) ;
#514 = ORIENTED_EDGE ( 'NONE', *, *, #685, .F. ) ;
#515 = FACE_OUTER_BOUND ( 'NONE', #703, .T. ) ;
#516 = DIRECTION ( 'NONE',  ( -1.000000000000000000, 0.000000000000000000, -1.224646799147352961E-16 ) ) ;
#517 = CARTESIAN_POINT ( 'NONE',  ( -32.50000000000000000, 0.5000000000000000000, -4.456430435746357333 ) ) ;
#518 = VERTEX_POINT ( 'NONE', #572 ) ;
#519 = CIRCLE ( 'NONE', #780, 3.000000000000000000 ) ;
#520 = ORIENTED_EDGE ( 'NONE', *, *, #34, .F. ) ;
#521 = CARTESIAN_POINT ( 'NONE',  ( -32.50000000000000000, 5.500000000000000000, 3.956430435746357777 ) ) ;
#522 = DIRECTION ( 'NONE',  ( 0.000000000000000000, 0.000000000000000000, 1.000000000000000000 ) ) ;
#523 = DIRECTION ( 'NONE',  ( 0.000000000000000000, 0.000000000000000000, -1.000000000000000000 ) ) ;
#524 = ORIENTED_EDGE ( 'NONE', *, *, #592, .F. ) ;
#525 = DIRECTION ( 'NONE',  ( 0.000000000000000000, 0.000000000000000000, 1.000000000000000000 ) ) ;
#526 = VERTEX_POINT ( 'NONE', #950 ) ;
#527 = AXIS2_PLACEMENT_3D ( 'NONE', #512, #145, #1204 ) ;
#528 = EDGE_CURVE ( 'NONE', #775, #599, #1003, .T. ) ;
#529 = AXIS2_PLACEMENT_3D ( 'NONE', #283, #548, #1004 ) ;
#530 = FACE_OUTER_BOUND ( 'NONE', #478, .T. ) ;
#531 = AXIS2_PLACEMENT_3D ( 'NONE', #893, #350, #824 ) ;
#532 = FILL_AREA_STYLE_COLOUR ( '', #400 ) ;
#533 = CARTESIAN_POINT ( 'NONE',  ( 32.50000000000000000, 5.500000000000000000, 3.956430435746357777 ) ) ;
#534 = CARTESIAN_POINT ( 'NONE',  ( -32.50000000000000000, 0.7446292993241931946, -4.020361053752901093 ) ) ;
#535 = DIRECTION ( 'NONE',  ( 1.000000000000000000, 0.000000000000000000, 0.000000000000000000 ) ) ;
#536 = ORIENTED_EDGE ( 'NONE', *, *, #246, .F. ) ;
#537 = EDGE_CURVE ( 'NONE', #390, #687, #1141, .T. ) ;
#538 = CARTESIAN_POINT ( 'NONE',  ( 37.00000000000000000, 6.000000000000000000, 4.500000000000000888 ) ) ;
#539 = EDGE_CURVE ( 'NONE', #669, #556, #715, .T. ) ;
#540 = CARTESIAN_POINT ( 'NONE',  ( 32.50000000000000000, 0.5000000000000000000, 0.000000000000000000 ) ) ;
#541 = DIRECTION ( 'NONE',  ( -0.000000000000000000, -1.000000000000000000, -0.000000000000000000 ) ) ;
#542 = DIRECTION ( 'NONE',  ( 0.000000000000000000, -0.000000000000000000, 1.000000000000000000 ) ) ;
#543 = AXIS2_PLACEMENT_3D ( 'NONE', #39, #899, #522 ) ;
#544 = ORIENTED_EDGE ( 'NONE', *, *, #134, .F. ) ;
#545 = CIRCLE ( 'NONE', #378, 0.4999999999999995559 ) ;
#546 = EDGE_CURVE ( 'NONE', #448, #394, #629, .T. ) ;
#547 = DIRECTION ( 'NONE',  ( 0.000000000000000000, 0.000000000000000000, 1.000000000000000000 ) ) ;
#548 = DIRECTION ( 'NONE',  ( -1.000000000000000000, -0.000000000000000000, 0.000000000000000000 ) ) ;
#549 = EDGE_LOOP ( 'NONE', ( #187, #200, #626, #1064 ) ) ;
#550 = CIRCLE ( 'NONE', #88, 4.020361053752901093 ) ;
#551 = CIRCLE ( 'NONE', #529, 4.386342439892262135 ) ;
#552 = CARTESIAN_POINT ( 'NONE',  ( 3.918869757271530953E-16, -2.999999999999999556, -3.200000000000000622 ) ) ;
#553 = AXIS2_PLACEMENT_3D ( 'NONE', #360, #831, #750 ) ;
#554 = EDGE_CURVE ( 'NONE', #406, #1020, #405, .T. ) ;
#555 = EDGE_CURVE ( 'NONE', #218, #14, #550, .T. ) ;
#556 = VERTEX_POINT ( 'NONE', #1095 ) ;
#557 = CARTESIAN_POINT ( 'NONE',  ( 32.50000000000000000, 0.4999999999999998890, 3.956430435746357777 ) ) ;
#558 = CARTESIAN_POINT ( 'NONE',  ( -37.00000000000000000, 0.000000000000000000, -4.500000000000000000 ) ) ;
#559 = VERTEX_POINT ( 'NONE', #533 ) ;
#560 = AXIS2_PLACEMENT_3D ( 'NONE', #946, #353, #1209 ) ;
#561 = APPLICATION_CONTEXT ( 'automotive_design' ) ;
#562 = ADVANCED_BREP_SHAPE_REPRESENTATION ( '', ( #365, #765 ), #579 ) ;
#563 = ADVANCED_FACE ( 'NONE', ( #434 ), #709, .T. ) ;
#564 = DIRECTION ( 'NONE',  ( 0.000000000000000000, 1.000000000000000000, 0.000000000000000000 ) ) ;
#565 = DIRECTION ( 'NONE',  ( 0.000000000000000000, 1.000000000000000000, 0.000000000000000000 ) ) ;
#566 = TOROIDAL_SURFACE ( 'NONE', #249, 4.456430435746357333, 0.5000000000000000000 ) ;
#567 = AXIS2_PLACEMENT_3D ( 'NONE', #1073, #600, #975 ) ;
#568 = ORIENTED_EDGE ( 'NONE', *, *, #1155, .T. ) ;
#569 = ORIENTED_EDGE ( 'NONE', *, *, #712, .T. ) ;
#570 = CARTESIAN_POINT ( 'NONE',  ( 0.000000000000000000, 0.000000000000000000, -2.449293598294706414E-16 ) ) ;
#571 = DIRECTION ( 'NONE',  ( 0.000000000000000000, 0.000000000000000000, 1.000000000000000000 ) ) ;
#572 = CARTESIAN_POINT ( 'NONE',  ( 32.50000000000000000, 5.255370700675806361, -4.020361053752901093 ) ) ;
#573 = ORIENTED_EDGE ( 'NONE', *, *, #712, .F. ) ;
#574 = DIRECTION ( 'NONE',  ( 0.000000000000000000, 0.000000000000000000, 1.000000000000000000 ) ) ;
#575 = ORIENTED_EDGE ( 'NONE', *, *, #366, .F. ) ;
#576 = FACE_OUTER_BOUND ( 'NONE', #375, .T. ) ;
#577 = AXIS2_PLACEMENT_3D ( 'NONE', #397, #195, #873 ) ;
#578 = DIRECTION ( 'NONE',  ( 0.000000000000000000, 0.000000000000000000, 1.000000000000000000 ) ) ;
#579 =( GEOMETRIC_REPRESENTATION_CONTEXT ( 3 ) GLOBAL_UNCERTAINTY_ASSIGNED_CONTEXT ( ( #99 ) ) GLOBAL_UNIT_ASSIGNED_CONTEXT ( ( #505, #285, #1065 ) ) REPRESENTATION_CONTEXT ( 'NONE', 'WORKASPACE' ) );
#580 = SHAPE_REPRESENTATION ( 'Steering-Arm', ( #765 ), #579 ) ;
#581 = DIRECTION ( 'NONE',  ( 0.000000000000000000, -1.224646799147353207E-16, 1.000000000000000000 ) ) ;
#582 = ORIENTED_EDGE ( 'NONE', *, *, #588, .T. ) ;
#583 = ORIENTED_EDGE ( 'NONE', *, *, #355, .T. ) ;
#584 = CARTESIAN_POINT ( 'NONE',  ( 37.00000000000000000, 0.000000000000000000, 4.500000000000000888 ) ) ;
#585 = DIRECTION ( 'NONE',  ( 0.000000000000000000, -1.355252715606880543E-16, 1.000000000000000000 ) ) ;
#586 = VECTOR ( 'NONE', #423, 1000.000000000000000 ) ;
#587 = CARTESIAN_POINT ( 'NONE',  ( 32.50000000000000000, 6.000000000000000000, 0.000000000000000000 ) ) ;
#588 = EDGE_CURVE ( 'NONE', #337, #1176, #151, .T. ) ;
#589 = AXIS2_PLACEMENT_3D ( 'NONE', #431, #245, #435 ) ;
#590 = ORIENTED_EDGE ( 'NONE', *, *, #381, .F. ) ;
#591 = AXIS2_PLACEMENT_3D ( 'NONE', #945, #93, #1096 ) ;
#592 = EDGE_CURVE ( 'NONE', #559, #180, #1040, .T. ) ;
#593 = CIRCLE ( 'NONE', #1022, 3.956430435746357777 ) ;
#594 = LINE ( 'NONE', #210, #1137 ) ;
#595 = DIRECTION ( 'NONE',  ( -0.000000000000000000, 1.000000000000000000, 1.224646799147353207E-16 ) ) ;
#596 = DIRECTION ( 'NONE',  ( -0.000000000000000000, 1.000000000000000000, 1.224646799147353207E-16 ) ) ;
#597 = ORIENTED_EDGE ( 'NONE', *, *, #937, .F. ) ;
#598 = ADVANCED_FACE ( 'NONE', ( #346 ), #1159, .T. ) ;
#599 = VERTEX_POINT ( 'NONE', #153 ) ;
#600 = DIRECTION ( 'NONE',  ( 0.000000000000000000, -1.000000000000000000, -1.224646799147353207E-16 ) ) ;
#601 = FACE_OUTER_BOUND ( 'NONE', #549, .T. ) ;
#602 = CIRCLE ( 'NONE', #398, 4.020361053752901093 ) ;
#603 = DIRECTION ( 'NONE',  ( -0.000000000000000000, 1.000000000000000000, 1.224646799147353207E-16 ) ) ;
#604 = AXIS2_PLACEMENT_3D ( 'NONE', #1202, #351, #247 ) ;
#605 = ORIENTED_EDGE ( 'NONE', *, *, #452, .F. ) ;
#606 = ORIENTED_EDGE ( 'NONE', *, *, #685, .T. ) ;
#607 = EDGE_CURVE ( 'NONE', #419, #1176, #1102, .T. ) ;
#608 = CARTESIAN_POINT ( 'NONE',  ( -32.50000000000000000, 5.255370700675806361, 0.000000000000000000 ) ) ;
#609 = EDGE_CURVE ( 'NONE', #667, #1020, #1060, .T. ) ;
#610 = CARTESIAN_POINT ( 'NONE',  ( 32.50000000000000000, 0.000000000000000000, 0.000000000000000000 ) ) ;
#611 = ORIENTED_EDGE ( 'NONE', *, *, #727, .F. ) ;
#612 = ORIENTED_EDGE ( 'NONE', *, *, #147, .F. ) ;
#613 = AXIS2_PLACEMENT_3D ( 'NONE', #104, #317, #969 ) ;
#614 = CIRCLE ( 'NONE', #33, 3.000000000000000000 ) ;
#615 = CARTESIAN_POINT ( 'NONE',  ( 32.50000000000000000, 5.500000000000000000, 0.000000000000000000 ) ) ;
#616 = DIRECTION ( 'NONE',  ( 0.000000000000000000, 0.000000000000000000, -1.000000000000000000 ) ) ;
#617 = DIRECTION ( 'NONE',  ( -0.000000000000000000, 1.000000000000000000, -0.000000000000000000 ) ) ;
#618 = ORIENTED_EDGE ( 'NONE', *, *, #255, .T. ) ;
#619 = CARTESIAN_POINT ( 'NONE',  ( 32.50000000000000000, 0.7446292993241931946, 0.000000000000000000 ) ) ;
#620 = DIRECTION ( 'NONE',  ( 0.000000000000000000, 0.000000000000000000, 1.000000000000000000 ) ) ;
#621 = PRODUCT_DEFINITION_SHAPE ( 'NONE', 'NONE',  #1228 ) ;
#622 = DIRECTION ( 'NONE',  ( 0.000000000000000000, 0.000000000000000000, -1.000000000000000000 ) ) ;
#623 = ORIENTED_EDGE ( 'NONE', *, *, #466, .T. ) ;
#624 = VECTOR ( 'NONE', #839, 1000.000000000000000 ) ;
#625 = AXIS2_PLACEMENT_3D ( 'NONE', #1091, #1083, #432 ) ;
#626 = ORIENTED_EDGE ( 'NONE', *, *, #1199, .F. ) ;
#627 = DIRECTION ( 'NONE',  ( 0.000000000000000000, 0.000000000000000000, 1.000000000000000000 ) ) ;
#628 = CARTESIAN_POINT ( 'NONE',  ( -32.50000000000000000, 6.000000000000000000, 0.000000000000000000 ) ) ;
#629 = LINE ( 'NONE', #722, #651 ) ;
#630 = DIRECTION ( 'NONE',  ( 0.000000000000000000, 0.000000000000000000, -1.000000000000000000 ) ) ;
#631 = EDGE_CURVE ( 'NONE', #406, #836, #1081, .T. ) ;
#632 = EDGE_CURVE ( 'NONE', #1117, #5, #6, .T. ) ;
#633 = CIRCLE ( 'NONE', #693, 4.609772228646447090 ) ;
#634 = CARTESIAN_POINT ( 'NONE',  ( -32.50000000000000000, 5.500000000000000000, 0.000000000000000000 ) ) ;
#635 = CIRCLE ( 'NONE', #231, 3.956430435746357777 ) ;
#636 = CARTESIAN_POINT ( 'NONE',  ( 32.50000000000000000, 3.000000000000000000, 0.000000000000000000 ) ) ;
#637 = PLANE ( 'NONE',  #830 ) ;
#638 = DIRECTION ( 'NONE',  ( 0.000000000000000000, 0.000000000000000000, 1.000000000000000000 ) ) ;
#639 = ORIENTED_EDGE ( 'NONE', *, *, #744, .T. ) ;
#640 = ORIENTED_EDGE ( 'NONE', *, *, #776, .F. ) ;
#641 = FACE_BOUND ( 'NONE', #500, .T. ) ;
#642 = DIRECTION ( 'NONE',  ( 0.000000000000000000, 0.000000000000000000, 1.000000000000000000 ) ) ;
#643 = FACE_BOUND ( 'NONE', #1098, .T. ) ;
#644 = CONTEXT_DEPENDENT_SHAPE_REPRESENTATION ( #1167, #921 ) ;
#645 = CIRCLE ( 'NONE', #101, 3.956430435746357777 ) ;
#646 = ORIENTED_EDGE ( 'NONE', *, *, #305, .T. ) ;
#647 = EDGE_CURVE ( 'NONE', #559, #349, #737, .T. ) ;
#648 = EDGE_CURVE ( 'NONE', #773, #931, #416, .T. ) ;
#649 = DIRECTION ( 'NONE',  ( 0.000000000000000000, 1.000000000000000000, 0.000000000000000000 ) ) ;
#650 = EDGE_LOOP ( 'NONE', ( #1158, #1109, #1126, #723 ) ) ;
#651 = VECTOR ( 'NONE', #1101, 1000.000000000000000 ) ;
#652 = DIRECTION ( 'NONE',  ( 0.000000000000000000, 0.000000000000000000, 1.000000000000000000 ) ) ;
#653 = PRODUCT_DEFINITION_SHAPE ( 'NONE', 'NONE',  #1229 ) ;
#654 = CIRCLE ( 'NONE', #31, 3.000000000000000000 ) ;
#655 = CARTESIAN_POINT ( 'NONE',  ( -37.00000000000000000, 0.000000000000000000, -7.500000000000000000 ) ) ;
#656 = AXIS2_PLACEMENT_3D ( 'NONE', #306, #498, #106 ) ;
#657 = CONTEXT_DEPENDENT_SHAPE_REPRESENTATION ( #258, #653 ) ;
#658 = ORIENTED_EDGE ( 'NONE', *, *, #959, .T. ) ;
#659 = DIRECTION ( 'NONE',  ( -0.000000000000000000, -1.000000000000000000, -0.000000000000000000 ) ) ;
#660 = DIRECTION ( 'NONE',  ( 0.000000000000000000, 0.000000000000000000, -1.000000000000000000 ) ) ;
#661 = APPLICATION_PROTOCOL_DEFINITION ( 'draft international standard', 'automotive_design', 1998, #42 ) ;
#662 = EDGE_LOOP ( 'NONE', ( #909, #288, #1150, #1210 ) ) ;
#663 = AXIS2_PLACEMENT_3D ( 'NONE', #18, #595, #585 ) ;
#664 = STYLED_ITEM ( 'NONE', ( #27 ), #1190 ) ;
#665 = DIRECTION ( 'NONE',  ( 1.224646799147353207E-16, 0.000000000000000000, -1.000000000000000000 ) ) ;
#666 = DIRECTION ( 'NONE',  ( 1.000000000000000000, 0.000000000000000000, -0.000000000000000000 ) ) ;
#667 = VERTEX_POINT ( 'NONE', #56 ) ;
#668 = EDGE_CURVE ( 'NONE', #784, #443, #481, .T. ) ;
#669 = VERTEX_POINT ( 'NONE', #990 ) ;
#670 = DIRECTION ( 'NONE',  ( -0.000000000000000000, 1.000000000000000000, 1.224646799147353207E-16 ) ) ;
#671 = AXIS2_PLACEMENT_3D ( 'NONE', #698, #409, #1152 ) ;
#672 =( GEOMETRIC_REPRESENTATION_CONTEXT ( 3 ) GLOBAL_UNCERTAINTY_ASSIGNED_CONTEXT ( ( #482 ) ) GLOBAL_UNIT_ASSIGNED_CONTEXT ( ( #509, #1099, #414 ) ) REPRESENTATION_CONTEXT ( 'NONE', 'WORKASPACE' ) );
#673 = ORIENTED_EDGE ( 'NONE', *, *, #554, .T. ) ;
#674 = CARTESIAN_POINT ( 'NONE',  ( 0.000000000000000000, 0.000000000000000000, 0.000000000000000000 ) ) ;
#675 = ORIENTED_EDGE ( 'NONE', *, *, #877, .F. ) ;
#676 = DIRECTION ( 'NONE',  ( 0.000000000000000000, 0.000000000000000000, 1.000000000000000000 ) ) ;
#677 = DIRECTION ( 'NONE',  ( 0.000000000000000000, 1.000000000000000000, 0.000000000000000000 ) ) ;
#678 = UNCERTAINTY_MEASURE_WITH_UNIT (LENGTH_MEASURE( 1.000000000000000082E-05 ), #13, 'distance_accuracy_value', 'NONE');
#679 = CARTESIAN_POINT ( 'NONE',  ( 37.00000000000000000, 6.000000000000000000, -7.500000000000000000 ) ) ;
#680 = ORIENTED_EDGE ( 'NONE', *, *, #648, .T. ) ;
#681 = CARTESIAN_POINT ( 'NONE',  ( 28.47963894624709980, 5.255370700675806361, -4.923522295895171117E-16 ) ) ;
#682 = EDGE_CURVE ( 'NONE', #170, #349, #111, .T. ) ;
#683 = DIRECTION ( 'NONE',  ( 0.000000000000000000, 0.000000000000000000, -1.000000000000000000 ) ) ;
#684 = AXIS2_PLACEMENT_3D ( 'NONE', #628, #814, #1001 ) ;
#685 = EDGE_CURVE ( 'NONE', #1143, #239, #140, .T. ) ;
#686 = PLANE ( 'NONE',  #486 ) ;
#687 = VERTEX_POINT ( 'NONE', #826 ) ;
#688 = ORIENTED_EDGE ( 'NONE', *, *, #1153, .T. ) ;
#689 = CARTESIAN_POINT ( 'NONE',  ( -32.50000000000000000, 0.5000000000000000000, 0.000000000000000000 ) ) ;
#690 = FACE_BOUND ( 'NONE', #51, .T. ) ;
#691 = EDGE_CURVE ( 'NONE', #239, #599, #430, .T. ) ;
#692 = CARTESIAN_POINT ( 'NONE',  ( 32.50000000000000000, 5.500000000000000000, -4.456430435746357333 ) ) ;
#693 = AXIS2_PLACEMENT_3D ( 'NONE', #884, #1061, #768 ) ;
#694 = VERTEX_POINT ( 'NONE', #461 ) ;
#695 = SURFACE_STYLE_USAGE ( .BOTH. , #1148 ) ;
#696 = VECTOR ( 'NONE', #1069, 1000.000000000000000 ) ;
#697 = ORIENTED_EDGE ( 'NONE', *, *, #546, .T. ) ;
#698 = CARTESIAN_POINT ( 'NONE',  ( -37.00000000000000000, 6.000000000000000000, -4.500000000000000000 ) ) ;
#699 = CARTESIAN_POINT ( 'NONE',  ( -32.50000000000000000, 0.5000000000000000000, -4.456430435746357333 ) ) ;
#700 = DIRECTION ( 'NONE',  ( 1.000000000000000000, 0.000000000000000000, 0.000000000000000000 ) ) ;
#701 = ORIENTED_EDGE ( 'NONE', *, *, #1077, .F. ) ;
#702 = EDGE_CURVE ( 'NONE', #687, #773, #455, .T. ) ;
#703 = EDGE_LOOP ( 'NONE', ( #882, #185, #1194, #999 ) ) ;
#704 = ADVANCED_FACE ( 'NONE', ( #1026 ), #1213, .F. ) ;
#705 = CARTESIAN_POINT ( 'NONE',  ( -32.50000000000000000, 0.7446292993241931946, 4.020361053752901093 ) ) ;
#706 = DIRECTION ( 'NONE',  ( 0.000000000000000000, 1.000000000000000000, 0.000000000000000000 ) ) ;
#707 = CIRCLE ( 'NONE', #1093, 4.020361053752901093 ) ;
#708 = AXIS2_PLACEMENT_3D ( 'NONE', #817, #1104, #342 ) ;
#709 = SPHERICAL_SURFACE ( 'NONE', #716, 4.386342439892262135 ) ;
#710 = ORIENTED_EDGE ( 'NONE', *, *, #682, .F. ) ;
#711 = ORIENTED_EDGE ( 'NONE', *, *, #34, .T. ) ;
#712 = EDGE_CURVE ( 'NONE', #669, #1, #845, .T. ) ;
#713 = DIRECTION ( 'NONE',  ( 0.000000000000000000, 0.000000000000000000, 1.000000000000000000 ) ) ;
#714 = DIRECTION ( 'NONE',  ( 0.000000000000000000, 0.000000000000000000, -1.000000000000000000 ) ) ;
#715 = LINE ( 'NONE', #1182, #586 ) ;
#716 = AXIS2_PLACEMENT_3D ( 'NONE', #158, #924, #907 ) ;
#717 = VERTEX_POINT ( 'NONE', #1037 ) ;
#718 = ORIENTED_EDGE ( 'NONE', *, *, #982, .T. ) ;
#719 = CIRCLE ( 'NONE', #613, 4.456430435746357333 ) ;
#720 = CIRCLE ( 'NONE', #812, 4.456430435746357333 ) ;
#721 = DIRECTION ( 'NONE',  ( 0.000000000000000000, 0.000000000000000000, 1.000000000000000000 ) ) ;
#722 = CARTESIAN_POINT ( 'NONE',  ( 2.143131898507868297E-16, -7.000000000000000000, -1.750000000000001110 ) ) ;
#723 = ORIENTED_EDGE ( 'NONE', *, *, #537, .F. ) ;
#724 = SHAPE_REPRESENTATION_RELATIONSHIP ( 'NONE' , 'NONE' ,  #1219, #1122 ) ;
#725 = SURFACE_SIDE_STYLE ('',( #1000 ) ) ;
#726 = CARTESIAN_POINT ( 'NONE',  ( 0.000000000000000000, 3.000000000000000000, 1.750000000000000222 ) ) ;
#727 = EDGE_CURVE ( 'NONE', #526, #337, #1053, .T. ) ;
#728 = DIRECTION ( 'NONE',  ( 0.000000000000000000, 1.000000000000000000, 0.000000000000000000 ) ) ;
#729 = EDGE_CURVE ( 'NONE', #96, #883, #707, .T. ) ;
#730 = DIRECTION ( 'NONE',  ( 0.000000000000000000, 0.000000000000000000, 1.000000000000000000 ) ) ;
#731 = AXIS2_PLACEMENT_3D ( 'NONE', #851, #855, #1224 ) ;
#732 =( GEOMETRIC_REPRESENTATION_CONTEXT ( 3 ) GLOBAL_UNCERTAINTY_ASSIGNED_CONTEXT ( ( #958 ) ) GLOBAL_UNIT_ASSIGNED_CONTEXT ( ( #785, #952, #109 ) ) REPRESENTATION_CONTEXT ( 'NONE', 'WORKASPACE' ) );
#733 = ORIENTED_EDGE ( 'NONE', *, *, #609, .T. ) ;
#734 = CARTESIAN_POINT ( 'NONE',  ( -32.50000000000000000, 0.7446292993241931946, 0.000000000000000000 ) ) ;
#735 = CARTESIAN_POINT ( 'NONE',  ( 32.50000000000000000, 5.500000000000000000, 0.000000000000000000 ) ) ;
#736 = DIRECTION ( 'NONE',  ( 0.000000000000000000, 1.000000000000000000, 0.000000000000000000 ) ) ;
#737 = CIRCLE ( 'NONE', #184, 0.4999999999999995559 ) ;
#738 = ORIENTED_EDGE ( 'NONE', *, *, #539, .T. ) ;
#739 = DIRECTION ( 'NONE',  ( 0.000000000000000000, 0.000000000000000000, 1.000000000000000000 ) ) ;
#740 = CIRCLE ( 'NONE', #656, 4.020361053752901093 ) ;
#741 = PRODUCT_DEFINITION_CONTEXT ( 'detailed design', #319, 'design' ) ;
#742 = CARTESIAN_POINT ( 'NONE',  ( 0.000000000000000000, 3.000000000000000888, 1.224646799147354440E-16 ) ) ;
#743 = PRODUCT_CONTEXT ( 'NONE', #42, 'mechanical' ) ;
#744 = EDGE_CURVE ( 'NONE', #457, #694, #1197, .T. ) ;
#745 = EDGE_CURVE ( 'NONE', #448, #993, #377, .T. ) ;
#746 = EDGE_LOOP ( 'NONE', ( #417, #854 ) ) ;
#747 = DIRECTION ( 'NONE',  ( 1.000000000000000000, 0.000000000000000000, 0.000000000000000000 ) ) ;
#748 = AXIS2_PLACEMENT_3D ( 'NONE', #422, #327, #714 ) ;
#749 = AXIS2_PLACEMENT_3D ( 'NONE', #1193, #525, #535 ) ;
#750 = DIRECTION ( 'NONE',  ( 0.000000000000000000, 0.000000000000000000, -1.000000000000000000 ) ) ;
#751 = DIRECTION ( 'NONE',  ( 0.000000000000000000, 0.000000000000000000, 1.000000000000000000 ) ) ;
#752 = PRODUCT_CONTEXT ( 'NONE', #561, 'mechanical' ) ;
#753 = EDGE_LOOP ( 'NONE', ( #44, #846 ) ) ;
#754 = VECTOR ( 'NONE', #758, 1000.000000000000000 ) ;
#755 = CARTESIAN_POINT ( 'NONE',  ( 37.00000000000000000, 6.000000000000000000, -7.500000000000000000 ) ) ;
#756 = TOROIDAL_SURFACE ( 'NONE', #131, 4.456430435746357333, 0.5000000000000000000 ) ;
#757 = AXIS2_PLACEMENT_3D ( 'NONE', #619, #46, #1009 ) ;
#758 = DIRECTION ( 'NONE',  ( 0.000000000000000000, 0.000000000000000000, 1.000000000000000000 ) ) ;
#759 = AXIS2_PLACEMENT_3D ( 'NONE', #615, #438, #739 ) ;
#760 = DIRECTION ( 'NONE',  ( 0.000000000000000000, 1.000000000000000000, 0.000000000000000000 ) ) ;
#761 = DIRECTION ( 'NONE',  ( 0.000000000000000000, 0.000000000000000000, 1.000000000000000000 ) ) ;
#762 = VECTOR ( 'NONE', #98, 1000.000000000000000 ) ;
#763 = ORIENTED_EDGE ( 'NONE', *, *, #41, .F. ) ;
#764 = AXIS2_PLACEMENT_3D ( 'NONE', #105, #706, #683 ) ;
#765 = AXIS2_PLACEMENT_3D ( 'NONE', #674, #1046, #192 ) ;
#766 = CARTESIAN_POINT ( 'NONE',  ( 37.00000000000000000, 6.000000000000000000, -4.500000000000000000 ) ) ;
#767 = ORIENTED_EDGE ( 'NONE', *, *, #316, .T. ) ;
#768 = DIRECTION ( 'NONE',  ( -1.000000000000000000, 0.000000000000000000, 0.000000000000000000 ) ) ;
#769 = FACE_OUTER_BOUND ( 'NONE', #662, .T. ) ;
#770 = AXIS2_PLACEMENT_3D ( 'NONE', #860, #1055, #119 ) ;
#771 = TOROIDAL_SURFACE ( 'NONE', #186, 4.456430435746357333, 0.5000000000000000000 ) ;
#772 = DIRECTION ( 'NONE',  ( 0.000000000000000000, 0.000000000000000000, 1.000000000000000000 ) ) ;
#773 = VERTEX_POINT ( 'NONE', #655 ) ;
#774 = FACE_OUTER_BOUND ( 'NONE', #865, .T. ) ;
#775 = VERTEX_POINT ( 'NONE', #1120 ) ;
#776 = EDGE_CURVE ( 'NONE', #383, #337, #645, .T. ) ;
#777 = CARTESIAN_POINT ( 'NONE',  ( -32.50000000000000000, 5.500000000000000000, 0.000000000000000000 ) ) ;
#778 = CARTESIAN_POINT ( 'NONE',  ( 0.000000000000000000, -7.000000000000000000, -1.075154897242130869E-15 ) ) ;
#779 = LINE ( 'NONE', #503, #389 ) ;
#780 = AXIS2_PLACEMENT_3D ( 'NONE', #1115, #834, #751 ) ;
#781 = LINE ( 'NONE', #203, #323 ) ;
#782 = CIRCLE ( 'NONE', #362, 4.609772228646447090 ) ;
#783 = DIRECTION ( 'NONE',  ( 1.000000000000000000, 0.000000000000000000, 0.000000000000000000 ) ) ;
#784 = VERTEX_POINT ( 'NONE', #552 ) ;
#785 =( LENGTH_UNIT ( ) NAMED_UNIT ( * ) SI_UNIT ( .MILLI., .METRE. ) );
#786 = EDGE_LOOP ( 'NONE', ( #1171, #1142, #1029, #605, #206 ) ) ;
#787 = DIRECTION ( 'NONE',  ( 0.000000000000000000, 0.000000000000000000, 1.000000000000000000 ) ) ;
#788 = CARTESIAN_POINT ( 'NONE',  ( -32.50000000000000000, 5.500000000000000000, 0.000000000000000000 ) ) ;
#789 = CARTESIAN_POINT ( 'NONE',  ( -37.00000000000000000, 6.000000000000000000, 4.500000000000000000 ) ) ;
#790 = AXIS2_PLACEMENT_3D ( 'NONE', #1222, #501, #17 ) ;
#791 = EDGE_LOOP ( 'NONE', ( #853, #992, #141, #569 ) ) ;
#792 = DIRECTION ( 'NONE',  ( 0.000000000000000000, 0.000000000000000000, 1.000000000000000000 ) ) ;
#793 = AXIS2_PLACEMENT_3D ( 'NONE', #212, #596, #581 ) ;
#794 = ORIENTED_EDGE ( 'NONE', *, *, #631, .T. ) ;
#795 = CARTESIAN_POINT ( 'NONE',  ( 32.50000000000000000, 5.500000000000000000, -3.956430435746357777 ) ) ;
#796 = CARTESIAN_POINT ( 'NONE',  ( 0.000000000000000000, 0.000000000000000000, 0.000000000000000000 ) ) ;
#797 = CARTESIAN_POINT ( 'NONE',  ( -37.00000000000000000, 6.000000000000000000, 7.500000000000000000 ) ) ;
#798 = ORIENTED_EDGE ( 'NONE', *, *, #147, .T. ) ;
#799 =( NAMED_UNIT ( * ) SI_UNIT ( $, .STERADIAN. ) SOLID_ANGLE_UNIT ( ) );
#800 = PRODUCT_DEFINITION ( 'UNKNOWN', '', #222, #741 ) ;
#801 = VECTOR ( 'NONE', #867, 1000.000000000000000 ) ;
#802 = CARTESIAN_POINT ( 'NONE',  ( 0.000000000000000000, -3.000000000000000000, -6.123233995736766282E-16 ) ) ;
#803 = ORIENTED_EDGE ( 'NONE', *, *, #426, .F. ) ;
#804 = ORIENTED_EDGE ( 'NONE', *, *, #80, .F. ) ;
#805 = SPHERICAL_SURFACE ( 'NONE', #287, 4.609772228646446202 ) ;
#806 = DIRECTION ( 'NONE',  ( 0.000000000000000000, 1.000000000000000000, 0.000000000000000000 ) ) ;
#807 = CARTESIAN_POINT ( 'NONE',  ( -40.00000000000000000, 0.000000000000000000, -7.500000000000000000 ) ) ;
#808 = AXIS2_PLACEMENT_3D ( 'NONE', #1198, #1075, #523 ) ;
#809 = ORIENTED_EDGE ( 'NONE', *, *, #181, .T. ) ;
#810 = ORIENTED_EDGE ( 'NONE', *, *, #420, .F. ) ;
#811 = AXIS2_PLACEMENT_3D ( 'NONE', #570, #948, #665 ) ;
#812 = AXIS2_PLACEMENT_3D ( 'NONE', #587, #965, #116 ) ;
#813 = DIRECTION ( 'NONE',  ( -0.000000000000000000, -1.000000000000000000, -0.000000000000000000 ) ) ;
#814 = DIRECTION ( 'NONE',  ( -0.000000000000000000, -1.000000000000000000, -0.000000000000000000 ) ) ;
#815 = DIRECTION ( 'NONE',  ( 0.000000000000000000, 0.000000000000000000, 1.000000000000000000 ) ) ;
#816 = DIRECTION ( 'NONE',  ( 0.000000000000000000, 0.000000000000000000, 1.000000000000000000 ) ) ;
#817 = CARTESIAN_POINT ( 'NONE',  ( 640.7271728251071181, 868.5693701048261346, 1292.371208026118666 ) ) ;
#818 = ORIENTED_EDGE ( 'NONE', *, *, #214, .F. ) ;
#819 = CARTESIAN_POINT ( 'NONE',  ( 32.50000000000000000, 0.4999999999999998890, -3.956430435746357777 ) ) ;
#820 = DIRECTION ( 'NONE',  ( 0.000000000000000000, 0.000000000000000000, 1.000000000000000000 ) ) ;
#821 = CARTESIAN_POINT ( 'NONE',  ( 32.50000000000000000, 5.500000000000000000, 0.000000000000000000 ) ) ;
#822 = CIRCLE ( 'NONE', #344, 3.000000000000000000 ) ;
#823 = ORIENTED_EDGE ( 'NONE', *, *, #94, .F. ) ;
#824 = DIRECTION ( 'NONE',  ( 0.000000000000000000, 0.000000000000000000, -1.000000000000000000 ) ) ;
#825 = CARTESIAN_POINT ( 'NONE',  ( -32.50000000000000000, 5.500000000000000000, -4.456430435746357333 ) ) ;
#826 = CARTESIAN_POINT ( 'NONE',  ( 37.00000000000000000, 0.000000000000000000, -7.500000000000000000 ) ) ;
#827 = EDGE_CURVE ( 'NONE', #556, #390, #519, .T. ) ;
#828 = LINE ( 'NONE', #159, #1123 ) ;
#829 = ADVANCED_FACE ( 'NONE', ( #467 ), #171, .F. ) ;
#830 = AXIS2_PLACEMENT_3D ( 'NONE', #168, #1012, #542 ) ;
#831 = DIRECTION ( 'NONE',  ( 0.000000000000000000, -1.000000000000000000, 0.000000000000000000 ) ) ;
#832 =( REPRESENTATION_RELATIONSHIP ('NONE','NONE', #838, #1219 ) REPRESENTATION_RELATIONSHIP_WITH_TRANSFORMATION ( #456 )SHAPE_REPRESENTATION_RELATIONSHIP( ) );
#833 = AXIS2_PLACEMENT_3D ( 'NONE', #692, #862, #217 ) ;
#834 = DIRECTION ( 'NONE',  ( 0.000000000000000000, 1.000000000000000000, 0.000000000000000000 ) ) ;
#835 = SHAPE_DEFINITION_REPRESENTATION ( #228, #1219 ) ;
#836 = VERTEX_POINT ( 'NONE', #940 ) ;
#837 = CYLINDRICAL_SURFACE ( 'NONE', #553, 3.000000000000000000 ) ;
#838 = SHAPE_REPRESENTATION ( 'Steering Arm', ( #300, #625, #199, #708 ), #1034 ) ;
#839 = DIRECTION ( 'NONE',  ( 0.000000000000000000, -1.000000000000000000, 0.000000000000000000 ) ) ;
#840 = PRODUCT ( 'Steering-Ball', 'Steering-Ball', '', ( #172 ) ) ;
#841 = TOROIDAL_SURFACE ( 'NONE', #298, 4.456430435746357333, 0.5000000000000000000 ) ;
#842 = EDGE_LOOP ( 'NONE', ( #733, #314 ) ) ;
#843 = CIRCLE ( 'NONE', #263, 4.456430435746357333 ) ;
#844 = CARTESIAN_POINT ( 'NONE',  ( 2.143131898507868297E-16, 3.000000000000000000, -1.749999999999999778 ) ) ;
#845 = LINE ( 'NONE', #1216, #624 ) ;
#846 = ORIENTED_EDGE ( 'NONE', *, *, #275, .T. ) ;
#847 = AXIS2_PLACEMENT_3D ( 'NONE', #1127, #441, #189 ) ;
#848 = DIRECTION ( 'NONE',  ( 1.725937996894570912E-15, 0.000000000000000000, -1.000000000000000000 ) ) ;
#849 = AXIS2_PLACEMENT_3D ( 'NONE', #1119, #267, #652 ) ;
#850 = EDGE_CURVE ( 'NONE', #717, #383, #923, .T. ) ;
#851 = CARTESIAN_POINT ( 'NONE',  ( 32.50000000000000000, 0.5000000000000000000, 4.456430435746357333 ) ) ;
#852 =( NAMED_UNIT ( * ) SI_UNIT ( $, .STERADIAN. ) SOLID_ANGLE_UNIT ( ) );
#853 = ORIENTED_EDGE ( 'NONE', *, *, #989, .T. ) ;
#854 = ORIENTED_EDGE ( 'NONE', *, *, #1199, .T. ) ;
#855 = DIRECTION ( 'NONE',  ( -1.000000000000000000, 0.000000000000000000, 0.000000000000000000 ) ) ;
#856 = PRODUCT_RELATED_PRODUCT_CATEGORY ( 'part', '', ( #359 ) ) ;
#857 = EDGE_LOOP ( 'NONE', ( #675, #985, #673, #1147 ) ) ;
#858 = CIRCLE ( 'NONE', #1212, 1.750000000000000000 ) ;
#859 = ORIENTED_EDGE ( 'NONE', *, *, #420, .T. ) ;
#860 = CARTESIAN_POINT ( 'NONE',  ( -32.50000000000000000, 0.4999999999999998890, 0.000000000000000000 ) ) ;
#861 = PLANE ( 'NONE',  #82 ) ;
#862 = DIRECTION ( 'NONE',  ( 1.000000000000000000, -0.000000000000000000, 1.224646799147353207E-16 ) ) ;
#863 = ADVANCED_FACE ( 'NONE', ( #373 ), #1128, .F. ) ;
#864 = VERTEX_POINT ( 'NONE', #1017 ) ;
#865 = EDGE_LOOP ( 'NONE', ( #103, #84, #979, #818 ) ) ;
#866 = DIRECTION ( 'NONE',  ( -1.000000000000000000, 0.000000000000000000, 0.000000000000000000 ) ) ;
#867 = DIRECTION ( 'NONE',  ( -0.000000000000000000, 1.000000000000000000, -0.000000000000000000 ) ) ;
#868 = TOROIDAL_SURFACE ( 'NONE', #1105, 4.456430435746357333, 0.5000000000000000000 ) ;
#869 = CARTESIAN_POINT ( 'NONE',  ( -32.50000000000000000, 5.500000000000000000, 4.456430435746357333 ) ) ;
#870 = ORIENTED_EDGE ( 'NONE', *, *, #631, .F. ) ;
#871 = VERTEX_POINT ( 'NONE', #167 ) ;
#872 = DIRECTION ( 'NONE',  ( -1.000000000000000000, 0.000000000000000000, 0.000000000000000000 ) ) ;
#873 = DIRECTION ( 'NONE',  ( 0.000000000000000000, 0.000000000000000000, 1.000000000000000000 ) ) ;
#874 = CARTESIAN_POINT ( 'NONE',  ( -32.50000000000000000, 3.000000000000000000, 0.000000000000000000 ) ) ;
#875 = ORIENTED_EDGE ( 'NONE', *, *, #458, .F. ) ;
#876 = CARTESIAN_POINT ( 'NONE',  ( -32.50000000000000000, 0.000000000000000000, 0.000000000000000000 ) ) ;
#877 = EDGE_CURVE ( 'NONE', #836, #667, #1173, .T. ) ;
#878 = CARTESIAN_POINT ( 'NONE',  ( -40.00000000000000000, 6.000000000000000000, 7.500000000000000000 ) ) ;
#879 = CIRCLE ( 'NONE', #976, 0.4999999999999995559 ) ;
#880 = DIRECTION ( 'NONE',  ( 0.000000000000000000, 0.000000000000000000, 1.000000000000000000 ) ) ;
#881 = LINE ( 'NONE', #797, #696 ) ;
#882 = ORIENTED_EDGE ( 'NONE', *, *, #511, .F. ) ;
#883 = VERTEX_POINT ( 'NONE', #72 ) ;
#884 = CARTESIAN_POINT ( 'NONE',  ( -32.50000000000000000, 3.000000000000000000, 0.000000000000000000 ) ) ;
#885 = DIRECTION ( 'NONE',  ( 0.000000000000000000, 0.000000000000000000, 1.000000000000000000 ) ) ;
#886 = ADVANCED_FACE ( 'NONE', ( #445 ), #935, .T. ) ;
#887 = VECTOR ( 'NONE', #617, 1000.000000000000000 ) ;
#888 = DIRECTION ( 'NONE',  ( 0.000000000000000000, 0.000000000000000000, -1.000000000000000000 ) ) ;
#889 = CLOSED_SHELL ( 'NONE', ( #110, #563, #403, #1129, #126, #973 ) ) ;
#890 = ORIENTED_EDGE ( 'NONE', *, *, #61, .T. ) ;
#891 = CIRCLE ( 'NONE', #133, 0.4999999999999995559 ) ;
#892 = ORIENTED_EDGE ( 'NONE', *, *, #904, .F. ) ;
#893 = CARTESIAN_POINT ( 'NONE',  ( 32.50000000000000000, 5.255370700675806361, 0.000000000000000000 ) ) ;
#894 = DIRECTION ( 'NONE',  ( 0.000000000000000000, 1.000000000000000000, 0.000000000000000000 ) ) ;
#895 = CARTESIAN_POINT ( 'NONE',  ( 32.50000000000000000, 5.500000000000000000, 0.000000000000000000 ) ) ;
#896 = ORIENTED_EDGE ( 'NONE', *, *, #555, .T. ) ;
#897 = ORIENTED_EDGE ( 'NONE', *, *, #691, .T. ) ;
#898 = CARTESIAN_POINT ( 'NONE',  ( -32.50000000000000000, 5.500000000000000000, 0.000000000000000000 ) ) ;
#899 = DIRECTION ( 'NONE',  ( 0.000000000000000000, 1.000000000000000000, 0.000000000000000000 ) ) ;
#900 = AXIS2_PLACEMENT_3D ( 'NONE', #1111, #642, #358 ) ;
#901 = CARTESIAN_POINT ( 'NONE',  ( -40.00000000000000000, 6.000000000000000000, -4.500000000000000000 ) ) ;
#902 = ORIENTED_EDGE ( 'NONE', *, *, #149, .T. ) ;
#903 = ORIENTED_EDGE ( 'NONE', *, *, #967, .F. ) ;
#904 = EDGE_CURVE ( 'NONE', #239, #773, #822, .T. ) ;
#905 = FACE_OUTER_BOUND ( 'NONE', #26, .T. ) ;
#906 = CARTESIAN_POINT ( 'NONE',  ( 36.52036105375290731, 0.7446292993241931946, 0.000000000000000000 ) ) ;
#907 = DIRECTION ( 'NONE',  ( 0.000000000000000000, -1.224646799147353207E-16, 1.000000000000000000 ) ) ;
#908 = AXIS2_PLACEMENT_3D ( 'NONE', #100, #475, #772 ) ;
#909 = ORIENTED_EDGE ( 'NONE', *, *, #546, .F. ) ;
#910 = EDGE_LOOP ( 'NONE', ( #117, #476, #803, #276 ) ) ;
#911 = AXIS2_PLACEMENT_3D ( 'NONE', #734, #918, #721 ) ;
#912 = FILL_AREA_STYLE_COLOUR ( '', #209 ) ;
#913 = DIRECTION ( 'NONE',  ( 0.000000000000000000, 0.000000000000000000, 1.000000000000000000 ) ) ;
#914 = PRODUCT_RELATED_PRODUCT_CATEGORY ( 'part', '', ( #43 ) ) ;
#915 = DIRECTION ( 'NONE',  ( -0.000000000000000000, 1.000000000000000000, 1.224646799147353207E-16 ) ) ;
#916 = FACE_OUTER_BOUND ( 'NONE', #343, .T. ) ;
#917 = EDGE_LOOP ( 'NONE', ( #738, #177, #711, #193, #618, #639, #490, #981 ) ) ;
#918 = DIRECTION ( 'NONE',  ( -0.000000000000000000, -1.000000000000000000, -0.000000000000000000 ) ) ;
#919 = ADVANCED_FACE ( 'NONE', ( #410 ), #953, .T. ) ;
#920 = PRODUCT_DEFINITION_CONTEXT ( 'detailed design', #1097, 'design' ) ;
#921 = PRODUCT_DEFINITION_SHAPE ( 'NONE', 'NONE',  #1227 ) ;
#922 = EDGE_CURVE ( 'NONE', #971, #256, #392, .T. ) ;
#923 = CIRCLE ( 'NONE', #731, 0.4999999999999995559 ) ;
#924 = DIRECTION ( 'NONE',  ( 1.000000000000000000, 0.000000000000000000, 0.000000000000000000 ) ) ;
#925 = FACE_OUTER_BOUND ( 'NONE', #1170, .T. ) ;
#926 =( NAMED_UNIT ( * ) PLANE_ANGLE_UNIT ( ) SI_UNIT ( $, .RADIAN. ) );
#927 = DIRECTION ( 'NONE',  ( 0.000000000000000000, 0.000000000000000000, -1.000000000000000000 ) ) ;
#928 = ORIENTED_EDGE ( 'NONE', *, *, #1079, .T. ) ;
#929 = AXIS2_PLACEMENT_3D ( 'NONE', #898, #257, #627 ) ;
#930 = CARTESIAN_POINT ( 'NONE',  ( 32.50000000000000000, 0.4999999999999998890, 0.000000000000000000 ) ) ;
#931 = VERTEX_POINT ( 'NONE', #291 ) ;
#932 = DIRECTION ( 'NONE',  ( 0.000000000000000000, 1.000000000000000000, 0.000000000000000000 ) ) ;
#933 = DIRECTION ( 'NONE',  ( 0.000000000000000000, 0.000000000000000000, 1.000000000000000000 ) ) ;
#934 = APPLICATION_PROTOCOL_DEFINITION ( 'draft international standard', 'automotive_design', 1998, #380 ) ;
#935 = TOROIDAL_SURFACE ( 'NONE', #163, 4.456430435746357333, 0.5000000000000000000 ) ;
#936 = ORIENTED_EDGE ( 'NONE', *, *, #468, .T. ) ;
#937 = EDGE_CURVE ( 'NONE', #518, #170, #602, .T. ) ;
#938 = CIRCLE ( 'NONE', #684, 4.456430435746357333 ) ;
#939 = EDGE_CURVE ( 'NONE', #5, #518, #262, .T. ) ;
#940 = CARTESIAN_POINT ( 'NONE',  ( -32.50000000000000000, 0.4999999999999998890, 3.956430435746357777 ) ) ;
#941 = APPLICATION_PROTOCOL_DEFINITION ( 'draft international standard', 'automotive_design', 1998, #1031 ) ;
#942 = ORIENTED_EDGE ( 'NONE', *, *, #275, .F. ) ;
#943 = ORIENTED_EDGE ( 'NONE', *, *, #528, .T. ) ;
#944 = AXIS2_PLACEMENT_3D ( 'NONE', #488, #97, #787 ) ;
#945 = CARTESIAN_POINT ( 'NONE',  ( 32.50000000000000000, 3.000000000000000000, 0.000000000000000000 ) ) ;
#946 = CARTESIAN_POINT ( 'NONE',  ( -37.00000000000000000, 6.000000000000000000, 4.500000000000000000 ) ) ;
#947 = EDGE_LOOP ( 'NONE', ( #364, #464, #329, #623 ) ) ;
#948 = DIRECTION ( 'NONE',  ( 1.000000000000000000, -1.499759782661857608E-32, 1.224646799147353207E-16 ) ) ;
#949 = DIRECTION ( 'NONE',  ( 0.000000000000000000, 1.000000000000000000, 1.224646799147353454E-16 ) ) ;
#950 = CARTESIAN_POINT ( 'NONE',  ( 32.50000000000000000, 0.7446292993241931946, -4.020361053752901093 ) ) ;
#951 = ORIENTED_EDGE ( 'NONE', *, *, #904, .T. ) ;
#952 =( NAMED_UNIT ( * ) PLANE_ANGLE_UNIT ( ) SI_UNIT ( $, .RADIAN. ) );
#953 = TOROIDAL_SURFACE ( 'NONE', #1130, 4.456430435746357333, 0.5000000000000000000 ) ;
#954 = ORIENTED_EDGE ( 'NONE', *, *, #357, .T. ) ;
#955 = AXIS2_PLACEMENT_3D ( 'NONE', #315, #37, #574 ) ;
#956 = PLANE ( 'NONE',  #7 ) ;
#957 = CARTESIAN_POINT ( 'NONE',  ( 37.00000000000000000, 6.000000000000000000, 7.500000000000000000 ) ) ;
#958 = UNCERTAINTY_MEASURE_WITH_UNIT (LENGTH_MEASURE( 1.000000000000000082E-05 ), #785, 'distance_accuracy_value', 'NONE');
#959 = EDGE_CURVE ( 'NONE', #394, #1085, #858, .T. ) ;
#960 = CARTESIAN_POINT ( 'NONE',  ( 40.00000000000000000, 0.000000000000000000, -4.500000000000000000 ) ) ;
#961 = EDGE_LOOP ( 'NONE', ( #902, #1092, #859, #270, #928, #544 ) ) ;
#962 = VECTOR ( 'NONE', #49, 1000.000000000000000 ) ;
#963 = DIRECTION ( 'NONE',  ( 0.000000000000000000, 1.000000000000000000, 0.000000000000000000 ) ) ;
#964 = DIRECTION ( 'NONE',  ( 1.000000000000000000, -0.000000000000000000, 1.224646799147353207E-16 ) ) ;
#965 = DIRECTION ( 'NONE',  ( -0.000000000000000000, -1.000000000000000000, -0.000000000000000000 ) ) ;
#966 = ORIENTED_EDGE ( 'NONE', *, *, #937, .T. ) ;
#967 = EDGE_CURVE ( 'NONE', #993, #1085, #32, .T. ) ;
#968 = ORIENTED_EDGE ( 'NONE', *, *, #254, .F. ) ;
#969 = DIRECTION ( 'NONE',  ( 0.000000000000000000, 0.000000000000000000, 1.000000000000000000 ) ) ;
#970 = CARTESIAN_POINT ( 'NONE',  ( 32.50000000000000000, 0.000000000000000000, 4.456430435746357333 ) ) ;
#971 = VERTEX_POINT ( 'NONE', #120 ) ;
#972 = ORIENTED_EDGE ( 'NONE', *, *, #632, .T. ) ;
#973 = ADVANCED_FACE ( 'NONE', ( #769 ), #1056, .F. ) ;
#974 = EDGE_CURVE ( 'NONE', #775, #971, #781, .T. ) ;
#975 = DIRECTION ( 'NONE',  ( 0.000000000000000000, 0.000000000000000000, -1.000000000000000000 ) ) ;
#976 = AXIS2_PLACEMENT_3D ( 'NONE', #699, #964, #489 ) ;
#977 = CARTESIAN_POINT ( 'NONE',  ( -32.50000000000000000, 0.5000000000000000000, 0.000000000000000000 ) ) ;
#978 = FACE_OUTER_BOUND ( 'NONE', #302, .T. ) ;
#979 = ORIENTED_EDGE ( 'NONE', *, *, #254, .T. ) ;
#980 = DIRECTION ( 'NONE',  ( 0.000000000000000000, 0.000000000000000000, 1.000000000000000000 ) ) ;
#981 = ORIENTED_EDGE ( 'NONE', *, *, #366, .T. ) ;
#982 = EDGE_CURVE ( 'NONE', #443, #784, #472, .T. ) ;
#983 = DIRECTION ( 'NONE',  ( 0.000000000000000000, 0.000000000000000000, 1.000000000000000000 ) ) ;
#984 = AXIS2_PLACEMENT_3D ( 'NONE', #113, #872, #396 ) ;
#985 = ORIENTED_EDGE ( 'NONE', *, *, #221, .T. ) ;
#986 = CIRCLE ( 'NONE', #9, 3.199999999999999289 ) ;
#987 = ORIENTED_EDGE ( 'NONE', *, *, #1008, .F. ) ;
#988 = CARTESIAN_POINT ( 'NONE',  ( 32.50000000000000000, 0.000000000000000000, -4.456430435746357333 ) ) ;
#989 = EDGE_CURVE ( 'NONE', #1, #413, #473, .T. ) ;
#990 = CARTESIAN_POINT ( 'NONE',  ( 40.00000000000000000, 6.000000000000000000, 4.500000000000000888 ) ) ;
#991 = EDGE_CURVE ( 'NONE', #96, #406, #879, .T. ) ;
#992 = ORIENTED_EDGE ( 'NONE', *, *, #204, .T. ) ;
#993 = VERTEX_POINT ( 'NONE', #115 ) ;
#994 = DIRECTION ( 'NONE',  ( 0.000000000000000000, 1.000000000000000000, 0.000000000000000000 ) ) ;
#995 = FACE_OUTER_BOUND ( 'NONE', #791, .T. ) ;
#996 = CIRCLE ( 'NONE', #45, 3.956430435746357777 ) ;
#997 = PRODUCT_DEFINITION_FORMATION_WITH_SPECIFIED_SOURCE ( 'ANY', '', #359, .NOT_KNOWN. ) ;
#998 = CARTESIAN_POINT ( 'NONE',  ( 40.00000000000000000, 0.000000000000000000, 4.500000000000000888 ) ) ;
#999 = ORIENTED_EDGE ( 'NONE', *, *, #164, .T. ) ;
#1000 = SURFACE_STYLE_FILL_AREA ( #338 ) ;
#1001 = DIRECTION ( 'NONE',  ( 0.000000000000000000, 0.000000000000000000, 1.000000000000000000 ) ) ;
#1002 = CARTESIAN_POINT ( 'NONE',  ( -32.50000000000000000, 0.4999999999999998890, 0.000000000000000000 ) ) ;
#1003 = CIRCLE ( 'NONE', #908, 3.000000000000000000 ) ;
#1004 = DIRECTION ( 'NONE',  ( 0.000000000000000000, 0.000000000000000000, 1.000000000000000000 ) ) ;
#1005 = CIRCLE ( 'NONE', #944, 4.020361053752901093 ) ;
#1006 = ORIENTED_EDGE ( 'NONE', *, *, #647, .F. ) ;
#1007 = CIRCLE ( 'NONE', #446, 4.456430435746357333 ) ;
#1008 = EDGE_CURVE ( 'NONE', #1085, #394, #437, .T. ) ;
#1009 = DIRECTION ( 'NONE',  ( 0.000000000000000000, 0.000000000000000000, 1.000000000000000000 ) ) ;
#1010 = CARTESIAN_POINT ( 'NONE',  ( 32.50000000000000000, 6.000000000000000000, 4.456430435746357333 ) ) ;
#1011 = DIRECTION ( 'NONE',  ( -1.000000000000000000, 0.000000000000000000, 0.000000000000000000 ) ) ;
#1012 = DIRECTION ( 'NONE',  ( 0.000000000000000000, 1.000000000000000000, 0.000000000000000000 ) ) ;
#1013 = ORIENTED_EDGE ( 'NONE', *, *, #727, .T. ) ;
#1014 = ORIENTED_EDGE ( 'NONE', *, *, #974, .F. ) ;
#1015 = FACE_OUTER_BOUND ( 'NONE', #356, .T. ) ;
#1016 = CIRCLE ( 'NONE', #748, 4.020361053752901093 ) ;
#1017 = CARTESIAN_POINT ( 'NONE',  ( 28.47963894624709980, 0.7446292993241931946, -4.923522295895171117E-16 ) ) ;
#1018 = DIRECTION ( 'NONE',  ( -1.000000000000000000, -0.000000000000000000, -0.000000000000000000 ) ) ;
#1019 = AXIS2_PLACEMENT_3D ( 'NONE', #876, #118, #792 ) ;
#1020 = VERTEX_POINT ( 'NONE', #1068 ) ;
#1021 = DIRECTION ( 'NONE',  ( -0.000000000000000000, -1.000000000000000000, -0.000000000000000000 ) ) ;
#1022 = AXIS2_PLACEMENT_3D ( 'NONE', #1051, #191, #292 ) ;
#1023 = ORIENTED_EDGE ( 'NONE', *, *, #134, .T. ) ;
#1024 = FACE_OUTER_BOUND ( 'NONE', #161, .T. ) ;
#1025 = CIRCLE ( 'NONE', #531, 4.020361053752901093 ) ;
#1026 = FACE_OUTER_BOUND ( 'NONE', #19, .T. ) ;
#1027 = ADVANCED_FACE ( 'NONE', ( #1154, #690, #1062 ), #861, .F. ) ;
#1028 = ADVANCED_FACE ( 'NONE', ( #601 ), #841, .T. ) ;
#1029 = ORIENTED_EDGE ( 'NONE', *, *, #1178, .T. ) ;
#1030 = DIRECTION ( 'NONE',  ( 0.000000000000000000, 0.000000000000000000, 1.000000000000000000 ) ) ;
#1031 = APPLICATION_CONTEXT ( 'automotive_design' ) ;
#1032 = DIRECTION ( 'NONE',  ( 0.000000000000000000, 0.000000000000000000, 1.000000000000000000 ) ) ;
#1033 = ITEM_DEFINED_TRANSFORMATION ( 'NONE', 'NONE', #625,  #765 ) ;
#1034 =( GEOMETRIC_REPRESENTATION_CONTEXT ( 3 ) GLOBAL_UNCERTAINTY_ASSIGNED_CONTEXT ( ( #10 ) ) GLOBAL_UNIT_ASSIGNED_CONTEXT ( ( #322, #155, #852 ) ) REPRESENTATION_CONTEXT ( 'NONE', 'WORKASPACE' ) );
#1035 = ORIENTED_EDGE ( 'NONE', *, *, #729, .F. ) ;
#1036 = CYLINDRICAL_SURFACE ( 'NONE', #847, 1.750000000000000000 ) ;
#1037 = CARTESIAN_POINT ( 'NONE',  ( 32.50000000000000000, 0.7446292993241931946, 4.020361053752901093 ) ) ;
#1038 = VERTEX_POINT ( 'NONE', #496 ) ;
#1039 = ORIENTED_EDGE ( 'NONE', *, *, #607, .F. ) ;
#1040 = CIRCLE ( 'NONE', #368, 3.956430435746357777 ) ;
#1041 = ADVANCED_FACE ( 'NONE', ( #24 ), #497, .T. ) ;
#1042 = CIRCLE ( 'NONE', #1220, 4.020361053752901093 ) ;
#1043 = EDGE_CURVE ( 'NONE', #1207, #277, #996, .T. ) ;
#1044 = CARTESIAN_POINT ( 'NONE',  ( -32.50000000000000000, 0.5000000000000000000, 0.000000000000000000 ) ) ;
#1045 = AXIS2_PLACEMENT_3D ( 'NONE', #127, #866, #384 ) ;
#1046 = DIRECTION ( 'NONE',  ( 0.000000000000000000, 0.000000000000000000, 1.000000000000000000 ) ) ;
#1047 = ADVANCED_FACE ( 'NONE', ( #510 ), #454, .T. ) ;
#1048 = CARTESIAN_POINT ( 'NONE',  ( 37.00000000000000000, 6.000000000000000000, 7.500000000000000000 ) ) ;
#1049 = ADVANCED_FACE ( 'NONE', ( #995 ), #339, .F. ) ;
#1050 = DIRECTION ( 'NONE',  ( 0.000000000000000000, 1.000000000000000000, 0.000000000000000000 ) ) ;
#1051 = CARTESIAN_POINT ( 'NONE',  ( 32.50000000000000000, 5.500000000000000000, 0.000000000000000000 ) ) ;
#1052 = EDGE_LOOP ( 'NONE', ( #810, #646, #896, #1023, #1177, #798 ) ) ;
#1053 = CIRCLE ( 'NONE', #418, 0.4999999999999995559 ) ;
#1054 = TOROIDAL_SURFACE ( 'NONE', #47, 4.456430435746357333, 0.5000000000000000000 ) ;
#1055 = DIRECTION ( 'NONE',  ( 0.000000000000000000, 1.000000000000000000, 0.000000000000000000 ) ) ;
#1056 = CYLINDRICAL_SURFACE ( 'NONE', #1114, 1.750000000000000000 ) ;
#1057 = CARTESIAN_POINT ( 'NONE',  ( -40.00000000000000000, 6.000000000000000000, -7.500000000000000000 ) ) ;
#1058 = CARTESIAN_POINT ( 'NONE',  ( -32.50000000000000000, 5.500000000000000000, -3.956430435746357777 ) ) ;
#1059 = VERTEX_POINT ( 'NONE', #67 ) ;
#1060 = CIRCLE ( 'NONE', #527, 4.456430435746357333 ) ;
#1061 = DIRECTION ( 'NONE',  ( -0.000000000000000000, -0.000000000000000000, -1.000000000000000000 ) ) ;
#1062 = FACE_OUTER_BOUND ( 'NONE', #412, .T. ) ;
#1063 = CIRCLE ( 'NONE', #849, 4.020361053752901093 ) ;
#1064 = ORIENTED_EDGE ( 'NONE', *, *, #1172, .T. ) ;
#1065 =( NAMED_UNIT ( * ) SI_UNIT ( $, .STERADIAN. ) SOLID_ANGLE_UNIT ( ) );
#1066 = ORIENTED_EDGE ( 'NONE', *, *, #877, .T. ) ;
#1067 = FACE_OUTER_BOUND ( 'NONE', #1136, .T. ) ;
#1068 = CARTESIAN_POINT ( 'NONE',  ( -32.50000000000000000, 0.000000000000000000, -4.456430435746357333 ) ) ;
#1069 = DIRECTION ( 'NONE',  ( 0.000000000000000000, -1.000000000000000000, 0.000000000000000000 ) ) ;
#1070 = ORIENTED_EDGE ( 'NONE', *, *, #468, .F. ) ;
#1071 = EDGE_LOOP ( 'NONE', ( #1076, #767, #568, #823, #612 ) ) ;
#1072 = CIRCLE ( 'NONE', #543, 3.956430435746357777 ) ;
#1073 = CARTESIAN_POINT ( 'NONE',  ( 0.000000000000000000, -3.000000000000000000, -5.852961775831895861E-16 ) ) ;
#1074 = DIRECTION ( 'NONE',  ( 1.224646799147353207E-16, 0.000000000000000000, -1.000000000000000000 ) ) ;
#1075 = DIRECTION ( 'NONE',  ( 0.000000000000000000, 1.000000000000000000, 0.000000000000000000 ) ) ;
#1076 = ORIENTED_EDGE ( 'NONE', *, *, #1178, .F. ) ;
#1077 = EDGE_CURVE ( 'NONE', #337, #383, #1072, .T. ) ;
#1078 = DIRECTION ( 'NONE',  ( 0.000000000000000000, 0.000000000000000000, -1.000000000000000000 ) ) ;
#1079 = EDGE_CURVE ( 'NONE', #1059, #871, #1016, .T. ) ;
#1080 = SPHERICAL_SURFACE ( 'NONE', #604, 4.386342439892262135 ) ;
#1081 = CIRCLE ( 'NONE', #29, 3.956430435746357777 ) ;
#1082 = EDGE_LOOP ( 'NONE', ( #124, #266 ) ) ;
#1083 = DIRECTION ( 'NONE',  ( 0.000000000000000000, 0.000000000000000000, 1.000000000000000000 ) ) ;
#1084 = AXIS2_PLACEMENT_3D ( 'NONE', #1201, #813, #236 ) ;
#1085 = VERTEX_POINT ( 'NONE', #726 ) ;
#1086 = DIRECTION ( 'NONE',  ( 0.000000000000000000, 0.000000000000000000, 1.000000000000000000 ) ) ;
#1087 = DIRECTION ( 'NONE',  ( 0.000000000000000000, 0.000000000000000000, 1.000000000000000000 ) ) ;
#1088 = PRODUCT_DEFINITION ( 'UNKNOWN', '', #997, #1203 ) ;
#1089 = DIRECTION ( 'NONE',  ( 1.000000000000000000, -0.000000000000000000, 1.224646799147353207E-16 ) ) ;
#1090 = CARTESIAN_POINT ( 'NONE',  ( -36.52036105375290731, 0.7446292993241931946, 0.000000000000000000 ) ) ;
#1091 = CARTESIAN_POINT ( 'NONE',  ( 673.2271728251071181, 865.5693701048261346, 1292.371208026118666 ) ) ;
#1092 = ORIENTED_EDGE ( 'NONE', *, *, #729, .T. ) ;
#1093 = AXIS2_PLACEMENT_3D ( 'NONE', #273, #87, #1032 ) ;
#1094 = PRESENTATION_LAYER_ASSIGNMENT (  '', '', ( #664 ) ) ;
#1095 = CARTESIAN_POINT ( 'NONE',  ( 40.00000000000000000, 6.000000000000000000, -4.500000000000000000 ) ) ;
#1096 = DIRECTION ( 'NONE',  ( 1.000000000000000000, 0.000000000000000000, 0.000000000000000000 ) ) ;
#1097 = APPLICATION_CONTEXT ( 'automotive_design' ) ;
#1098 = EDGE_LOOP ( 'NONE', ( #536, #1165 ) ) ;
#1099 =( NAMED_UNIT ( * ) PLANE_ANGLE_UNIT ( ) SI_UNIT ( $, .RADIAN. ) );
#1100 = CARTESIAN_POINT ( 'NONE',  ( -32.50000000000000000, 5.500000000000000000, -4.456430435746357333 ) ) ;
#1101 = DIRECTION ( 'NONE',  ( -0.000000000000000000, 1.000000000000000000, 1.224646799147353454E-16 ) ) ;
#1102 = CIRCLE ( 'NONE', #386, 4.456430435746357333 ) ;
#1103 = SPHERICAL_SURFACE ( 'NONE', #591, 4.609772228646446202 ) ;
#1104 = DIRECTION ( 'NONE',  ( 0.000000000000000000, 0.000000000000000000, 1.000000000000000000 ) ) ;
#1105 = AXIS2_PLACEMENT_3D ( 'NONE', #689, #963, #1160 ) ;
#1106 = ORIENTED_EDGE ( 'NONE', *, *, #991, .F. ) ;
#1107 = CIRCLE ( 'NONE', #1084, 4.020361053752901093 ) ;
#1108 = ADVANCED_FACE ( 'NONE', ( #62 ), #1054, .T. ) ;
#1109 = ORIENTED_EDGE ( 'NONE', *, *, #204, .F. ) ;
#1110 = FACE_OUTER_BOUND ( 'NONE', #786, .T. ) ;
#1111 = CARTESIAN_POINT ( 'NONE',  ( -32.50000000000000000, 3.000000000000000000, 0.000000000000000000 ) ) ;
#1112 = FACE_BOUND ( 'NONE', #746, .T. ) ;
#1113 = ORIENTED_EDGE ( 'NONE', *, *, #15, .T. ) ;
#1114 = AXIS2_PLACEMENT_3D ( 'NONE', #778, #297, #571 ) ;
#1115 = CARTESIAN_POINT ( 'NONE',  ( 37.00000000000000000, 6.000000000000000000, -4.500000000000000000 ) ) ;
#1116 = APPLICATION_PROTOCOL_DEFINITION ( 'draft international standard', 'automotive_design', 1998, #319 ) ;
#1117 = VERTEX_POINT ( 'NONE', #906 ) ;
#1118 = ORIENTED_EDGE ( 'NONE', *, *, #682, .T. ) ;
#1119 = CARTESIAN_POINT ( 'NONE',  ( 32.50000000000000000, 0.7446292993241931946, 0.000000000000000000 ) ) ;
#1120 = CARTESIAN_POINT ( 'NONE',  ( -37.00000000000000000, 0.000000000000000000, 7.500000000000000000 ) ) ;
#1121 = VERTEX_POINT ( 'NONE', #1188 ) ;
#1122 = ADVANCED_BREP_SHAPE_REPRESENTATION ( '', ( #1190, #765 ), #22 ) ;
#1123 = VECTOR ( 'NONE', #1018, 1000.000000000000000 ) ;
#1124 = CARTESIAN_POINT ( 'NONE',  ( 32.50000000000000000, 0.5000000000000000000, -4.456430435746357333 ) ) ;
#1125 = APPLICATION_PROTOCOL_DEFINITION ( 'draft international standard', 'automotive_design', 1998, #1097 ) ;
#1126 = ORIENTED_EDGE ( 'NONE', *, *, #402, .F. ) ;
#1127 = CARTESIAN_POINT ( 'NONE',  ( 0.000000000000000000, -7.000000000000000000, -1.075154897242130869E-15 ) ) ;
#1128 = SPHERICAL_SURFACE ( 'NONE', #900, 4.609772228646446202 ) ;
#1129 = ADVANCED_FACE ( 'NONE', ( #132 ), #1080, .T. ) ;
#1130 = AXIS2_PLACEMENT_3D ( 'NONE', #216, #480, #578 ) ;
#1131 = VERTEX_POINT ( 'NONE', #1010 ) ;
#1132 = AXIS2_PLACEMENT_3D ( 'NONE', #1180, #139, #333 ) ;
#1133 = ORIENTED_EDGE ( 'NONE', *, *, #1223, .F. ) ;
#1134 = CARTESIAN_POINT ( 'NONE',  ( 32.50000000000000000, 5.500000000000000000, -4.456430435746357333 ) ) ;
#1135 = ORIENTED_EDGE ( 'NONE', *, *, #402, .T. ) ;
#1136 = EDGE_LOOP ( 'NONE', ( #226, #794, #1066, #1133 ) ) ;
#1137 = VECTOR ( 'NONE', #471, 1000.000000000000000 ) ;
#1138 = LINE ( 'NONE', #290, #251 ) ;
#1139 = CIRCLE ( 'NONE', #911, 4.020361053752901093 ) ;
#1140 = DIRECTION ( 'NONE',  ( 0.000000000000000000, 0.000000000000000000, -1.000000000000000000 ) ) ;
#1141 = LINE ( 'NONE', #679, #352 ) ;
#1142 = ORIENTED_EDGE ( 'NONE', *, *, #1043, .T. ) ;
#1143 = VERTEX_POINT ( 'NONE', #243 ) ;
#1144 = DIRECTION ( 'NONE',  ( 0.000000000000000000, 1.000000000000000000, 0.000000000000000000 ) ) ;
#1145 = DIRECTION ( 'NONE',  ( 0.000000000000000000, 0.000000000000000000, 1.000000000000000000 ) ) ;
#1146 = DIRECTION ( 'NONE',  ( -1.000000000000000000, 0.000000000000000000, 0.000000000000000000 ) ) ;
#1147 = ORIENTED_EDGE ( 'NONE', *, *, #609, .F. ) ;
#1148 = SURFACE_SIDE_STYLE ('',( #308 ) ) ;
#1149 = AXIS2_PLACEMENT_3D ( 'NONE', #363, #933, #83 ) ;
#1150 = ORIENTED_EDGE ( 'NONE', *, *, #967, .T. ) ;
#1151 = CIRCLE ( 'NONE', #1132, 0.4999999999999995559 ) ;
#1152 = DIRECTION ( 'NONE',  ( 0.000000000000000000, 0.000000000000000000, -1.000000000000000000 ) ) ;
#1153 = EDGE_CURVE ( 'NONE', #864, #170, #782, .T. ) ;
#1154 = FACE_BOUND ( 'NONE', #842, .T. ) ;
#1155 = EDGE_CURVE ( 'NONE', #1207, #1059, #69, .T. ) ;
#1156 = FACE_OUTER_BOUND ( 'NONE', #38, .T. ) ;
#1157 = ORIENTED_EDGE ( 'NONE', *, *, #989, .F. ) ;
#1158 = ORIENTED_EDGE ( 'NONE', *, *, #827, .F. ) ;
#1159 = TOROIDAL_SURFACE ( 'NONE', #248, 4.456430435746357333, 0.5000000000000000000 ) ;
#1160 = DIRECTION ( 'NONE',  ( 0.000000000000000000, 0.000000000000000000, 1.000000000000000000 ) ) ;
#1161 = AXIS2_PLACEMENT_3D ( 'NONE', #1134, #465, #1192 ) ;
#1162 = CARTESIAN_POINT ( 'NONE',  ( 40.00000000000000000, 0.000000000000000000, -7.500000000000000000 ) ) ;
#1163 = AXIS2_PLACEMENT_3D ( 'NONE', #453, #932, #81 ) ;
#1164 = DIRECTION ( 'NONE',  ( 0.000000000000000000, -1.000000000000000000, 0.000000000000000000 ) ) ;
#1165 = ORIENTED_EDGE ( 'NONE', *, *, #745, .F. ) ;
#1166 = EDGE_LOOP ( 'NONE', ( #1070, #240, #470, #710, #597 ) ) ;
#1167 =( REPRESENTATION_RELATIONSHIP ('NONE','NONE', #838, #580 ) REPRESENTATION_RELATIONSHIP_WITH_TRANSFORMATION ( #1033 )SHAPE_REPRESENTATION_RELATIONSHIP( ) );
#1168 = CYLINDRICAL_SURFACE ( 'NONE', #671, 3.000000000000000000 ) ;
#1169 = CARTESIAN_POINT ( 'NONE',  ( 32.50000000000000000, 5.255370700675806361, 0.000000000000000000 ) ) ;
#1170 = EDGE_LOOP ( 'NONE', ( #12, #697, #658, #903 ) ) ;
#1171 = ORIENTED_EDGE ( 'NONE', *, *, #1155, .F. ) ;
#1172 = EDGE_CURVE ( 'NONE', #487, #1207, #545, .T. ) ;
#1173 = CIRCLE ( 'NONE', #197, 0.4999999999999995559 ) ;
#1174 = DIRECTION ( 'NONE',  ( 0.000000000000000000, 1.000000000000000000, 0.000000000000000000 ) ) ;
#1175 = DIRECTION ( 'NONE',  ( 0.000000000000000000, 0.000000000000000000, 1.000000000000000000 ) ) ;
#1176 = VERTEX_POINT ( 'NONE', #988 ) ;
#1177 = ORIENTED_EDGE ( 'NONE', *, *, #452, .T. ) ;
#1178 = EDGE_CURVE ( 'NONE', #277, #1038, #1151, .T. ) ;
#1179 = DIRECTION ( 'NONE',  ( 0.000000000000000000, 0.000000000000000000, 1.000000000000000000 ) ) ;
#1180 = CARTESIAN_POINT ( 'NONE',  ( -32.50000000000000000, 5.500000000000000000, 4.456430435746357333 ) ) ;
#1181 = AXIS2_PLACEMENT_3D ( 'NONE', #802, #915, #328 ) ;
#1182 = CARTESIAN_POINT ( 'NONE',  ( 40.00000000000000000, 6.000000000000000000, -7.500000000000000000 ) ) ;
#1183 = AXIS2_PLACEMENT_3D ( 'NONE', #766, #278, #630 ) ;
#1184 = ORIENTED_EDGE ( 'NONE', *, *, #776, .T. ) ;
#1185 = TOROIDAL_SURFACE ( 'NONE', #1163, 4.456430435746357333, 0.5000000000000000000 ) ;
#1186 = ORIENTED_EDGE ( 'NONE', *, *, #221, .F. ) ;
#1187 = FACE_OUTER_BOUND ( 'NONE', #321, .T. ) ;
#1188 = CARTESIAN_POINT ( 'NONE',  ( 32.50000000000000000, 6.000000000000000000, -4.456430435746357333 ) ) ;
#1189 = EDGE_CURVE ( 'NONE', #102, #487, #938, .T. ) ;
#1190 = MANIFOLD_SOLID_BREP ( 'Cut-Extrude1', #889 ) ;
#1191 = DIRECTION ( 'NONE',  ( 0.000000000000000000, 0.000000000000000000, 1.000000000000000000 ) ) ;
#1192 = DIRECTION ( 'NONE',  ( 0.000000000000000000, 0.000000000000000000, -1.000000000000000000 ) ) ;
#1193 = CARTESIAN_POINT ( 'NONE',  ( 0.000000000000000000, 0.000000000000000000, 0.000000000000000000 ) ) ;
#1194 = ORIENTED_EDGE ( 'NONE', *, *, #493, .F. ) ;
#1195 = PRODUCT_DEFINITION_SHAPE ( 'NONE', 'NONE',  #800 ) ;
#1196 = CARTESIAN_POINT ( 'NONE',  ( -32.50000000000000000, 0.5000000000000000000, 0.000000000000000000 ) ) ;
#1197 = CIRCLE ( 'NONE', #560, 3.000000000000000000 ) ;
#1198 = CARTESIAN_POINT ( 'NONE',  ( 32.50000000000000000, 5.255370700675806361, 0.000000000000000000 ) ) ;
#1199 = EDGE_CURVE ( 'NONE', #487, #102, #843, .T. ) ;
#1200 = DIRECTION ( 'NONE',  ( 0.000000000000000000, 1.000000000000000000, 0.000000000000000000 ) ) ;
#1201 = CARTESIAN_POINT ( 'NONE',  ( 32.50000000000000000, 0.7446292993241931946, 0.000000000000000000 ) ) ;
#1202 = CARTESIAN_POINT ( 'NONE',  ( 0.000000000000000000, 0.000000000000000000, -2.449293598294706414E-16 ) ) ;
#1203 = PRODUCT_DEFINITION_CONTEXT ( 'detailed design', #380, 'design' ) ;
#1204 = DIRECTION ( 'NONE',  ( 0.000000000000000000, 0.000000000000000000, 1.000000000000000000 ) ) ;
#1205 = CYLINDRICAL_SURFACE ( 'NONE', #1183, 3.000000000000000000 ) ;
#1206 = PRODUCT_RELATED_PRODUCT_CATEGORY ( 'part', '', ( #840 ) ) ;
#1207 = VERTEX_POINT ( 'NONE', #1058 ) ;
#1208 = MECHANICAL_DESIGN_GEOMETRIC_PRESENTATION_REPRESENTATION (  '', ( #334 ), #672 ) ;
#1209 = DIRECTION ( 'NONE',  ( 0.000000000000000000, 0.000000000000000000, 1.000000000000000000 ) ) ;
#1210 = ORIENTED_EDGE ( 'NONE', *, *, #1008, .T. ) ;
#1211 = ADVANCED_FACE ( 'NONE', ( #774 ), #165, .T. ) ;
#1212 = AXIS2_PLACEMENT_3D ( 'NONE', #190, #949, #1145 ) ;
#1213 = PLANE ( 'NONE',  #241 ) ;
#1214 = AXIS2_PLACEMENT_3D ( 'NONE', #1100, #230, #439 ) ;
#1215 = ORIENTED_EDGE ( 'NONE', *, *, #325, .T. ) ;
#1216 = CARTESIAN_POINT ( 'NONE',  ( 40.00000000000000000, 6.000000000000000000, 4.500000000000000888 ) ) ;
#1217 = VECTOR ( 'NONE', #320, 1000.000000000000000 ) ;
#1218 = ORIENTED_EDGE ( 'NONE', *, *, #1153, .F. ) ;
#1219 = SHAPE_REPRESENTATION ( 'Steering-Ball', ( #765 ), #22 ) ;
#1220 = AXIS2_PLACEMENT_3D ( 'NONE', #154, #760, #848 ) ;
#1221 = AXIS2_PLACEMENT_3D ( 'NONE', #874, #393, #399 ) ;
#1222 = CARTESIAN_POINT ( 'NONE',  ( 0.000000000000000000, -3.000000000000000000, -6.123233995736766282E-16 ) ) ;
#1223 = EDGE_CURVE ( 'NONE', #1020, #667, #125, .T. ) ;
#1224 = DIRECTION ( 'NONE',  ( 0.000000000000000000, 0.000000000000000000, 1.000000000000000000 ) ) ;
#1225 = APPLICATION_PROTOCOL_DEFINITION ( 'draft international standard', 'automotive_design', 1998, #561 ) ;
#1226 = ORIENTED_EDGE ( 'NONE', *, *, #850, .T. ) ;
#1227 = NEXT_ASSEMBLY_USAGE_OCCURRENCE ( 'NAUO1', ' ', ' ', #1088, #800, $ ) ;
#1228 = NEXT_ASSEMBLY_USAGE_OCCURRENCE ( 'NAUO2', ' ', ' ', #1088, #188, $ ) ;
#1229 = NEXT_ASSEMBLY_USAGE_OCCURRENCE ( 'NAUO3', ' ', ' ', #1088, #188, $ ) ;
ENDSEC;
END-ISO-10303-21;
