ISO-10303-21;
HEADER;
FILE_DESCRIPTION (( 'STEP AP214' ),
    '1' );
FILE_NAME ('Steering Posts Top.STEP',
    '2026-06-17T03:07:20',
    ( '' ),
    ( '' ),
    'SwSTEP 2.0',
    'SolidWorks 2026',
    '' );
FILE_SCHEMA (( 'AUTOMOTIVE_DESIGN' ));
ENDSEC;

DATA;
#1 = FACE_BOUND ( 'NONE', #357, .T. ) ;
#2 = FACE_OUTER_BOUND ( 'NONE', #932, .T. ) ;
#3 = DIRECTION ( 'NONE',  ( -7.172017570737198334E-17, 0.000000000000000000, 1.000000000000000000 ) ) ;
#4 = CARTESIAN_POINT ( 'NONE',  ( 0.3665346778313049447, -6.000000000000000000, -39.99832061887032353 ) ) ;
#5 = ORIENTED_EDGE ( 'NONE', *, *, #827, .T. ) ;
#6 = EDGE_CURVE ( 'NONE', #206, #151, #878, .T. ) ;
#7 = DIRECTION ( 'NONE',  ( 0.000000000000000000, 1.000000000000000000, -0.000000000000000000 ) ) ;
#8 = CARTESIAN_POINT ( 'NONE',  ( 6.366534677831293010, 0.000000000000000000, -51.28728536187934139 ) ) ;
#9 = VECTOR ( 'NONE', #50, 1000.000000000000000 ) ;
#10 = VECTOR ( 'NONE', #356, 1000.000000000000000 ) ;
#11 = CIRCLE ( 'NONE', #400, 1.000000000000000888 ) ;
#12 = VECTOR ( 'NONE', #1147, 1000.000000000000000 ) ;
#13 = CYLINDRICAL_SURFACE ( 'NONE', #1026, 1.500000000000001332 ) ;
#14 = ORIENTED_EDGE ( 'NONE', *, *, #125, .F. ) ;
#15 = DIRECTION ( 'NONE',  ( 0.7831511052909406745, 0.000000000000000000, 0.6218314452338173925 ) ) ;
#16 = CARTESIAN_POINT ( 'NONE',  ( 6.366534677831303668, 4.000000000000000000, 51.28728536187928455 ) ) ;
#17 = ADVANCED_FACE ( 'NONE', ( #131 ), #325, .F. ) ;
#18 = DIRECTION ( 'NONE',  ( -3.469446951953611033E-15, 0.000000000000000000, -1.000000000000000000 ) ) ;
#19 = ORIENTED_EDGE ( 'NONE', *, *, #1096, .T. ) ;
#20 = DIRECTION ( 'NONE',  ( 0.000000000000000000, 0.000000000000000000, -1.000000000000000000 ) ) ;
#21 = EDGE_CURVE ( 'NONE', #365, #252, #416, .T. ) ;
#22 = EDGE_CURVE ( 'NONE', #701, #344, #156, .T. ) ;
#23 = DIRECTION ( 'NONE',  ( 0.000000000000000000, 1.000000000000000000, -0.000000000000000000 ) ) ;
#24 = EDGE_LOOP ( 'NONE', ( #661, #69, #158, #371 ) ) ;
#25 = ORIENTED_EDGE ( 'NONE', *, *, #40, .T. ) ;
#26 = DIRECTION ( 'NONE',  ( -0.000000000000000000, 1.000000000000000000, -0.000000000000000000 ) ) ;
#27 = ORIENTED_EDGE ( 'NONE', *, *, #1129, .T. ) ;
#28 = AXIS2_PLACEMENT_3D ( 'NONE', #1194, #7, #743 ) ;
#29 = ORIENTED_EDGE ( 'NONE', *, *, #514, .T. ) ;
#30 = VECTOR ( 'NONE', #648, 1000.000000000000000 ) ;
#31 = CYLINDRICAL_SURFACE ( 'NONE', #362, 1.000000000000000888 ) ;
#32 = FACE_OUTER_BOUND ( 'NONE', #24, .T. ) ;
#33 = EDGE_LOOP ( 'NONE', ( #774, #1123, #25, #237 ) ) ;
#34 = EDGE_CURVE ( 'NONE', #449, #224, #812, .T. ) ;
#35 = ORIENTED_EDGE ( 'NONE', *, *, #1097, .F. ) ;
#36 = DIRECTION ( 'NONE',  ( 0.7831511052909405635, 0.000000000000000000, 0.6218314452338172815 ) ) ;
#37 = VERTEX_POINT ( 'NONE', #1169 ) ;
#38 = EDGE_LOOP ( 'NONE', ( #612, #995, #1152, #922, #578, #438, #694, #286, #245 ) ) ;
#39 = CARTESIAN_POINT ( 'NONE',  ( -1.633465322168700107, 10.00000000000000000, -11.74882947942384703 ) ) ;
#40 = EDGE_CURVE ( 'NONE', #891, #874, #513, .T. ) ;
#41 = DIRECTION ( 'NONE',  ( 0.000000000000000000, 0.000000000000000000, -1.000000000000000000 ) ) ;
#42 = LINE ( 'NONE', #146, #738 ) ;
#43 = DIRECTION ( 'NONE',  ( 0.000000000000000000, 0.000000000000000000, -1.000000000000000000 ) ) ;
#44 = AXIS2_PLACEMENT_3D ( 'NONE', #388, #1119, #190 ) ;
#45 = ORIENTED_EDGE ( 'NONE', *, *, #860, .T. ) ;
#46 = CIRCLE ( 'NONE', #542, 1.000000000000000888 ) ;
#47 = CARTESIAN_POINT ( 'NONE',  ( 0.3665346778313049447, 0.000000000000000000, -39.99832061887032353 ) ) ;
#48 = DIRECTION ( 'NONE',  ( -0.000000000000000000, -1.000000000000000000, -0.000000000000000000 ) ) ;
#49 = LINE ( 'NONE', #831, #30 ) ;
#50 = DIRECTION ( 'NONE',  ( -0.7831511052909456705, 0.000000000000000000, 0.6218314452338110643 ) ) ;
#51 = ORIENTED_EDGE ( 'NONE', *, *, #298, .F. ) ;
#52 = CARTESIAN_POINT ( 'NONE',  ( -4.633465322168702549, 4.000000000000000000, -42.55315238120665100 ) ) ;
#53 = DIRECTION ( 'NONE',  ( -0.000000000000000000, -1.000000000000000000, 0.000000000000000000 ) ) ;
#54 = DIRECTION ( 'NONE',  ( -0.000000000000000000, 1.000000000000000000, -0.000000000000000000 ) ) ;
#55 = EDGE_LOOP ( 'NONE', ( #406, #678, #304, #265 ) ) ;
#56 = VECTOR ( 'NONE', #619, 1000.000000000000000 ) ;
#57 = CARTESIAN_POINT ( 'NONE',  ( -2.255296767402518832, 4.000000000000000000, 29.11873348107412340 ) ) ;
#58 = CARTESIAN_POINT ( 'NONE',  ( 4.366534677831312550, 4.000000000000000000, -1.670232716407438522E-15 ) ) ;
#59 = CARTESIAN_POINT ( 'NONE',  ( 6.366534677831303668, 0.000000000000000000, 51.28728536187928455 ) ) ;
#60 = ORIENTED_EDGE ( 'NONE', *, *, #215, .F. ) ;
#61 = CARTESIAN_POINT ( 'NONE',  ( -7.633465322168702549, 4.000000000000000000, -44.00179448441493690 ) ) ;
#62 = DIRECTION ( 'NONE',  ( 0.6218314452338110643, -0.000000000000000000, 0.7831511052909456705 ) ) ;
#63 = EDGE_LOOP ( 'NONE', ( #490, #51, #613, #1181 ) ) ;
#64 = DIRECTION ( 'NONE',  ( -0.000000000000000000, -1.000000000000000000, 0.000000000000000000 ) ) ;
#65 = VECTOR ( 'NONE', #890, 1000.000000000000000 ) ;
#66 = AXIS2_PLACEMENT_3D ( 'NONE', #935, #848, #394 ) ;
#67 = CYLINDRICAL_SURFACE ( 'NONE', #358, 1.000000000000000888 ) ;
#68 = DIRECTION ( 'NONE',  ( 8.673617379884027583E-16, 0.000000000000000000, -1.000000000000000000 ) ) ;
#69 = ORIENTED_EDGE ( 'NONE', *, *, #1037, .T. ) ;
#70 = CIRCLE ( 'NONE', #761, 3.000000000000002665 ) ;
#71 = FACE_OUTER_BOUND ( 'NONE', #33, .T. ) ;
#72 = ORIENTED_EDGE ( 'NONE', *, *, #390, .F. ) ;
#73 = CARTESIAN_POINT ( 'NONE',  ( 9.366534677831303668, 4.000000000000000000, 57.50000000000000000 ) ) ;
#74 = LINE ( 'NONE', #733, #775 ) ;
#75 = DIRECTION ( 'NONE',  ( 0.000000000000000000, 1.000000000000000000, 0.000000000000000000 ) ) ;
#76 = ORIENTED_EDGE ( 'NONE', *, *, #1170, .F. ) ;
#77 = ORIENTED_EDGE ( 'NONE', *, *, #556, .F. ) ;
#78 = FILL_AREA_STYLE_COLOUR ( '', #1102 ) ;
#79 = DIRECTION ( 'NONE',  ( 0.000000000000000000, -1.000000000000000000, 0.000000000000000000 ) ) ;
#80 = DIRECTION ( 'NONE',  ( 0.000000000000000000, -1.000000000000000000, 0.000000000000000000 ) ) ;
#81 = VERTEX_POINT ( 'NONE', #534 ) ;
#82 = CARTESIAN_POINT ( 'NONE',  ( 0.000000000000000000, 4.000000000000000000, 0.000000000000000000 ) ) ;
#83 = ORIENTED_EDGE ( 'NONE', *, *, #376, .T. ) ;
#84 = DIRECTION ( 'NONE',  ( 0.000000000000000000, -1.000000000000000000, 0.000000000000000000 ) ) ;
#85 = LINE ( 'NONE', #666, #312 ) ;
#86 = DIRECTION ( 'NONE',  ( 0.000000000000000000, 0.000000000000000000, 1.000000000000000000 ) ) ;
#87 = ORIENTED_EDGE ( 'NONE', *, *, #581, .T. ) ;
#88 = AXIS2_PLACEMENT_3D ( 'NONE', #458, #367, #176 ) ;
#89 = VECTOR ( 'NONE', #352, 1000.000000000000000 ) ;
#90 = ADVANCED_FACE ( 'NONE', ( #244 ), #882, .T. ) ;
#91 = VERTEX_POINT ( 'NONE', #793 ) ;
#92 = CARTESIAN_POINT ( 'NONE',  ( 1.836970198721029441E-16, 0.000000000000000000, 1.499999999999999556 ) ) ;
#93 = CYLINDRICAL_SURFACE ( 'NONE', #791, 1.499999999999999556 ) ;
#94 = ADVANCED_FACE ( 'NONE', ( #250, #804, #1159, #1077, #331, #630 ), #994, .T. ) ;
#95 = CARTESIAN_POINT ( 'NONE',  ( -7.633465322168702549, 0.000000000000000000, -42.55315238120665100 ) ) ;
#96 = VERTEX_POINT ( 'NONE', #149 ) ;
#97 = CARTESIAN_POINT ( 'NONE',  ( 4.366534677831306333, 0.000000000000000000, -16.71888992518423578 ) ) ;
#98 = UNCERTAINTY_MEASURE_WITH_UNIT (LENGTH_MEASURE( 1.000000000000000082E-05 ), #1186, 'distance_accuracy_value', 'NONE');
#99 = DIRECTION ( 'NONE',  ( 0.000000000000000000, 1.000000000000000000, -0.000000000000000000 ) ) ;
#100 = DIRECTION ( 'NONE',  ( 3.825076037726506764E-16, 0.000000000000000000, -1.000000000000000000 ) ) ;
#101 = ORIENTED_EDGE ( 'NONE', *, *, #1038, .F. ) ;
#102 = CARTESIAN_POINT ( 'NONE',  ( 0.3665346778313049447, 0.000000000000000000, 39.99832061887032353 ) ) ;
#103 = CARTESIAN_POINT ( 'NONE',  ( 3.366534677831300559, 4.000000000000000000, -32.30564282154356448 ) ) ;
#104 = VECTOR ( 'NONE', #1182, 1000.000000000000000 ) ;
#105 = CIRCLE ( 'NONE', #238, 1.000000000000000888 ) ;
#106 = VECTOR ( 'NONE', #667, 1000.000000000000000 ) ;
#107 = EDGE_LOOP ( 'NONE', ( #999, #468, #585, #491, #77, #296, #635, #687, #29 ) ) ;
#108 = EDGE_CURVE ( 'NONE', #275, #225, #903, .T. ) ;
#109 = DIRECTION ( 'NONE',  ( -0.000000000000000000, 1.000000000000000000, -0.000000000000000000 ) ) ;
#110 = DIRECTION ( 'NONE',  ( -3.469446951953611033E-15, 0.000000000000000000, -1.000000000000000000 ) ) ;
#111 = ORIENTED_EDGE ( 'NONE', *, *, #737, .T. ) ;
#112 = LINE ( 'NONE', #393, #569 ) ;
#113 = EDGE_CURVE ( 'NONE', #387, #981, #342, .T. ) ;
#114 = ORIENTED_EDGE ( 'NONE', *, *, #355, .F. ) ;
#115 = ORIENTED_EDGE ( 'NONE', *, *, #178, .T. ) ;
#116 = CARTESIAN_POINT ( 'NONE',  ( -2.633465322168701217, 4.000000000000000000, 28.33558237578318284 ) ) ;
#117 = LINE ( 'NONE', #518, #1025 ) ;
#118 = EDGE_CURVE ( 'NONE', #211, #1049, #624, .T. ) ;
#119 = EDGE_LOOP ( 'NONE', ( #263, #669, #936, #1111 ) ) ;
#120 = EDGE_CURVE ( 'NONE', #688, #349, #617, .T. ) ;
#121 = AXIS2_PLACEMENT_3D ( 'NONE', #1122, #282, #1032 ) ;
#122 = ORIENTED_EDGE ( 'NONE', *, *, #298, .T. ) ;
#123 = DIRECTION ( 'NONE',  ( 0.000000000000000000, 0.000000000000000000, 1.000000000000000000 ) ) ;
#124 = CARTESIAN_POINT ( 'NONE',  ( 3.366534677831306777, 0.000000000000000000, 16.71888992518423578 ) ) ;
#125 = EDGE_CURVE ( 'NONE', #473, #128, #988, .T. ) ;
#126 = EDGE_CURVE ( 'NONE', #920, #1131, #1065, .T. ) ;
#127 = ORIENTED_EDGE ( 'NONE', *, *, #552, .T. ) ;
#128 = VERTEX_POINT ( 'NONE', #1145 ) ;
#129 = CARTESIAN_POINT ( 'NONE',  ( 1.836970198721029441E-16, 10.00000000000000000, 1.499999999999999556 ) ) ;
#130 = DIRECTION ( 'NONE',  ( 0.000000000000000000, 1.000000000000000000, -0.000000000000000000 ) ) ;
#131 = FACE_OUTER_BOUND ( 'NONE', #505, .T. ) ;
#132 = ADVANCED_FACE ( 'NONE', ( #300 ), #1052, .F. ) ;
#133 = CARTESIAN_POINT ( 'NONE',  ( 3.366534677831306777, 10.00000000000000000, 16.71888992518423578 ) ) ;
#134 = EDGE_CURVE ( 'NONE', #256, #928, #717, .T. ) ;
#135 = CARTESIAN_POINT ( 'NONE',  ( 4.366534677831300115, 10.00000000000000000, -34.37654770091713630 ) ) ;
#136 = CARTESIAN_POINT ( 'NONE',  ( -2.633465322168701217, 0.000000000000000000, -28.81846307685260200 ) ) ;
#137 = ORIENTED_EDGE ( 'NONE', *, *, #1112, .T. ) ;
#138 = VECTOR ( 'NONE', #386, 1000.000000000000114 ) ;
#139 = CARTESIAN_POINT ( 'NONE',  ( -1.011633876934883380, 0.000000000000000000, 11.96567837413290825 ) ) ;
#140 = DIRECTION ( 'NONE',  ( 0.000000000000000000, -1.000000000000000000, 0.000000000000000000 ) ) ;
#141 = CARTESIAN_POINT ( 'NONE',  ( 0.3665346778313051113, 4.000000000000000000, -41.49832061887033063 ) ) ;
#142 = CARTESIAN_POINT ( 'NONE',  ( -2.633465322168701217, 10.00000000000000000, -28.81846307685260200 ) ) ;
#143 = ORIENTED_EDGE ( 'NONE', *, *, #303, .F. ) ;
#144 = DIRECTION ( 'NONE',  ( 0.000000000000000000, 1.000000000000000000, -0.000000000000000000 ) ) ;
#145 = AXIS2_PLACEMENT_3D ( 'NONE', #536, #801, #785 ) ;
#146 = CARTESIAN_POINT ( 'NONE',  ( 4.366534677831300115, 0.000000000000000000, -34.37654770091713630 ) ) ;
#147 = EDGE_LOOP ( 'NONE', ( #649, #271, #243, #993 ) ) ;
#148 = EDGE_CURVE ( 'NONE', #926, #1045, #117, .T. ) ;
#149 = CARTESIAN_POINT ( 'NONE',  ( -2.255296767402515279, 0.000000000000000000, -29.11873348107412696 ) ) ;
#150 = EDGE_CURVE ( 'NONE', #773, #1165, #311, .T. ) ;
#151 = VERTEX_POINT ( 'NONE', #1157 ) ;
#152 = CIRCLE ( 'NONE', #145, 1.000000000000000888 ) ;
#153 = LINE ( 'NONE', #516, #885 ) ;
#154 = CARTESIAN_POINT ( 'NONE',  ( -4.633465322168702549, 4.000000000000000000, -42.55315238120665100 ) ) ;
#155 = ORIENTED_EDGE ( 'NONE', *, *, #706, .F. ) ;
#156 = LINE ( 'NONE', #814, #9 ) ;
#157 = ADVANCED_FACE ( 'NONE', ( #32 ), #318, .F. ) ;
#158 = ORIENTED_EDGE ( 'NONE', *, *, #961, .F. ) ;
#159 = LINE ( 'NONE', #748, #501 ) ;
#160 = VECTOR ( 'NONE', #526, 1000.000000000000000 ) ;
#161 = AXIS2_PLACEMENT_3D ( 'NONE', #408, #493, #595 ) ;
#162 = CARTESIAN_POINT ( 'NONE',  ( -1.011633876934883602, 0.000000000000000000, -11.96567837413290825 ) ) ;
#163 = DIRECTION ( 'NONE',  ( 0.000000000000000000, 0.000000000000000000, 1.000000000000000000 ) ) ;
#164 = ORIENTED_EDGE ( 'NONE', *, *, #429, .F. ) ;
#165 = ORIENTED_EDGE ( 'NONE', *, *, #971, .T. ) ;
#166 = ADVANCED_FACE ( 'NONE', ( #1056 ), #796, .T. ) ;
#167 = CARTESIAN_POINT ( 'NONE',  ( -2.633465322168699885, 10.00000000000000000, -10.67792460005027344 ) ) ;
#168 = ORIENTED_EDGE ( 'NONE', *, *, #396, .T. ) ;
#169 = ORIENTED_EDGE ( 'NONE', *, *, #971, .F. ) ;
#170 = CARTESIAN_POINT ( 'NONE',  ( -2.633465322168701217, 4.000000000000000000, -28.33558237578317929 ) ) ;
#171 = EDGE_CURVE ( 'NONE', #473, #344, #181, .T. ) ;
#172 = DIRECTION ( 'NONE',  ( 0.000000000000000000, 0.000000000000000000, 1.000000000000000000 ) ) ;
#173 = CARTESIAN_POINT ( 'NONE',  ( -6.498959657870146067, 4.000000000000000000, 44.90260569707926663 ) ) ;
#174 = EDGE_LOOP ( 'NONE', ( #828, #555, #786, #35 ) ) ;
#175 = EDGE_CURVE ( 'NONE', #655, #256, #907, .T. ) ;
#176 = DIRECTION ( 'NONE',  ( 0.000000000000000000, 0.000000000000000000, -1.000000000000000000 ) ) ;
#177 = ORIENTED_EDGE ( 'NONE', *, *, #150, .T. ) ;
#178 = EDGE_CURVE ( 'NONE', #989, #1141, #233, .T. ) ;
#179 = CARTESIAN_POINT ( 'NONE',  ( 0.000000000000000000, 0.000000000000000000, 0.000000000000000000 ) ) ;
#180 = ADVANCED_FACE ( 'NONE', ( #447 ), #67, .F. ) ;
#181 = CIRCLE ( 'NONE', #908, 3.000000000000002665 ) ;
#182 = LINE ( 'NONE', #173, #295 ) ;
#183 = VECTOR ( 'NONE', #591, 1000.000000000000000 ) ;
#184 = DIRECTION ( 'NONE',  ( -0.7831511052909405635, -0.000000000000000000, 0.6218314452338172815 ) ) ;
#185 = ORIENTED_EDGE ( 'NONE', *, *, #1202, .T. ) ;
#186 = DIRECTION ( 'NONE',  ( 0.000000000000000000, 1.000000000000000000, -0.000000000000000000 ) ) ;
#187 = LINE ( 'NONE', #944, #545 ) ;
#188 = DIRECTION ( 'NONE',  ( -0.000000000000000000, -1.000000000000000000, 0.000000000000000000 ) ) ;
#189 = ORIENTED_EDGE ( 'NONE', *, *, #175, .T. ) ;
#190 = DIRECTION ( 'NONE',  ( 0.000000000000000000, 0.000000000000000000, -1.000000000000000000 ) ) ;
#191 = DIRECTION ( 'NONE',  ( 0.000000000000000000, 1.000000000000000000, 0.000000000000000000 ) ) ;
#192 = EDGE_CURVE ( 'NONE', #316, #1141, #1042, .T. ) ;
#193 = DIRECTION ( 'NONE',  ( 0.000000000000000000, 0.000000000000000000, -1.000000000000000000 ) ) ;
#194 = ORIENTED_EDGE ( 'NONE', *, *, #214, .F. ) ;
#195 = EDGE_CURVE ( 'NONE', #1153, #457, #887, .T. ) ;
#196 = DIRECTION ( 'NONE',  ( 0.000000000000000000, 0.000000000000000000, -1.000000000000000000 ) ) ;
#197 = AXIS2_PLACEMENT_3D ( 'NONE', #142, #1085, #229 ) ;
#198 = PRESENTATION_LAYER_ASSIGNMENT (  '', '', ( #1174 ) ) ;
#199 = VECTOR ( 'NONE', #901, 1000.000000000000000 ) ;
#200 = VECTOR ( 'NONE', #414, 1000.000000000000000 ) ;
#201 = PLANE ( 'NONE',  #1103 ) ;
#202 = ORIENTED_EDGE ( 'NONE', *, *, #192, .F. ) ;
#203 = ORIENTED_EDGE ( 'NONE', *, *, #291, .F. ) ;
#204 = CARTESIAN_POINT ( 'NONE',  ( 0.3665346778313049447, 0.000000000000000000, 41.49832061887033063 ) ) ;
#205 = ORIENTED_EDGE ( 'NONE', *, *, #422, .T. ) ;
#206 = VERTEX_POINT ( 'NONE', #162 ) ;
#207 = CARTESIAN_POINT ( 'NONE',  ( -7.633465322168702549, 4.000000000000000000, -44.00179448441493690 ) ) ;
#208 = EDGE_CURVE ( 'NONE', #942, #783, #547, .T. ) ;
#209 = CIRCLE ( 'NONE', #899, 3.000000000000002665 ) ;
#210 = ORIENTED_EDGE ( 'NONE', *, *, #338, .T. ) ;
#211 = VERTEX_POINT ( 'NONE', #918 ) ;
#212 = EDGE_CURVE ( 'NONE', #770, #1177, #74, .T. ) ;
#213 = DIRECTION ( 'NONE',  ( -0.000000000000000000, -1.000000000000000000, 0.000000000000000000 ) ) ;
#214 = EDGE_CURVE ( 'NONE', #926, #701, #425, .T. ) ;
#215 = EDGE_CURVE ( 'NONE', #707, #883, #1012, .T. ) ;
#216 = AXIS2_PLACEMENT_3D ( 'NONE', #600, #222, #610 ) ;
#217 = EDGE_LOOP ( 'NONE', ( #72, #410, #862, #722 ) ) ;
#218 = CIRCLE ( 'NONE', #294, 1.000000000000000888 ) ;
#219 = ORIENTED_EDGE ( 'NONE', *, *, #212, .F. ) ;
#220 = AXIS2_PLACEMENT_3D ( 'NONE', #47, #511, #982 ) ;
#221 = CARTESIAN_POINT ( 'NONE',  ( 6.366534677831293010, 0.000000000000000000, -51.28728536187934139 ) ) ;
#222 = DIRECTION ( 'NONE',  ( -0.000000000000000000, -1.000000000000000000, -0.000000000000000000 ) ) ;
#223 = LINE ( 'NONE', #861, #138 ) ;
#224 = VERTEX_POINT ( 'NONE', #97 ) ;
#225 = VERTEX_POINT ( 'NONE', #757 ) ;
#226 = EDGE_CURVE ( 'NONE', #525, #96, #855, .T. ) ;
#227 = CARTESIAN_POINT ( 'NONE',  ( -2.255296767402515279, 0.000000000000000000, 29.11873348107412696 ) ) ;
#228 = DIRECTION ( 'NONE',  ( -0.000000000000000000, -1.000000000000000000, 0.000000000000000000 ) ) ;
#229 = DIRECTION ( 'NONE',  ( 7.172017570737198334E-17, 0.000000000000000000, 1.000000000000000000 ) ) ;
#230 = ADVANCED_FACE ( 'NONE', ( #2 ), #377, .F. ) ;
#231 = ORIENTED_EDGE ( 'NONE', *, *, #264, .F. ) ;
#232 = CARTESIAN_POINT ( 'NONE',  ( -6.218314452338172593, 4.000000000000000000, 7.831511052909405635 ) ) ;
#233 = LINE ( 'NONE', #433, #477 ) ;
#234 = CARTESIAN_POINT ( 'NONE',  ( -1.633465322168701217, 4.000000000000000000, -28.33558237578317929 ) ) ;
#235 = DIRECTION ( 'NONE',  ( -0.000000000000000000, 1.000000000000000000, -0.000000000000000000 ) ) ;
#236 = AXIS2_PLACEMENT_3D ( 'NONE', #442, #140, #241 ) ;
#237 = ORIENTED_EDGE ( 'NONE', *, *, #303, .T. ) ;
#238 = AXIS2_PLACEMENT_3D ( 'NONE', #540, #816, #721 ) ;
#239 = CARTESIAN_POINT ( 'NONE',  ( 4.501040342129853933, 4.000000000000000000, 53.63673867775209914 ) ) ;
#240 = ADVANCED_FACE ( 'NONE', ( #454 ), #762, .T. ) ;
#241 = DIRECTION ( 'NONE',  ( 0.000000000000000000, 0.000000000000000000, -1.000000000000000000 ) ) ;
#242 = CARTESIAN_POINT ( 'NONE',  ( -2.633465322168698997, 4.000000000000000000, -1.888725956252100603E-16 ) ) ;
#243 = ORIENTED_EDGE ( 'NONE', *, *, #34, .F. ) ;
#244 = FACE_OUTER_BOUND ( 'NONE', #418, .T. ) ;
#245 = ORIENTED_EDGE ( 'NONE', *, *, #520, .T. ) ;
#246 = CARTESIAN_POINT ( 'NONE',  ( 4.501040342129853933, 0.000000000000000000, 53.63673867775209914 ) ) ;
#247 = DIRECTION ( 'NONE',  ( 0.000000000000000000, -1.000000000000000000, 0.000000000000000000 ) ) ;
#248 = VERTEX_POINT ( 'NONE', #653 ) ;
#249 = EDGE_CURVE ( 'NONE', #96, #252, #736, .T. ) ;
#250 = FACE_BOUND ( 'NONE', #1185, .T. ) ;
#251 = CARTESIAN_POINT ( 'NONE',  ( 2.744703232597483833, 0.000000000000000000, 33.08879392683450504 ) ) ;
#252 = VERTEX_POINT ( 'NONE', #277 ) ;
#253 = FACE_OUTER_BOUND ( 'NONE', #307, .T. ) ;
#254 = EDGE_LOOP ( 'NONE', ( #375, #1083, #601, #826 ) ) ;
#255 = CARTESIAN_POINT ( 'NONE',  ( -2.633465322168699885, 0.000000000000000000, 12.74882947942384703 ) ) ;
#256 = VERTEX_POINT ( 'NONE', #372 ) ;
#257 = VECTOR ( 'NONE', #640, 1000.000000000000000 ) ;
#258 = DIRECTION ( 'NONE',  ( 0.000000000000000000, -1.000000000000000000, 0.000000000000000000 ) ) ;
#259 = AXIS2_PLACEMENT_3D ( 'NONE', #391, #23, #310 ) ;
#260 = AXIS2_PLACEMENT_3D ( 'NONE', #948, #689, #967 ) ;
#261 = DIRECTION ( 'NONE',  ( 0.000000000000000000, -1.000000000000000000, 0.000000000000000000 ) ) ;
#262 = CYLINDRICAL_SURFACE ( 'NONE', #417, 1.000000000000000888 ) ;
#263 = ORIENTED_EDGE ( 'NONE', *, *, #528, .F. ) ;
#264 = EDGE_CURVE ( 'NONE', #1086, #1131, #553, .T. ) ;
#265 = ORIENTED_EDGE ( 'NONE', *, *, #376, .F. ) ;
#266 = CARTESIAN_POINT ( 'NONE',  ( 0.000000000000000000, 4.000000000000000000, 0.000000000000000000 ) ) ;
#267 = CARTESIAN_POINT ( 'NONE',  ( -2.255296767402517055, 4.000000000000000000, 29.11873348107412340 ) ) ;
#268 = CARTESIAN_POINT ( 'NONE',  ( 4.366534677831306333, 4.000000000000000000, -16.71888992518423578 ) ) ;
#269 = ORIENTED_EDGE ( 'NONE', *, *, #291, .T. ) ;
#270 = CARTESIAN_POINT ( 'NONE',  ( 9.366534677831291233, 4.000000000000000000, -57.50000000000000000 ) ) ;
#271 = ORIENTED_EDGE ( 'NONE', *, *, #737, .F. ) ;
#272 =( NAMED_UNIT ( * ) SI_UNIT ( $, .STERADIAN. ) SOLID_ANGLE_UNIT ( ) );
#273 = CARTESIAN_POINT ( 'NONE',  ( -2.633465322168699885, 0.000000000000000000, -12.74882947942384703 ) ) ;
#274 = FACE_OUTER_BOUND ( 'NONE', #618, .T. ) ;
#275 = VERTEX_POINT ( 'NONE', #930 ) ;
#276 = DIRECTION ( 'NONE',  ( -0.7831511052909407855, 0.000000000000000000, -0.6218314452338171705 ) ) ;
#277 = CARTESIAN_POINT ( 'NONE',  ( -2.633465322168701217, 0.000000000000000000, -28.33558237578317929 ) ) ;
#278 = AXIS2_PLACEMENT_3D ( 'NONE', #712, #705, #896 ) ;
#279 = CARTESIAN_POINT ( 'NONE',  ( 3.988366123065122615, 0.000000000000000000, -15.93573881989329344 ) ) ;
#280 = CIRCLE ( 'NONE', #88, 3.000000000000002665 ) ;
#281 = AXIS2_PLACEMENT_3D ( 'NONE', #285, #292, #870 ) ;
#282 = DIRECTION ( 'NONE',  ( -0.000000000000000000, -1.000000000000000000, 0.000000000000000000 ) ) ;
#283 = ORIENTED_EDGE ( 'NONE', *, *, #335, .F. ) ;
#284 = FACE_OUTER_BOUND ( 'NONE', #435, .T. ) ;
#285 = CARTESIAN_POINT ( 'NONE',  ( -1.633465322168700107, 4.000000000000000000, -12.74882947942384703 ) ) ;
#286 = ORIENTED_EDGE ( 'NONE', *, *, #126, .T. ) ;
#287 = DIRECTION ( 'NONE',  ( 0.000000000000000000, 1.000000000000000000, 0.000000000000000000 ) ) ;
#288 = DIRECTION ( 'NONE',  ( 0.000000000000000000, 1.000000000000000000, -0.000000000000000000 ) ) ;
#289 = ORIENTED_EDGE ( 'NONE', *, *, #126, .F. ) ;
#290 = EDGE_LOOP ( 'NONE', ( #1073, #403, #347, #1090 ) ) ;
#291 = EDGE_CURVE ( 'NONE', #726, #879, #85, .T. ) ;
#292 = DIRECTION ( 'NONE',  ( -0.000000000000000000, -1.000000000000000000, 0.000000000000000000 ) ) ;
#293 = VECTOR ( 'NONE', #636, 1000.000000000000000 ) ;
#294 = AXIS2_PLACEMENT_3D ( 'NONE', #467, #839, #18 ) ;
#295 = VECTOR ( 'NONE', #80, 1000.000000000000000 ) ;
#296 = ORIENTED_EDGE ( 'NONE', *, *, #249, .T. ) ;
#297 = EDGE_LOOP ( 'NONE', ( #508, #451, #321, #60 ) ) ;
#298 = EDGE_CURVE ( 'NONE', #1078, #1057, #924, .T. ) ;
#299 = PLANE ( 'NONE',  #1178 ) ;
#300 = FACE_OUTER_BOUND ( 'NONE', #730, .T. ) ;
#301 = PRODUCT_DEFINITION_SHAPE ( 'NONE', 'NONE',  #1125 ) ;
#302 = ORIENTED_EDGE ( 'NONE', *, *, #866, .T. ) ;
#303 = EDGE_CURVE ( 'NONE', #874, #1049, #1154, .T. ) ;
#304 = ORIENTED_EDGE ( 'NONE', *, *, #1096, .F. ) ;
#305 = EDGE_CURVE ( 'NONE', #1049, #874, #833, .T. ) ;
#306 = CARTESIAN_POINT ( 'NONE',  ( -15.05253870729139898, 4.000000000000000000, -18.95756867299838433 ) ) ;
#307 = EDGE_LOOP ( 'NONE', ( #210, #897, #608, #946 ) ) ;
#308 = CARTESIAN_POINT ( 'NONE',  ( 0.3665346778313051113, 4.000000000000000000, 38.49832061887032353 ) ) ;
#309 = ADVANCED_FACE ( 'NONE', ( #1030 ), #837, .F. ) ;
#310 = DIRECTION ( 'NONE',  ( 0.000000000000000000, 0.000000000000000000, -1.000000000000000000 ) ) ;
#311 = CIRCLE ( 'NONE', #622, 1.000000000000000888 ) ;
#312 = VECTOR ( 'NONE', #846, 1000.000000000000000 ) ;
#313 = ORIENTED_EDGE ( 'NONE', *, *, #488, .F. ) ;
#314 = AXIS2_PLACEMENT_3D ( 'NONE', #266, #258, #546 ) ;
#315 = AXIS2_PLACEMENT_3D ( 'NONE', #8, #956, #583 ) ;
#316 = VERTEX_POINT ( 'NONE', #92 ) ;
#317 = DIRECTION ( 'NONE',  ( 0.000000000000000000, 0.000000000000000000, 1.000000000000000000 ) ) ;
#318 = CYLINDRICAL_SURFACE ( 'NONE', #1003, 1.000000000000000888 ) ;
#319 = CARTESIAN_POINT ( 'NONE',  ( 2.744703232597483833, 4.000000000000000000, -33.08879392683450504 ) ) ;
#320 = CARTESIAN_POINT ( 'NONE',  ( 0.000000000000000000, 0.000000000000000000, 0.000000000000000000 ) ) ;
#321 = ORIENTED_EDGE ( 'NONE', *, *, #354, .F. ) ;
#322 = DIRECTION ( 'NONE',  ( 0.000000000000000000, 0.000000000000000000, -1.000000000000000000 ) ) ;
#323 = DIRECTION ( 'NONE',  ( 0.000000000000000000, 0.000000000000000000, -1.000000000000000000 ) ) ;
#324 = DIRECTION ( 'NONE',  ( 0.000000000000000000, -1.000000000000000000, 0.000000000000000000 ) ) ;
#325 = PLANE ( 'NONE',  #197 ) ;
#326 = ORIENTED_EDGE ( 'NONE', *, *, #496, .T. ) ;
#327 = LINE ( 'NONE', #709, #1124 ) ;
#328 = DIRECTION ( 'NONE',  ( -0.000000000000000000, 1.000000000000000000, -0.000000000000000000 ) ) ;
#329 = DIRECTION ( 'NONE',  ( 0.000000000000000000, 0.000000000000000000, -1.000000000000000000 ) ) ;
#330 = EDGE_LOOP ( 'NONE', ( #155, #504, #754, #626 ) ) ;
#331 = FACE_BOUND ( 'NONE', #1150, .T. ) ;
#332 = VECTOR ( 'NONE', #79, 1000.000000000000000 ) ;
#333 = ORIENTED_EDGE ( 'NONE', *, *, #226, .T. ) ;
#334 = AXIS2_PLACEMENT_3D ( 'NONE', #797, #130, #611 ) ;
#335 = EDGE_CURVE ( 'NONE', #349, #565, #1140, .T. ) ;
#336 = VECTOR ( 'NONE', #838, 1000.000000000000000 ) ;
#337 = LINE ( 'NONE', #232, #913 ) ;
#338 = EDGE_CURVE ( 'NONE', #891, #211, #697, .T. ) ;
#339 = CARTESIAN_POINT ( 'NONE',  ( 0.000000000000000000, 0.000000000000000000, 0.000000000000000000 ) ) ;
#340 = FACE_OUTER_BOUND ( 'NONE', #330, .T. ) ;
#341 = EDGE_LOOP ( 'NONE', ( #639, #137, #840, #1184 ) ) ;
#342 = LINE ( 'NONE', #529, #933 ) ;
#343 = DIRECTION ( 'NONE',  ( 0.000000000000000000, -1.000000000000000000, 0.000000000000000000 ) ) ;
#344 = VERTEX_POINT ( 'NONE', #943 ) ;
#345 = DIRECTION ( 'NONE',  ( 0.6218314452338171705, 0.000000000000000000, -0.7831511052909407855 ) ) ;
#346 = DIRECTION ( 'NONE',  ( -3.825076037726506764E-16, 0.000000000000000000, -1.000000000000000000 ) ) ;
#347 = ORIENTED_EDGE ( 'NONE', *, *, #1105, .F. ) ;
#348 = DIRECTION ( 'NONE',  ( 0.000000000000000000, 0.000000000000000000, -1.000000000000000000 ) ) ;
#349 = VERTEX_POINT ( 'NONE', #658 ) ;
#350 = FACE_BOUND ( 'NONE', #38, .T. ) ;
#351 = CARTESIAN_POINT ( 'NONE',  ( 4.501040342129857486, 4.000000000000000000, -53.63673867775217730 ) ) ;
#352 = DIRECTION ( 'NONE',  ( -3.825076037726507257E-16, 0.000000000000000000, 1.000000000000000000 ) ) ;
#353 = ORIENTED_EDGE ( 'NONE', *, *, #171, .T. ) ;
#354 = EDGE_CURVE ( 'NONE', #883, #457, #502, .T. ) ;
#355 = EDGE_CURVE ( 'NONE', #1141, #316, #623, .T. ) ;
#356 = DIRECTION ( 'NONE',  ( 0.000000000000000000, -1.000000000000000000, 0.000000000000000000 ) ) ;
#357 = EDGE_LOOP ( 'NONE', ( #974, #811, #189, #1067, #602, #515, #83, #594, #1098 ) ) ;
#358 = AXIS2_PLACEMENT_3D ( 'NONE', #633, #809, #997 ) ;
#359 = FACE_BOUND ( 'NONE', #905, .T. ) ;
#360 =( GEOMETRIC_REPRESENTATION_CONTEXT ( 3 ) GLOBAL_UNCERTAINTY_ASSIGNED_CONTEXT ( ( #98 ) ) GLOBAL_UNIT_ASSIGNED_CONTEXT ( ( #1186, #917, #272 ) ) REPRESENTATION_CONTEXT ( 'NONE', 'WORKASPACE' ) );
#361 = CIRCLE ( 'NONE', #1044, 1.000000000000000888 ) ;
#362 = AXIS2_PLACEMENT_3D ( 'NONE', #398, #191, #123 ) ;
#363 = DIRECTION ( 'NONE',  ( 0.000000000000000000, 0.000000000000000000, -1.000000000000000000 ) ) ;
#364 = CARTESIAN_POINT ( 'NONE',  ( 9.366534677831303668, 4.000000000000000000, 57.50000000000000000 ) ) ;
#365 = VERTEX_POINT ( 'NONE', #273 ) ;
#366 = ADVANCED_FACE ( 'NONE', ( #284 ), #570, .F. ) ;
#367 = DIRECTION ( 'NONE',  ( 0.000000000000000000, 1.000000000000000000, -0.000000000000000000 ) ) ;
#368 = VERTEX_POINT ( 'NONE', #947 ) ;
#369 = APPLICATION_CONTEXT ( 'automotive_design' ) ;
#370 = CARTESIAN_POINT ( 'NONE',  ( 9.366534677831291233, 4.000000000000000000, -51.28728536187934139 ) ) ;
#371 = ORIENTED_EDGE ( 'NONE', *, *, #6, .F. ) ;
#372 = CARTESIAN_POINT ( 'NONE',  ( 4.366534677831306333, 4.000000000000000000, -16.71888992518423578 ) ) ;
#373 = DIRECTION ( 'NONE',  ( 0.7831511052909407855, -0.000000000000000000, 0.6218314452338171705 ) ) ;
#374 = CARTESIAN_POINT ( 'NONE',  ( -1.633465322168701217, 10.00000000000000000, -28.33558237578317929 ) ) ;
#375 = ORIENTED_EDGE ( 'NONE', *, *, #651, .F. ) ;
#376 = EDGE_CURVE ( 'NONE', #735, #770, #664, .T. ) ;
#377 = PLANE ( 'NONE',  #949 ) ;
#378 = LINE ( 'NONE', #847, #1199 ) ;
#379 = DIRECTION ( 'NONE',  ( -0.000000000000000000, 1.000000000000000000, -0.000000000000000000 ) ) ;
#380 = ORIENTED_EDGE ( 'NONE', *, *, #21, .T. ) ;
#381 = CARTESIAN_POINT ( 'NONE',  ( 3.366534677831300559, 4.000000000000000000, 32.30564282154356448 ) ) ;
#382 = VECTOR ( 'NONE', #1163, 1000.000000000000000 ) ;
#383 = CYLINDRICAL_SURFACE ( 'NONE', #665, 1.000000000000000888 ) ;
#384 = CIRCLE ( 'NONE', #699, 1.000000000000000888 ) ;
#385 = CIRCLE ( 'NONE', #851, 1.000000000000000888 ) ;
#386 = DIRECTION ( 'NONE',  ( -0.7831511052909406745, 0.000000000000000000, -0.6218314452338172815 ) ) ;
#387 = VERTEX_POINT ( 'NONE', #255 ) ;
#388 = CARTESIAN_POINT ( 'NONE',  ( 6.366534677831303668, 4.000000000000000000, 51.28728536187928455 ) ) ;
#389 = CARTESIAN_POINT ( 'NONE',  ( 4.366534677831301003, 4.000000000000000000, 32.30564282154356448 ) ) ;
#390 = EDGE_CURVE ( 'NONE', #981, #963, #105, .T. ) ;
#391 = CARTESIAN_POINT ( 'NONE',  ( 6.366534677831293010, 4.000000000000000000, -51.28728536187934139 ) ) ;
#392 = ORIENTED_EDGE ( 'NONE', *, *, #148, .F. ) ;
#393 = CARTESIAN_POINT ( 'NONE',  ( -2.633465322168701217, 4.000000000000000000, -28.33558237578317929 ) ) ;
#394 = DIRECTION ( 'NONE',  ( 0.000000000000000000, 0.000000000000000000, 1.000000000000000000 ) ) ;
#395 = ORIENTED_EDGE ( 'NONE', *, *, #637, .F. ) ;
#396 = EDGE_CURVE ( 'NONE', #565, #349, #1198, .T. ) ;
#397 = APPLICATION_PROTOCOL_DEFINITION ( 'draft international standard', 'automotive_design', 1998, #563 ) ;
#398 = CARTESIAN_POINT ( 'NONE',  ( 3.366534677831300559, 10.00000000000000000, -32.30564282154356448 ) ) ;
#399 = VECTOR ( 'NONE', #328, 1000.000000000000000 ) ;
#400 = AXIS2_PLACEMENT_3D ( 'NONE', #990, #144, #898 ) ;
#401 = AXIS2_PLACEMENT_3D ( 'NONE', #270, #62, #1200 ) ;
#402 = AXIS2_PLACEMENT_3D ( 'NONE', #1035, #1133, #20 ) ;
#403 = ORIENTED_EDGE ( 'NONE', *, *, #614, .F. ) ;
#404 = CARTESIAN_POINT ( 'NONE',  ( -1.011633876934879384, 4.000000000000000000, 11.96567837413290825 ) ) ;
#405 = ORIENTED_EDGE ( 'NONE', *, *, #975, .F. ) ;
#406 = ORIENTED_EDGE ( 'NONE', *, *, #1037, .F. ) ;
#407 = EDGE_CURVE ( 'NONE', #655, #37, #805, .T. ) ;
#408 = CARTESIAN_POINT ( 'NONE',  ( 3.366534677831300559, 10.00000000000000000, 32.30564282154356448 ) ) ;
#409 = ADVANCED_FACE ( 'NONE', ( #739 ), #557, .F. ) ;
#410 = ORIENTED_EDGE ( 'NONE', *, *, #113, .F. ) ;
#411 = VERTEX_POINT ( 'NONE', #927 ) ;
#412 = LINE ( 'NONE', #39, #56 ) ;
#413 = DIRECTION ( 'NONE',  ( 0.000000000000000000, 1.000000000000000000, -0.000000000000000000 ) ) ;
#414 = DIRECTION ( 'NONE',  ( 7.172017570737198334E-17, 0.000000000000000000, -1.000000000000000000 ) ) ;
#415 = AXIS2_PLACEMENT_3D ( 'NONE', #1130, #188, #193 ) ;
#416 = LINE ( 'NONE', #136, #566 ) ;
#417 = AXIS2_PLACEMENT_3D ( 'NONE', #1031, #750, #163 ) ;
#418 = EDGE_LOOP ( 'NONE', ( #164, #533, #101, #194 ) ) ;
#419 = CARTESIAN_POINT ( 'NONE',  ( 3.366534677831300559, 4.000000000000000000, 32.30564282154356448 ) ) ;
#420 = DIRECTION ( 'NONE',  ( -0.000000000000000000, 1.000000000000000000, -0.000000000000000000 ) ) ;
#421 = DIRECTION ( 'NONE',  ( -0.000000000000000000, 1.000000000000000000, -0.000000000000000000 ) ) ;
#422 = EDGE_CURVE ( 'NONE', #989, #745, #934, .T. ) ;
#423 = ORIENTED_EDGE ( 'NONE', *, *, #986, .F. ) ;
#424 = DIRECTION ( 'NONE',  ( 0.000000000000000000, -1.000000000000000000, 0.000000000000000000 ) ) ;
#425 = LINE ( 'NONE', #351, #1173 ) ;
#426 = AXIS2_PLACEMENT_3D ( 'NONE', #787, #702, #317 ) ;
#427 = CARTESIAN_POINT ( 'NONE',  ( -7.633465322168695444, 4.000000000000000000, 42.55315238120643784 ) ) ;
#428 = DIRECTION ( 'NONE',  ( 0.000000000000000000, -1.000000000000000000, 0.000000000000000000 ) ) ;
#429 = EDGE_CURVE ( 'NONE', #693, #926, #280, .T. ) ;
#430 = DIRECTION ( 'NONE',  ( 0.000000000000000000, 0.000000000000000000, -1.000000000000000000 ) ) ;
#431 = ORIENTED_EDGE ( 'NONE', *, *, #690, .T. ) ;
#432 = CARTESIAN_POINT ( 'NONE',  ( 9.366534677831291233, 0.000000000000000000, -51.28728536187934139 ) ) ;
#433 = CARTESIAN_POINT ( 'NONE',  ( 0.000000000000000000, 10.00000000000000000, -1.499999999999999556 ) ) ;
#434 = DIRECTION ( 'NONE',  ( 1.000000000000000000, 0.000000000000000000, -3.825076037726506764E-16 ) ) ;
#435 = EDGE_LOOP ( 'NONE', ( #203, #1028, #765, #185 ) ) ;
#436 = DIRECTION ( 'NONE',  ( -0.000000000000000000, 1.000000000000000000, -0.000000000000000000 ) ) ;
#437 = CARTESIAN_POINT ( 'NONE',  ( 3.988366123065122615, 0.000000000000000000, -15.93573881989329344 ) ) ;
#438 = ORIENTED_EDGE ( 'NONE', *, *, #354, .T. ) ;
#439 = VECTOR ( 'NONE', #1132, 1000.000000000000000 ) ;
#440 = CIRCLE ( 'NONE', #590, 1.000000000000000888 ) ;
#441 = FACE_BOUND ( 'NONE', #713, .T. ) ;
#442 = CARTESIAN_POINT ( 'NONE',  ( -4.633465322168694556, 4.000000000000000000, 42.55315238120644494 ) ) ;
#443 = DIRECTION ( 'NONE',  ( 0.7831511052909406745, -0.000000000000000000, -0.6218314452338172815 ) ) ;
#444 = VERTEX_POINT ( 'NONE', #564 ) ;
#445 = ORIENTED_EDGE ( 'NONE', *, *, #711, .T. ) ;
#446 = DIRECTION ( 'NONE',  ( 0.000000000000000000, 0.000000000000000000, 1.000000000000000000 ) ) ;
#447 = FACE_OUTER_BOUND ( 'NONE', #297, .T. ) ;
#448 = DIRECTION ( 'NONE',  ( 0.000000000000000000, 0.000000000000000000, -1.000000000000000000 ) ) ;
#449 = VERTEX_POINT ( 'NONE', #437 ) ;
#450 = CARTESIAN_POINT ( 'NONE',  ( -1.633465322168700107, 4.000000000000000000, -12.74882947942384703 ) ) ;
#451 = ORIENTED_EDGE ( 'NONE', *, *, #195, .T. ) ;
#452 = EDGE_CURVE ( 'NONE', #920, #81, #1180, .T. ) ;
#453 = SURFACE_SIDE_STYLE ('',( #551 ) ) ;
#454 = FACE_OUTER_BOUND ( 'NONE', #63, .T. ) ;
#455 = ADVANCED_FACE ( 'NONE', ( #71 ), #484, .F. ) ;
#456 = DIRECTION ( 'NONE',  ( -0.000000000000000000, 1.000000000000000000, -0.000000000000000000 ) ) ;
#457 = VERTEX_POINT ( 'NONE', #672 ) ;
#458 = CARTESIAN_POINT ( 'NONE',  ( 6.366534677831293010, 4.000000000000000000, -51.28728536187934139 ) ) ;
#459 = ORIENTED_EDGE ( 'NONE', *, *, #724, .F. ) ;
#460 = VECTOR ( 'NONE', #865, 1000.000000000000000 ) ;
#461 = LINE ( 'NONE', #370, #1006 ) ;
#462 =( GEOMETRIC_REPRESENTATION_CONTEXT ( 3 ) GLOBAL_UNCERTAINTY_ASSIGNED_CONTEXT ( ( #1127 ) ) GLOBAL_UNIT_ASSIGNED_CONTEXT ( ( #663, #1022, #938 ) ) REPRESENTATION_CONTEXT ( 'NONE', 'WORKASPACE' ) );
#463 = CIRCLE ( 'NONE', #415, 1.000000000000000888 ) ;
#464 = AXIS2_PLACEMENT_3D ( 'NONE', #973, #53, #634 ) ;
#465 = DIRECTION ( 'NONE',  ( 0.000000000000000000, 0.000000000000000000, 1.000000000000000000 ) ) ;
#466 = LINE ( 'NONE', #364, #625 ) ;
#467 = CARTESIAN_POINT ( 'NONE',  ( -1.633465322168699885, 0.000000000000000000, 12.74882947942384703 ) ) ;
#468 = ORIENTED_EDGE ( 'NONE', *, *, #34, .T. ) ;
#469 = EDGE_CURVE ( 'NONE', #726, #248, #857, .T. ) ;
#470 = DIRECTION ( 'NONE',  ( 0.000000000000000000, 0.000000000000000000, -1.000000000000000000 ) ) ;
#471 = CARTESIAN_POINT ( 'NONE',  ( -2.633465322168701217, 0.000000000000000000, 28.33558237578318284 ) ) ;
#472 = DIRECTION ( 'NONE',  ( 0.000000000000000000, 1.000000000000000000, -0.000000000000000000 ) ) ;
#473 = VERTEX_POINT ( 'NONE', #95 ) ;
#474 = CARTESIAN_POINT ( 'NONE',  ( 0.3665346778313049447, 4.000000000000000000, 39.99832061887032353 ) ) ;
#475 = DIRECTION ( 'NONE',  ( 0.7831511052909407855, -0.000000000000000000, 0.6218314452338171705 ) ) ;
#476 = ORIENTED_EDGE ( 'NONE', *, *, #108, .F. ) ;
#477 = VECTOR ( 'NONE', #48, 1000.000000000000000 ) ;
#478 = CARTESIAN_POINT ( 'NONE',  ( 4.501040342129854821, 4.000000000000000000, 53.63673867775209914 ) ) ;
#479 = AXIS2_PLACEMENT_3D ( 'NONE', #574, #446, #593 ) ;
#480 = AXIS2_PLACEMENT_3D ( 'NONE', #381, #749, #1115 ) ;
#481 = LINE ( 'NONE', #507, #682 ) ;
#482 = ADVANCED_FACE ( 'NONE', ( #660 ), #764, .F. ) ;
#483 = AXIS2_PLACEMENT_3D ( 'NONE', #167, #641, #940 ) ;
#484 = CYLINDRICAL_SURFACE ( 'NONE', #66, 1.500000000000001332 ) ;
#485 = ORIENTED_EDGE ( 'NONE', *, *, #355, .T. ) ;
#486 = SHAPE_DEFINITION_REPRESENTATION ( #301, #957 ) ;
#487 = DIRECTION ( 'NONE',  ( 1.000000000000000000, 0.000000000000000000, -7.884785137984478595E-17 ) ) ;
#488 = EDGE_CURVE ( 'NONE', #81, #1086, #223, .T. ) ;
#489 = DIRECTION ( 'NONE',  ( 0.000000000000000000, 1.000000000000000000, 0.000000000000000000 ) ) ;
#490 = ORIENTED_EDGE ( 'NONE', *, *, #895, .F. ) ;
#491 = ORIENTED_EDGE ( 'NONE', *, *, #1105, .T. ) ;
#492 = EDGE_CURVE ( 'NONE', #879, #693, #788, .T. ) ;
#493 = DIRECTION ( 'NONE',  ( 0.000000000000000000, 1.000000000000000000, 0.000000000000000000 ) ) ;
#494 = ADVANCED_FACE ( 'NONE', ( #941 ), #698, .F. ) ;
#495 = CARTESIAN_POINT ( 'NONE',  ( -15.05253870729139898, 4.000000000000000000, 18.95756867299838433 ) ) ;
#496 = EDGE_CURVE ( 'NONE', #91, #387, #218, .T. ) ;
#497 = VERTEX_POINT ( 'NONE', #1205 ) ;
#498 = ORIENTED_EDGE ( 'NONE', *, *, #807, .T. ) ;
#499 = CARTESIAN_POINT ( 'NONE',  ( 2.744703232597483833, 4.000000000000000000, 33.08879392683450504 ) ) ;
#500 = VECTOR ( 'NONE', #1187, 1000.000000000000000 ) ;
#501 = VECTOR ( 'NONE', #1118, 1000.000000000000000 ) ;
#502 = CIRCLE ( 'NONE', #480, 1.000000000000000888 ) ;
#503 = AXIS2_PLACEMENT_3D ( 'NONE', #842, #825, #3 ) ;
#504 = ORIENTED_EDGE ( 'NONE', *, *, #492, .F. ) ;
#505 = EDGE_LOOP ( 'NONE', ( #219, #19, #380, #45 ) ) ;
#506 = EDGE_CURVE ( 'NONE', #928, #151, #577, .T. ) ;
#507 = CARTESIAN_POINT ( 'NONE',  ( -2.633465322168699885, 0.000000000000000000, 10.67792460005027344 ) ) ;
#508 = ORIENTED_EDGE ( 'NONE', *, *, #747, .F. ) ;
#509 = EDGE_CURVE ( 'NONE', #449, #206, #753, .T. ) ;
#510 = EDGE_LOOP ( 'NONE', ( #143, #1135 ) ) ;
#511 = DIRECTION ( 'NONE',  ( -0.000000000000000000, -1.000000000000000000, 0.000000000000000000 ) ) ;
#512 = CARTESIAN_POINT ( 'NONE',  ( 2.744703232597483833, 0.000000000000000000, -33.08879392683450504 ) ) ;
#513 = LINE ( 'NONE', #727, #696 ) ;
#514 = EDGE_CURVE ( 'NONE', #444, #206, #385, .T. ) ;
#515 = ORIENTED_EDGE ( 'NONE', *, *, #961, .T. ) ;
#516 = CARTESIAN_POINT ( 'NONE',  ( -2.633465322168699885, 0.000000000000000000, -12.74882947942384703 ) ) ;
#517 = ADVANCED_FACE ( 'NONE', ( #843 ), #13, .F. ) ;
#518 = CARTESIAN_POINT ( 'NONE',  ( 9.366534677831291233, 4.000000000000000000, -57.50000000000000000 ) ) ;
#519 = CYLINDRICAL_SURFACE ( 'NONE', #987, 3.000000000000002665 ) ;
#520 = EDGE_CURVE ( 'NONE', #1131, #942, #911, .T. ) ;
#521 = PRODUCT_DEFINITION_FORMATION_WITH_SPECIFIED_SOURCE ( 'ANY', '', #962, .NOT_KNOWN. ) ;
#522 = CIRCLE ( 'NONE', #1104, 3.000000000000002665 ) ;
#523 = DIRECTION ( 'NONE',  ( 0.000000000000000000, -0.000000000000000000, -1.000000000000000000 ) ) ;
#524 = CIRCLE ( 'NONE', #1142, 3.000000000000002665 ) ;
#525 = VERTEX_POINT ( 'NONE', #769 ) ;
#526 = DIRECTION ( 'NONE',  ( -0.000000000000000000, -1.000000000000000000, -0.000000000000000000 ) ) ;
#527 = FACE_OUTER_BOUND ( 'NONE', #746, .T. ) ;
#528 = EDGE_CURVE ( 'NONE', #368, #411, #463, .T. ) ;
#529 = CARTESIAN_POINT ( 'NONE',  ( -2.633465322168699885, 4.000000000000000000, 12.74882947942384703 ) ) ;
#530 = EDGE_LOOP ( 'NONE', ( #650, #780, #405, #333 ) ) ;
#531 = FACE_OUTER_BOUND ( 'NONE', #55, .T. ) ;
#532 = LINE ( 'NONE', #427, #835 ) ;
#533 = ORIENTED_EDGE ( 'NONE', *, *, #706, .T. ) ;
#534 = CARTESIAN_POINT ( 'NONE',  ( 2.744703232597483833, 0.000000000000000000, 33.08879392683450504 ) ) ;
#535 = ORIENTED_EDGE ( 'NONE', *, *, #215, .T. ) ;
#536 = CARTESIAN_POINT ( 'NONE',  ( -1.633465322168700107, 0.000000000000000000, -12.74882947942384703 ) ) ;
#537 = DIRECTION ( 'NONE',  ( 0.000000000000000000, 1.000000000000000000, -0.000000000000000000 ) ) ;
#538 = VERTEX_POINT ( 'NONE', #584 ) ;
#539 = AXIS2_PLACEMENT_3D ( 'NONE', #474, #186, #363 ) ;
#540 = CARTESIAN_POINT ( 'NONE',  ( -1.633465322168699885, 4.000000000000000000, 12.74882947942384703 ) ) ;
#541 = ORIENTED_EDGE ( 'NONE', *, *, #208, .T. ) ;
#542 = AXIS2_PLACEMENT_3D ( 'NONE', #695, #794, #1063 ) ;
#543 = VECTOR ( 'NONE', #1156, 1000.000000000000000 ) ;
#544 = ADVANCED_FACE ( 'NONE', ( #1134 ), #201, .F. ) ;
#545 = VECTOR ( 'NONE', #475, 1000.000000000000000 ) ;
#546 = DIRECTION ( 'NONE',  ( 0.000000000000000000, -0.000000000000000000, -1.000000000000000000 ) ) ;
#547 = LINE ( 'NONE', #647, #500 ) ;
#548 = PLANE ( 'NONE',  #503 ) ;
#549 = ORIENTED_EDGE ( 'NONE', *, *, #686, .F. ) ;
#550 = ORIENTED_EDGE ( 'NONE', *, *, #581, .F. ) ;
#551 = SURFACE_STYLE_FILL_AREA ( #652 ) ;
#552 = EDGE_CURVE ( 'NONE', #81, #1153, #588, .T. ) ;
#553 = LINE ( 'NONE', #267, #912 ) ;
#554 = CARTESIAN_POINT ( 'NONE',  ( 4.366534677831306333, 0.000000000000000000, 16.71888992518423578 ) ) ;
#555 = ORIENTED_EDGE ( 'NONE', *, *, #552, .F. ) ;
#556 = EDGE_CURVE ( 'NONE', #96, #684, #42, .T. ) ;
#557 = PLANE ( 'NONE',  #401 ) ;
#558 = ORIENTED_EDGE ( 'NONE', *, *, #226, .F. ) ;
#559 = PRESENTATION_STYLE_ASSIGNMENT (( #1107 ) ) ;
#560 = DIRECTION ( 'NONE',  ( 0.000000000000000000, 1.000000000000000000, 0.000000000000000000 ) ) ;
#561 = LINE ( 'NONE', #659, #89 ) ;
#562 = EDGE_LOOP ( 'NONE', ( #395, #1139, #1050, #558 ) ) ;
#563 = APPLICATION_CONTEXT ( 'automotive_design' ) ;
#564 = CARTESIAN_POINT ( 'NONE',  ( -1.633465322168700107, 0.000000000000000000, -11.74882947942384703 ) ) ;
#565 = VERTEX_POINT ( 'NONE', #141 ) ;
#566 = VECTOR ( 'NONE', #719, 1000.000000000000000 ) ;
#567 = AXIS2_PLACEMENT_3D ( 'NONE', #73, #345, #276 ) ;
#568 = AXIS2_PLACEMENT_3D ( 'NONE', #1010, #1191, #638 ) ;
#569 = VECTOR ( 'NONE', #26, 1000.000000000000000 ) ;
#570 = PLANE ( 'NONE',  #605 ) ;
#571 = CARTESIAN_POINT ( 'NONE',  ( 1.836970198721029441E-16, 4.000000000000000000, 1.499999999999999556 ) ) ;
#572 = CARTESIAN_POINT ( 'NONE',  ( 9.366534677831303668, 4.000000000000000000, 51.28728536187928455 ) ) ;
#573 = ORIENTED_EDGE ( 'NONE', *, *, #1038, .T. ) ;
#574 = CARTESIAN_POINT ( 'NONE',  ( 0.000000000000000000, 0.000000000000000000, 0.000000000000000000 ) ) ;
#575 = CARTESIAN_POINT ( 'NONE',  ( 0.3665346778313049447, 4.000000000000000000, -39.99832061887032353 ) ) ;
#576 = DIRECTION ( 'NONE',  ( 0.000000000000000000, 0.000000000000000000, 1.000000000000000000 ) ) ;
#577 = LINE ( 'NONE', #954, #869 ) ;
#578 = ORIENTED_EDGE ( 'NONE', *, *, #1170, .T. ) ;
#579 = EDGE_CURVE ( 'NONE', #344, #1045, #894, .T. ) ;
#580 = PRODUCT_CONTEXT ( 'NONE', #369, 'mechanical' ) ;
#581 = EDGE_CURVE ( 'NONE', #275, #473, #1089, .T. ) ;
#582 = DIRECTION ( 'NONE',  ( -0.000000000000000000, 1.000000000000000000, -0.000000000000000000 ) ) ;
#583 = DIRECTION ( 'NONE',  ( 0.000000000000000000, 0.000000000000000000, -1.000000000000000000 ) ) ;
#584 = CARTESIAN_POINT ( 'NONE',  ( 2.744703232597483833, 4.000000000000000000, -33.08879392683450504 ) ) ;
#585 = ORIENTED_EDGE ( 'NONE', *, *, #1000, .F. ) ;
#586 = AXIS2_PLACEMENT_3D ( 'NONE', #1039, #767, #830 ) ;
#587 = ADVANCED_FACE ( 'NONE', ( #527 ), #820, .F. ) ;
#588 = CIRCLE ( 'NONE', #334, 1.000000000000000888 ) ;
#589 = LINE ( 'NONE', #306, #968 ) ;
#590 = AXIS2_PLACEMENT_3D ( 'NONE', #763, #99, #1019 ) ;
#591 = DIRECTION ( 'NONE',  ( 0.000000000000000000, -1.000000000000000000, 0.000000000000000000 ) ) ;
#592 = ORIENTED_EDGE ( 'NONE', *, *, #766, .F. ) ;
#593 = DIRECTION ( 'NONE',  ( 1.000000000000000000, 0.000000000000000000, 0.000000000000000000 ) ) ;
#594 = ORIENTED_EDGE ( 'NONE', *, *, #212, .T. ) ;
#595 = DIRECTION ( 'NONE',  ( 0.000000000000000000, 0.000000000000000000, 1.000000000000000000 ) ) ;
#596 = EDGE_CURVE ( 'NONE', #783, #387, #1167, .T. ) ;
#597 = EDGE_LOOP ( 'NONE', ( #76, #821, #799, #535 ) ) ;
#598 = ORIENTED_EDGE ( 'NONE', *, *, #120, .F. ) ;
#599 = CARTESIAN_POINT ( 'NONE',  ( 3.988366123065127500, 4.000000000000000000, -15.93573881989329699 ) ) ;
#600 = CARTESIAN_POINT ( 'NONE',  ( 0.000000000000000000, 10.00000000000000000, 0.000000000000000000 ) ) ;
#601 = ORIENTED_EDGE ( 'NONE', *, *, #674, .F. ) ;
#602 = ORIENTED_EDGE ( 'NONE', *, *, #506, .T. ) ;
#603 = CARTESIAN_POINT ( 'NONE',  ( 0.3665346778313049447, 4.000000000000000000, 41.49832061887033063 ) ) ;
#604 = DIRECTION ( 'NONE',  ( -0.000000000000000000, -1.000000000000000000, 0.000000000000000000 ) ) ;
#605 = AXIS2_PLACEMENT_3D ( 'NONE', #841, #670, #1034 ) ;
#606 = CIRCLE ( 'NONE', #220, 1.500000000000001332 ) ;
#607 = ORIENTED_EDGE ( 'NONE', *, *, #700, .T. ) ;
#608 = ORIENTED_EDGE ( 'NONE', *, *, #305, .T. ) ;
#609 = LINE ( 'NONE', #139, #1155 ) ;
#610 = DIRECTION ( 'NONE',  ( 0.000000000000000000, 0.000000000000000000, -1.000000000000000000 ) ) ;
#611 = DIRECTION ( 'NONE',  ( -8.673617379884027583E-15, 0.000000000000000000, -1.000000000000000000 ) ) ;
#612 = ORIENTED_EDGE ( 'NONE', *, *, #686, .T. ) ;
#613 = ORIENTED_EDGE ( 'NONE', *, *, #690, .F. ) ;
#614 = EDGE_CURVE ( 'NONE', #684, #538, #909, .T. ) ;
#615 = DIRECTION ( 'NONE',  ( -0.000000000000000000, 1.000000000000000000, -0.000000000000000000 ) ) ;
#616 = CARTESIAN_POINT ( 'NONE',  ( -7.633465322168702549, 4.000000000000000000, -42.55315238120665100 ) ) ;
#617 = LINE ( 'NONE', #979, #849 ) ;
#618 = EDGE_LOOP ( 'NONE', ( #1171, #969, #549, #541 ) ) ;
#619 = DIRECTION ( 'NONE',  ( 0.000000000000000000, 1.000000000000000000, 0.000000000000000000 ) ) ;
#620 = DIRECTION ( 'NONE',  ( -7.172017570737198334E-17, 0.000000000000000000, -1.000000000000000000 ) ) ;
#621 = DIRECTION ( 'NONE',  ( -1.734723475976805517E-15, 0.000000000000000000, -1.000000000000000000 ) ) ;
#622 = AXIS2_PLACEMENT_3D ( 'NONE', #124, #413, #789 ) ;
#623 = CIRCLE ( 'NONE', #1121, 1.499999999999999556 ) ;
#624 = LINE ( 'NONE', #1072, #65 ) ;
#625 = VECTOR ( 'NONE', #373, 1000.000000000000000 ) ;
#626 = ORIENTED_EDGE ( 'NONE', *, *, #818, .F. ) ;
#627 = DIRECTION ( 'NONE',  ( 0.000000000000000000, -1.000000000000000000, 0.000000000000000000 ) ) ;
#628 = CARTESIAN_POINT ( 'NONE',  ( 0.3665346778313049447, 0.000000000000000000, -38.49832061887032353 ) ) ;
#629 = ORIENTED_EDGE ( 'NONE', *, *, #1088, .T. ) ;
#630 = FACE_OUTER_BOUND ( 'NONE', #673, .T. ) ;
#631 = EDGE_LOOP ( 'NONE', ( #731, #231, #1095, #1092 ) ) ;
#632 = FACE_OUTER_BOUND ( 'NONE', #119, .T. ) ;
#633 = CARTESIAN_POINT ( 'NONE',  ( 3.366534677831300559, 10.00000000000000000, 32.30564282154356448 ) ) ;
#634 = DIRECTION ( 'NONE',  ( 0.000000000000000000, 0.000000000000000000, -1.000000000000000000 ) ) ;
#635 = ORIENTED_EDGE ( 'NONE', *, *, #21, .F. ) ;
#636 = DIRECTION ( 'NONE',  ( 7.884785137984478595E-17, 0.000000000000000000, 1.000000000000000000 ) ) ;
#637 = EDGE_CURVE ( 'NONE', #1177, #525, #361, .T. ) ;
#638 = DIRECTION ( 'NONE',  ( 0.000000000000000000, 0.000000000000000000, 1.000000000000000000 ) ) ;
#639 = ORIENTED_EDGE ( 'NONE', *, *, #827, .F. ) ;
#640 = DIRECTION ( 'NONE',  ( 0.000000000000000000, 1.000000000000000000, 0.000000000000000000 ) ) ;
#641 = DIRECTION ( 'NONE',  ( 0.6218314452338173925, -0.000000000000000000, 0.7831511052909406745 ) ) ;
#642 = ORIENTED_EDGE ( 'NONE', *, *, #452, .T. ) ;
#643 = AXIS2_PLACEMENT_3D ( 'NONE', #339, #1093, #323 ) ;
#644 = AXIS2_PLACEMENT_3D ( 'NONE', #374, #489, #772 ) ;
#645 = ORIENTED_EDGE ( 'NONE', *, *, #338, .F. ) ;
#646 = APPLICATION_PROTOCOL_DEFINITION ( 'draft international standard', 'automotive_design', 1998, #369 ) ;
#647 = CARTESIAN_POINT ( 'NONE',  ( -2.633465322168701217, 0.000000000000000000, 28.33558237578318284 ) ) ;
#648 = DIRECTION ( 'NONE',  ( 0.000000000000000000, -1.000000000000000000, 0.000000000000000000 ) ) ;
#649 = ORIENTED_EDGE ( 'NONE', *, *, #134, .F. ) ;
#650 = ORIENTED_EDGE ( 'NONE', *, *, #556, .T. ) ;
#651 = EDGE_CURVE ( 'NONE', #225, #970, #522, .T. ) ;
#652 = FILL_AREA_STYLE ('',( #78 ) ) ;
#653 = CARTESIAN_POINT ( 'NONE',  ( 9.366534677831303668, 0.000000000000000000, 51.28728536187928455 ) ) ;
#654 = CARTESIAN_POINT ( 'NONE',  ( 4.366534677831301003, 0.000000000000000000, 32.30564282154356448 ) ) ;
#655 = VERTEX_POINT ( 'NONE', #985 ) ;
#656 = DIRECTION ( 'NONE',  ( -0.000000000000000000, -1.000000000000000000, 0.000000000000000000 ) ) ;
#657 = ORIENTED_EDGE ( 'NONE', *, *, #407, .T. ) ;
#658 = CARTESIAN_POINT ( 'NONE',  ( 0.3665346778313049447, 4.000000000000000000, -38.49832061887032353 ) ) ;
#659 = CARTESIAN_POINT ( 'NONE',  ( 4.366534677831306333, 0.000000000000000000, 16.23600922411481307 ) ) ;
#660 = FACE_OUTER_BOUND ( 'NONE', #562, .T. ) ;
#661 = ORIENTED_EDGE ( 'NONE', *, *, #514, .F. ) ;
#662 = VECTOR ( 'NONE', #436, 1000.000000000000000 ) ;
#663 =( LENGTH_UNIT ( ) NAMED_UNIT ( * ) SI_UNIT ( .MILLI., .METRE. ) );
#664 = CIRCLE ( 'NONE', #1007, 1.000000000000000888 ) ;
#665 = AXIS2_PLACEMENT_3D ( 'NONE', #1100, #75, #576 ) ;
#666 = CARTESIAN_POINT ( 'NONE',  ( 9.366534677831291233, 4.000000000000000000, -57.50000000000000000 ) ) ;
#667 = DIRECTION ( 'NONE',  ( 0.000000000000000000, -1.000000000000000000, 0.000000000000000000 ) ) ;
#668 = CARTESIAN_POINT ( 'NONE',  ( 4.366534677831306333, 10.00000000000000000, 16.23600922411481307 ) ) ;
#669 = ORIENTED_EDGE ( 'NONE', *, *, #980, .F. ) ;
#670 = DIRECTION ( 'NONE',  ( -1.000000000000000000, 0.000000000000000000, 1.055918637551099853E-16 ) ) ;
#671 = CARTESIAN_POINT ( 'NONE',  ( 0.3665346778313051113, -6.000000000000000000, -41.49832061887033063 ) ) ;
#672 = CARTESIAN_POINT ( 'NONE',  ( 3.366534677831300559, 4.000000000000000000, 33.30564282154356448 ) ) ;
#673 = EDGE_LOOP ( 'NONE', ( #1033, #431, #1106, #803, #14, #353, #1110, #573, #950 ) ) ;
#674 = EDGE_CURVE ( 'NONE', #868, #128, #1064, .T. ) ;
#675 = DIRECTION ( 'NONE',  ( -0.000000000000000000, -1.000000000000000000, 0.000000000000000000 ) ) ;
#676 = CARTESIAN_POINT ( 'NONE',  ( 4.501040342129856597, 4.000000000000000000, -53.63673867775217730 ) ) ;
#677 = EDGE_CURVE ( 'NONE', #128, #225, #532, .T. ) ;
#678 = ORIENTED_EDGE ( 'NONE', *, *, #1047, .F. ) ;
#679 = ADVANCED_FACE ( 'NONE', ( #715 ), #1082, .F. ) ;
#680 = AXIS2_PLACEMENT_3D ( 'NONE', #575, #560, #465 ) ;
#681 = LINE ( 'NONE', #671, #12 ) ;
#682 = VECTOR ( 'NONE', #36, 1000.000000000000227 ) ;
#683 = ORIENTED_EDGE ( 'NONE', *, *, #264, .T. ) ;
#684 = VERTEX_POINT ( 'NONE', #512 ) ;
#685 = DIRECTION ( 'NONE',  ( 8.673617379884027583E-16, 0.000000000000000000, -1.000000000000000000 ) ) ;
#686 = EDGE_CURVE ( 'NONE', #942, #981, #881, .T. ) ;
#687 = ORIENTED_EDGE ( 'NONE', *, *, #1047, .T. ) ;
#688 = VERTEX_POINT ( 'NONE', #628 ) ;
#689 = DIRECTION ( 'NONE',  ( -0.000000000000000000, -1.000000000000000000, 0.000000000000000000 ) ) ;
#690 = EDGE_CURVE ( 'NONE', #248, #1078, #524, .T. ) ;
#691 = DIRECTION ( 'NONE',  ( 0.000000000000000000, 0.000000000000000000, 1.000000000000000000 ) ) ;
#692 = ADVANCED_FACE ( 'NONE', ( #340 ), #519, .T. ) ;
#693 = VERTEX_POINT ( 'NONE', #998 ) ;
#694 = ORIENTED_EDGE ( 'NONE', *, *, #1097, .T. ) ;
#695 = CARTESIAN_POINT ( 'NONE',  ( 3.366534677831300559, 0.000000000000000000, -32.30564282154356448 ) ) ;
#696 = VECTOR ( 'NONE', #54, 1000.000000000000000 ) ;
#697 = CIRCLE ( 'NONE', #1081, 1.500000000000001332 ) ;
#698 = PLANE ( 'NONE',  #951 ) ;
#699 = AXIS2_PLACEMENT_3D ( 'NONE', #419, #64, #1151 ) ;
#700 = EDGE_CURVE ( 'NONE', #1045, #275, #70, .T. ) ;
#701 = VERTEX_POINT ( 'NONE', #1071 ) ;
#702 = DIRECTION ( 'NONE',  ( 0.000000000000000000, 1.000000000000000000, 0.000000000000000000 ) ) ;
#703 = DIRECTION ( 'NONE',  ( 0.000000000000000000, 1.000000000000000000, 0.000000000000000000 ) ) ;
#704 = DIRECTION ( 'NONE',  ( -0.000000000000000000, -1.000000000000000000, 0.000000000000000000 ) ) ;
#705 = DIRECTION ( 'NONE',  ( 0.000000000000000000, 1.000000000000000000, -0.000000000000000000 ) ) ;
#706 = EDGE_CURVE ( 'NONE', #693, #964, #49, .T. ) ;
#707 = VERTEX_POINT ( 'NONE', #654 ) ;
#708 = ADVANCED_FACE ( 'NONE', ( #253 ), #734, .F. ) ;
#709 = CARTESIAN_POINT ( 'NONE',  ( 3.988366123065125279, 4.000000000000000000, 15.93573881989329699 ) ) ;
#710 = DIRECTION ( 'NONE',  ( -0.000000000000000000, 1.000000000000000000, -0.000000000000000000 ) ) ;
#711 = EDGE_CURVE ( 'NONE', #970, #868, #182, .T. ) ;
#712 = CARTESIAN_POINT ( 'NONE',  ( 3.366534677831306333, 0.000000000000000000, -16.71888992518423578 ) ) ;
#713 = EDGE_LOOP ( 'NONE', ( #283, #1146 ) ) ;
#714 = CARTESIAN_POINT ( 'NONE',  ( -2.633465322168699885, 4.000000000000000000, 12.74882947942384703 ) ) ;
#715 = FACE_OUTER_BOUND ( 'NONE', #530, .T. ) ;
#716 = EDGE_LOOP ( 'NONE', ( #498, #122, #459, #445 ) ) ;
#717 = CIRCLE ( 'NONE', #1138, 1.000000000000000888 ) ;
#718 = AXIS2_PLACEMENT_3D ( 'NONE', #82, #656, #430 ) ;
#719 = DIRECTION ( 'NONE',  ( -7.172017570737198334E-17, -0.000000000000000000, -1.000000000000000000 ) ) ;
#720 = AXIS2_PLACEMENT_3D ( 'NONE', #1136, #960, #196 ) ;
#721 = DIRECTION ( 'NONE',  ( 0.000000000000000000, 0.000000000000000000, -1.000000000000000000 ) ) ;
#722 = ORIENTED_EDGE ( 'NONE', *, *, #1088, .F. ) ;
#723 = LINE ( 'NONE', #977, #543 ) ;
#724 = EDGE_CURVE ( 'NONE', #970, #1057, #466, .T. ) ;
#725 = CARTESIAN_POINT ( 'NONE',  ( 4.366534677831306333, 10.00000000000000000, -16.23600922411481307 ) ) ;
#726 = VERTEX_POINT ( 'NONE', #1004 ) ;
#727 = CARTESIAN_POINT ( 'NONE',  ( 0.3665346778313049447, -6.000000000000000000, 41.49832061887033063 ) ) ;
#728 = EDGE_LOOP ( 'NONE', ( #1002, #832, #1068, #550 ) ) ;
#729 = DIRECTION ( 'NONE',  ( -0.7831511052909406745, 0.000000000000000000, 0.6218314452338173925 ) ) ;
#730 = EDGE_LOOP ( 'NONE', ( #1117, #806, #115, #485 ) ) ;
#731 = ORIENTED_EDGE ( 'NONE', *, *, #520, .F. ) ;
#732 = FACE_BOUND ( 'NONE', #510, .T. ) ;
#733 = CARTESIAN_POINT ( 'NONE',  ( -2.633465322168698997, 4.000000000000000000, 1.888725956252100603E-16 ) ) ;
#734 = CYLINDRICAL_SURFACE ( 'NONE', #853, 1.500000000000001332 ) ;
#735 = VERTEX_POINT ( 'NONE', #1013 ) ;
#736 = CIRCLE ( 'NONE', #586, 1.000000000000000888 ) ;
#737 = EDGE_CURVE ( 'NONE', #224, #256, #931, .T. ) ;
#738 = VECTOR ( 'NONE', #443, 1000.000000000000114 ) ;
#739 = FACE_OUTER_BOUND ( 'NONE', #778, .T. ) ;
#740 = ORIENTED_EDGE ( 'NONE', *, *, #492, .T. ) ;
#741 = ADVANCED_FACE ( 'NONE', ( #925 ), #262, .F. ) ;
#742 = CIRCLE ( 'NONE', #720, 1.500000000000001332 ) ;
#743 = DIRECTION ( 'NONE',  ( 0.000000000000000000, 0.000000000000000000, -1.000000000000000000 ) ) ;
#744 = FACE_OUTER_BOUND ( 'NONE', #341, .T. ) ;
#745 = VERTEX_POINT ( 'NONE', #571 ) ;
#746 = EDGE_LOOP ( 'NONE', ( #823, #657, #976, #111 ) ) ;
#747 = EDGE_CURVE ( 'NONE', #1153, #707, #440, .T. ) ;
#748 = CARTESIAN_POINT ( 'NONE',  ( 4.366534677831312550, 4.000000000000000000, 1.670232716407438522E-15 ) ) ;
#749 = DIRECTION ( 'NONE',  ( -0.000000000000000000, -1.000000000000000000, 0.000000000000000000 ) ) ;
#750 = DIRECTION ( 'NONE',  ( 0.000000000000000000, 1.000000000000000000, 0.000000000000000000 ) ) ;
#751 = ADVANCED_FACE ( 'NONE', ( #1204 ), #383, .F. ) ;
#752 = AXIS2_PLACEMENT_3D ( 'NONE', #133, #1074, #906 ) ;
#753 = LINE ( 'NONE', #1027, #1175 ) ;
#754 = ORIENTED_EDGE ( 'NONE', *, *, #1202, .F. ) ;
#755 = ADVANCED_FACE ( 'NONE', ( #1189 ), #1196, .F. ) ;
#756 = CARTESIAN_POINT ( 'NONE',  ( 4.366534677831306333, 0.000000000000000000, 16.71888992518423578 ) ) ;
#757 = CARTESIAN_POINT ( 'NONE',  ( -7.633465322168695444, 4.000000000000000000, 42.55315238120643784 ) ) ;
#758 = LINE ( 'NONE', #279, #106 ) ;
#759 = DIRECTION ( 'NONE',  ( 0.000000000000000000, 0.000000000000000000, 1.000000000000000000 ) ) ;
#760 = ORIENTED_EDGE ( 'NONE', *, *, #108, .T. ) ;
#761 = AXIS2_PLACEMENT_3D ( 'NONE', #154, #537, #68 ) ;
#762 = CYLINDRICAL_SURFACE ( 'NONE', #44, 3.000000000000002665 ) ;
#763 = CARTESIAN_POINT ( 'NONE',  ( 3.366534677831300559, 0.000000000000000000, 32.30564282154356448 ) ) ;
#764 = CYLINDRICAL_SURFACE ( 'NONE', #644, 1.000000000000000888 ) ;
#765 = ORIENTED_EDGE ( 'NONE', *, *, #792, .T. ) ;
#766 = EDGE_CURVE ( 'NONE', #773, #707, #561, .T. ) ;
#767 = DIRECTION ( 'NONE',  ( 0.000000000000000000, 1.000000000000000000, -0.000000000000000000 ) ) ;
#768 = CYLINDRICAL_SURFACE ( 'NONE', #1008, 1.500000000000001332 ) ;
#769 = CARTESIAN_POINT ( 'NONE',  ( -2.255296767402518832, 4.000000000000000000, -29.11873348107412340 ) ) ;
#770 = VERTEX_POINT ( 'NONE', #1116 ) ;
#771 = DIRECTION ( 'NONE',  ( -7.884785137984478595E-17, 0.000000000000000000, -1.000000000000000000 ) ) ;
#772 = DIRECTION ( 'NONE',  ( 0.000000000000000000, 0.000000000000000000, 1.000000000000000000 ) ) ;
#773 = VERTEX_POINT ( 'NONE', #554 ) ;
#774 = ORIENTED_EDGE ( 'NONE', *, *, #118, .F. ) ;
#775 = VECTOR ( 'NONE', #620, 1000.000000000000000 ) ;
#776 = CARTESIAN_POINT ( 'NONE',  ( 9.366534677831291233, 4.000000000000000000, -51.28728536187934139 ) ) ;
#777 = CIRCLE ( 'NONE', #315, 3.000000000000002665 ) ;
#778 = EDGE_LOOP ( 'NONE', ( #1014, #782, #392, #1036 ) ) ;
#779 = ADVANCED_FACE ( 'NONE', ( #744 ), #93, .F. ) ;
#780 = ORIENTED_EDGE ( 'NONE', *, *, #614, .T. ) ;
#781 = CARTESIAN_POINT ( 'NONE',  ( 6.366534677831293010, 0.000000000000000000, -54.28728536187934139 ) ) ;
#782 = ORIENTED_EDGE ( 'NONE', *, *, #579, .T. ) ;
#783 = VERTEX_POINT ( 'NONE', #471 ) ;
#784 = ADVANCED_FACE ( 'NONE', ( #274 ), #548, .F. ) ;
#785 = DIRECTION ( 'NONE',  ( 0.000000000000000000, 0.000000000000000000, -1.000000000000000000 ) ) ;
#786 = ORIENTED_EDGE ( 'NONE', *, *, #452, .F. ) ;
#787 = CARTESIAN_POINT ( 'NONE',  ( -1.633465322168700107, 10.00000000000000000, -12.74882947942384703 ) ) ;
#788 = CIRCLE ( 'NONE', #259, 3.000000000000002665 ) ;
#789 = DIRECTION ( 'NONE',  ( 1.734723475976805517E-15, 0.000000000000000000, -1.000000000000000000 ) ) ;
#790 = CARTESIAN_POINT ( 'NONE',  ( 6.366534677831293010, 4.000000000000000000, -51.28728536187934139 ) ) ;
#791 = AXIS2_PLACEMENT_3D ( 'NONE', #1109, #1120, #448 ) ;
#792 = EDGE_CURVE ( 'NONE', #248, #1021, #378, .T. ) ;
#793 = CARTESIAN_POINT ( 'NONE',  ( -1.011633876934883602, 0.000000000000000000, 11.96567837413290825 ) ) ;
#794 = DIRECTION ( 'NONE',  ( 0.000000000000000000, 1.000000000000000000, -0.000000000000000000 ) ) ;
#795 = PRODUCT_RELATED_PRODUCT_CATEGORY ( 'part', '', ( #962 ) ) ;
#796 = CYLINDRICAL_SURFACE ( 'NONE', #236, 3.000000000000002665 ) ;
#797 = CARTESIAN_POINT ( 'NONE',  ( 3.366534677831300559, 0.000000000000000000, 32.30564282154356448 ) ) ;
#798 = CARTESIAN_POINT ( 'NONE',  ( 6.366534677831293010, 4.000000000000000000, -51.28728536187934139 ) ) ;
#799 = ORIENTED_EDGE ( 'NONE', *, *, #766, .T. ) ;
#800 = EDGE_CURVE ( 'NONE', #928, #449, #758, .T. ) ;
#801 = DIRECTION ( 'NONE',  ( 0.000000000000000000, 1.000000000000000000, -0.000000000000000000 ) ) ;
#802 = DIRECTION ( 'NONE',  ( 0.6218314452338173925, 0.000000000000000000, -0.7831511052909406745 ) ) ;
#803 = ORIENTED_EDGE ( 'NONE', *, *, #674, .T. ) ;
#804 = FACE_BOUND ( 'NONE', #107, .T. ) ;
#805 = LINE ( 'NONE', #822, #10 ) ;
#806 = ORIENTED_EDGE ( 'NONE', *, *, #422, .F. ) ;
#807 = EDGE_CURVE ( 'NONE', #868, #1078, #187, .T. ) ;
#808 = CYLINDRICAL_SURFACE ( 'NONE', #1061, 3.000000000000002665 ) ;
#809 = DIRECTION ( 'NONE',  ( 0.000000000000000000, 1.000000000000000000, 0.000000000000000000 ) ) ;
#810 = CARTESIAN_POINT ( 'NONE',  ( -6.498959657870133633, 4.000000000000000000, -44.90260569707948690 ) ) ;
#811 = ORIENTED_EDGE ( 'NONE', *, *, #854, .T. ) ;
#812 = CIRCLE ( 'NONE', #278, 1.000000000000000888 ) ;
#813 = AXIS2_PLACEMENT_3D ( 'NONE', #725, #434, #346 ) ;
#814 = CARTESIAN_POINT ( 'NONE',  ( 9.366534677831291233, 0.000000000000000000, -57.50000000000000000 ) ) ;
#815 = CIRCLE ( 'NONE', #281, 1.000000000000000888 ) ;
#816 = DIRECTION ( 'NONE',  ( -0.000000000000000000, -1.000000000000000000, 0.000000000000000000 ) ) ;
#817 = ORIENTED_EDGE ( 'NONE', *, *, #125, .T. ) ;
#818 = EDGE_CURVE ( 'NONE', #964, #1021, #777, .T. ) ;
#819 = ADVANCED_FACE ( 'NONE', ( #953 ), #1048, .F. ) ;
#820 = PLANE ( 'NONE',  #813 ) ;
#821 = ORIENTED_EDGE ( 'NONE', *, *, #1137, .T. ) ;
#822 = CARTESIAN_POINT ( 'NONE',  ( 4.366534677831301003, 0.000000000000000000, -32.30564282154356448 ) ) ;
#823 = ORIENTED_EDGE ( 'NONE', *, *, #175, .F. ) ;
#824 = CARTESIAN_POINT ( 'NONE',  ( 3.366534677831300559, 10.00000000000000000, 33.30564282154356448 ) ) ;
#825 = DIRECTION ( 'NONE',  ( -1.000000000000000000, 0.000000000000000000, -7.172017570737198334E-17 ) ) ;
#826 = ORIENTED_EDGE ( 'NONE', *, *, #711, .F. ) ;
#827 = EDGE_CURVE ( 'NONE', #745, #989, #937, .T. ) ;
#828 = ORIENTED_EDGE ( 'NONE', *, *, #195, .F. ) ;
#829 = CARTESIAN_POINT ( 'NONE',  ( 3.366534677831300559, 0.000000000000000000, 33.30564282154356448 ) ) ;
#830 = DIRECTION ( 'NONE',  ( -1.734723475976805517E-15, 0.000000000000000000, -1.000000000000000000 ) ) ;
#831 = CARTESIAN_POINT ( 'NONE',  ( 6.366534677831293010, 4.000000000000000000, -54.28728536187934139 ) ) ;
#832 = ORIENTED_EDGE ( 'NONE', *, *, #579, .F. ) ;
#833 = CIRCLE ( 'NONE', #539, 1.500000000000001332 ) ;
#834 = EDGE_LOOP ( 'NONE', ( #169, #1190, #910, #863 ) ) ;
#835 = VECTOR ( 'NONE', #420, 1000.000000000000000 ) ;
#836 = PLANE ( 'NONE',  #314 ) ;
#837 = CYLINDRICAL_SURFACE ( 'NONE', #966, 1.000000000000000888 ) ;
#838 = DIRECTION ( 'NONE',  ( -0.000000000000000000, 1.000000000000000000, -0.000000000000000000 ) ) ;
#839 = DIRECTION ( 'NONE',  ( 0.000000000000000000, 1.000000000000000000, -0.000000000000000000 ) ) ;
#840 = ORIENTED_EDGE ( 'NONE', *, *, #192, .T. ) ;
#841 = CARTESIAN_POINT ( 'NONE',  ( 9.366534677831291233, 4.000000000000000000, -57.50000000000000000 ) ) ;
#842 = CARTESIAN_POINT ( 'NONE',  ( -2.633465322168701217, 10.00000000000000000, 28.81846307685260200 ) ) ;
#843 = FACE_OUTER_BOUND ( 'NONE', #1206, .T. ) ;
#844 = ORIENTED_EDGE ( 'NONE', *, *, #6, .T. ) ;
#845 = EDGE_CURVE ( 'NONE', #211, #891, #1084, .T. ) ;
#846 = DIRECTION ( 'NONE',  ( -1.055918637551099853E-16, -0.000000000000000000, -1.000000000000000000 ) ) ;
#847 = CARTESIAN_POINT ( 'NONE',  ( 9.366534677831291233, 0.000000000000000000, -57.50000000000000000 ) ) ;
#848 = DIRECTION ( 'NONE',  ( -0.000000000000000000, 1.000000000000000000, -0.000000000000000000 ) ) ;
#849 = VECTOR ( 'NONE', #421, 1000.000000000000000 ) ;
#850 = EDGE_LOOP ( 'NONE', ( #1101, #423 ) ) ;
#851 = AXIS2_PLACEMENT_3D ( 'NONE', #945, #472, #110 ) ;
#852 = VECTOR ( 'NONE', #84, 1000.000000000000000 ) ;
#853 = AXIS2_PLACEMENT_3D ( 'NONE', #1024, #456, #86 ) ;
#854 = EDGE_CURVE ( 'NONE', #538, #655, #952, .T. ) ;
#855 = LINE ( 'NONE', #1023, #332 ) ;
#856 = FACE_OUTER_BOUND ( 'NONE', #290, .T. ) ;
#857 = LINE ( 'NONE', #572, #183 ) ;
#858 = EDGE_LOOP ( 'NONE', ( #114, #202 ) ) ;
#859 = DIRECTION ( 'NONE',  ( 0.7831511052909406745, 0.000000000000000000, -0.6218314452338173925 ) ) ;
#860 = EDGE_CURVE ( 'NONE', #252, #1177, #112, .T. ) ;
#861 = CARTESIAN_POINT ( 'NONE',  ( 4.366534677831300115, 0.000000000000000000, 34.37654770091713630 ) ) ;
#862 = ORIENTED_EDGE ( 'NONE', *, *, #496, .F. ) ;
#863 = ORIENTED_EDGE ( 'NONE', *, *, #335, .T. ) ;
#864 = CARTESIAN_POINT ( 'NONE',  ( -6.498959657870146067, 0.000000000000000000, 44.90260569707926663 ) ) ;
#865 = DIRECTION ( 'NONE',  ( -0.7831511052909406745, 0.000000000000000000, -0.6218314452338173925 ) ) ;
#866 = EDGE_CURVE ( 'NONE', #688, #497, #742, .T. ) ;
#867 = ORIENTED_EDGE ( 'NONE', *, *, #596, .F. ) ;
#868 = VERTEX_POINT ( 'NONE', #864 ) ;
#869 = VECTOR ( 'NONE', #1041, 999.9999999999998863 ) ;
#870 = DIRECTION ( 'NONE',  ( 0.000000000000000000, 0.000000000000000000, -1.000000000000000000 ) ) ;
#871 = AXIS2_PLACEMENT_3D ( 'NONE', #16, #288, #685 ) ;
#872 = DIRECTION ( 'NONE',  ( -0.7831511052909456705, 0.000000000000000000, 0.6218314452338110643 ) ) ;
#873 = EDGE_CURVE ( 'NONE', #91, #1165, #481, .T. ) ;
#874 = VERTEX_POINT ( 'NONE', #603 ) ;
#875 = ADVANCED_FACE ( 'NONE', ( #856 ), #31, .F. ) ;
#876 = ORIENTED_EDGE ( 'NONE', *, *, #724, .T. ) ;
#877 = FACE_OUTER_BOUND ( 'NONE', #955, .T. ) ;
#878 = LINE ( 'NONE', #1001, #662 ) ;
#879 = VERTEX_POINT ( 'NONE', #776 ) ;
#880 = DIRECTION ( 'NONE',  ( 0.000000000000000000, -1.000000000000000000, 0.000000000000000000 ) ) ;
#881 = LINE ( 'NONE', #242, #200 ) ;
#882 = CYLINDRICAL_SURFACE ( 'NONE', #965, 3.000000000000002665 ) ;
#883 = VERTEX_POINT ( 'NONE', #389 ) ;
#884 = CARTESIAN_POINT ( 'NONE',  ( 0.000000000000000000, 4.000000000000000000, -1.499999999999999556 ) ) ;
#885 = VECTOR ( 'NONE', #880, 1000.000000000000000 ) ;
#886 = VECTOR ( 'NONE', #710, 1000.000000000000000 ) ;
#887 = LINE ( 'NONE', #824, #257 ) ;
#888 = CARTESIAN_POINT ( 'NONE',  ( -2.633465322168701217, 0.000000000000000000, 28.81846307685260200 ) ) ;
#889 = AXIS2_PLACEMENT_3D ( 'NONE', #135, #978, #729 ) ;
#890 = DIRECTION ( 'NONE',  ( -0.000000000000000000, 1.000000000000000000, -0.000000000000000000 ) ) ;
#891 = VERTEX_POINT ( 'NONE', #204 ) ;
#892 = FACE_OUTER_BOUND ( 'NONE', #728, .T. ) ;
#893 = CARTESIAN_POINT ( 'NONE',  ( -4.633465322168702549, 0.000000000000000000, -42.55315238120665100 ) ) ;
#894 = LINE ( 'NONE', #810, #382 ) ;
#895 = EDGE_CURVE ( 'NONE', #1057, #726, #1046, .T. ) ;
#896 = DIRECTION ( 'NONE',  ( 0.000000000000000000, 0.000000000000000000, -1.000000000000000000 ) ) ;
#897 = ORIENTED_EDGE ( 'NONE', *, *, #118, .T. ) ;
#898 = DIRECTION ( 'NONE',  ( 8.673617379884027583E-16, 0.000000000000000000, -1.000000000000000000 ) ) ;
#899 = AXIS2_PLACEMENT_3D ( 'NONE', #221, #996, #322 ) ;
#900 = DIRECTION ( 'NONE',  ( 0.000000000000000000, 0.000000000000000000, -1.000000000000000000 ) ) ;
#901 = DIRECTION ( 'NONE',  ( 7.172017570737198334E-17, 0.000000000000000000, -1.000000000000000000 ) ) ;
#902 = ORIENTED_EDGE ( 'NONE', *, *, #845, .F. ) ;
#903 = LINE ( 'NONE', #61, #1195 ) ;
#904 = DIRECTION ( 'NONE',  ( -0.000000000000000000, -1.000000000000000000, 0.000000000000000000 ) ) ;
#905 = EDGE_LOOP ( 'NONE', ( #205, #5 ) ) ;
#906 = DIRECTION ( 'NONE',  ( 0.000000000000000000, 0.000000000000000000, 1.000000000000000000 ) ) ;
#907 = LINE ( 'NONE', #58, #104 ) ;
#908 = AXIS2_PLACEMENT_3D ( 'NONE', #893, #1162, #900 ) ;
#909 = LINE ( 'NONE', #319, #886 ) ;
#910 = ORIENTED_EDGE ( 'NONE', *, *, #120, .T. ) ;
#911 = CIRCLE ( 'NONE', #121, 1.000000000000000888 ) ;
#912 = VECTOR ( 'NONE', #582, 1000.000000000000000 ) ;
#913 = VECTOR ( 'NONE', #1161, 999.9999999999998863 ) ;
#914 = ADVANCED_FACE ( 'NONE', ( #1128 ), #768, .F. ) ;
#915 = ORIENTED_EDGE ( 'NONE', *, *, #677, .T. ) ;
#916 = ADVANCED_FACE ( 'NONE', ( #877 ), #299, .F. ) ;
#917 =( NAMED_UNIT ( * ) PLANE_ANGLE_UNIT ( ) SI_UNIT ( $, .RADIAN. ) );
#918 = CARTESIAN_POINT ( 'NONE',  ( 0.3665346778313051113, 0.000000000000000000, 38.49832061887032353 ) ) ;
#919 = DIRECTION ( 'NONE',  ( -1.055918637551099853E-16, -0.000000000000000000, -1.000000000000000000 ) ) ;
#920 = VERTEX_POINT ( 'NONE', #499 ) ;
#921 = PRODUCT_DEFINITION_CONTEXT ( 'detailed design', #563, 'design' ) ;
#922 = ORIENTED_EDGE ( 'NONE', *, *, #528, .T. ) ;
#923 = CARTESIAN_POINT ( 'NONE',  ( 0.000000000000000000, 0.000000000000000000, -1.499999999999999556 ) ) ;
#924 = LINE ( 'NONE', #478, #439 ) ;
#925 = FACE_OUTER_BOUND ( 'NONE', #147, .T. ) ;
#926 = VERTEX_POINT ( 'NONE', #676 ) ;
#927 = CARTESIAN_POINT ( 'NONE',  ( 4.366534677831306333, 4.000000000000000000, 16.71888992518423578 ) ) ;
#928 = VERTEX_POINT ( 'NONE', #599 ) ;
#929 = PLANE ( 'NONE',  #567 ) ;
#930 = CARTESIAN_POINT ( 'NONE',  ( -7.633465322168702549, 4.000000000000000000, -42.55315238120665100 ) ) ;
#931 = LINE ( 'NONE', #268, #336 ) ;
#932 = EDGE_LOOP ( 'NONE', ( #1192, #683, #289, #642 ) ) ;
#933 = VECTOR ( 'NONE', #235, 1000.000000000000000 ) ;
#934 = CIRCLE ( 'NONE', #718, 1.499999999999999556 ) ;
#935 = CARTESIAN_POINT ( 'NONE',  ( 0.3665346778313049447, -6.000000000000000000, 39.99832061887032353 ) ) ;
#936 = ORIENTED_EDGE ( 'NONE', *, *, #150, .F. ) ;
#937 = CIRCLE ( 'NONE', #402, 1.499999999999999556 ) ;
#938 =( NAMED_UNIT ( * ) SI_UNIT ( $, .STERADIAN. ) SOLID_ANGLE_UNIT ( ) );
#939 = DIRECTION ( 'NONE',  ( -0.6218314452338173925, 0.000000000000000000, 0.7831511052909406745 ) ) ;
#940 = DIRECTION ( 'NONE',  ( 0.7831511052909405635, 0.000000000000000000, -0.6218314452338172815 ) ) ;
#941 = FACE_OUTER_BOUND ( 'NONE', #597, .T. ) ;
#942 = VERTEX_POINT ( 'NONE', #116 ) ;
#943 = CARTESIAN_POINT ( 'NONE',  ( -6.498959657870133633, 0.000000000000000000, -44.90260569707948690 ) ) ;
#944 = CARTESIAN_POINT ( 'NONE',  ( 9.366534677831303668, 0.000000000000000000, 57.50000000000000000 ) ) ;
#945 = CARTESIAN_POINT ( 'NONE',  ( -1.633465322168700107, 0.000000000000000000, -12.74882947942384703 ) ) ;
#946 = ORIENTED_EDGE ( 'NONE', *, *, #40, .F. ) ;
#947 = CARTESIAN_POINT ( 'NONE',  ( 3.988366123065131053, 4.000000000000000000, 15.93573881989329699 ) ) ;
#948 = CARTESIAN_POINT ( 'NONE',  ( 0.3665346778313049447, 0.000000000000000000, 39.99832061887032353 ) ) ;
#949 = AXIS2_PLACEMENT_3D ( 'NONE', #1108, #939, #15 ) ;
#950 = ORIENTED_EDGE ( 'NONE', *, *, #818, .T. ) ;
#951 = AXIS2_PLACEMENT_3D ( 'NONE', #668, #1066, #100 ) ;
#952 = CIRCLE ( 'NONE', #1062, 1.000000000000000888 ) ;
#953 = FACE_OUTER_BOUND ( 'NONE', #174, .T. ) ;
#954 = CARTESIAN_POINT ( 'NONE',  ( -6.218314452338172593, 4.000000000000000000, -7.831511052909405635 ) ) ;
#955 = EDGE_LOOP ( 'NONE', ( #817, #915, #476, #87 ) ) ;
#956 = DIRECTION ( 'NONE',  ( -0.000000000000000000, -1.000000000000000000, 0.000000000000000000 ) ) ;
#957 = ADVANCED_BREP_SHAPE_REPRESENTATION ( 'Steering Posts Top', ( #1143, #479 ), #462 ) ;
#958 = ORIENTED_EDGE ( 'NONE', *, *, #429, .T. ) ;
#959 = ORIENTED_EDGE ( 'NONE', *, *, #800, .T. ) ;
#960 = DIRECTION ( 'NONE',  ( -0.000000000000000000, -1.000000000000000000, 0.000000000000000000 ) ) ;
#961 = EDGE_CURVE ( 'NONE', #151, #735, #815, .T. ) ;
#962 = PRODUCT ( 'Steering Posts Top', 'Steering Posts Top', '', ( #580 ) ) ;
#963 = VERTEX_POINT ( 'NONE', #404 ) ;
#964 = VERTEX_POINT ( 'NONE', #781 ) ;
#965 = AXIS2_PLACEMENT_3D ( 'NONE', #798, #428, #43 ) ;
#966 = AXIS2_PLACEMENT_3D ( 'NONE', #1018, #287, #172 ) ;
#967 = DIRECTION ( 'NONE',  ( 0.000000000000000000, 0.000000000000000000, -1.000000000000000000 ) ) ;
#968 = VECTOR ( 'NONE', #859, 1000.000000000000000 ) ;
#969 = ORIENTED_EDGE ( 'NONE', *, *, #113, .T. ) ;
#970 = VERTEX_POINT ( 'NONE', #1040 ) ;
#971 = EDGE_CURVE ( 'NONE', #497, #565, #681, .T. ) ;
#972 = LINE ( 'NONE', #129, #160 ) ;
#973 = CARTESIAN_POINT ( 'NONE',  ( -4.633465322168694556, 0.000000000000000000, 42.55315238120644494 ) ) ;
#974 = ORIENTED_EDGE ( 'NONE', *, *, #975, .T. ) ;
#975 = EDGE_CURVE ( 'NONE', #525, #538, #589, .T. ) ;
#976 = ORIENTED_EDGE ( 'NONE', *, *, #1000, .T. ) ;
#977 = CARTESIAN_POINT ( 'NONE',  ( 4.366534677831306333, 0.000000000000000000, -16.23600922411481307 ) ) ;
#978 = DIRECTION ( 'NONE',  ( -0.6218314452338173925, 0.000000000000000000, -0.7831511052909406745 ) ) ;
#979 = CARTESIAN_POINT ( 'NONE',  ( 0.3665346778313049447, -6.000000000000000000, -38.49832061887032353 ) ) ;
#980 = EDGE_CURVE ( 'NONE', #1165, #368, #327, .T. ) ;
#981 = VERTEX_POINT ( 'NONE', #714 ) ;
#982 = DIRECTION ( 'NONE',  ( 0.000000000000000000, 0.000000000000000000, -1.000000000000000000 ) ) ;
#983 = CLOSED_SHELL ( 'NONE', ( #157, #180, #779, #517, #708, #90, #366, #409, #916, #1193, #1188, #94, #240, #166, #1114, #692, #455, #914, #132, #755, #587, #679, #17, #494, #544, #784, #230, #751, #1016, #309, #819, #875, #741, #1009, #482 ) ) ;
#984 = VECTOR ( 'NONE', #343, 1000.000000000000000 ) ;
#985 = CARTESIAN_POINT ( 'NONE',  ( 4.366534677831301003, 4.000000000000000000, -32.30564282154356448 ) ) ;
#986 = EDGE_CURVE ( 'NONE', #497, #688, #606, .T. ) ;
#987 = AXIS2_PLACEMENT_3D ( 'NONE', #790, #247, #1158 ) ;
#988 = LINE ( 'NONE', #1091, #293 ) ;
#989 = VERTEX_POINT ( 'NONE', #884 ) ;
#990 = CARTESIAN_POINT ( 'NONE',  ( -1.633465322168701217, 0.000000000000000000, 28.33558237578318284 ) ) ;
#991 = EDGE_CURVE ( 'NONE', #963, #368, #337, .T. ) ;
#992 = CARTESIAN_POINT ( 'NONE',  ( -2.633465322168699885, 10.00000000000000000, 10.67792460005027344 ) ) ;
#993 = ORIENTED_EDGE ( 'NONE', *, *, #800, .F. ) ;
#994 = PLANE ( 'NONE',  #1058 ) ;
#995 = ORIENTED_EDGE ( 'NONE', *, *, #390, .T. ) ;
#996 = DIRECTION ( 'NONE',  ( -0.000000000000000000, -1.000000000000000000, 0.000000000000000000 ) ) ;
#997 = DIRECTION ( 'NONE',  ( 0.000000000000000000, 0.000000000000000000, 1.000000000000000000 ) ) ;
#998 = CARTESIAN_POINT ( 'NONE',  ( 6.366534677831293010, 4.000000000000000000, -54.28728536187934139 ) ) ;
#999 = ORIENTED_EDGE ( 'NONE', *, *, #509, .F. ) ;
#1000 = EDGE_CURVE ( 'NONE', #37, #224, #723, .T. ) ;
#1001 = CARTESIAN_POINT ( 'NONE',  ( -1.011633876934883380, 4.000000000000000000, -11.96567837413290825 ) ) ;
#1002 = ORIENTED_EDGE ( 'NONE', *, *, #700, .F. ) ;
#1003 = AXIS2_PLACEMENT_3D ( 'NONE', #1148, #703, #691 ) ;
#1004 = CARTESIAN_POINT ( 'NONE',  ( 9.366534677831303668, 4.000000000000000000, 51.28728536187928455 ) ) ;
#1005 = ORIENTED_EDGE ( 'NONE', *, *, #747, .T. ) ;
#1006 = VECTOR ( 'NONE', #1113, 1000.000000000000000 ) ;
#1007 = AXIS2_PLACEMENT_3D ( 'NONE', #450, #904, #348 ) ;
#1008 = AXIS2_PLACEMENT_3D ( 'NONE', #1051, #109, #1144 ) ;
#1009 = ADVANCED_FACE ( 'NONE', ( #531 ), #1079, .F. ) ;
#1010 = CARTESIAN_POINT ( 'NONE',  ( 0.3665346778313049447, 4.000000000000000000, -39.99832061887032353 ) ) ;
#1011 = ORIENTED_EDGE ( 'NONE', *, *, #148, .T. ) ;
#1012 = LINE ( 'NONE', #1075, #399 ) ;
#1013 = CARTESIAN_POINT ( 'NONE',  ( -1.633465322168700107, 4.000000000000000000, -11.74882947942384703 ) ) ;
#1014 = ORIENTED_EDGE ( 'NONE', *, *, #22, .T. ) ;
#1015 = EDGE_LOOP ( 'NONE', ( #1168, #629, #1149, #1059 ) ) ;
#1016 = ADVANCED_FACE ( 'NONE', ( #632 ), #1069, .F. ) ;
#1017 = FACE_OUTER_BOUND ( 'NONE', #716, .T. ) ;
#1018 = CARTESIAN_POINT ( 'NONE',  ( -1.633465322168701217, 10.00000000000000000, 28.33558237578318284 ) ) ;
#1019 = DIRECTION ( 'NONE',  ( 0.000000000000000000, 0.000000000000000000, -1.000000000000000000 ) ) ;
#1020 = ORIENTED_EDGE ( 'NONE', *, *, #651, .T. ) ;
#1021 = VERTEX_POINT ( 'NONE', #432 ) ;
#1022 =( NAMED_UNIT ( * ) PLANE_ANGLE_UNIT ( ) SI_UNIT ( $, .RADIAN. ) );
#1023 = CARTESIAN_POINT ( 'NONE',  ( -2.255296767402518388, 0.000000000000000000, -29.11873348107412340 ) ) ;
#1024 = CARTESIAN_POINT ( 'NONE',  ( 0.3665346778313049447, -6.000000000000000000, 39.99832061887032353 ) ) ;
#1025 = VECTOR ( 'NONE', #872, 1000.000000000000000 ) ;
#1026 = AXIS2_PLACEMENT_3D ( 'NONE', #4, #379, #759 ) ;
#1027 = CARTESIAN_POINT ( 'NONE',  ( -2.633465322168699885, 0.000000000000000000, -10.67792460005027344 ) ) ;
#1028 = ORIENTED_EDGE ( 'NONE', *, *, #469, .T. ) ;
#1029 = CARTESIAN_POINT ( 'NONE',  ( 3.988366123065125723, 0.000000000000000000, 15.93573881989329699 ) ) ;
#1030 = FACE_OUTER_BOUND ( 'NONE', #631, .T. ) ;
#1031 = CARTESIAN_POINT ( 'NONE',  ( 3.366534677831306333, 10.00000000000000000, -16.71888992518423578 ) ) ;
#1032 = DIRECTION ( 'NONE',  ( 0.000000000000000000, 0.000000000000000000, -1.000000000000000000 ) ) ;
#1033 = ORIENTED_EDGE ( 'NONE', *, *, #792, .F. ) ;
#1034 = DIRECTION ( 'NONE',  ( 1.055918637551099853E-16, 0.000000000000000000, 1.000000000000000000 ) ) ;
#1035 = CARTESIAN_POINT ( 'NONE',  ( 0.000000000000000000, 4.000000000000000000, 0.000000000000000000 ) ) ;
#1036 = ORIENTED_EDGE ( 'NONE', *, *, #214, .T. ) ;
#1037 = EDGE_CURVE ( 'NONE', #444, #735, #412, .T. ) ;
#1038 = EDGE_CURVE ( 'NONE', #701, #964, #209, .T. ) ;
#1039 = CARTESIAN_POINT ( 'NONE',  ( -1.633465322168701217, 0.000000000000000000, -28.33558237578317929 ) ) ;
#1040 = CARTESIAN_POINT ( 'NONE',  ( -6.498959657870146067, 4.000000000000000000, 44.90260569707926663 ) ) ;
#1041 = DIRECTION ( 'NONE',  ( -0.7831511052909406745, 0.000000000000000000, 0.6218314452338173925 ) ) ;
#1042 = CIRCLE ( 'NONE', #643, 1.499999999999999556 ) ;
#1043 = EDGE_LOOP ( 'NONE', ( #1197, #959, #1160, #844 ) ) ;
#1044 = AXIS2_PLACEMENT_3D ( 'NONE', #234, #704, #329 ) ;
#1045 = VERTEX_POINT ( 'NONE', #1087 ) ;
#1046 = CIRCLE ( 'NONE', #871, 3.000000000000002665 ) ;
#1047 = EDGE_CURVE ( 'NONE', #365, #444, #152, .T. ) ;
#1048 = CYLINDRICAL_SURFACE ( 'NONE', #161, 1.000000000000000888 ) ;
#1049 = VERTEX_POINT ( 'NONE', #308 ) ;
#1050 = ORIENTED_EDGE ( 'NONE', *, *, #249, .F. ) ;
#1051 = CARTESIAN_POINT ( 'NONE',  ( 0.3665346778313049447, -6.000000000000000000, -39.99832061887032353 ) ) ;
#1052 = CYLINDRICAL_SURFACE ( 'NONE', #216, 1.499999999999999556 ) ;
#1053 = ORIENTED_EDGE ( 'NONE', *, *, #873, .F. ) ;
#1054 = ORIENTED_EDGE ( 'NONE', *, *, #895, .T. ) ;
#1055 = DIRECTION ( 'NONE',  ( 0.000000000000000000, 0.000000000000000000, -1.000000000000000000 ) ) ;
#1056 = FACE_OUTER_BOUND ( 'NONE', #254, .T. ) ;
#1057 = VERTEX_POINT ( 'NONE', #239 ) ;
#1058 = AXIS2_PLACEMENT_3D ( 'NONE', #320, #1164, #523 ) ;
#1059 = ORIENTED_EDGE ( 'NONE', *, *, #980, .T. ) ;
#1060 = VECTOR ( 'NONE', #324, 1000.000000000000000 ) ;
#1061 = AXIS2_PLACEMENT_3D ( 'NONE', #52, #424, #1166 ) ;
#1062 = AXIS2_PLACEMENT_3D ( 'NONE', #103, #213, #1055 ) ;
#1063 = DIRECTION ( 'NONE',  ( -3.469446951953611033E-15, 0.000000000000000000, -1.000000000000000000 ) ) ;
#1064 = CIRCLE ( 'NONE', #464, 3.000000000000002665 ) ;
#1065 = LINE ( 'NONE', #495, #460 ) ;
#1066 = DIRECTION ( 'NONE',  ( 1.000000000000000000, -0.000000000000000000, 3.825076037726506764E-16 ) ) ;
#1067 = ORIENTED_EDGE ( 'NONE', *, *, #134, .T. ) ;
#1068 = ORIENTED_EDGE ( 'NONE', *, *, #171, .F. ) ;
#1069 = CYLINDRICAL_SURFACE ( 'NONE', #752, 1.000000000000000888 ) ;
#1070 = CARTESIAN_POINT ( 'NONE',  ( 3.366534677831306333, 4.000000000000000000, -16.71888992518423578 ) ) ;
#1071 = CARTESIAN_POINT ( 'NONE',  ( 4.501040342129856597, 0.000000000000000000, -53.63673867775217730 ) ) ;
#1072 = CARTESIAN_POINT ( 'NONE',  ( 0.3665346778313051113, -6.000000000000000000, 38.49832061887032353 ) ) ;
#1073 = ORIENTED_EDGE ( 'NONE', *, *, #854, .F. ) ;
#1074 = DIRECTION ( 'NONE',  ( 0.000000000000000000, 1.000000000000000000, 0.000000000000000000 ) ) ;
#1075 = CARTESIAN_POINT ( 'NONE',  ( 4.366534677831301003, 4.000000000000000000, 32.30564282154356448 ) ) ;
#1076 = DIRECTION ( 'NONE',  ( -0.7831511052909405635, 0.000000000000000000, -0.6218314452338172815 ) ) ;
#1077 = FACE_BOUND ( 'NONE', #850, .T. ) ;
#1078 = VERTEX_POINT ( 'NONE', #246 ) ;
#1079 = CYLINDRICAL_SURFACE ( 'NONE', #426, 1.000000000000000888 ) ;
#1080 = MECHANICAL_DESIGN_GEOMETRIC_PRESENTATION_REPRESENTATION (  '', ( #1174 ), #360 ) ;
#1081 = AXIS2_PLACEMENT_3D ( 'NONE', #102, #675, #1203 ) ;
#1082 = PLANE ( 'NONE',  #889 ) ;
#1083 = ORIENTED_EDGE ( 'NONE', *, *, #677, .F. ) ;
#1084 = CIRCLE ( 'NONE', #260, 1.500000000000001332 ) ;
#1085 = DIRECTION ( 'NONE',  ( -1.000000000000000000, 0.000000000000000000, 7.172017570737198334E-17 ) ) ;
#1086 = VERTEX_POINT ( 'NONE', #227 ) ;
#1087 = CARTESIAN_POINT ( 'NONE',  ( -6.498959657870133633, 4.000000000000000000, -44.90260569707948690 ) ) ;
#1088 = EDGE_CURVE ( 'NONE', #963, #91, #609, .T. ) ;
#1089 = LINE ( 'NONE', #616, #1060 ) ;
#1090 = ORIENTED_EDGE ( 'NONE', *, *, #407, .F. ) ;
#1091 = CARTESIAN_POINT ( 'NONE',  ( -7.633465322168702549, 0.000000000000000000, -44.00179448441493690 ) ) ;
#1092 = ORIENTED_EDGE ( 'NONE', *, *, #208, .F. ) ;
#1093 = DIRECTION ( 'NONE',  ( 0.000000000000000000, -1.000000000000000000, 0.000000000000000000 ) ) ;
#1094 = CARTESIAN_POINT ( 'NONE',  ( -4.633465322168694556, 4.000000000000000000, 42.55315238120644494 ) ) ;
#1095 = ORIENTED_EDGE ( 'NONE', *, *, #1129, .F. ) ;
#1096 = EDGE_CURVE ( 'NONE', #770, #365, #153, .T. ) ;
#1097 = EDGE_CURVE ( 'NONE', #457, #920, #384, .T. ) ;
#1098 = ORIENTED_EDGE ( 'NONE', *, *, #637, .T. ) ;
#1099 = FACE_OUTER_BOUND ( 'NONE', #1201, .T. ) ;
#1100 = CARTESIAN_POINT ( 'NONE',  ( -1.633465322168699885, 10.00000000000000000, 12.74882947942384703 ) ) ;
#1101 = ORIENTED_EDGE ( 'NONE', *, *, #866, .F. ) ;
#1102 = COLOUR_RGB ( '',0.7921568627450980005, 0.8196078431372548767, 0.9333333333333333481 ) ;
#1103 = AXIS2_PLACEMENT_3D ( 'NONE', #992, #802, #1076 ) ;
#1104 = AXIS2_PLACEMENT_3D ( 'NONE', #1094, #1183, #621 ) ;
#1105 = EDGE_CURVE ( 'NONE', #37, #684, #46, .T. ) ;
#1106 = ORIENTED_EDGE ( 'NONE', *, *, #807, .F. ) ;
#1107 = SURFACE_STYLE_USAGE ( .BOTH. , #453 ) ;
#1108 = CARTESIAN_POINT ( 'NONE',  ( 4.366534677831300115, 10.00000000000000000, 34.37654770091713630 ) ) ;
#1109 = CARTESIAN_POINT ( 'NONE',  ( 0.000000000000000000, 10.00000000000000000, 0.000000000000000000 ) ) ;
#1110 = ORIENTED_EDGE ( 'NONE', *, *, #22, .F. ) ;
#1111 = ORIENTED_EDGE ( 'NONE', *, *, #1137, .F. ) ;
#1112 = EDGE_CURVE ( 'NONE', #745, #316, #972, .T. ) ;
#1113 = DIRECTION ( 'NONE',  ( -0.000000000000000000, 1.000000000000000000, -0.000000000000000000 ) ) ;
#1114 = ADVANCED_FACE ( 'NONE', ( #892 ), #808, .T. ) ;
#1115 = DIRECTION ( 'NONE',  ( 0.000000000000000000, 0.000000000000000000, -1.000000000000000000 ) ) ;
#1116 = CARTESIAN_POINT ( 'NONE',  ( -2.633465322168699885, 4.000000000000000000, -12.74882947942384703 ) ) ;
#1117 = ORIENTED_EDGE ( 'NONE', *, *, #1112, .F. ) ;
#1118 = DIRECTION ( 'NONE',  ( -3.825076037726506764E-16, 0.000000000000000000, 1.000000000000000000 ) ) ;
#1119 = DIRECTION ( 'NONE',  ( 0.000000000000000000, -1.000000000000000000, 0.000000000000000000 ) ) ;
#1120 = DIRECTION ( 'NONE',  ( -0.000000000000000000, -1.000000000000000000, -0.000000000000000000 ) ) ;
#1121 = AXIS2_PLACEMENT_3D ( 'NONE', #179, #1126, #470 ) ;
#1122 = CARTESIAN_POINT ( 'NONE',  ( -1.633465322168701217, 4.000000000000000000, 28.33558237578318284 ) ) ;
#1123 = ORIENTED_EDGE ( 'NONE', *, *, #845, .T. ) ;
#1124 = VECTOR ( 'NONE', #615, 1000.000000000000000 ) ;
#1125 = PRODUCT_DEFINITION ( 'UNKNOWN', '', #521, #921 ) ;
#1126 = DIRECTION ( 'NONE',  ( 0.000000000000000000, -1.000000000000000000, 0.000000000000000000 ) ) ;
#1127 = UNCERTAINTY_MEASURE_WITH_UNIT (LENGTH_MEASURE( 1.000000000000000082E-05 ), #663, 'distance_accuracy_value', 'NONE');
#1128 = FACE_OUTER_BOUND ( 'NONE', #834, .T. ) ;
#1129 = EDGE_CURVE ( 'NONE', #783, #1086, #11, .T. ) ;
#1130 = CARTESIAN_POINT ( 'NONE',  ( 3.366534677831306777, 4.000000000000000000, 16.71888992518423578 ) ) ;
#1131 = VERTEX_POINT ( 'NONE', #57 ) ;
#1132 = DIRECTION ( 'NONE',  ( -0.000000000000000000, 1.000000000000000000, -0.000000000000000000 ) ) ;
#1133 = DIRECTION ( 'NONE',  ( -0.000000000000000000, -1.000000000000000000, 0.000000000000000000 ) ) ;
#1134 = FACE_OUTER_BOUND ( 'NONE', #1015, .T. ) ;
#1135 = ORIENTED_EDGE ( 'NONE', *, *, #305, .F. ) ;
#1136 = CARTESIAN_POINT ( 'NONE',  ( 0.3665346778313049447, 0.000000000000000000, -39.99832061887032353 ) ) ;
#1137 = EDGE_CURVE ( 'NONE', #411, #773, #1172, .T. ) ;
#1138 = AXIS2_PLACEMENT_3D ( 'NONE', #1070, #604, #41 ) ;
#1139 = ORIENTED_EDGE ( 'NONE', *, *, #860, .F. ) ;
#1140 = CIRCLE ( 'NONE', #680, 1.500000000000001332 ) ;
#1141 = VERTEX_POINT ( 'NONE', #923 ) ;
#1142 = AXIS2_PLACEMENT_3D ( 'NONE', #59, #228, #1176 ) ;
#1143 = MANIFOLD_SOLID_BREP ( 'Fillet2', #983 ) ;
#1144 = DIRECTION ( 'NONE',  ( 0.000000000000000000, 0.000000000000000000, 1.000000000000000000 ) ) ;
#1145 = CARTESIAN_POINT ( 'NONE',  ( -7.633465322168695444, 0.000000000000000000, 42.55315238120643784 ) ) ;
#1146 = ORIENTED_EDGE ( 'NONE', *, *, #396, .F. ) ;
#1147 = DIRECTION ( 'NONE',  ( -0.000000000000000000, 1.000000000000000000, -0.000000000000000000 ) ) ;
#1148 = CARTESIAN_POINT ( 'NONE',  ( -1.633465322168700107, 10.00000000000000000, -12.74882947942384703 ) ) ;
#1149 = ORIENTED_EDGE ( 'NONE', *, *, #873, .T. ) ;
#1150 = EDGE_LOOP ( 'NONE', ( #645, #902 ) ) ;
#1151 = DIRECTION ( 'NONE',  ( 0.000000000000000000, 0.000000000000000000, -1.000000000000000000 ) ) ;
#1152 = ORIENTED_EDGE ( 'NONE', *, *, #991, .T. ) ;
#1153 = VERTEX_POINT ( 'NONE', #829 ) ;
#1154 = CIRCLE ( 'NONE', #28, 1.500000000000001332 ) ;
#1155 = VECTOR ( 'NONE', #627, 1000.000000000000000 ) ;
#1156 = DIRECTION ( 'NONE',  ( 3.825076037726507257E-16, -0.000000000000000000, 1.000000000000000000 ) ) ;
#1157 = CARTESIAN_POINT ( 'NONE',  ( -1.011633876934880272, 4.000000000000000000, -11.96567837413290825 ) ) ;
#1158 = DIRECTION ( 'NONE',  ( 0.000000000000000000, 0.000000000000000000, -1.000000000000000000 ) ) ;
#1159 = FACE_BOUND ( 'NONE', #858, .T. ) ;
#1160 = ORIENTED_EDGE ( 'NONE', *, *, #509, .T. ) ;
#1161 = DIRECTION ( 'NONE',  ( 0.7831511052909406745, 0.000000000000000000, 0.6218314452338173925 ) ) ;
#1162 = DIRECTION ( 'NONE',  ( -0.000000000000000000, -1.000000000000000000, 0.000000000000000000 ) ) ;
#1163 = DIRECTION ( 'NONE',  ( -0.000000000000000000, 1.000000000000000000, -0.000000000000000000 ) ) ;
#1164 = DIRECTION ( 'NONE',  ( 0.000000000000000000, -1.000000000000000000, 0.000000000000000000 ) ) ;
#1165 = VERTEX_POINT ( 'NONE', #1029 ) ;
#1166 = DIRECTION ( 'NONE',  ( 0.000000000000000000, 0.000000000000000000, -1.000000000000000000 ) ) ;
#1167 = LINE ( 'NONE', #888, #199 ) ;
#1168 = ORIENTED_EDGE ( 'NONE', *, *, #991, .F. ) ;
#1169 = CARTESIAN_POINT ( 'NONE',  ( 4.366534677831301003, 0.000000000000000000, -32.30564282154356448 ) ) ;
#1170 = EDGE_CURVE ( 'NONE', #411, #883, #159, .T. ) ;
#1171 = ORIENTED_EDGE ( 'NONE', *, *, #596, .T. ) ;
#1172 = LINE ( 'NONE', #756, #852 ) ;
#1173 = VECTOR ( 'NONE', #261, 1000.000000000000000 ) ;
#1174 = STYLED_ITEM ( 'NONE', ( #559 ), #1143 ) ;
#1175 = VECTOR ( 'NONE', #184, 1000.000000000000227 ) ;
#1176 = DIRECTION ( 'NONE',  ( 0.000000000000000000, 0.000000000000000000, -1.000000000000000000 ) ) ;
#1177 = VERTEX_POINT ( 'NONE', #170 ) ;
#1178 = AXIS2_PLACEMENT_3D ( 'NONE', #207, #487, #771 ) ;
#1179 = DIRECTION ( 'NONE',  ( 7.884785137984478595E-17, 0.000000000000000000, 1.000000000000000000 ) ) ;
#1180 = LINE ( 'NONE', #251, #984 ) ;
#1181 = ORIENTED_EDGE ( 'NONE', *, *, #469, .F. ) ;
#1182 = DIRECTION ( 'NONE',  ( 3.825076037726506764E-16, 0.000000000000000000, 1.000000000000000000 ) ) ;
#1183 = DIRECTION ( 'NONE',  ( 0.000000000000000000, 1.000000000000000000, -0.000000000000000000 ) ) ;
#1184 = ORIENTED_EDGE ( 'NONE', *, *, #178, .F. ) ;
#1185 = EDGE_LOOP ( 'NONE', ( #592, #177, #1053, #326, #867, #27, #313, #127, #1005 ) ) ;
#1186 =( LENGTH_UNIT ( ) NAMED_UNIT ( * ) SI_UNIT ( .MILLI., .METRE. ) );
#1187 = DIRECTION ( 'NONE',  ( 0.000000000000000000, -1.000000000000000000, 0.000000000000000000 ) ) ;
#1188 = ADVANCED_FACE ( 'NONE', ( #350, #1, #359, #441, #732, #1099 ), #836, .F. ) ;
#1189 = FACE_OUTER_BOUND ( 'NONE', #1043, .T. ) ;
#1190 = ORIENTED_EDGE ( 'NONE', *, *, #986, .T. ) ;
#1191 = DIRECTION ( 'NONE',  ( 0.000000000000000000, 1.000000000000000000, 0.000000000000000000 ) ) ;
#1192 = ORIENTED_EDGE ( 'NONE', *, *, #488, .T. ) ;
#1193 = ADVANCED_FACE ( 'NONE', ( #1017 ), #929, .F. ) ;
#1194 = CARTESIAN_POINT ( 'NONE',  ( 0.3665346778313049447, 4.000000000000000000, 39.99832061887032353 ) ) ;
#1195 = VECTOR ( 'NONE', #1179, 1000.000000000000000 ) ;
#1196 = PLANE ( 'NONE',  #483 ) ;
#1197 = ORIENTED_EDGE ( 'NONE', *, *, #506, .F. ) ;
#1198 = CIRCLE ( 'NONE', #568, 1.500000000000001332 ) ;
#1199 = VECTOR ( 'NONE', #919, 1000.000000000000000 ) ;
#1200 = DIRECTION ( 'NONE',  ( 0.7831511052909456705, 0.000000000000000000, -0.6218314452338110643 ) ) ;
#1201 = EDGE_LOOP ( 'NONE', ( #876, #1054, #269, #740, #958, #1011, #607, #760, #1020 ) ) ;
#1202 = EDGE_CURVE ( 'NONE', #1021, #879, #461, .T. ) ;
#1203 = DIRECTION ( 'NONE',  ( 0.000000000000000000, 0.000000000000000000, -1.000000000000000000 ) ) ;
#1204 = FACE_OUTER_BOUND ( 'NONE', #217, .T. ) ;
#1205 = CARTESIAN_POINT ( 'NONE',  ( 0.3665346778313051113, 0.000000000000000000, -41.49832061887033063 ) ) ;
#1206 = EDGE_LOOP ( 'NONE', ( #302, #165, #168, #598 ) ) ;
ENDSEC;
END-ISO-10303-21;
