ISO-10303-21;
HEADER;
FILE_DESCRIPTION (( 'STEP AP214' ),
    '1' );
FILE_NAME ('Steering-Ball.STEP',
    '2026-05-20T19:20:26',
    ( '' ),
    ( '' ),
    'SwSTEP 2.0',
    'SolidWorks 2026',
    '' );
FILE_SCHEMA (( 'AUTOMOTIVE_DESIGN' ));
ENDSEC;

DATA;
#1 = SURFACE_STYLE_USAGE ( .BOTH. , #191 ) ;
#2 = CARTESIAN_POINT ( 'NONE',  ( 0.000000000000000000, -2.000000000000000000, -4.628314976684542407E-16 ) ) ;
#3 = FACE_OUTER_BOUND ( 'NONE', #25, .T. ) ;
#4 = ORIENTED_EDGE ( 'NONE', *, *, #145, .T. ) ;
#5 = UNCERTAINTY_MEASURE_WITH_UNIT (LENGTH_MEASURE( 1.000000000000000082E-05 ), #179, 'distance_accuracy_value', 'NONE');
#6 = CARTESIAN_POINT ( 'NONE',  ( 0.000000000000000000, -2.000000000000000000, -4.628314976684542407E-16 ) ) ;
#7 = AXIS2_PLACEMENT_3D ( 'NONE', #119, #101, #81 ) ;
#8 = ADVANCED_FACE ( 'NONE', ( #193 ), #32, .F. ) ;
#9 = CARTESIAN_POINT ( 'NONE',  ( 0.000000000000000000, 1.999999999999999112, 2.702722199048698670E-17 ) ) ;
#10 = AXIS2_PLACEMENT_3D ( 'NONE', #29, #116, #92 ) ;
#11 = AXIS2_PLACEMENT_3D ( 'NONE', #6, #180, #161 ) ;
#12 = DIRECTION ( 'NONE',  ( -0.000000000000000000, 1.000000000000000000, 1.224646799147353454E-16 ) ) ;
#13 = EDGE_CURVE ( 'NONE', #88, #73, #83, .T. ) ;
#14 = CARTESIAN_POINT ( 'NONE',  ( 2.143131898507868297E-16, -8.000000000000000000, -1.750000000000001332 ) ) ;
#15 = ORIENTED_EDGE ( 'NONE', *, *, #99, .T. ) ;
#16 = EDGE_CURVE ( 'NONE', #113, #169, #94, .T. ) ;
#17 = AXIS2_PLACEMENT_3D ( 'NONE', #96, #84, #19 ) ;
#18 = CARTESIAN_POINT ( 'NONE',  ( 0.000000000000000000, 0.000000000000000000, -2.179021378389835993E-16 ) ) ;
#19 = DIRECTION ( 'NONE',  ( 0.000000000000000000, 0.000000000000000000, 1.000000000000000000 ) ) ;
#20 = CARTESIAN_POINT ( 'NONE',  ( 4.102566777143632788E-16, -1.999999999999999556, -3.349999999999999645 ) ) ;
#21 = CARTESIAN_POINT ( 'NONE',  ( 0.000000000000000000, -2.000000000000000000, 1.749999999999999556 ) ) ;
#22 = AXIS2_PLACEMENT_3D ( 'NONE', #141, #117, #23 ) ;
#23 = DIRECTION ( 'NONE',  ( 0.000000000000000000, 0.000000000000000000, 1.000000000000000000 ) ) ;
#24 = FACE_BOUND ( 'NONE', #151, .T. ) ;
#25 = EDGE_LOOP ( 'NONE', ( #15, #4 ) ) ;
#26 = PRODUCT_DEFINITION_SHAPE ( 'NONE', 'NONE',  #76 ) ;
#27 = MECHANICAL_DESIGN_GEOMETRIC_PRESENTATION_REPRESENTATION (  '', ( #170 ), #74 ) ;
#28 = EDGE_LOOP ( 'NONE', ( #148, #35, #90, #138 ) ) ;
#29 = CARTESIAN_POINT ( 'NONE',  ( 0.000000000000000000, 1.999999999999999112, 2.702722199048700211E-17 ) ) ;
#30 = PRODUCT_CONTEXT ( 'NONE', #56, 'mechanical' ) ;
#31 = CARTESIAN_POINT ( 'NONE',  ( 0.000000000000000000, -2.000000000000000000, -4.628314976684542407E-16 ) ) ;
#32 = CYLINDRICAL_SURFACE ( 'NONE', #102, 1.750000000000000000 ) ;
#33 = PLANE ( 'NONE',  #10 ) ;
#34 = ADVANCED_FACE ( 'NONE', ( #77 ), #51, .T. ) ;
#35 = ORIENTED_EDGE ( 'NONE', *, *, #13, .T. ) ;
#36 = CIRCLE ( 'NONE', #62, 3.901602234979880901 ) ;
#37 = DIRECTION ( 'NONE',  ( 0.000000000000000000, -1.294569758191646909E-16, 1.000000000000000000 ) ) ;
#38 = UNCERTAINTY_MEASURE_WITH_UNIT (LENGTH_MEASURE( 1.000000000000000082E-05 ), #85, 'distance_accuracy_value', 'NONE');
#39 = CYLINDRICAL_SURFACE ( 'NONE', #22, 1.750000000000000000 ) ;
#40 = CARTESIAN_POINT ( 'NONE',  ( 2.143131898507868544E-16, -2.000000000000000000, -1.750000000000000666 ) ) ;
#41 = EDGE_CURVE ( 'NONE', #187, #113, #150, .T. ) ;
#42 = ORIENTED_EDGE ( 'NONE', *, *, #16, .T. ) ;
#43 = EDGE_LOOP ( 'NONE', ( #60, #42, #48, #177 ) ) ;
#44 = ORIENTED_EDGE ( 'NONE', *, *, #126, .T. ) ;
#45 = EDGE_LOOP ( 'NONE', ( #75, #71 ) ) ;
#46 = VECTOR ( 'NONE', #195, 1000.000000000000000 ) ;
#47 = ORIENTED_EDGE ( 'NONE', *, *, #41, .F. ) ;
#48 = ORIENTED_EDGE ( 'NONE', *, *, #176, .T. ) ;
#49 = PRESENTATION_STYLE_ASSIGNMENT (( #1 ) ) ;
#50 = EDGE_CURVE ( 'NONE', #73, #88, #93, .T. ) ;
#51 = SPHERICAL_SURFACE ( 'NONE', #136, 3.901602234979880901 ) ;
#52 = DIRECTION ( 'NONE',  ( 0.000000000000000000, -1.294569758191646909E-16, 1.000000000000000000 ) ) ;
#53 = FACE_OUTER_BOUND ( 'NONE', #122, .T. ) ;
#54 = DIRECTION ( 'NONE',  ( -1.000000000000000000, -0.000000000000000000, 0.000000000000000000 ) ) ;
#55 = SPHERICAL_SURFACE ( 'NONE', #7, 3.901602234979880901 ) ;
#56 = APPLICATION_CONTEXT ( 'automotive_design' ) ;
#57 = VERTEX_POINT ( 'NONE', #189 ) ;
#58 = VECTOR ( 'NONE', #128, 1000.000000000000000 ) ;
#59 = PRODUCT ( 'Steering-Ball', 'Steering-Ball', '', ( #30 ) ) ;
#60 = ORIENTED_EDGE ( 'NONE', *, *, #41, .T. ) ;
#61 = ADVANCED_FACE ( 'NONE', ( #174, #3 ), #33, .T. ) ;
#62 = AXIS2_PLACEMENT_3D ( 'NONE', #120, #165, #163 ) ;
#63 = DIRECTION ( 'NONE',  ( 0.000000000000000000, 0.000000000000000000, 1.000000000000000000 ) ) ;
#64 = DIRECTION ( 'NONE',  ( 1.000000000000000000, 0.000000000000000000, 0.000000000000000000 ) ) ;
#65 = SURFACE_STYLE_FILL_AREA ( #78 ) ;
#66 = DIRECTION ( 'NONE',  ( 0.000000000000000000, -1.294569758191647402E-16, 1.000000000000000000 ) ) ;
#67 = AXIS2_PLACEMENT_3D ( 'NONE', #2, #110, #66 ) ;
#68 = FACE_OUTER_BOUND ( 'NONE', #28, .T. ) ;
#69 =( NAMED_UNIT ( * ) PLANE_ANGLE_UNIT ( ) SI_UNIT ( $, .RADIAN. ) );
#70 = MANIFOLD_SOLID_BREP ( 'Cut-Extrude1', #160 ) ;
#71 = ORIENTED_EDGE ( 'NONE', *, *, #13, .F. ) ;
#72 = SHAPE_DEFINITION_REPRESENTATION ( #26, #100 ) ;
#73 = VERTEX_POINT ( 'NONE', #190 ) ;
#74 =( GEOMETRIC_REPRESENTATION_CONTEXT ( 3 ) GLOBAL_UNCERTAINTY_ASSIGNED_CONTEXT ( ( #5 ) ) GLOBAL_UNIT_ASSIGNED_CONTEXT ( ( #179, #140, #153 ) ) REPRESENTATION_CONTEXT ( 'NONE', 'WORKASPACE' ) );
#75 = ORIENTED_EDGE ( 'NONE', *, *, #50, .F. ) ;
#76 = PRODUCT_DEFINITION ( 'General', '', #79, #164 ) ;
#77 = FACE_OUTER_BOUND ( 'NONE', #87, .T. ) ;
#78 = FILL_AREA_STYLE ('',( #95 ) ) ;
#79 = PRODUCT_DEFINITION_FORMATION_WITH_SPECIFIED_SOURCE ( 'Symmetric', '', #59, .NOT_KNOWN. ) ;
#80 = CARTESIAN_POINT ( 'NONE',  ( 0.000000000000000000, 0.000000000000000000, -2.179021378389835993E-16 ) ) ;
#81 = DIRECTION ( 'NONE',  ( 0.000000000000000000, -1.224646799147353454E-16, 1.000000000000000000 ) ) ;
#82 = DIRECTION ( 'NONE',  ( -0.000000000000000000, 1.000000000000000000, 1.224646799147353454E-16 ) ) ;
#83 = CIRCLE ( 'NONE', #67, 3.349999999999999201 ) ;
#84 = DIRECTION ( 'NONE',  ( 0.000000000000000000, 1.000000000000000000, 1.224646799147353454E-16 ) ) ;
#85 =( LENGTH_UNIT ( ) NAMED_UNIT ( * ) SI_UNIT ( .MILLI., .METRE. ) );
#86 = CIRCLE ( 'NONE', #135, 3.901602234979880901 ) ;
#87 = EDGE_LOOP ( 'NONE', ( #171, #201, #123, #157 ) ) ;
#88 = VERTEX_POINT ( 'NONE', #20 ) ;
#89 = AXIS2_PLACEMENT_3D ( 'NONE', #144, #103, #97 ) ;
#90 = ORIENTED_EDGE ( 'NONE', *, *, #200, .T. ) ;
#91 = APPLICATION_PROTOCOL_DEFINITION ( 'draft international standard', 'automotive_design', 1998, #173 ) ;
#92 = DIRECTION ( 'NONE',  ( 0.000000000000000000, -1.224646799147353454E-16, 1.000000000000000000 ) ) ;
#93 = CIRCLE ( 'NONE', #155, 3.349999999999999201 ) ;
#94 = LINE ( 'NONE', #14, #58 ) ;
#95 = FILL_AREA_STYLE_COLOUR ( '', #147 ) ;
#96 = CARTESIAN_POINT ( 'NONE',  ( 0.000000000000000000, 1.999999999999999112, 2.702722199048698670E-17 ) ) ;
#97 = DIRECTION ( 'NONE',  ( 1.000000000000000000, 0.000000000000000000, 0.000000000000000000 ) ) ;
#98 = DIRECTION ( 'NONE',  ( 0.000000000000000000, -1.000000000000000000, -1.224646799147353454E-16 ) ) ;
#99 = EDGE_CURVE ( 'NONE', #57, #134, #186, .T. ) ;
#100 = ADVANCED_BREP_SHAPE_REPRESENTATION ( 'Steering-Ball', ( #70, #89 ), #184 ) ;
#101 = DIRECTION ( 'NONE',  ( 1.000000000000000000, 0.000000000000000000, 0.000000000000000000 ) ) ;
#102 = AXIS2_PLACEMENT_3D ( 'NONE', #158, #12, #63 ) ;
#103 = DIRECTION ( 'NONE',  ( 0.000000000000000000, 0.000000000000000000, 1.000000000000000000 ) ) ;
#104 = ORIENTED_EDGE ( 'NONE', *, *, #176, .F. ) ;
#105 = EDGE_CURVE ( 'NONE', #187, #168, #185, .T. ) ;
#106 = PRESENTATION_LAYER_ASSIGNMENT (  '', '', ( #170 ) ) ;
#107 = ORIENTED_EDGE ( 'NONE', *, *, #105, .T. ) ;
#108 = ADVANCED_FACE ( 'NONE', ( #24, #197 ), #196, .T. ) ;
#109 = AXIS2_PLACEMENT_3D ( 'NONE', #9, #182, #118 ) ;
#110 = DIRECTION ( 'NONE',  ( -0.000000000000000000, 1.000000000000000000, 1.224646799147353454E-16 ) ) ;
#111 = DIRECTION ( 'NONE',  ( -0.000000000000000000, 1.000000000000000000, 1.224646799147353454E-16 ) ) ;
#112 = EDGE_CURVE ( 'NONE', #88, #134, #36, .T. ) ;
#113 = VERTEX_POINT ( 'NONE', #40 ) ;
#114 = CIRCLE ( 'NONE', #17, 1.750000000000000000 ) ;
#115 = CARTESIAN_POINT ( 'NONE',  ( 0.000000000000000000, -2.000000000000000000, -4.628314976684542407E-16 ) ) ;
#116 = DIRECTION ( 'NONE',  ( -0.000000000000000000, 1.000000000000000000, 1.224646799147353454E-16 ) ) ;
#117 = DIRECTION ( 'NONE',  ( -0.000000000000000000, 1.000000000000000000, 1.224646799147353454E-16 ) ) ;
#118 = DIRECTION ( 'NONE',  ( 0.000000000000000000, 0.000000000000000000, 1.000000000000000000 ) ) ;
#119 = CARTESIAN_POINT ( 'NONE',  ( 0.000000000000000000, 0.000000000000000000, -2.179021378389835993E-16 ) ) ;
#120 = CARTESIAN_POINT ( 'NONE',  ( 0.000000000000000000, 0.000000000000000000, -2.179021378389835993E-16 ) ) ;
#121 = DIRECTION ( 'NONE',  ( 0.000000000000000000, 0.000000000000000000, 1.000000000000000000 ) ) ;
#122 = EDGE_LOOP ( 'NONE', ( #178, #44, #107, #137 ) ) ;
#123 = ORIENTED_EDGE ( 'NONE', *, *, #99, .F. ) ;
#124 = AXIS2_PLACEMENT_3D ( 'NONE', #183, #98, #146 ) ;
#125 = DIRECTION ( 'NONE',  ( 0.000000000000000000, -1.224646799147353454E-16, 1.000000000000000000 ) ) ;
#126 = EDGE_CURVE ( 'NONE', #113, #187, #159, .T. ) ;
#127 = DIRECTION ( 'NONE',  ( 0.000000000000000000, -1.294569758191647402E-16, 1.000000000000000000 ) ) ;
#128 = DIRECTION ( 'NONE',  ( -0.000000000000000000, 1.000000000000000000, 1.224646799147353454E-16 ) ) ;
#129 = AXIS2_PLACEMENT_3D ( 'NONE', #154, #194, #37 ) ;
#130 = CARTESIAN_POINT ( 'NONE',  ( 0.000000000000000000, -8.000000000000000000, 1.749999999999998668 ) ) ;
#131 = CIRCLE ( 'NONE', #181, 3.350000000000000533 ) ;
#132 = APPLICATION_PROTOCOL_DEFINITION ( 'draft international standard', 'automotive_design', 1998, #56 ) ;
#133 = CARTESIAN_POINT ( 'NONE',  ( 0.000000000000000000, 1.999999999999999112, 2.702722199048697746E-17 ) ) ;
#134 = VERTEX_POINT ( 'NONE', #143 ) ;
#135 = AXIS2_PLACEMENT_3D ( 'NONE', #80, #54, #121 ) ;
#136 = AXIS2_PLACEMENT_3D ( 'NONE', #18, #64, #125 ) ;
#137 = ORIENTED_EDGE ( 'NONE', *, *, #142, .T. ) ;
#138 = ORIENTED_EDGE ( 'NONE', *, *, #145, .F. ) ;
#139 = AXIS2_PLACEMENT_3D ( 'NONE', #31, #175, #192 ) ;
#140 =( NAMED_UNIT ( * ) PLANE_ANGLE_UNIT ( ) SI_UNIT ( $, .RADIAN. ) );
#141 = CARTESIAN_POINT ( 'NONE',  ( 0.000000000000000000, -8.000000000000000000, -1.197619577156866412E-15 ) ) ;
#142 = EDGE_CURVE ( 'NONE', #168, #169, #149, .T. ) ;
#143 = CARTESIAN_POINT ( 'NONE',  ( 4.102566777143633281E-16, 1.999999999999999556, -3.350000000000000533 ) ) ;
#144 = CARTESIAN_POINT ( 'NONE',  ( 0.000000000000000000, 0.000000000000000000, 0.000000000000000000 ) ) ;
#145 = EDGE_CURVE ( 'NONE', #134, #57, #131, .T. ) ;
#146 = DIRECTION ( 'NONE',  ( 0.000000000000000000, 1.224646799147353454E-16, -1.000000000000000000 ) ) ;
#147 = COLOUR_RGB ( '',0.7921568627450980005, 0.8196078431372548767, 0.9333333333333333481 ) ;
#148 = ORIENTED_EDGE ( 'NONE', *, *, #112, .F. ) ;
#149 = CIRCLE ( 'NONE', #109, 1.750000000000000000 ) ;
#150 = CIRCLE ( 'NONE', #139, 1.750000000000000000 ) ;
#151 = EDGE_LOOP ( 'NONE', ( #47, #199 ) ) ;
#152 = ORIENTED_EDGE ( 'NONE', *, *, #142, .F. ) ;
#153 =( NAMED_UNIT ( * ) SI_UNIT ( $, .STERADIAN. ) SOLID_ANGLE_UNIT ( ) );
#154 = CARTESIAN_POINT ( 'NONE',  ( 0.000000000000000000, 1.999999999999999112, 2.702722199048697746E-17 ) ) ;
#155 = AXIS2_PLACEMENT_3D ( 'NONE', #115, #111, #127 ) ;
#156 = EDGE_LOOP ( 'NONE', ( #152, #104 ) ) ;
#157 = ORIENTED_EDGE ( 'NONE', *, *, #200, .F. ) ;
#158 = CARTESIAN_POINT ( 'NONE',  ( 0.000000000000000000, -8.000000000000000000, -1.197619577156866412E-15 ) ) ;
#159 = CIRCLE ( 'NONE', #11, 1.750000000000000000 ) ;
#160 = CLOSED_SHELL ( 'NONE', ( #8, #34, #61, #162, #108, #172 ) ) ;
#161 = DIRECTION ( 'NONE',  ( 0.000000000000000000, 0.000000000000000000, -1.000000000000000000 ) ) ;
#162 = ADVANCED_FACE ( 'NONE', ( #68 ), #55, .T. ) ;
#163 = DIRECTION ( 'NONE',  ( 1.224646799147353207E-16, 0.000000000000000000, -1.000000000000000000 ) ) ;
#164 = PRODUCT_DEFINITION_CONTEXT ( 'detailed design', #173, 'design' ) ;
#165 = DIRECTION ( 'NONE',  ( 1.000000000000000000, -1.499759782661857882E-32, 1.224646799147353207E-16 ) ) ;
#166 = CARTESIAN_POINT ( 'NONE',  ( 0.000000000000000000, 1.999999999999999112, 1.750000000000000000 ) ) ;
#167 = CARTESIAN_POINT ( 'NONE',  ( 2.143131898507868297E-16, 1.999999999999999112, -1.750000000000000000 ) ) ;
#168 = VERTEX_POINT ( 'NONE', #166 ) ;
#169 = VERTEX_POINT ( 'NONE', #167 ) ;
#170 = STYLED_ITEM ( 'NONE', ( #49 ), #70 ) ;
#171 = ORIENTED_EDGE ( 'NONE', *, *, #50, .T. ) ;
#172 = ADVANCED_FACE ( 'NONE', ( #53 ), #39, .F. ) ;
#173 = APPLICATION_CONTEXT ( 'automotive_design' ) ;
#174 = FACE_BOUND ( 'NONE', #156, .T. ) ;
#175 = DIRECTION ( 'NONE',  ( 0.000000000000000000, -1.000000000000000000, -1.224646799147353454E-16 ) ) ;
#176 = EDGE_CURVE ( 'NONE', #169, #168, #114, .T. ) ;
#177 = ORIENTED_EDGE ( 'NONE', *, *, #105, .F. ) ;
#178 = ORIENTED_EDGE ( 'NONE', *, *, #16, .F. ) ;
#179 =( LENGTH_UNIT ( ) NAMED_UNIT ( * ) SI_UNIT ( .MILLI., .METRE. ) );
#180 = DIRECTION ( 'NONE',  ( 0.000000000000000000, -1.000000000000000000, -1.224646799147353454E-16 ) ) ;
#181 = AXIS2_PLACEMENT_3D ( 'NONE', #133, #82, #52 ) ;
#182 = DIRECTION ( 'NONE',  ( 0.000000000000000000, 1.000000000000000000, 1.224646799147353454E-16 ) ) ;
#183 = CARTESIAN_POINT ( 'NONE',  ( 0.000000000000000000, -2.000000000000000000, -4.628314976684542407E-16 ) ) ;
#184 =( GEOMETRIC_REPRESENTATION_CONTEXT ( 3 ) GLOBAL_UNCERTAINTY_ASSIGNED_CONTEXT ( ( #38 ) ) GLOBAL_UNIT_ASSIGNED_CONTEXT ( ( #85, #69, #198 ) ) REPRESENTATION_CONTEXT ( 'NONE', 'WORKASPACE' ) );
#185 = LINE ( 'NONE', #130, #46 ) ;
#186 = CIRCLE ( 'NONE', #129, 3.350000000000000533 ) ;
#187 = VERTEX_POINT ( 'NONE', #21 ) ;
#188 = PRODUCT_RELATED_PRODUCT_CATEGORY ( 'part', '', ( #59 ) ) ;
#189 = CARTESIAN_POINT ( 'NONE',  ( 0.000000000000000000, 1.999999999999998668, 3.350000000000000533 ) ) ;
#190 = CARTESIAN_POINT ( 'NONE',  ( 0.000000000000000000, -2.000000000000000444, 3.349999999999998757 ) ) ;
#191 = SURFACE_SIDE_STYLE ('',( #65 ) ) ;
#192 = DIRECTION ( 'NONE',  ( 0.000000000000000000, 0.000000000000000000, -1.000000000000000000 ) ) ;
#193 = FACE_OUTER_BOUND ( 'NONE', #43, .T. ) ;
#194 = DIRECTION ( 'NONE',  ( -0.000000000000000000, 1.000000000000000000, 1.224646799147353454E-16 ) ) ;
#195 = DIRECTION ( 'NONE',  ( -0.000000000000000000, 1.000000000000000000, 1.224646799147353454E-16 ) ) ;
#196 = PLANE ( 'NONE',  #124 ) ;
#197 = FACE_OUTER_BOUND ( 'NONE', #45, .T. ) ;
#198 =( NAMED_UNIT ( * ) SI_UNIT ( $, .STERADIAN. ) SOLID_ANGLE_UNIT ( ) );
#199 = ORIENTED_EDGE ( 'NONE', *, *, #126, .F. ) ;
#200 = EDGE_CURVE ( 'NONE', #73, #57, #86, .T. ) ;
#201 = ORIENTED_EDGE ( 'NONE', *, *, #112, .T. ) ;
ENDSEC;
END-ISO-10303-21;
