ISO-10303-21;
HEADER;
FILE_DESCRIPTION (( 'STEP AP214' ),
    '1' );
FILE_NAME ('Steering-Post-Left.STEP',
    '2026-05-20T19:20:27',
    ( '' ),
    ( '' ),
    'SwSTEP 2.0',
    'SolidWorks 2026',
    '' );
FILE_SCHEMA (( 'AUTOMOTIVE_DESIGN' ));
ENDSEC;

DATA;
#1 = ORIENTED_EDGE ( 'NONE', *, *, #363, .F. ) ;
#2 = ORIENTED_EDGE ( 'NONE', *, *, #251, .T. ) ;
#3 = FACE_OUTER_BOUND ( 'NONE', #364, .T. ) ;
#4 = ADVANCED_FACE ( 'NONE', ( #7 ), #63, .T. ) ;
#5 = ADVANCED_FACE ( 'NONE', ( #499 ), #544, .T. ) ;
#6 = DIRECTION ( 'NONE',  ( 0.000000000000000000, 0.000000000000000000, 1.000000000000000000 ) ) ;
#7 = FACE_OUTER_BOUND ( 'NONE', #51, .T. ) ;
#8 = VECTOR ( 'NONE', #170, 1000.000000000000000 ) ;
#9 = CARTESIAN_POINT ( 'NONE',  ( 5.170581144822135045, 28.99999999999999645, -7.798672566371681825 ) ) ;
#10 = EDGE_LOOP ( 'NONE', ( #581, #372, #423, #94 ) ) ;
#11 = PLANE ( 'NONE',  #175 ) ;
#12 = AXIS2_PLACEMENT_3D ( 'NONE', #90, #391, #296 ) ;
#13 = EDGE_CURVE ( 'NONE', #202, #234, #447, .T. ) ;
#14 = ORIENTED_EDGE ( 'NONE', *, *, #559, .T. ) ;
#15 = DIRECTION ( 'NONE',  ( -0.000000000000000000, 1.000000000000000000, -0.000000000000000000 ) ) ;
#16 = ORIENTED_EDGE ( 'NONE', *, *, #586, .T. ) ;
#17 = ORIENTED_EDGE ( 'NONE', *, *, #109, .F. ) ;
#18 = CARTESIAN_POINT ( 'NONE',  ( -7.116817259950921404, 0.000000000000000000, 9.326775611505430774 ) ) ;
#19 = EDGE_CURVE ( 'NONE', #609, #100, #320, .T. ) ;
#20 = CARTESIAN_POINT ( 'NONE',  ( 7.420353982300881945, 10.00000000000000000, 4.201327433628314623 ) ) ;
#21 = ORIENTED_EDGE ( 'NONE', *, *, #109, .T. ) ;
#22 = FACE_OUTER_BOUND ( 'NONE', #524, .T. ) ;
#23 = DIRECTION ( 'NONE',  ( 0.000000000000000000, 1.000000000000000000, 0.000000000000000000 ) ) ;
#24 = ORIENTED_EDGE ( 'NONE', *, *, #551, .F. ) ;
#25 = CYLINDRICAL_SURFACE ( 'NONE', #433, 1.500000000000000000 ) ;
#26 = CARTESIAN_POINT ( 'NONE',  ( -4.375183341384239810, 28.99007061697227172, 4.432955835068696615 ) ) ;
#27 = ORIENTED_EDGE ( 'NONE', *, *, #37, .T. ) ;
#28 = CARTESIAN_POINT ( 'NONE',  ( 12.95752522455268441, 0.000000000000000000, -9.339649110531739851 ) ) ;
#29 = DIRECTION ( 'NONE',  ( 0.000000000000000000, -1.000000000000000000, 0.000000000000000000 ) ) ;
#30 = MANIFOLD_SOLID_BREP ( 'Fillet1', #561 ) ;
#31 = VECTOR ( 'NONE', #143, 1000.000000000000114 ) ;
#32 = VERTEX_POINT ( 'NONE', #160 ) ;
#33 = ADVANCED_FACE ( 'NONE', ( #601, #157 ), #356, .F. ) ;
#34 = CARTESIAN_POINT ( 'NONE',  ( 12.95752522455268263, 0.000000000000000000, 9.326775611505428998 ) ) ;
#35 = FACE_OUTER_BOUND ( 'NONE', #247, .T. ) ;
#36 = ORIENTED_EDGE ( 'NONE', *, *, #144, .T. ) ;
#37 = EDGE_CURVE ( 'NONE', #634, #383, #501, .T. ) ;
#38 = EDGE_CURVE ( 'NONE', #98, #318, #203, .T. ) ;
#39 = DIRECTION ( 'NONE',  ( 0.000000000000000000, 0.000000000000000000, -1.000000000000000000 ) ) ;
#40 = CARTESIAN_POINT ( 'NONE',  ( -0.5796460176991178326, 0.000000000000000000, 2.201327433628315955 ) ) ;
#41 = LINE ( 'NONE', #529, #31 ) ;
#42 = ADVANCED_FACE ( 'NONE', ( #506 ), #151, .T. ) ;
#43 = CIRCLE ( 'NONE', #371, 1.999999999999999556 ) ;
#44 = PRODUCT_DEFINITION_SHAPE ( 'NONE', 'NONE',  #286 ) ;
#45 = DIRECTION ( 'NONE',  ( 0.000000000000000000, 0.08715574274765701401, -0.9961946980917456562 ) ) ;
#46 = APPLICATION_CONTEXT ( 'automotive_design' ) ;
#47 = LINE ( 'NONE', #338, #525 ) ;
#48 = ORIENTED_EDGE ( 'NONE', *, *, #448, .F. ) ;
#49 = ADVANCED_FACE ( 'NONE', ( #607 ), #165, .F. ) ;
#50 = ORIENTED_EDGE ( 'NONE', *, *, #551, .T. ) ;
#51 = EDGE_LOOP ( 'NONE', ( #195, #555, #253, #558 ) ) ;
#52 = VECTOR ( 'NONE', #59, 1000.000000000000000 ) ;
#53 = AXIS2_PLACEMENT_3D ( 'NONE', #505, #66, #407 ) ;
#54 = CARTESIAN_POINT ( 'NONE',  ( 3.420353982300881945, 17.00000000000000000, -1.648672566371684578 ) ) ;
#55 = PRESENTATION_STYLE_ASSIGNMENT (( #114 ) ) ;
#56 = CARTESIAN_POINT ( 'NONE',  ( -3.477878628349978296, 30.20670138281531791, 7.095754742370918855 ) ) ;
#57 = DIRECTION ( 'NONE',  ( 0.000000000000000000, 0.000000000000000000, -1.000000000000000000 ) ) ;
#58 = CARTESIAN_POINT ( 'NONE',  ( -3.583451319607373176, 29.00000000000000000, 7.201327433628316399 ) ) ;
#59 = DIRECTION ( 'NONE',  ( -0.000000000000000000, -0.000000000000000000, 1.000000000000000000 ) ) ;
#60 = EDGE_CURVE ( 'NONE', #383, #362, #306, .T. ) ;
#61 = AXIS2_PLACEMENT_3D ( 'NONE', #351, #212, #408 ) ;
#62 = CARTESIAN_POINT ( 'NONE',  ( -4.579646017699118055, 29.00000000000000000, 7.201327433628316399 ) ) ;
#63 = PLANE ( 'NONE',  #73 ) ;
#64 = EDGE_CURVE ( 'NONE', #454, #358, #276, .T. ) ;
#65 = ORIENTED_EDGE ( 'NONE', *, *, #240, .F. ) ;
#66 = DIRECTION ( 'NONE',  ( 0.000000000000000000, -1.000000000000000000, 0.000000000000000000 ) ) ;
#67 = ORIENTED_EDGE ( 'NONE', *, *, #424, .F. ) ;
#68 = FACE_OUTER_BOUND ( 'NONE', #473, .T. ) ;
#69 = CARTESIAN_POINT ( 'NONE',  ( 0.000000000000000000, 0.000000000000000000, -10.33584380862348517 ) ) ;
#70 =( BOUNDED_CURVE ( )  B_SPLINE_CURVE ( 3, ( #620, #469, #512, #28 ),
 .UNSPECIFIED., .F., .F. ) 
 B_SPLINE_CURVE_WITH_KNOTS ( ( 4, 4 ),
 ( 5.501585242055419656, 7.064785372303752808 ),
 .UNSPECIFIED. ) 
 CURVE ( )  GEOMETRIC_REPRESENTATION_ITEM ( )  RATIONAL_B_SPLINE_CURVE ( ( 1.000000000000000000, 0.8065248903853482476, 0.8065248903853482476, 1.000000000000000000 ) ) 
 REPRESENTATION_ITEM ( '' )  );
#71 = ORIENTED_EDGE ( 'NONE', *, *, #19, .F. ) ;
#72 = CARTESIAN_POINT ( 'NONE',  ( 5.486431262953571419, 29.00000000000000000, -7.798672566371683601 ) ) ;
#73 = AXIS2_PLACEMENT_3D ( 'NONE', #312, #309, #317 ) ;
#74 = AXIS2_PLACEMENT_3D ( 'NONE', #311, #538, #105 ) ;
#75 = LINE ( 'NONE', #520, #400 ) ;
#76 = VERTEX_POINT ( 'NONE', #426 ) ;
#77 = CARTESIAN_POINT ( 'NONE',  ( 3.420353982300881501, 17.00000000000000000, 2.051327433628316044 ) ) ;
#78 = FACE_OUTER_BOUND ( 'NONE', #619, .T. ) ;
#79 = ORIENTED_EDGE ( 'NONE', *, *, #138, .T. ) ;
#80 = LINE ( 'NONE', #84, #205 ) ;
#81 = LINE ( 'NONE', #26, #596 ) ;
#82 = EDGE_CURVE ( 'NONE', #321, #488, #124, .T. ) ;
#83 = ORIENTED_EDGE ( 'NONE', *, *, #478, .F. ) ;
#84 = CARTESIAN_POINT ( 'NONE',  ( 10.42786415207449124, 28.91415836668503658, -6.809988038053547577 ) ) ;
#85 = CARTESIAN_POINT ( 'NONE',  ( 7.420353982300881945, 10.00000000000000000, 2.201327433628315955 ) ) ;
#86 = ORIENTED_EDGE ( 'NONE', *, *, #121, .F. ) ;
#87 = DIRECTION ( 'NONE',  ( 0.000000000000000000, 0.08715574274765701401, -0.9961946980917456562 ) ) ;
#88 = CARTESIAN_POINT ( 'NONE',  ( 4.994621906963840452, 29.00000000000000000, -7.798672566371683601 ) ) ;
#89 =( BOUNDED_CURVE ( )  B_SPLINE_CURVE ( 3, ( #305, #495, #597, #153 ),
 .UNSPECIFIED., .F., .F. ) 
 B_SPLINE_CURVE_WITH_KNOTS ( ( 4, 4 ),
 ( 5.957661997754104100, 6.608708616605066588 ),
 .UNSPECIFIED. ) 
 CURVE ( )  GEOMETRIC_REPRESENTATION_ITEM ( )  RATIONAL_B_SPLINE_CURVE ( ( 1.000000000000000000, 0.9649889995778575535, 0.9649889995778575535, 1.000000000000000000 ) ) 
 REPRESENTATION_ITEM ( '' )  );
#90 = CARTESIAN_POINT ( 'NONE',  ( 0.000000000000000000, 0.000000000000000000, 0.000000000000000000 ) ) ;
#91 = CARTESIAN_POINT ( 'NONE',  ( 10.00863091792619386, 29.00000000000000355, -7.798672566371685377 ) ) ;
#92 = VECTOR ( 'NONE', #513, 1000.000000000000000 ) ;
#93 = CARTESIAN_POINT ( 'NONE',  ( 3.442996984255151549, 0.000000000000000000, -9.945404090817428155 ) ) ;
#94 = ORIENTED_EDGE ( 'NONE', *, *, #462, .T. ) ;
#95 = CARTESIAN_POINT ( 'NONE',  ( -0.5796460176991176105, 0.000000000000000000, 3.701327433628315955 ) ) ;
#96 = ORIENTED_EDGE ( 'NONE', *, *, #210, .T. ) ;
#97 = EDGE_CURVE ( 'NONE', #318, #98, #471, .T. ) ;
#98 = VERTEX_POINT ( 'NONE', #367 ) ;
#99 = FACE_OUTER_BOUND ( 'NONE', #344, .T. ) ;
#100 = VERTEX_POINT ( 'NONE', #421 ) ;
#101 = AXIS2_PLACEMENT_3D ( 'NONE', #630, #189, #186 ) ;
#102 = DIRECTION ( 'NONE',  ( 0.08715574274765837404, 0.9961946980917455452, 0.000000000000000000 ) ) ;
#103 = DIRECTION ( 'NONE',  ( 0.000000000000000000, 0.000000000000000000, 1.000000000000000000 ) ) ;
#104 = UNCERTAINTY_MEASURE_WITH_UNIT (LENGTH_MEASURE( 1.000000000000000082E-05 ), #451, 'distance_accuracy_value', 'NONE');
#105 = DIRECTION ( 'NONE',  ( 0.000000000000000000, 0.000000000000000000, -1.000000000000000000 ) ) ;
#106 = SURFACE_STYLE_FILL_AREA ( #154 ) ;
#107 = EDGE_CURVE ( 'NONE', #246, #321, #618, .T. ) ;
#108 = CARTESIAN_POINT ( 'NONE',  ( 5.485522416284262626, 28.97895803580109231, -7.800513499697405706 ) ) ;
#109 = EDGE_CURVE ( 'NONE', #315, #591, #185, .T. ) ;
#110 = CARTESIAN_POINT ( 'NONE',  ( -4.579646017699118055, 29.00000000000000000, 7.201327433628316399 ) ) ;
#111 = EDGE_LOOP ( 'NONE', ( #430, #21 ) ) ;
#112 = AXIS2_PLACEMENT_3D ( 'NONE', #541, #252, #264 ) ;
#113 = FACE_OUTER_BOUND ( 'NONE', #569, .T. ) ;
#114 = SURFACE_STYLE_USAGE ( .BOTH. , #258 ) ;
#115 = ORIENTED_EDGE ( 'NONE', *, *, #135, .F. ) ;
#116 = DIRECTION ( 'NONE',  ( 0.000000000000000000, 0.9961946980917455452, -0.08715574274765837404 ) ) ;
#117 =( NAMED_UNIT ( * ) SI_UNIT ( $, .STERADIAN. ) SOLID_ANGLE_UNIT ( ) );
#118 = VERTEX_POINT ( 'NONE', #221 ) ;
#119 = CARTESIAN_POINT ( 'NONE',  ( -0.5796460176991176105, 10.00000000000000000, 3.701327433628315955 ) ) ;
#120 = CARTESIAN_POINT ( 'NONE',  ( 7.420353982300881945, 0.000000000000000000, 2.201327433628315955 ) ) ;
#121 = EDGE_CURVE ( 'NONE', #534, #234, #81, .T. ) ;
#122 = EDGE_LOOP ( 'NONE', ( #380, #411, #227, #572, #468, #310, #605, #285, #622, #521 ) ) ;
#123 = CARTESIAN_POINT ( 'NONE',  ( 11.96133052646094086, 0.000000000000000000, 9.738498675880117972 ) ) ;
#124 = LINE ( 'NONE', #268, #8 ) ;
#125 = ORIENTED_EDGE ( 'NONE', *, *, #416, .F. ) ;
#126 = DIRECTION ( 'NONE',  ( -0.000000000000000000, -1.000000000000000000, -0.000000000000000000 ) ) ;
#127 = EDGE_CURVE ( 'NONE', #348, #362, #43, .T. ) ;
#128 = CARTESIAN_POINT ( 'NONE',  ( -0.5796460176991178326, 10.00000000000000000, 2.201327433628315955 ) ) ;
#129 = ORIENTED_EDGE ( 'NONE', *, *, #64, .T. ) ;
#130 = CYLINDRICAL_SURFACE ( 'NONE', #589, 0.9999999999999995559 ) ;
#131 = EDGE_CURVE ( 'NONE', #593, #118, #611, .T. ) ;
#132 = CYLINDRICAL_SURFACE ( 'NONE', #271, 1.999999999999999556 ) ;
#133 = VERTEX_POINT ( 'NONE', #134 ) ;
#134 = CARTESIAN_POINT ( 'NONE',  ( 3.442996984255151549, 0.000000000000000000, -9.945404090817428155 ) ) ;
#135 = EDGE_CURVE ( 'NONE', #609, #454, #75, .T. ) ;
#136 = CARTESIAN_POINT ( 'NONE',  ( -4.374314632933506530, 29.00000000000000000, 4.433250299191900723 ) ) ;
#137 = CARTESIAN_POINT ( 'NONE',  ( 10.42035398230088106, 29.00000000000000000, -6.802477868279939166 ) ) ;
#138 = EDGE_CURVE ( 'NONE', #133, #534, #370, .T. ) ;
#139 = LINE ( 'NONE', #248, #167 ) ;
#140 = CIRCLE ( 'NONE', #228, 1.850000000000000089 ) ;
#141 = ORIENTED_EDGE ( 'NONE', *, *, #148, .F. ) ;
#142 = VECTOR ( 'NONE', #590, 1000.000000000000114 ) ;
#143 = DIRECTION ( 'NONE',  ( 0.08682659386424779191, -0.9924325091389669673, -0.08682659386424777803 ) ) ;
#144 = EDGE_CURVE ( 'NONE', #591, #32, #326, .T. ) ;
#145 = ORIENTED_EDGE ( 'NONE', *, *, #631, .T. ) ;
#146 = LINE ( 'NONE', #261, #583 ) ;
#147 = ORIENTED_EDGE ( 'NONE', *, *, #64, .F. ) ;
#148 = EDGE_CURVE ( 'NONE', #32, #184, #140, .T. ) ;
#149 = ORIENTED_EDGE ( 'NONE', *, *, #190, .T. ) ;
#150 = DIRECTION ( 'NONE',  ( -0.000000000000000000, 1.000000000000000000, -0.000000000000000000 ) ) ;
#151 = CYLINDRICAL_SURFACE ( 'NONE', #61, 0.9999999999999998890 ) ;
#152 = ADVANCED_FACE ( 'NONE', ( #78 ), #230, .T. ) ;
#153 = CARTESIAN_POINT ( 'NONE',  ( -6.911485875185309879, 0.000000000000000000, 3.573231147036764366 ) ) ;
#154 = FILL_AREA_STYLE ('',( #550 ) ) ;
#155 = ADVANCED_FACE ( 'NONE', ( #177 ), #568, .T. ) ;
#156 = DIRECTION ( 'NONE',  ( -0.9961946980917455452, 0.08715574274765837404, 0.000000000000000000 ) ) ;
#157 = FACE_OUTER_BOUND ( 'NONE', #122, .T. ) ;
#158 = VERTEX_POINT ( 'NONE', #180 ) ;
#159 = CARTESIAN_POINT ( 'NONE',  ( 7.420353982300881945, 0.000000000000000000, 4.201327433628314623 ) ) ;
#160 = CARTESIAN_POINT ( 'NONE',  ( 3.420353982300881501, 29.00000000000000000, 2.051327433628316044 ) ) ;
#161 = ORIENTED_EDGE ( 'NONE', *, *, #462, .F. ) ;
#162 = ADVANCED_FACE ( 'NONE', ( #379 ), #132, .F. ) ;
#163 = VECTOR ( 'NONE', #293, 1000.000000000000000 ) ;
#164 = DIRECTION ( 'NONE',  ( 0.000000000000000000, -1.000000000000000000, 0.000000000000000000 ) ) ;
#165 = CYLINDRICAL_SURFACE ( 'NONE', #288, 1.850000000000000089 ) ;
#166 = ADVANCED_FACE ( 'NONE', ( #35 ), #233, .T. ) ;
#167 = VECTOR ( 'NONE', #576, 1000.000000000000114 ) ;
#168 = ORIENTED_EDGE ( 'NONE', *, *, #97, .T. ) ;
#169 = CARTESIAN_POINT ( 'NONE',  ( 7.420353982300881945, 10.00000000000000000, 0.2013274336283162602 ) ) ;
#170 = DIRECTION ( 'NONE',  ( -0.000000000000000000, -0.000000000000000000, -1.000000000000000000 ) ) ;
#171 = ORIENTED_EDGE ( 'NONE', *, *, #210, .F. ) ;
#172 = CARTESIAN_POINT ( 'NONE',  ( 12.54580216017799721, 0.000000000000000000, 9.738498675880116195 ) ) ;
#173 = CARTESIAN_POINT ( 'NONE',  ( 10.42035398230088106, 29.00000000000000000, 6.205132735536569299 ) ) ;
#174 = ORIENTED_EDGE ( 'NONE', *, *, #467, .F. ) ;
#175 = AXIS2_PLACEMENT_3D ( 'NONE', #62, #156, #102 ) ;
#176 = DIRECTION ( 'NONE',  ( 0.08682659386424777803, -0.9924325091389669673, 0.08682659386424779191 ) ) ;
#177 = FACE_OUTER_BOUND ( 'NONE', #537, .T. ) ;
#178 = ORIENTED_EDGE ( 'NONE', *, *, #608, .T. ) ;
#179 = CARTESIAN_POINT ( 'NONE',  ( -6.705094195576232430, 0.000000000000000000, 9.738498675880117972 ) ) ;
#180 = CARTESIAN_POINT ( 'NONE',  ( 9.424159284209137510, 29.00000000000000000, -7.798672566371683601 ) ) ;
#181 = ORIENTED_EDGE ( 'NONE', *, *, #60, .F. ) ;
#182 = EDGE_CURVE ( 'NONE', #158, #515, #528, .T. ) ;
#183 = CARTESIAN_POINT ( 'NONE',  ( -3.477878628349976520, 30.11954564006765978, 6.099560044279173532 ) ) ;
#184 = VERTEX_POINT ( 'NONE', #341 ) ;
#185 = CIRCLE ( 'NONE', #239, 1.850000000000000089 ) ;
#186 = DIRECTION ( 'NONE',  ( 0.06919157431458775043, 0.9961946980917455452, 0.05299669364936727273 ) ) ;
#187 =( LENGTH_UNIT ( ) NAMED_UNIT ( * ) SI_UNIT ( .MILLI., .METRE. ) );
#188 = APPLICATION_CONTEXT ( 'automotive_design' ) ;
#189 = DIRECTION ( 'NONE',  ( -0.7908633133261345760, 0.08715574274765837404, -0.6057549802856864174 ) ) ;
#190 = EDGE_CURVE ( 'NONE', #383, #634, #340, .T. ) ;
#191 = DIRECTION ( 'NONE',  ( 0.000000000000000000, -1.000000000000000000, 0.000000000000000000 ) ) ;
#192 = FACE_OUTER_BOUND ( 'NONE', #263, .T. ) ;
#193 = VECTOR ( 'NONE', #557, 1000.000000000000000 ) ;
#194 = AXIS2_PLACEMENT_3D ( 'NONE', #543, #449, #6 ) ;
#195 = ORIENTED_EDGE ( 'NONE', *, *, #131, .T. ) ;
#196 = VECTOR ( 'NONE', #349, 1000.000000000000114 ) ;
#197 = CARTESIAN_POINT ( 'NONE',  ( 4.233860297581284016, 0.000000000000000000, -10.33584380862348517 ) ) ;
#198 = ORIENTED_EDGE ( 'NONE', *, *, #592, .T. ) ;
#199 = CIRCLE ( 'NONE', #388, 1.500000000000000000 ) ;
#200 = CARTESIAN_POINT ( 'NONE',  ( 4.887626572754453669, 28.99999999999999645, -7.658981293039749616 ) ) ;
#201 = DIRECTION ( 'NONE',  ( 0.000000000000000000, -1.000000000000000000, 0.000000000000000000 ) ) ;
#202 = VERTEX_POINT ( 'NONE', #335 ) ;
#203 = CIRCLE ( 'NONE', #259, 1.500000000000000000 ) ;
#204 = CYLINDRICAL_SURFACE ( 'NONE', #582, 1.850000000000000089 ) ;
#205 = VECTOR ( 'NONE', #278, 1000.000000000000114 ) ;
#206 = DIRECTION ( 'NONE',  ( 0.9961946980917455452, 0.08715574274765837404, 0.000000000000000000 ) ) ;
#207 = ORIENTED_EDGE ( 'NONE', *, *, #131, .F. ) ;
#208 = CARTESIAN_POINT ( 'NONE',  ( -4.579646017699118055, 29.00000000000000000, 5.039005279477588140 ) ) ;
#209 = ORIENTED_EDGE ( 'NONE', *, *, #313, .F. ) ;
#210 = EDGE_CURVE ( 'NONE', #133, #118, #265, .T. ) ;
#211 = CARTESIAN_POINT ( 'NONE',  ( 7.420353982300881945, 0.000000000000000000, 0.2013274336283162602 ) ) ;
#212 = DIRECTION ( 'NONE',  ( 0.08682659386424779191, -0.9924325091389670783, 0.08682659386424779191 ) ) ;
#213 = MECHANICAL_DESIGN_GEOMETRIC_PRESENTATION_REPRESENTATION (  '', ( #409 ), #339 ) ;
#214 = VERTEX_POINT ( 'NONE', #236 ) ;
#215 = CARTESIAN_POINT ( 'NONE',  ( 11.96133052646094086, 0.000000000000000000, -10.33584380862348517 ) ) ;
#216 = ADVANCED_FACE ( 'NONE', ( #434 ), #633, .F. ) ;
#217 = CARTESIAN_POINT ( 'NONE',  ( 9.424159284209137510, 29.00000000000000000, 7.201327433628316399 ) ) ;
#218 = EDGE_CURVE ( 'NONE', #488, #158, #530, .T. ) ;
#219 = EDGE_LOOP ( 'NONE', ( #181, #464, #280, #302 ) ) ;
#220 = LINE ( 'NONE', #613, #493 ) ;
#221 = CARTESIAN_POINT ( 'NONE',  ( 4.233860297581284016, 0.000000000000000000, -10.33584380862348517 ) ) ;
#222 = ORIENTED_EDGE ( 'NONE', *, *, #366, .F. ) ;
#223 = DIRECTION ( 'NONE',  ( 0.000000000000000000, 0.000000000000000000, -1.000000000000000000 ) ) ;
#224 = DIRECTION ( 'NONE',  ( 0.08711773338888229024, 0.9957602491329407002, 0.02953009948996897227 ) ) ;
#225 = EDGE_CURVE ( 'NONE', #333, #246, #47, .T. ) ;
#226 = ADVANCED_FACE ( 'NONE', ( #437 ), #389, .T. ) ;
#227 = ORIENTED_EDGE ( 'NONE', *, *, #13, .T. ) ;
#228 = AXIS2_PLACEMENT_3D ( 'NONE', #571, #23, #517 ) ;
#229 = DIRECTION ( 'NONE',  ( 0.000000000000000000, 0.08715574274765837404, 0.9961946980917455452 ) ) ;
#230 = PLANE ( 'NONE',  #549 ) ;
#231 = ORIENTED_EDGE ( 'NONE', *, *, #13, .F. ) ;
#232 = DIRECTION ( 'NONE',  ( 0.000000000000000000, 0.000000000000000000, -1.000000000000000000 ) ) ;
#233 = CYLINDRICAL_SURFACE ( 'NONE', #440, 0.9999999999999998890 ) ;
#234 = VERTEX_POINT ( 'NONE', #580 ) ;
#235 =( NAMED_UNIT ( * ) PLANE_ANGLE_UNIT ( ) SI_UNIT ( $, .RADIAN. ) );
#236 = CARTESIAN_POINT ( 'NONE',  ( 12.95752522455268441, 0.000000000000000000, 8.742303977788372649 ) ) ;
#237 = ADVANCED_FACE ( 'NONE', ( #192 ), #392, .T. ) ;
#238 = APPLICATION_PROTOCOL_DEFINITION ( 'draft international standard', 'automotive_design', 1998, #46 ) ;
#239 = AXIS2_PLACEMENT_3D ( 'NONE', #413, #476, #574 ) ;
#240 = EDGE_CURVE ( 'NONE', #250, #539, #587, .T. ) ;
#241 = CARTESIAN_POINT ( 'NONE',  ( -6.120622561859175192, 0.000000000000000000, 9.738498675880117972 ) ) ;
#242 = VECTOR ( 'NONE', #325, 1000.000000000000000 ) ;
#243 = PRODUCT ( 'Steering-Post-Left', 'Steering-Post-Left', '', ( #585 ) ) ;
#244 = DIRECTION ( 'NONE',  ( 0.000000000000000000, -0.08715574274765701401, -0.9961946980917456562 ) ) ;
#245 = CARTESIAN_POINT ( 'NONE',  ( 5.514619311011562885, 29.56546468059001853, -6.745380979652400910 ) ) ;
#246 = VERTEX_POINT ( 'NONE', #395 ) ;
#247 = EDGE_LOOP ( 'NONE', ( #342, #547, #295, #161 ) ) ;
#248 = CARTESIAN_POINT ( 'NONE',  ( 9.431669453982745921, 28.91415836668503658, 7.208837603401924810 ) ) ;
#249 = AXIS2_PLACEMENT_3D ( 'NONE', #546, #503, #57 ) ;
#250 = VERTEX_POINT ( 'NONE', #241 ) ;
#251 = EDGE_CURVE ( 'NONE', #358, #100, #578, .T. ) ;
#252 = DIRECTION ( 'NONE',  ( 0.000000000000000000, 1.000000000000000000, 0.000000000000000000 ) ) ;
#253 = ORIENTED_EDGE ( 'NONE', *, *, #182, .F. ) ;
#254 = LINE ( 'NONE', #54, #563 ) ;
#255 = CARTESIAN_POINT ( 'NONE',  ( 3.420353982300881501, 17.00000000000000000, 0.2013274336283158161 ) ) ;
#256 = CARTESIAN_POINT ( 'NONE',  ( 3.420353982300881501, 17.00000000000000000, 0.2013274336283158161 ) ) ;
#257 = EDGE_CURVE ( 'NONE', #158, #593, #41, .T. ) ;
#258 = SURFACE_SIDE_STYLE ('',( #106 ) ) ;
#259 = AXIS2_PLACEMENT_3D ( 'NONE', #595, #604, #359 ) ;
#260 = EDGE_LOOP ( 'NONE', ( #393, #477 ) ) ;
#261 = CARTESIAN_POINT ( 'NONE',  ( 12.95752522455268441, 0.000000000000000000, 0.000000000000000000 ) ) ;
#262 = DIRECTION ( 'NONE',  ( -0.6080688659014513719, -0.000000000000000000, 0.7938842827020339277 ) ) ;
#263 = EDGE_LOOP ( 'NONE', ( #231, #428, #79, #588 ) ) ;
#264 = DIRECTION ( 'NONE',  ( 0.000000000000000000, 0.000000000000000000, 1.000000000000000000 ) ) ;
#265 =( BOUNDED_CURVE ( )  B_SPLINE_CURVE ( 3, ( #93, #479, #635, #197 ),
 .UNSPECIFIED., .F., .F. ) 
 B_SPLINE_CURVE_WITH_KNOTS ( ( 4, 4 ),
 ( 5.826477808793991464, 6.739892805565184553 ),
 .UNSPECIFIED. ) 
 CURVE ( )  GEOMETRIC_REPRESENTATION_ITEM ( )  RATIONAL_B_SPLINE_CURVE ( ( 1.000000000000000000, 0.9316728919262353692, 0.9316728919262353692, 1.000000000000000000 ) ) 
 REPRESENTATION_ITEM ( '' )  );
#266 = ORIENTED_EDGE ( 'NONE', *, *, #366, .T. ) ;
#267 = CYLINDRICAL_SURFACE ( 'NONE', #387, 1.999999999999999556 ) ;
#268 = CARTESIAN_POINT ( 'NONE',  ( 10.42035398230088106, 29.00000000000000000, -7.798672566371683601 ) ) ;
#269 = UNCERTAINTY_MEASURE_WITH_UNIT (LENGTH_MEASURE( 1.000000000000000082E-05 ), #187, 'distance_accuracy_value', 'NONE');
#270 = ORIENTED_EDGE ( 'NONE', *, *, #608, .F. ) ;
#271 = AXIS2_PLACEMENT_3D ( 'NONE', #523, #331, #284 ) ;
#272 = PLANE ( 'NONE',  #491 ) ;
#273 = ADVANCED_FACE ( 'NONE', ( #290 ), #343, .T. ) ;
#274 = CARTESIAN_POINT ( 'NONE',  ( -2.631051115410933061, 0.000000000000000000, -2.015231064194207278 ) ) ;
#275 = ORIENTED_EDGE ( 'NONE', *, *, #592, .F. ) ;
#276 = LINE ( 'NONE', #329, #384 ) ;
#277 = VERTEX_POINT ( 'NONE', #95 ) ;
#278 = DIRECTION ( 'NONE',  ( -0.08682659386424777803, 0.9924325091389669673, 0.08682659386424779191 ) ) ;
#279 = DIRECTION ( 'NONE',  ( 0.000000000000000000, -1.000000000000000000, 0.000000000000000000 ) ) ;
#280 = ORIENTED_EDGE ( 'NONE', *, *, #536, .T. ) ;
#281 = VECTOR ( 'NONE', #346, 1000.000000000000114 ) ;
#282 = AXIS2_PLACEMENT_3D ( 'NONE', #128, #29, #621 ) ;
#283 = LINE ( 'NONE', #319, #474 ) ;
#284 = DIRECTION ( 'NONE',  ( 0.000000000000000000, 0.000000000000000000, -1.000000000000000000 ) ) ;
#285 = ORIENTED_EDGE ( 'NONE', *, *, #107, .T. ) ;
#286 = PRODUCT_DEFINITION ( 'General', '', #378, #497 ) ;
#287 = DIRECTION ( 'NONE',  ( -0.08682659386424779191, -0.9924325091389670783, 0.08682659386424779191 ) ) ;
#288 = AXIS2_PLACEMENT_3D ( 'NONE', #255, #542, #103 ) ;
#289 = CIRCLE ( 'NONE', #74, 1.500000000000000000 ) ;
#290 = FACE_OUTER_BOUND ( 'NONE', #406, .T. ) ;
#291 = CIRCLE ( 'NONE', #514, 1.999999999999999556 ) ;
#292 = VECTOR ( 'NONE', #441, 1000.000000000000000 ) ;
#293 = DIRECTION ( 'NONE',  ( -1.000000000000000000, -0.000000000000000000, -0.000000000000000000 ) ) ;
#294 = EDGE_CURVE ( 'NONE', #539, #246, #139, .T. ) ;
#295 = ORIENTED_EDGE ( 'NONE', *, *, #559, .F. ) ;
#296 = DIRECTION ( 'NONE',  ( 1.000000000000000000, 0.000000000000000000, 0.000000000000000000 ) ) ;
#297 = CARTESIAN_POINT ( 'NONE',  ( 9.424159284209137510, 29.00000000000000000, -7.798672566371683601 ) ) ;
#298 = ORIENTED_EDGE ( 'NONE', *, *, #38, .F. ) ;
#299 = ORIENTED_EDGE ( 'NONE', *, *, #614, .F. ) ;
#300 = CARTESIAN_POINT ( 'NONE',  ( 4.695567949627434956, 29.00000000000000000, -7.408232848565619477 ) ) ;
#301 = VECTOR ( 'NONE', #262, 1000.000000000000000 ) ;
#302 = ORIENTED_EDGE ( 'NONE', *, *, #127, .T. ) ;
#303 = ORIENTED_EDGE ( 'NONE', *, *, #631, .F. ) ;
#304 = AXIS2_PLACEMENT_3D ( 'NONE', #484, #535, #45 ) ;
#305 = CARTESIAN_POINT ( 'NONE',  ( -7.116817259950919627, 0.000000000000000000, 4.178986127322450450 ) ) ;
#306 = LINE ( 'NONE', #20, #422 ) ;
#307 = EDGE_CURVE ( 'NONE', #234, #609, #357, .T. ) ;
#308 = CARTESIAN_POINT ( 'NONE',  ( 3.420353982300881945, 17.00000000000000000, -1.648672566371684578 ) ) ;
#309 = DIRECTION ( 'NONE',  ( 0.000000000000000000, 0.08715574274765837404, -0.9961946980917455452 ) ) ;
#310 = ORIENTED_EDGE ( 'NONE', *, *, #414, .T. ) ;
#311 = CARTESIAN_POINT ( 'NONE',  ( -0.5796460176991178326, 0.000000000000000000, 2.201327433628315955 ) ) ;
#312 = CARTESIAN_POINT ( 'NONE',  ( 4.994621906963840452, 29.00000000000000000, -7.798672566371683601 ) ) ;
#313 = EDGE_CURVE ( 'NONE', #515, #202, #509, .T. ) ;
#314 =( BOUNDED_CURVE ( )  B_SPLINE_CURVE ( 3, ( #522, #34, #172, #374 ),
 .UNSPECIFIED., .F., .F. ) 
 B_SPLINE_CURVE_WITH_KNOTS ( ( 4, 4 ),
 ( 5.501585242055419656, 7.064785372303751032 ),
 .UNSPECIFIED. ) 
 CURVE ( )  GEOMETRIC_REPRESENTATION_ITEM ( )  RATIONAL_B_SPLINE_CURVE ( ( 1.000000000000000000, 0.8065248903853486917, 0.8065248903853486917, 1.000000000000000000 ) ) 
 REPRESENTATION_ITEM ( '' )  );
#315 = VERTEX_POINT ( 'NONE', #308 ) ;
#316 = PLANE ( 'NONE',  #53 ) ;
#317 = DIRECTION ( 'NONE',  ( -0.000000000000000000, 0.9961946980917455452, 0.08715574274765837404 ) ) ;
#318 = VERTEX_POINT ( 'NONE', #498 ) ;
#319 = CARTESIAN_POINT ( 'NONE',  ( -0.5796460176991178326, 10.00000000000000000, 0.7013274336283158439 ) ) ;
#320 = LINE ( 'NONE', #110, #52 ) ;
#321 = VERTEX_POINT ( 'NONE', #603 ) ;
#322 = DIRECTION ( 'NONE',  ( -0.000000000000000000, -1.000000000000000000, -0.000000000000000000 ) ) ;
#323 = DIRECTION ( 'NONE',  ( 0.000000000000000000, 0.000000000000000000, -1.000000000000000000 ) ) ;
#324 = ORIENTED_EDGE ( 'NONE', *, *, #107, .F. ) ;
#325 = DIRECTION ( 'NONE',  ( -0.000000000000000000, -1.000000000000000000, -0.000000000000000000 ) ) ;
#326 = LINE ( 'NONE', #623, #193 ) ;
#327 = ORIENTED_EDGE ( 'NONE', *, *, #190, .F. ) ;
#328 = DIRECTION ( 'NONE',  ( 0.000000000000000000, 0.000000000000000000, -1.000000000000000000 ) ) ;
#329 = CARTESIAN_POINT ( 'NONE',  ( -7.116817259950919627, 0.000000000000000000, -0.000000000000000000 ) ) ;
#330 = ORIENTED_EDGE ( 'NONE', *, *, #536, .F. ) ;
#331 = DIRECTION ( 'NONE',  ( -0.000000000000000000, -1.000000000000000000, -0.000000000000000000 ) ) ;
#332 = ADVANCED_FACE ( 'NONE', ( #352 ), #204, .F. ) ;
#333 = VERTEX_POINT ( 'NONE', #58 ) ;
#334 = AXIS2_PLACEMENT_3D ( 'NONE', #598, #206, #496 ) ;
#335 = CARTESIAN_POINT ( 'NONE',  ( 4.695567949627434956, 29.00000000000000000, -7.408232848565619477 ) ) ;
#336 = CARTESIAN_POINT ( 'NONE',  ( -4.508718996819282232, 29.00000000000000355, 4.608726331593754999 ) ) ;
#337 = ADVANCED_FACE ( 'NONE', ( #99 ), #11, .T. ) ;
#338 = CARTESIAN_POINT ( 'NONE',  ( 10.42035398230088106, 29.00000000000000000, 7.201327433628316399 ) ) ;
#339 =( GEOMETRIC_REPRESENTATION_CONTEXT ( 3 ) GLOBAL_UNCERTAINTY_ASSIGNED_CONTEXT ( ( #104 ) ) GLOBAL_UNIT_ASSIGNED_CONTEXT ( ( #451, #453, #117 ) ) REPRESENTATION_CONTEXT ( 'NONE', 'WORKASPACE' ) );
#340 = CIRCLE ( 'NONE', #502, 1.999999999999999556 ) ;
#341 = CARTESIAN_POINT ( 'NONE',  ( 3.420353982300881945, 29.00000000000000000, -1.648672566371684578 ) ) ;
#342 = ORIENTED_EDGE ( 'NONE', *, *, #414, .F. ) ;
#343 = CYLINDRICAL_SURFACE ( 'NONE', #304, 0.9999999999999998890 ) ;
#344 = EDGE_LOOP ( 'NONE', ( #71, #396, #129, #2 ) ) ;
#345 = ORIENTED_EDGE ( 'NONE', *, *, #478, .T. ) ;
#346 = DIRECTION ( 'NONE',  ( 0.04298796799053337253, 0.9952738057878739442, 0.08707517511074133743 ) ) ;
#347 = ORIENTED_EDGE ( 'NONE', *, *, #586, .F. ) ;
#348 = VERTEX_POINT ( 'NONE', #211 ) ;
#349 = DIRECTION ( 'NONE',  ( -0.08682659386424779191, -0.9924325091389669673, 0.08682659386424777803 ) ) ;
#350 = PRESENTATION_LAYER_ASSIGNMENT (  '', '', ( #409 ) ) ;
#351 = CARTESIAN_POINT ( 'NONE',  ( 9.318586592951740855, 30.11954564006765978, 6.099560044279174420 ) ) ;
#352 = FACE_OUTER_BOUND ( 'NONE', #457, .T. ) ;
#353 = ORIENTED_EDGE ( 'NONE', *, *, #381, .F. ) ;
#354 =( BOUNDED_CURVE ( )  B_SPLINE_CURVE ( 3, ( #490, #500, #397, #452 ),
 .UNSPECIFIED., .F., .F. ) 
 B_SPLINE_CURVE_WITH_KNOTS ( ( 4, 4 ),
 ( 5.501585242055419656, 7.064785372303752808 ),
 .UNSPECIFIED. ) 
 CURVE ( )  GEOMETRIC_REPRESENTATION_ITEM ( )  RATIONAL_B_SPLINE_CURVE ( ( 1.000000000000000000, 0.8065248903853482476, 0.8065248903853482476, 1.000000000000000000 ) ) 
 REPRESENTATION_ITEM ( '' )  );
#355 = DIRECTION ( 'NONE',  ( 0.000000000000000000, -0.000000000000000000, -1.000000000000000000 ) ) ;
#356 = PLANE ( 'NONE',  #575 ) ;
#357 =( BOUNDED_CURVE ( )  B_SPLINE_CURVE ( 3, ( #136, #336, #402, #208 ),
 .UNSPECIFIED., .F., .T. ) 
 B_SPLINE_CURVE_WITH_KNOTS ( ( 4, 4 ),
 ( 5.957661997754104988, 6.608708616605068364 ),
 .UNSPECIFIED. ) 
 CURVE ( )  GEOMETRIC_REPRESENTATION_ITEM ( )  RATIONAL_B_SPLINE_CURVE ( ( 1.000000000000000000, 0.9649889995778574425, 0.9649889995778574425, 1.000000000000000000 ) ) 
 REPRESENTATION_ITEM ( '' )  );
#358 = VERTEX_POINT ( 'NONE', #399 ) ;
#359 = DIRECTION ( 'NONE',  ( 0.000000000000000000, 0.000000000000000000, -1.000000000000000000 ) ) ;
#360 = ORIENTED_EDGE ( 'NONE', *, *, #218, .F. ) ;
#361 = LINE ( 'NONE', #119, #373 ) ;
#362 = VERTEX_POINT ( 'NONE', #159 ) ;
#363 = EDGE_CURVE ( 'NONE', #118, #515, #446, .T. ) ;
#364 = EDGE_LOOP ( 'NONE', ( #24, #298, #444, #394 ) ) ;
#365 = CARTESIAN_POINT ( 'NONE',  ( 3.420353982300881501, 17.00000000000000000, 0.2013274336283158161 ) ) ;
#366 = EDGE_CURVE ( 'NONE', #184, #32, #410, .T. ) ;
#367 = CARTESIAN_POINT ( 'NONE',  ( -0.5796460176991178326, 10.00000000000000000, 0.7013274336283158439 ) ) ;
#368 = ORIENTED_EDGE ( 'NONE', *, *, #82, .F. ) ;
#369 = CARTESIAN_POINT ( 'NONE',  ( 10.42035398230088106, 29.00000000000000000, -6.802477868279939166 ) ) ;
#370 = LINE ( 'NONE', #274, #450 ) ;
#371 = AXIS2_PLACEMENT_3D ( 'NONE', #120, #279, #323 ) ;
#372 = ORIENTED_EDGE ( 'NONE', *, *, #294, .T. ) ;
#373 = VECTOR ( 'NONE', #322, 1000.000000000000000 ) ;
#374 = CARTESIAN_POINT ( 'NONE',  ( 11.96133052646094086, 0.000000000000000000, 9.738498675880117972 ) ) ;
#375 = DIRECTION ( 'NONE',  ( -0.6080688659014513719, -0.000000000000000000, 0.7938842827020339277 ) ) ;
#376 = EDGE_LOOP ( 'NONE', ( #324, #439, #275, #347 ) ) ;
#377 = DIRECTION ( 'NONE',  ( -0.08711773338888229024, -0.9957602491329407002, -0.02953009948996897574 ) ) ;
#378 = PRODUCT_DEFINITION_FORMATION_WITH_SPECIFIED_SOURCE ( 'Symmetric', '', #243, .NOT_KNOWN. ) ;
#379 = FACE_OUTER_BOUND ( 'NONE', #219, .T. ) ;
#380 = ORIENTED_EDGE ( 'NONE', *, *, #182, .T. ) ;
#381 = EDGE_CURVE ( 'NONE', #214, #76, #146, .T. ) ;
#382 = DIRECTION ( 'NONE',  ( 0.000000000000000000, -1.000000000000000000, 0.000000000000000000 ) ) ;
#383 = VERTEX_POINT ( 'NONE', #545 ) ;
#384 = VECTOR ( 'NONE', #418, 1000.000000000000000 ) ;
#385 = SHAPE_DEFINITION_REPRESENTATION ( #44, #436 ) ;
#386 = CARTESIAN_POINT ( 'NONE',  ( -4.587156187472726465, 28.91415836668503658, 6.212642905310179486 ) ) ;
#387 = AXIS2_PLACEMENT_3D ( 'NONE', #566, #126, #328 ) ;
#388 = AXIS2_PLACEMENT_3D ( 'NONE', #40, #573, #526 ) ;
#389 = CYLINDRICAL_SURFACE ( 'NONE', #564, 0.9999999999999998890 ) ;
#390 = CARTESIAN_POINT ( 'NONE',  ( 7.420353982300881945, 10.00000000000000000, 2.201327433628315955 ) ) ;
#391 = DIRECTION ( 'NONE',  ( 0.000000000000000000, 0.000000000000000000, 1.000000000000000000 ) ) ;
#392 = PLANE ( 'NONE',  #101 ) ;
#393 = ORIENTED_EDGE ( 'NONE', *, *, #127, .F. ) ;
#394 = ORIENTED_EDGE ( 'NONE', *, *, #424, .T. ) ;
#395 = CARTESIAN_POINT ( 'NONE',  ( 9.424159284209137510, 29.00000000000000000, 7.201327433628316399 ) ) ;
#396 = ORIENTED_EDGE ( 'NONE', *, *, #135, .T. ) ;
#397 = CARTESIAN_POINT ( 'NONE',  ( -4.167922953324429969, 29.00000000000000355, 7.201327433628316399 ) ) ;
#398 = DIRECTION ( 'NONE',  ( 0.000000000000000000, -0.000000000000000000, -1.000000000000000000 ) ) ;
#399 = CARTESIAN_POINT ( 'NONE',  ( -7.116817259950919627, 0.000000000000000000, 8.742303977788372649 ) ) ;
#400 = VECTOR ( 'NONE', #463, 1000.000000000000114 ) ;
#401 = CARTESIAN_POINT ( 'NONE',  ( -4.579646017699118055, 29.00000000000000000, 4.701327433628317287 ) ) ;
#402 = CARTESIAN_POINT ( 'NONE',  ( -4.579646017699118943, 29.00000000000000355, 4.817970506242612139 ) ) ;
#403 = EDGE_LOOP ( 'NONE', ( #415, #178, #368, #16 ) ) ;
#404 = CARTESIAN_POINT ( 'NONE',  ( 5.486431262953571419, 29.00000000000000000, -7.798672566371683601 ) ) ;
#405 = CARTESIAN_POINT ( 'NONE',  ( 0.000000000000000000, 29.00000000000000000, 0.000000000000000000 ) ) ;
#406 = EDGE_LOOP ( 'NONE', ( #360, #270, #83, #492 ) ) ;
#407 = DIRECTION ( 'NONE',  ( 0.000000000000000000, -0.000000000000000000, -1.000000000000000000 ) ) ;
#408 = DIRECTION ( 'NONE',  ( 0.000000000000000000, -0.08715574274765701401, -0.9961946980917456562 ) ) ;
#409 = STYLED_ITEM ( 'NONE', ( #55 ), #30 ) ;
#410 = CIRCLE ( 'NONE', #194, 1.850000000000000089 ) ;
#411 = ORIENTED_EDGE ( 'NONE', *, *, #313, .T. ) ;
#412 = CARTESIAN_POINT ( 'NONE',  ( -0.5796460176991178326, 0.000000000000000000, 0.7013274336283158439 ) ) ;
#413 = CARTESIAN_POINT ( 'NONE',  ( 3.420353982300881501, 17.00000000000000000, 0.2013274336283158161 ) ) ;
#414 = EDGE_CURVE ( 'NONE', #100, #333, #354, .T. ) ;
#415 = ORIENTED_EDGE ( 'NONE', *, *, #381, .T. ) ;
#416 = EDGE_CURVE ( 'NONE', #315, #184, #254, .T. ) ;
#417 = PLANE ( 'NONE',  #482 ) ;
#418 = DIRECTION ( 'NONE',  ( -0.000000000000000000, -0.000000000000000000, 1.000000000000000000 ) ) ;
#419 = ORIENTED_EDGE ( 'NONE', *, *, #507, .T. ) ;
#420 = FACE_OUTER_BOUND ( 'NONE', #10, .T. ) ;
#421 = CARTESIAN_POINT ( 'NONE',  ( -4.579646017699118055, 29.00000000000000000, 6.205132735536570188 ) ) ;
#422 = VECTOR ( 'NONE', #510, 1000.000000000000000 ) ;
#423 = ORIENTED_EDGE ( 'NONE', *, *, #225, .F. ) ;
#424 = EDGE_CURVE ( 'NONE', #565, #277, #289, .T. ) ;
#425 = CARTESIAN_POINT ( 'NONE',  ( 7.420353982300881945, 0.000000000000000000, 2.201327433628315955 ) ) ;
#426 = CARTESIAN_POINT ( 'NONE',  ( 12.95752522455268441, 0.000000000000000000, -9.339649110531739851 ) ) ;
#427 = ADVANCED_FACE ( 'NONE', ( #594, #548, #113 ), #316, .T. ) ;
#428 = ORIENTED_EDGE ( 'NONE', *, *, #614, .T. ) ;
#429 = CARTESIAN_POINT ( 'NONE',  ( 10.42035398230088461, 29.00000000000000355, 6.789604369253627425 ) ) ;
#430 = ORIENTED_EDGE ( 'NONE', *, *, #448, .T. ) ;
#431 = CARTESIAN_POINT ( 'NONE',  ( -4.579646017699118055, 29.00000000000000000, 5.039005279477588140 ) ) ;
#432 = DIRECTION ( 'NONE',  ( -0.04298796799053337253, -0.9952738057878739442, -0.08707517511074132355 ) ) ;
#433 = AXIS2_PLACEMENT_3D ( 'NONE', #570, #616, #223 ) ;
#434 = FACE_OUTER_BOUND ( 'NONE', #612, .T. ) ;
#435 = LINE ( 'NONE', #577, #567 ) ;
#436 = ADVANCED_BREP_SHAPE_REPRESENTATION ( 'Steering-Post-Left', ( #30, #12 ), #628 ) ;
#437 = FACE_OUTER_BOUND ( 'NONE', #602, .T. ) ;
#438 = ORIENTED_EDGE ( 'NONE', *, *, #307, .F. ) ;
#439 = ORIENTED_EDGE ( 'NONE', *, *, #294, .F. ) ;
#440 = AXIS2_PLACEMENT_3D ( 'NONE', #183, #287, #244 ) ;
#441 = DIRECTION ( 'NONE',  ( 1.000000000000000000, -0.000000000000000000, -0.000000000000000000 ) ) ;
#442 = EDGE_LOOP ( 'NONE', ( #17, #508, #266, #518 ) ) ;
#443 =( BOUNDED_CURVE ( )  B_SPLINE_CURVE ( 3, ( #475, #179, #18, #465 ),
 .UNSPECIFIED., .F., .F. ) 
 B_SPLINE_CURVE_WITH_KNOTS ( ( 4, 4 ),
 ( 5.501585242055419656, 7.064785372303752808 ),
 .UNSPECIFIED. ) 
 CURVE ( )  GEOMETRIC_REPRESENTATION_ITEM ( )  RATIONAL_B_SPLINE_CURVE ( ( 1.000000000000000000, 0.8065248903853482476, 0.8065248903853482476, 1.000000000000000000 ) ) 
 REPRESENTATION_ITEM ( '' )  );
#444 = ORIENTED_EDGE ( 'NONE', *, *, #533, .T. ) ;
#445 = LINE ( 'NONE', #56, #196 ) ;
#446 = LINE ( 'NONE', #108, #281 ) ;
#447 = LINE ( 'NONE', #401, #301 ) ;
#448 = EDGE_CURVE ( 'NONE', #591, #315, #584, .T. ) ;
#449 = DIRECTION ( 'NONE',  ( 0.000000000000000000, 1.000000000000000000, 0.000000000000000000 ) ) ;
#450 = VECTOR ( 'NONE', #375, 1000.000000000000000 ) ;
#451 =( LENGTH_UNIT ( ) NAMED_UNIT ( * ) SI_UNIT ( .MILLI., .METRE. ) );
#452 = CARTESIAN_POINT ( 'NONE',  ( -3.583451319607373176, 29.00000000000000000, 7.201327433628316399 ) ) ;
#453 =( NAMED_UNIT ( * ) PLANE_ANGLE_UNIT ( ) SI_UNIT ( $, .RADIAN. ) );
#454 = VERTEX_POINT ( 'NONE', #455 ) ;
#455 = CARTESIAN_POINT ( 'NONE',  ( -7.116817259950919627, 0.000000000000000000, 4.178986127322450450 ) ) ;
#456 = EDGE_LOOP ( 'NONE', ( #67, #303 ) ) ;
#457 = EDGE_LOOP ( 'NONE', ( #125, #48, #36, #486 ) ) ;
#458 = DIRECTION ( 'NONE',  ( -0.000000000000000000, -1.000000000000000000, -0.000000000000000000 ) ) ;
#459 = DIRECTION ( 'NONE',  ( 0.000000000000000000, 0.000000000000000000, -1.000000000000000000 ) ) ;
#460 = ORIENTED_EDGE ( 'NONE', *, *, #467, .T. ) ;
#461 = FACE_OUTER_BOUND ( 'NONE', #111, .T. ) ;
#462 = EDGE_CURVE ( 'NONE', #333, #250, #445, .T. ) ;
#463 = DIRECTION ( 'NONE',  ( -0.08711773338888229024, -0.9957602491329407002, -0.02953009948996897574 ) ) ;
#464 = ORIENTED_EDGE ( 'NONE', *, *, #37, .F. ) ;
#465 = CARTESIAN_POINT ( 'NONE',  ( -7.116817259950919627, 0.000000000000000000, 8.742303977788372649 ) ) ;
#466 = CARTESIAN_POINT ( 'NONE',  ( 10.00863091792619386, 29.00000000000000355, 7.201327433628316399 ) ) ;
#467 = EDGE_CURVE ( 'NONE', #454, #534, #89, .T. ) ;
#468 = ORIENTED_EDGE ( 'NONE', *, *, #19, .T. ) ;
#469 = CARTESIAN_POINT ( 'NONE',  ( 12.54580216017799721, 0.000000000000000000, -10.33584380862348517 ) ) ;
#470 = DIRECTION ( 'NONE',  ( 0.000000000000000000, -1.000000000000000000, 0.000000000000000000 ) ) ;
#471 = CIRCLE ( 'NONE', #531, 1.500000000000000000 ) ;
#472 = ADVANCED_FACE ( 'NONE', ( #3 ), #25, .F. ) ;
#473 = EDGE_LOOP ( 'NONE', ( #327, #552, #419, #330 ) ) ;
#474 = VECTOR ( 'NONE', #458, 1000.000000000000000 ) ;
#475 = CARTESIAN_POINT ( 'NONE',  ( -6.120622561859175192, 0.000000000000000000, 9.738498675880117972 ) ) ;
#476 = DIRECTION ( 'NONE',  ( 0.000000000000000000, 1.000000000000000000, 0.000000000000000000 ) ) ;
#477 = ORIENTED_EDGE ( 'NONE', *, *, #507, .F. ) ;
#478 = EDGE_CURVE ( 'NONE', #593, #76, #70, .T. ) ;
#479 = CARTESIAN_POINT ( 'NONE',  ( 3.635055607382172038, 0.000000000000000000, -10.19615253529155474 ) ) ;
#480 = CARTESIAN_POINT ( 'NONE',  ( 0.000000000000000000, 0.000000000000000000, 9.738498675880117972 ) ) ;
#481 = COLOUR_RGB ( '',0.7921568627450980005, 0.8196078431372548767, 0.9333333333333333481 ) ;
#482 = AXIS2_PLACEMENT_3D ( 'NONE', #365, #560, #516 ) ;
#483 = AXIS2_PLACEMENT_3D ( 'NONE', #485, #625, #39 ) ;
#484 = CARTESIAN_POINT ( 'NONE',  ( 9.390765633564960524, 29.29453543069543997, -6.769084217635760403 ) ) ;
#485 = CARTESIAN_POINT ( 'NONE',  ( -0.5796460176991178326, 10.00000000000000000, 2.201327433628315955 ) ) ;
#486 = ORIENTED_EDGE ( 'NONE', *, *, #148, .T. ) ;
#487 = ADVANCED_FACE ( 'NONE', ( #420 ), #272, .T. ) ;
#488 = VERTEX_POINT ( 'NONE', #369 ) ;
#489 = ADVANCED_FACE ( 'NONE', ( #461 ), #417, .T. ) ;
#490 = CARTESIAN_POINT ( 'NONE',  ( -4.579646017699118055, 29.00000000000000000, 6.205132735536570188 ) ) ;
#491 = AXIS2_PLACEMENT_3D ( 'NONE', #610, #229, #116 ) ;
#492 = ORIENTED_EDGE ( 'NONE', *, *, #257, .F. ) ;
#493 = VECTOR ( 'NONE', #176, 1000.000000000000114 ) ;
#494 = PRODUCT_RELATED_PRODUCT_CATEGORY ( 'part', '', ( #243 ) ) ;
#495 = CARTESIAN_POINT ( 'NONE',  ( -7.116817259950920516, 0.000000000000000000, 3.957951354087475782 ) ) ;
#496 = DIRECTION ( 'NONE',  ( -0.08715574274765837404, 0.9961946980917455452, 0.000000000000000000 ) ) ;
#497 = PRODUCT_DEFINITION_CONTEXT ( 'detailed design', #188, 'design' ) ;
#498 = CARTESIAN_POINT ( 'NONE',  ( -0.5796460176991176105, 10.00000000000000000, 3.701327433628315955 ) ) ;
#499 = FACE_OUTER_BOUND ( 'NONE', #403, .T. ) ;
#500 = CARTESIAN_POINT ( 'NONE',  ( -4.579646017699118943, 29.00000000000000355, 6.789604369253627425 ) ) ;
#501 = CIRCLE ( 'NONE', #249, 1.999999999999999556 ) ;
#502 = AXIS2_PLACEMENT_3D ( 'NONE', #390, #191, #627 ) ;
#503 = DIRECTION ( 'NONE',  ( 0.000000000000000000, -1.000000000000000000, 0.000000000000000000 ) ) ;
#504 = ORIENTED_EDGE ( 'NONE', *, *, #138, .F. ) ;
#505 = CARTESIAN_POINT ( 'NONE',  ( 0.000000000000000000, 0.000000000000000000, 0.000000000000000000 ) ) ;
#506 = FACE_OUTER_BOUND ( 'NONE', #376, .T. ) ;
#507 = EDGE_CURVE ( 'NONE', #362, #348, #291, .T. ) ;
#508 = ORIENTED_EDGE ( 'NONE', *, *, #416, .T. ) ;
#509 =( BOUNDED_CURVE ( )  B_SPLINE_CURVE ( 3, ( #404, #9, #200, #300 ),
 .UNSPECIFIED., .F., .F. ) 
 B_SPLINE_CURVE_WITH_KNOTS ( ( 4, 4 ),
 ( 5.826477808793988800, 6.739892805565190770 ),
 .UNSPECIFIED. ) 
 CURVE ( )  GEOMETRIC_REPRESENTATION_ITEM ( )  RATIONAL_B_SPLINE_CURVE ( ( 1.000000000000000000, 0.9316728919262340369, 0.9316728919262340369, 1.000000000000000000 ) ) 
 REPRESENTATION_ITEM ( '' )  );
#510 = DIRECTION ( 'NONE',  ( -0.000000000000000000, -1.000000000000000000, -0.000000000000000000 ) ) ;
#511 = EDGE_LOOP ( 'NONE', ( #141, #222 ) ) ;
#512 = CARTESIAN_POINT ( 'NONE',  ( 12.95752522455268796, 0.000000000000000000, -9.924120744248797976 ) ) ;
#513 = DIRECTION ( 'NONE',  ( -1.000000000000000000, -0.000000000000000000, -0.000000000000000000 ) ) ;
#514 = AXIS2_PLACEMENT_3D ( 'NONE', #425, #164, #232 ) ;
#515 = VERTEX_POINT ( 'NONE', #72 ) ;
#516 = DIRECTION ( 'NONE',  ( 0.000000000000000000, -0.000000000000000000, 1.000000000000000000 ) ) ;
#517 = DIRECTION ( 'NONE',  ( 0.000000000000000000, 0.000000000000000000, 1.000000000000000000 ) ) ;
#518 = ORIENTED_EDGE ( 'NONE', *, *, #144, .F. ) ;
#519 = DIRECTION ( 'NONE',  ( 0.9961946980917456562, -0.08715574274765704177, 0.000000000000000000 ) ) ;
#520 = CARTESIAN_POINT ( 'NONE',  ( -4.574083237814065228, 29.06358286503490262, 5.040890882294101871 ) ) ;
#521 = ORIENTED_EDGE ( 'NONE', *, *, #218, .T. ) ;
#522 = CARTESIAN_POINT ( 'NONE',  ( 12.95752522455268441, 0.000000000000000000, 8.742303977788372649 ) ) ;
#523 = CARTESIAN_POINT ( 'NONE',  ( 7.420353982300881945, 10.00000000000000000, 2.201327433628315955 ) ) ;
#524 = EDGE_LOOP ( 'NONE', ( #438, #86, #174, #115 ) ) ;
#525 = VECTOR ( 'NONE', #532, 1000.000000000000000 ) ;
#526 = DIRECTION ( 'NONE',  ( 0.000000000000000000, 0.000000000000000000, -1.000000000000000000 ) ) ;
#527 = CARTESIAN_POINT ( 'NONE',  ( 10.42035398230088106, 29.00000000000000355, -7.386949501996996403 ) ) ;
#528 = LINE ( 'NONE', #88, #163 ) ;
#529 = CARTESIAN_POINT ( 'NONE',  ( 9.390765633564960524, 29.38169117344309811, -7.765278915727505726 ) ) ;
#530 =( BOUNDED_CURVE ( )  B_SPLINE_CURVE ( 3, ( #137, #527, #91, #297 ),
 .UNSPECIFIED., .F., .F. ) 
 B_SPLINE_CURVE_WITH_KNOTS ( ( 4, 4 ),
 ( 5.501585242055419656, 7.064785372303754585 ),
 .UNSPECIFIED. ) 
 CURVE ( )  GEOMETRIC_REPRESENTATION_ITEM ( )  RATIONAL_B_SPLINE_CURVE ( ( 1.000000000000000000, 0.8065248903853478035, 0.8065248903853478035, 1.000000000000000000 ) ) 
 REPRESENTATION_ITEM ( '' )  );
#531 = AXIS2_PLACEMENT_3D ( 'NONE', #562, #470, #459 ) ;
#532 = DIRECTION ( 'NONE',  ( 1.000000000000000000, -0.000000000000000000, -0.000000000000000000 ) ) ;
#533 = EDGE_CURVE ( 'NONE', #98, #565, #283, .T. ) ;
#534 = VERTEX_POINT ( 'NONE', #606 ) ;
#535 = DIRECTION ( 'NONE',  ( 0.08682659386424779191, -0.9924325091389670783, -0.08682659386424779191 ) ) ;
#536 = EDGE_CURVE ( 'NONE', #634, #348, #556, .T. ) ;
#537 = EDGE_LOOP ( 'NONE', ( #624, #168 ) ) ;
#538 = DIRECTION ( 'NONE',  ( 0.000000000000000000, -1.000000000000000000, 0.000000000000000000 ) ) ;
#539 = VERTEX_POINT ( 'NONE', #123 ) ;
#540 = ORIENTED_EDGE ( 'NONE', *, *, #97, .F. ) ;
#541 = CARTESIAN_POINT ( 'NONE',  ( 3.420353982300881501, 17.00000000000000000, 0.2013274336283158161 ) ) ;
#542 = DIRECTION ( 'NONE',  ( -0.000000000000000000, 1.000000000000000000, -0.000000000000000000 ) ) ;
#543 = CARTESIAN_POINT ( 'NONE',  ( 3.420353982300881501, 29.00000000000000000, 0.2013274336283158161 ) ) ;
#544 = PLANE ( 'NONE',  #334 ) ;
#545 = CARTESIAN_POINT ( 'NONE',  ( 7.420353982300881945, 10.00000000000000000, 4.201327433628314623 ) ) ;
#546 = CARTESIAN_POINT ( 'NONE',  ( 7.420353982300881945, 10.00000000000000000, 2.201327433628315955 ) ) ;
#547 = ORIENTED_EDGE ( 'NONE', *, *, #251, .F. ) ;
#548 = FACE_BOUND ( 'NONE', #260, .T. ) ;
#549 = AXIS2_PLACEMENT_3D ( 'NONE', #85, #382, #617 ) ;
#550 = FILL_AREA_STYLE_COLOUR ( '', #481 ) ;
#551 = EDGE_CURVE ( 'NONE', #318, #277, #361, .T. ) ;
#552 = ORIENTED_EDGE ( 'NONE', *, *, #60, .T. ) ;
#553 = CARTESIAN_POINT ( 'NONE',  ( -3.577888539722319905, 28.97642712228724449, 5.040890882294101871 ) ) ;
#554 = ADVANCED_FACE ( 'NONE', ( #22 ), #130, .T. ) ;
#555 = ORIENTED_EDGE ( 'NONE', *, *, #363, .T. ) ;
#556 = LINE ( 'NONE', #169, #242 ) ;
#557 = DIRECTION ( 'NONE',  ( -0.000000000000000000, 1.000000000000000000, -0.000000000000000000 ) ) ;
#558 = ORIENTED_EDGE ( 'NONE', *, *, #257, .T. ) ;
#559 = EDGE_CURVE ( 'NONE', #250, #358, #443, .T. ) ;
#560 = DIRECTION ( 'NONE',  ( 0.000000000000000000, 1.000000000000000000, 0.000000000000000000 ) ) ;
#561 = CLOSED_SHELL ( 'NONE', ( #49, #216, #599, #337, #487, #5, #4, #237, #33, #427, #162, #152, #472, #155, #332, #489, #226, #554, #273, #42, #166 ) ) ;
#562 = CARTESIAN_POINT ( 'NONE',  ( -0.5796460176991178326, 10.00000000000000000, 2.201327433628315955 ) ) ;
#563 = VECTOR ( 'NONE', #150, 1000.000000000000000 ) ;
#564 = AXIS2_PLACEMENT_3D ( 'NONE', #245, #432, #87 ) ;
#565 = VERTEX_POINT ( 'NONE', #412 ) ;
#566 = CARTESIAN_POINT ( 'NONE',  ( 7.420353982300881945, 10.00000000000000000, 2.201327433628315955 ) ) ;
#567 = VECTOR ( 'NONE', #579, 1000.000000000000114 ) ;
#568 = PLANE ( 'NONE',  #282 ) ;
#569 = EDGE_LOOP ( 'NONE', ( #504, #96, #207, #345, #353, #198, #65, #14, #147, #460 ) ) ;
#570 = CARTESIAN_POINT ( 'NONE',  ( -0.5796460176991178326, 10.00000000000000000, 2.201327433628315955 ) ) ;
#571 = CARTESIAN_POINT ( 'NONE',  ( 3.420353982300881501, 29.00000000000000000, 0.2013274336283158161 ) ) ;
#572 = ORIENTED_EDGE ( 'NONE', *, *, #307, .T. ) ;
#573 = DIRECTION ( 'NONE',  ( 0.000000000000000000, -1.000000000000000000, 0.000000000000000000 ) ) ;
#574 = DIRECTION ( 'NONE',  ( 0.000000000000000000, 0.000000000000000000, 1.000000000000000000 ) ) ;
#575 = AXIS2_PLACEMENT_3D ( 'NONE', #405, #201, #398 ) ;
#576 = DIRECTION ( 'NONE',  ( -0.08682659386424779191, 0.9924325091389669673, -0.08682659386424777803 ) ) ;
#577 = CARTESIAN_POINT ( 'NONE',  ( 4.723755997685429087, 29.65262042333767667, -7.351135959938089215 ) ) ;
#578 = LINE ( 'NONE', #386, #142 ) ;
#579 = DIRECTION ( 'NONE',  ( -0.04298796799053337253, -0.9952738057878739442, -0.08707517511074132355 ) ) ;
#580 = CARTESIAN_POINT ( 'NONE',  ( -4.374314632933506530, 29.00000000000000000, 4.433250299191900723 ) ) ;
#581 = ORIENTED_EDGE ( 'NONE', *, *, #240, .T. ) ;
#582 = AXIS2_PLACEMENT_3D ( 'NONE', #256, #15, #600 ) ;
#583 = VECTOR ( 'NONE', #355, 1000.000000000000000 ) ;
#584 = CIRCLE ( 'NONE', #112, 1.850000000000000089 ) ;
#585 = PRODUCT_CONTEXT ( 'NONE', #46, 'mechanical' ) ;
#586 = EDGE_CURVE ( 'NONE', #321, #214, #220, .T. ) ;
#587 = LINE ( 'NONE', #480, #292 ) ;
#588 = ORIENTED_EDGE ( 'NONE', *, *, #121, .T. ) ;
#589 = AXIS2_PLACEMENT_3D ( 'NONE', #553, #377, #519 ) ;
#590 = DIRECTION ( 'NONE',  ( 0.08682659386424777803, 0.9924325091389669673, -0.08682659386424779191 ) ) ;
#591 = VERTEX_POINT ( 'NONE', #77 ) ;
#592 = EDGE_CURVE ( 'NONE', #214, #539, #314, .T. ) ;
#593 = VERTEX_POINT ( 'NONE', #215 ) ;
#594 = FACE_BOUND ( 'NONE', #456, .T. ) ;
#595 = CARTESIAN_POINT ( 'NONE',  ( -0.5796460176991178326, 10.00000000000000000, 2.201327433628315955 ) ) ;
#596 = VECTOR ( 'NONE', #224, 1000.000000000000114 ) ;
#597 = CARTESIAN_POINT ( 'NONE',  ( -7.045890239071084693, 0.000000000000000000, 3.748707179438618642 ) ) ;
#598 = CARTESIAN_POINT ( 'NONE',  ( 10.42035398230088106, 29.00000000000000000, -7.798672566371683601 ) ) ;
#599 = ADVANCED_FACE ( 'NONE', ( #68 ), #267, .F. ) ;
#600 = DIRECTION ( 'NONE',  ( 0.000000000000000000, 0.000000000000000000, 1.000000000000000000 ) ) ;
#601 = FACE_BOUND ( 'NONE', #511, .T. ) ;
#602 = EDGE_LOOP ( 'NONE', ( #209, #1, #171, #299 ) ) ;
#603 = CARTESIAN_POINT ( 'NONE',  ( 10.42035398230088106, 29.00000000000000000, 6.205132735536569299 ) ) ;
#604 = DIRECTION ( 'NONE',  ( 0.000000000000000000, -1.000000000000000000, 0.000000000000000000 ) ) ;
#605 = ORIENTED_EDGE ( 'NONE', *, *, #225, .T. ) ;
#606 = CARTESIAN_POINT ( 'NONE',  ( -6.911485875185309879, 0.000000000000000000, 3.573231147036764366 ) ) ;
#607 = FACE_OUTER_BOUND ( 'NONE', #442, .T. ) ;
#608 = EDGE_CURVE ( 'NONE', #76, #488, #80, .T. ) ;
#609 = VERTEX_POINT ( 'NONE', #431 ) ;
#610 = CARTESIAN_POINT ( 'NONE',  ( 10.42035398230088106, 29.00000000000000000, 7.201327433628316399 ) ) ;
#611 = LINE ( 'NONE', #69, #92 ) ;
#612 = EDGE_LOOP ( 'NONE', ( #540, #50, #145, #615 ) ) ;
#613 = CARTESIAN_POINT ( 'NONE',  ( 10.31478129104348440, 30.20670138281531791, 6.099560044279172644 ) ) ;
#614 = EDGE_CURVE ( 'NONE', #202, #133, #435, .T. ) ;
#615 = ORIENTED_EDGE ( 'NONE', *, *, #533, .F. ) ;
#616 = DIRECTION ( 'NONE',  ( -0.000000000000000000, -1.000000000000000000, -0.000000000000000000 ) ) ;
#617 = DIRECTION ( 'NONE',  ( 0.000000000000000000, -0.000000000000000000, -1.000000000000000000 ) ) ;
#618 =( BOUNDED_CURVE ( )  B_SPLINE_CURVE ( 3, ( #217, #466, #429, #173 ),
 .UNSPECIFIED., .F., .F. ) 
 B_SPLINE_CURVE_WITH_KNOTS ( ( 4, 4 ),
 ( 5.501585242055419656, 7.064785372303754585 ),
 .UNSPECIFIED. ) 
 CURVE ( )  GEOMETRIC_REPRESENTATION_ITEM ( )  RATIONAL_B_SPLINE_CURVE ( ( 1.000000000000000000, 0.8065248903853478035, 0.8065248903853478035, 1.000000000000000000 ) ) 
 REPRESENTATION_ITEM ( '' )  );
#619 = EDGE_LOOP ( 'NONE', ( #27, #149 ) ) ;
#620 = CARTESIAN_POINT ( 'NONE',  ( 11.96133052646094086, 0.000000000000000000, -10.33584380862348517 ) ) ;
#621 = DIRECTION ( 'NONE',  ( 0.000000000000000000, -0.000000000000000000, -1.000000000000000000 ) ) ;
#622 = ORIENTED_EDGE ( 'NONE', *, *, #82, .T. ) ;
#623 = CARTESIAN_POINT ( 'NONE',  ( 3.420353982300881501, 17.00000000000000000, 2.051327433628316044 ) ) ;
#624 = ORIENTED_EDGE ( 'NONE', *, *, #38, .T. ) ;
#625 = DIRECTION ( 'NONE',  ( -0.000000000000000000, -1.000000000000000000, -0.000000000000000000 ) ) ;
#626 =( NAMED_UNIT ( * ) SI_UNIT ( $, .STERADIAN. ) SOLID_ANGLE_UNIT ( ) );
#627 = DIRECTION ( 'NONE',  ( 0.000000000000000000, 0.000000000000000000, -1.000000000000000000 ) ) ;
#628 =( GEOMETRIC_REPRESENTATION_CONTEXT ( 3 ) GLOBAL_UNCERTAINTY_ASSIGNED_CONTEXT ( ( #269 ) ) GLOBAL_UNIT_ASSIGNED_CONTEXT ( ( #187, #235, #626 ) ) REPRESENTATION_CONTEXT ( 'NONE', 'WORKASPACE' ) );
#629 = CARTESIAN_POINT ( 'NONE',  ( 7.420353982300881945, 10.00000000000000000, 0.2013274336283162602 ) ) ;
#630 = CARTESIAN_POINT ( 'NONE',  ( -4.579646017699118055, 29.00000000000000000, 4.701327433628317287 ) ) ;
#631 = EDGE_CURVE ( 'NONE', #277, #565, #199, .T. ) ;
#632 = APPLICATION_PROTOCOL_DEFINITION ( 'draft international standard', 'automotive_design', 1998, #188 ) ;
#633 = CYLINDRICAL_SURFACE ( 'NONE', #483, 1.500000000000000000 ) ;
#634 = VERTEX_POINT ( 'NONE', #629 ) ;
#635 = CARTESIAN_POINT ( 'NONE',  ( 3.918010179449851194, 0.000000000000000000, -10.33584380862348517 ) ) ;
ENDSEC;
END-ISO-10303-21;
